<?xml version="1.0" encoding="UTF-8"?>
<svg xmlns="http://www.w3.org/2000/svg" width="24" height="24" viewBox="0 0 24 24" fill="none">
  <g clip-path="url(#clip0_430_1905)">
    <path fill-rule="evenodd" clip-rule="evenodd" d="M11.5001 23.384C15.2494 23.384 18.3776 18.2872 18.3776 11.9999C18.3776 5.71259 15.2494 0.615845 11.5001 0.615845C7.75079 0.615845 4.62234 5.71269 4.62234 11.9999C4.62244 18.2871 7.75089 23.384 11.5001 23.384Z" fill="white"></path>
    <path d="M11.5001 22.7682C13.1478 22.7682 14.6854 21.6006 15.8249 19.7144C17.013 17.7473 17.7554 15.0221 17.7554 11.9998C17.7554 8.97741 17.013 6.25219 15.8249 4.2854C14.6853 2.39912 13.1479 1.23151 11.5001 1.23151C9.85232 1.23151 8.31498 2.39912 7.17542 4.2854C5.98719 6.25219 5.2447 8.97771 5.2447 11.9998C5.2447 15.0218 5.98719 17.7475 7.17542 19.7144C8.31498 21.6007 9.85242 22.7682 11.5001 22.7682ZM11.5001 24C9.38628 24 7.47455 22.6023 6.11072 20.3447C4.81175 18.1947 4 15.2445 4 12C4 8.75536 4.81155 5.80542 6.11072 3.65526C7.47475 1.39767 9.38648 0 11.5001 0C13.6137 0 15.5253 1.39767 16.8895 3.65526C18.1885 5.80542 18.9999 8.75546 18.9999 12C18.9999 15.2444 18.1885 18.1944 16.8895 20.3446C15.5254 22.6022 13.614 23.9999 11.5001 23.9999V24Z" fill="black"></path>
    <path d="M11.5001 23.1641C13.2977 23.1641 14.9553 21.9226 16.1669 19.917C17.3907 17.8913 18.1556 15.0937 18.1556 12C18.1556 8.90636 17.3908 6.10884 16.1669 4.083C14.9553 2.07744 13.2978 0.83594 11.5001 0.83594C9.70242 0.83594 8.04484 2.07744 6.83322 4.083C5.60931 6.10884 4.84464 8.90636 4.84464 12C4.84464 15.0937 5.60921 17.8914 6.83322 19.917C8.04484 21.9227 9.70262 23.1641 11.5001 23.1641ZM11.5001 23.6041C9.53621 23.6041 7.74471 22.2805 6.45294 20.1423C5.18944 18.0509 4.40009 15.1732 4.40009 12C4.40009 8.82684 5.18944 5.9492 6.45294 3.85789C7.74471 1.71959 9.53621 0.395996 11.5001 0.395996C13.464 0.395996 15.2555 1.71959 16.5472 3.85798C17.8105 5.9492 18.5999 8.82694 18.5999 12C18.5999 15.1731 17.8105 18.0509 16.5472 20.1423C15.2556 22.2805 13.464 23.6041 11.5001 23.6041Z" fill="#CA2E31"></path>
    <path fill-rule="evenodd" clip-rule="evenodd" d="M10.3431 18.2902V5.91516H9.19031V17.8505L10.3431 18.2903V18.2902Z" fill="black"></path>
    <path fill-rule="evenodd" clip-rule="evenodd" d="M9.1873 17.8504V5.91516L8.03455 6.61889V17.4106L9.1873 17.8504Z" fill="#CA2E31"></path>
    <path fill-rule="evenodd" clip-rule="evenodd" d="M8.03175 17.4106V6.6189L6.879 7.49878V16.5309L8.03175 17.4107V17.4106Z" fill="black"></path>
    <path fill-rule="evenodd" clip-rule="evenodd" d="M6.87598 16.5308V7.49866L5.72333 9.25804V14.7711L6.87598 16.5308Z" fill="#CA2E31"></path>
    <path fill-rule="evenodd" clip-rule="evenodd" d="M5.72034 14.9472V8.99426L5.18994 10.3139V13.8915L5.72034 14.9472Z" fill="black"></path>
    <path d="M13.9448 6.17166V18.0701H13.5004V5.95178H13.9448V6.17166ZM15.5449 7.00743V17.2346H15.1003V6.78746H15.5449V7.00733V7.00743Z" fill="black"></path>
    <path d="M11.7245 12.5742H17.9784V13.0138H11.5023V12.5742H11.7245ZM11.7245 10.9905H17.9784V11.4305H11.5023V10.9905H11.7245Z" fill="black"></path>
    <path fill-rule="evenodd" clip-rule="evenodd" d="M18.0192 11.4267H15.0989V6.88287L13.9461 6.17894V11.4267H11.4987V5.56323L10.3459 5.73909V18.2902H11.4987V12.5674H13.9461V17.8504L15.0989 17.4106V12.5674H18.0192V11.4267Z" fill="#CA2E31"></path>
    <path d="M11.9446 5.73171V18.5321H11.4999V5.51184H11.9446V5.73171Z" fill="black"></path>
    <path d="M11.5001 18.1254C13.209 18.1254 14.7566 17.4395 15.8766 16.3312C16.9965 15.2228 17.6895 13.6914 17.6895 12C17.6895 10.3085 16.9965 8.77715 15.8766 7.66878C14.7566 6.56041 13.2091 5.87478 11.5001 5.87478C9.79106 5.87478 8.24353 6.56041 7.12346 7.66878C6.00348 8.77725 5.31067 10.3085 5.31067 12C5.31067 13.6914 6.00348 15.2229 7.12346 16.3312C8.24353 17.4395 9.79096 18.1254 11.5001 18.1254ZM11.5001 18.5654C9.66823 18.5654 8.00966 17.8305 6.80923 16.6424C5.6088 15.4543 4.86612 13.813 4.86612 12.0002C4.86612 10.1874 5.6087 8.5461 6.80923 7.35791C8.00976 6.16973 9.66823 5.43494 11.5001 5.43494C13.332 5.43494 14.9904 6.16983 16.191 7.35791C17.3913 8.5459 18.1338 10.1873 18.1338 12.0002C18.1338 13.8131 17.3912 15.4544 16.191 16.6424C14.9905 17.8304 13.332 18.5654 11.5001 18.5654Z" fill="black"></path>
    <path fill-rule="evenodd" clip-rule="evenodd" d="M8.27401 18.6835L8.33288 18.7046C8.73005 18.8468 8.90376 18.6994 8.96392 18.5624L9.30223 18.6833L8.61532 20.5629L8.20335 20.4156L8.67649 19.121L8.17926 18.9431L8.27401 18.6835ZM10.2236 19.7151C10.038 19.6874 9.96167 19.545 9.97936 19.428C10.0015 19.2834 10.119 19.1985 10.3138 19.2276C10.4531 19.2484 10.553 19.3602 10.5301 19.5105C10.5084 19.6525 10.3936 19.7408 10.2236 19.7151ZM10.8918 20.4159C10.931 20.1598 10.8325 20.0171 10.6368 19.891C10.8259 19.8339 10.9253 19.7006 10.9512 19.5307C10.993 19.2581 10.7887 18.9797 10.3339 18.9116C9.95027 18.8542 9.61896 19.0126 9.56749 19.3493C9.5394 19.533 9.61316 19.6723 9.77437 19.776C9.41897 19.8651 9.37899 20.1267 9.3637 20.227C9.32252 20.497 9.46664 20.8573 10.0329 20.9423C10.6144 21.0294 10.8535 20.6666 10.8918 20.416V20.4159ZM10.4437 20.3662C10.4228 20.5024 10.3094 20.6648 10.0836 20.6309C9.88551 20.6015 9.78406 20.458 9.81295 20.2686C9.84573 20.0544 10.0114 19.9853 10.1691 20.0089C10.4105 20.0449 10.465 20.2269 10.4437 20.3662ZM11.7239 19.6551C11.7 19.3691 11.8986 19.3018 12.0107 19.2926C12.2352 19.274 12.356 19.4054 12.3752 19.6326C12.3949 19.8684 12.2347 19.9803 12.0818 19.9929C11.9168 20.0063 11.7492 19.9553 11.7239 19.6551ZM11.4041 20.5597C11.4681 20.8737 11.7559 21.0478 12.1331 21.0167C12.5324 20.9841 12.9167 20.701 12.8521 19.9295C12.8286 19.6488 12.7539 18.9065 11.9867 18.9694C11.5532 19.0049 11.2511 19.2585 11.2919 19.7469C11.3199 20.0807 11.5905 20.3494 12.0146 20.3146C12.1642 20.3023 12.3328 20.2545 12.4215 20.1117L12.4284 20.1167C12.4603 20.5352 12.2909 20.6874 12.1099 20.7022C11.9757 20.7132 11.8742 20.6621 11.8376 20.5268L11.8373 20.5241L11.4039 20.5596L11.4041 20.5597ZM13.5904 19.3538C13.4967 19.082 13.6728 18.969 13.7793 18.933C13.9927 18.861 14.1421 18.9593 14.2166 19.175C14.2938 19.399 14.1659 19.5461 14.0209 19.5952C13.8639 19.6483 13.6891 19.6388 13.5905 19.3538H13.5904ZM13.5031 20.3084C13.6423 20.5975 13.9644 20.697 14.3225 20.5759C14.7018 20.448 15.0048 20.0806 14.7524 19.348C14.6604 19.0816 14.405 18.3796 13.6766 18.6254C13.2649 18.7644 13.0342 19.0833 13.194 19.5469C13.3034 19.8641 13.6319 20.0595 14.0347 19.9235C14.1767 19.8755 14.3287 19.7884 14.3792 19.6286L14.3871 19.6318C14.521 20.03 14.3942 20.2183 14.2225 20.2764C14.0952 20.3192 13.984 20.2944 13.9154 20.1719L13.9144 20.1692L13.5029 20.3082L13.5031 20.3084ZM11.6075 2.47632C10.99 2.48641 10.4468 2.9673 10.4566 3.55076C10.4663 4.13046 11.0207 4.59335 11.6428 4.58306C11.9494 4.57802 12.2365 4.46942 12.4381 4.28209L12.7494 4.56496C12.4692 4.82153 12.0763 4.97979 11.645 4.98691C10.7563 5.00145 10.0166 4.36171 10.0031 3.55808C9.98965 2.75455 10.6943 2.08721 11.6009 2.07228C12.0318 2.06526 12.421 2.20284 12.7053 2.45812L12.4036 2.75099C12.1959 2.57058 11.9187 2.47117 11.6075 2.47622V2.47632ZM13.4557 2.5866L12.7446 5.03893L13.1003 5.12676L13.5446 3.7191L13.9004 5.39065H14.067L14.5226 4.335L15.0672 5.9295L15.5784 6.28142L14.7781 3.55432L14.456 3.36728L14.1113 4.29109L13.8002 2.76246L13.4557 2.5866ZM10.2222 5.04991L9.53331 2.5865L8.93324 2.92744L7.23309 6.35847L7.92201 5.91862L8.36646 5.02795L9.58877 4.56605L9.76657 5.1599L10.2221 5.04991H10.2222ZM8.58873 4.50008L9.25556 3.16957L9.48893 4.14826L8.58883 4.50018L8.58873 4.50008Z" fill="black"></path>
  </g>
  <defs>
    <clipPath id="clip0_430_1905">
      <rect width="15" height="24" fill="white" transform="translate(4)"></rect>
    </clipPath>
  </defs>
</svg>
