<?xml version="1.0" encoding="UTF-8"?>
<svg xmlns="http://www.w3.org/2000/svg" width="24" height="24" viewBox="0 0 24 24" fill="none">
  <g clip-path="url(#clip0_410_105)">
    <path fill-rule="evenodd" clip-rule="evenodd" d="M11.9999 0.105591C15.1056 0.105591 18.1124 0.756964 20.9386 2.04065C21.5262 4.47806 21.8964 7.02044 21.9049 8.68651C21.9052 8.71653 21.9052 8.74666 21.9052 8.7768C21.9052 10.4187 21.6735 12.0228 21.2165 13.5462C20.766 15.0456 20.096 16.4671 19.2292 17.7625C18.3744 19.0415 17.3204 20.2153 16.096 21.2513C14.7967 22.351 13.2689 23.3398 12 23.904C10.731 23.3398 9.20324 22.3511 7.90352 21.2513C6.67946 20.2153 5.6252 19.0415 4.77062 17.7625C3.90389 16.4671 3.23393 15.0455 2.78343 13.5462C2.32615 12.0225 2.09445 10.4184 2.09445 8.77625L2.09477 8.6864C2.10326 7.02066 2.47317 4.47806 3.0608 2.04054C5.88689 0.756964 8.89416 0.105591 11.9999 0.105591Z" fill="white"></path>
    <path fill-rule="evenodd" clip-rule="evenodd" d="M12.0003 9.4825C12.6876 9.4825 13.3359 9.66306 13.8959 9.983H19.6672C19.6789 9.57157 19.6718 9.10964 19.6638 8.6728C19.63 6.87109 19.1162 3.82952 18.6126 1.71971C16.5657 1.04423 14.3691 0.648804 12.0015 0.648804L12.0004 9.4825H12.0003Z" fill="#C42333"></path>
    <path fill-rule="evenodd" clip-rule="evenodd" d="M12.0015 0.65564C9.68676 0.65564 7.55535 1.00779 5.39514 1.71679C4.86382 3.90319 4.42438 6.79838 4.35839 8.18812C4.26189 10.2235 4.40643 11.6945 4.80621 13.3048C5.03071 14.2098 5.32904 15.0609 5.70905 15.9226C6.11926 15.7025 6.5459 15.4271 6.97578 15.0999C7.42779 14.7562 7.82015 14.3172 8.14148 13.9004C8.09763 13.5155 8.10913 13.1261 8.17566 12.7444C7.37728 12.7728 6.92376 12.7833 6.56772 12.7833C6.13828 12.7833 5.74666 12.4785 5.55666 12.0119H5.3557C5.20406 12.0119 4.947 11.8799 4.947 11.3846C4.947 10.8894 5.20406 10.7575 5.3557 10.7575H5.55612C5.74613 10.2894 6.13817 9.98359 6.56793 9.98359H10.1067C10.6856 9.65346 11.338 9.48057 12.0013 9.48166L12.0017 0.65564H12.0015Z" fill="#C9222E"></path>
    <path fill-rule="evenodd" clip-rule="evenodd" d="M8.48655 20.4758C7.39565 19.3681 6.49463 18.1439 5.78169 16.8371C5.05811 15.5107 4.54441 14.0336 4.24092 12.5569C3.92884 11.038 3.83072 9.50352 3.9355 7.87744C4.03405 6.34625 4.43028 4.02728 4.9198 1.88175C4.44941 2.05015 3.98493 2.23532 3.52723 2.4367C3.01235 4.54454 2.65083 7.21873 2.64341 8.68068C2.63503 10.3102 2.86254 11.889 3.30789 13.3737C3.77505 14.9304 4.39439 16.1973 5.22383 17.4385C6.0495 18.6741 7.06894 19.809 8.25378 20.8116C9.3608 21.7486 10.6233 22.5725 11.9986 23.2673C11.9987 23.2672 11.9985 23.2674 11.9986 23.2673C10.6906 22.4486 9.50599 21.5111 8.48655 20.4761V20.4758ZM15.5115 20.4764C16.6023 19.3687 17.5034 18.1443 18.2162 16.8375C18.9397 15.5111 19.4534 14.0339 19.757 12.5574C20.069 11.0384 20.1672 9.50396 20.0625 7.87788C19.9639 6.34658 19.5664 4.02531 19.077 1.87988C19.5481 2.04872 20.0135 2.23422 20.4719 2.43604C20.9869 4.54377 21.3471 7.21906 21.3544 8.68101C21.3629 10.3107 21.1353 11.8894 20.6899 13.3741C20.2555 14.8196 19.6096 16.1899 18.7739 17.4389C17.9482 18.6744 16.9288 19.8095 15.744 20.812C14.6372 21.7488 13.3747 22.5728 11.9992 23.2676C11.9992 23.2677 11.9991 23.2675 11.9992 23.2676C13.3075 22.4488 14.492 21.5115 15.5114 20.4764H15.5115Z" fill="#3B5694"></path>
    <path fill-rule="evenodd" clip-rule="evenodd" d="M11.9971 9.68018C9.9582 9.68018 8.30524 11.3653 8.30524 13.4437C8.30524 15.522 9.9582 17.2076 11.9971 17.2076C14.036 17.2076 15.6888 15.5225 15.6888 13.4437C15.6888 11.3649 14.0357 9.68018 11.9971 9.68018Z" fill="#B9A75B"></path>
    <path fill-rule="evenodd" clip-rule="evenodd" d="M11.9999 17.4042C10.7454 17.4042 9.62775 16.7975 8.91728 15.8568C8.0498 16.3617 7.13901 16.7599 6.26691 17.0326C6.95502 18.2659 7.81058 19.4188 8.83851 20.4739C9.76606 21.4263 10.8277 22.2963 11.9999 23.0705V17.4041V17.4042Z" fill="#C9222E"></path>
    <path fill-rule="evenodd" clip-rule="evenodd" d="M6.56415 12.5873C6.1648 12.5873 5.82316 12.2666 5.68775 11.8158H5.35213C5.2653 11.8158 5.13666 11.7086 5.13666 11.3855C5.13666 11.0624 5.2653 10.9553 5.35213 10.9553H5.68732C5.82284 10.5036 6.16459 10.1814 6.56415 10.1814H9.79271C9.00894 10.7331 8.43388 11.5709 8.21228 12.5463C7.4973 12.5716 6.94878 12.5874 6.56426 12.5874L6.56415 12.5873Z" fill="#B9A75B"></path>
    <path fill-rule="evenodd" clip-rule="evenodd" d="M21.0197 1.96223C18.2777 0.709772 15.2603 0 12 0C8.73962 0 5.72192 0.709772 2.98009 1.96223C2.34775 4.57133 2.00815 7.10243 2.0002 8.67679C1.9916 10.3602 2.22448 12.0044 2.69283 13.5649C3.14624 15.0735 3.82028 16.5038 4.69227 17.8073C5.55201 19.0935 6.61219 20.2741 7.84312 21.3158C9.00109 22.2958 10.5695 23.371 12 23.9999C13.4304 23.371 14.9987 22.2958 16.1565 21.3158C17.3878 20.2741 18.4478 19.0933 19.3076 17.8073C20.1796 16.5038 20.8536 15.0735 21.3069 13.5649C21.7754 12.0045 22.0085 10.3602 21.9998 8.67679C21.9914 7.10243 21.652 4.57133 21.0197 1.96223ZM18.7753 17.4376C17.9496 18.6734 16.9302 19.8082 15.7453 20.8107C14.6382 21.7476 13.3742 22.5721 11.9989 23.2669C10.6236 22.572 9.36154 21.7476 8.2544 20.8107C7.06968 19.8081 6.05024 18.6733 5.22434 17.4376C5.159 17.3399 5.09517 17.2409 5.03208 17.1416C6.23841 16.9339 7.57198 16.412 8.80292 15.6966C8.48987 15.2374 8.27622 14.7156 8.17638 14.1657C7.86795 14.5521 7.50019 14.9442 7.08064 15.2635C6.40004 15.7816 5.57813 16.2957 4.68905 16.5746C4.10775 15.566 3.64435 14.4915 3.3083 13.3729C2.86295 11.889 2.63544 10.31 2.64382 8.68052C2.65135 7.21857 3.01276 4.54427 3.52753 2.43643C6.20864 1.25651 9.0573 0.656851 11.9999 0.656851C14.9425 0.656851 17.7911 1.25673 20.4719 2.43643C20.9869 4.54427 21.3482 7.21857 21.3558 8.68052C21.3584 9.18178 21.3384 9.68283 21.2959 10.1821L14.1985 10.1818C15.0765 10.7994 15.6925 11.7758 15.8434 12.9036L17.1966 12.5749C17.4988 12.5056 17.6237 12.2977 17.6551 12.1074L21.0602 11.8725C20.9619 12.3787 20.8389 12.8794 20.6913 13.373C20.2567 14.8184 19.6108 16.1887 18.7752 17.4375L18.7753 17.4376Z" fill="#B9A75B"></path>
    <path fill-rule="evenodd" clip-rule="evenodd" d="M12.2422 14.4845V16.5125C13.1706 16.4365 13.9802 15.9327 14.4819 15.1945L12.7595 14.1806C12.6196 14.3308 12.4399 14.4364 12.2422 14.4845ZM11.7532 10.375C10.8242 10.4509 10.0139 10.9553 9.51245 11.6941L11.2316 12.7055C11.3722 12.5532 11.5536 12.4464 11.7532 12.3983V10.3751V10.375ZM11.9967 12.8957C11.7003 12.8957 11.4599 13.1407 11.4599 13.443C11.4599 13.7453 11.7002 13.9903 11.9967 13.9903C12.2931 13.9901 12.5332 13.745 12.5331 13.4429C12.5331 13.1408 12.293 12.8958 11.9967 12.8958V12.8957ZM12.2422 10.375V12.3981C12.4417 12.4464 12.6228 12.5532 12.7632 12.7054L14.4824 11.6942C13.9811 10.9554 13.1711 10.4511 12.2422 10.375ZM11.7532 14.4847C11.5553 14.4369 11.3753 14.3312 11.2355 14.1806L9.5131 15.1945C9.55254 15.2525 9.59423 15.3092 9.63733 15.364C10.1432 16.0091 10.8978 16.4426 11.7533 16.5125V14.4846H11.7532V14.4847ZM13.0057 13.7494L14.7271 14.7628C15.0661 14.0541 15.1604 13.0405 14.7277 12.1259L13.0071 13.1376C13.0652 13.3372 13.0648 13.55 13.0057 13.7493V13.7494Z" fill="white"></path>
    <path fill-rule="evenodd" clip-rule="evenodd" d="M9.7984 11.6368L11.2012 12.4612C11.3081 12.3706 11.4297 12.2994 11.5603 12.2511L11.5597 10.5999C10.8651 10.706 10.2358 11.0765 9.7984 11.6368ZM12.4381 10.6014L12.4353 12.2564C12.5662 12.3053 12.6831 12.3698 12.7901 12.4608L14.1962 11.6369C13.76 11.0771 13.1317 10.707 12.4381 10.6014ZM14.811 13.145C14.785 12.8928 14.7257 12.6454 14.6346 12.4095L13.2265 13.2348C13.2439 13.3305 13.2488 13.428 13.241 13.5248C13.6519 13.41 14.066 13.3074 14.4826 13.2171C14.5921 13.1935 14.7016 13.1694 14.811 13.145Z" fill="#B9A75B"></path>
    <path fill-rule="evenodd" clip-rule="evenodd" d="M11.9999 23.0706C13.1722 22.2964 14.236 21.4237 15.1636 20.4715C16.2507 19.3555 17.1471 18.1238 17.8542 16.8103C18.572 15.4768 19.079 13.9943 19.3749 12.5129C19.3978 12.3984 19.4191 12.2891 19.4393 12.1747L17.8041 12.294C17.7176 12.5279 17.5221 12.701 17.2474 12.7639L17.2502 12.7634C17.239 12.7661 16.6399 12.918 15.8667 13.0994C15.8761 13.2127 15.8812 13.3273 15.8812 13.443C15.8812 15.6308 14.1443 17.4041 12.0002 17.4041V23.0705H11.9999V23.0706Z" fill="#C42333"></path>
    <path fill-rule="evenodd" clip-rule="evenodd" d="M12.3422 13.4426C12.3419 13.2481 12.1873 13.0907 11.9967 13.0903C11.8059 13.0906 11.6513 13.2481 11.6509 13.4426C11.651 13.6372 11.8057 13.795 11.9967 13.7953C12.1875 13.7948 12.3421 13.6372 12.3422 13.4426Z" fill="#B9A75B"></path>
    <path fill-rule="evenodd" clip-rule="evenodd" d="M12.435 16.2874C13.1298 16.1817 13.7595 15.8118 14.1977 15.252L12.7854 14.4236C12.6813 14.5131 12.5627 14.5837 12.4349 14.6321C12.435 14.632 12.4376 16.2876 12.435 16.2874Z" fill="#C42333"></path>
    <path fill-rule="evenodd" clip-rule="evenodd" d="M9.79929 15.2523L11.2055 14.4225C11.3113 14.5117 11.4313 14.5817 11.5603 14.6296L11.5569 16.287C10.8638 16.1814 10.2357 15.8116 9.79929 15.2525V15.2523Z" fill="#C9222E"></path>
    <path fill-rule="evenodd" clip-rule="evenodd" d="M14.8245 13.4457C14.8245 13.4069 14.8236 13.3676 14.822 13.3289C14.7158 13.3526 14.6137 13.3749 14.5176 13.3957C14.1095 13.4844 13.704 13.5854 13.3017 13.6984L14.6323 14.4816C14.7598 14.1517 14.8249 13.8003 14.8244 13.4458L14.8245 13.4457Z" fill="#C42333"></path>
    <path fill-rule="evenodd" clip-rule="evenodd" d="M9.26591 12.1285C8.86752 12.9875 8.89278 13.9551 9.27149 14.7666L10.988 13.7507C10.9285 13.5505 10.928 13.3369 10.9865 13.1364L9.26591 12.1285Z" fill="white"></path>
    <path fill-rule="evenodd" clip-rule="evenodd" d="M9.36542 14.4853L10.7654 13.6559C10.7414 13.5163 10.7415 13.3735 10.7657 13.2339L9.3609 12.4118C9.10513 13.0787 9.10685 13.8196 9.36552 14.4853H9.36542ZM13.4036 6.99767C13.3999 7.07525 13.3805 7.33459 13.374 7.41205H14.4925C14.4272 7.10669 14.4005 6.6842 14.3888 6.36876L14.3716 5.71071C14.3693 5.6477 14.3868 5.59577 14.4222 5.55797C14.4539 5.52378 14.4978 5.50395 14.5439 5.50308C14.5961 5.50242 14.6838 5.50132 14.6907 5.68726L14.715 6.38717C14.7263 6.70217 14.7308 7.14416 14.6899 7.41216H15.7805C15.7626 7.31651 15.7314 7.08708 15.7242 7.02397C15.8611 7.31969 16.1541 7.47122 16.5469 7.47122C16.7793 7.47122 16.9607 7.38598 17.0932 7.30172L17.1495 7.41227H19.1638C19.0742 7.1033 19.0189 6.67489 18.9836 6.35627C18.9836 6.35474 18.708 4.05559 18.708 4.05559L17.6703 3.88489C17.7539 4.17217 17.8163 4.61274 17.8514 4.92961L18.0068 6.39955C18.0365 6.66755 18.0634 6.9545 18.0611 7.2431L18.0608 7.27882L18.0194 7.17495C17.9477 6.99581 17.9012 6.74381 17.8771 6.40459L17.8338 5.93269C17.7793 5.18588 17.3759 4.84513 16.501 4.84513C16.3521 4.84513 15.9805 4.88304 15.755 4.94889L15.8158 5.79967L16.0488 5.65362C16.2399 5.53408 16.3938 5.48314 16.5633 5.48314C16.7021 5.48314 16.7926 5.53627 16.8347 5.6328C16.6412 5.66315 16.4527 5.71969 16.2739 5.80088C15.9646 5.94211 15.7623 6.14546 15.6812 6.38958L15.6803 6.36898L15.6447 5.5892C15.6261 5.0853 15.3182 4.77106 14.8412 4.77106C14.6212 4.77106 14.4259 4.83527 14.256 4.95952C14.2475 4.93059 14.2369 4.90232 14.2246 4.87482L14.1823 4.78443L13.2864 4.74247C13.3269 4.90671 13.3822 5.36513 13.3942 5.54493C13.3465 5.29698 13.2196 5.0326 12.9788 4.86156C12.7961 4.73184 12.5667 4.66314 12.3151 4.66314C11.9823 4.66314 11.6467 4.80536 11.4172 5.04399C11.1904 5.27956 11.0657 5.60234 11.0529 5.98177C10.9683 5.88733 10.8562 5.80658 10.7162 5.74007L10.3045 5.54011L10.2839 5.53003C10.1851 5.48303 10.1816 5.4667 10.1839 5.43964C10.1872 5.39658 10.2821 5.35045 10.4176 5.35045C10.5867 5.35045 10.8316 5.43745 11.0298 5.56673L11.0463 4.81566C10.8998 4.74783 10.6949 4.69283 10.4023 4.69283C10.2497 4.69283 9.95563 4.71453 9.70254 4.86069C9.63269 4.90101 9.56928 4.94735 9.51351 4.99819L9.52479 4.77753C9.28654 4.75014 9.03098 4.7429 8.719 5.03742C8.70868 4.97562 8.69385 4.91481 8.67483 4.85521L7.70719 4.91558C7.7793 5.17975 7.7879 5.58054 7.76834 5.93773C7.76135 6.07753 7.75437 6.21734 7.74738 6.35704C7.73653 6.55382 7.72546 6.75476 7.706 6.94289C7.6254 6.68815 7.53653 6.34038 7.46947 6.05102L6.99167 3.85815L5.62714 4.05713C5.63886 4.08518 5.6582 4.15618 5.66734 4.22553C5.67916 4.31735 5.67561 4.50734 5.54568 4.8929C5.32666 5.54318 5.01125 6.50353 4.71055 7.16663C4.66842 7.25943 4.59653 7.41194 4.59653 7.41194H5.65949C5.67314 7.24223 5.74321 6.96185 5.81167 6.75816L6.52171 6.7391C6.55492 6.89643 6.59876 7.11962 6.60811 7.24979L6.61972 7.41194H8.75844C8.70782 7.06977 8.72738 6.59655 8.7421 6.32822C8.75865 6.0233 8.82131 5.8286 8.945 5.69723C9.04086 5.59566 9.15532 5.57123 9.23538 5.56882C9.22442 5.97684 9.48772 6.16694 9.72167 6.2867L10.1397 6.50364C10.2901 6.58373 10.287 6.62504 10.2849 6.6521C10.2788 6.73395 10.1579 6.76583 10.0469 6.7632C9.82903 6.75838 9.5278 6.60499 9.18799 6.24692L9.16983 7.21812C9.43914 7.3725 9.76531 7.42805 10.0621 7.42805C10.5468 7.42805 11.067 7.21319 11.2072 6.75246C11.446 7.2179 11.9234 7.43276 12.3936 7.43276C12.8146 7.43265 13.1291 7.2946 13.4038 6.99767H13.4036ZM6.07249 6.02527L6.26572 5.45826C6.32257 5.73339 6.35223 5.87757 6.38039 6.01486L6.07249 6.02527ZM12.0457 5.78159V5.7736C12.0456 5.44303 12.1668 5.31342 12.2811 5.30279C12.3154 5.2995 12.4069 5.29085 12.4488 5.44588C12.4648 5.50614 12.4719 5.55129 12.4719 5.58569C12.4719 5.67553 12.4245 5.69285 12.3685 5.71312L12.3653 5.71443L12.0479 5.83868C12.0471 5.81961 12.0457 5.80077 12.0457 5.78159ZM13.158 6.45642C12.9568 6.63172 12.8068 6.74841 12.5627 6.74348C12.3708 6.73953 12.2523 6.60773 12.1794 6.46003L13.4015 5.99207L13.4075 6.38553V6.3875C13.4123 6.5204 13.4137 6.65057 13.4116 6.77909V6.78391L13.1581 6.45631L13.158 6.45642ZM16.7991 6.76824C16.6132 6.77525 16.5729 6.6464 16.5701 6.55305C16.5709 6.45532 16.6026 6.30981 16.8989 6.22819L16.9135 6.43505L16.9198 6.52873C16.9241 6.59535 16.9283 6.65594 16.9347 6.72189C16.8959 6.74874 16.8511 6.76627 16.7991 6.76824Z" fill="#B9A75B"></path>
    <path fill-rule="evenodd" clip-rule="evenodd" d="M10.8796 4.93318C10.7853 4.89779 10.6336 4.8635 10.4044 4.8635C10.2158 4.8635 9.97628 4.89998 9.78639 5.00944C9.56973 5.13445 9.41756 5.33441 9.4038 5.54588C9.38317 5.86055 9.55404 6.01044 9.79584 6.13414C9.96049 6.2184 10.1173 6.29958 10.2163 6.3524C10.3491 6.42329 10.4638 6.50995 10.4523 6.66685C10.4405 6.82616 10.2963 6.93386 10.0489 6.93386C9.84431 6.93386 9.54921 6.81137 9.34867 6.62467L9.33986 7.11454C9.51503 7.20406 9.80154 7.25731 10.0609 7.25731C10.5109 7.25731 11.0672 7.04727 11.0771 6.51116C11.0842 6.12965 10.8096 5.97176 10.6472 5.89474C10.5087 5.82867 10.3707 5.76172 10.2331 5.69368C10.1589 5.65687 10.0035 5.59792 10.0171 5.42415C10.0303 5.25859 10.2156 5.17981 10.4162 5.17981C10.585 5.17981 10.7479 5.22726 10.873 5.29639L10.8796 4.93318ZM6.86326 4.0504L5.83275 4.20073C5.85822 4.35138 5.81878 4.61281 5.70637 4.94688C5.48917 5.59189 5.14044 6.62872 4.86328 7.24131H5.51314C5.54506 7.04562 5.59987 6.84643 5.69154 6.59059L6.6552 6.56473C6.69776 6.75812 6.76299 7.06666 6.77535 7.24131H7.63563C7.52999 6.98952 7.39222 6.45429 7.3071 6.08681L6.86326 4.05029V4.0504ZM5.83275 6.20426L6.30453 4.82044L6.58438 6.17862L5.83264 6.20415L5.83275 6.20426ZM9.34953 4.9368L9.32707 5.40289C9.17554 5.38284 8.9764 5.41692 8.82423 5.57853C8.68344 5.72798 8.59575 5.94557 8.57533 6.31722C8.55857 6.62357 8.54782 6.95885 8.57286 7.2412H7.83585C7.88431 6.96301 7.90076 6.63069 7.91763 6.32402L7.936 5.94853C7.95288 5.64295 7.95395 5.35337 7.90785 5.0743L8.55072 5.03398C8.5806 5.14344 8.59532 5.29146 8.58844 5.45461C8.86958 5.02434 9.14448 4.92715 9.34964 4.9368H9.34953ZM18.5567 4.20369L17.8927 4.09423C17.958 4.37757 17.9838 4.60251 18.0176 4.90765L18.1733 6.37803C18.207 6.6846 18.2307 6.96323 18.2283 7.24131H18.9473C18.8833 6.96312 18.851 6.68449 18.8171 6.37803L18.5567 4.20369ZM15.584 7.24131C15.5404 6.96312 15.5243 6.68449 15.5131 6.37803L15.4771 5.59989C15.4622 5.18683 15.2289 4.94162 14.8385 4.94162C14.6245 4.94162 14.3705 5.01196 14.1532 5.2919C14.1467 5.23295 14.1135 5.03672 14.0733 4.95016L13.4886 4.92277C13.5388 5.21126 13.5548 5.50063 13.5659 5.80577L13.5745 6.37803C13.5858 6.66587 13.5796 6.95424 13.5557 7.24131H14.2924C14.2489 6.96312 14.2328 6.68449 14.2216 6.37803L14.2042 5.71801C14.1957 5.48353 14.3675 5.33463 14.5447 5.33233C14.7495 5.32948 14.8504 5.46776 14.8581 5.67779L14.8821 6.37814C14.8935 6.68471 14.8979 6.96334 14.8747 7.24142H15.584V7.24131ZM17.8639 7.24131C17.7757 7.02009 17.7319 6.72613 17.7099 6.41978L17.6671 5.94996C17.6263 5.39544 17.3976 5.01546 16.4981 5.01546C16.3427 5.01546 16.1147 5.04088 15.9324 5.08252L15.9626 5.5084C16.1453 5.39435 16.3339 5.31206 16.5658 5.31206C16.7977 5.31206 17.0134 5.41221 17.0333 5.77717C16.8008 5.80347 16.5832 5.84499 16.3399 5.9562C16.0657 6.08122 15.7832 6.30692 15.8101 6.69074C15.8397 7.1152 16.154 7.30036 16.5498 7.30036C16.8479 7.30036 17.0565 7.14259 17.169 7.02459C17.1893 7.10293 17.2188 7.18159 17.2524 7.24142H17.8639V7.24131ZM16.7979 6.93649C16.5905 6.94603 16.4103 6.83372 16.4029 6.56189C16.3963 6.31788 16.5602 6.10215 17.0519 6.01964L17.0805 6.41978C17.0902 6.5575 17.0941 6.6548 17.111 6.78694C17.0402 6.87338 16.9242 6.93058 16.7979 6.93639V6.93649ZM12.8835 5.00144C12.7205 4.88574 12.5236 4.8338 12.3154 4.8338C11.8391 4.8338 11.2029 5.17839 11.2195 6.08034C11.2363 6.98558 11.9154 7.2618 12.3943 7.2618C12.8147 7.2618 13.0695 7.11027 13.2772 6.88577L13.1296 6.69534C13.0171 6.78518 12.8443 6.91973 12.5593 6.9137C12.2576 6.90779 12.0591 6.67868 11.9608 6.36094L13.2837 5.85453C13.2428 5.40892 13.0933 5.15023 12.8837 5.00144H12.8835ZM12.425 5.87381L11.899 6.07957C11.8856 5.98107 11.8786 5.88181 11.878 5.78243C11.8749 5.22539 12.1691 5.14179 12.2654 5.1327C12.4282 5.11736 12.5583 5.20841 12.61 5.4007C12.6682 5.61797 12.6537 5.79021 12.4249 5.87381H12.425Z" fill="white"></path>
  </g>
  <defs>
    <clipPath id="clip0_410_105">
      <rect width="20" height="24" fill="white" transform="translate(2)"></rect>
    </clipPath>
  </defs>
</svg>
