<?xml version="1.0" encoding="UTF-8"?>
<svg xmlns="http://www.w3.org/2000/svg" width="32" height="32" viewBox="0 0 32 32" fill="none">
  <g clip-path="url(#clip0_410_105)">
    <path fill-rule="evenodd" clip-rule="evenodd" d="M15.9998 0.140869C20.1408 0.140869 24.1499 1.00937 27.9182 2.72094C28.7015 5.97083 29.1952 9.36067 29.2065 11.5821C29.2069 11.6221 29.2069 11.6623 29.2069 11.7025C29.2069 13.8916 28.898 16.0305 28.2887 18.0617C27.6881 20.0609 26.7946 21.9562 25.639 23.6834C24.4993 25.3888 23.0939 26.9538 21.4614 28.3351C19.729 29.8014 17.6918 31.1199 16 31.8721C14.308 31.1199 12.271 29.8016 10.538 28.3351C8.90595 26.9538 7.50027 25.3888 6.36082 23.6834C5.20519 21.9562 4.31191 20.0608 3.71124 18.0617C3.10154 16.0301 2.7926 13.8913 2.7926 11.7017L2.79303 11.582C2.80435 9.36097 3.29756 5.97083 4.08107 2.7208C7.84918 1.00937 11.8589 0.140869 15.9998 0.140869Z" fill="white"></path>
    <path fill-rule="evenodd" clip-rule="evenodd" d="M16.0004 12.6432C16.9168 12.6432 17.7812 12.884 18.5278 13.3106H26.2229C26.2385 12.762 26.2291 12.1461 26.2183 11.5637C26.1733 9.16137 25.4883 5.10595 24.8168 2.29286C22.0876 1.39222 19.1588 0.86499 16.002 0.86499L16.0006 12.6432H16.0004Z" fill="#C42333"></path>
    <path fill-rule="evenodd" clip-rule="evenodd" d="M16.002 0.874146C12.9157 0.874146 10.0738 1.34367 7.19349 2.28901C6.48506 5.20422 5.89914 9.06446 5.81116 10.9175C5.68249 13.6313 5.87521 15.5926 6.40825 17.7397C6.70759 18.9463 7.10536 20.0812 7.61204 21.2301C8.15898 20.9367 8.72784 20.5694 9.301 20.1332C9.90368 19.6749 10.4268 19.0895 10.8553 18.5338C10.7968 18.0206 10.8121 17.5014 10.9008 16.9926C9.83634 17.0304 9.23165 17.0444 8.75693 17.0444C8.18434 17.0444 7.66219 16.638 7.40885 16.0158H7.1409C6.93871 16.0158 6.59596 15.8398 6.59596 15.1794C6.59596 14.5191 6.93871 14.3432 7.1409 14.3432H7.40813C7.66147 13.7191 8.1842 13.3114 8.75722 13.3114H13.4756C14.2474 12.8712 15.1173 12.6407 16.0017 12.6422L16.0023 0.874146H16.002Z" fill="#C9222E"></path>
    <path fill-rule="evenodd" clip-rule="evenodd" d="M11.3154 27.3012C9.86084 25.8243 8.65949 24.192 7.7089 22.4496C6.74413 20.6811 6.0592 18.7115 5.65454 16.7426C5.23843 14.7174 5.1076 12.6714 5.24731 10.5033C5.37871 8.46175 5.90702 5.36978 6.55971 2.50908C5.93253 2.73361 5.31323 2.9805 4.70295 3.24901C4.01645 6.05947 3.53442 9.62506 3.52453 11.5743C3.51335 13.7469 3.8167 15.8521 4.41049 17.8317C5.03338 19.9072 5.85916 21.5964 6.96508 23.2515C8.06598 24.8989 9.42524 26.4121 11.005 27.7488C12.4811 28.9982 14.1644 30.0968 15.9981 31.0231C15.9983 31.023 15.998 31.0233 15.9981 31.0231C14.2541 29.9315 12.6746 28.6816 11.3154 27.3015V27.3012ZM20.682 27.3019C22.1364 25.825 23.3379 24.1924 24.2882 22.45C25.253 20.6815 25.9379 18.7119 26.3427 16.7432C26.7587 14.718 26.8896 12.672 26.7499 10.5039C26.6185 8.46219 26.0885 5.36715 25.436 2.50659C26.0641 2.73171 26.6846 2.97904 27.2959 3.24814C27.9825 6.05845 28.4628 9.62549 28.4726 11.5748C28.4839 13.7477 28.1804 15.8527 27.5865 17.8322C27.0073 19.7595 26.1461 21.5867 25.0319 23.2519C23.931 24.8992 22.5717 26.4127 20.9919 27.7494C19.5162 28.9985 17.833 30.0972 15.999 31.0235C15.999 31.0237 15.9988 31.0234 15.999 31.0235C17.7433 29.9318 19.3226 28.682 20.6819 27.3019H20.682Z" fill="#3B5694"></path>
    <path fill-rule="evenodd" clip-rule="evenodd" d="M15.9961 12.907C13.2776 12.907 11.0737 15.1538 11.0737 17.925C11.0737 20.6961 13.2776 22.9436 15.9961 22.9436C18.7146 22.9436 20.9184 20.6967 20.9184 17.925C20.9184 15.1532 18.7144 12.907 15.9961 12.907Z" fill="#B9A75B"></path>
    <path fill-rule="evenodd" clip-rule="evenodd" d="M15.9998 23.2055C14.3272 23.2055 12.837 22.3967 11.8897 21.1423C10.7331 21.8155 9.51867 22.3464 8.35587 22.71C9.27336 24.3544 10.4141 25.8917 11.7847 27.2985C13.0214 28.5683 14.437 29.7283 15.9998 30.7605V23.2054V23.2055Z" fill="#C9222E"></path>
    <path fill-rule="evenodd" clip-rule="evenodd" d="M8.75221 16.783C8.21974 16.783 7.76422 16.3554 7.58367 15.7544H7.13617C7.0204 15.7544 6.84888 15.6115 6.84888 15.1807C6.84888 14.7499 7.0204 14.607 7.13617 14.607H7.5831C7.76379 14.0048 8.21945 13.5752 8.75221 13.5752H13.0569C12.0119 14.3108 11.2452 15.4279 10.9497 16.7284C9.9964 16.7621 9.26504 16.7832 8.75235 16.7832L8.75221 16.783Z" fill="#B9A75B"></path>
    <path fill-rule="evenodd" clip-rule="evenodd" d="M28.0262 2.6163C24.3703 0.946363 20.3471 0 16 0C11.6528 0 7.62923 0.946363 3.97346 2.6163C3.13033 6.09511 2.67754 9.46991 2.66693 11.5691C2.65547 13.8136 2.96598 16.0059 3.59044 18.0865C4.19498 20.098 5.0937 22.005 6.25636 23.7431C7.40269 25.458 8.81625 27.0321 10.4575 28.4211C12.0015 29.7277 14.0926 31.1613 16 31.9999C17.9072 31.1613 19.9982 29.7277 21.542 28.4211C23.1837 27.0321 24.5971 25.4577 25.7434 23.7431C26.9061 22.005 27.8048 20.098 28.4092 18.0865C29.0338 16.0061 29.3446 13.8136 29.333 11.5691C29.3218 9.46991 28.8693 6.09511 28.0262 2.6163ZM25.0337 23.2502C23.9328 24.8979 22.5736 26.4109 20.9938 27.7476C19.5176 28.9969 17.8322 30.0962 15.9985 31.0225C14.1649 30.096 12.482 28.9969 11.0059 27.7476C9.42623 26.4108 8.06698 24.8978 6.96579 23.2502C6.87867 23.1199 6.79356 22.9879 6.70945 22.8554C8.31788 22.5786 10.096 21.8826 11.7372 20.9288C11.3198 20.3166 11.035 19.6207 10.9018 18.8877C10.4906 19.4028 10.0003 19.9256 9.44085 20.3513C8.53339 21.0422 7.43751 21.7276 6.25206 22.0994C5.477 20.7547 4.85913 19.322 4.41107 17.8306C3.81727 15.8519 3.51392 13.7467 3.5251 11.574C3.53513 9.62476 4.01702 6.05903 4.70338 3.24857C8.27819 1.67535 12.0764 0.875802 15.9998 0.875802C19.9233 0.875802 23.7215 1.67564 27.2959 3.24857C27.9825 6.05903 28.4643 9.62476 28.4744 11.574C28.4779 12.2424 28.4512 12.9104 28.3945 13.5762L18.9313 13.5757C20.102 14.3992 20.9233 15.701 21.1245 17.2049L22.9288 16.7666C23.3317 16.6741 23.4982 16.397 23.5401 16.1432L28.0802 15.83C27.9493 16.505 27.7852 17.1726 27.5885 17.8307C27.009 19.7579 26.1477 21.5849 25.0336 23.25L25.0337 23.2502Z" fill="#B9A75B"></path>
    <path fill-rule="evenodd" clip-rule="evenodd" d="M16.323 19.3126V22.0166C17.5607 21.9153 18.6402 21.2435 19.3091 20.2593L17.0126 18.9074C16.826 19.1076 16.5865 19.2485 16.323 19.3126ZM15.6708 13.8333C14.4322 13.9345 13.3518 14.6069 12.6832 15.592L14.9754 16.9406C15.1629 16.7375 15.4047 16.5951 15.6708 16.5309V13.8334V13.8333ZM15.9955 17.1942C15.6003 17.1942 15.2798 17.5208 15.2798 17.9239C15.2798 18.3269 15.6002 18.6536 15.9955 18.6536C16.3907 18.6534 16.7108 18.3266 16.7107 17.9237C16.7107 17.521 16.3906 17.1943 15.9955 17.1943V17.1942ZM16.323 13.8333V16.5308C16.5889 16.5951 16.8303 16.7375 17.0176 16.9404L19.3098 15.5922C18.6414 14.6071 17.5614 13.9348 16.323 13.8333ZM15.6708 19.3129C15.407 19.2491 15.167 19.1082 14.9806 18.9074L12.6841 20.2593C12.7367 20.3365 12.7923 20.4122 12.8497 20.4853C13.5242 21.3454 14.5304 21.9234 15.671 22.0166V19.3127H15.6708V19.3129ZM17.3409 18.3325L19.6361 19.6837C20.0881 18.7388 20.2139 17.3873 19.6368 16.1677L17.3428 17.5167C17.4203 17.7829 17.4197 18.0666 17.3409 18.3323V18.3325Z" fill="white"></path>
    <path fill-rule="evenodd" clip-rule="evenodd" d="M13.0645 15.5158L14.9349 16.6149C15.0775 16.4941 15.2396 16.3993 15.4138 16.3349L15.4129 14.1332C14.4868 14.2747 13.6477 14.7687 13.0645 15.5158ZM16.5842 14.1352L16.5805 16.3419C16.755 16.407 16.9108 16.4931 17.0535 16.6145L18.9283 15.5159C18.3467 14.7695 17.509 14.2761 16.5842 14.1352ZM19.748 17.5267C19.7134 17.1904 19.6343 16.8605 19.5128 16.546L17.6354 17.6465C17.6586 17.774 17.665 17.904 17.6547 18.0332C18.2025 17.8801 18.7546 17.7432 19.3102 17.6228C19.4562 17.5914 19.6022 17.5593 19.748 17.5267Z" fill="#B9A75B"></path>
    <path fill-rule="evenodd" clip-rule="evenodd" d="M15.9998 30.7608C17.563 29.7286 18.9813 28.565 20.2182 27.2953C21.6676 25.8073 22.8628 24.1651 23.8056 22.4138C24.7626 20.6357 25.4387 18.659 25.8332 16.6839C25.8637 16.5312 25.8922 16.3854 25.9191 16.2329L23.7388 16.392C23.6235 16.7039 23.3628 16.9347 22.9966 17.0186L23.0003 17.0178C22.9854 17.0215 22.1866 17.224 21.1556 17.4659C21.1682 17.617 21.1749 17.7698 21.1749 17.924C21.1749 20.8411 18.8591 23.2054 16.0003 23.2054V30.7607H15.9998V30.7608Z" fill="#C42333"></path>
    <path fill-rule="evenodd" clip-rule="evenodd" d="M16.4562 17.9235C16.4558 17.6642 16.2497 17.4543 15.9955 17.4539C15.7412 17.4541 15.535 17.6642 15.5346 17.9235C15.5347 18.183 15.7409 18.3934 15.9955 18.3938C16.25 18.3932 16.4561 18.183 16.4562 17.9235Z" fill="#B9A75B"></path>
    <path fill-rule="evenodd" clip-rule="evenodd" d="M16.58 21.7166C17.5064 21.5756 18.346 21.0824 18.9303 20.336L17.0472 19.2314C16.9083 19.3508 16.7503 19.4449 16.5799 19.5095C16.58 19.5093 16.5835 21.7169 16.58 21.7166Z" fill="#C42333"></path>
    <path fill-rule="evenodd" clip-rule="evenodd" d="M13.0657 20.3365L14.9406 19.23C15.0816 19.3489 15.2417 19.4422 15.4136 19.5061L15.4092 21.716C14.485 21.5751 13.6476 21.0821 13.0657 20.3366V20.3365Z" fill="#C9222E"></path>
    <path fill-rule="evenodd" clip-rule="evenodd" d="M19.766 17.9276C19.766 17.8759 19.7648 17.8236 19.7627 17.7719C19.6211 17.8036 19.485 17.8332 19.3567 17.861C18.8127 17.9793 18.272 18.1138 17.7355 18.2646L19.5098 19.3088C19.6797 18.869 19.7665 18.4005 19.7658 17.9277L19.766 17.9276Z" fill="#C42333"></path>
    <path fill-rule="evenodd" clip-rule="evenodd" d="M12.3545 16.1714C11.8233 17.3167 11.857 18.6068 12.362 19.6888L14.6506 18.3342C14.5714 18.0673 14.5707 17.7826 14.6486 17.5153L12.3545 16.1714Z" fill="white"></path>
    <path fill-rule="evenodd" clip-rule="evenodd" d="M12.4872 19.3137L14.3539 18.2079C14.3219 18.0217 14.322 17.8312 14.3543 17.6451L12.4812 16.549C12.1402 17.4383 12.1425 18.4261 12.4874 19.3137H12.4872ZM17.8715 9.33019C17.8665 9.43362 17.8407 9.77941 17.832 9.8827H19.3233C19.2362 9.47555 19.2007 8.91223 19.185 8.49164L19.1621 7.61423C19.1591 7.53023 19.1823 7.46099 19.2296 7.41058C19.2719 7.36501 19.3303 7.33856 19.3918 7.33739C19.4615 7.33652 19.5784 7.33506 19.5875 7.58297L19.6199 8.51618C19.6351 8.93619 19.641 9.52551 19.5865 9.88284H21.0407C21.0167 9.75531 20.9752 9.4494 20.9656 9.36525C21.1481 9.75955 21.5387 9.96159 22.0625 9.96159C22.3724 9.96159 22.6143 9.84793 22.791 9.73559L22.866 9.88299H25.5517C25.4322 9.47102 25.3586 8.89981 25.3114 8.47499C25.3114 8.47294 24.944 5.40742 24.944 5.40742L23.5604 5.17981C23.6719 5.56286 23.755 6.15028 23.8019 6.57277L24.0091 8.53269C24.0486 8.89003 24.0846 9.27263 24.0814 9.65743L24.081 9.70505L24.0258 9.56656C23.9303 9.32771 23.8682 8.9917 23.8361 8.53941L23.7784 7.91021C23.7057 6.91447 23.1678 6.46013 22.0013 6.46013C21.8028 6.46013 21.3073 6.51068 21.0067 6.59848L21.0877 7.73286L21.3985 7.53812C21.6532 7.37874 21.8584 7.31081 22.0844 7.31081C22.2695 7.31081 22.3902 7.38166 22.4462 7.51036C22.1883 7.55083 21.9369 7.62621 21.6985 7.73446C21.2861 7.92277 21.0164 8.19391 20.9083 8.5194L20.9071 8.49193L20.8595 7.45222C20.8347 6.78036 20.4242 6.36138 19.7883 6.36138C19.495 6.36138 19.2345 6.44698 19.0079 6.61265C18.9966 6.57408 18.9826 6.53639 18.9661 6.49972L18.9098 6.3792L17.7152 6.32325C17.7692 6.54223 17.843 7.15347 17.8589 7.3932C17.7953 7.0626 17.6262 6.71009 17.3051 6.48205C17.0615 6.30908 16.7556 6.21748 16.4201 6.21748C15.9763 6.21748 15.529 6.4071 15.2229 6.72528C14.9206 7.03937 14.7542 7.46975 14.7372 7.97566C14.6244 7.84973 14.4749 7.74206 14.2882 7.65338L13.7393 7.38677L13.7119 7.37333C13.5801 7.31066 13.5755 7.28889 13.5785 7.25281C13.583 7.1954 13.7095 7.13389 13.8902 7.13389C14.1156 7.13389 14.4421 7.24989 14.7064 7.42227L14.7284 6.42083C14.5331 6.33041 14.2599 6.25707 13.8697 6.25707C13.6662 6.25707 13.2742 6.28599 12.9367 6.48088C12.8436 6.53464 12.759 6.59643 12.6847 6.66422L12.6997 6.37C12.382 6.33347 12.0413 6.32383 11.6253 6.71652C11.6116 6.63412 11.5918 6.55304 11.5664 6.47357L10.2762 6.55407C10.3724 6.90629 10.3838 7.44068 10.3578 7.91693C10.3485 8.10334 10.3391 8.28975 10.3298 8.47601C10.3154 8.73839 10.3006 9.00631 10.2747 9.25715C10.1672 8.91749 10.0487 8.4538 9.95928 8.06798L9.32221 5.14417L7.50285 5.40946C7.51847 5.44686 7.54426 5.54153 7.55644 5.634C7.5722 5.75642 7.56747 6.00974 7.39423 6.52383C7.10221 7.39086 6.68165 8.67133 6.28072 9.55546C6.22455 9.6792 6.12869 9.88255 6.12869 9.88255H7.54598C7.56418 9.65626 7.6576 9.28242 7.74888 9.01084L8.6956 8.98542C8.73988 9.1952 8.79834 9.49279 8.81081 9.66634L8.82628 9.88255H11.6779C11.6104 9.42632 11.6365 8.79536 11.6561 8.43759C11.6782 8.03102 11.7617 7.77142 11.9267 7.59626C12.0545 7.46084 12.2071 7.42826 12.3138 7.42505C12.2992 7.96908 12.6503 8.22255 12.9622 8.38222L13.5196 8.67148C13.7201 8.77827 13.7159 8.83334 13.7132 8.86943C13.705 8.97856 13.5438 9.02107 13.3958 9.01756C13.1054 9.01113 12.7037 8.80661 12.2506 8.32919L12.2264 9.62412C12.5855 9.82996 13.0204 9.90403 13.4162 9.90403C14.0624 9.90403 14.7559 9.61755 14.9429 9.00324C15.2613 9.62383 15.8978 9.91031 16.5249 9.91031C17.0861 9.91016 17.5054 9.72609 17.8718 9.33019H17.8715ZM8.09665 8.03365L8.35428 7.27764C8.43008 7.64447 8.46963 7.83673 8.50717 8.01977L8.09665 8.03365ZM16.0609 7.70875V7.69809C16.0607 7.25734 16.2224 7.08452 16.3748 7.07034C16.4205 7.06596 16.5425 7.05442 16.5984 7.26114C16.6197 7.34149 16.6292 7.40167 16.6292 7.44755C16.6292 7.56734 16.566 7.59042 16.4913 7.61745L16.487 7.6192L16.0639 7.78486C16.0627 7.75945 16.0609 7.73432 16.0609 7.70875ZM17.5439 8.60851C17.2757 8.84225 17.0757 8.99784 16.7503 8.99126C16.4943 8.98601 16.3364 8.81026 16.2391 8.61333L17.8686 7.98939L17.8767 8.51399V8.51662C17.8831 8.69383 17.885 8.86738 17.8821 9.03874V9.04517L17.5441 8.60837L17.5439 8.60851ZM22.3988 9.02428C22.1509 9.03363 22.0971 8.86183 22.0934 8.73736C22.0946 8.60705 22.1368 8.41305 22.5319 8.30421L22.5514 8.58003L22.5597 8.70493C22.5654 8.79375 22.571 8.87454 22.5796 8.96249C22.5279 8.99828 22.4681 9.02165 22.3988 9.02428Z" fill="#B9A75B"></path>
    <path fill-rule="evenodd" clip-rule="evenodd" d="M14.506 6.5777C14.3804 6.53051 14.178 6.48478 13.8726 6.48478C13.6211 6.48478 13.3017 6.53343 13.0485 6.67937C12.7596 6.84606 12.5567 7.11267 12.5384 7.39462C12.5109 7.81419 12.7387 8.01404 13.0611 8.17897C13.2806 8.29132 13.4897 8.39957 13.6216 8.46998C13.7988 8.5645 13.9516 8.68006 13.9363 8.88926C13.9207 9.10167 13.7284 9.24527 13.3985 9.24527C13.1257 9.24527 12.7322 9.08195 12.4649 8.83301L12.4531 9.48618C12.6867 9.60553 13.0687 9.67653 13.4145 9.67653C14.0146 9.67653 14.7562 9.39648 14.7694 8.68167C14.7789 8.17298 14.4128 7.96247 14.1962 7.85977C14.0115 7.77168 13.8276 7.68242 13.6441 7.5917C13.5451 7.54261 13.3379 7.46402 13.3561 7.23232C13.3738 7.01158 13.6208 6.90654 13.8882 6.90654C14.1133 6.90654 14.3305 6.9698 14.4973 7.06198L14.506 6.5777ZM9.15098 5.40066L7.77697 5.60109C7.81093 5.80196 7.75834 6.15053 7.60846 6.59596C7.31887 7.45598 6.85389 8.83842 6.48434 9.6552H7.35082C7.39338 9.39429 7.46646 9.1287 7.58869 8.78758L8.87357 8.7531C8.93032 9.01095 9.01729 9.42233 9.03377 9.6552H10.1808C10.04 9.31949 9.85626 8.60584 9.74277 8.11586L9.15098 5.40051V5.40066ZM7.77697 8.27247L8.40601 6.42737L8.77914 8.23829L7.77683 8.27232L7.77697 8.27247ZM12.466 6.58252L12.4361 7.20398C12.234 7.17724 11.9685 7.22268 11.7656 7.43816C11.5779 7.63742 11.461 7.92756 11.4337 8.42309C11.4114 8.83155 11.3971 9.27858 11.4304 9.65505H10.4478C10.5124 9.28413 10.5343 8.84105 10.5568 8.43215L10.5813 7.9315C10.6038 7.52406 10.6052 7.13795 10.5438 6.76586L11.4009 6.7121C11.4408 6.85804 11.4604 7.05541 11.4512 7.27293C11.8261 6.69924 12.1926 6.56966 12.4662 6.58252H12.466ZM24.7423 5.60504L23.8569 5.45909C23.944 5.83688 23.9784 6.1368 24.0234 6.54366L24.231 8.50417C24.276 8.91292 24.3075 9.28443 24.3044 9.6552H25.263C25.1777 9.28428 25.1346 8.91278 25.0895 8.50417L24.7423 5.60504ZM20.7786 9.6552C20.7206 9.28428 20.6991 8.91278 20.6842 8.50417L20.6362 7.46665C20.6162 6.91589 20.3052 6.58894 19.7846 6.58894C19.4993 6.58894 19.1607 6.68273 18.871 7.05599C18.8622 6.97739 18.8179 6.71575 18.7643 6.60034L17.9847 6.56382C18.0518 6.94847 18.073 7.33429 18.0879 7.74115L18.0993 8.50417C18.1144 8.88794 18.1061 9.27245 18.0743 9.6552H19.0565C18.9985 9.28428 18.977 8.91278 18.9621 8.50417L18.9389 7.62413C18.9276 7.3115 19.1567 7.11296 19.393 7.1099C19.6659 7.1061 19.8005 7.29046 19.8108 7.57051L19.8428 8.50431C19.8579 8.91307 19.8638 9.28457 19.8329 9.65535H20.7786V9.6552ZM23.8185 9.6552C23.7009 9.36025 23.6425 8.96829 23.6132 8.55983L23.5561 7.9334C23.5017 7.19404 23.1968 6.68741 21.9974 6.68741C21.7902 6.68741 21.4863 6.7213 21.2431 6.77681L21.2834 7.34466C21.527 7.19258 21.7785 7.08287 22.0877 7.08287C22.3969 7.08287 22.6845 7.2164 22.711 7.70302C22.4011 7.73808 22.1109 7.79345 21.7865 7.94173C21.421 8.10841 21.0442 8.40936 21.0801 8.9211C21.1196 9.48705 21.5386 9.73394 22.0663 9.73394C22.4638 9.73394 22.742 9.52357 22.892 9.36624C22.9191 9.47069 22.9583 9.57558 23.0032 9.65535H23.8185V9.6552ZM22.3972 9.24878C22.1206 9.26149 21.8803 9.11175 21.8705 8.7493C21.8617 8.42396 22.0802 8.13632 22.7358 8.02631L22.7739 8.55983C22.7869 8.74346 22.7921 8.87319 22.8146 9.04937C22.7202 9.16463 22.5656 9.24089 22.3972 9.24864V9.24878ZM17.178 6.66871C16.9606 6.51444 16.6981 6.44519 16.4205 6.44519C15.7855 6.44519 14.9372 6.90464 14.9593 8.10724C14.9818 9.31423 15.8872 9.68252 16.5257 9.68252C17.0863 9.68252 17.426 9.48048 17.7029 9.18114L17.5061 8.92724C17.3561 9.04703 17.1257 9.22643 16.7457 9.21839C16.3435 9.21051 16.0788 8.90503 15.9477 8.48138L17.7116 7.80616C17.657 7.21201 17.4577 6.8671 17.1783 6.66871H17.178ZM16.5667 7.83187L15.8653 8.10622C15.8474 7.97489 15.8381 7.84253 15.8374 7.71003C15.8332 6.96731 16.2254 6.85585 16.3538 6.84372C16.5709 6.82327 16.7444 6.94467 16.8133 7.20106C16.891 7.49075 16.8716 7.7204 16.5666 7.83187H16.5667Z" fill="white"></path>
  </g>
  <defs>
    <clipPath id="clip0_410_105">
      <rect width="26.6667" height="32" fill="white" transform="translate(2.66666)"></rect>
    </clipPath>
  </defs>
</svg>
