<?xml version="1.0" encoding="UTF-8"?>
<svg xmlns="http://www.w3.org/2000/svg" width="24" height="24" viewBox="0 0 24 24" fill="none">
  <g clip-path="url(#clip0_971_196263)">
    <path fill-rule="evenodd" clip-rule="evenodd" d="M4 14.9782C3.99973 15.8813 4.42301 16.7322 5.14345 17.2768L12 22.476L18.8604 17.2748C19.5784 16.7295 20 15.8798 20 14.9782V2H4V14.9782Z" fill="#F9DC30"></path>
    <path fill-rule="evenodd" clip-rule="evenodd" d="M4.45361 14.9781C4.45559 15.7403 4.81132 16.4558 5.41722 16.913L12.0002 21.9051L18.5851 16.9112C19.1904 16.4528 19.5463 15.7375 19.5467 14.9782V2.45532H4.45361V14.9782V14.9781Z" fill="#33348E"></path>
    <path fill-rule="evenodd" clip-rule="evenodd" d="M12 21.9052L18.5849 16.9113C19.1903 16.4529 19.5462 15.7376 19.5466 14.9783V2.45532L5.41504 16.9112L12 21.9052V21.9052Z" fill="#CD3529"></path>
    <path fill-rule="evenodd" clip-rule="evenodd" d="M18.0299 4.0073L16.0576 6.02444V18.8287L18.0299 17.3335V4.0073ZM14.541 7.57446L12.5688 9.59357V21.4733L14.541 19.9781V7.57437V7.57446ZM11.0519 11.1434L9.07981 13.1605V19.6908L11.0519 21.1861V11.1433V11.1434ZM7.56312 14.7124L5.41493 16.9113L7.56312 18.5414V14.7124ZM5.5167 8.56924L5.31539 9.12627L4.72314 9.14585L5.19026 9.50742L5.02614 10.0782L5.51679 9.74403L6.00547 10.0782L5.84135 9.50742L6.30847 9.14585L5.71622 9.12627L5.51688 8.56924H5.5167ZM13.1884 6.60492L12.9871 7.16393L12.3947 7.18154L12.8639 7.54508L12.6978 8.11586L13.1885 7.7816L13.6791 8.11586L13.513 7.54508L13.9821 7.18154L13.3879 7.16393L13.1886 6.60492H13.1884ZM17.0231 2.68213L16.822 3.24114L16.2297 3.25875L16.6986 3.62229L16.5325 4.1911L17.0231 3.85881L17.5138 4.1911L17.3477 3.62229L17.817 3.25875L17.2246 3.24114L17.0232 2.68213H17.0231ZM5.5167 2.68213L5.31539 3.24114L4.72314 3.25875L5.19026 3.62229L5.02614 4.1911L5.51679 3.85881L6.00547 4.1911L5.84135 3.62229L6.30847 3.25875L5.71622 3.24114L5.51688 2.68213H5.5167ZM11.2691 2.68213L11.0696 3.24114L10.4754 3.25875L10.9446 3.62229L10.7785 4.1911L11.2692 3.85881L11.7596 4.1911L11.5935 3.62229L12.0627 3.25875L11.4704 3.24114L11.2692 2.68213H11.2691ZM5.5167 14.4544L5.31539 15.0134L4.72314 15.0311L5.19026 15.3946L5.02614 15.9634L5.51679 15.6311L6.00547 15.9634L5.84135 15.3946L6.30847 15.0311L5.71622 15.0134L5.51688 14.4544H5.5167ZM9.3555 10.5257L9.15419 11.0847L8.56194 11.1024L9.03104 11.4659L8.86494 12.0347L9.35559 11.7024L9.84607 12.0347L9.67997 11.4659L10.1492 11.1024L9.5569 11.0847L9.35559 10.5257H9.3555ZM6.57796 12.6835V4.57799H14.4998L6.57796 12.6835Z" fill="white"></path>
    <path fill-rule="evenodd" clip-rule="evenodd" d="M8.59908 7.11111C8.57168 7.19708 8.53072 7.52155 8.52092 7.55865C8.50916 7.59584 8.41151 7.61147 8.3586 7.55676C8.30578 7.50196 8.21586 7.24792 8.09863 7.11111V8.19195C8.17481 8.25636 8.29994 8.28178 8.37612 8.27989C8.45813 8.46943 8.5441 8.64721 8.7084 8.8213C8.65962 9.08324 8.72996 9.2435 8.8921 9.38426C9.05425 9.52503 8.89408 9.68322 8.83353 9.68519C8.41915 9.68726 9.41608 9.80646 9.42372 9.75948C9.43153 9.7125 9.42956 9.65196 9.40997 9.60111C9.32401 9.36459 9.30442 9.22967 9.42956 9.02252C9.67201 9.06555 9.71306 8.87978 9.58388 8.72159C9.50582 8.52809 9.60742 8.52809 9.42174 8.30136C9.23804 8.07652 9.11883 7.50187 9.25564 7.27326C9.37296 7.0759 9.45309 6.94681 9.18333 6.97421C9.11102 6.91941 9.06017 6.84719 8.98597 6.82761C8.91169 6.80605 8.85698 6.86085 8.78862 6.84324C8.6713 6.81386 8.55596 6.54797 8.4779 6.80605C8.45238 6.89004 8.62827 7.02299 8.59908 7.11093V7.11111Z" fill="black"></path>
    <path fill-rule="evenodd" clip-rule="evenodd" d="M8.1555 7.18159L8.15747 8.19991L8.15945 9.41181C8.16726 9.56631 8.24928 9.62875 8.3842 9.6327L9.21091 9.65623C9.33407 9.66019 9.57059 9.81263 9.21486 9.81056L7.06882 9.80661C6.93003 9.80266 7.02382 9.67761 7.18614 9.67366L7.66098 9.63252C7.77632 9.62857 7.8331 9.54655 7.8331 9.38621V6.85695C7.83058 6.81994 7.81702 6.78455 7.79411 6.75535C7.85465 6.76119 7.91529 6.76317 7.97781 6.76317C8.05399 6.76317 8.12837 6.7593 8.20068 6.74951C8.17472 6.77969 8.159 6.81724 8.15567 6.85695V7.1815H8.15541L8.1555 7.18159Z" fill="#5E3729"></path>
    <path fill-rule="evenodd" clip-rule="evenodd" d="M8.6715 6.64009L8.66369 6.6303L8.51115 6.71825L8.46238 6.71429C8.31182 6.75732 8.1477 6.78068 7.97756 6.78068C7.24464 6.78068 6.64844 6.35264 6.64844 5.82686C6.64844 5.30109 7.24464 4.87305 7.97756 4.87305C8.71049 4.87305 9.30867 5.30109 9.30867 5.82686C9.30867 6.171 9.05256 6.47193 8.6715 6.64009Z" fill="#43644A"></path>
    <path fill-rule="evenodd" clip-rule="evenodd" d="M7.76659 5.3775C7.816 5.37697 7.85588 5.33699 7.85642 5.28758C7.85588 5.23818 7.816 5.19829 7.76659 5.19775C7.71718 5.19757 7.67694 5.23746 7.67676 5.28687C7.67676 5.28714 7.67676 5.28732 7.67676 5.28758C7.67649 5.33699 7.71638 5.37723 7.76578 5.3775C7.76605 5.3775 7.76632 5.3775 7.76659 5.3775ZM7.19383 5.63343C7.24324 5.63289 7.28321 5.59301 7.28375 5.5436C7.28384 5.49401 7.24378 5.45377 7.19428 5.45368C7.1941 5.45368 7.19401 5.45368 7.19383 5.45368C7.14497 5.45296 7.10472 5.49204 7.104 5.54091C7.104 5.5418 7.104 5.5427 7.104 5.5436C7.104 5.59238 7.14299 5.63343 7.19383 5.63343ZM7.69221 6.22379C7.7418 6.22388 7.78204 6.18382 7.78213 6.13432C7.78213 6.13414 7.78213 6.13405 7.78213 6.13387C7.7815 6.08447 7.74162 6.04458 7.69221 6.04395C7.64271 6.04386 7.60247 6.08384 7.60238 6.13334C7.60238 6.13351 7.60238 6.13369 7.60238 6.13387C7.60148 6.18265 7.64029 6.2229 7.68907 6.22379C7.69015 6.22379 7.69122 6.22379 7.69221 6.22379ZM8.54048 6.21984C8.59069 6.21984 8.63139 6.17915 8.63139 6.12893C8.63139 6.07872 8.59069 6.03803 8.54048 6.03803C8.49026 6.03803 8.44957 6.07872 8.44957 6.12893C8.44957 6.17915 8.49026 6.21984 8.54048 6.21984ZM8.16319 5.79773C8.21296 5.79872 8.2541 5.7591 8.25509 5.70934C8.25509 5.7088 8.25509 5.70835 8.25509 5.70781C8.25428 5.65768 8.21323 5.61762 8.16319 5.61789C8.11378 5.61843 8.0739 5.6584 8.07336 5.70781C8.07318 5.75731 8.11316 5.79755 8.16256 5.79773C8.16274 5.79773 8.16292 5.79773 8.1631 5.79773H8.16319ZM8.83755 5.62166C8.88704 5.62175 8.92729 5.58178 8.92738 5.53228C8.92738 5.5321 8.92738 5.53192 8.92738 5.53165C8.92738 5.48288 8.88632 5.44182 8.83755 5.44182C8.78877 5.44182 8.74763 5.48296 8.74763 5.53165C8.74754 5.58124 8.7876 5.62148 8.8371 5.62157C8.83728 5.62157 8.83737 5.62157 8.83755 5.62157V5.62166Z" fill="#CD3529"></path>
  </g>
  <defs>
    <clipPath id="clip0_971_196263">
      <rect width="16" height="20.476" fill="white" transform="translate(4 2)"></rect>
    </clipPath>
  </defs>
</svg>
