<?xml version="1.0" encoding="UTF-8"?>
<svg xmlns="http://www.w3.org/2000/svg" width="24" height="24" viewBox="0 0 24 24" fill="none">
  <g clip-path="url(#clip0_970_195939)">
    <path d="M14.8285 2.16873C13.8963 2.81596 12.9975 3.11729 12.0003 3.11729C11.0032 3.11729 10.1042 2.81579 9.17181 2.16873L8.92896 2.00008L8.68254 2.16338C7.62884 2.86116 6.77278 2.98882 5.46634 2.98882C5.01596 2.98882 4.53171 2.90377 4.06594 2.74305L3.75569 2.63596L3.56695 2.90441C3.4665 3.04714 3.39198 3.13787 3.31989 3.22552C3.23111 3.33358 3.14719 3.43564 3.04852 3.59392L2.89073 3.84763L3.07039 4.08643C3.86877 5.14743 4.16995 6.23888 4.16995 7.26634C4.16995 9.18242 3.1224 10.8754 2.29729 11.7316L2 12.0401L2.30328 12.3427C2.46594 12.5051 2.75561 12.8056 2.99522 13.0575L2.98566 13.1895L2.98356 13.2135C2.97367 13.3966 2.96881 13.58 2.96865 13.7634C2.96865 15.7091 3.54378 17.3269 4.6819 18.5781C5.99968 20.0268 8.06011 20.8918 10.4953 21.0264C11.1 21.5771 11.7145 22.0343 11.7421 22.0547L12.0024 22.2478L12.2625 22.054C12.2897 22.0336 12.9009 21.5768 13.5049 21.0264C15.9401 20.8918 18.0003 20.027 19.3181 18.5781C20.4562 17.3269 21.0313 15.7091 21.0313 13.7634C21.0313 13.5829 21.0263 13.3997 21.0164 13.2134L21.0161 13.209L21.014 13.1852C21.014 13.1852 21.0054 13.0671 21.0048 13.0574C21.2266 12.8242 21.5256 12.5132 21.6967 12.3426L21.9998 12.0399L21.7027 11.7315C20.8778 10.8753 19.8301 9.18193 19.8301 7.26602C19.8301 6.23856 20.1312 5.1471 20.9294 4.08627L21.1091 3.84763L20.9515 3.59392C20.8528 3.43532 20.7689 3.33325 20.6801 3.22519C20.608 3.13754 20.5335 3.04682 20.4332 2.90409L20.2445 2.63548L19.9342 2.74257C19.4685 2.90344 18.9842 2.98833 18.5338 2.98833C17.2274 2.98833 16.3712 2.86067 15.3176 2.1629L15.071 1.99976L14.8282 2.16841L14.8285 2.16873Z" fill="black"></path>
    <path d="M12.002 21.7044C12.002 21.7044 11.3059 21.1881 10.6771 20.6007C6.56321 20.4301 3.15908 18.123 3.4191 13.2365C3.4345 13.1076 3.42137 13.1163 3.44373 12.8963C3.20784 12.6467 2.81757 12.2395 2.61133 12.0338C4.08691 10.5025 5.8089 7 3.41878 3.82382C3.57593 3.57108 3.68966 3.48732 3.9236 3.15472C4.40136 3.31964 4.93243 3.42446 5.46625 3.42446C6.83684 3.42446 7.77261 3.28838 8.92303 2.52661C9.83255 3.15796 10.819 3.5531 12.0002 3.5531C13.1814 3.5531 14.1676 3.15796 15.0771 2.52661C16.2275 3.28838 17.1633 3.42446 18.534 3.42446C19.0677 3.42446 19.5989 3.31964 20.0767 3.15472C20.3105 3.48732 20.4244 3.57124 20.5814 3.82382C18.1914 6.99984 19.9134 10.5025 21.389 12.0338C21.1829 12.2395 20.7925 12.6467 20.5566 12.8963C20.5788 13.1163 20.5658 13.1076 20.5812 13.2365C20.8414 18.1229 17.4369 20.4299 13.3234 20.6007C12.6944 21.1881 12.0019 21.7044 12.0019 21.7044H12.002Z" fill="#E2B900"></path>
    <path d="M4.19928 12.9451H4.14129L4.1165 13.1554L4.09868 13.2906C4.00261 15.173 4.47195 16.6936 5.49325 17.8138C6.66474 19.0987 8.56251 19.8308 10.9816 19.9311C10.9841 19.9311 11.0223 19.9314 11.0223 19.9314C11.7481 19.9353 12.4337 19.939 13.0169 19.9312C15.4378 19.8309 17.3356 19.0988 18.5071 17.8139C19.5284 16.6938 19.9977 15.1732 19.902 13.2942C19.9017 13.2908 19.8839 13.1549 19.8839 13.1549L19.8594 12.9477L19.8011 12.9452H4.19928V12.9451Z" fill="black"></path>
    <path d="M4.2573 13.0757L4.24547 13.1755C4.24547 13.1755 4.22895 13.3009 4.22879 13.3009C4.22085 13.4551 4.2168 13.6093 4.2168 13.7637C4.2168 15.3942 4.67771 16.7253 5.58982 17.7257C5.80772 17.9648 6.05187 18.1843 6.32032 18.3837V13.0757H4.2573ZM19.7714 13.3041L19.7544 13.1748L19.7428 13.0757H17.6797V18.3837C17.9483 18.1843 18.1923 17.9648 18.4102 17.7257C19.3225 16.7251 19.7834 15.3935 19.7834 13.7654C19.7834 13.6142 19.7795 13.4605 19.7714 13.3041Z" fill="#004B95"></path>
    <path d="M8.59216 13.0757H6.32031V18.3837C6.94891 18.851 7.71245 19.2077 8.59216 19.4481V13.0757ZM15.4079 13.0757V19.448C16.2879 19.2076 17.0513 18.8508 17.6797 18.3837V13.0757H15.4079Z" fill="#A4234B"></path>
    <path d="M9.82209 16.3452C9.82209 15.5588 10.2391 14.8698 10.8638 14.4871V13.0758H8.5918V19.4483C9.2805 19.6364 10.0406 19.7529 10.8638 19.7947V18.2036C10.2389 17.8208 9.82209 17.1319 9.82209 16.3453V16.3452ZM13.1358 13.0757V14.4869C13.7607 14.8698 14.1775 15.5586 14.1775 16.345C14.1775 17.1314 13.7605 17.8204 13.1358 18.2033V19.7944C13.959 19.7526 14.7191 19.6361 15.4077 19.448V13.0757H13.1358Z" fill="#004B95"></path>
    <path d="M13.1358 14.4869V13.0757H10.8639V14.4869C11.1946 14.2843 11.5836 14.1673 11.9998 14.1673C12.4161 14.1673 12.8051 14.2843 13.1358 14.4869ZM10.8639 18.2033V19.7944C10.9041 19.7965 10.944 19.7987 10.9843 19.8003H11.0225C11.7477 19.8044 12.4327 19.8081 13.0128 19.8003C13.054 19.7986 13.0946 19.7963 13.1356 19.7942V18.2031C12.8048 18.4056 12.416 18.5226 11.9996 18.5226C11.5834 18.5226 11.1944 18.4056 10.8638 18.2031L10.8639 18.2033Z" fill="#A4234B"></path>
    <path d="M10.8887 16.7404C10.4947 16.3816 10.4934 15.6522 10.5993 15.1678C10.6288 15.0329 10.6658 14.9008 10.704 14.75C10.2408 15.1268 9.94483 15.7015 9.94483 16.3453C9.9445 16.6094 9.99521 16.871 10.094 17.1158C10.129 17.1204 10.1647 17.1228 10.2008 17.1228C10.5052 17.1228 10.7537 16.9822 10.8887 16.7403V16.7404ZM13.0047 16.8978C12.9373 17.2422 12.5689 17.5003 12.2217 17.7073C11.864 17.9207 11.2871 18.031 10.853 18.0511C11.1806 18.2718 11.5753 18.4007 12.0001 18.4007C12.7753 18.4007 13.4502 17.9715 13.8002 17.3381C13.7389 16.831 13.2568 16.7715 13.0049 16.8979L13.0047 16.8978Z" fill="#E2B900"></path>
    <path d="M10.6934 17.9319C11.1223 17.9353 11.7812 17.8274 12.159 17.6021C12.6473 17.3108 13.0265 16.9999 12.8462 16.5689C12.7552 16.3512 12.4524 16.0991 12.0598 16.3771C12.0347 16.6989 11.6376 16.9825 11.3525 16.9459C11.208 16.9275 11.087 16.8818 10.9862 16.8158C10.826 17.0896 10.5391 17.245 10.2006 17.245C10.1839 17.245 10.1672 17.2445 10.1509 17.2435C10.2803 17.5092 10.4653 17.7438 10.6934 17.9318V17.9319ZM11.9945 15.0644C12.3344 14.9234 12.8057 15.1066 13.1647 15.307C13.5037 15.4964 13.8576 15.8498 14.0516 16.2209C13.9877 15.1493 13.103 14.299 12.0175 14.2898C11.6932 14.5028 11.7376 14.9043 11.9945 15.0642V15.0644Z" fill="#E2B900"></path>
    <path d="M11.9375 16.3756C11.5166 16.0686 11.5425 15.5857 11.7236 15.2987C11.768 15.2283 11.8199 15.173 11.8772 15.1306C11.6326 14.9352 11.5835 14.5563 11.8205 14.2974C11.4761 14.327 11.1448 14.4437 10.8577 14.6363C10.7679 15.0224 10.6537 15.3747 10.6594 15.778C10.667 16.3213 10.892 16.7636 11.3685 16.8247C11.5909 16.8532 11.9117 16.6165 11.9375 16.3756Z" fill="#E2B900"></path>
    <path d="M14.0469 16.5341C13.9296 16.1088 13.5081 15.6389 13.1053 15.4138C12.6088 15.1365 12.0657 14.9856 11.8269 15.3641C11.6737 15.6069 11.6523 16.0082 12.0001 16.2697C12.4729 15.9433 12.8503 16.2607 12.9594 16.5218C12.9944 16.6054 13.0122 16.685 13.0153 16.7606C13.2942 16.6624 13.7477 16.7256 13.8874 17.1611C13.9735 16.9618 14.0275 16.7502 14.0469 16.5341Z" fill="#E2B900"></path>
    <path d="M10.1265 10.5755H8.68985V12.5955H9.1276V11.7622H9.72379V11.3356H9.1276V11.0048H10.1476V10.5755H10.1265ZM10.962 11.5854C10.962 12.2179 11.3097 12.6265 11.8477 12.6265C12.1985 12.6265 12.451 12.4723 12.5985 12.1682L12.6069 12.1507L12.2387 11.9323L12.228 11.9503C12.123 12.126 12.023 12.1915 11.8591 12.1915C11.5911 12.1915 11.4111 11.9478 11.4111 11.5853C11.4111 11.2227 11.5817 10.979 11.8563 10.979C12.0157 10.979 12.1278 11.0456 12.1991 11.1825L12.2084 11.2003L12.6135 11.0134L12.6041 10.9941C12.4617 10.6997 12.2051 10.5442 11.8617 10.5442C11.3319 10.5442 10.9619 10.9722 10.9619 11.5853L10.962 11.5854ZM15.0487 11.5015C15.171 11.4148 15.2428 11.2786 15.2428 11.1193C15.2428 10.7788 15.0004 10.5755 14.5944 10.5755H13.6663V12.5955H14.5858C15.0396 12.5955 15.3105 12.349 15.3105 11.9358C15.3105 11.7424 15.2139 11.5874 15.0487 11.5013V11.5015ZM14.0956 10.9823H14.5776C14.7743 10.9823 14.7994 11.0722 14.7994 11.1504C14.7994 11.2617 14.7333 11.3158 14.5973 11.3158H14.0958V10.9823H14.0956ZM14.6001 12.1777H14.0956V11.7086H14.6001C14.7785 11.7086 14.8616 11.7828 14.8616 11.9417C14.8616 12.1006 14.7712 12.1777 14.6001 12.1777ZM15.0547 3.35375C14.076 3.94573 13.0767 4.23394 12.0002 4.23475C10.9236 4.23394 9.92452 3.94573 8.94582 3.35375L8.9131 3.33398L8.87988 3.35278C7.76494 3.98283 6.78398 4.10612 5.46636 4.10612C5.14963 4.10612 4.82302 4.07437 4.49528 4.01151L4.354 3.98445L4.42658 4.10855C5.78033 6.42511 5.29981 8.66489 4.65826 10.1358L4.6184 10.2273H19.3824L19.3424 10.1358C18.701 8.66473 18.2203 6.42511 19.5741 4.10855L19.6467 3.98445L19.5056 4.01151C19.1778 4.0742 18.851 4.10612 18.5345 4.10612C17.2169 4.10612 16.2357 3.98283 15.121 3.35278L15.0877 3.33398L15.055 3.35375H15.0547Z" fill="black"></path>
    <path d="M7.47155 4.05041C6.85316 4.19719 6.21242 4.23689 5.46588 4.23689C5.1835 4.23689 4.89318 4.20772 4.60156 4.15896C4.94745 4.77751 5.16746 5.38942 5.29237 5.98269H7.47155V4.05058V4.05041ZM11.9346 5.98253V4.36423C11.1527 4.35531 10.4109 4.19671 9.68767 3.88354V5.98253H11.9346ZM5.35426 8.19865C5.25138 8.90793 5.04595 9.55094 4.81525 10.0966H7.47155V8.19865H5.35426ZM9.68767 10.0966H11.9346V8.19865H9.68767V10.0966Z" fill="white"></path>
    <path d="M9.68778 5.98247V3.88348C9.42646 3.7704 9.16757 3.63755 8.9103 3.48364C8.41828 3.75792 7.95169 3.9363 7.47166 4.05019V5.98231H5.29248C5.38013 6.39867 5.42419 6.82313 5.42419 7.24873C5.42419 7.57615 5.3986 7.89336 5.35437 8.19843H7.47166V10.0964H9.68778V8.19843H11.9347V5.98231H9.68778V5.98247Z" fill="#DB2F36"></path>
    <path d="M15.0898 3.48389L15.0867 3.48567V10.0966H15.8658V3.84646C15.6107 3.74974 15.354 3.63099 15.09 3.48389H15.0898ZM13.5285 4.16011V10.0968H14.3076V3.88567C14.0547 3.99519 13.7944 4.08688 13.5285 4.16011ZM12.0654 4.36441V10.0968H12.7494V4.31629C12.5226 4.34561 12.2942 4.36165 12.0654 4.36441ZM16.6448 4.07587V10.0969H17.4237V4.19284C17.1557 4.16805 16.8978 4.13014 16.6448 4.07571V4.07587ZM18.5759 7.24914C18.5759 6.28194 18.7995 5.23002 19.3984 4.15914C19.107 4.20774 18.8165 4.23707 18.5341 4.23707C18.421 4.23707 18.3114 4.23577 18.2028 4.23366V10.0969H19.1847C18.8547 9.31637 18.5759 8.33751 18.5759 7.24914Z" fill="#FFDF00"></path>
    <path d="M17.424 4.19276V10.0967H18.2031V4.23327C17.9317 4.22808 17.6733 4.21577 17.424 4.1926V4.19276ZM12.7495 4.31622V10.0967H13.5286V4.15988C13.273 4.23003 13.0126 4.28236 12.7495 4.31605V4.31622ZM14.3076 3.8856V10.0967H15.0867V3.4856C14.8289 3.63967 14.5694 3.77251 14.3076 3.8856ZM15.8656 3.84639V10.0967H16.6447V4.07563C16.3796 4.01893 16.1191 3.9423 15.8656 3.84639Z" fill="#DB2F36"></path>
  </g>
  <defs>
    <clipPath id="clip0_970_195939">
      <rect width="20" height="20.2476" fill="white" transform="translate(2 2)"></rect>
    </clipPath>
  </defs>
</svg>
