<?xml version="1.0" encoding="UTF-8"?>
<svg xmlns="http://www.w3.org/2000/svg" width="28" height="28" viewBox="0 0 28 28" fill="none">
  <g clip-path="url(#clip0_404_607)">
    <path fill-rule="evenodd" clip-rule="evenodd" d="M14.2857 27.7765C21.7363 27.7765 27.7764 21.7364 27.7764 14.2858C27.7764 6.83517 21.7363 0.795044 14.2857 0.795044C6.83523 0.795157 0.795105 6.83528 0.795105 14.2858C0.795105 21.7363 6.83523 27.7764 14.2857 27.7764V27.7765Z" fill="white"></path>
    <path d="M14.2858 27.553C17.9493 27.553 21.2661 26.068 23.6671 23.6673C26.0678 21.2662 27.5528 17.9495 27.5528 14.2859C27.5528 10.6223 26.0678 7.30543 23.6671 4.90471C21.266 2.50387 17.9493 1.01888 14.2858 1.01888C10.6222 1.01888 7.30526 2.50376 4.90453 4.9046C2.5037 7.30532 1.01871 10.6224 1.01871 14.2858C1.01871 17.9492 2.5037 21.2662 4.90453 23.6672C7.30526 26.0679 10.6223 27.5529 14.2858 27.5529V27.553ZM14.2858 28.0003C10.4988 28.0003 7.07014 26.4651 4.58825 23.9834C2.10659 21.5013 0.571411 18.0731 0.571411 14.2858C0.571411 10.4986 2.10659 7.07031 4.58836 4.58843C7.07025 2.10677 10.4991 0.571472 14.2858 0.571472C18.0724 0.571472 21.5014 2.10665 23.9833 4.58843C26.4651 7.0702 28.0001 10.4988 28.0001 14.2857C28.0001 18.0726 26.4649 21.5012 23.9833 23.983C21.5016 26.4651 18.0729 28.0002 14.2858 28.0002V28.0003Z" fill="#346BA5"></path>
    <path d="M14.2858 22.1912C16.4689 22.1912 18.4454 21.3064 19.8758 19.876C21.306 18.4454 22.1909 16.4692 22.1909 14.2858C22.1909 12.1025 21.3062 10.1261 19.8758 8.69592C18.4451 7.26541 16.4689 6.38066 14.2858 6.38066C12.1026 6.38066 10.126 7.26541 8.69576 8.69592C7.26525 10.1262 6.38049 12.1027 6.38049 14.2858C6.38049 16.4689 7.26525 18.4454 8.69576 19.876C10.1263 21.3063 12.1026 22.1912 14.2858 22.1912ZM14.2858 26.8864C10.8065 26.8864 7.65659 25.4759 5.37614 23.1953C3.0958 20.9151 1.6853 17.765 1.6853 14.2857C1.6853 10.8064 3.0958 7.65653 5.37614 5.37608C7.65647 3.09574 10.8065 1.68524 14.2858 1.68524C17.765 1.68524 20.9149 3.09574 23.1955 5.37608C25.4757 7.65641 26.8862 10.8065 26.8862 14.2857C26.8862 17.7649 25.4757 20.9151 23.1955 23.1953C20.9152 25.4758 17.765 26.8864 14.2858 26.8864Z" fill="#CC2229"></path>
    <path fill-rule="evenodd" clip-rule="evenodd" d="M3.18499 10.4385L3.98621 8.61588L4.55582 8.86626L4.08049 9.94748L4.54338 10.1508L4.94965 9.22708L5.48489 9.46243L5.07874 10.3862L6.16154 10.8622L5.83565 11.6036L3.18499 10.4385ZM7.01204 7.40387L7.64721 7.01683C7.78489 7.19464 7.87736 7.36996 7.92472 7.54302C7.97197 7.71597 7.97559 7.88429 7.93602 8.04797C7.89635 8.21176 7.80162 8.38268 7.65162 8.56094C7.46849 8.77865 7.28447 8.92662 7.09919 9.00473C6.91392 9.08307 6.69124 9.09788 6.43091 9.04916C6.17081 9.00066 5.90313 8.86061 5.62811 8.62922C5.26141 8.32073 5.0533 7.99631 5.00368 7.65516C4.95417 7.31435 5.06449 6.98314 5.33488 6.66177C5.54581 6.41094 5.76816 6.26127 6.0017 6.21244C6.23535 6.16372 6.49873 6.20249 6.79173 6.32853L6.46878 6.98574C6.38501 6.9481 6.31877 6.92685 6.26983 6.92154C6.19319 6.91136 6.1153 6.91973 6.04262 6.94606C5.97129 6.97308 5.90822 7.01841 5.85995 7.07742C5.74227 7.21747 5.71435 7.37742 5.77664 7.55693C5.82197 7.69133 5.94382 7.8419 6.14232 8.00897C6.38818 8.21572 6.58509 8.32378 6.73284 8.33283C6.8808 8.3421 7.00571 8.28626 7.10745 8.1653C7.20658 8.0474 7.24479 7.92736 7.22207 7.80493C7.19901 7.68251 7.12915 7.54879 7.01216 7.40399L7.01204 7.40387ZM9.37331 4.29756L9.69683 4.15004C9.80704 4.09974 9.89465 4.08584 9.95931 4.10856C10.0239 4.13117 10.0737 4.18079 10.1089 4.25754C10.1465 4.34018 10.1529 4.41388 10.128 4.47808C10.1029 4.5424 10.0333 4.60039 9.91974 4.65239L9.60143 4.79753L9.37331 4.29756ZM9.59114 6.73717L10.8568 6.15999C10.9108 6.13535 11.0149 6.07329 11.1694 5.97382C11.2846 5.89966 11.3645 5.82833 11.4087 5.76051C11.478 5.65222 11.5164 5.53036 11.5242 5.39506C11.5321 5.25975 11.5047 5.12365 11.4426 4.9871C11.366 4.81924 11.2623 4.69828 11.1314 4.62413C11.0005 4.54998 10.8395 4.52884 10.6487 4.56094C10.7404 4.46701 10.7987 4.36934 10.8236 4.26817C10.8601 4.11692 10.8429 3.96342 10.7718 3.80742C10.6871 3.6217 10.5546 3.49397 10.3743 3.424C10.194 3.35402 9.99005 3.37109 9.76228 3.47498L8.38874 4.10155L9.59125 6.73728L9.59114 6.73717ZM9.8301 5.29909L10.2022 5.12941C10.3305 5.07097 10.4309 5.05379 10.5035 5.07776C10.5759 5.10183 10.63 5.15281 10.6655 5.2307C10.7038 5.31469 10.7083 5.39325 10.6797 5.4665C10.6508 5.53975 10.5734 5.60508 10.4475 5.66239L10.0737 5.83308L9.83022 5.29909H9.8301ZM12.7246 4.48215L12.8761 3.41371L13.2945 4.4089L12.7247 4.48215H12.7246ZM13.7287 5.46593L14.5651 5.35843L13.2251 2.6126L12.3537 2.72451L11.7511 5.71993L12.5676 5.61514L12.6321 5.12523L13.5408 5.00869L13.7288 5.46616L13.7287 5.46593ZM14.5935 2.49255L15.4791 2.62198L15.8573 3.66567L16.521 2.77447L17.4007 2.90322L16.154 4.4219L15.9785 5.62215L15.1791 5.50504L15.3545 4.30491L14.5935 2.49255ZM18.3408 3.24788L20.2892 4.17005L20.0249 4.72847L18.8045 4.15084L18.6077 4.56648L19.7408 5.10274L19.4882 5.63628L18.3552 5.10014L18.1112 5.61571L19.3673 6.21007L19.087 6.80239L17.1029 5.86349L18.3407 3.24788H18.3408ZM21.5164 5.82155L21.7781 6.05905C21.8872 6.15796 21.9448 6.24409 21.9508 6.31689C21.9566 6.3898 21.9282 6.46068 21.8655 6.52997C21.8259 6.57484 21.7734 6.60638 21.7153 6.6204C21.6619 6.63453 21.605 6.62696 21.5572 6.59949C21.4616 6.54817 21.4001 6.51019 21.3727 6.48543L21.1213 6.2572L21.5164 5.82167V5.82155ZM19.9647 7.53195L20.754 6.66211L20.8066 6.70993C20.861 6.75932 20.8949 6.82003 20.9077 6.89214C20.9167 6.94663 20.9028 7.03435 20.8659 7.1553L20.5904 8.09951L21.2642 8.71106L21.54 7.82833C21.5538 7.78391 21.5662 7.71416 21.5767 7.6191C21.5875 7.52392 21.5896 7.45757 21.583 7.4197C21.5746 7.36431 21.5473 7.29095 21.4997 7.20006C21.6088 7.25817 21.7042 7.29298 21.7857 7.30508C21.9132 7.32407 22.0435 7.31073 22.1645 7.26619C22.2888 7.22143 22.4048 7.1397 22.5124 7.02078C22.6362 6.88435 22.711 6.74146 22.7375 6.59214C22.7638 6.44259 22.744 6.30626 22.6786 6.18283C22.6131 6.05939 22.4881 5.91413 22.304 5.74683L21.3112 4.84625L19.367 6.9897L19.9648 7.53217L19.9647 7.53195ZM23.8416 7.39709L24.215 8.05102L23.3107 9.69902L24.7025 8.90379L25.0787 9.56269L22.5632 11.0003L22.1868 10.3413L23.0835 8.70427L21.7021 9.49362L21.3258 8.83472L23.8415 7.39709H23.8416ZM5.36755 14.9776L5.61635 15.9961L4.01741 16.8033L5.80795 16.7807L6.0563 17.7975L3.27056 18.4776L3.11593 17.8451L5.24038 17.3262L2.99633 17.3547L2.85605 16.7809L4.86136 15.7737L2.73691 16.2926L2.58182 15.6578L5.36755 14.9778V14.9776ZM7.19867 19.5663L7.64314 20.2258L6.22687 21.1805C6.09247 21.2722 5.94484 21.3427 5.78907 21.3895C5.64269 21.4338 5.48828 21.4458 5.3368 21.4247C5.18669 21.4033 5.06167 21.3594 4.96197 21.293C4.82236 21.2002 4.6918 21.0634 4.57017 20.8829C4.4941 20.7686 4.4256 20.6494 4.36512 20.5263C4.29831 20.3924 4.26101 20.2677 4.25344 20.1526C4.24586 20.0376 4.26339 19.9162 4.30611 19.7884C4.34896 19.6607 4.40841 19.5523 4.48494 19.4628C4.60838 19.3198 4.72877 19.2091 4.84531 19.1302L6.26158 18.1758L6.70605 18.8353L5.25575 19.8128C5.12599 19.8999 5.04675 20.0006 5.01747 20.1147C4.98819 20.2286 5.01216 20.3429 5.08947 20.4574C5.16589 20.5708 5.26186 20.6358 5.37739 20.652C5.49291 20.6683 5.61646 20.6323 5.74827 20.5435L7.19856 19.566L7.19867 19.5663ZM7.97909 20.5803L8.57311 21.0291L8.39191 22.8793L9.34777 21.615L9.94653 22.0674L8.21862 24.3531L7.61985 23.9007L7.79857 22.0632L6.84983 23.3182L6.25106 22.8658L7.97898 20.5803H7.97909ZM11.4714 24.4342L12.058 24.8789C11.944 25.0703 11.8161 25.2187 11.6739 25.3251C11.5316 25.4311 11.3781 25.4958 11.2129 25.5186C11.0479 25.5412 10.8559 25.516 10.6373 25.4424C10.3705 25.3525 10.1675 25.2369 10.0285 25.0945C9.88945 24.9522 9.79506 24.7523 9.74555 24.4951C9.69604 24.238 9.7278 23.9408 9.84129 23.6035C9.99231 23.1539 10.216 22.8447 10.5121 22.6754C10.8082 22.5062 11.1532 22.4879 11.5473 22.6205C11.8547 22.7238 12.0731 22.8742 12.2028 23.0718C12.3322 23.2694 12.3919 23.526 12.3821 23.8414L11.6598 23.7819C11.6642 23.6914 11.6598 23.6224 11.6468 23.5755C11.6284 23.5013 11.5925 23.4326 11.542 23.3754C11.4911 23.3195 11.4266 23.2778 11.3548 23.2545C11.1831 23.1969 11.0256 23.2293 10.8828 23.3519C10.7756 23.4421 10.6809 23.609 10.599 23.8521C10.4977 24.1533 10.4693 24.3742 10.5147 24.5136C10.5598 24.6529 10.6565 24.7479 10.8048 24.7978C10.9493 24.8465 11.0738 24.8381 11.1781 24.7729C11.2824 24.7077 11.3804 24.5946 11.4717 24.4343L11.4714 24.4342ZM13.0298 23.1033L13.8274 23.104L13.8263 24.1071L14.6961 24.108L14.6972 23.1052L15.4986 23.1061L15.4952 25.9719L14.6936 25.971L14.6951 24.8119L13.8254 24.8108L13.824 25.9699L13.0263 25.9689L13.0297 23.1033H13.0298ZM16.0043 23.0025L18.0344 22.3482L18.222 22.9301L16.9503 23.3402L17.09 23.7735L18.2707 23.3929L18.4499 23.9487L17.2691 24.3293L17.4423 24.8668L18.7511 24.4447L18.9501 25.0622L16.8827 25.7285L16.0043 23.0028V23.0025ZM18.4414 22.1583L19.0453 21.722L20.7619 22.4377L19.8327 21.1527L20.4411 20.7125L22.1205 23.0357L21.5121 23.4755L19.8072 22.766L20.7292 24.0416L20.1208 24.4815L18.4414 22.1583ZM21.6161 19.2937L22.6078 17.4049L23.1493 17.6893L22.5279 18.8721L22.9308 19.0839L23.5074 17.9853L24.0249 18.2569L23.4481 19.3553L23.9478 19.6175L24.5872 18.4L25.1614 18.7016L24.1517 20.6246L21.6161 19.2937ZM22.7142 17.227L22.8626 16.4054L24.9956 16.1999L23.067 15.2722L23.2105 14.4755L25.8612 15.9269L25.7082 16.7754L22.7142 17.2271V17.227Z" fill="white"></path>
    <path fill-rule="evenodd" clip-rule="evenodd" d="M6.76799 18.9436L7.11739 19.4609L6.293 19.6283L6.76799 18.9436Z" fill="white"></path>
    <path fill-rule="evenodd" clip-rule="evenodd" d="M14.2858 21.8676C18.4727 21.8676 21.8674 18.473 21.8674 14.2858C21.8674 10.0986 18.4728 6.70416 14.2858 6.70416C10.0987 6.70416 6.70401 10.0986 6.70401 14.2858C6.70401 18.473 10.0986 21.8676 14.2858 21.8676Z" fill="#346BA5"></path>
    <path fill-rule="evenodd" clip-rule="evenodd" d="M14.6213 7.586V10.6975L16.1675 13.2911V10.2467L14.6213 7.586ZM12.721 8.25678V11.3683L14.2672 13.9619V10.9175L12.721 8.25678ZM10.8204 8.92755V12.0391L12.3669 14.6326V11.5883L10.8204 8.92755ZM8.91992 9.59833V12.7098L10.4664 15.3032V12.2588L8.91992 9.59833ZM7.01962 12.2924V13.3805L8.56588 15.9742V12.9296L7.55181 11.0387L7.01962 12.2925V12.2924ZM16.5218 6.91534V10.0269L18.0681 12.6204V9.57594L16.5218 6.91546V6.91534ZM18.422 8.05184L19.9686 9.52745V12.0166L18.422 9.35608V8.05184ZM14.0214 20.8033V17.7588L12.4749 15.0985V18.21L14.0214 20.8033ZM15.9216 20.1328V17.0883L14.3753 14.4276V17.5389L15.9216 20.1327V20.1328ZM17.8221 19.4619V16.4174L16.2758 13.757V16.8683L17.8221 19.4619ZM19.7226 18.7911V15.7467L18.1763 13.086V16.1977L19.7226 18.791V18.7911ZM21.6231 16.0968V14.7851L20.0769 12.4155V15.5268L21.0908 17.1272L21.6231 16.0968ZM12.121 21.4068V18.4298L10.5747 15.769V18.9478L12.121 21.4068ZM10.2207 20.494L8.67417 19.1524V16.4396L10.2207 19.1674V20.494Z" fill="white"></path>
    <path d="M14.2858 21.5323C16.2868 21.5323 18.0985 20.7211 19.4097 19.4099C20.721 18.0986 21.5321 16.2869 21.5321 14.2859C21.5321 12.2849 20.721 10.4732 19.4097 9.16197C18.0985 7.85072 16.2868 7.03966 14.2858 7.03966C12.2847 7.03966 10.4731 7.85072 9.16182 9.16197C7.85056 10.4732 7.03951 12.2849 7.03951 14.2859C7.03951 16.2869 7.85056 18.0987 9.16182 19.4099C10.4731 20.721 12.2847 21.5323 14.2858 21.5323ZM14.2858 22.2028C12.0997 22.2028 10.1203 21.3166 8.6875 19.8841C7.25485 18.4515 6.36862 16.472 6.36862 14.2858C6.36862 12.0996 7.25485 10.1203 8.6875 8.68766C10.1202 7.255 12.0997 6.36877 14.2858 6.36877C16.4718 6.36877 18.4514 7.255 19.8839 8.68766C21.3164 10.1203 22.2027 12.0997 22.2027 14.2858C22.2027 16.4719 21.3164 18.4514 19.8839 19.8841C18.4514 21.3167 16.4718 22.2028 14.2858 22.2028Z" fill="white"></path>
  </g>
  <defs>
    <clipPath id="clip0_404_607">
      <rect width="27.4286" height="27.4288" fill="white" transform="translate(0.571411 0.571472)"></rect>
    </clipPath>
  </defs>
</svg>
