<?xml version="1.0" encoding="UTF-8"?>
<svg xmlns="http://www.w3.org/2000/svg" width="24" height="24" viewBox="0 0 24 24" fill="none">
  <g clip-path="url(#clip0_404_562)">
    <path d="M12 16.388C14.8065 16.388 17.0816 14.2212 17.0816 11.5484C17.0816 8.87551 14.8065 6.70874 12 6.70874C9.19351 6.70874 6.9184 8.87551 6.9184 11.5484C6.9184 14.2212 9.19351 16.388 12 16.388Z" fill="white"></path>
    <path fill-rule="evenodd" clip-rule="evenodd" d="M4.97907 17.5504L4.89026 15.9328L5.23525 15.9155L5.30898 17.258L6.16685 17.2153L6.18194 17.4903L4.97907 17.5505V17.5504Z" fill="black"></path>
    <path fill-rule="evenodd" clip-rule="evenodd" d="M6.90314 17.2017L7.22106 17.2914C7.16458 17.4001 7.08784 17.4789 6.98997 17.5275C6.89254 17.5766 6.77613 17.5928 6.64084 17.577C6.42691 17.5519 6.27731 17.467 6.1916 17.3214C6.12426 17.2051 6.10089 17.0651 6.12184 16.9024C6.14694 16.7077 6.21988 16.5614 6.34077 16.4639C6.46132 16.3661 6.60325 16.3268 6.76622 16.3459C6.94928 16.3674 7.0862 16.442 7.17735 16.5701C7.26806 16.698 7.29599 16.8804 7.26099 17.118L6.44528 17.0226C6.4358 17.1148 6.45252 17.1897 6.49624 17.2465C6.53996 17.3036 6.59945 17.3368 6.67413 17.3455C6.72509 17.3516 6.76949 17.3434 6.80778 17.3211C6.84606 17.298 6.87814 17.2584 6.90306 17.2016L6.90314 17.2017ZM6.96212 16.8898C6.97144 16.7993 6.95609 16.7281 6.91582 16.676C6.87555 16.6238 6.82201 16.5936 6.75552 16.5859C6.68835 16.5765 6.62032 16.5963 6.56996 16.6396C6.51737 16.6833 6.48589 16.7478 6.47572 16.8328L6.96212 16.8899V16.8898ZM7.81068 17.7496L7.62581 16.4865L7.95977 16.566L8.03323 17.2058L8.04789 17.417C8.07833 17.3712 8.09807 17.3411 8.10652 17.3263C8.12575 17.2964 8.14559 17.2665 8.16576 17.2373L8.54766 16.706L8.87515 16.7838L8.09713 17.8177L7.81068 17.7498V17.7496ZM9.55108 17.8241L9.85046 17.9604C9.77674 18.0592 9.6881 18.1256 9.5835 18.159C9.47917 18.1928 9.36155 18.1915 9.23058 18.1557C9.02346 18.099 8.88964 17.9929 8.82885 17.8362C8.78142 17.7111 8.78134 17.5695 8.82859 17.412C8.88515 17.2235 8.98121 17.09 9.11676 17.0115C9.25187 16.9329 9.39846 16.9155 9.55617 16.9585C9.73354 17.0069 9.85658 17.1012 9.92556 17.2411C9.99411 17.3809 9.99179 17.5654 9.91841 17.7949L9.12831 17.5786C9.10382 17.6685 9.10822 17.7449 9.14211 17.8074C9.17591 17.8704 9.2292 17.912 9.30154 17.9318C9.35086 17.9453 9.39613 17.9439 9.43752 17.9274C9.479 17.9108 9.51702 17.8765 9.551 17.8241H9.55108ZM9.66042 17.525C9.68439 17.437 9.68085 17.3643 9.64964 17.3069C9.62101 17.2514 9.56876 17.2103 9.50616 17.1939C9.4414 17.1745 9.37095 17.1839 9.31413 17.2193C9.25506 17.2545 9.21324 17.3136 9.18936 17.3959L9.66042 17.525ZM10.5249 18.4376L10.203 18.3778L10.4396 17.2168L10.7384 17.2722L10.7049 17.4372C10.772 17.3687 10.8285 17.3259 10.8743 17.3087C10.9211 17.2916 10.9721 17.2876 11.0212 17.2972C11.0946 17.3109 11.1611 17.3435 11.2212 17.3948L11.0669 17.644C11.0198 17.6008 10.9727 17.5746 10.9261 17.5661C10.8807 17.5576 10.8405 17.5622 10.8044 17.5802C10.7679 17.5979 10.735 17.6361 10.7043 17.6949C10.6738 17.7536 10.6383 17.8817 10.598 18.079L10.5249 18.4376ZM11.3149 18.5614L11.3449 16.9284L11.6732 16.9339L11.6573 17.8004L12.0486 17.3904L12.4526 17.3973L12.0211 17.822L12.4611 18.5805L12.1077 18.5745L11.8056 18.0382L11.6504 18.1882L11.6433 18.5668L11.315 18.5614H11.3149ZM13.7122 18.3696L13.6769 18.1956C13.645 18.2659 13.595 18.3275 13.5318 18.3748C13.4667 18.4237 13.3943 18.4558 13.3141 18.4707C13.2323 18.4859 13.1557 18.4821 13.0839 18.4602C13.0149 18.4399 12.9549 18.3984 12.9133 18.3421C12.8716 18.2854 12.8398 18.2024 12.8174 18.0929L12.6678 17.3584L12.9895 17.2986L13.0984 17.832C13.1316 17.9955 13.1579 18.0943 13.1777 18.129C13.1967 18.1635 13.2243 18.1886 13.2598 18.2046C13.2956 18.2204 13.3375 18.2233 13.3858 18.2144C13.4387 18.2053 13.4873 18.1808 13.5248 18.1441C13.5623 18.107 13.5848 18.0661 13.5923 18.0206C13.5994 17.9746 13.5863 17.8687 13.5526 17.7025L13.4528 17.2127L13.7747 17.1529L14.0112 18.3141L13.7123 18.3695L13.7122 18.3696ZM14.2284 17.9005L14.5308 17.768C14.5618 17.8228 14.6025 17.8599 14.6529 17.8789C14.703 17.898 14.765 17.8976 14.8393 17.8774C14.9209 17.8549 14.9779 17.824 15.0103 17.784C15.0317 17.7582 15.0382 17.7239 15.0279 17.6926C15.0223 17.6713 15.008 17.653 14.9883 17.6417C14.9682 17.6317 14.9291 17.6282 14.8709 17.6311C14.6008 17.6471 14.4247 17.6422 14.3432 17.6167C14.2305 17.5811 14.1578 17.5084 14.1251 17.3991C14.0953 17.3008 14.1111 17.2068 14.1725 17.1176C14.2339 17.0279 14.3503 16.9597 14.5213 16.9128C14.6847 16.8681 14.8138 16.8606 14.9081 16.8893C15.0027 16.9183 15.0795 16.9785 15.1392 17.0696L14.8578 17.2031C14.8319 17.1623 14.7975 17.135 14.7547 17.1213C14.7118 17.1074 14.6579 17.1095 14.5922 17.1277C14.5089 17.1503 14.4528 17.1776 14.4235 17.2097C14.4045 17.2319 14.3987 17.2557 14.4062 17.2806C14.4129 17.3021 14.4285 17.3173 14.4541 17.3265C14.4884 17.3387 14.595 17.3402 14.7741 17.3307C14.9528 17.3211 15.0834 17.3335 15.166 17.3684C15.2478 17.4039 15.3032 17.4696 15.332 17.5649C15.3632 17.6692 15.3447 17.7715 15.2756 17.8716C15.207 17.9715 15.0833 18.0455 14.9046 18.0944C14.7423 18.1389 14.6044 18.1427 14.4907 18.1055C14.3774 18.0693 14.29 18.0004 14.2284 17.9005H14.2284ZM16.3413 17.3065L16.6723 17.2871C16.6581 17.4076 16.6142 17.5066 16.5397 17.5844C16.4659 17.6623 16.362 17.7156 16.2293 17.7448C16.0195 17.7912 15.8484 17.7602 15.7156 17.6512C15.6107 17.5638 15.5387 17.44 15.4999 17.2806C15.4536 17.0894 15.4698 16.9281 15.5485 16.7969C15.6267 16.6656 15.7462 16.5824 15.906 16.547C16.0857 16.5075 16.2411 16.533 16.3726 16.6234C16.5036 16.7139 16.5954 16.8763 16.6475 17.111L15.8468 17.2875C15.8711 17.3775 15.9138 17.4421 15.975 17.4812C16.034 17.5202 16.1079 17.533 16.1776 17.5161C16.2276 17.505 16.2665 17.4828 16.2944 17.4495C16.3223 17.4157 16.3381 17.3681 16.3413 17.3064L16.3413 17.3065ZM16.285 16.9944C16.2612 16.9064 16.2212 16.8446 16.1648 16.8086C16.1116 16.7733 16.0448 16.7616 15.9818 16.7763C15.9153 16.7895 15.8584 16.8302 15.8267 16.8875C15.793 16.9455 15.7865 17.0165 15.8074 17.0997L16.285 16.9945V16.9944Z" fill="black"></path>
    <path fill-rule="evenodd" clip-rule="evenodd" d="M12.0047 6.5986C10.6348 6.5986 9.50831 7.21377 9.50831 7.20153C9.50831 7.18929 8.60216 4.95783 8.54792 4.80287C8.54792 4.80287 10.1927 4.0522 12.0122 4.038L11.9989 4.03668C13.8184 4.05081 15.4618 4.80279 15.4618 4.80279C15.4075 4.95775 14.5012 7.18921 14.5012 7.20145C14.5012 7.21368 13.3745 6.59852 12.0048 6.59852L12.0047 6.5986ZM12.0029 16.6215C10.9758 16.5883 10.4077 16.3876 9.48572 16.0615C8.2087 15.6151 5.42401 15.1191 3.96437 15.5479C3.8164 15.5914 3.80502 15.6892 3.85624 15.8304C3.92548 16.021 4.39697 17.6121 4.4994 17.9382C4.55062 18.1118 4.59356 18.2417 4.84664 18.1878C7.29979 17.6664 8.35865 19.1494 12.0028 19.1494C15.6469 19.1494 16.7056 17.6664 19.1592 18.1878C19.4122 18.2417 19.4552 18.1118 19.5064 17.9382C19.6088 17.6121 20.0804 16.021 20.1496 15.8304C20.2008 15.6892 20.1893 15.5915 20.0413 15.5479C18.5817 15.1193 15.7973 15.6151 14.5202 16.0615C13.598 16.3876 13.0298 16.5883 12.0029 16.6215Z" fill="#FFF22D"></path>
    <path d="M12.0027 19.1862C10.2394 19.1862 9.09035 18.8434 8.0765 18.5409C7.02402 18.227 6.11501 17.9558 4.8549 18.2236C4.81273 18.2326 4.77557 18.2368 4.74272 18.2368C4.54715 18.2368 4.50395 18.0903 4.46205 17.948C4.42368 17.8258 4.33443 17.5291 4.23105 17.1857C4.06679 16.6398 3.86243 15.9604 3.81957 15.8425C3.78336 15.7425 3.78034 15.6699 3.81017 15.6138C3.83535 15.5666 3.882 15.5336 3.95279 15.5127C4.78583 15.268 5.95998 15.3382 6.79828 15.44C7.76419 15.5574 8.79908 15.7823 9.4989 16.0269C10.424 16.354 10.9825 16.5515 12.0027 16.5847C13.0232 16.5514 13.5816 16.354 14.5066 16.027C15.2066 15.7823 16.2414 15.5574 17.2073 15.4401C18.0455 15.3382 19.2196 15.2681 20.0525 15.5127C20.1234 15.5335 20.1701 15.5666 20.1952 15.6138C20.2251 15.6698 20.2221 15.7424 20.186 15.8424C20.1432 15.9605 19.9386 16.6401 19.7743 17.1862C19.671 17.5295 19.5818 17.8258 19.5433 17.9486C19.5015 18.0903 19.4583 18.2367 19.2629 18.2368C19.23 18.2368 19.1928 18.2327 19.1507 18.2236C17.8904 17.9558 16.9814 18.227 15.9288 18.5409C14.915 18.8434 13.7659 19.1862 12.0026 19.1862H12.0027ZM5.86487 18.0398C6.08966 18.0398 6.31506 18.0562 6.54615 18.0889C7.06635 18.1625 7.56828 18.3122 8.09961 18.4707C9.10812 18.7716 10.2513 19.1126 12.0027 19.1126C13.754 19.1126 14.8972 18.7716 15.9058 18.4707C16.4371 18.3122 16.9391 18.1625 17.4593 18.0889C18.0377 18.0071 18.5805 18.027 19.1676 18.1518C19.3798 18.1969 19.4151 18.111 19.4691 17.9281C19.5077 17.8051 19.5969 17.5089 19.7001 17.1659C19.8733 16.5904 20.0695 15.9382 20.1131 15.8183C20.142 15.7386 20.1463 15.6841 20.1265 15.6471C20.1113 15.6186 20.0797 15.5977 20.0299 15.583C18.6204 15.1691 15.8853 15.6235 14.5335 16.096C13.601 16.4257 13.0381 16.6247 12.0042 16.6583C12.0034 16.6583 12.0025 16.6583 12.0016 16.6583C10.9681 16.6249 10.4051 16.4258 9.47234 16.096C8.7777 15.8532 7.74927 15.6298 6.7887 15.5131C5.958 15.4121 4.79566 15.3423 3.97582 15.5831C3.92606 15.5977 3.8945 15.6187 3.87933 15.6472C3.85958 15.6842 3.86389 15.7387 3.89278 15.8184C3.93632 15.9382 4.13249 16.5903 4.30555 17.1654C4.40885 17.5087 4.49801 17.8051 4.53646 17.9276C4.59061 18.1111 4.62588 18.1971 4.83826 18.1519C5.19066 18.077 5.52729 18.0398 5.86504 18.0398L5.86487 18.0398ZM9.50786 7.23868C9.50148 7.23868 9.49484 7.23712 9.48786 7.23301C9.47932 7.22792 9.4732 7.21987 9.47079 7.21067C9.46035 7.18004 9.28557 6.74677 9.1007 6.28813C8.83883 5.63872 8.54204 4.90267 8.51117 4.81456C8.50505 4.79698 8.51358 4.77776 8.53109 4.76972C8.53523 4.76783 8.95213 4.5787 9.58607 4.39065C10.1663 4.21852 11.052 4.01215 11.9877 4.00148C11.9914 4.00049 11.995 4 11.999 4C12.9437 4.00739 13.8392 4.21614 14.424 4.39007C15.0577 4.57846 15.4742 4.76791 15.4784 4.7698C15.496 4.77785 15.5045 4.79706 15.4983 4.81464C15.4674 4.90251 15.1717 5.63601 14.9107 6.28312C14.7248 6.74414 14.549 7.17979 14.5384 7.21075C14.536 7.21987 14.5299 7.228 14.5213 7.23309C14.5026 7.24418 14.486 7.2367 14.4713 7.23013C14.4631 7.22644 14.4512 7.22086 14.4356 7.21363C13.6266 6.83546 12.7859 6.6355 12.0046 6.6355C11.2232 6.6355 10.3825 6.83538 9.57348 7.21363C9.55805 7.22086 9.54606 7.22644 9.53778 7.23013C9.52856 7.23424 9.51856 7.23876 9.50778 7.23876L9.50786 7.23868ZM12.0046 6.562C12.7978 6.562 13.6501 6.76451 14.4697 7.1476C14.4728 7.14908 14.4759 7.15056 14.4789 7.15196C14.5094 7.07328 14.5953 6.85985 14.8385 6.25676C15.0675 5.68889 15.3483 4.99267 15.4134 4.82227C15.3058 4.77538 14.9295 4.61738 14.3995 4.45996C13.8247 4.28915 12.9474 4.08434 12.0212 4.07391C12.0184 4.07457 12.0153 4.07498 12.0123 4.07498C11.0777 4.08228 10.1903 4.28874 9.61047 4.46061C9.08027 4.61779 8.70363 4.77555 8.59593 4.82227C8.66112 4.993 8.94291 5.69185 9.17279 6.26185C9.41439 6.86092 9.49993 7.07345 9.53028 7.15187C9.5333 7.15048 9.5364 7.149 9.53951 7.14752C10.359 6.76443 11.2114 6.56192 12.0047 6.56192L12.0046 6.562Z" fill="black"></path>
    <path fill-rule="evenodd" clip-rule="evenodd" d="M4.24891 9.01829C4.24891 9.0674 4.21571 9.32952 4.1231 9.45739C4.03032 9.58533 3.63325 10.2988 3.49459 10.4841C3.18254 10.901 3.01155 11.2118 3.08778 11.5823C3.08778 11.5823 2.31355 11.6836 2.02314 10.9258C1.78653 10.3086 2.28906 9.61235 2.54101 9.25595C3.05725 8.52581 2.78115 7.56607 2.76762 7.55752C2.76762 7.55752 2.99051 7.47499 3.01164 7.15234C3.0225 6.98777 2.96396 6.80489 2.79185 6.63383C2.62267 6.46589 2.37675 6.42738 2.1298 6.4383C1.92372 6.44734 1.76635 6.55762 1.6421 6.62619C1.51793 6.69468 1.52259 6.76071 1.56803 6.7837C1.61356 6.80661 1.70763 6.9376 1.77299 7.01717C1.83844 7.09707 1.84292 7.15891 1.87689 7.30279C1.92096 7.48936 2.18722 7.58947 2.38943 7.57953C2.38943 7.57953 2.70277 8.38078 2.17636 9.14204C1.97416 9.43423 1.39885 10.122 1.61011 10.9299C1.93208 12.1615 3.27377 12.0005 3.27377 12.0005C3.38078 12.1054 3.48537 12.2124 3.58755 12.3215C3.57737 12.3905 3.83148 12.8785 3.19772 13.3312C2.99094 13.4789 2.93498 13.6751 3.17487 13.8419C4.81412 14.9827 4.39532 15.3432 4.67754 15.3703C4.75169 15.3774 4.91277 15.3523 5.07211 15.258C5.31122 15.4282 5.64724 15.3894 5.75511 15.2834C6.26739 15.5189 6.41173 15.1603 6.33119 15.011C6.33119 15.011 6.8746 14.8269 6.41018 14.3303C6.26627 14.1765 5.98344 14.1298 5.83936 14.1579C5.67561 14.1895 4.75144 13.5461 4.87077 13.3754C4.9601 13.2475 5.46608 13.0494 5.63509 12.9286C5.7809 12.8243 6.12192 12.5266 6.12641 12.2286C6.13158 11.9006 6.00966 11.4808 5.2888 11.4431C5.32674 11.1899 5.36744 10.6992 5.95688 10.293C6.28299 10.0683 6.56858 9.59658 6.57892 9.51791C6.95091 9.51791 7.57984 8.29678 7.71306 8.07431C7.75971 7.99654 8.04754 7.48123 8.04754 7.48123C8.25534 7.48263 8.56749 7.33054 8.56749 7.33054C8.56749 7.33054 9.06312 7.64244 9.12149 7.17106C9.50141 7.31092 9.41035 6.81121 9.22772 6.70027C9.22772 6.70027 9.25799 6.38172 9.03802 6.29467C8.83944 6.21625 8.7533 6.26568 8.56792 6.32473C8.38236 6.38377 8.01934 6.60156 7.85456 6.71957C7.96071 6.30067 8.26647 5.92028 8.26647 5.92028C8.26647 5.92028 8.4309 6.04839 8.59749 5.93129C8.64793 5.89581 8.75796 5.83192 8.86359 5.80942C8.91334 5.79891 9.17469 5.51239 9.04044 5.42033C8.85885 5.29551 8.75011 5.27613 8.75011 5.27613C8.73744 5.16675 8.66716 5.04915 8.70424 4.95471C8.7414 4.86044 8.93197 4.73742 8.93033 4.63419C8.92731 4.42503 8.63595 4.44047 8.46125 4.54912C8.24862 4.31737 8.04366 4.52735 8.04366 4.52735C7.70211 4.4477 7.53389 4.84541 7.50552 4.97393C7.32815 4.92235 7.07809 4.85534 6.97669 4.85534C6.812 4.85534 6.71913 4.7963 6.71913 4.7963L6.48226 4.63896L6.08045 4.59962C6.08045 4.59962 6.09752 4.4766 6.05984 4.4128C6.00672 4.3232 5.91558 4.34398 5.81254 4.29479C5.70967 4.24568 5.59628 4.17678 5.6375 4.09819C5.67854 4.0196 5.55119 4.04719 5.43789 4.07668C5.3245 4.10607 5.29742 4.12767 5.25629 4.17678C5.21499 4.22589 5.30449 4.37683 5.30449 4.37683C5.30449 4.37683 5.15317 4.3733 5.10177 4.3733C5.05038 4.3733 4.93682 4.41271 4.86482 4.42249C4.79257 4.43242 4.67538 4.38882 4.67538 4.34932C4.67538 4.30982 4.68099 4.23837 4.68478 4.23123C4.71031 4.18417 4.54535 4.23566 4.43214 4.32419C4.31866 4.41271 4.28779 4.55043 4.32901 4.59954C4.37031 4.64873 4.43214 4.74703 4.43214 4.74703C4.43214 4.74703 4.41136 4.77651 4.34962 4.83555C4.28779 4.8946 4.28779 4.97319 4.28779 4.97319C4.28779 4.97319 4.13198 4.96818 4.09387 4.91357C4.07102 4.8808 4.09637 4.81814 4.06533 4.75893C4.04636 4.72247 3.85563 4.8863 3.80803 4.99552C3.77992 5.05966 3.81406 5.16995 3.84493 5.23877C3.87589 5.30758 3.99945 5.33706 3.99945 5.33706C3.99945 5.33706 3.96858 5.40588 3.94797 5.51395C3.92737 5.62202 3.91702 5.70078 3.93754 5.77945C3.95824 5.85804 3.90322 5.89614 3.79328 5.89737C3.70844 5.89844 3.60652 5.76442 3.57901 5.75966C3.54297 5.75325 3.46459 5.9092 3.46459 5.97802C3.46459 6.04683 3.50822 6.1811 3.59738 6.24154C3.65377 6.27964 3.78742 6.23325 3.81743 6.2601C3.84536 6.28523 3.82562 6.43715 3.79949 6.54637C3.78138 6.62233 3.82424 6.7332 3.77268 6.78239C3.72111 6.8315 3.67998 6.86106 3.60781 6.84143C3.53555 6.82172 3.4883 6.76186 3.45519 6.76046C3.43139 6.75948 3.37724 6.89029 3.39785 6.97882C3.41854 7.06735 3.44708 7.14093 3.57073 7.17041C3.69421 7.19989 3.77664 7.1484 3.80294 7.1856C3.82131 7.21155 3.83804 7.4102 3.91693 7.51991C3.97695 7.60335 3.92849 7.66872 3.84588 7.68851C3.76354 7.70813 3.66101 7.65508 3.61807 7.65755C3.59634 7.65886 3.59298 7.87821 3.64454 7.93725C3.69611 7.9963 3.74707 8.08934 3.87796 8.08934C4.00885 8.08934 4.08257 7.97913 4.09706 8.08942C4.10206 8.12752 4.13103 8.44599 4.08085 8.58896C4.05058 8.67584 3.94599 8.72659 3.82665 8.70861C3.71887 8.69251 4.02023 9.03783 4.24908 9.01804L4.24891 9.01829Z" fill="#CF4037"></path>
    <path d="M5.4535 15.4112C5.3139 15.4112 5.17921 15.3728 5.0704 15.3021C4.91924 15.3856 4.76076 15.4153 4.67384 15.4071C4.55864 15.3961 4.53294 15.3327 4.49406 15.2369C4.41499 15.0419 4.25047 14.6362 3.1522 13.8718C3.03795 13.7924 2.97966 13.7024 2.97897 13.6043C2.97828 13.4985 3.04588 13.3939 3.17462 13.302C3.68775 12.9355 3.59859 12.5549 3.56048 12.3925C3.55479 12.3682 3.55065 12.3503 3.54918 12.336C3.45502 12.2356 3.3575 12.1359 3.2592 12.0392C3.181 12.046 2.88343 12.0629 2.55111 11.9623C2.32726 11.8946 2.13481 11.7872 1.97908 11.6434C1.78464 11.4637 1.64797 11.2267 1.57269 10.9389C1.48785 10.6146 1.51872 10.2705 1.66435 9.91612C1.78585 9.62065 1.96304 9.37454 2.08023 9.21161C2.10359 9.17909 2.12567 9.14846 2.14403 9.12193C2.40961 8.73786 2.45255 8.34318 2.44169 8.07966C2.43238 7.8512 2.38219 7.67891 2.36176 7.61724C2.36115 7.61724 2.36046 7.61724 2.35986 7.61724C2.13843 7.61724 1.88484 7.50498 1.83905 7.31109C1.83344 7.28728 1.82862 7.26576 1.82422 7.24597C1.80249 7.14882 1.79162 7.10012 1.74239 7.04001C1.72618 7.0203 1.70859 6.99788 1.68988 6.97415C1.64469 6.91667 1.57649 6.82986 1.54976 6.81648C1.51906 6.80096 1.50044 6.77287 1.49983 6.74126C1.49914 6.70562 1.51984 6.65125 1.62253 6.59459C1.64056 6.58465 1.65935 6.57373 1.67927 6.56223C1.79654 6.4944 1.94244 6.4099 2.12791 6.40177C2.43936 6.38814 2.66562 6.45572 2.81962 6.60863C3.02631 6.81401 3.05899 7.01907 3.0501 7.1549C3.03251 7.42319 2.88351 7.53725 2.81514 7.57577C2.82221 7.59843 2.83083 7.63243 2.84169 7.68392C2.88774 7.90335 3.00432 8.66674 2.57301 9.27673L2.5618 9.29258C2.30709 9.65268 1.83293 10.3229 2.05936 10.9134C2.17551 11.2164 2.38297 11.4149 2.67597 11.5034C2.8348 11.5513 2.97595 11.5523 3.04234 11.5491C3.01492 11.379 3.03657 11.2154 3.10951 11.0374C3.17444 10.8791 3.28016 10.7073 3.46304 10.463C3.54022 10.3599 3.70043 10.0875 3.84184 9.84722C3.95341 9.65753 4.04982 9.49378 4.09121 9.4367C4.16355 9.33668 4.19813 9.14164 4.20744 9.05525C4.03395 9.04179 3.84529 8.87582 3.7857 8.77941C3.77734 8.76586 3.75182 8.72455 3.77424 8.69318C3.77993 8.6853 3.79691 8.66748 3.83235 8.67273C3.9322 8.68776 4.01921 8.64876 4.04387 8.57789C4.09026 8.44592 4.06396 8.13665 4.05844 8.09452C4.05749 8.08746 4.05646 8.08253 4.05551 8.07917C4.04706 8.08171 4.03447 8.08697 4.02464 8.09107C3.9886 8.1061 3.93927 8.12663 3.87771 8.12663C3.74776 8.12663 3.68404 8.04714 3.63748 7.98908C3.62946 7.97914 3.62196 7.9697 3.61463 7.96132C3.5566 7.89489 3.55608 7.69501 3.57669 7.64951C3.58755 7.62553 3.60739 7.62184 3.61549 7.62143C3.63808 7.62011 3.66369 7.62726 3.6962 7.63629C3.73992 7.64836 3.79441 7.66347 3.83623 7.65345C3.86917 7.64557 3.89366 7.62882 3.90159 7.6087C3.9109 7.58529 3.89754 7.55918 3.88469 7.54136C3.82701 7.46113 3.80131 7.34287 3.78432 7.26461C3.77993 7.24433 3.77458 7.21977 3.77105 7.20902C3.76251 7.20819 3.74406 7.21033 3.73009 7.21197C3.68827 7.21682 3.63101 7.22347 3.56108 7.20672C3.41458 7.17173 3.3813 7.07918 3.35992 6.98737C3.33983 6.9009 3.37854 6.78445 3.41295 6.74528C3.42898 6.72705 3.44537 6.72376 3.45666 6.72426C3.48365 6.72541 3.50659 6.74167 3.53323 6.76047C3.55789 6.77788 3.58574 6.79767 3.61834 6.80654C3.66766 6.82001 3.69448 6.80523 3.74518 6.75686C3.76415 6.73879 3.76113 6.69322 3.75828 6.6492C3.75587 6.61208 3.75337 6.57381 3.76173 6.53875C3.79045 6.41836 3.79683 6.31776 3.78958 6.28894C3.77699 6.28754 3.75095 6.28967 3.73285 6.29123C3.6787 6.29567 3.6173 6.30076 3.57488 6.2721C3.47322 6.2032 3.42588 6.05629 3.42588 5.9786C3.42588 5.91011 3.4865 5.77806 3.53573 5.73905C3.55608 5.72296 3.57428 5.72206 3.586 5.72411C3.60661 5.72772 3.62403 5.74365 3.6555 5.77264C3.69154 5.80582 3.75182 5.86125 3.79217 5.86125C3.79234 5.86125 3.79252 5.86125 3.79269 5.86125C3.86374 5.86051 3.88788 5.84368 3.8959 5.83374C3.89883 5.83013 3.9078 5.81904 3.89995 5.78907C3.87659 5.69955 3.88995 5.61251 3.90978 5.50805C3.92203 5.44375 3.93772 5.39292 3.9491 5.36089C3.90383 5.34446 3.83494 5.31104 3.80924 5.25389C3.7907 5.2125 3.73328 5.07084 3.77217 4.98198C3.81407 4.8859 3.98058 4.71994 4.05309 4.71764C4.07336 4.71698 4.09103 4.72651 4.09974 4.74318C4.12035 4.78251 4.12078 4.82127 4.12121 4.8524C4.12138 4.86899 4.12164 4.88779 4.12587 4.89387C4.1401 4.91432 4.20097 4.92877 4.25383 4.93452C4.26099 4.90093 4.27866 4.85166 4.32203 4.81027C4.35282 4.78087 4.37299 4.75911 4.38498 4.74523C4.36472 4.71402 4.32635 4.65629 4.29858 4.6232C4.24296 4.55701 4.27909 4.39646 4.4074 4.29644C4.48371 4.23674 4.65435 4.14715 4.7085 4.18878C4.72178 4.19896 4.73247 4.21949 4.72092 4.24479C4.71833 4.25858 4.71411 4.31196 4.71376 4.34653C4.72764 4.36435 4.80559 4.39425 4.85905 4.38686C4.88897 4.38275 4.92847 4.37273 4.96667 4.36304C5.01875 4.34982 5.06798 4.33725 5.10152 4.33725C5.13136 4.33725 5.19327 4.3384 5.24104 4.33939C5.21414 4.28108 5.18818 4.19946 5.22595 4.15454C5.27441 4.09672 5.31036 4.07225 5.42755 4.04195C5.56172 4.00697 5.63613 3.99645 5.67019 4.03595C5.68243 4.05016 5.69269 4.07545 5.67191 4.11536C5.65182 4.15363 5.70494 4.20315 5.82962 4.26269C5.86291 4.27862 5.89559 4.28659 5.92714 4.29422C5.98811 4.30909 6.05114 4.32444 6.09322 4.39548C6.12314 4.44623 6.12452 4.52186 6.12193 4.56752L6.48589 4.60316C6.49245 4.60382 6.49866 4.60604 6.50409 4.60957L6.74035 4.7665C6.74552 4.76962 6.8308 4.8193 6.97635 4.8193C7.07405 4.8193 7.29548 4.87621 7.47785 4.92828C7.50958 4.82571 7.59658 4.63256 7.75653 4.53664C7.84095 4.48606 7.93347 4.46963 8.03159 4.48786C8.06453 4.46011 8.14386 4.40394 8.24587 4.40394C8.24725 4.40394 8.24854 4.40394 8.24992 4.40394C8.3277 4.40509 8.4009 4.43826 8.46782 4.50273C8.58474 4.4404 8.75417 4.40747 8.86584 4.46405C8.91188 4.48745 8.96715 4.5359 8.96853 4.63429C8.96965 4.7086 8.90119 4.78013 8.83505 4.84936C8.7947 4.89157 8.75297 4.93518 8.73995 4.96819C8.72046 5.01787 8.73917 5.08143 8.759 5.14869C8.76849 5.18096 8.77832 5.21414 8.78427 5.24756C8.82919 5.26103 8.9268 5.29782 9.06252 5.39111C9.0946 5.41304 9.12926 5.45607 9.11201 5.53613C9.08572 5.65817 8.93171 5.83317 8.87153 5.84598C8.7728 5.867 8.667 5.92851 8.62 5.96152C8.49066 6.05251 8.3527 6.0158 8.27501 5.97162C8.21095 6.05727 8.0209 6.32655 7.92071 6.62957C8.10014 6.51181 8.38926 6.34322 8.55525 6.2905C8.57818 6.28319 8.59966 6.27604 8.61992 6.26923C8.76745 6.21995 8.86498 6.18735 9.05243 6.26134C9.26326 6.34469 9.26998 6.60526 9.26705 6.68279C9.39424 6.77796 9.46485 7.01751 9.39768 7.14414C9.37207 7.19243 9.30706 7.26207 9.15228 7.22051C9.12952 7.33417 9.07675 7.40988 8.99509 7.44602C8.83842 7.51533 8.62915 7.40964 8.56491 7.37326C8.49463 7.40569 8.25458 7.51064 8.07057 7.51828C8.01728 7.61354 7.788 8.02349 7.74618 8.09321C7.72902 8.12179 7.70333 8.16769 7.67082 8.22567C7.31393 8.86194 6.91091 9.51193 6.60851 9.55323C6.55591 9.69522 6.27585 10.1191 5.97923 10.3235C5.43419 10.699 5.37081 11.142 5.33287 11.4068C5.3327 11.4078 5.33261 11.4087 5.33244 11.4097C5.64475 11.4331 5.87274 11.5325 6.01035 11.7055C6.11615 11.8384 6.16815 12.0148 6.16479 12.2299C6.15935 12.5896 5.70934 12.922 5.65812 12.9587C5.58845 13.0085 5.46721 13.0691 5.33882 13.1334C5.15714 13.2243 4.95114 13.3273 4.90277 13.3965C4.89096 13.4134 4.9045 13.4526 4.93899 13.5014C5.01659 13.6114 5.19793 13.7694 5.41237 13.9138C5.65596 14.0778 5.79884 14.1289 5.83161 14.1225C5.98586 14.0924 6.28283 14.1396 6.4389 14.3065C6.6004 14.4792 6.66335 14.6369 6.6261 14.7755C6.58687 14.9215 6.44761 15.001 6.38044 15.0315C6.40493 15.1126 6.38777 15.2257 6.30301 15.3086C6.23497 15.375 6.07502 15.464 5.76176 15.3277C5.69528 15.3785 5.58431 15.4102 5.46324 15.4117C5.45988 15.4117 5.45661 15.4117 5.45324 15.4117L5.4535 15.4112ZM5.07229 15.2213C5.08048 15.2213 5.08859 15.2237 5.0954 15.2286C5.3145 15.3845 5.62992 15.3538 5.72744 15.2578C5.739 15.2464 5.75702 15.2434 5.77202 15.2503C5.98354 15.3475 6.15254 15.3497 6.24791 15.2565C6.31767 15.1884 6.32767 15.0848 6.29688 15.0279C6.2918 15.0184 6.29119 15.0074 6.29533 14.9975C6.29947 14.9877 6.30784 14.9799 6.31827 14.9764C6.32008 14.9757 6.51081 14.9088 6.55151 14.7562C6.58169 14.6429 6.52444 14.5079 6.3813 14.3548C6.24627 14.2105 5.97974 14.1681 5.84713 14.194C5.74089 14.2146 5.47652 14.0465 5.36788 13.9732C5.19422 13.8563 4.97356 13.6815 4.87501 13.5418C4.81939 13.463 4.80715 13.4002 4.83862 13.3551C4.89794 13.2703 5.10385 13.1672 5.30304 13.0676C5.42858 13.0048 5.54714 12.9455 5.61181 12.8992C5.78668 12.7741 6.08373 12.4919 6.08761 12.2281C6.09494 11.7597 5.8254 11.508 5.28648 11.4799C5.2757 11.4794 5.26561 11.4745 5.25871 11.4666C5.25182 11.4586 5.2488 11.4482 5.25035 11.438C5.25233 11.4247 5.25432 11.4108 5.25639 11.3962C5.29338 11.1379 5.36219 10.6572 5.93404 10.2632C6.26136 10.0377 6.53246 9.57401 6.54039 9.51332C6.5428 9.49493 6.55927 9.48105 6.57876 9.48105C6.66473 9.48105 6.8277 9.3954 7.11561 8.9875C7.31151 8.70994 7.49388 8.38465 7.60287 8.19036C7.63573 8.13181 7.66168 8.08557 7.67927 8.05609C7.72514 7.97964 8.01038 7.46917 8.01323 7.464C8.01995 7.45201 8.03306 7.44446 8.04737 7.44446C8.04832 7.44446 8.04927 7.44446 8.05022 7.44446C8.24613 7.44446 8.54663 7.29927 8.54964 7.29779C8.56206 7.29171 8.57689 7.29253 8.58853 7.29984C8.59077 7.30124 8.81876 7.44248 8.96293 7.37859C9.02872 7.34944 9.06916 7.27816 9.08296 7.16681C9.08434 7.15547 9.09115 7.14545 9.10141 7.13962C9.11167 7.13371 9.12417 7.13273 9.1353 7.13683C9.23506 7.17354 9.30016 7.16459 9.32905 7.11039C9.38165 7.01135 9.31197 6.79529 9.20686 6.73148C9.19471 6.72409 9.18781 6.71087 9.18919 6.69716C9.18945 6.69428 9.21402 6.4044 9.0232 6.32885C8.86308 6.26561 8.78591 6.2914 8.64587 6.33821C8.62526 6.34511 8.60345 6.35241 8.58008 6.35981C8.4059 6.41524 8.04772 6.62744 7.87768 6.74914C7.86466 6.7585 7.84681 6.75899 7.83327 6.75045C7.81965 6.74191 7.8131 6.72615 7.81689 6.71104C7.92372 6.28943 8.22293 5.91381 8.23569 5.89804C8.24207 5.89016 8.25147 5.88498 8.26191 5.88383C8.27234 5.88268 8.28277 5.88556 8.29088 5.89188C8.29657 5.89623 8.4347 6.00003 8.57448 5.90174C8.63846 5.85673 8.74978 5.79638 8.85333 5.77396C8.88524 5.75909 9.0276 5.61029 9.03898 5.50674C9.04277 5.47183 9.02872 5.45779 9.01777 5.45024C8.84721 5.33305 8.74374 5.31252 8.74271 5.31227C8.72615 5.30915 8.71347 5.2961 8.71158 5.28016C8.70744 5.24436 8.69597 5.2056 8.68493 5.16807C8.6626 5.09235 8.63958 5.01409 8.66795 4.94183C8.68623 4.89551 8.73089 4.8487 8.77823 4.79927C8.83169 4.74334 8.89231 4.68003 8.89162 4.63478C8.89093 4.58395 8.87067 4.54921 8.82979 4.52851C8.74797 4.48704 8.59543 4.50963 8.4823 4.58C8.46618 4.59002 8.44471 4.58723 8.43203 4.57343C8.37443 4.51061 8.31304 4.47826 8.24958 4.47711C8.14912 4.47522 8.07247 4.55184 8.07178 4.55266C8.0622 4.56227 8.04798 4.56645 8.03435 4.56325C7.94951 4.54346 7.86992 4.55528 7.79792 4.59848C7.63797 4.69432 7.55847 4.91276 7.54321 4.98166C7.54096 4.99176 7.53441 5.00054 7.52501 5.0058C7.5157 5.01105 7.5044 5.01229 7.49406 5.00933C7.2346 4.93394 7.05076 4.89239 6.97644 4.89239C6.802 4.89239 6.70163 4.8299 6.69741 4.82719L6.46813 4.67493L6.07623 4.63658C6.0658 4.6356 6.05631 4.63059 6.04984 4.62279C6.04338 4.61499 6.04053 4.60505 6.04183 4.59511C6.04605 4.56424 6.05148 4.47448 6.02587 4.4312C6.00001 4.38751 5.96336 4.37864 5.90792 4.36509C5.87403 4.35688 5.83566 4.34752 5.79496 4.32806C5.72494 4.29463 5.53956 4.20611 5.6019 4.08367C5.58129 4.08309 5.53818 4.089 5.44781 4.11257C5.33942 4.14066 5.32097 4.15864 5.28622 4.2002C5.27303 4.21588 5.30416 4.30211 5.33787 4.35918C5.34468 4.37068 5.34451 4.38488 5.33735 4.39622C5.3302 4.40755 5.31718 4.4142 5.30329 4.41404C5.30183 4.41404 5.15188 4.41051 5.10144 4.41051C5.07807 4.41051 5.03151 4.42233 4.9865 4.43375C4.94614 4.44401 4.90432 4.45461 4.86992 4.45929C4.80602 4.46799 4.71316 4.44335 4.6672 4.40541C4.64176 4.38439 4.63642 4.36353 4.63642 4.34965C4.63642 4.34892 4.63711 4.29611 4.6415 4.25587C4.5983 4.26844 4.52105 4.30235 4.45638 4.35294C4.35075 4.43531 4.33661 4.55028 4.35894 4.5768C4.40136 4.62739 4.46241 4.72429 4.465 4.7284C4.47267 4.74063 4.47224 4.75599 4.46396 4.76781C4.46164 4.7711 4.4393 4.80198 4.3767 4.86176C4.32747 4.90873 4.32609 4.97295 4.32609 4.97361C4.326 4.98354 4.32169 4.99307 4.31419 4.99989C4.30669 5.0067 4.29668 5.01056 4.28616 5.01015C4.25685 5.00925 4.10811 5.00112 4.06137 4.93411C4.04447 4.9098 4.04413 4.88081 4.04378 4.85281C4.04352 4.83491 4.04335 4.81668 4.03912 4.7991C3.9892 4.82949 3.87736 4.93189 3.84339 5.00982C3.82304 5.05622 3.84718 5.15107 3.88012 5.22449C3.89909 5.26661 3.98127 5.29495 4.0086 5.3016C4.01955 5.30423 4.02878 5.31129 4.03378 5.32098C4.03878 5.33059 4.03912 5.34184 4.03473 5.35177C4.03447 5.35243 4.00524 5.41862 3.98575 5.52078C3.96445 5.63279 3.95686 5.70226 3.9748 5.77084C3.98885 5.82413 3.97282 5.85862 3.95695 5.87825C3.92746 5.91471 3.87245 5.9336 3.79346 5.93442C3.79295 5.93442 3.79243 5.93442 3.79191 5.93442C3.72043 5.93442 3.65179 5.87135 3.60161 5.8252C3.59385 5.81805 3.58436 5.80935 3.57678 5.80286C3.54953 5.83399 3.50288 5.93089 3.50288 5.97819C3.50288 6.04134 3.54436 6.16091 3.61937 6.21174C3.6386 6.22472 3.68904 6.22061 3.72595 6.21757C3.77501 6.21355 3.81726 6.21002 3.84348 6.23342C3.85986 6.24812 3.87538 6.27637 3.86684 6.37483C3.86227 6.42764 3.85106 6.49481 3.83684 6.55468C3.83089 6.5794 3.83313 6.61241 3.8352 6.64427C3.83916 6.70463 3.84322 6.76696 3.79967 6.80851C3.74647 6.85918 3.69094 6.90262 3.59687 6.87692C3.55082 6.86435 3.51538 6.83931 3.48693 6.81911C3.47994 6.81418 3.47141 6.8081 3.46434 6.80367C3.44718 6.8352 3.422 6.91404 3.43528 6.97103C3.45399 7.05126 3.47537 7.10998 3.57988 7.13486C3.63593 7.14825 3.68301 7.14283 3.72078 7.13847C3.76397 7.13346 3.80864 7.12829 3.83477 7.16533C3.84451 7.17921 3.84934 7.19982 3.86003 7.24925C3.87581 7.32177 3.89961 7.43132 3.9485 7.49939C3.99058 7.55778 3.98549 7.605 3.97394 7.63432C3.95678 7.6776 3.91341 7.71044 3.85512 7.72449C3.79286 7.73927 3.72733 7.7212 3.67464 7.70658C3.66464 7.70379 3.65352 7.70075 3.6436 7.69837C3.63757 7.75224 3.64421 7.87986 3.67404 7.91394C3.6824 7.92355 3.69042 7.93357 3.69896 7.94416C3.74173 7.99754 3.78605 8.05281 3.87771 8.05281C3.92306 8.05281 3.96057 8.0372 3.99368 8.02341C4.02947 8.00854 4.06335 7.99442 4.09526 8.01174C4.12449 8.02759 4.13208 8.06126 4.13518 8.08516C4.13561 8.08853 4.17416 8.43902 4.11725 8.60088C4.08362 8.69737 3.97894 8.75527 3.85615 8.74878C3.90832 8.82523 4.09733 8.99432 4.24538 8.98159C4.25616 8.9806 4.26694 8.98405 4.27495 8.99103C4.28297 8.99801 4.28754 9.00787 4.28754 9.01822C4.28754 9.07455 4.25288 9.34284 4.15493 9.47826C4.11552 9.53254 4.01541 9.70277 3.90935 9.88295C3.76699 10.1249 3.60566 10.3991 3.52608 10.5054C3.21049 10.9271 3.05321 11.2225 3.12564 11.5752C3.12771 11.5851 3.12529 11.5954 3.11917 11.6037C3.11296 11.6119 3.10356 11.6174 3.09296 11.6187C3.08468 11.6198 2.88808 11.6444 2.6526 11.5732C2.43462 11.5075 2.14214 11.3439 1.98676 10.9384C1.74679 10.3126 2.23526 9.62213 2.49774 9.25119L2.50894 9.23534C2.76564 8.87229 2.81686 8.45183 2.81462 8.16301C2.81212 7.83913 2.74572 7.60467 2.73434 7.57642C2.73012 7.56969 2.72813 7.56172 2.72908 7.55359C2.73063 7.53988 2.74003 7.52822 2.75348 7.52321C2.76142 7.52017 2.95379 7.44314 2.97293 7.15005C2.9844 6.97637 2.91205 6.80662 2.76383 6.6593C2.62621 6.52265 2.41936 6.46237 2.13144 6.47502C1.96572 6.48233 1.82913 6.56133 1.71937 6.62489C1.6991 6.63663 1.68005 6.64764 1.66125 6.65799C1.59865 6.69256 1.57683 6.72352 1.57709 6.73961C1.57709 6.74158 1.57726 6.74676 1.58597 6.75119C1.62503 6.77082 1.67703 6.83471 1.75179 6.9298C1.77015 6.95321 1.78757 6.9753 1.80327 6.99443C1.86345 7.06793 1.87716 7.12911 1.89975 7.23037C1.90415 7.24991 1.90889 7.27118 1.91441 7.29467C1.95235 7.45513 2.18956 7.55253 2.38728 7.54267C2.40392 7.54185 2.41961 7.55154 2.42548 7.56657C2.42875 7.57495 2.5061 7.77581 2.51877 8.07375C2.53042 8.34877 2.48609 8.76077 2.20853 9.16217C2.18973 9.18927 2.16749 9.22023 2.14386 9.253C1.90484 9.5851 1.45982 10.2032 1.64754 10.9209C1.7774 11.4175 2.08833 11.744 2.57172 11.8911C2.93525 12.0018 3.26558 11.9643 3.26886 11.9639C3.28085 11.9624 3.29292 11.9665 3.30137 11.9747C3.40829 12.0795 3.51426 12.1879 3.61627 12.2969C3.62386 12.3049 3.62731 12.3158 3.62567 12.3265C3.62541 12.3325 3.63084 12.3557 3.63567 12.3761C3.67344 12.5373 3.77389 12.9655 3.22075 13.3606C3.114 13.4369 3.05545 13.5232 3.05597 13.6036C3.05648 13.677 3.10408 13.7472 3.19747 13.8121C4.3141 14.5892 4.48414 15.0086 4.56588 15.2101C4.60503 15.3067 4.61564 15.3273 4.68125 15.3336C4.74687 15.3399 4.89958 15.3165 5.05151 15.2266C5.05781 15.2229 5.06488 15.2211 5.07186 15.2211L5.07229 15.2213ZM2.74615 7.58825C2.74615 7.58825 2.74615 7.58825 2.74624 7.58825C2.74624 7.58825 2.74624 7.58825 2.74615 7.58825ZM8.85515 5.77387C8.85515 5.77387 8.85489 5.77387 8.85471 5.77396C8.85489 5.77396 8.85497 5.77396 8.85515 5.77387ZM4.65013 4.21489C4.65013 4.21489 4.65013 4.21489 4.65013 4.21498C4.65013 4.21498 4.65013 4.21498 4.65013 4.21489Z" fill="black"></path>
    <path d="M9.10348 7.18917C9.08528 7.18917 9.06907 7.17685 9.06554 7.15928C9.05295 7.09646 8.9694 7.05474 8.90231 7.02123C8.86816 7.00415 8.83868 6.98945 8.81712 6.97237C8.80074 6.95932 8.79858 6.93616 8.8122 6.92055C8.82591 6.90495 8.85023 6.9029 8.86661 6.91587C8.88179 6.92795 8.90912 6.94158 8.93809 6.95611C9.01561 6.99487 9.12184 7.04792 9.14133 7.14556C9.1453 7.16552 9.13159 7.18482 9.11063 7.1886C9.10822 7.18901 9.10572 7.18925 9.10339 7.18925L9.10348 7.18917Z" fill="black"></path>
    <path fill-rule="evenodd" clip-rule="evenodd" d="M6.36862 5.07397C6.36862 5.07397 6.23342 4.93921 6.17556 4.93921C6.15556 4.93921 6.08494 5.04597 6.04122 5.1225C5.99742 5.19929 6.36854 5.07397 6.36854 5.07397H6.36862Z" fill="black"></path>
    <path d="M6.06958 5.18363C6.0282 5.18363 6.0175 5.17164 6.01086 5.16433C6.00552 5.15833 5.98939 5.13641 6.00733 5.10504C6.12296 4.90253 6.15986 4.90253 6.17556 4.90253C6.24264 4.90253 6.35241 5.00469 6.39647 5.04862C6.40552 5.05765 6.40915 5.07038 6.40613 5.08254C6.40311 5.09469 6.3938 5.10454 6.38147 5.10873C6.20772 5.16745 6.11779 5.18363 6.0695 5.18363H6.06958ZM6.18427 4.97808C6.16668 4.99647 6.13012 5.04813 6.09347 5.10906C6.13908 5.10282 6.21893 5.08237 6.29688 5.05831C6.25126 5.01807 6.20686 4.98621 6.18427 4.97808Z" fill="black"></path>
    <path d="M5.75528 15.3058C5.74881 15.3058 5.74226 15.3042 5.73614 15.301C5.7176 15.2909 5.71113 15.2684 5.72174 15.2508C5.74657 15.2093 5.66422 15.0089 5.49108 14.8544C5.47547 14.8405 5.4747 14.8172 5.48927 14.8024C5.50384 14.7876 5.52833 14.7868 5.54385 14.8007C5.70544 14.9449 5.84763 15.1889 5.78873 15.2872C5.78158 15.2992 5.76856 15.3058 5.75511 15.3058H5.75528ZM5.07236 15.295C5.06064 15.295 5.04899 15.2899 5.04141 15.2802C4.95208 15.1664 4.84153 14.9816 4.76083 14.8467C4.7272 14.7905 4.69822 14.742 4.67701 14.709C4.50611 14.4428 4.11283 14.1285 3.80181 13.9231C3.6216 13.8041 3.50881 13.7086 3.50329 13.6001C3.49769 13.4896 3.59659 13.3896 3.80647 13.2202C3.87519 13.1648 3.96513 12.993 3.94021 12.8C3.92313 12.6679 3.8451 12.4835 3.57047 12.3548C3.55132 12.3458 3.54348 12.3238 3.55288 12.3055C3.56227 12.2873 3.58547 12.2798 3.60461 12.2888C3.9102 12.4321 3.99746 12.641 4.01686 12.791C4.04299 12.9928 3.95573 13.1963 3.85639 13.2764C3.67437 13.4233 3.57642 13.5179 3.58047 13.5965C3.58383 13.6634 3.66074 13.7405 3.84587 13.8627C3.99996 13.9644 4.51999 14.3234 4.74298 14.6706C4.76479 14.7046 4.79411 14.7535 4.828 14.8103C4.90767 14.9435 5.01683 15.126 5.10332 15.2362C5.11608 15.2524 5.11263 15.2755 5.09547 15.2877C5.08857 15.2926 5.08038 15.295 5.07236 15.295ZM6.33153 15.0481C6.31618 15.0481 6.30161 15.0393 6.29557 15.0249C6.29454 15.0223 6.18779 14.7706 6.01379 14.6733C5.99542 14.663 5.98921 14.6405 5.99999 14.623C6.01077 14.6055 6.03448 14.5996 6.05285 14.6098C6.24996 14.72 6.36266 14.9864 6.36732 14.9977C6.37516 15.0166 6.3655 15.0379 6.34567 15.0455C6.34102 15.0472 6.33619 15.0481 6.33144 15.0481H6.33153ZM3.27393 12.0376C3.25953 12.0376 3.24574 12.0298 3.2391 12.0167C3.23237 12.0033 3.07354 11.6878 3.05017 11.5907C3.04543 11.5709 3.05837 11.5511 3.07923 11.5466C3.10001 11.542 3.12079 11.5544 3.12554 11.5742C3.14338 11.6482 3.26384 11.8957 3.30877 11.9849C3.31799 12.0032 3.30989 12.0252 3.29066 12.034C3.28531 12.0365 3.27954 12.0376 3.27393 12.0376V12.0376ZM4.88542 11.5099C4.86783 11.5099 4.85188 11.4984 4.84774 11.4814C4.843 11.4616 4.85593 11.4419 4.8768 11.4373C4.88422 11.4356 5.0615 11.3976 5.29034 11.4066C5.31164 11.4075 5.3282 11.4246 5.32733 11.4449C5.32647 11.4652 5.30862 11.4811 5.28715 11.4801C5.06917 11.4715 4.89586 11.5085 4.89413 11.509C4.8912 11.5096 4.88835 11.5099 4.88551 11.5099L4.88542 11.5099ZM6.45561 9.56639C6.28945 9.56639 6.1852 9.50291 6.11769 9.46185C6.08898 9.44436 6.0619 9.42785 6.04802 9.42785C6.03896 9.42785 6.0306 9.42489 6.02396 9.41989C5.92506 9.41389 5.84202 9.37636 5.77218 9.30664C5.71208 9.24653 5.69233 9.1511 5.67319 9.0588C5.66629 9.02562 5.65982 8.99425 5.65172 8.96568C5.63447 8.90556 5.6381 8.81884 5.64154 8.73492C5.6443 8.66815 5.64741 8.59252 5.63551 8.56616C5.61154 8.51278 5.54859 8.46581 5.526 8.45677C5.51177 8.46745 5.47375 8.51689 5.42468 8.65468C5.38597 8.76341 5.35691 8.88314 5.35234 8.9527C5.34467 9.07063 5.38985 9.11776 5.43771 9.16761C5.44659 9.17681 5.45573 9.18642 5.46435 9.19619C5.47832 9.2122 5.47935 9.23388 5.46702 9.25285C5.43201 9.30689 5.23818 9.3748 5.10909 9.34631C4.9369 9.3082 4.82963 9.14421 4.80696 8.88446C4.7967 8.76547 4.84265 8.64565 4.88309 8.53996L4.89051 8.52058C4.90025 8.49496 4.89603 8.46737 4.87809 8.43862C4.85059 8.39469 4.80196 8.36546 4.78514 8.36045C4.74556 8.37925 4.63355 8.55327 4.61769 8.63432C4.59251 8.76276 4.54 9.02998 4.25261 9.05494C4.23131 9.05667 4.21251 9.04188 4.21061 9.0216C4.20872 9.00132 4.22432 8.9835 4.24562 8.98161C4.45705 8.96329 4.5093 8.78575 4.54172 8.62085C4.55216 8.56764 4.59605 8.48272 4.63502 8.4222C4.72539 8.28177 4.77143 8.28514 4.78876 8.28646C4.82894 8.28958 4.89922 8.33359 4.94018 8.3942C4.97389 8.44421 4.98191 8.4966 4.96329 8.54571L4.95578 8.56525C4.91802 8.66388 4.87516 8.77565 4.88404 8.87846C4.89543 9.00887 4.94199 9.2338 5.1266 9.27461C5.21714 9.29457 5.34389 9.25219 5.38787 9.22468C5.38554 9.22222 5.38312 9.21976 5.38071 9.21721C5.3294 9.16375 5.26551 9.09715 5.27525 8.9481C5.28051 8.86771 5.31362 8.73352 5.3576 8.61428C5.44245 8.38434 5.50065 8.3827 5.52264 8.38204C5.52316 8.38204 5.52367 8.38204 5.5241 8.38204C5.57713 8.38204 5.67362 8.46384 5.70665 8.53717C5.72536 8.5788 5.72234 8.65247 5.71889 8.73779C5.71579 8.81252 5.71234 8.89719 5.72648 8.94638C5.73536 8.97758 5.74243 9.01158 5.74924 9.04459C5.76623 9.12655 5.78382 9.2113 5.8284 9.25589C5.91135 9.33875 6.01508 9.36429 6.15468 9.3362C6.28738 9.30943 6.33722 9.26952 6.35136 9.1782C6.34593 9.17385 6.33093 9.16712 6.31963 9.16211C6.27152 9.14067 6.19874 9.10824 6.16399 9.00862C6.10958 8.85301 6.11286 8.77762 6.12338 8.68819C6.12709 8.656 6.12562 8.60155 6.12424 8.54883C6.12303 8.50498 6.12191 8.46367 6.12347 8.43091C6.12485 8.40159 6.12735 8.34698 6.17279 8.34254C6.21193 8.3386 6.24651 8.3331 6.27695 8.32834C6.39706 8.30937 6.48381 8.29565 6.54408 8.44889C6.57529 8.52805 6.57435 8.58102 6.57357 8.62775C6.57271 8.67883 6.57202 8.71915 6.61306 8.79051L6.62186 8.80587C6.68256 8.9123 6.70774 8.9564 6.87459 8.9086C7.01712 8.86771 7.06679 8.75742 7.08291 8.70264C7.01402 8.68064 6.92305 8.62381 6.91072 8.51147C6.90365 8.44774 6.93546 8.39165 6.96625 8.33737C6.99073 8.29426 7.01384 8.25344 7.0179 8.21049C7.0191 8.19768 7.02048 8.18553 7.02178 8.17362C7.03126 8.08871 7.03756 8.03262 6.96607 7.93728C6.95633 7.92422 6.93598 7.89712 6.95918 7.87331C6.9822 7.84966 7.00936 7.86526 7.03324 7.87897C7.07981 7.90574 7.17681 7.9615 7.27114 7.93876C7.32573 7.92562 7.37341 7.88669 7.41273 7.82313C7.45895 7.74865 7.49137 7.51444 7.46929 7.47256C7.46765 7.46944 7.46627 7.46722 7.46507 7.46549C7.45851 7.46878 7.44877 7.47519 7.4411 7.48019C7.39566 7.50992 7.3196 7.55969 7.19983 7.51518C7.00807 7.44406 6.92046 7.32983 6.89735 7.12092C6.87717 6.93746 6.81664 6.76886 6.77215 6.71787C6.73395 6.67418 6.66204 6.62869 6.6366 6.61333C6.53934 6.61489 6.05336 6.6199 5.93187 6.57161C5.86944 6.54673 5.79167 6.48555 5.71648 6.42642C5.65439 6.37756 5.56066 6.30382 5.52997 6.30382C5.46254 6.30382 5.07443 6.13711 5.01485 6.00046C4.98493 5.93197 4.8931 5.70072 4.96751 5.60111C4.99941 5.55849 5.04787 5.37823 5.07478 5.25916C5.02916 5.22787 4.92647 5.15051 4.89111 5.06576C4.84576 4.95761 4.8593 4.80979 4.97398 4.74894C5.07167 4.69721 5.26887 4.70016 5.34113 4.70895C5.39132 4.67963 5.5598 4.58281 5.62732 4.5645C5.70328 4.54372 6.02129 4.55727 6.05733 4.55883C6.07863 4.55982 6.0951 4.57698 6.09415 4.59735C6.09311 4.61763 6.07475 4.6334 6.05371 4.63241C5.92256 4.62658 5.69664 4.62215 5.64862 4.63529C5.5936 4.65023 5.42865 4.74385 5.36967 4.77867C5.36131 4.7836 5.35131 4.78532 5.34165 4.78343C5.29 4.7735 5.09004 4.77161 5.01157 4.81316C4.93552 4.85356 4.92974 4.95934 4.96294 5.03842C4.99278 5.10994 5.10013 5.18788 5.13902 5.21186C5.15238 5.22007 5.15911 5.23534 5.15583 5.25021C5.14876 5.28281 5.0853 5.57072 5.03054 5.64373C4.99847 5.68668 5.02192 5.82481 5.08633 5.97213C5.12996 6.07215 5.47935 6.2272 5.53048 6.23015C5.58576 6.23015 5.65594 6.28312 5.76588 6.36959C5.83676 6.42535 5.91006 6.483 5.96179 6.50362C6.04957 6.53843 6.42276 6.54197 6.6047 6.53999C6.60892 6.53802 6.61358 6.53671 6.61849 6.53638C6.80129 6.52135 7.09136 6.49409 7.14163 6.48029C7.18199 6.46929 7.30262 6.31162 7.32943 6.24247L6.65799 6.24469H6.65781C6.64755 6.24469 6.63772 6.24083 6.63048 6.23393C6.62324 6.22703 6.6191 6.21759 6.61918 6.20782L6.62039 5.89461C6.62039 5.87432 6.63772 5.85798 6.65902 5.85798C6.6598 5.85798 6.66057 5.85798 6.66143 5.85798C6.7005 5.85741 7.11576 5.85141 7.23157 5.84213C7.28054 5.83819 7.32848 5.84287 7.37074 5.84698C7.4329 5.85306 7.48645 5.85823 7.51258 5.83335C7.54276 5.8046 7.56259 5.61277 7.56225 5.45173C7.56225 5.44368 7.565 5.43588 7.57001 5.42948C7.61415 5.37355 7.68426 5.26696 7.68426 5.21867C7.68426 5.16472 7.67244 5.09483 7.66606 5.06059C7.6345 5.05082 7.57113 5.03144 7.49482 5.00918C7.47438 5.00327 7.46291 4.98266 7.46912 4.96328C7.47533 4.94381 7.49697 4.93289 7.51732 4.93881C7.62752 4.97083 7.71107 4.99719 7.71193 4.99744C7.72504 5.00155 7.73487 5.01206 7.73763 5.02495C7.73858 5.02947 7.7616 5.13713 7.7616 5.21859C7.7616 5.30005 7.66917 5.42488 7.63959 5.46364C7.63933 5.56103 7.63235 5.82325 7.56733 5.88525C7.51525 5.93485 7.44127 5.9277 7.36298 5.92007C7.32219 5.91612 7.28002 5.91194 7.2382 5.9153C7.13439 5.9236 6.80983 5.92918 6.69774 5.93082L6.69679 6.17078L7.36875 6.16856C7.36875 6.16856 7.36944 6.16856 7.36987 6.16856C7.38332 6.16873 7.39514 6.17538 7.40195 6.1854C7.42006 6.2102 7.40962 6.24313 7.40609 6.25438C7.37824 6.34249 7.2426 6.52924 7.16327 6.55092C7.11197 6.56504 6.89399 6.58606 6.75042 6.59888C6.77913 6.6199 6.80966 6.64503 6.83199 6.67065C6.89321 6.74094 6.95452 6.93114 6.97461 7.11311C6.98599 7.21577 7.01281 7.28926 7.06377 7.34486C7.18793 7.23244 7.67615 6.80147 7.83196 6.69011C7.84904 6.67788 7.87326 6.68124 7.88603 6.69742C7.89887 6.71368 7.89534 6.73676 7.87835 6.74891C7.73168 6.85378 7.25131 7.2767 7.12171 7.39389C7.15172 7.41392 7.18707 7.43109 7.22838 7.44644C7.31003 7.47683 7.35668 7.44628 7.39781 7.41943C7.42463 7.40185 7.45239 7.3837 7.48533 7.39175C7.51775 7.39972 7.53362 7.42953 7.53879 7.43938C7.57958 7.5169 7.52862 7.78158 7.47973 7.86041C7.42946 7.94155 7.36582 7.99189 7.29046 8.01004C7.21484 8.02819 7.14137 8.01053 7.0836 7.98713C7.11266 8.05824 7.10619 8.11663 7.09895 8.18126C7.09766 8.19276 7.09636 8.20458 7.09516 8.21698C7.08964 8.27496 7.06161 8.32439 7.03454 8.37219C7.00824 8.41859 6.98332 8.46244 6.98789 8.50358C7.00039 8.61674 7.12947 8.63834 7.13499 8.63916C7.15543 8.64237 7.16974 8.66035 7.16724 8.6799C7.16603 8.68926 7.13516 8.91049 6.89726 8.97882C6.67023 9.04385 6.61651 8.94974 6.55434 8.84077L6.54572 8.82566C6.49484 8.73722 6.49579 8.68088 6.49674 8.62635C6.49752 8.58225 6.49821 8.54062 6.47217 8.47451C6.43414 8.37794 6.40931 8.38188 6.29006 8.40069C6.26402 8.40479 6.23522 8.40939 6.20254 8.41317C6.19909 8.44183 6.20073 8.5035 6.20193 8.5467C6.2034 8.60188 6.20495 8.65887 6.20064 8.69607C6.19064 8.78115 6.18814 8.84307 6.2378 8.98514C6.26203 9.05469 6.31032 9.07621 6.35283 9.0951C6.38818 9.11087 6.43656 9.13238 6.42845 9.18699C6.40672 9.33095 6.31075 9.3794 6.17313 9.4074C6.25557 9.45717 6.36895 9.51794 6.57245 9.48156C6.5934 9.47778 6.61358 9.49092 6.61755 9.51096C6.62151 9.53091 6.60772 9.55013 6.58668 9.55391C6.53942 9.56236 6.49605 9.56598 6.4563 9.56598L6.45561 9.56639ZM6.18081 8.4158C6.18081 8.4158 6.18072 8.4158 6.18063 8.4158C6.18063 8.4158 6.18072 8.4158 6.18081 8.4158ZM9.22763 6.73733C9.2234 6.73733 9.21918 6.73667 9.21495 6.73528C9.21306 6.73462 9.02301 6.67213 8.9317 6.67213C8.9104 6.67213 8.89307 6.65562 8.89307 6.63534C8.89307 6.61505 8.9104 6.59855 8.9317 6.59855C9.03595 6.59855 9.23203 6.66301 9.2403 6.6658C9.26048 6.67246 9.27109 6.69348 9.2641 6.71261C9.25858 6.7278 9.24358 6.73733 9.22763 6.73733ZM8.33139 4.87409C8.3282 4.87409 8.32492 4.87368 8.32164 4.87294C8.30095 4.86785 8.28862 4.84773 8.29396 4.82811C8.32992 4.69581 8.35062 4.67224 8.41201 4.60252C8.43201 4.57977 8.45693 4.55144 8.48884 4.51178C8.50177 4.4956 8.52609 4.49256 8.54299 4.50496C8.55989 4.51728 8.56316 4.54044 8.55014 4.55653C8.51721 4.59751 8.49168 4.6265 8.47116 4.64982C8.41391 4.71494 8.40028 4.73038 8.36864 4.84658C8.36415 4.86317 8.34846 4.87418 8.3313 4.87418L8.33139 4.87409ZM7.97493 4.79707C7.95501 4.79707 7.93811 4.78253 7.93647 4.76331C7.93604 4.75773 7.92638 4.62593 8.03339 4.49453C8.04649 4.47844 8.07072 4.47556 8.08762 4.48804C8.10452 4.50053 8.10754 4.5236 8.09444 4.5397C8.00657 4.64761 8.01347 4.75658 8.01356 4.75765C8.01502 4.77785 7.99907 4.7955 7.97794 4.79698C7.977 4.79698 7.97596 4.79707 7.97501 4.79707H7.97493Z" fill="black"></path>
    <path fill-rule="evenodd" clip-rule="evenodd" d="M19.7512 9.01829C19.7512 9.0674 19.7844 9.32952 19.8772 9.45739C19.9698 9.58533 20.3669 10.2988 20.5054 10.4841C20.8175 10.901 20.9883 11.2118 20.9124 11.5823C20.9124 11.5823 21.6865 11.6836 21.9772 10.9258C22.2135 10.3086 21.7109 9.61235 21.4589 9.25595C20.9427 8.52581 21.219 7.56607 21.2326 7.55752C21.2326 7.55752 21.0096 7.47499 20.9883 7.15234C20.9776 6.98777 21.036 6.80489 21.2083 6.63383C21.3774 6.46589 21.6233 6.42738 21.8704 6.4383C22.0764 6.44734 22.2338 6.55762 22.3581 6.62619C22.4823 6.69468 22.4773 6.76071 22.4321 6.7837C22.3865 6.80661 22.2924 6.9376 22.227 7.01717C22.1617 7.09707 22.1573 7.15891 22.1232 7.30279C22.079 7.48936 21.8126 7.58947 21.6103 7.57953C21.6103 7.57953 21.297 8.38078 21.8235 9.14204C22.0256 9.43423 22.601 10.122 22.3898 10.9299C22.0676 12.1615 20.726 12.0005 20.726 12.0005C20.619 12.1054 20.5144 12.2124 20.4121 12.3215C20.4224 12.3905 20.1685 12.8785 20.8022 13.3312C21.0086 13.4789 21.0646 13.6751 20.8249 13.8419C19.1853 14.9827 19.6043 15.3432 19.322 15.3703C19.2478 15.3774 19.0867 15.3523 18.9274 15.258C18.6882 15.4282 18.3522 15.3894 18.2442 15.2834C17.7322 15.5189 17.5878 15.1603 17.6684 15.011C17.6684 15.011 17.125 14.8269 17.5896 14.3303C17.7335 14.1765 18.0164 14.1298 18.1605 14.1579C18.3243 14.1895 19.2485 13.5461 19.1291 13.3754C19.0395 13.2475 18.5337 13.0494 18.3648 12.9286C18.2188 12.8243 17.8779 12.5266 17.8733 12.2286C17.8681 11.9006 17.99 11.4808 18.7109 11.4431C18.6732 11.1899 18.6325 10.6992 18.0429 10.293C17.7168 10.0683 17.4311 9.59658 17.4209 9.51791C17.0489 9.51791 16.4201 8.29678 16.2866 8.07431C16.2403 7.99654 15.9524 7.48123 15.9524 7.48123C15.7448 7.48263 15.4324 7.33054 15.4324 7.33054C15.4324 7.33054 14.9368 7.64244 14.8785 7.17106C14.4987 7.31092 14.5897 6.81121 14.7722 6.70027C14.7722 6.70027 14.7419 6.38172 14.962 6.29467C15.1607 6.21625 15.2466 6.26568 15.4322 6.32473C15.6176 6.38377 15.9806 6.60156 16.1454 6.71957C16.0393 6.30067 15.7334 5.92028 15.7334 5.92028C15.7334 5.92028 15.5692 6.04839 15.4025 5.93129C15.3521 5.89581 15.2419 5.83192 15.1364 5.80942C15.0868 5.79891 14.8252 5.51239 14.9597 5.42033C15.1412 5.29551 15.2498 5.27613 15.2498 5.27613C15.2626 5.16675 15.333 5.04915 15.2958 4.95471C15.2587 4.86044 15.0683 4.73742 15.0696 4.63419C15.0726 4.42503 15.364 4.44047 15.5387 4.54912C15.7512 4.31737 15.9561 4.52735 15.9561 4.52735C16.2975 4.4477 16.4659 4.84541 16.4942 4.97393C16.6716 4.92235 16.9214 4.85534 17.0229 4.85534C17.1878 4.85534 17.2807 4.7963 17.2807 4.7963L17.5175 4.63896L17.9194 4.59962C17.9194 4.59962 17.9021 4.4766 17.94 4.4128C17.9931 4.3232 18.0841 4.34398 18.1873 4.29479C18.2901 4.24568 18.4035 4.17678 18.3624 4.09819C18.3213 4.0196 18.4485 4.04719 18.5618 4.07668C18.6752 4.10607 18.7023 4.12767 18.7436 4.17678C18.7849 4.22589 18.6953 4.37683 18.6953 4.37683C18.6953 4.37683 18.8466 4.3733 18.8982 4.3733C18.9499 4.3733 19.0629 4.41271 19.135 4.42249C19.2072 4.43242 19.3245 4.38882 19.3245 4.34932C19.3245 4.30982 19.3186 4.23837 19.3149 4.23123C19.2895 4.18417 19.4542 4.23566 19.5676 4.32419C19.681 4.41271 19.7118 4.55043 19.6707 4.59954C19.6294 4.64873 19.5676 4.74703 19.5676 4.74703C19.5676 4.74703 19.5882 4.77651 19.6499 4.83555C19.7118 4.8946 19.7118 4.97319 19.7118 4.97319C19.7118 4.97319 19.8677 4.96818 19.9057 4.91357C19.9288 4.8808 19.9034 4.81814 19.9343 4.75893C19.9535 4.72247 20.1442 4.8863 20.1919 4.99552C20.2201 5.05966 20.1857 5.16995 20.155 5.23877C20.124 5.30758 20.0003 5.33706 20.0003 5.33706C20.0003 5.33706 20.0312 5.40588 20.0518 5.51395C20.0726 5.62202 20.0826 5.70078 20.0621 5.77945C20.0416 5.85812 20.0964 5.89614 20.2064 5.89737C20.2915 5.89844 20.3932 5.76442 20.4207 5.75966C20.4565 5.75325 20.5349 5.9092 20.5349 5.97802C20.5349 6.04683 20.4913 6.1811 20.402 6.24154C20.3456 6.27964 20.212 6.23325 20.182 6.2601C20.1541 6.28523 20.174 6.43715 20.2 6.54637C20.2181 6.62233 20.1752 6.7332 20.2266 6.78239C20.2782 6.8315 20.3194 6.86106 20.3918 6.84143C20.464 6.82172 20.5111 6.76186 20.5443 6.76046C20.5681 6.75948 20.6222 6.89029 20.6015 6.97882C20.5809 7.06735 20.5526 7.14093 20.429 7.17041C20.3054 7.19989 20.223 7.1484 20.1966 7.1856C20.1782 7.21155 20.1615 7.4102 20.0825 7.51991C20.0225 7.60335 20.0712 7.66872 20.1536 7.68851C20.2361 7.70813 20.3385 7.65508 20.3814 7.65755C20.4032 7.65886 20.4066 7.87821 20.355 7.93725C20.3037 7.9963 20.2526 8.08934 20.1215 8.08934C19.9904 8.08934 19.9169 7.97913 19.9024 8.08942C19.8976 8.12752 19.8685 8.44599 19.9187 8.58896C19.9489 8.67584 20.0535 8.72659 20.1729 8.70861C20.2814 8.69251 19.9798 9.03783 19.7513 9.01804L19.7512 9.01829Z" fill="#CF4037"></path>
    <path d="M18.5462 15.4113C18.5428 15.4113 18.5395 15.4113 18.5362 15.4113C18.4151 15.4097 18.304 15.378 18.2375 15.3273C17.9244 15.4635 17.7646 15.3746 17.6966 15.308C17.6118 15.2252 17.5946 15.1121 17.6192 15.031C17.552 15.0004 17.4129 14.921 17.3736 14.7749C17.3364 14.6364 17.3994 14.4786 17.5609 14.306C17.7171 14.1391 18.014 14.0918 18.1683 14.122C18.201 14.1282 18.344 14.0772 18.5875 13.9132C18.802 13.7689 18.9833 13.6109 19.0609 13.5009C19.0953 13.4521 19.1089 13.4129 19.0971 13.396C19.0486 13.3268 18.8428 13.2239 18.6612 13.133C18.5327 13.0688 18.4114 13.0081 18.3417 12.9582C18.2904 12.9215 17.8403 12.5894 17.8348 12.2294C17.8313 12.0144 17.8832 11.838 17.9891 11.705C18.1267 11.5321 18.3547 11.4327 18.6671 11.4093C18.667 11.4084 18.6669 11.4074 18.6667 11.4065C18.6289 11.1417 18.5656 10.6986 18.0204 10.3231C17.7236 10.1185 17.4437 9.69477 17.3911 9.55278C17.0892 9.51148 16.6864 8.86248 16.3298 8.22719C16.2967 8.16823 16.2705 8.12167 16.2531 8.09268C16.2116 8.02288 15.9823 7.61301 15.9291 7.51775C15.7451 7.51011 15.5049 7.40516 15.4346 7.37273C15.3703 7.40911 15.1611 7.51479 15.0044 7.44548C14.9227 7.40935 14.8701 7.33364 14.8473 7.21998C14.6927 7.26153 14.6277 7.19198 14.602 7.14369C14.5347 7.01714 14.6052 6.77752 14.7323 6.68226C14.7295 6.60482 14.7362 6.34425 14.9471 6.26081C15.1345 6.18682 15.2319 6.21934 15.3794 6.26861C15.3997 6.27543 15.4213 6.28257 15.4444 6.28996C15.6105 6.34285 15.8994 6.51128 16.0787 6.62904C15.9785 6.32602 15.7884 6.05682 15.7243 5.97109C15.6467 6.01527 15.5088 6.05198 15.3795 5.96099C15.3326 5.92798 15.2268 5.86647 15.128 5.84545C15.0677 5.83263 14.9137 5.65747 14.8875 5.53544C14.8703 5.45554 14.905 5.41251 14.9371 5.39058C15.0728 5.29729 15.1703 5.26058 15.2151 5.24711C15.2212 5.21386 15.2309 5.18076 15.2405 5.14857C15.2604 5.08115 15.2792 5.0175 15.2596 4.96774C15.2466 4.93464 15.2049 4.89104 15.1645 4.84883C15.0984 4.77968 15.03 4.70816 15.0309 4.63392C15.0324 4.53554 15.0876 4.48701 15.1337 4.46368C15.2454 4.4071 15.4149 4.44003 15.5318 4.50236C15.5987 4.4379 15.6719 4.40472 15.7496 4.40357C15.8536 4.40201 15.9344 4.45925 15.9679 4.48742C16.066 4.46918 16.1585 4.48561 16.243 4.53628C16.4032 4.63228 16.49 4.82526 16.5216 4.92775C16.7745 4.8554 16.9429 4.81877 17.0229 4.81877C17.1686 4.81877 17.2539 4.76917 17.2591 4.76597L17.4953 4.60904C17.5007 4.60542 17.5069 4.60329 17.5135 4.60263L17.8776 4.56707C17.875 4.52141 17.8763 4.44578 17.9063 4.39511C17.9484 4.32408 18.0115 4.30872 18.0723 4.29386C18.1039 4.28614 18.1365 4.27825 18.1699 4.26232C18.2946 4.20279 18.3477 4.15327 18.3277 4.115C18.3069 4.07517 18.3171 4.04979 18.3294 4.03559C18.3634 3.99617 18.4378 4.00668 18.5719 4.04158C18.689 4.07197 18.725 4.09636 18.7736 4.15417C18.8114 4.19909 18.7854 4.28072 18.7584 4.33902C18.8062 4.33804 18.8681 4.33689 18.898 4.33689C18.9315 4.33689 18.9806 4.34937 19.0326 4.36259C19.0708 4.37228 19.1103 4.38238 19.1403 4.38641C19.1925 4.39363 19.2719 4.3635 19.2857 4.34609C19.2854 4.31036 19.2808 4.25789 19.2784 4.24442C19.2668 4.21937 19.2775 4.19868 19.2909 4.18841C19.3448 4.14694 19.5156 4.23645 19.5921 4.29616C19.7201 4.3961 19.7563 4.55664 19.7009 4.62283C19.6731 4.65601 19.6346 4.71382 19.6144 4.74503C19.6264 4.75882 19.6465 4.78059 19.6773 4.80999C19.7206 4.85137 19.7383 4.90065 19.7455 4.93423C19.7984 4.92849 19.8593 4.91403 19.8734 4.89367C19.8779 4.88726 19.8782 4.86846 19.8784 4.85179C19.8787 4.82074 19.8792 4.78215 19.8997 4.74298C19.9085 4.72614 19.9262 4.7167 19.9466 4.71735C20.0191 4.71982 20.1857 4.88578 20.2275 4.9817C20.2653 5.06768 20.2142 5.20039 20.1905 5.25352C20.1647 5.31076 20.0958 5.34418 20.0505 5.3606C20.0618 5.39255 20.0775 5.44346 20.0898 5.50777C20.1126 5.62643 20.1209 5.70642 20.0995 5.7887C20.0917 5.81876 20.1007 5.82992 20.1037 5.83354C20.1117 5.84347 20.1358 5.86023 20.2068 5.86097C20.207 5.86097 20.2071 5.86097 20.2073 5.86097C20.2478 5.86097 20.308 5.80553 20.3441 5.77236C20.3755 5.74337 20.3929 5.72744 20.4137 5.72382C20.4251 5.72177 20.4432 5.72267 20.4636 5.73869C20.5129 5.77761 20.5734 5.90983 20.5734 5.97832C20.5734 6.056 20.526 6.20308 20.4243 6.27182C20.3818 6.30048 20.3204 6.29547 20.2663 6.29095C20.2483 6.28947 20.2222 6.28734 20.2096 6.28865C20.2024 6.31739 20.2089 6.41791 20.2375 6.53846C20.2459 6.57353 20.2434 6.61196 20.2409 6.64908C20.2379 6.69309 20.235 6.73859 20.2538 6.75666C20.3045 6.80494 20.3314 6.81973 20.381 6.80618C20.4134 6.79731 20.4412 6.7776 20.4657 6.76019C20.4923 6.7413 20.5153 6.72504 20.5423 6.72389C20.5534 6.7234 20.5701 6.72676 20.5861 6.745C20.6205 6.78417 20.6591 6.9007 20.639 6.98701C20.6177 7.07882 20.5846 7.17137 20.4381 7.20635C20.368 7.2231 20.3108 7.21645 20.269 7.2116C20.255 7.20996 20.2365 7.20783 20.2279 7.20865C20.2244 7.21941 20.219 7.24396 20.2146 7.26416C20.1977 7.34242 20.1719 7.46076 20.1141 7.54099C20.1013 7.55881 20.088 7.58484 20.0973 7.60825C20.1053 7.62837 20.1297 7.6452 20.1627 7.65309C20.2047 7.66302 20.2591 7.64799 20.3029 7.63584C20.3354 7.62689 20.3611 7.61974 20.3835 7.62106C20.3916 7.62155 20.4115 7.62525 20.4224 7.64923C20.443 7.69472 20.4425 7.8946 20.3845 7.96104C20.3774 7.96933 20.3699 7.97861 20.362 7.98838C20.3154 8.04661 20.2517 8.12635 20.1213 8.12635C20.0598 8.12635 20.0105 8.10582 19.9744 8.09087C19.9645 8.08677 19.9518 8.08151 19.9435 8.07896C19.9425 8.08233 19.9415 8.08726 19.9405 8.09424C19.9338 8.14753 19.9092 8.44678 19.9552 8.57752C19.9798 8.64855 20.0668 8.68748 20.1667 8.67245C20.2025 8.66711 20.2195 8.68501 20.2252 8.69298C20.2476 8.72451 20.222 8.7659 20.2135 8.77954C20.154 8.8757 19.9656 9.04134 19.7925 9.05489C19.8019 9.14128 19.8364 9.3364 19.909 9.43642C19.9503 9.49341 20.0464 9.65691 20.1577 9.8462C20.2993 10.0868 20.4597 10.3595 20.5368 10.4628C20.8456 10.8753 21.0151 11.1889 20.9576 11.5489C21.0246 11.552 21.1675 11.5509 21.3269 11.5023C21.6184 11.4134 21.8249 11.2152 21.9407 10.9132C22.1669 10.3226 21.6925 9.65215 21.4376 9.29205L21.4266 9.27653C20.9941 8.66473 21.1123 7.90019 21.1589 7.68051C21.1694 7.63075 21.1779 7.59774 21.1848 7.57556C21.1164 7.53697 20.9674 7.42298 20.9497 7.1547C20.9408 7.0187 20.9737 6.81357 21.1804 6.60843C21.3343 6.45552 21.5606 6.38793 21.8721 6.40157C22.0575 6.4097 22.2035 6.4942 22.3207 6.56203C22.3406 6.57353 22.3594 6.58437 22.3774 6.5943C22.4798 6.65072 22.5005 6.70508 22.4999 6.74072C22.4994 6.77234 22.4808 6.80059 22.4502 6.81611C22.4231 6.82974 22.3544 6.91712 22.309 6.97493C22.2906 6.99826 22.2733 7.02035 22.2574 7.03981C22.2085 7.09967 22.1976 7.14821 22.176 7.24486C22.1715 7.2649 22.1666 7.28675 22.1609 7.31089C22.115 7.50478 21.8613 7.61703 21.6398 7.61703C21.6392 7.61703 21.6385 7.61703 21.6379 7.61703C21.6175 7.67871 21.5674 7.851 21.558 8.07946C21.5472 8.3429 21.5901 8.73765 21.8557 9.12173C21.8742 9.14842 21.8963 9.17922 21.9198 9.21182C22.037 9.37475 22.2142 9.62086 22.3356 9.91625C22.4811 10.2704 22.512 10.6144 22.4272 10.9387C22.3519 11.2263 22.2152 11.4633 22.0207 11.6431C21.865 11.787 21.6726 11.8943 21.4487 11.962C21.1164 12.0626 20.8187 12.0457 20.7406 12.0389C20.6423 12.1356 20.5448 12.2353 20.4505 12.3357C20.4491 12.3501 20.445 12.368 20.4393 12.3923C20.4012 12.5548 20.3123 12.9353 20.8253 13.3017C20.9539 13.3937 21.0214 13.4983 21.0207 13.604C21.02 13.7021 20.9618 13.792 20.8476 13.8715C19.7491 14.6359 19.5847 15.0416 19.5056 15.2366C19.4667 15.3324 19.4411 15.3958 19.3259 15.4068C19.2389 15.4151 19.0803 15.3853 18.9292 15.3018C18.8204 15.3725 18.6856 15.4109 18.5461 15.4109L18.5462 15.4113ZM18.2443 15.2467C18.2545 15.2467 18.2645 15.2506 18.272 15.2579C18.3697 15.3539 18.6853 15.3845 18.9043 15.2286C18.9171 15.2196 18.9343 15.2189 18.9479 15.2268C19.0998 15.3167 19.2526 15.3401 19.3183 15.3338C19.3839 15.3275 19.3945 15.3069 19.4336 15.2103C19.5153 15.0088 19.6853 14.5894 20.8021 13.8123C20.8954 13.7473 20.943 13.6772 20.9435 13.6038C20.944 13.5234 20.8857 13.4371 20.779 13.3607C20.2261 12.9658 20.3262 12.5376 20.3639 12.3764C20.3686 12.356 20.3741 12.3327 20.3738 12.3261C20.3722 12.3153 20.3757 12.3052 20.3833 12.2971C20.4855 12.188 20.5915 12.0796 20.6984 11.9749C20.7068 11.9666 20.7189 11.9626 20.7309 11.9641C20.7342 11.9645 21.0645 12.002 21.4279 11.8913C21.9113 11.7442 22.2223 11.4177 22.3523 10.9211C22.5398 10.2038 22.0951 9.58563 21.8561 9.25362C21.8323 9.22069 21.81 9.18956 21.7911 9.16238C21.5136 8.76098 21.4692 8.34898 21.4808 8.07395C21.4934 7.77602 21.5707 7.57524 21.574 7.56678C21.5799 7.55175 21.5954 7.54206 21.6122 7.54288C21.81 7.55265 22.0474 7.45534 22.0854 7.29479C22.0911 7.27098 22.0958 7.24938 22.1003 7.22959C22.1229 7.12875 22.1365 7.06781 22.1964 6.99456C22.2119 6.97559 22.229 6.95391 22.2471 6.93083C22.3223 6.83508 22.3745 6.77086 22.4139 6.75115C22.4225 6.7468 22.4226 6.74155 22.4226 6.73949C22.4228 6.7234 22.401 6.69244 22.3386 6.65803C22.3199 6.64768 22.3007 6.6366 22.2805 6.62494C22.1708 6.56137 22.0341 6.48237 21.8685 6.47506C21.5806 6.46234 21.3736 6.52269 21.2361 6.65934C21.0878 6.8065 21.0154 6.97617 21.0268 7.1501C21.0461 7.44319 21.2385 7.52021 21.2467 7.52334C21.2601 7.52843 21.2694 7.54025 21.2708 7.55388C21.2717 7.56185 21.2698 7.56965 21.2657 7.5763C21.2545 7.60348 21.1877 7.8381 21.1852 8.16314C21.183 8.45196 21.2341 8.87233 21.4908 9.23539L21.5017 9.25091C21.7643 9.62193 22.253 10.3125 22.0134 10.9384C21.8579 11.3439 21.5654 11.5075 21.3474 11.5733C21.1119 11.6444 20.9153 11.6198 20.907 11.6188C20.8965 11.6174 20.887 11.612 20.8808 11.6037C20.8746 11.5955 20.8723 11.5853 20.8744 11.5753C20.9467 11.2223 20.7894 10.927 20.4738 10.5055C20.3943 10.399 20.2327 10.1245 20.0903 9.88225C19.9845 9.70241 19.8846 9.5325 19.8453 9.4783C19.7471 9.34297 19.7125 9.07468 19.7125 9.01826C19.7125 9.00791 19.717 8.99806 19.725 8.99108C19.7331 8.9841 19.7438 8.98065 19.7546 8.98163C19.9028 8.99445 20.0918 8.82519 20.1435 8.74882C20.0203 8.75547 19.9155 8.6975 19.8819 8.60084C19.8253 8.43997 19.8634 8.08882 19.8639 8.08537C19.8671 8.06131 19.8746 8.02764 19.9038 8.01179C19.9357 7.99446 19.9696 8.00859 20.0055 8.02345C20.0386 8.03725 20.076 8.05285 20.1213 8.05285C20.2134 8.05285 20.2578 7.99742 20.3006 7.94388C20.309 7.93345 20.3168 7.92359 20.3251 7.91407C20.355 7.87982 20.3617 7.75221 20.3555 7.69842C20.3457 7.7008 20.3346 7.70384 20.3247 7.70663C20.272 7.72125 20.2064 7.73939 20.1441 7.72461C20.0856 7.71057 20.0424 7.67772 20.0252 7.63436C20.0136 7.60505 20.0086 7.55783 20.0506 7.49944C20.0996 7.43144 20.1234 7.32181 20.1392 7.2493C20.15 7.19986 20.1547 7.17925 20.1645 7.16537C20.1907 7.12842 20.2353 7.13359 20.2785 7.1386C20.3164 7.14295 20.3635 7.14845 20.4195 7.13499C20.5238 7.1101 20.5451 7.05139 20.5638 6.97116C20.5771 6.91416 20.552 6.83533 20.5348 6.80379C20.5276 6.80831 20.5192 6.81431 20.5121 6.81931C20.4838 6.83943 20.4485 6.86448 20.4024 6.87705C20.3081 6.90275 20.2525 6.85939 20.1993 6.80872C20.1558 6.76709 20.16 6.70484 20.1639 6.64456C20.166 6.61262 20.1683 6.5796 20.1623 6.5548C20.1478 6.49395 20.137 6.42842 20.1323 6.37496C20.1238 6.27641 20.1393 6.24825 20.1556 6.23363C20.1818 6.21014 20.2241 6.21367 20.2731 6.2177C20.3099 6.22074 20.3604 6.22493 20.3797 6.21187C20.4548 6.16112 20.4963 6.04163 20.4963 5.9784C20.4963 5.93118 20.4498 5.83436 20.4225 5.80307C20.4149 5.80956 20.4055 5.81818 20.3979 5.82524C20.3473 5.87172 20.2781 5.93529 20.2059 5.93446C20.127 5.93364 20.0721 5.91476 20.0426 5.87846C20.0268 5.85891 20.0107 5.82434 20.0246 5.77088C20.0426 5.70157 20.0347 5.62947 20.0138 5.52082C19.9943 5.41866 19.965 5.35239 19.9648 5.35174C19.9604 5.3418 19.9606 5.33055 19.9657 5.32094C19.9708 5.31133 19.9799 5.30419 19.9909 5.30164C20.0181 5.29507 20.1005 5.26666 20.1194 5.22453C20.1499 5.15637 20.1778 5.05922 20.1562 5.00995C20.1221 4.93185 20.0101 4.82937 19.9602 4.79915C19.956 4.81656 19.9558 4.83479 19.9556 4.85252C19.9553 4.88077 19.9549 4.91001 19.9377 4.9344C19.8913 5.00124 19.7424 5.00937 19.713 5.01028C19.7025 5.01069 19.6924 5.00691 19.6848 4.99993C19.6773 4.99303 19.673 4.98342 19.673 4.97349C19.673 4.97308 19.6716 4.90878 19.6224 4.86189C19.5598 4.80202 19.5376 4.77106 19.5353 4.76778C19.527 4.75595 19.5266 4.74068 19.5343 4.72852C19.5369 4.72442 19.5979 4.62751 19.6404 4.57693C19.6625 4.5504 19.6483 4.43527 19.5429 4.35307C19.4781 4.30248 19.4007 4.26848 19.3575 4.256C19.362 4.29632 19.3629 4.34904 19.3629 4.34978C19.3629 4.36358 19.3575 4.38444 19.3321 4.40546C19.2861 4.44348 19.1932 4.46812 19.1292 4.45933C19.0948 4.45465 19.0531 4.44406 19.0126 4.43371C18.9677 4.42229 18.9213 4.41047 18.898 4.41047C18.8473 4.41047 18.6976 4.41392 18.696 4.414C18.6824 4.41433 18.6691 4.40751 18.662 4.39618C18.6548 4.38485 18.6546 4.37064 18.6614 4.35914C18.6952 4.30215 18.7264 4.21584 18.7133 4.20024C18.6783 4.15869 18.6599 4.1407 18.5516 4.11262C18.4614 4.08913 18.4179 4.08314 18.3977 4.08371C18.4599 4.20623 18.2745 4.29476 18.2045 4.3281C18.1637 4.34756 18.1254 4.35693 18.0916 4.36514C18.0361 4.37861 17.9996 4.38756 17.9736 4.43133C17.9479 4.4746 17.9534 4.56428 17.9577 4.59524C17.9591 4.60509 17.9562 4.61511 17.9497 4.62291C17.9433 4.63072 17.9338 4.63573 17.9233 4.63671L17.5314 4.67506L17.3028 4.8269C17.2979 4.83002 17.1976 4.89252 17.0229 4.89252C16.9487 4.89252 16.765 4.93407 16.5055 5.00946C16.4952 5.0125 16.4839 5.01118 16.4746 5.00593C16.4652 5.00067 16.4586 4.99188 16.4564 4.98178C16.4412 4.91288 16.3619 4.69469 16.2017 4.59869C16.1297 4.55549 16.0501 4.54359 15.9652 4.56338C15.9516 4.56658 15.9373 4.56247 15.9277 4.5527C15.927 4.55204 15.852 4.47723 15.7535 4.47723C15.7524 4.47723 15.7513 4.47723 15.7501 4.47723C15.6867 4.47838 15.6253 4.51074 15.5678 4.57356C15.5551 4.58736 15.5337 4.59023 15.5175 4.58013C15.4044 4.50975 15.2517 4.48717 15.1699 4.52864C15.1291 4.54933 15.1089 4.58407 15.1081 4.6349C15.1075 4.68007 15.1681 4.74339 15.2215 4.79931C15.2688 4.84883 15.3136 4.89564 15.3319 4.94195C15.3603 5.0143 15.3371 5.09273 15.3147 5.16852C15.3037 5.20597 15.2922 5.24465 15.288 5.28037C15.2861 5.29647 15.2734 5.30944 15.2567 5.31248C15.2559 5.31265 15.1524 5.33318 14.9821 5.45036C14.971 5.45792 14.9569 5.47188 14.9607 5.50678C14.9719 5.61009 15.1143 5.75914 15.1463 5.77408C15.25 5.79658 15.3612 5.85686 15.4252 5.90186C15.566 6.0009 15.7072 5.89316 15.7087 5.89201C15.7168 5.88568 15.7271 5.88281 15.7377 5.88396C15.7481 5.88511 15.7575 5.8902 15.7639 5.89817C15.7766 5.91393 16.0759 6.28955 16.1828 6.71116C16.1866 6.72627 16.18 6.74204 16.1664 6.75058C16.1528 6.75912 16.135 6.75855 16.122 6.74927C15.9521 6.62756 15.5941 6.41544 15.4197 6.35993C15.3963 6.35246 15.3744 6.34515 15.3537 6.33825C15.2138 6.29153 15.1367 6.26582 14.9765 6.32897C14.7855 6.40444 14.8102 6.69433 14.8105 6.69728C14.8118 6.71092 14.8049 6.72422 14.7928 6.73161C14.6877 6.7955 14.6182 7.01156 14.6708 7.1106C14.6996 7.1648 14.7648 7.17375 14.8644 7.13704C14.8756 7.13293 14.8881 7.134 14.8983 7.13983C14.9086 7.14566 14.9154 7.15576 14.9168 7.16701C14.9306 7.27845 14.9709 7.34973 15.0368 7.3788C15.1567 7.43185 15.3476 7.33996 15.411 7.30005C15.4227 7.29274 15.4375 7.29192 15.4499 7.298C15.4529 7.29947 15.7537 7.44466 15.9495 7.44466C15.9505 7.44466 15.9515 7.44466 15.9524 7.44466C15.9667 7.44466 15.9798 7.45214 15.9865 7.46421C15.9894 7.46938 16.2747 7.97993 16.3202 8.05638C16.3381 8.08611 16.3644 8.13308 16.3978 8.19262C16.5069 8.387 16.6895 8.71228 16.8851 8.98919C17.1724 9.39593 17.335 9.48134 17.4209 9.48134C17.4404 9.48134 17.4569 9.49522 17.4593 9.51361C17.4671 9.57422 17.738 10.0377 18.0656 10.2635C18.6376 10.6575 18.7063 11.1383 18.7432 11.3966C18.7453 11.411 18.7472 11.425 18.7492 11.4382C18.7508 11.4484 18.7477 11.4587 18.7409 11.4667C18.734 11.4747 18.724 11.4795 18.7131 11.4801C18.174 11.5082 17.9045 11.7599 17.912 12.2283C17.916 12.4921 18.2131 12.7743 18.388 12.8994C18.4528 12.9457 18.5714 13.005 18.697 13.0679C18.896 13.1674 19.1018 13.2704 19.1612 13.3552C19.1928 13.4003 19.1805 13.4631 19.1249 13.542C19.0264 13.6816 18.8057 13.8564 18.632 13.9733C18.5233 14.0466 18.2589 14.2145 18.1527 14.1941C18.0201 14.1682 17.7535 14.2106 17.6184 14.355C17.475 14.5082 17.4178 14.6434 17.4483 14.7567C17.4894 14.9098 17.6795 14.9759 17.6814 14.9765C17.6919 14.9801 17.7003 14.9878 17.7044 14.9976C17.7085 15.0075 17.7079 15.0186 17.7029 15.028C17.6721 15.0849 17.6821 15.1886 17.7517 15.2566C17.8471 15.3498 18.016 15.3475 18.2274 15.2504C18.2327 15.2479 18.2385 15.2467 18.2442 15.2467H18.2443ZM21.2539 7.58837C21.2539 7.58837 21.2539 7.58837 21.2538 7.58837C21.2538 7.58837 21.2538 7.58837 21.2539 7.58837ZM21.2542 7.58829C21.2542 7.58829 21.2542 7.58829 21.2541 7.58829C21.2541 7.58829 21.2541 7.58829 21.2542 7.58829ZM15.1449 5.77425C15.1449 5.77425 15.1451 5.77425 15.1452 5.77425C15.1451 5.77425 15.1449 5.77425 15.1449 5.77425ZM19.3491 4.21527C19.3491 4.21527 19.3491 4.21543 19.3492 4.21551C19.3492 4.21543 19.3492 4.21535 19.3491 4.21527Z" fill="black"></path>
    <path d="M14.8967 7.18913C14.8944 7.18913 14.892 7.18888 14.8896 7.18847C14.8686 7.1847 14.8548 7.16548 14.8587 7.14553C14.878 7.04772 14.9842 6.99467 15.0619 6.95591C15.0909 6.94146 15.1182 6.92774 15.1334 6.91575C15.1498 6.90278 15.1742 6.90483 15.1878 6.92043C15.2014 6.93604 15.1993 6.95928 15.1829 6.97225C15.1614 6.98933 15.1319 7.00403 15.0978 7.02103C15.0306 7.05454 14.947 7.09633 14.9347 7.15907C14.9312 7.17673 14.9149 7.18913 14.8967 7.18913Z" fill="black"></path>
    <path fill-rule="evenodd" clip-rule="evenodd" d="M17.6316 5.07397C17.6316 5.07397 17.7665 4.93921 17.8245 4.93921C17.8444 4.93921 17.9149 5.04597 17.9585 5.1225C18.0027 5.19929 17.6316 5.07397 17.6316 5.07397Z" fill="black"></path>
    <path d="M17.9304 5.1836C17.8822 5.1836 17.7923 5.16734 17.6186 5.10871C17.6063 5.10452 17.597 5.09467 17.594 5.0826C17.591 5.07044 17.5946 5.05771 17.6036 5.04868C17.6477 5.00475 17.7573 4.90259 17.8245 4.90259C17.8402 4.90259 17.8771 4.90259 17.9925 5.10518C18.0105 5.13647 17.9945 5.15839 17.9891 5.16439C17.9825 5.17178 17.9717 5.18377 17.9304 5.18377V5.1836ZM17.7033 5.05837C17.7811 5.08235 17.8608 5.10288 17.9064 5.10912C17.8698 5.04819 17.8333 4.99653 17.8157 4.97814C17.7932 4.98627 17.7488 5.01813 17.7033 5.05837Z" fill="black"></path>
    <path d="M18.2445 15.3058C18.2311 15.3058 18.218 15.299 18.2109 15.2871C18.1524 15.1885 18.2947 14.9446 18.4562 14.8006C18.4718 14.7867 18.4962 14.7874 18.5108 14.8023C18.5254 14.8172 18.5246 14.8404 18.509 14.8543C18.3359 15.0086 18.2534 15.2092 18.2782 15.2508C18.2887 15.2684 18.2821 15.2909 18.2636 15.3009C18.2576 15.3041 18.251 15.3057 18.2446 15.3057L18.2445 15.3058ZM18.9277 15.2949C18.9197 15.2949 18.9116 15.2926 18.9046 15.2876C18.8875 15.2755 18.884 15.2524 18.8968 15.2361C18.9827 15.1265 19.0915 14.9449 19.1709 14.8124C19.2054 14.7548 19.2351 14.7051 19.2573 14.6707C19.4799 14.3235 20 13.9645 20.1541 13.8628C20.3392 13.7405 20.416 13.6634 20.4194 13.5965C20.4234 13.5178 20.3256 13.4232 20.1438 13.2763C20.0458 13.1975 19.9561 13.0007 19.9831 12.7914C20.0024 12.6413 20.0896 12.4321 20.3953 12.2887C20.4144 12.2797 20.4376 12.2873 20.447 12.3055C20.4564 12.3237 20.4486 12.3458 20.4294 12.3548C20.1547 12.4836 20.0769 12.6682 20.0599 12.8004C20.035 12.9933 20.1251 13.165 20.1938 13.2202C20.4035 13.3896 20.5023 13.4896 20.4967 13.6001C20.4912 13.7086 20.3784 13.8041 20.1983 13.9232C19.8872 14.1287 19.494 14.4429 19.3232 14.709C19.3017 14.7425 19.2722 14.7918 19.238 14.8488C19.1577 14.983 19.0476 15.1669 18.9587 15.2802C18.9511 15.2898 18.9394 15.2949 18.9277 15.2949ZM17.6687 15.0481C17.664 15.0481 17.6591 15.0473 17.6545 15.0455C17.6347 15.038 17.6249 15.0166 17.6329 14.9977C17.6375 14.9864 17.75 14.72 17.9474 14.6099C17.9658 14.5996 17.9895 14.6055 18.0003 14.623C18.011 14.6405 18.0049 14.6631 17.9865 14.6734C17.8123 14.7706 17.7057 15.0224 17.7047 15.0248C17.6986 15.0393 17.6842 15.0481 17.6687 15.0481ZM19.1146 11.5099C19.1117 11.5099 19.1088 11.5096 19.1059 11.509C19.1032 11.5084 18.9303 11.4716 18.7129 11.4802C18.7124 11.4802 18.7118 11.4802 18.7113 11.4802C18.6907 11.4802 18.6736 11.4647 18.6727 11.445C18.6719 11.4247 18.6884 11.4075 18.7097 11.4067C18.9385 11.3977 19.1157 11.4357 19.1231 11.4373C19.1439 11.4418 19.1569 11.4616 19.1522 11.4814C19.148 11.4984 19.1322 11.51 19.1146 11.51V11.5099ZM17.5447 9.56637C17.5049 9.56637 17.4615 9.56275 17.4143 9.5543C17.3933 9.55052 17.3795 9.5313 17.3834 9.51135C17.3873 9.49139 17.4075 9.47825 17.4285 9.48195C17.632 9.51833 17.7454 9.45756 17.8278 9.40779C17.69 9.37979 17.594 9.33126 17.5726 9.1873C17.5643 9.13269 17.6128 9.11117 17.6481 9.0954C17.6906 9.07643 17.7389 9.05492 17.7633 8.98536C17.8128 8.84371 17.8104 8.78162 17.8005 8.69638C17.7961 8.6591 17.7975 8.60161 17.799 8.5461C17.8001 8.50323 17.8018 8.44197 17.7984 8.41339C17.7657 8.40953 17.7368 8.40502 17.7109 8.40091C17.5916 8.38202 17.5668 8.37816 17.5289 8.47474C17.5029 8.54076 17.5036 8.5824 17.5044 8.6265C17.5053 8.68102 17.5063 8.73736 17.4553 8.82588L17.4464 8.84141C17.3844 8.95013 17.3308 9.044 17.1038 8.97904C16.8656 8.9108 16.8349 8.68948 16.8337 8.68012C16.8312 8.66041 16.8455 8.64243 16.866 8.63939C16.8714 8.63857 17.0004 8.61697 17.013 8.50381C17.0175 8.46275 16.9926 8.41889 16.9663 8.3725C16.9392 8.3247 16.9112 8.27527 16.9057 8.21729C16.9045 8.20497 16.9032 8.19314 16.9019 8.18173C16.8947 8.11702 16.8882 8.05855 16.9173 7.98743C16.8596 8.01084 16.786 8.02858 16.7103 8.01034C16.6349 7.9922 16.5713 7.94186 16.5211 7.86072C16.4721 7.7818 16.4211 7.51696 16.4622 7.43969C16.4673 7.43 16.4831 7.40011 16.5155 7.39214C16.5484 7.38409 16.5761 7.40224 16.603 7.41981C16.6441 7.44675 16.6907 7.47722 16.7723 7.44691C16.8137 7.43156 16.8491 7.41431 16.8791 7.39427C16.7498 7.27725 16.2712 6.85573 16.1225 6.74946C16.1054 6.73723 16.102 6.71423 16.1148 6.69797C16.1277 6.68171 16.1519 6.67843 16.1689 6.69066C16.3208 6.79931 16.8115 7.23151 16.9369 7.34525C16.9878 7.28974 17.0146 7.21624 17.0261 7.11359C17.0463 6.93136 17.1076 6.74117 17.1687 6.6712C17.191 6.64558 17.2215 6.62045 17.2503 6.59943C17.1068 6.58662 16.8888 6.56551 16.8375 6.55147C16.7606 6.53045 16.6222 6.34247 16.5946 6.25485C16.5909 6.24302 16.5795 6.20706 16.6021 6.18201C16.6098 6.17355 16.6205 6.1692 16.6314 6.1692H16.6318L17.3041 6.17142L17.303 5.93146C17.1909 5.92973 16.8663 5.92423 16.7626 5.91594C16.7207 5.91257 16.6784 5.91668 16.6376 5.9207C16.5593 5.92834 16.4854 5.93557 16.4335 5.88588C16.3686 5.82396 16.3614 5.56175 16.3611 5.46436C16.3314 5.4256 16.2389 5.29806 16.2389 5.21931C16.2389 5.14055 16.2618 5.03018 16.2629 5.02567C16.2656 5.01278 16.2755 5.00226 16.2886 4.99816C16.2894 4.99791 16.3728 4.97155 16.4834 4.93952C16.5039 4.93361 16.5254 4.94461 16.5316 4.964C16.5379 4.98346 16.5263 5.00399 16.506 5.0099C16.4294 5.03207 16.3661 5.05145 16.3345 5.06123C16.3281 5.09547 16.3163 5.16536 16.3163 5.21931C16.3163 5.2676 16.3864 5.37419 16.4306 5.43011C16.4357 5.43652 16.4384 5.44432 16.4384 5.45237C16.4381 5.61341 16.458 5.80524 16.4882 5.83406C16.5129 5.85771 16.5581 5.85459 16.6298 5.84761C16.6721 5.84351 16.7201 5.83883 16.7691 5.84277C16.8848 5.85205 17.3002 5.85804 17.3392 5.85862C17.34 5.85862 17.341 5.85862 17.3416 5.85862C17.3629 5.85862 17.3801 5.87496 17.3802 5.89524L17.3815 6.20845C17.3815 6.21822 17.3774 6.22767 17.3702 6.23465C17.363 6.24155 17.3531 6.24541 17.3429 6.24541H17.3427L16.6709 6.24319C16.6976 6.31225 16.8184 6.47001 16.8587 6.48101C16.909 6.49472 17.1991 6.52207 17.3819 6.5371C17.4032 6.53882 17.4189 6.55664 17.4171 6.57693C17.4153 6.59713 17.3967 6.61216 17.3753 6.61043C17.3739 6.61035 17.3722 6.61019 17.3701 6.61002C17.3543 6.61938 17.2704 6.67005 17.228 6.7185C17.1837 6.76925 17.1233 6.93777 17.1029 7.12155C17.0796 7.33047 16.9919 7.4447 16.8002 7.51581C16.6805 7.56032 16.6044 7.51056 16.559 7.48083C16.5514 7.4759 16.5417 7.4695 16.5352 7.46621C16.5341 7.46786 16.5327 7.47015 16.531 7.47319C16.5088 7.51507 16.5411 7.74912 16.5874 7.82377C16.6268 7.88741 16.6744 7.92633 16.729 7.93947C16.8235 7.96222 16.9204 7.90646 16.9669 7.87969C16.9908 7.86589 17.018 7.85037 17.041 7.87402C17.0641 7.89784 17.0438 7.92494 17.0341 7.938C16.9628 8.03342 16.9691 8.08951 16.9786 8.1745C16.9799 8.18633 16.9812 8.19848 16.9824 8.21121C16.9865 8.25416 17.0096 8.29497 17.0341 8.33809C17.0648 8.39229 17.0966 8.44838 17.0896 8.51202C17.0771 8.62436 16.9862 8.68119 16.9173 8.7032C16.9335 8.75789 16.983 8.86826 17.1258 8.90916C17.2927 8.95687 17.3177 8.91293 17.3782 8.80683L17.3872 8.79107C17.4283 8.71962 17.4276 8.6793 17.4268 8.62822C17.426 8.58149 17.425 8.52861 17.4562 8.44944C17.5164 8.29612 17.6032 8.30984 17.7232 8.32889C17.7537 8.33374 17.7882 8.33916 17.8276 8.3431C17.8813 8.34844 17.8796 8.41109 17.876 8.54848C17.8746 8.60153 17.8732 8.65631 17.877 8.68866C17.8874 8.77842 17.8906 8.85389 17.8363 9.00918C17.8014 9.10871 17.7287 9.14115 17.6806 9.16258C17.6694 9.16759 17.6545 9.17424 17.6491 9.17859C17.6632 9.27024 17.713 9.31007 17.8455 9.33668C17.9853 9.36484 18.089 9.3393 18.1716 9.25636C18.2161 9.21185 18.2337 9.12727 18.2508 9.04556C18.2576 9.01238 18.2648 8.97814 18.2738 8.94685C18.2877 8.89774 18.2843 8.81324 18.2812 8.73859C18.2777 8.6531 18.2746 8.57928 18.2934 8.53756C18.3265 8.46423 18.4231 8.38243 18.4761 8.38243C18.4766 8.38243 18.477 8.38243 18.4775 8.38243C18.4994 8.38309 18.5575 8.38481 18.6424 8.61467C18.6865 8.73399 18.7196 8.86818 18.7248 8.94849C18.7346 9.09738 18.6708 9.16389 18.6196 9.21735C18.6171 9.21998 18.6146 9.22253 18.6122 9.22507C18.6562 9.25258 18.7829 9.29504 18.8735 9.275C19.0584 9.23419 19.105 9.00926 19.1164 8.87877C19.1251 8.77637 19.0825 8.66501 19.0449 8.56671L19.0371 8.5461C19.0184 8.49699 19.0264 8.4446 19.0602 8.39467C19.1011 8.33406 19.1716 8.28997 19.2117 8.28684C19.2291 8.28561 19.275 8.28216 19.3654 8.42259C19.4043 8.48303 19.4483 8.56786 19.4588 8.62116C19.4912 8.78614 19.5435 8.96368 19.7548 8.982C19.776 8.9838 19.7917 9.0017 19.7898 9.02199C19.7878 9.04227 19.769 9.05714 19.7478 9.05533C19.4605 9.03037 19.4081 8.76314 19.3829 8.63479C19.3669 8.55374 19.2546 8.37948 19.2153 8.36084C19.1991 8.3656 19.15 8.39483 19.1223 8.4391C19.1043 8.46784 19.1002 8.49543 19.1099 8.52113L19.1178 8.54158C19.158 8.64694 19.2037 8.76635 19.1936 8.88485C19.171 9.1446 19.0636 9.30859 18.8912 9.34669C18.7624 9.37511 18.5686 9.30736 18.5335 9.25324C18.5212 9.23427 18.5221 9.21259 18.536 9.19658C18.5447 9.18664 18.5539 9.17695 18.5628 9.16767C18.6106 9.11782 18.6557 9.07069 18.648 8.95301C18.6434 8.88353 18.6144 8.7638 18.5757 8.65507C18.5266 8.51736 18.4886 8.46784 18.4743 8.45708C18.4517 8.46603 18.3889 8.51301 18.3647 8.56647C18.3528 8.59283 18.3559 8.66871 18.3587 8.73555C18.3622 8.81931 18.3657 8.90595 18.3486 8.96598C18.3403 8.99481 18.3338 9.02634 18.3268 9.05968C18.3077 9.15174 18.2878 9.24692 18.2279 9.30687C18.1583 9.37667 18.0752 9.41428 17.9761 9.42019C17.9696 9.42512 17.9612 9.42808 17.9521 9.42808C17.9384 9.42808 17.9113 9.44458 17.8827 9.46199C17.8152 9.50313 17.7111 9.56661 17.5447 9.56661V9.56637ZM14.7725 6.73731C14.7566 6.73731 14.7416 6.72778 14.7361 6.71259C14.7291 6.69337 14.7397 6.67243 14.7599 6.66578C14.7681 6.66307 14.9641 6.59853 15.0687 6.59853C15.09 6.59853 15.1074 6.61503 15.1074 6.63532C15.1074 6.6556 15.09 6.67211 15.0687 6.67211C14.9772 6.67211 14.7872 6.7346 14.7853 6.73526C14.7811 6.73665 14.7768 6.73731 14.7726 6.73731H14.7725ZM15.669 4.87407C15.6518 4.87407 15.6361 4.86307 15.6316 4.84648C15.6 4.73012 15.5863 4.71459 15.5291 4.64939C15.5087 4.62615 15.4832 4.59724 15.4505 4.55635C15.4375 4.54017 15.4407 4.51709 15.4577 4.50478C15.4747 4.49246 15.4989 4.4955 15.5118 4.51167C15.5437 4.55126 15.5685 4.57951 15.5884 4.60217C15.6498 4.67206 15.6704 4.69554 15.7065 4.828C15.7118 4.84771 15.6994 4.86775 15.6788 4.87284C15.6755 4.87366 15.6723 4.87399 15.669 4.87399L15.669 4.87407ZM16.0252 4.79721C16.0242 4.79721 16.0232 4.79721 16.022 4.79713C16.0008 4.79548 15.985 4.77775 15.9866 4.75746C15.9866 4.75656 15.9937 4.64758 15.9057 4.53976C15.8926 4.52375 15.8957 4.50059 15.9125 4.48811C15.9294 4.47562 15.9537 4.4785 15.9668 4.49459C16.074 4.62599 16.0641 4.75787 16.0637 4.76337C16.0621 4.78259 16.0452 4.79721 16.0252 4.79721Z" fill="black"></path>
    <path d="M20.7261 12.0541C20.718 12.0541 20.7098 12.0524 20.7019 12.0489C20.6739 12.0361 20.6621 12.0041 20.6755 11.9775C20.7202 11.8888 20.8399 11.6428 20.8575 11.5702C20.8645 11.5414 20.8947 11.5235 20.925 11.5301C20.9552 11.5368 20.974 11.5655 20.9671 11.5943C20.9434 11.6915 20.7938 11.9901 20.7769 12.0238C20.7673 12.043 20.7472 12.0541 20.7262 12.0541H20.7261ZM17.4857 6.63097C17.4182 6.63097 17.368 6.63015 17.3517 6.62991C17.3207 6.62933 17.296 6.60494 17.2966 6.57538C17.2972 6.54614 17.3223 6.5229 17.3528 6.5229C17.3531 6.5229 17.3535 6.5229 17.3539 6.5229C17.5725 6.52684 17.9498 6.52093 18.032 6.48833C18.0813 6.4687 18.1568 6.40925 18.2235 6.35685C18.3356 6.26866 18.4078 6.21438 18.4691 6.21355C18.5278 6.20649 18.8592 6.05506 18.898 5.96588C18.9652 5.8119 18.9801 5.68618 18.9556 5.65349C18.9 5.57925 18.8392 5.30735 18.8276 5.25365C18.8229 5.23205 18.8327 5.20988 18.8521 5.19789C18.8896 5.17465 18.9932 5.09967 19.0213 5.03241C19.052 4.95883 19.0451 4.86218 18.9804 4.82785C18.9068 4.78884 18.7108 4.79057 18.6622 4.79993C18.6482 4.80264 18.6336 4.80009 18.6214 4.79295C18.5404 4.74499 18.3943 4.66418 18.3473 4.65145C18.3036 4.63955 18.0874 4.643 17.9478 4.64924C17.9168 4.65055 17.8905 4.6278 17.889 4.59832C17.8876 4.56884 17.9115 4.54371 17.9425 4.54232C18.0017 4.53969 18.301 4.52753 18.3782 4.54856C18.4454 4.56687 18.6071 4.65917 18.6632 4.69186C18.7427 4.68348 18.9369 4.68241 19.0351 4.73448C19.1596 4.8005 19.1749 4.95423 19.1257 5.07208C19.0906 5.15617 18.9962 5.23082 18.9453 5.26654C18.9735 5.38964 19.019 5.55404 19.0471 5.59149C19.1247 5.69521 19.0412 5.91669 19.0017 6.0071C18.9398 6.14934 18.5474 6.32072 18.4704 6.32072C18.4422 6.32368 18.3501 6.39619 18.295 6.43947C18.2188 6.49942 18.1399 6.56142 18.0752 6.5872C17.9795 6.62522 17.6691 6.63106 17.4856 6.63106L17.4857 6.63097ZM18.4703 6.21355H18.4698H18.4704H18.4703Z" fill="black"></path>
    <path fill-rule="evenodd" clip-rule="evenodd" d="M10.5533 6.14942L10.2757 6.23269L9.99636 5.38594L9.65249 5.48925L9.58662 5.28962C9.7814 5.23533 9.93825 5.11848 9.90186 4.91005L10.1226 4.8437L10.5533 6.14942ZM10.9484 5.69833C10.9812 5.78661 11.0665 5.85329 11.1658 5.83884C11.3744 5.80837 11.3871 5.53935 11.3711 5.38742L11.3664 5.38422C11.3046 5.50198 11.2083 5.56168 11.0705 5.58172C10.9489 5.59938 10.8167 5.56333 10.722 5.49016C10.6338 5.41805 10.5813 5.3108 10.5643 5.20462C10.5202 4.92812 10.6857 4.68053 10.9813 4.63733C11.4107 4.57467 11.5835 4.91539 11.6382 5.25751C11.6911 5.58813 11.5976 5.98748 11.1946 6.04628C10.9495 6.08192 10.7452 5.97138 10.6748 5.73824L10.9483 5.69833H10.9484ZM11.2949 5.08004C11.2747 4.9544 11.1696 4.84116 11.0257 4.8621C10.888 4.88222 10.8291 5.01944 10.8487 5.14114C10.8692 5.26884 10.9584 5.38619 11.1064 5.36467C11.2603 5.34209 11.3162 5.21333 11.2949 5.07996V5.08004ZM12.4692 4.58108C12.7551 4.60235 12.9821 4.79188 12.9388 5.32419C12.8944 5.86799 12.6393 6.0218 12.3535 6.00054C12.0715 5.97951 11.8445 5.79006 11.8889 5.24617C11.9322 4.71395 12.187 4.56039 12.4692 4.58116V4.58108ZM12.372 5.77249C12.6089 5.79006 12.6363 5.45665 12.6488 5.30267C12.6604 5.16036 12.6875 4.82703 12.4507 4.80946C12.2177 4.79221 12.1904 5.12546 12.1788 5.26785C12.1663 5.42175 12.1392 5.75516 12.372 5.77249ZM13.6439 5.88138L13.0591 5.72798L13.1297 5.48276L13.9518 4.87105L14.2028 4.93691L13.9741 5.7306L14.1578 5.77897L14.0943 5.99947L13.9105 5.95135L13.8228 6.25683L13.5561 6.18687L13.6438 5.88138H13.6439ZM13.8397 5.20257L13.8335 5.20084L13.344 5.56521L13.7075 5.66064L13.8397 5.20257ZM5.11093 15.8967L5.48602 15.8845L5.5331 17.2117L6.24792 17.1901L6.2587 17.4914L5.16879 17.5248L5.11093 15.8968V15.8967ZM6.68733 17.0244C6.6675 17.2293 6.75855 17.3357 6.94566 17.3599C7.08078 17.3775 7.20098 17.3125 7.23271 17.2429L7.52873 17.2816C7.39439 17.545 7.17632 17.6363 6.89919 17.6001C6.51306 17.5497 6.31009 17.2654 6.36182 16.9036C6.41201 16.5533 6.70371 16.3195 7.07552 16.3682C7.49243 16.4227 7.64574 16.7834 7.57064 17.1395L6.68724 17.0244H6.68733ZM7.26358 16.8925C7.25608 16.7257 7.19495 16.63 7.03155 16.609C6.81839 16.581 6.73406 16.7312 6.71647 16.8212L7.26358 16.8925ZM8.34711 17.868L7.9822 17.7752L7.89114 16.5314L8.23536 16.6187L8.27011 17.4611L8.27468 17.4623L8.74358 16.7479L9.06934 16.8305L8.34702 17.868H8.34711ZM9.38381 17.6224C9.33535 17.8225 9.41054 17.9397 9.59257 17.9879C9.72372 18.0227 9.85211 17.9738 9.89341 17.9089L10.1812 17.9853C10.0111 18.2291 9.78201 18.2915 9.51246 18.2202C9.13712 18.1205 8.97613 17.8127 9.0784 17.4611C9.17756 17.1201 9.49953 16.9263 9.86125 17.0221C10.2667 17.1297 10.3677 17.5069 10.243 17.85L9.38372 17.6223L9.38381 17.6224ZM9.97343 17.5657C9.98964 17.3993 9.94256 17.297 9.78364 17.2547C9.57627 17.1997 9.47159 17.3379 9.44132 17.4247L9.97343 17.5657ZM10.7152 17.2622L11.0338 17.3106L10.9978 17.5269L11.0025 17.5276C11.0883 17.3905 11.2705 17.3141 11.4333 17.3389C11.457 17.3425 11.4846 17.3512 11.5046 17.3614L11.4551 17.6589C11.4167 17.6453 11.3769 17.6354 11.3365 17.6294C11.0909 17.5921 10.9777 17.748 10.9435 17.9531L10.8559 18.4784L10.5206 18.4273L10.715 17.2622H10.7152ZM11.7291 16.9574L12.068 16.9403L12.1158 17.8129L12.5199 17.3678L12.9212 17.3476L12.4794 17.8041L13.0383 18.5232L12.6277 18.5436L12.2598 18.0343L12.1351 18.1617L12.1574 18.5673L11.8184 18.5842L11.7292 16.9574H11.7291ZM14.5945 18.1625L14.2815 18.2376L14.2396 18.0783L14.2327 18.08C14.1831 18.2286 14.0556 18.3249 13.9167 18.3579C13.5665 18.4419 13.4287 18.2751 13.3545 17.9917L13.1691 17.288L13.4985 17.2092L13.6686 17.8552C13.7179 18.0433 13.8003 18.1224 13.9537 18.0857C14.1321 18.0431 14.1834 17.9295 14.1223 17.6972L13.9646 17.0977L14.2937 17.0187L14.5947 18.1626L14.5945 18.1625ZM15.1092 17.6117C15.1518 17.7469 15.2879 17.7695 15.4165 17.7346C15.5109 17.7092 15.6198 17.6416 15.5872 17.532C15.5593 17.4376 15.4137 17.4415 15.1648 17.4565C14.9645 17.4679 14.757 17.4554 14.6978 17.2557C14.6116 16.9659 14.8515 16.8203 15.1069 16.7513C15.3667 16.681 15.6309 16.6997 15.7387 16.9715L15.4284 17.0554C15.3835 16.9373 15.2769 16.9303 15.1595 16.9622C15.086 16.9822 14.9819 17.0246 15.0092 17.1167C15.0424 17.2289 15.2311 17.1944 15.4298 17.1855C15.6328 17.1755 15.8388 17.1912 15.9016 17.4017C15.9903 17.7002 15.7476 17.8701 15.4761 17.9438C15.2 18.0185 14.9018 17.9925 14.7985 17.6954L15.1092 17.6117V17.6117ZM16.4374 17.1512C16.4835 17.352 16.6038 17.4271 16.7902 17.3963C16.9243 17.374 17.0184 17.2775 17.0265 17.202L17.321 17.1533C17.2767 17.4431 17.0976 17.5933 16.8221 17.6388C16.4378 17.7026 16.1543 17.49 16.089 17.1303C16.0257 16.7819 16.2294 16.475 16.5992 16.4136C17.0138 16.3449 17.2743 16.6447 17.3161 17.006L16.4375 17.1512H16.4374ZM16.9446 16.8589C16.8846 16.7021 16.7961 16.6287 16.6338 16.6559C16.4215 16.6908 16.3891 16.8583 16.4008 16.949L16.9446 16.8589ZM17.6546 16.3127L17.9773 16.3201L17.9731 16.4843L17.9803 16.4846C18.0696 16.3543 18.2195 16.294 18.3629 16.2971C18.7236 16.3056 18.8096 16.5016 18.8023 16.7934L18.7837 17.5189L18.4443 17.511L18.4613 16.8449C18.4663 16.651 18.4089 16.5541 18.2512 16.5503C18.0671 16.546 17.9858 16.6421 17.9797 16.8817L17.9639 17.4997L17.6247 17.4918L17.6547 16.3128L17.6546 16.3127ZM6.68828 11.5879C6.68828 8.78656 9.06779 6.5156 12.0029 6.5156C14.9379 6.5156 17.3175 8.78656 17.3175 11.5879C17.3175 14.3892 14.938 16.6598 12.0029 16.6598C9.0677 16.6598 6.68828 14.389 6.68828 11.5879ZM12.0029 16.3291C14.7469 16.3291 16.9711 14.2064 16.9711 11.5879C16.9711 8.96936 14.7468 6.84646 12.0029 6.84646C9.25895 6.84646 7.03482 8.96928 7.03482 11.5879C7.03482 14.2064 9.25921 16.3291 12.0029 16.3291Z" fill="black"></path>
    <path fill-rule="evenodd" clip-rule="evenodd" d="M10.927 10.5946L11.6799 9.00863H12.1239L12.8988 10.5963H12.5053L12.3784 10.3318H11.4455L11.3047 10.5946H10.927ZM11.6041 9.9811H12.2104L11.9061 9.36133L11.6041 9.9811ZM11.4231 12.9524H12.6591V12.603H11.0741V14.1884H12.6576V13.84H11.4177V13.571H12.6582V13.2216H11.4231V12.9524ZM12.7456 8.31643C12.7456 8.57708 12.5301 8.79125 12.3087 8.79125H11.0711V7.20361H12.2642C12.4816 7.20361 12.6992 7.33624 12.6992 7.68238C12.6992 7.76417 12.6543 7.91626 12.5687 7.99411C12.6699 8.0681 12.7456 8.1958 12.7456 8.31643ZM12.2187 7.55575H11.4207V7.81804H12.2256C12.3962 7.81812 12.392 7.55575 12.2187 7.55575L12.277 8.16796H11.4227V8.4415H12.2738C12.4602 8.4415 12.4658 8.16796 12.277 8.16796L12.2187 7.55575ZM9.21862 11.9029C9.21862 12.1635 9.00314 12.3776 8.78174 12.3776H7.5V10.79H8.73723C8.95469 10.79 9.17198 10.9226 9.17198 11.2688C9.17198 11.3505 9.12722 11.5027 9.04173 11.5805C9.14274 11.6545 9.21862 11.7822 9.21862 11.9029ZM8.69165 11.1423H7.84951V11.4046H8.69847C8.8692 11.4046 8.86493 11.1423 8.69165 11.1423L8.74979 11.7546H7.85139V12.0279H8.74667C8.93309 12.0279 8.93867 11.7546 8.74979 11.7546L8.69165 11.1423ZM9.26945 12.3761L10.0223 10.7901H10.4664L11.2413 12.3779H10.8477L10.7208 12.1133H9.78796L9.64705 12.3761H9.26945ZM9.9467 11.7627H10.5531L10.2488 11.1429L9.9467 11.7627ZM16.3012 11.2922C16.3019 11.5548 16.1338 11.794 15.8837 11.7944L16.307 12.3769L15.8748 12.3786L15.4595 11.8034H15.0655V12.3766H14.719V10.7909H15.8814C16.1316 10.7906 16.301 11.0103 16.3012 11.2922ZM15.7907 11.1387H15.0655V11.4503H15.7963C16.0064 11.4503 16.0063 11.1387 15.7907 11.1387ZM10.8127 10.7914H11.2981L11.863 11.4366L12.429 10.7914H12.9173L12.0377 11.763V12.3772H11.6884V11.7615L10.8127 10.7914ZM13.3174 11.1397H14.3736V10.7904H12.9685V12.376H14.3719V12.0275H13.3122V11.7584H14.3727V11.4091H13.3174V11.1397ZM12.7009 14.9128C12.7013 15.1753 12.5333 15.4148 12.2834 15.4149L12.7065 15.9977L12.2744 15.9991L11.8592 15.4242H11.4213V15.9973H11.0747V14.4114H12.2808C12.5313 14.4112 12.7007 14.6309 12.7009 14.9128ZM12.1904 14.7592H11.4213V15.0709H12.1959C12.406 15.0709 12.4059 14.7592 12.1904 14.7592Z" fill="black"></path>
  </g>
  <defs>
    <clipPath id="clip0_404_562">
      <rect width="21" height="15.1862" fill="white" transform="translate(1.5 4)"></rect>
    </clipPath>
  </defs>
</svg>
