<?xml version="1.0" encoding="UTF-8"?>
<svg xmlns="http://www.w3.org/2000/svg" width="24" height="24" viewBox="0 0 24 24" fill="none">
  <g clip-path="url(#clip0_404_607)">
    <path fill-rule="evenodd" clip-rule="evenodd" d="M12 21.837C17.4327 21.837 21.837 17.4328 21.837 12C21.837 6.56728 17.4327 2.16302 12 2.16302C6.56737 2.16311 2.16312 6.56737 2.16312 12C2.16312 17.4327 6.56737 21.837 12 21.837V21.837Z" fill="white"></path>
    <path d="M12 21.674C14.6714 21.674 17.0899 20.5912 18.8406 18.8407C20.5911 17.0899 21.6739 14.6715 21.6739 12.0001C21.6739 9.32875 20.5911 6.91018 18.8406 5.15965C17.0898 3.40904 14.6714 2.32624 12 2.32624C9.32867 2.32624 6.9101 3.40896 5.15957 5.15957C3.40896 6.9101 2.32615 9.32884 2.32615 12C2.32615 14.6712 3.40896 17.0899 5.15957 18.8406C6.9101 20.5911 9.32875 21.6739 12 21.6739V21.674ZM12 22.0002C9.23875 22.0002 6.73865 20.8808 4.92895 19.0712C3.1194 17.2613 2 14.7616 2 12C2 9.2385 3.1194 6.73874 4.92903 4.92903C6.73874 3.11949 9.23891 2 12 2C14.7612 2 17.2614 3.1194 19.0711 4.92903C20.8808 6.73865 22.0001 9.23866 22.0001 12C22.0001 14.7613 20.8807 17.2613 19.0711 19.0709C17.2616 20.8808 14.7615 22.0001 12 22.0001V22.0002Z" fill="#346BA5"></path>
    <path d="M12 17.7644C13.5919 17.7644 15.0331 17.1193 16.0761 16.0763C17.119 15.0331 17.7642 13.5921 17.7642 12C17.7642 10.408 17.1191 8.96692 16.0761 7.92409C15.0329 6.88101 13.5919 6.23587 12 6.23587C10.4082 6.23587 8.9669 6.88101 7.92398 7.92409C6.8809 8.967 6.23577 10.4082 6.23577 12C6.23577 13.5919 6.8809 15.0331 7.92398 16.0763C8.96706 17.1192 10.4082 17.7644 12 17.7644ZM12 21.188C9.46309 21.188 7.16626 20.1595 5.50343 18.4966C3.84068 16.8339 2.81219 14.537 2.81219 12C2.81219 9.46295 3.84068 7.1662 5.50343 5.50337C7.16617 3.84062 9.46309 2.81213 12 2.81213C14.537 2.81213 16.8338 3.84062 18.4967 5.50337C20.1594 7.16611 21.1879 9.46303 21.1879 12C21.1879 14.5369 20.1594 16.8339 18.4967 18.4966C16.834 20.1594 14.537 21.188 12 21.188Z" fill="#CC2229"></path>
    <path fill-rule="evenodd" clip-rule="evenodd" d="M3.90573 9.19475L4.48995 7.86574L4.90529 8.04831L4.55869 8.8367L4.89622 8.98498L5.19245 8.31141L5.58273 8.48302L5.28658 9.15659L6.07612 9.50368L5.83849 10.0443L3.90573 9.19475ZM6.69628 6.98199L7.15943 6.69977C7.25982 6.82942 7.32724 6.95726 7.36178 7.08345C7.39623 7.20956 7.39887 7.33229 7.37002 7.45164C7.34109 7.57107 7.27202 7.6957 7.16264 7.82568C7.02911 7.98443 6.89493 8.09232 6.75983 8.14928C6.62474 8.2064 6.46236 8.2172 6.27254 8.18167C6.08288 8.14631 5.8877 8.04419 5.68716 7.87547C5.41978 7.65053 5.26804 7.41397 5.23185 7.16522C5.19575 6.91671 5.2762 6.6752 5.47335 6.44087C5.62716 6.25797 5.78929 6.14884 5.95958 6.11324C6.12995 6.07771 6.322 6.10598 6.53564 6.19789L6.30015 6.6771C6.23908 6.64965 6.19078 6.63416 6.15509 6.63028C6.0992 6.62287 6.04241 6.62896 5.98941 6.64817C5.9374 6.66787 5.89141 6.70092 5.85622 6.74395C5.77041 6.84607 5.75005 6.9627 5.79547 7.09359C5.82852 7.19159 5.91737 7.30138 6.06211 7.4232C6.24138 7.57396 6.38497 7.65276 6.4927 7.65935C6.60059 7.66611 6.69167 7.62539 6.76585 7.5372C6.83814 7.45123 6.86599 7.36369 6.84943 7.27443C6.83261 7.18516 6.78168 7.08766 6.69637 6.98207L6.69628 6.98199ZM8.41804 4.71697L8.65394 4.6094C8.73431 4.57273 8.79819 4.56259 8.84533 4.57916C8.8924 4.59564 8.92874 4.63182 8.95438 4.68779C8.98183 4.74804 8.98652 4.80178 8.96831 4.8486C8.95001 4.8955 8.89932 4.93778 8.81648 4.9757L8.58438 5.08153L8.41804 4.71697ZM8.57688 6.49585L9.49978 6.07499C9.5391 6.05702 9.61501 6.01177 9.72768 5.93924C9.81167 5.88517 9.86995 5.83316 9.90218 5.7837C9.9527 5.70474 9.98073 5.61589 9.98641 5.51723C9.99218 5.41856 9.97215 5.31933 9.9269 5.21976C9.87102 5.09736 9.79544 5.00916 9.69999 4.95509C9.60454 4.90102 9.48717 4.88561 9.34804 4.90902C9.41488 4.84052 9.45741 4.76931 9.47555 4.69554C9.50217 4.58525 9.48964 4.47332 9.4378 4.35958C9.37598 4.22415 9.27938 4.13101 9.14791 4.07999C9.01644 4.02897 8.86775 4.04142 8.70167 4.11717L7.70013 4.57405L8.57696 6.49593L8.57688 6.49585ZM8.75112 5.44725L9.02246 5.32353C9.11601 5.28092 9.18921 5.26839 9.24212 5.28586C9.29496 5.30342 9.33435 5.34059 9.36024 5.39738C9.38818 5.45862 9.39147 5.51591 9.37062 5.56932C9.34952 5.62273 9.29314 5.67037 9.20132 5.71216L8.92874 5.83662L8.7512 5.44725H8.75112ZM10.8617 4.85157L10.9721 4.07249L11.2773 4.79816L10.8618 4.85157H10.8617ZM11.5939 5.56891L12.2037 5.49052L11.2267 3.48835L10.5912 3.56995L10.1518 5.75411L10.7472 5.67771L10.7943 5.32048L11.4569 5.2355L11.5939 5.56907L11.5939 5.56891ZM12.2244 3.40082L12.8702 3.49519L13.146 4.25622L13.6299 3.60638L14.2713 3.70027L13.3623 4.80764L13.2343 5.68282L12.6514 5.59742L12.7794 4.72233L12.2244 3.40082ZM14.9568 3.95158L16.3775 4.62399L16.1848 5.03117L15.2949 4.60998L15.1514 4.91306L15.9777 5.30408L15.7934 5.69312L14.9673 5.30218L14.7894 5.67812L15.7053 6.1115L15.5009 6.54341L14.0542 5.85879L14.9568 3.95158H14.9568ZM17.2724 5.82821L17.4632 6.00139C17.5427 6.07351 17.5848 6.13631 17.5891 6.1894C17.5933 6.24256 17.5727 6.29424 17.5269 6.34477C17.4981 6.37749 17.4597 6.40048 17.4174 6.4107C17.3785 6.42101 17.337 6.41549 17.3021 6.39546C17.2324 6.35804 17.1876 6.33034 17.1676 6.31229L16.9843 6.14588L17.2724 5.8283V5.82821ZM16.141 7.07537L16.7164 6.44112L16.7548 6.47598C16.7945 6.512 16.8192 6.55627 16.8285 6.60885C16.8351 6.64858 16.825 6.71254 16.798 6.80074L16.5972 7.48923L17.0885 7.93514L17.2896 7.29149C17.2997 7.2591 17.3087 7.20824 17.3163 7.13892C17.3242 7.06952 17.3257 7.02114 17.3209 6.99353C17.3148 6.95314 17.2949 6.89965 17.2602 6.83338C17.3397 6.87574 17.4093 6.90113 17.4687 6.90995C17.5617 6.9238 17.6567 6.91407 17.7449 6.88159C17.8356 6.84895 17.9202 6.78936 17.9986 6.70265C18.0889 6.60317 18.1434 6.49898 18.1627 6.3901C18.1819 6.28105 18.1675 6.18165 18.1198 6.09164C18.0721 6.00163 17.9809 5.89572 17.8466 5.77373L17.1228 5.11706L15.7051 6.67998L16.141 7.07554L16.141 7.07537ZM18.9679 6.97704L19.2401 7.45387L18.5807 8.65553L19.5956 8.07568L19.8699 8.55613L18.0356 9.6044L17.7612 9.12386L18.415 7.9302L17.4078 8.50577L17.1334 8.02531L18.9678 6.97704H18.9679ZM5.49718 12.5045L5.67859 13.2471L4.5127 13.8357L5.8183 13.8192L5.99939 14.5607L3.96812 15.0566L3.85537 14.5954L5.40445 14.217L3.76816 14.2378L3.66587 13.8194L5.12808 13.085L3.579 13.4633L3.46591 13.0004L5.49718 12.5047V12.5045ZM6.83237 15.8504L7.15646 16.3313L6.12376 17.0274C6.02576 17.0943 5.91812 17.1457 5.80454 17.1798C5.6978 17.2122 5.5852 17.2209 5.47476 17.2055C5.3653 17.1899 5.27414 17.1579 5.20144 17.1095C5.09964 17.0418 5.00444 16.9421 4.91575 16.8104C4.86028 16.7271 4.81033 16.6402 4.76624 16.5505C4.71752 16.4528 4.69032 16.3619 4.6848 16.278C4.67928 16.1941 4.69206 16.1055 4.72321 16.0124C4.75445 15.9193 4.79781 15.8402 4.85361 15.7749C4.94361 15.6707 5.0314 15.59 5.11638 15.5324L6.14907 14.8365L6.47316 15.3174L5.41566 16.0302C5.32103 16.0937 5.26326 16.1671 5.24191 16.2503C5.22056 16.3334 5.23803 16.4167 5.29441 16.5002C5.35013 16.5828 5.42011 16.6302 5.50435 16.6421C5.58858 16.654 5.67867 16.6277 5.77478 16.563L6.83228 15.8502L6.83237 15.8504ZM7.40142 16.5898L7.83456 16.9171L7.70244 18.2661L8.39942 17.3443L8.83602 17.6741L7.57608 19.3408L7.13948 19.0109L7.26979 17.6711L6.578 18.5862L6.1414 18.2563L7.40134 16.5898H7.40142ZM9.94792 19.3999L10.3756 19.7242C10.2925 19.8637 10.1992 19.972 10.0955 20.0495C9.99177 20.1268 9.87984 20.174 9.75942 20.1906C9.63908 20.2071 9.49912 20.1887 9.33971 20.1351C9.14519 20.0696 8.99716 19.9852 8.89578 19.8814C8.79439 19.7776 8.72557 19.6319 8.68947 19.4444C8.65337 19.2569 8.67653 19.0402 8.75928 18.7942C8.8694 18.4664 9.03252 18.2409 9.24839 18.1175C9.46434 17.9941 9.7159 17.9808 10.0032 18.0774C10.2274 18.1528 10.3867 18.2624 10.4812 18.4065C10.5756 18.5506 10.6191 18.7377 10.6119 18.9677L10.0852 18.9243C10.0885 18.8583 10.0852 18.808 10.0758 18.7738C10.0624 18.7197 10.0362 18.6696 9.99935 18.6279C9.96226 18.5872 9.9152 18.5567 9.86286 18.5398C9.73766 18.4977 9.62284 18.5214 9.51874 18.6107C9.44052 18.6765 9.37153 18.7982 9.31177 18.9755C9.23792 19.1951 9.21723 19.3562 9.25028 19.4578C9.28317 19.5594 9.35372 19.6287 9.46186 19.665C9.5672 19.7005 9.65795 19.6944 9.73403 19.6469C9.81011 19.5993 9.88157 19.5169 9.94809 19.4L9.94792 19.3999ZM11.0842 18.4295L11.6658 18.43L11.665 19.1614L12.2992 19.1621L12.3001 18.4309L12.8844 18.4315L12.8819 20.5212L12.2974 20.5205L12.2985 19.6753L11.6643 19.6745L11.6633 20.5197L11.0817 20.519L11.0841 18.4295H11.0842ZM13.2531 18.356L14.7334 17.8789L14.8702 18.3032L13.9429 18.6022L14.0448 18.9182L14.9057 18.6407L15.0364 19.0459L14.1754 19.3235L14.3017 19.7154L15.256 19.4076L15.4011 19.8578L13.8937 20.3437L13.2531 18.3562V18.356ZM15.0302 17.7404L15.4705 17.4223L16.7222 17.9442L16.0447 17.0072L16.4883 16.6862L17.7129 18.3802L17.2693 18.7009L16.0261 18.1835L16.6984 19.1137L16.2548 19.4344L15.0302 17.7404ZM17.3451 15.6516L18.0682 14.2744L18.463 14.4818L18.0099 15.3443L18.3037 15.4986L18.7241 14.6976L19.1015 14.8956L18.6809 15.6965L19.0453 15.8878L19.5115 15L19.9302 15.2199L19.1939 16.6221L17.3451 15.6516ZM18.1458 14.1447L18.254 13.5456L19.8093 13.3958L18.403 12.7193L18.5077 12.1384L20.4404 13.1967L20.3289 13.8154L18.1458 14.1447V14.1447Z" fill="white"></path>
    <path fill-rule="evenodd" clip-rule="evenodd" d="M6.51834 15.3964L6.77312 15.7735L6.172 15.8956L6.51834 15.3964Z" fill="white"></path>
    <path fill-rule="evenodd" clip-rule="evenodd" d="M12 17.5284C15.053 17.5284 17.5283 15.0532 17.5283 12C17.5283 8.94686 15.0531 6.47174 12 6.47174C8.94696 6.47174 6.47168 8.94686 6.47168 12C6.47168 15.0532 8.94688 17.5284 12 17.5284Z" fill="#346BA5"></path>
    <path fill-rule="evenodd" clip-rule="evenodd" d="M12.2447 7.11476V9.38357L13.3722 11.2747V9.05486L12.2447 7.11476ZM10.859 7.60386V9.87267L11.9865 11.7638V9.54396L10.859 7.60386ZM9.47325 8.09297V10.3618L10.6009 12.2529V10.0331L9.47325 8.09297ZM8.08745 8.58207V10.8509L9.21509 12.7419V10.522L8.08745 8.58207ZM6.70181 10.5465V11.3399L7.82929 13.2311V11.0111L7.08987 9.63232L6.70181 10.5466V10.5465ZM13.6305 6.62573V8.89454L14.758 10.7857V8.56575L13.6305 6.62581V6.62573ZM15.016 7.45443L16.1438 8.53039V10.3454L15.016 8.40544V7.45443ZM11.8073 16.7524V14.5324L10.6796 12.5926V14.8614L11.8073 16.7524ZM13.1928 16.2634V14.0435L12.0653 12.1034V14.372L13.1928 16.2634V16.2634ZM14.5786 15.7742V13.5543L13.4511 11.6145V13.8831L14.5786 15.7742ZM15.9644 15.2851V13.0653L14.8369 11.1252V13.3941L15.9644 15.2851V15.2851ZM17.3502 13.3206V12.3641L16.2227 10.6362V12.9049L16.9621 14.0719L17.3502 13.3206ZM10.4215 17.1924V15.0217L9.29406 13.0815V15.3994L10.4215 17.1924ZM9.0359 16.5269L7.90826 15.5486V13.5705L9.0359 15.5595V16.5269Z" fill="white"></path>
    <path d="M12.0001 17.284C13.4591 17.284 14.7801 16.6925 15.7363 15.7364C16.6924 14.7802 17.2839 13.4592 17.2839 12.0001C17.2839 10.5411 16.6924 9.22006 15.7363 8.26394C14.7801 7.30782 13.4591 6.71642 12.0001 6.71642C10.541 6.71642 9.21997 7.30782 8.26385 8.26394C7.30772 9.22006 6.71633 10.5411 6.71633 12.0001C6.71633 13.4592 7.30772 14.7803 8.26385 15.7364C9.21997 16.6924 10.541 17.284 12.0001 17.284ZM12.0001 17.7729C10.4061 17.7729 8.96272 17.1267 7.91799 16.0821C6.87335 15.0376 6.22714 13.5941 6.22714 12.0001C6.22714 10.406 6.87335 8.96273 7.91799 7.91809C8.96264 6.87344 10.4061 6.22723 12.0001 6.22723C13.5941 6.22723 15.0375 6.87344 16.082 7.91809C17.1266 8.96273 17.7728 10.4061 17.7728 12.0001C17.7728 13.5941 17.1266 15.0375 16.082 16.0821C15.0375 17.1268 13.5941 17.7729 12.0001 17.7729Z" fill="white"></path>
  </g>
  <defs>
    <clipPath id="clip0_404_607">
      <rect width="20" height="20.0002" fill="white" transform="translate(2 2)"></rect>
    </clipPath>
  </defs>
</svg>
