<?xml version="1.0" encoding="UTF-8"?>
<svg xmlns="http://www.w3.org/2000/svg" width="28" height="28" viewBox="0 0 28 28" fill="none">
  <g clip-path="url(#clip0_404_607)">
    <path fill-rule="evenodd" clip-rule="evenodd" d="M13.5 26.2963C20.2909 26.2963 25.7962 20.791 25.7962 14.0001C25.7962 7.20912 20.2909 1.7038 13.5 1.7038C6.70921 1.7039 1.20389 7.20922 1.20389 14.0001C1.20389 20.7909 6.70921 26.2962 13.5 26.2962V26.2963Z" fill="white"></path>
    <path d="M13.5001 26.0925C16.8393 26.0925 19.8624 24.739 22.0507 22.5509C24.2389 20.3624 25.5924 17.3394 25.5924 14.0002C25.5924 10.6609 24.2389 7.63772 22.0507 5.44957C19.8623 3.2613 16.8393 1.90779 13.5001 1.90779C10.1608 1.90779 7.13762 3.2612 4.94946 5.44946C2.7612 7.63762 1.40769 10.661 1.40769 14.0001C1.40769 17.3391 2.7612 20.3624 4.94946 22.5507C7.13762 24.7389 10.1609 26.0924 13.5001 26.0924V26.0925ZM13.5001 26.5002C10.0484 26.5002 6.92332 25.101 4.66118 22.839C2.39925 20.5767 1 17.452 1 14.0001C1 10.5481 2.39925 7.42342 4.66129 5.16129C6.92342 2.89936 10.0486 1.5 13.5001 1.5C16.9515 1.5 20.0768 2.89925 22.3389 5.16129C24.6011 7.42332 26.0001 10.5483 26.0001 14C26.0001 17.4516 24.6008 20.5766 22.3389 22.8386C20.077 25.101 16.9519 26.5001 13.5001 26.5001V26.5002Z" fill="#346BA5"></path>
    <path d="M13.5 21.2055C15.4899 21.2055 17.2914 20.399 18.5951 19.0953C19.8987 17.7913 20.7053 15.9901 20.7053 14C20.7053 12.01 19.8989 10.2086 18.5951 8.90508C17.2912 7.60123 15.4899 6.79481 13.5 6.79481C11.5102 6.79481 9.70864 7.60123 8.40499 8.90508C7.10114 10.2087 6.29473 12.0102 6.29473 14C6.29473 15.9899 7.10114 17.7913 8.40499 19.0953C9.70884 20.3989 11.5102 21.2055 13.5 21.2055ZM13.5 25.4849C10.3289 25.4849 7.45784 24.1993 5.3793 22.1207C3.30087 20.0423 2.01526 17.1712 2.01526 13.9999C2.01526 10.8287 3.30087 7.95771 5.3793 5.87918C7.45773 3.80075 10.3289 2.51514 13.5 2.51514C16.6712 2.51514 19.5423 3.80075 21.6209 5.87918C23.6992 7.95761 24.9848 10.8288 24.9848 13.9999C24.9848 17.1711 23.6992 20.0423 21.6209 22.1207C19.5425 24.1992 16.6712 25.4849 13.5 25.4849Z" fill="#CC2229"></path>
    <path fill-rule="evenodd" clip-rule="evenodd" d="M3.38217 10.4934L4.11245 8.83213L4.63162 9.06034L4.19837 10.0458L4.62028 10.2312L4.99057 9.38922L5.47842 9.60372L5.10823 10.4457L6.09516 10.8795L5.79813 11.5553L3.38217 10.4934ZM6.87036 7.72744L7.44929 7.37466C7.57478 7.53673 7.65906 7.69653 7.70223 7.85427C7.7453 8.01191 7.74859 8.16532 7.71253 8.31451C7.67637 8.4638 7.59003 8.61958 7.45331 8.78206C7.2864 8.98049 7.11866 9.11536 6.9498 9.18655C6.78093 9.25796 6.57796 9.27145 6.34068 9.22705C6.10361 9.18285 5.85963 9.05519 5.60896 8.84429C5.27473 8.56312 5.08505 8.26742 5.03982 7.95648C4.99469 7.64584 5.09525 7.34396 5.3417 7.05105C5.53396 6.82242 5.73662 6.68601 5.94948 6.6415C6.16244 6.59709 6.4025 6.63243 6.66956 6.74731L6.3752 7.34633C6.29885 7.31202 6.23848 7.29265 6.19386 7.28781C6.12401 7.27854 6.05302 7.28616 5.98677 7.31017C5.92176 7.33479 5.86427 7.37611 5.82028 7.42989C5.71302 7.55754 5.68757 7.70333 5.74434 7.86694C5.78566 7.98945 5.89673 8.12668 6.07765 8.27896C6.30174 8.4674 6.48122 8.5659 6.61588 8.57414C6.75074 8.58259 6.86459 8.53169 6.95732 8.42145C7.04768 8.31399 7.0825 8.20457 7.06179 8.09299C7.04077 7.98141 6.9771 7.85952 6.87047 7.72754L6.87036 7.72744ZM9.02256 4.89617L9.31744 4.76171C9.41789 4.71586 9.49774 4.70319 9.55667 4.7239C9.6155 4.7445 9.66094 4.78973 9.69298 4.85969C9.72729 4.93501 9.73316 5.00218 9.71039 5.0607C9.68752 5.11933 9.62416 5.17218 9.52061 5.21958L9.23048 5.35187L9.02256 4.89617ZM9.2211 7.11977L10.3747 6.59369C10.4239 6.57123 10.5188 6.51467 10.6596 6.424C10.7646 6.35641 10.8374 6.2914 10.8777 6.22958C10.9409 6.13088 10.9759 6.01981 10.983 5.89649C10.9902 5.77316 10.9652 5.64911 10.9086 5.52465C10.8388 5.37165 10.7443 5.26141 10.625 5.19382C10.5057 5.12623 10.359 5.10697 10.1851 5.13623C10.2686 5.05061 10.3218 4.96159 10.3444 4.86938C10.3777 4.73152 10.3621 4.59161 10.2973 4.44943C10.22 4.28015 10.0992 4.16372 9.9349 4.09995C9.77056 4.03617 9.5847 4.05173 9.37709 4.14641L8.12517 4.71751L9.2212 7.11987L9.2211 7.11977ZM9.43891 5.80901L9.77808 5.65437C9.89502 5.6011 9.98651 5.58544 10.0527 5.60728C10.1187 5.62923 10.168 5.67569 10.2003 5.74668C10.2352 5.82323 10.2394 5.89484 10.2133 5.9616C10.1869 6.02837 10.1164 6.08792 10.0017 6.14015L9.66094 6.29573L9.43901 5.80901H9.43891ZM12.0771 5.06441L12.2152 4.09057L12.5966 4.99765L12.0772 5.06441H12.0771ZM12.9923 5.96109L13.7546 5.86311L12.5333 3.36039L11.7391 3.46239L11.1898 6.1926L11.934 6.09709L11.9928 5.65055L12.8211 5.54433L12.9924 5.96129L12.9923 5.96109ZM13.7805 3.25098L14.5877 3.36895L14.9325 4.32023L15.5374 3.50793L16.3392 3.62529L15.2028 5.0095L15.0429 6.10347L14.3143 5.99674L14.4742 4.90286L13.7805 3.25098ZM17.1961 3.93943L18.9719 4.77995L18.731 5.28892L17.6187 4.76243L17.4393 5.14127L18.4721 5.63005L18.2418 6.11635L17.2091 5.62768L16.9868 6.0976L18.1317 6.63934L17.8762 7.17921L16.0678 6.32344L17.196 3.93943H17.1961ZM20.0905 6.28522L20.329 6.50169C20.4284 6.59184 20.481 6.67035 20.4864 6.7367C20.4917 6.80315 20.4658 6.86775 20.4087 6.93091C20.3726 6.97181 20.3247 7.00056 20.2717 7.01334C20.2231 7.02621 20.1713 7.01931 20.1277 6.99428C20.0405 6.9475 19.9845 6.91288 19.9595 6.89032L19.7304 6.6823L20.0905 6.28532V6.28522ZM18.6762 7.84417L19.3956 7.05135L19.4436 7.09494C19.4931 7.13996 19.524 7.19529 19.5357 7.26102C19.5439 7.31068 19.5312 7.39063 19.4976 7.50088L19.2465 8.36149L19.8606 8.91888L20.112 8.11432C20.1246 8.07383 20.1358 8.01026 20.1454 7.92361C20.1553 7.83686 20.1572 7.77638 20.1512 7.74186C20.1436 7.69138 20.1186 7.62451 20.0752 7.54168C20.1747 7.59463 20.2616 7.62637 20.3359 7.63739C20.4521 7.6547 20.5709 7.64254 20.6812 7.60195C20.7945 7.56115 20.9002 7.48666 20.9983 7.37827C21.1111 7.25391 21.1793 7.12368 21.2034 6.98758C21.2274 6.85127 21.2094 6.72701 21.1497 6.61451C21.0901 6.502 20.9761 6.3696 20.8083 6.21712L19.9035 5.39627L18.1314 7.34994L18.6763 7.84438L18.6762 7.84417ZM22.2098 7.72126L22.5501 8.31729L21.7259 9.81937L22.9945 9.09455L23.3374 9.69511L21.0446 11.0055L20.7016 10.4048L21.5188 8.9127L20.2598 9.63216L19.9168 9.0316L22.2097 7.72126H22.2098ZM5.37148 14.6306L5.59825 15.5589L4.14088 16.2946L5.77288 16.274L5.99924 17.2008L3.46016 17.8207L3.31922 17.2441L5.25557 16.7712L3.21021 16.7972L3.08235 16.2742L4.91011 15.3562L2.97376 15.8291L2.8324 15.2505L5.37148 14.6308V14.6306ZM7.04047 18.813L7.44558 19.4141L6.15471 20.2843C6.03221 20.3678 5.89765 20.4321 5.75568 20.4748C5.62225 20.5152 5.48151 20.5261 5.34345 20.5068C5.20663 20.4873 5.09268 20.4474 5.0018 20.3868C4.87456 20.3022 4.75556 20.1775 4.6447 20.013C4.57536 19.9088 4.51292 19.8002 4.4578 19.688C4.39691 19.5659 4.36291 19.4523 4.35601 19.3474C4.34911 19.2425 4.36508 19.1319 4.40402 19.0154C4.44307 18.899 4.49726 18.8002 4.56702 18.7186C4.67952 18.5883 4.78925 18.4874 4.89548 18.4155L6.18634 17.5456L6.59146 18.1467L5.26958 19.0377C5.1513 19.117 5.07908 19.2088 5.05239 19.3128C5.02571 19.4166 5.04755 19.5208 5.11802 19.6252C5.18767 19.7285 5.27514 19.7878 5.38044 19.8026C5.48574 19.8174 5.59835 19.7846 5.71848 19.7037L7.04036 18.8127L7.04047 18.813ZM7.75179 19.7372L8.29321 20.1463L8.12805 21.8326L8.99928 20.6803L9.54503 21.0926L7.97011 23.1759L7.42436 22.7636L7.58725 21.0888L6.72251 22.2327L6.17676 21.8203L7.75168 19.7372H7.75179ZM10.9349 23.2499L11.4695 23.6552C11.3657 23.8296 11.249 23.9649 11.1194 24.0619C10.9897 24.1585 10.8498 24.2174 10.6993 24.2383C10.5489 24.2589 10.3739 24.2359 10.1746 24.1688C9.9315 24.0869 9.74645 23.9815 9.61973 23.8517C9.493 23.722 9.40697 23.5398 9.36184 23.3054C9.31671 23.071 9.34567 22.8002 9.44911 22.4927C9.58676 22.083 9.79065 21.8011 10.0605 21.6468C10.3304 21.4926 10.6449 21.4759 11.004 21.5968C11.2843 21.6909 11.4833 21.828 11.6015 22.0081C11.7195 22.1882 11.7739 22.422 11.7649 22.7096L11.1066 22.6553C11.1106 22.5729 11.1066 22.5099 11.0947 22.4672C11.078 22.3996 11.0453 22.3369 10.9992 22.2848C10.9528 22.2339 10.894 22.1959 10.8286 22.1747C10.6721 22.1221 10.5286 22.1517 10.3984 22.2634C10.3007 22.3456 10.2144 22.4978 10.1397 22.7193C10.0474 22.9939 10.0215 23.1952 10.0629 23.3222C10.104 23.4493 10.1922 23.5358 10.3273 23.5812C10.459 23.6256 10.5724 23.618 10.6675 23.5586C10.7626 23.4991 10.852 23.3961 10.9351 23.25L10.9349 23.2499ZM12.3553 22.0368L13.0823 22.0374L13.0812 22.9517L13.8741 22.9525L13.8751 22.0386L14.6055 22.0394L14.6024 24.6514L13.8718 24.6506L13.8731 23.5941L13.0804 23.5931L13.0792 24.6496L12.3521 24.6487L12.3552 22.0368H12.3553ZM15.0664 21.9449L16.9167 21.3486L17.0878 21.879L15.9287 22.2528L16.056 22.6477L17.1322 22.3008L17.2955 22.8074L16.2192 23.1543L16.3771 23.6442L17.5701 23.2595L17.7514 23.8222L15.8671 24.4296L15.0664 21.9452V21.9449ZM17.2878 21.1755L17.8381 20.7778L19.4028 21.4302L18.5559 20.2589L19.1104 19.8577L20.6411 21.9752L20.0866 22.3761L18.5326 21.7294L19.373 22.8921L18.8185 23.293L17.2878 21.1755ZM20.1814 18.5645L21.0852 16.8429L21.5788 17.1022L21.0124 18.1803L21.3796 18.3733L21.9052 17.372L22.3768 17.6195L21.8512 18.6206L22.3066 18.8597L22.8894 17.7499L23.4127 18.0248L22.4924 19.7776L20.1814 18.5645ZM21.1822 16.6808L21.3175 15.932L23.2617 15.7446L21.5038 14.8991L21.6346 14.1729L24.0506 15.4958L23.9112 16.2692L21.1822 16.6809V16.6808Z" fill="white"></path>
    <path fill-rule="evenodd" clip-rule="evenodd" d="M6.64793 18.2454L6.9664 18.7169L6.215 18.8695L6.64793 18.2454Z" fill="white"></path>
    <path fill-rule="evenodd" clip-rule="evenodd" d="M13.5 20.9105C17.3163 20.9105 20.4104 17.8165 20.4104 14.0001C20.4104 10.1836 17.3164 7.08972 13.5 7.08972C9.6837 7.08972 6.5896 10.1836 6.5896 14.0001C6.5896 17.8165 9.6836 20.9105 13.5 20.9105Z" fill="#346BA5"></path>
    <path fill-rule="evenodd" clip-rule="evenodd" d="M13.8058 7.89344V10.7295L15.2152 13.0934V10.3186L13.8058 7.89344ZM12.0738 8.50483V11.3408L13.4832 13.7048V10.93L12.0738 8.50483ZM10.3415 9.11621V11.9522L11.7511 14.3162V11.5413L10.3415 9.11621ZM8.6093 9.72759V12.5636L10.0189 14.9273V12.1525L8.6093 9.72759ZM6.87726 12.1831V13.1749L8.28661 15.5389V12.7639L7.36233 11.0404L6.87726 12.1832V12.1831ZM15.5381 7.28217V10.1182L16.9474 12.4821V9.70719L15.5381 7.28227V7.28217ZM17.27 8.31803L18.6797 9.66299V11.9317L17.27 9.5068V8.31803ZM13.2591 19.9405V17.1656L11.8495 14.7407V17.5768L13.2591 19.9405ZM14.991 19.3293V16.5544L13.5816 14.1293V16.9651L14.991 19.3292V19.3293ZM16.7232 18.7178V15.9429L15.3139 13.5181V16.3539L16.7232 18.7178ZM18.4555 18.1064V15.3316L17.0461 12.9065V15.7426L18.4555 18.1063V18.1064ZM20.1877 15.6507V14.4551L18.7784 12.2953V15.1311L19.7026 16.5898L20.1877 15.6507ZM11.5269 20.4906V17.7771L10.1176 15.3519V18.2492L11.5269 20.4906ZM9.79487 19.6586L8.38531 18.4357V15.9631L9.79487 18.4494V19.6586Z" fill="white"></path>
    <path d="M13.5 20.6049C15.3239 20.6049 16.9752 19.8656 18.1703 18.6704C19.3655 17.4752 20.1048 15.824 20.1048 14.0001C20.1048 12.1763 19.3655 10.525 18.1703 9.32988C16.9752 8.13472 15.3239 7.39548 13.5 7.39548C11.6762 7.39548 10.0249 8.13472 8.82978 9.32988C7.63463 10.525 6.89539 12.1763 6.89539 14.0001C6.89539 15.824 7.63463 17.4754 8.82978 18.6704C10.0249 19.8655 11.6762 20.6049 13.5 20.6049ZM13.5 21.2161C11.5075 21.2161 9.70338 20.4083 8.39747 19.1026C7.09166 17.7969 6.28391 15.9926 6.28391 14C6.28391 12.0074 7.09166 10.2034 8.39747 8.89756C9.70328 7.59175 11.5075 6.784 13.5 6.784C15.4925 6.784 17.2968 7.59175 18.6025 8.89756C19.9082 10.2034 20.716 12.0075 20.716 14C20.716 15.9925 19.9082 17.7968 18.6025 19.1026C17.2968 20.4084 15.4925 21.2161 13.5 21.2161Z" fill="white"></path>
  </g>
  <defs>
    <clipPath id="clip0_404_607">
      <rect width="25" height="25.0002" fill="white" transform="translate(1 1.5)"></rect>
    </clipPath>
  </defs>
</svg>
