<?xml version="1.0" encoding="UTF-8"?>
<svg xmlns="http://www.w3.org/2000/svg" width="30" height="30" viewBox="0 0 30 30" fill="none">
  <g clip-path="url(#clip0_404_562)">
    <path d="M15 21.1274C18.8841 21.1274 22.0328 18.1286 22.0328 14.4295C22.0328 10.7303 18.8841 7.73157 15 7.73157C11.1159 7.73157 7.96719 10.7303 7.96719 14.4295C7.96719 18.1286 11.1159 21.1274 15 21.1274Z" fill="white"></path>
    <path fill-rule="evenodd" clip-rule="evenodd" d="M5.28322 22.7362L5.16031 20.4974L5.63777 20.4736L5.7398 22.3316L6.92707 22.2724L6.94796 22.653L5.28322 22.7363V22.7362Z" fill="black"></path>
    <path fill-rule="evenodd" clip-rule="evenodd" d="M7.94608 22.2536L8.38607 22.3777C8.30791 22.528 8.2017 22.6371 8.06625 22.7044C7.9314 22.7724 7.7703 22.7948 7.58306 22.773C7.28699 22.7382 7.07994 22.6207 6.96132 22.4192C6.86812 22.2582 6.83578 22.0645 6.86478 21.8393C6.89951 21.5698 7.00047 21.3674 7.16777 21.2324C7.33461 21.097 7.53103 21.0427 7.75658 21.0692C8.00993 21.0989 8.19943 21.2022 8.32557 21.3794C8.45111 21.5564 8.48977 21.8088 8.44132 22.1378L7.31241 22.0057C7.29928 22.1332 7.32243 22.2369 7.38294 22.3155C7.44344 22.3946 7.52578 22.4405 7.62913 22.4526C7.69965 22.461 7.76111 22.4496 7.8141 22.4187C7.86708 22.3868 7.91147 22.332 7.94596 22.2535L7.94608 22.2536ZM8.02771 21.8219C8.0406 21.6967 8.01935 21.5981 7.96362 21.526C7.90789 21.4538 7.83379 21.412 7.74178 21.4013C7.64882 21.3883 7.55466 21.4156 7.48497 21.4756C7.41217 21.5361 7.36862 21.6254 7.35453 21.743L8.02771 21.822V21.8219ZM9.20209 23.0119L8.94623 21.2638L9.40842 21.3738L9.51009 22.2591L9.53038 22.5516C9.57251 22.4881 9.59984 22.4464 9.61153 22.426C9.63814 22.3846 9.66559 22.3432 9.69351 22.3028L10.2221 21.5676L10.6753 21.6752L9.59852 23.1061L9.20209 23.0121V23.0119ZM11.6108 23.1149L12.0251 23.3035C11.9231 23.4403 11.8004 23.5322 11.6556 23.5784C11.5112 23.6252 11.3485 23.6234 11.1672 23.5739C10.8805 23.4953 10.6953 23.3485 10.6112 23.1317C10.5456 22.9586 10.5455 22.7625 10.6108 22.5446C10.6891 22.2837 10.8221 22.099 11.0097 21.9903C11.1967 21.8816 11.3995 21.8574 11.6178 21.9169C11.8633 21.984 12.0336 22.1145 12.129 22.3081C12.2239 22.5016 12.2207 22.7569 12.1191 23.0745L11.0257 22.7751C10.9918 22.8996 10.9979 23.0053 11.0448 23.0918C11.0915 23.179 11.1653 23.2366 11.2654 23.2639C11.3337 23.2827 11.3963 23.2807 11.4536 23.2579C11.511 23.235 11.5636 23.1875 11.6106 23.1149H11.6108ZM11.7621 22.7009C11.7953 22.5792 11.7904 22.4786 11.7472 22.3992C11.7075 22.3223 11.6352 22.2654 11.5486 22.2428C11.459 22.2159 11.3615 22.2289 11.2828 22.2779C11.2011 22.3265 11.1432 22.4084 11.1101 22.5222L11.7621 22.7009ZM12.9585 23.964L12.5131 23.8812L12.8404 22.2745L13.254 22.3511L13.2076 22.5794C13.3004 22.4846 13.3787 22.4254 13.4421 22.4015C13.5069 22.3779 13.5774 22.3724 13.6453 22.3857C13.747 22.4047 13.839 22.4497 13.9222 22.5208L13.7087 22.8657C13.6434 22.8058 13.5782 22.7696 13.5138 22.7578C13.4509 22.746 13.3953 22.7524 13.3453 22.7774C13.2948 22.8018 13.2492 22.8548 13.2068 22.9361C13.1645 23.0173 13.1155 23.1946 13.0597 23.4677L12.9585 23.964ZM14.0519 24.1353L14.0934 21.8753L14.5477 21.8829L14.5258 23.0821L15.0672 22.5147L15.6264 22.5242L15.0293 23.112L15.6381 24.1617L15.1491 24.1534L14.7309 23.4112L14.5161 23.6188L14.5063 24.1428L14.052 24.1353H14.0519ZM17.3697 23.8698L17.3207 23.6291C17.2766 23.7264 17.2075 23.8116 17.12 23.8771C17.0299 23.9447 16.9297 23.9892 16.8187 24.0097C16.7054 24.0308 16.5995 24.0255 16.5001 23.9953C16.4046 23.9672 16.3215 23.9097 16.264 23.8319C16.2063 23.7533 16.1622 23.6384 16.1313 23.4869L15.9243 22.4704L16.3695 22.3877L16.5201 23.1259C16.5661 23.3521 16.6026 23.4889 16.6299 23.5369C16.6562 23.5847 16.6943 23.6193 16.7435 23.6415C16.793 23.6633 16.851 23.6674 16.918 23.655C16.9911 23.6425 17.0584 23.6085 17.1102 23.5577C17.1623 23.5065 17.1933 23.4499 17.2037 23.3868C17.2136 23.3232 17.1954 23.1767 17.1488 22.9466L17.0106 22.2688L17.4562 22.1861L17.7835 23.7931L17.3698 23.8697L17.3697 23.8698ZM18.084 23.2206L18.5026 23.0373C18.5455 23.1131 18.6018 23.1645 18.6716 23.1908C18.7408 23.2172 18.8268 23.2167 18.9295 23.1887C19.0425 23.1576 19.1214 23.1147 19.1661 23.0595C19.1957 23.0237 19.2048 22.9763 19.1906 22.9329C19.1829 22.9034 19.163 22.8781 19.1357 22.8625C19.1079 22.8487 19.0538 22.8438 18.9733 22.8477C18.5994 22.8699 18.3557 22.8632 18.243 22.8279C18.087 22.7786 17.9864 22.6781 17.941 22.5267C17.8999 22.3907 17.9217 22.2606 18.0067 22.1371C18.0916 22.013 18.2527 21.9186 18.4894 21.8537C18.7155 21.7918 18.8942 21.7815 19.0247 21.8211C19.1556 21.8614 19.262 21.9447 19.3446 22.0707L18.9552 22.2555C18.9192 22.199 18.8717 22.1613 18.8124 22.1423C18.7531 22.123 18.6785 22.1259 18.5875 22.1511C18.4723 22.1824 18.3946 22.2202 18.3541 22.2646C18.3278 22.2954 18.3198 22.3282 18.3302 22.3628C18.3394 22.3925 18.361 22.4135 18.3964 22.4262C18.4439 22.4431 18.5914 22.4452 18.8393 22.432C19.0867 22.4187 19.2673 22.436 19.3817 22.4842C19.4949 22.5334 19.5715 22.6243 19.6114 22.7563C19.6546 22.9006 19.6289 23.0421 19.5333 23.1806C19.4385 23.319 19.2672 23.4214 19.0198 23.489C18.7952 23.5506 18.6044 23.5558 18.447 23.5044C18.2902 23.4542 18.1693 23.3588 18.0841 23.2206H18.084ZM21.0083 22.3986L21.4663 22.3718C21.4466 22.5385 21.3859 22.6756 21.2828 22.7832C21.1806 22.891 21.037 22.9648 20.8533 23.0052C20.5628 23.0694 20.3261 23.0265 20.1423 22.8756C19.9971 22.7547 19.8974 22.5834 19.8439 22.3627C19.7798 22.0981 19.8021 21.8749 19.911 21.6933C20.0193 21.5116 20.1847 21.3964 20.4058 21.3474C20.6545 21.2927 20.8695 21.3281 21.0515 21.4531C21.2329 21.5784 21.3599 21.8032 21.4321 22.128L20.3239 22.3723C20.3575 22.4968 20.4165 22.5862 20.5013 22.6403C20.583 22.6943 20.6853 22.712 20.7817 22.6886C20.8509 22.6733 20.9047 22.6426 20.9434 22.5965C20.982 22.5497 21.0038 22.4838 21.0082 22.3985L21.0083 22.3986ZM20.9303 21.9666C20.8973 21.8449 20.8421 21.7593 20.764 21.7095C20.6903 21.6606 20.5979 21.6444 20.5107 21.6648C20.4187 21.683 20.3399 21.7394 20.296 21.8186C20.2495 21.899 20.2404 21.9972 20.2694 22.1123L20.9303 21.9667V21.9666Z" fill="black"></path>
    <path fill-rule="evenodd" clip-rule="evenodd" d="M15.0066 7.57914C13.1106 7.57914 11.5516 8.43052 11.5516 8.41358C11.5516 8.39665 10.2975 5.30835 10.2224 5.09389C10.2224 5.09389 12.4987 4.05499 15.0168 4.03533L14.9985 4.03351C17.5167 4.05306 19.7911 5.09378 19.7911 5.09378C19.7159 5.30824 18.4616 8.39654 18.4616 8.41347C18.4616 8.4304 16.9024 7.57903 15.0067 7.57903L15.0066 7.57914ZM15.004 21.4506C13.5826 21.4046 12.7964 21.1268 11.5203 20.6756C9.75295 20.0578 5.899 19.3713 3.87889 19.9648C3.67411 20.0249 3.65836 20.1603 3.72924 20.3558C3.82507 20.6195 4.4776 22.8215 4.61937 23.2728C4.69025 23.5132 4.74968 23.6929 5.09993 23.6183C8.49503 22.8967 9.96048 24.9492 15.0038 24.9492C20.0472 24.9492 21.5124 22.8967 24.9082 23.6183C25.2584 23.6929 25.3178 23.5132 25.3887 23.2728C25.5304 22.8215 26.1831 20.6195 26.2789 20.3558C26.3497 20.1603 26.3338 20.0251 26.1289 19.9648C24.1089 19.3716 20.2553 20.0578 18.4878 20.6756C17.2116 21.1268 16.4252 21.4046 15.004 21.4506Z" fill="#FFF22D"></path>
    <path d="M15.0037 25C12.5634 25 10.9731 24.5256 9.56999 24.107C8.11338 23.6725 6.85534 23.2973 5.11137 23.6679C5.05301 23.6803 5.00158 23.6861 4.95611 23.6861C4.68546 23.6861 4.62567 23.4834 4.56768 23.2865C4.51457 23.1174 4.39106 22.7067 4.24798 22.2314C4.02064 21.4759 3.73782 20.5356 3.67851 20.3724C3.62839 20.2341 3.62421 20.1336 3.6655 20.056C3.70034 19.9906 3.76491 19.945 3.86288 19.9161C5.01578 19.5774 6.64078 19.6745 7.80096 19.8154C9.13776 19.9779 10.57 20.2891 11.5386 20.6277C12.8189 21.0804 13.5918 21.3537 15.0038 21.3996C16.4162 21.3536 17.189 21.0804 18.4691 20.6278C19.4379 20.2892 20.87 19.9779 22.2068 19.8155C23.3669 19.6745 24.9917 19.5775 26.1445 19.9161C26.2426 19.9448 26.3072 19.9906 26.342 20.056C26.3833 20.1335 26.3793 20.234 26.3293 20.3723C26.2699 20.5357 25.9869 21.4763 25.7594 22.2321C25.6165 22.7072 25.4931 23.1174 25.4397 23.2873C25.3819 23.4834 25.3221 23.686 25.0517 23.6861C25.0062 23.6861 24.9548 23.6804 24.8964 23.6679C23.1522 23.2973 21.8941 23.6725 20.4374 24.107C19.0343 24.5256 17.444 25 15.0036 25H15.0037ZM6.50915 23.4134C6.82026 23.4134 7.1322 23.4362 7.45202 23.4814C8.17197 23.5832 8.86663 23.7904 9.60197 24.0099C10.9977 24.4263 12.5799 24.8982 15.0037 24.8982C17.4275 24.8982 19.0097 24.4263 20.4056 24.0099C21.1409 23.7905 21.8356 23.5833 22.5555 23.4814C23.356 23.3682 24.1072 23.3958 24.9198 23.5684C25.2135 23.631 25.2624 23.5121 25.3371 23.2589C25.3906 23.0887 25.514 22.6788 25.6568 22.204C25.8964 21.4076 26.168 20.5049 26.2284 20.339C26.2684 20.2286 26.2742 20.1533 26.2469 20.102C26.2259 20.0626 26.1821 20.0336 26.1133 20.0134C24.1625 19.4405 20.3772 20.0694 18.5063 20.7234C17.2157 21.1796 16.4367 21.4551 15.0059 21.5015C15.0047 21.5015 15.0035 21.5015 15.0023 21.5015C13.5719 21.4553 12.7927 21.1798 11.5018 20.7234C10.5404 20.3873 9.11711 20.0782 7.78771 19.9165C6.63803 19.7767 5.02939 19.6801 3.89474 20.0135C3.82589 20.0337 3.78221 20.0627 3.76121 20.1021C3.73388 20.1534 3.73984 20.2287 3.77982 20.3391C3.84009 20.5049 4.11158 21.4073 4.35108 22.2034C4.49405 22.6784 4.61744 23.0887 4.67066 23.2582C4.74561 23.5122 4.79441 23.6312 5.08834 23.5686C5.57606 23.4649 6.04195 23.4135 6.50939 23.4135L6.50915 23.4134ZM11.551 8.46498C11.5421 8.46498 11.5329 8.46282 11.5233 8.45713C11.5115 8.45009 11.503 8.43895 11.4996 8.42622C11.4852 8.38383 11.2433 7.78419 10.9875 7.14944C10.625 6.25067 10.2143 5.232 10.1716 5.11005C10.1631 5.08573 10.1749 5.05914 10.1991 5.048C10.2049 5.04538 10.7818 4.78364 11.6592 4.52337C12.4622 4.28516 13.688 3.99955 14.9831 3.98477C14.9881 3.98341 14.9931 3.98273 14.9987 3.98273C16.306 3.99296 17.5454 4.28186 18.3548 4.52258C19.2318 4.7833 19.8083 5.0455 19.814 5.04811C19.8384 5.05925 19.8502 5.08584 19.8416 5.11017C19.7989 5.23177 19.3895 6.24692 19.0283 7.14251C18.771 7.78056 18.5278 8.38349 18.5131 8.42633C18.5098 8.43895 18.5013 8.4502 18.4895 8.45725C18.4636 8.47259 18.4406 8.46225 18.4203 8.45316C18.4088 8.44804 18.3924 8.44031 18.3709 8.43031C17.2512 7.90694 16.0877 7.63019 15.0064 7.63019C13.9249 7.63019 12.7614 7.90683 11.6418 8.43031C11.6204 8.44031 11.6038 8.44804 11.5924 8.45316C11.5796 8.45884 11.5658 8.46509 11.5508 8.46509L11.551 8.46498ZM15.0064 7.52847C16.1041 7.52847 17.2837 7.80874 18.418 8.33893C18.4223 8.34098 18.4266 8.34303 18.4308 8.34496C18.4729 8.23608 18.5919 7.94069 18.9284 7.10603C19.2454 6.32012 19.6339 5.35657 19.7241 5.12073C19.5752 5.05584 19.0543 4.83717 18.3209 4.6193C17.5254 4.3829 16.3111 4.09945 15.0294 4.08501C15.0254 4.08592 15.0212 4.08649 15.0171 4.08649C13.7236 4.09661 12.4954 4.38233 11.693 4.62021C10.9592 4.83774 10.4379 5.05607 10.2889 5.12073C10.3791 5.35702 10.7691 6.32421 11.0872 7.11307C11.4216 7.94217 11.54 8.23631 11.582 8.34484C11.5862 8.34291 11.5905 8.34087 11.5948 8.33882C12.7289 7.80863 13.9087 7.52836 15.0066 7.52836L15.0064 7.52847Z" fill="black"></path>
    <path fill-rule="evenodd" clip-rule="evenodd" d="M4.27268 10.9279C4.27268 10.9959 4.22674 11.3587 4.09857 11.5356C3.97017 11.7127 3.42063 12.7001 3.22874 12.9566C2.79686 13.5335 2.56022 13.9637 2.66571 14.4765C2.66571 14.4765 1.59419 14.6166 1.19227 13.5679C0.864815 12.7138 1.5603 11.7501 1.909 11.2568C2.62347 10.2463 2.24135 8.91808 2.22262 8.90626C2.22262 8.90626 2.5311 8.79204 2.56034 8.3455C2.57537 8.11774 2.49434 7.86463 2.25615 7.62789C2.02201 7.39547 1.68167 7.34217 1.33989 7.35729C1.05468 7.36979 0.83689 7.52242 0.664928 7.61732C0.493084 7.71211 0.499528 7.80349 0.562418 7.83531C0.625428 7.86702 0.755623 8.0483 0.846079 8.15843C0.936655 8.26901 0.942861 8.35459 0.989879 8.55371C1.05086 8.81193 1.41937 8.95047 1.69921 8.93672C1.69921 8.93672 2.13288 10.0456 1.40433 11.0992C1.12449 11.5036 0.328282 12.4554 0.620654 13.5735C1.06625 15.2781 2.92312 15.0552 2.92312 15.0552C3.07121 15.2004 3.21597 15.3485 3.35738 15.4995C3.3433 15.595 3.69498 16.2704 2.81786 16.8969C2.5317 17.1013 2.45425 17.3728 2.78624 17.6037C5.05493 19.1825 4.47532 19.6815 4.8659 19.719C4.96853 19.7288 5.19145 19.694 5.41198 19.5635C5.7429 19.7991 6.20795 19.7454 6.35724 19.5986C7.06621 19.9246 7.26598 19.4283 7.15452 19.2218C7.15452 19.2218 7.90658 18.9669 7.26383 18.2797C7.06466 18.0667 6.67324 18.0021 6.47383 18.041C6.24721 18.0848 4.96817 17.1943 5.13333 16.9581C5.25697 16.7811 5.95723 16.5069 6.19113 16.3397C6.39292 16.1953 6.86489 15.7833 6.8711 15.371C6.87826 14.9169 6.70952 14.3359 5.71187 14.2839C5.76438 13.9334 5.82071 13.2543 6.63649 12.6922C7.08781 12.3811 7.48305 11.7283 7.49737 11.6194C8.01219 11.6194 8.88262 9.92937 9.067 9.62148C9.13156 9.51385 9.5299 8.80068 9.5299 8.80068C9.8175 8.80261 10.2495 8.59213 10.2495 8.59213C10.2495 8.59213 10.9354 9.02378 11.0162 8.37141C11.542 8.56496 11.416 7.87338 11.1632 7.71984C11.1632 7.71984 11.2051 7.27898 10.9007 7.15851C10.6259 7.04997 10.5067 7.11839 10.2501 7.2001C9.99328 7.28182 9.49088 7.58323 9.26283 7.74655C9.40973 7.1668 9.83289 6.64036 9.83289 6.64036C9.83289 6.64036 10.0605 6.81766 10.291 6.65559C10.3608 6.60649 10.5131 6.51807 10.6593 6.48693C10.7281 6.47238 11.0899 6.07585 10.9041 5.94844C10.6527 5.77569 10.5022 5.74887 10.5022 5.74887C10.4847 5.59748 10.3874 5.43473 10.4388 5.30403C10.4902 5.17356 10.7539 5.0033 10.7517 4.86044C10.7475 4.57097 10.3442 4.59233 10.1025 4.7427C9.80819 4.42197 9.52453 4.71258 9.52453 4.71258C9.05184 4.60234 8.81902 5.15276 8.77976 5.33062C8.53428 5.25925 8.18821 5.16651 8.04787 5.16651C7.81994 5.16651 7.69141 5.08479 7.69141 5.08479L7.3636 4.86703L6.80749 4.81259C6.80749 4.81259 6.83112 4.64234 6.77897 4.55403C6.70546 4.43004 6.57932 4.45879 6.43672 4.39071C6.29435 4.32275 6.13742 4.22739 6.19447 4.11863C6.25127 4.00986 6.07501 4.04805 5.9182 4.08885C5.76128 4.12954 5.72381 4.15943 5.66688 4.22739C5.60972 4.29536 5.73359 4.50425 5.73359 4.50425C5.73359 4.50425 5.52416 4.49937 5.45303 4.49937C5.38191 4.49937 5.22475 4.55392 5.1251 4.56744C5.0251 4.5812 4.86292 4.52085 4.86292 4.46618C4.86292 4.41151 4.87068 4.31263 4.87593 4.30275C4.91125 4.23762 4.68296 4.30888 4.52627 4.4314C4.36923 4.55392 4.32651 4.74452 4.38355 4.81248C4.44071 4.88056 4.52627 5.0166 4.52627 5.0166C4.52627 5.0166 4.49751 5.0574 4.41207 5.13912C4.32651 5.22083 4.32651 5.3296 4.32651 5.3296C4.32651 5.3296 4.11087 5.32267 4.05812 5.24709C4.0265 5.20174 4.06158 5.11502 4.01862 5.03308C3.99237 4.98262 3.72839 5.20936 3.66252 5.36051C3.62362 5.44928 3.67088 5.60191 3.7136 5.69715C3.75644 5.7924 3.92745 5.8332 3.92745 5.8332C3.92745 5.8332 3.88472 5.92844 3.8562 6.07801C3.82768 6.22757 3.81336 6.33657 3.84176 6.44545C3.8704 6.55421 3.79427 6.60695 3.64211 6.60865C3.52469 6.61013 3.38363 6.42465 3.34557 6.41806C3.29568 6.40919 3.18721 6.62502 3.18721 6.72026C3.18721 6.8155 3.24759 7.00132 3.37098 7.08497C3.44903 7.13771 3.634 7.07349 3.67553 7.11066C3.71419 7.14544 3.68687 7.35569 3.65071 7.50685C3.62565 7.61198 3.68496 7.76541 3.61359 7.83349C3.54223 7.90146 3.48531 7.94237 3.38542 7.91521C3.28542 7.88793 3.22002 7.80508 3.1742 7.80315C3.14126 7.80178 3.06632 7.98283 3.09484 8.10535C3.12348 8.22787 3.16298 8.3297 3.33411 8.3705C3.505 8.4113 3.61908 8.34004 3.65548 8.39153C3.6809 8.42744 3.70405 8.70237 3.81324 8.85421C3.8963 8.96968 3.82923 9.06015 3.71491 9.08754C3.60094 9.1147 3.45905 9.04128 3.39962 9.04469C3.36955 9.04651 3.3649 9.35008 3.43626 9.43179C3.50762 9.51351 3.57815 9.64228 3.7593 9.64228C3.94045 9.64228 4.04249 9.48976 4.06253 9.64239C4.06946 9.69513 4.10955 10.1359 4.0401 10.3337C3.99821 10.454 3.85346 10.5242 3.6883 10.4993C3.53913 10.4771 3.95621 10.955 4.27292 10.9276L4.27268 10.9279Z" fill="#CF4037"></path>
    <path d="M5.93982 19.7756C5.74662 19.7756 5.56021 19.7225 5.40961 19.6246C5.20042 19.7402 4.98108 19.7813 4.86079 19.77C4.70136 19.7547 4.66579 19.667 4.61197 19.5344C4.50254 19.2645 4.27485 18.703 2.75487 17.6451C2.59675 17.5352 2.51608 17.4106 2.51513 17.2749C2.51417 17.1284 2.60773 16.9838 2.7859 16.8565C3.49606 16.3492 3.37267 15.8226 3.31993 15.5978C3.31205 15.5642 3.30632 15.5395 3.30429 15.5196C3.17398 15.3807 3.03901 15.2427 2.90297 15.1088C2.79473 15.1183 2.3829 15.1417 1.92298 15.0024C1.61319 14.9087 1.34683 14.7601 1.13131 14.561C0.862206 14.3123 0.673059 13.9843 0.568879 13.5861C0.451453 13.1372 0.494175 12.661 0.695733 12.1705C0.863877 11.7616 1.10911 11.421 1.27129 11.1955C1.30363 11.1505 1.33418 11.1081 1.3596 11.0714C1.72715 10.5399 1.78658 9.99364 1.77154 9.62893C1.75866 9.31274 1.6892 9.0743 1.66092 8.98894C1.66008 8.98894 1.65913 8.98894 1.65829 8.98894C1.35184 8.98894 1.00087 8.83358 0.937507 8.56525C0.92975 8.53229 0.923067 8.50251 0.916981 8.47512C0.886909 8.34067 0.871872 8.27327 0.803732 8.19008C0.781297 8.1628 0.756952 8.13177 0.731056 8.09893C0.668524 8.01937 0.57413 7.89924 0.537136 7.88071C0.494652 7.85923 0.468876 7.82036 0.46804 7.77661C0.467086 7.72728 0.495726 7.65204 0.637855 7.57362C0.662796 7.55987 0.688811 7.54476 0.716378 7.52884C0.878675 7.43497 1.08059 7.31802 1.33728 7.30677C1.76832 7.2879 2.08146 7.38144 2.29459 7.59306C2.58064 7.8773 2.62587 8.1611 2.61358 8.34908C2.58923 8.72038 2.38302 8.87825 2.28839 8.93155C2.29817 8.96292 2.31011 9.00997 2.32514 9.08123C2.38887 9.38491 2.55021 10.4414 1.95329 11.2856L1.93778 11.3076C1.58526 11.8059 0.929034 12.7336 1.24241 13.5508C1.40315 13.9701 1.69028 14.2448 2.09578 14.3672C2.3156 14.4336 2.51095 14.435 2.60284 14.4305C2.56489 14.1952 2.59484 13.9687 2.6958 13.7224C2.78566 13.5032 2.93196 13.2655 3.18508 12.9274C3.29188 12.7847 3.51361 12.4077 3.70932 12.0752C3.86374 11.8127 3.99716 11.586 4.05444 11.507C4.15456 11.3686 4.20241 11.0987 4.2153 10.9791C3.9752 10.9605 3.71409 10.7308 3.63163 10.5974C3.62005 10.5786 3.58473 10.5214 3.61576 10.478C3.62363 10.4671 3.64714 10.4425 3.69619 10.4497C3.83438 10.4705 3.95479 10.4165 3.98892 10.3185C4.05312 10.1358 4.01673 9.7078 4.00909 9.6495C4.00778 9.63972 4.00634 9.6329 4.00503 9.62824C3.99334 9.63177 3.97591 9.63904 3.96231 9.64472C3.91243 9.66552 3.84417 9.69393 3.75896 9.69393C3.57912 9.69393 3.49093 9.58392 3.42649 9.50357C3.41539 9.48981 3.40501 9.47674 3.39487 9.46515C3.31456 9.37321 3.31384 9.09657 3.34236 9.03361C3.3574 9.00042 3.38484 8.99531 3.39606 8.99474C3.42733 8.99292 3.46277 9.00281 3.50776 9.01531C3.56826 9.03202 3.64368 9.05293 3.70156 9.03907C3.74715 9.02816 3.78104 9.00497 3.79202 8.97712C3.80491 8.94473 3.78641 8.90859 3.76863 8.88393C3.68879 8.77289 3.65323 8.60923 3.62972 8.50092C3.62363 8.47285 3.61624 8.43886 3.61134 8.42398C3.59953 8.42284 3.57399 8.42579 3.55466 8.42807C3.49678 8.43477 3.41754 8.44398 3.32076 8.42079C3.11801 8.37238 3.07195 8.24429 3.04235 8.11723C3.01455 7.99755 3.06813 7.83639 3.11574 7.78218C3.13794 7.75695 3.16061 7.7524 3.17624 7.75308C3.2136 7.75467 3.24534 7.77718 3.28222 7.8032C3.31635 7.8273 3.35489 7.85469 3.4 7.86696C3.46826 7.8856 3.50537 7.86514 3.57554 7.7982C3.6018 7.7732 3.59762 7.71012 3.59368 7.6492C3.59034 7.59783 3.58688 7.54487 3.59845 7.49634C3.63819 7.32972 3.64702 7.1905 3.637 7.15061C3.61958 7.14867 3.58354 7.15163 3.55848 7.15379C3.48353 7.15993 3.39857 7.16697 3.33985 7.12731C3.19916 7.03195 3.13364 6.82863 3.13364 6.72111C3.13364 6.62633 3.21754 6.44357 3.28568 6.38959C3.31384 6.36731 3.33902 6.36606 3.35525 6.3689C3.38377 6.3739 3.40788 6.39595 3.45143 6.43607C3.50132 6.48199 3.58473 6.5587 3.64058 6.5587C3.64082 6.5587 3.64106 6.5587 3.6413 6.5587C3.73963 6.55768 3.77304 6.53438 3.78414 6.52063C3.7882 6.51563 3.80061 6.50028 3.78975 6.4588C3.75741 6.33492 3.77591 6.21445 3.80335 6.06988C3.8203 5.98089 3.84202 5.91054 3.85777 5.86621C3.79512 5.84348 3.69977 5.79723 3.66421 5.71812C3.63855 5.66084 3.55907 5.46479 3.61289 5.34182C3.67089 5.20884 3.90133 4.97915 4.00169 4.97597C4.02973 4.97506 4.0542 4.98824 4.06625 5.01132C4.09477 5.06576 4.09537 5.1194 4.09597 5.16247C4.0962 5.18543 4.09656 5.21146 4.10241 5.21987C4.1221 5.24817 4.20635 5.26817 4.2795 5.27613C4.28941 5.22964 4.31387 5.16145 4.3739 5.10417C4.4165 5.06348 4.44443 5.03336 4.46101 5.01416C4.43297 4.97097 4.37986 4.89107 4.34144 4.84527C4.26447 4.75366 4.31447 4.53147 4.49204 4.39304C4.59765 4.31042 4.83382 4.18642 4.90876 4.24404C4.92714 4.25814 4.94194 4.28655 4.92595 4.32155C4.92237 4.34065 4.91652 4.41452 4.91604 4.46237C4.93525 4.48703 5.04313 4.5284 5.11712 4.51817C5.15853 4.51249 5.21319 4.49863 5.26605 4.48522C5.33813 4.46692 5.40627 4.44953 5.45269 4.44953C5.49398 4.44953 5.57967 4.45112 5.64578 4.45248C5.60855 4.37179 5.57263 4.25882 5.62489 4.19665C5.69196 4.11664 5.74172 4.08277 5.9039 4.04083C6.08959 3.99242 6.19257 3.97787 6.23971 4.03254C6.25666 4.0522 6.27086 4.0872 6.2421 4.14244C6.21429 4.1954 6.2878 4.26393 6.46036 4.34633C6.50643 4.36838 6.55166 4.3794 6.59533 4.38997C6.6797 4.41055 6.76694 4.4318 6.82517 4.53011C6.86658 4.60035 6.86849 4.70502 6.86491 4.76821L7.36863 4.81754C7.3777 4.81845 7.38629 4.82151 7.39381 4.8264L7.72079 5.04359C7.72795 5.04791 7.84597 5.11667 8.04741 5.11667C8.18262 5.11667 8.48907 5.19543 8.74147 5.26749C8.78538 5.12554 8.90579 4.85822 9.12716 4.72548C9.24399 4.65547 9.37204 4.63274 9.50784 4.65797C9.55343 4.61955 9.66321 4.54181 9.80439 4.54181C9.8063 4.54181 9.80809 4.54181 9.81 4.54181C9.91764 4.54341 10.019 4.58932 10.1116 4.67854C10.2734 4.59228 10.5079 4.5467 10.6624 4.62501C10.7261 4.6574 10.8026 4.72445 10.8045 4.86061C10.8061 4.96347 10.7113 5.06246 10.6198 5.15827C10.564 5.21669 10.5062 5.27704 10.4882 5.32272C10.4612 5.39148 10.4871 5.47945 10.5146 5.57253C10.5277 5.6172 10.5413 5.66312 10.5495 5.70937C10.6117 5.72801 10.7468 5.77893 10.9346 5.90804C10.979 5.93838 11.027 5.99794 11.0031 6.10875C10.9667 6.27764 10.7536 6.51983 10.6703 6.53756C10.5336 6.56666 10.3872 6.65178 10.3222 6.69747C10.1432 6.8234 9.95225 6.7726 9.84472 6.71145C9.75606 6.82999 9.49304 7.20266 9.35437 7.62204C9.60271 7.45906 10.0028 7.22573 10.2326 7.15277C10.2643 7.14265 10.294 7.13276 10.3221 7.12333C10.5263 7.05514 10.6612 7.01002 10.9207 7.11242C11.2124 7.22778 11.2217 7.5884 11.2177 7.69569C11.3937 7.82741 11.4914 8.15894 11.3985 8.33419C11.363 8.40102 11.2731 8.4974 11.0588 8.43989C11.0273 8.59718 10.9543 8.70197 10.8413 8.75198C10.6245 8.8479 10.3348 8.70163 10.2459 8.65128C10.1487 8.69617 9.81644 8.84142 9.56178 8.85199C9.48803 8.98383 9.17072 9.55119 9.11284 9.64768C9.08909 9.68723 9.05353 9.75076 9.00854 9.831C8.51461 10.7116 7.95683 11.6111 7.53832 11.6683C7.46553 11.8648 7.07793 12.4515 6.66741 12.7344C5.91309 13.254 5.82538 13.8672 5.77287 14.2336C5.77263 14.2349 5.77251 14.2363 5.77227 14.2377C6.20451 14.2701 6.52003 14.4076 6.71049 14.6469C6.85692 14.8309 6.92888 15.0751 6.92422 15.3727C6.9167 15.8706 6.29389 16.3306 6.22301 16.3814C6.12658 16.4504 5.9588 16.5343 5.7811 16.6231C5.52966 16.7489 5.24457 16.8915 5.17762 16.9873C5.16128 17.0107 5.18001 17.0649 5.22774 17.1325C5.33515 17.2847 5.58611 17.5034 5.8829 17.7032C6.22002 17.9301 6.41776 18.0009 6.46311 17.9921C6.6766 17.9504 7.08759 18.0157 7.30359 18.2468C7.52711 18.4857 7.61422 18.704 7.56267 18.8957C7.50837 19.0979 7.31564 19.2078 7.22268 19.2501C7.25657 19.3623 7.23282 19.5189 7.11552 19.6336C7.02136 19.7255 6.79999 19.8486 6.36645 19.6601C6.27444 19.7303 6.12085 19.7742 5.95331 19.7763C5.94865 19.7763 5.94412 19.7763 5.93946 19.7763L5.93982 19.7756ZM5.41224 19.5128C5.42358 19.5128 5.43479 19.5162 5.44422 19.5229C5.74745 19.7387 6.18398 19.6962 6.31895 19.5633C6.33494 19.5475 6.35988 19.5433 6.38065 19.5529C6.67338 19.6874 6.90728 19.6905 7.03926 19.5615C7.1358 19.4673 7.14965 19.3239 7.10704 19.2451C7.1 19.232 7.09917 19.2167 7.1049 19.2031C7.11062 19.1894 7.1222 19.1787 7.13664 19.1738C7.13914 19.1729 7.40312 19.0803 7.45944 18.869C7.50121 18.7123 7.42197 18.5255 7.22387 18.3136C7.03699 18.1138 6.66813 18.0552 6.48459 18.091C6.33757 18.1195 5.97168 17.8868 5.82132 17.7855C5.58098 17.6236 5.2756 17.3818 5.1392 17.1884C5.06223 17.0793 5.04528 16.9924 5.08884 16.93C5.17094 16.8126 5.45591 16.67 5.73158 16.5321C5.90533 16.4452 6.06942 16.3631 6.15892 16.2991C6.40093 16.1259 6.81205 15.7354 6.81742 15.3703C6.82756 14.7221 6.45452 14.3737 5.70867 14.3348C5.69375 14.334 5.67979 14.3273 5.67024 14.3163C5.6607 14.3053 5.65652 14.291 5.65867 14.2768C5.66141 14.2584 5.66416 14.2391 5.66702 14.2189C5.71822 13.8615 5.81344 13.1962 6.60488 12.651C7.05788 12.3389 7.43307 11.6971 7.44405 11.6131C7.44739 11.5876 7.47018 11.5684 7.49715 11.5684C7.61613 11.5684 7.84167 11.4499 8.24014 10.8854C8.51127 10.5012 8.76366 10.051 8.9145 9.78213C8.95997 9.70109 8.99589 9.63711 9.02023 9.59631C9.08372 9.4905 9.47848 8.78403 9.48242 8.77687C9.49173 8.76027 9.50987 8.74982 9.52968 8.74982C9.53099 8.74982 9.5323 8.74982 9.53362 8.74982C9.80475 8.74982 10.2206 8.54888 10.2248 8.54683C10.242 8.53842 10.2625 8.53956 10.2786 8.54968C10.2817 8.55161 10.5973 8.74709 10.7968 8.65867C10.8878 8.61832 10.9438 8.51967 10.9629 8.36556C10.9648 8.34987 10.9742 8.33601 10.9884 8.32794C11.0026 8.31976 11.0199 8.31839 11.0353 8.32407C11.1734 8.37488 11.2635 8.36249 11.3035 8.28748C11.3763 8.15041 11.2799 7.85139 11.1344 7.76308C11.1176 7.75285 11.108 7.73456 11.1099 7.71558C11.1103 7.7116 11.1443 7.3104 10.8802 7.20584C10.6586 7.11833 10.5518 7.15402 10.358 7.2188C10.3295 7.22835 10.2993 7.23846 10.2669 7.24869C10.0259 7.3254 9.53016 7.61908 9.29483 7.78752C9.27681 7.80047 9.2521 7.80116 9.23337 7.78934C9.21451 7.77752 9.20544 7.7557 9.21069 7.73478C9.35855 7.15129 9.77265 6.63144 9.79031 6.60962C9.79914 6.59871 9.81215 6.59155 9.82659 6.58996C9.84102 6.58836 9.85546 6.59234 9.86668 6.60109C9.87456 6.60712 10.0657 6.75078 10.2592 6.61473C10.3477 6.55245 10.5018 6.46892 10.6451 6.43789C10.6893 6.41732 10.8863 6.21138 10.902 6.06806C10.9073 6.01976 10.8878 6.00032 10.8727 5.98987C10.6366 5.82769 10.4934 5.79927 10.492 5.79893C10.4691 5.79461 10.4515 5.77654 10.4489 5.75449C10.4432 5.70494 10.4273 5.6513 10.412 5.59936C10.3811 5.49457 10.3493 5.38626 10.3885 5.28624C10.4138 5.22214 10.4757 5.15736 10.5412 5.08894C10.6152 5.01154 10.699 4.92392 10.6981 4.86129C10.6971 4.79094 10.6691 4.74287 10.6125 4.71423C10.4993 4.65683 10.2882 4.68809 10.1316 4.78549C10.1093 4.79935 10.0796 4.79549 10.062 4.77639C9.98232 4.68945 9.89735 4.64467 9.80952 4.64308C9.67049 4.64047 9.5644 4.7465 9.56345 4.74764C9.5502 4.76094 9.53051 4.76673 9.51166 4.7623C9.39423 4.73491 9.28409 4.75128 9.18444 4.81106C8.96307 4.94369 8.85304 5.24601 8.83192 5.34136C8.82882 5.35534 8.81975 5.3675 8.80674 5.37478C8.79385 5.38205 8.77822 5.38376 8.7639 5.37966C8.40482 5.27533 8.1504 5.21782 8.04753 5.21782C7.80611 5.21782 7.66721 5.13133 7.66136 5.12758L7.34404 4.91687L6.80166 4.86379C6.78722 4.86243 6.7741 4.8555 6.76515 4.8447C6.7562 4.8339 6.75226 4.82015 6.75405 4.8064C6.7599 4.76367 6.76741 4.63944 6.73197 4.57955C6.69617 4.51908 6.64545 4.50681 6.56872 4.48806C6.52182 4.47669 6.46872 4.46373 6.41239 4.4368C6.31549 4.39054 6.05892 4.26802 6.1452 4.09857C6.11668 4.09777 6.05701 4.10596 5.93195 4.13857C5.78194 4.17744 5.7564 4.20233 5.70831 4.25984C5.69005 4.28155 5.73313 4.40088 5.77979 4.47987C5.78922 4.49579 5.78898 4.51545 5.77908 4.53113C5.76917 4.54682 5.75115 4.55602 5.73194 4.55579C5.72991 4.55579 5.52239 4.55091 5.45257 4.55091C5.42023 4.55091 5.35579 4.56727 5.2935 4.58307C5.23765 4.59728 5.17977 4.61194 5.13216 4.61842C5.04373 4.63046 4.9152 4.59637 4.8516 4.54386C4.81639 4.51477 4.809 4.4859 4.809 4.46669C4.809 4.46567 4.80995 4.39259 4.81604 4.3369C4.75625 4.35429 4.64932 4.40123 4.55982 4.47124C4.41364 4.58523 4.39407 4.74434 4.42497 4.78105C4.48369 4.85106 4.56818 4.98518 4.57176 4.99086C4.58238 5.00779 4.58178 5.02905 4.57032 5.04541C4.5671 5.04996 4.53619 5.09269 4.44956 5.17543C4.38142 5.24044 4.37951 5.32932 4.37951 5.33023C4.37939 5.34398 4.37342 5.35716 4.36304 5.36659C4.35266 5.37603 4.33881 5.38137 4.32425 5.3808C4.28368 5.37955 4.07783 5.3683 4.01315 5.27556C3.98976 5.24192 3.98928 5.2018 3.9888 5.16304C3.98844 5.13827 3.98821 5.11303 3.98236 5.08871C3.91326 5.13076 3.75848 5.27249 3.71147 5.38035C3.6833 5.44456 3.71672 5.57583 3.7623 5.67744C3.78856 5.73574 3.90228 5.77495 3.94011 5.78416C3.95527 5.78779 3.96804 5.79757 3.97496 5.81098C3.98188 5.82428 3.98236 5.83985 3.97627 5.8536C3.97591 5.85451 3.93546 5.94611 3.90849 6.0875C3.87901 6.24252 3.86851 6.33867 3.89333 6.43357C3.91279 6.50733 3.89059 6.55506 3.86863 6.58223C3.82782 6.63269 3.75168 6.65883 3.64237 6.65997C3.64165 6.65997 3.64094 6.65997 3.64022 6.65997C3.54129 6.65997 3.4463 6.57268 3.37685 6.50881C3.36611 6.49892 3.35298 6.48687 3.34248 6.47789C3.30477 6.52097 3.24021 6.65508 3.24021 6.72054C3.24021 6.80794 3.29761 6.97342 3.40143 7.04377C3.42804 7.06173 3.49785 7.05605 3.54893 7.05184C3.61683 7.04627 3.67531 7.04139 3.71158 7.07378C3.73426 7.09412 3.75574 7.13322 3.74392 7.26949C3.7376 7.34257 3.72209 7.43553 3.7024 7.51839C3.69416 7.5526 3.69726 7.59829 3.70013 7.64238C3.70562 7.72592 3.71123 7.81218 3.65096 7.86969C3.57733 7.93981 3.50048 7.99994 3.37028 7.96436C3.30656 7.94697 3.25751 7.91231 3.21813 7.88435C3.20847 7.87753 3.19665 7.86912 3.18687 7.86298C3.16312 7.90663 3.12827 8.01573 3.14665 8.09461C3.17255 8.20565 3.20214 8.28691 3.34678 8.32135C3.42434 8.33987 3.4895 8.33237 3.54177 8.32635C3.60156 8.31941 3.66337 8.31225 3.69953 8.36351C3.71302 8.38272 3.7197 8.41125 3.7345 8.47967C3.75634 8.58002 3.78927 8.73163 3.85694 8.82585C3.91517 8.90666 3.90813 8.97201 3.89214 9.01258C3.86839 9.07248 3.80837 9.11794 3.7277 9.13738C3.64153 9.15783 3.55084 9.13283 3.47793 9.1126C3.46408 9.10873 3.44869 9.10453 3.43496 9.10123C3.42661 9.17579 3.4358 9.35241 3.47709 9.39957C3.48867 9.41287 3.49976 9.42674 3.51158 9.4414C3.57077 9.51527 3.63211 9.59176 3.75896 9.59176C3.82173 9.59176 3.87364 9.57017 3.91947 9.55107C3.96899 9.5305 4.01589 9.51095 4.06005 9.53493C4.1005 9.55687 4.111 9.60347 4.1153 9.63654C4.11589 9.6412 4.16924 10.1263 4.09048 10.3503C4.04393 10.4838 3.89906 10.5639 3.72913 10.555C3.80133 10.6608 4.06291 10.8948 4.26781 10.8772C4.28273 10.8758 4.29764 10.8806 4.30874 10.8902C4.31984 10.8999 4.32616 10.9135 4.32616 10.9279C4.32616 11.0058 4.27819 11.3771 4.14263 11.5645C4.08809 11.6397 3.94954 11.8753 3.80276 12.1246C3.60573 12.4595 3.38246 12.8389 3.27231 12.9861C2.83554 13.5697 2.61787 13.9785 2.71812 14.4667C2.72098 14.4804 2.71764 14.4946 2.70916 14.5061C2.70057 14.5175 2.68757 14.5251 2.67289 14.5269C2.66143 14.5284 2.38935 14.5624 2.06344 14.464C1.76176 14.3729 1.35697 14.1465 1.14193 13.5853C0.809818 12.7193 1.48585 11.7637 1.84911 11.2503L1.86463 11.2284C2.21989 10.7259 2.29077 10.144 2.28767 9.74428C2.28421 9.29604 2.19232 8.97156 2.17657 8.93246C2.17072 8.92314 2.16798 8.91212 2.16929 8.90086C2.17144 8.88188 2.18445 8.86574 2.20306 8.85881C2.21404 8.85461 2.48028 8.748 2.50677 8.34237C2.52264 8.102 2.42252 7.86708 2.21738 7.66318C2.02692 7.47406 1.74064 7.39064 1.34217 7.40814C1.11281 7.41826 0.923783 7.52759 0.771869 7.61556C0.743825 7.63181 0.717452 7.64704 0.691437 7.66136C0.604799 7.70921 0.574607 7.75206 0.574965 7.77433C0.574965 7.77706 0.575204 7.78422 0.587257 7.79036C0.641316 7.81752 0.713275 7.90594 0.816739 8.03756C0.842158 8.06995 0.866264 8.10052 0.887983 8.127C0.971279 8.22872 0.990253 8.31339 1.02152 8.45353C1.02761 8.48057 1.03417 8.51001 1.04181 8.54252C1.09431 8.76459 1.42261 8.89939 1.69624 8.88575C1.71928 8.88461 1.74099 8.89802 1.74911 8.91882C1.75364 8.93041 1.86069 9.20841 1.87823 9.62074C1.89434 10.0014 1.833 10.5716 1.44886 11.1271C1.42285 11.1646 1.39206 11.2075 1.35936 11.2528C1.02856 11.7124 0.412669 12.5679 0.672462 13.5611C0.852182 14.2485 1.28251 14.7002 1.9515 14.9039C2.45462 15.0571 2.9118 15.0052 2.91633 15.0046C2.93292 15.0026 2.94963 15.0082 2.96132 15.0196C3.1093 15.1646 3.25596 15.3146 3.39714 15.4655C3.40764 15.4766 3.41241 15.4916 3.41014 15.5065C3.40978 15.5148 3.4173 15.5468 3.42399 15.5751C3.47625 15.7982 3.61528 16.3908 2.84974 16.9376C2.702 17.0432 2.62098 17.1626 2.62169 17.2739C2.62241 17.3755 2.68828 17.4727 2.81752 17.5625C4.36292 18.638 4.59825 19.2184 4.71138 19.4973C4.76556 19.631 4.78024 19.6595 4.87105 19.6682C4.96187 19.6769 5.17321 19.6445 5.38348 19.5201C5.39219 19.515 5.40198 19.5125 5.41164 19.5125L5.41224 19.5128ZM2.19292 8.94883C2.19292 8.94883 2.19292 8.94883 2.19304 8.94883C2.19304 8.94883 2.19304 8.94883 2.19292 8.94883ZM10.6476 6.43777C10.6476 6.43777 10.6473 6.43777 10.647 6.43789C10.6473 6.43789 10.6474 6.43789 10.6476 6.43777ZM4.82797 4.28019C4.82797 4.28019 4.82797 4.28019 4.82797 4.2803C4.82797 4.2803 4.82797 4.2803 4.82797 4.28019Z" fill="black"></path>
    <path d="M10.9913 8.39644C10.9661 8.39644 10.9437 8.3794 10.9388 8.35507C10.9213 8.26813 10.8057 8.21039 10.7129 8.16402C10.6656 8.14038 10.6248 8.12004 10.595 8.0964C10.5723 8.07833 10.5693 8.04628 10.5882 8.02469C10.6071 8.00309 10.6408 8.00025 10.6635 8.01821C10.6845 8.03491 10.7223 8.05378 10.7624 8.0739C10.8697 8.12754 11.0167 8.20096 11.0437 8.33609C11.0492 8.36371 11.0302 8.39042 11.0012 8.39565C10.9978 8.39622 10.9944 8.39656 10.9912 8.39656L10.9913 8.39644Z" fill="black"></path>
    <path fill-rule="evenodd" clip-rule="evenodd" d="M7.20632 5.4691C7.20632 5.4691 7.0192 5.28259 6.93913 5.28259C6.91144 5.28259 6.81371 5.43034 6.7532 5.53627C6.69258 5.64253 7.2062 5.4691 7.2062 5.4691H7.20632Z" fill="black"></path>
    <path d="M6.79246 5.62078C6.73517 5.62078 6.72038 5.60419 6.71119 5.59408C6.70379 5.58578 6.68147 5.55543 6.7063 5.51202C6.86632 5.23175 6.9174 5.23175 6.93912 5.23175C7.03196 5.23175 7.18388 5.37313 7.24486 5.43394C7.25739 5.44644 7.2624 5.46406 7.25822 5.48088C7.25405 5.4977 7.24116 5.51134 7.22409 5.51713C6.98363 5.5984 6.85916 5.62078 6.79234 5.62078H6.79246ZM6.95117 5.33631C6.92683 5.36177 6.87623 5.43326 6.82551 5.51759C6.88864 5.50895 6.99915 5.48065 7.10702 5.44735C7.0439 5.39166 6.98244 5.34756 6.95117 5.33631Z" fill="black"></path>
    <path d="M6.35749 19.6297C6.34854 19.6297 6.33947 19.6275 6.331 19.6229C6.30534 19.609 6.29639 19.5779 6.31107 19.5535C6.34544 19.4961 6.23147 19.2187 5.99185 19.0049C5.97025 18.9857 5.96917 18.9534 5.98934 18.933C6.00951 18.9125 6.0434 18.9114 6.06488 18.9306C6.28851 19.1301 6.4853 19.4678 6.40379 19.604C6.39389 19.6204 6.37587 19.6297 6.35725 19.6297H6.35749ZM5.41235 19.6147C5.39612 19.6147 5.38001 19.6076 5.36951 19.5942C5.24588 19.4367 5.09289 19.181 4.98119 18.9942C4.93465 18.9165 4.89455 18.8494 4.8652 18.8036C4.62867 18.4353 4.08438 18.0003 3.65394 17.7161C3.40453 17.5514 3.24844 17.4191 3.2408 17.269C3.23304 17.1161 3.36992 16.9777 3.66038 16.7432C3.75549 16.6666 3.87996 16.4287 3.84547 16.1616C3.82185 15.9789 3.71385 15.7236 3.33376 15.5455C3.30727 15.5331 3.29641 15.5026 3.30942 15.4773C3.32243 15.4521 3.35453 15.4418 3.38102 15.4542C3.80394 15.6525 3.92471 15.9416 3.95156 16.1493C3.98772 16.4285 3.86695 16.7101 3.72948 16.8209C3.47756 17.0243 3.342 17.1552 3.3476 17.2641C3.35226 17.3566 3.45871 17.4633 3.71492 17.6324C3.92817 17.7732 4.64789 18.27 4.95649 18.7505C4.98668 18.7976 5.02725 18.8653 5.07415 18.9439C5.18442 19.1282 5.3355 19.3808 5.45519 19.5333C5.47285 19.5558 5.46808 19.5877 5.44433 19.6045C5.43479 19.6114 5.42345 19.6147 5.41235 19.6147ZM7.15501 19.273C7.13377 19.273 7.1136 19.2609 7.10525 19.2408C7.10381 19.2373 6.95608 18.889 6.71526 18.7543C6.68984 18.7401 6.68125 18.7088 6.69616 18.6846C6.71108 18.6604 6.7439 18.6522 6.76932 18.6664C7.04212 18.8189 7.19809 19.1875 7.20453 19.2032C7.21539 19.2294 7.20203 19.2589 7.17458 19.2694C7.16814 19.2718 7.16145 19.273 7.15489 19.273H7.15501ZM2.92337 15.1065C2.90344 15.1065 2.88434 15.0958 2.87515 15.0776C2.86585 15.0591 2.64603 14.6224 2.61369 14.488C2.60713 14.4606 2.62503 14.4332 2.65391 14.427C2.68267 14.4207 2.71143 14.4378 2.71799 14.4653C2.74269 14.5677 2.9094 14.9102 2.97158 15.0336C2.98435 15.059 2.97313 15.0894 2.94652 15.1016C2.93912 15.105 2.93112 15.1066 2.92337 15.1066V15.1065ZM5.15363 14.3763C5.12929 14.3763 5.10721 14.3602 5.10148 14.3367C5.09492 14.3093 5.11282 14.2821 5.1417 14.2757C5.15196 14.2734 5.39731 14.2208 5.71403 14.2333C5.74351 14.2344 5.76642 14.2582 5.76523 14.2863C5.76403 14.3143 5.73933 14.3364 5.70962 14.335C5.40794 14.3231 5.16807 14.3743 5.16568 14.3749C5.16163 14.3758 5.15769 14.3762 5.15375 14.3762L5.15363 14.3763ZM7.32673 11.6864C7.09677 11.6864 6.9525 11.5986 6.85906 11.5418C6.81932 11.5176 6.78185 11.4947 6.76263 11.4947C6.7501 11.4947 6.73853 11.4906 6.72934 11.4837C6.59246 11.4754 6.47754 11.4235 6.38088 11.327C6.2977 11.2438 6.27037 11.1117 6.24388 10.984C6.23434 10.938 6.22539 10.8946 6.21417 10.8551C6.1903 10.7719 6.19531 10.6519 6.20009 10.5357C6.2039 10.4433 6.2082 10.3386 6.19173 10.3021C6.15856 10.2283 6.07144 10.1633 6.04018 10.1508C6.02049 10.1655 5.96786 10.234 5.89996 10.4247C5.84638 10.5751 5.80616 10.7408 5.79983 10.8371C5.78921 11.0003 5.85175 11.0656 5.91798 11.1345C5.93027 11.1473 5.94292 11.1606 5.95485 11.1741C5.97418 11.1963 5.97562 11.2263 5.95855 11.2525C5.9101 11.3273 5.64183 11.4213 5.46319 11.3819C5.22487 11.3291 5.07642 11.1022 5.04504 10.7427C5.03083 10.578 5.09444 10.4122 5.15041 10.2659L5.16067 10.2391C5.17416 10.2036 5.16831 10.1654 5.14349 10.1256C5.10542 10.0648 5.03811 10.0244 5.01484 10.0174C4.96007 10.0435 4.80505 10.2843 4.78309 10.3965C4.74825 10.5742 4.67557 10.9441 4.27783 10.9786C4.24835 10.981 4.22234 10.9605 4.21971 10.9325C4.21708 10.9044 4.23868 10.8797 4.26816 10.8771C4.56077 10.8518 4.63309 10.6061 4.67796 10.3778C4.6924 10.3042 4.75314 10.1867 4.80708 10.1029C4.93214 9.90857 4.99587 9.91323 5.01986 9.91505C5.07547 9.91937 5.17273 9.98028 5.22941 10.0642C5.27607 10.1334 5.28717 10.2059 5.26139 10.2738L5.25101 10.3009C5.19874 10.4374 5.13943 10.5921 5.15172 10.7344C5.16747 10.9149 5.23192 11.2261 5.48741 11.2826C5.61272 11.3103 5.78814 11.2516 5.849 11.2135C5.84578 11.2101 5.84244 11.2067 5.8391 11.2032C5.76809 11.1292 5.67966 11.037 5.69315 10.8307C5.70043 10.7195 5.74625 10.5338 5.80711 10.3687C5.92454 10.0505 6.00509 10.0482 6.03552 10.0473C6.03624 10.0473 6.03695 10.0473 6.03755 10.0473C6.11094 10.0473 6.24448 10.1605 6.29018 10.262C6.31608 10.3197 6.3119 10.4216 6.30713 10.5397C6.30283 10.6431 6.29806 10.7603 6.31763 10.8284C6.32992 10.8716 6.33971 10.9186 6.34914 10.9643C6.37265 11.0777 6.39699 11.195 6.45869 11.2567C6.57349 11.3714 6.71705 11.4067 6.91025 11.3679C7.09391 11.3308 7.16289 11.2756 7.18246 11.1492C7.17494 11.1432 7.15418 11.1339 7.13854 11.1269C7.07195 11.0973 6.97123 11.0524 6.92314 10.9145C6.84784 10.6991 6.85238 10.5948 6.86693 10.471C6.87207 10.4265 6.87004 10.3511 6.86813 10.2782C6.86646 10.2175 6.86491 10.1603 6.86705 10.115C6.86896 10.0744 6.87242 9.99881 6.93531 9.99267C6.98949 9.98722 7.03735 9.9796 7.07947 9.97301C7.24571 9.94676 7.36576 9.92778 7.44917 10.1399C7.49237 10.2494 7.49106 10.3227 7.48999 10.3874C7.48879 10.4581 7.48784 10.5139 7.54464 10.6126L7.55681 10.6339C7.64083 10.7812 7.67567 10.8422 7.90659 10.7761C8.10385 10.7195 8.17259 10.5668 8.1949 10.491C8.09955 10.4606 7.97365 10.3819 7.95659 10.2265C7.9468 10.1383 7.99084 10.0606 8.03344 9.98551C8.06733 9.92584 8.09931 9.86936 8.10492 9.80992C8.10659 9.79219 8.1085 9.77537 8.11029 9.75889C8.12342 9.64137 8.13213 9.56375 8.0332 9.43179C8.01972 9.41372 7.99155 9.37622 8.02365 9.34326C8.05552 9.31053 8.09311 9.33212 8.12616 9.3511C8.19061 9.38815 8.32486 9.46532 8.45541 9.43384C8.53095 9.41566 8.59694 9.36178 8.65136 9.27382C8.71532 9.17073 8.7602 8.84659 8.72965 8.78863C8.72738 8.78431 8.72547 8.78124 8.7238 8.77886C8.71473 8.7834 8.70124 8.79227 8.69062 8.7992C8.62773 8.84034 8.52248 8.90922 8.35672 8.84762C8.09132 8.74919 7.97007 8.5911 7.93809 8.30197C7.91017 8.04807 7.82639 7.81474 7.76482 7.74416C7.71195 7.6837 7.61242 7.62073 7.57722 7.59948C7.44261 7.60164 6.77003 7.60857 6.60189 7.54174C6.51549 7.50731 6.40785 7.42264 6.30379 7.34081C6.21787 7.27318 6.08815 7.17112 6.04567 7.17112C5.95235 7.17112 5.41522 6.94041 5.33275 6.75129C5.29134 6.6565 5.16425 6.33645 5.26724 6.19859C5.31139 6.13961 5.37846 5.89014 5.41569 5.72534C5.35256 5.68204 5.21044 5.57498 5.16151 5.45769C5.09874 5.30801 5.11747 5.10343 5.27619 5.01921C5.4114 4.94761 5.68432 4.9517 5.78432 4.96387C5.85377 4.92329 6.08696 4.78929 6.1804 4.76395C6.28553 4.7352 6.72564 4.75395 6.77552 4.75611C6.805 4.75747 6.82779 4.78122 6.82648 4.80941C6.82505 4.83748 6.79963 4.8593 6.77051 4.85794C6.589 4.84987 6.27634 4.84373 6.20987 4.86192C6.13374 4.8826 5.90545 5.01217 5.82382 5.06036C5.81225 5.06718 5.7984 5.06956 5.78504 5.06695C5.71355 5.0532 5.43681 5.05058 5.32822 5.10809C5.22297 5.16401 5.21497 5.31039 5.26091 5.41984C5.3022 5.51883 5.45078 5.62669 5.5046 5.65988C5.52309 5.67124 5.5324 5.69238 5.52787 5.71295C5.51808 5.75807 5.43025 6.15654 5.35447 6.25758C5.31008 6.31702 5.34254 6.50818 5.43168 6.71208C5.49207 6.85051 5.97562 7.06508 6.04638 7.06917C6.12288 7.06917 6.22002 7.14248 6.37217 7.26216C6.47026 7.33933 6.5717 7.41911 6.6433 7.44764C6.76478 7.49583 7.28127 7.50071 7.53307 7.49799C7.53891 7.49526 7.54536 7.49344 7.55216 7.49299C7.80515 7.47219 8.2066 7.43446 8.27617 7.41536C8.33202 7.40013 8.49897 7.18192 8.53608 7.08622L7.60682 7.08929H7.60658C7.59238 7.08929 7.57877 7.08395 7.56875 7.0744C7.55872 7.06486 7.55299 7.05179 7.55311 7.03826L7.55479 6.60479C7.55479 6.57672 7.57877 6.5541 7.60825 6.5541C7.60932 6.5541 7.6104 6.5541 7.61159 6.5541C7.66565 6.5533 8.24037 6.54501 8.40064 6.53216C8.46842 6.52671 8.53477 6.53319 8.59324 6.53887C8.67928 6.54728 8.75339 6.55444 8.78955 6.52C8.83132 6.48022 8.85877 6.21473 8.85829 5.99186C8.85829 5.98072 8.86211 5.96992 8.86903 5.96106C8.93013 5.88366 9.02715 5.73614 9.02715 5.66931C9.02715 5.59464 9.0108 5.49792 9.00197 5.45053C8.95829 5.437 8.87058 5.41018 8.76497 5.37938C8.73669 5.3712 8.72081 5.34267 8.72941 5.31585C8.738 5.28891 8.76795 5.2738 8.79611 5.28198C8.94863 5.3263 9.06426 5.36279 9.06546 5.36313C9.08359 5.36881 9.0972 5.38336 9.10102 5.4012C9.10233 5.40745 9.13419 5.55645 9.13419 5.6692C9.13419 5.78194 9.00627 5.95469 8.96533 6.00834C8.96498 6.14313 8.95531 6.50602 8.86533 6.59183C8.79325 6.66048 8.69086 6.65059 8.5825 6.64002C8.52606 6.63457 8.4677 6.62877 8.40982 6.63343C8.26614 6.64491 7.81697 6.65264 7.66183 6.65491L7.66052 6.987L8.5905 6.98393C8.5905 6.98393 8.59145 6.98393 8.59205 6.98393C8.61067 6.98416 8.62702 6.99337 8.63644 7.00723C8.6615 7.04156 8.64706 7.08713 8.64217 7.1027C8.60363 7.22465 8.41591 7.4831 8.30612 7.5131C8.23512 7.53265 7.93344 7.56175 7.73474 7.57948C7.77448 7.60857 7.81673 7.64335 7.84763 7.67881C7.93236 7.7761 8.01721 8.03932 8.04502 8.29117C8.06077 8.43324 8.09788 8.53496 8.16841 8.6119C8.34025 8.45631 9.01593 7.85986 9.23157 7.70574C9.2552 7.68881 9.28873 7.69347 9.30639 7.71586C9.32418 7.73836 9.31928 7.7703 9.29577 7.78712C9.09278 7.93226 8.42796 8.51757 8.2486 8.67975C8.29013 8.70748 8.33906 8.73124 8.39622 8.75249C8.50923 8.79454 8.57379 8.75226 8.63072 8.7151C8.66783 8.69078 8.70626 8.66566 8.75184 8.6768C8.79671 8.68782 8.81867 8.72908 8.82583 8.74272C8.88228 8.85 8.81175 9.21631 8.74408 9.32541C8.67451 9.4377 8.58644 9.50737 8.48214 9.53249C8.37748 9.55761 8.27581 9.53317 8.19586 9.50078C8.23607 9.5992 8.22712 9.68001 8.2171 9.76946C8.21531 9.78537 8.21352 9.80173 8.21185 9.8189C8.20421 9.89914 8.16543 9.96755 8.12795 10.0337C8.09156 10.0979 8.05707 10.1586 8.06339 10.2155C8.0807 10.3722 8.25934 10.402 8.26698 10.4032C8.29526 10.4076 8.31507 10.4325 8.31161 10.4596C8.30994 10.4725 8.26722 10.7787 7.93797 10.8733C7.62376 10.9633 7.54941 10.833 7.46337 10.6822L7.45144 10.6613C7.38103 10.5389 7.38234 10.4609 7.38366 10.3855C7.38473 10.3244 7.38569 10.2668 7.34965 10.1753C7.29702 10.0417 7.26265 10.0471 7.09761 10.0731C7.06157 10.0788 7.02171 10.0852 6.97648 10.0904C6.97171 10.1301 6.97398 10.2154 6.97565 10.2752C6.97768 10.3516 6.97983 10.4305 6.97386 10.4819C6.96002 10.5997 6.95656 10.6854 7.02529 10.882C7.05883 10.9783 7.12565 11.008 7.18449 11.0342C7.23341 11.056 7.30036 11.0858 7.28914 11.1614C7.25907 11.3606 7.12625 11.4277 6.93579 11.4664C7.04988 11.5353 7.2068 11.6194 7.48843 11.569C7.51743 11.5638 7.54536 11.582 7.55085 11.6097C7.55634 11.6373 7.53724 11.6639 7.50812 11.6692C7.44273 11.6809 7.3827 11.6859 7.32769 11.6859L7.32673 11.6864ZM6.94641 10.094C6.94641 10.094 6.94629 10.094 6.94617 10.094C6.94617 10.094 6.94629 10.094 6.94641 10.094ZM11.1631 7.7711C11.1573 7.7711 11.1514 7.77019 11.1456 7.76825C11.143 7.76734 10.88 7.68086 10.7536 7.68086C10.7241 7.68086 10.7001 7.65801 10.7001 7.62994C10.7001 7.60187 10.7241 7.57902 10.7536 7.57902C10.8979 7.57902 11.1692 7.66824 11.1807 7.6721C11.2086 7.68131 11.2233 7.7104 11.2136 7.73689C11.206 7.75791 11.1852 7.7711 11.1631 7.7711ZM9.92276 5.19242C9.91835 5.19242 9.91381 5.19185 9.90928 5.19083C9.88064 5.18378 9.86357 5.15594 9.87097 5.12878C9.92073 4.94568 9.94937 4.91306 10.0343 4.81657C10.062 4.78509 10.0965 4.74588 10.1407 4.69098C10.1586 4.66859 10.1922 4.66439 10.2156 4.68155C10.239 4.6986 10.2435 4.73065 10.2255 4.75293C10.1799 4.80964 10.1446 4.84976 10.1162 4.88204C10.037 4.97216 10.0181 4.99353 9.97432 5.15435C9.96811 5.17731 9.94639 5.19254 9.92264 5.19254L9.92276 5.19242ZM9.42943 5.08582C9.40186 5.08582 9.37847 5.0657 9.37621 5.0391C9.37561 5.03138 9.36224 4.84896 9.51034 4.66712C9.52848 4.64484 9.56201 4.64086 9.5854 4.65814C9.60879 4.67541 9.61297 4.70735 9.59483 4.72963C9.47323 4.87897 9.48277 5.02978 9.48289 5.03126C9.48492 5.05922 9.46284 5.08366 9.43361 5.0857C9.43229 5.0857 9.43086 5.08582 9.42955 5.08582H9.42943Z" fill="black"></path>
    <path fill-rule="evenodd" clip-rule="evenodd" d="M25.7275 10.9279C25.7275 10.9959 25.7734 11.3587 25.9019 11.5356C26.0301 11.7127 26.5796 12.7001 26.7713 12.9566C27.2033 13.5335 27.4396 13.9637 27.3345 14.4765C27.3345 14.4765 28.4059 14.6166 28.8082 13.5679C29.1353 12.7138 28.4397 11.7501 28.0909 11.2568C27.3766 10.2463 27.7589 8.91808 27.7778 8.90626C27.7778 8.90626 27.4692 8.79204 27.4397 8.3455C27.4248 8.11774 27.5057 7.86463 27.7441 7.62789C27.9781 7.39547 28.3185 7.34217 28.6604 7.35729C28.9455 7.36979 29.1634 7.52242 29.3353 7.61732C29.5073 7.71211 29.5004 7.80349 29.4378 7.83531C29.3747 7.86702 29.2444 8.0483 29.1539 8.15843C29.0636 8.26901 29.0575 8.35459 29.0103 8.55371C28.9492 8.81193 28.5804 8.95047 28.3004 8.93672C28.3004 8.93672 27.8669 10.0456 28.5954 11.0992C28.8752 11.5036 29.6716 12.4554 29.3792 13.5735C28.9333 15.2781 27.0767 15.0552 27.0767 15.0552C26.9286 15.2004 26.7837 15.3485 26.6422 15.4995C26.6564 15.595 26.305 16.2704 27.182 16.8969C27.4677 17.1013 27.5452 17.3728 27.2134 17.6037C24.9444 19.1825 25.5242 19.6815 25.1335 19.719C25.0308 19.7288 24.8079 19.694 24.5873 19.5635C24.2563 19.7991 23.7914 19.7454 23.6418 19.5986C22.9332 19.9246 22.7334 19.4283 22.845 19.2218C22.845 19.2218 22.093 18.9669 22.7359 18.2797C22.9351 18.0667 23.3265 18.0021 23.5259 18.041C23.7527 18.0848 25.0317 17.1943 24.8666 16.9581C24.7426 16.7811 24.0426 16.5069 23.8088 16.3397C23.6067 16.1953 23.1349 15.7833 23.1286 15.371C23.1213 14.9169 23.29 14.3359 24.2878 14.2839C24.2355 13.9334 24.1793 13.2543 23.3633 12.6922C22.912 12.3811 22.5165 11.7283 22.5024 11.6194C21.9876 11.6194 21.1173 9.92937 20.9325 9.62148C20.8685 9.51385 20.4701 8.80068 20.4701 8.80068C20.1828 8.80261 19.7504 8.59213 19.7504 8.59213C19.7504 8.59213 19.0645 9.02378 18.9838 8.37141C18.4581 8.56496 18.5841 7.87338 18.8367 7.71984C18.8367 7.71984 18.7948 7.27898 19.0993 7.15851C19.3744 7.04997 19.4932 7.11839 19.7502 7.2001C20.0067 7.28182 20.5091 7.58323 20.7372 7.74655C20.5903 7.1668 20.167 6.64036 20.167 6.64036C20.167 6.64036 19.9397 6.81766 19.709 6.65559C19.6392 6.60649 19.4868 6.51807 19.3407 6.48693C19.2721 6.47238 18.91 6.07585 19.0962 5.94844C19.3474 5.77569 19.4977 5.74887 19.4977 5.74887C19.5154 5.59748 19.6128 5.43473 19.5614 5.30403C19.5099 5.17356 19.2464 5.0033 19.2482 4.86044C19.2524 4.57097 19.6558 4.59233 19.8975 4.7427C20.1916 4.42197 20.4751 4.71258 20.4751 4.71258C20.9477 4.60234 21.1808 5.15276 21.2199 5.33062C21.4654 5.25925 21.8111 5.16651 21.9516 5.16651C22.1798 5.16651 22.3084 5.08479 22.3084 5.08479L22.6361 4.86703L23.1923 4.81259C23.1923 4.81259 23.1684 4.64234 23.2208 4.55403C23.2943 4.43004 23.4203 4.45879 23.5631 4.39071C23.7054 4.32275 23.8624 4.22739 23.8054 4.11863C23.7485 4.00986 23.9246 4.04805 24.0815 4.08885C24.2384 4.12954 24.2759 4.15943 24.333 4.22739C24.3902 4.29536 24.2662 4.50425 24.2662 4.50425C24.2662 4.50425 24.4755 4.49937 24.547 4.49937C24.6185 4.49937 24.7749 4.55392 24.8747 4.56744C24.9746 4.5812 25.137 4.52085 25.137 4.46618C25.137 4.41151 25.1287 4.31263 25.1236 4.30275C25.0885 4.23762 25.3165 4.30888 25.4734 4.4314C25.6303 4.55392 25.6729 4.74452 25.6161 4.81248C25.559 4.88056 25.4734 5.0166 25.4734 5.0166C25.4734 5.0166 25.5019 5.0574 25.5874 5.13912C25.6729 5.22083 25.6729 5.3296 25.6729 5.3296C25.6729 5.3296 25.8888 5.32267 25.9413 5.24709C25.9733 5.20174 25.9382 5.11502 25.9809 5.03308C26.0075 4.98262 26.2714 5.20936 26.3374 5.36051C26.3764 5.44928 26.3289 5.60191 26.2863 5.69715C26.2435 5.7924 26.0722 5.8332 26.0722 5.8332C26.0722 5.8332 26.1151 5.92844 26.1436 6.07801C26.1723 6.22757 26.1862 6.33657 26.1578 6.44545C26.1294 6.55433 26.2053 6.60695 26.3575 6.60865C26.4752 6.61013 26.616 6.42465 26.6541 6.41806C26.7036 6.40919 26.8121 6.62502 26.8121 6.72026C26.8121 6.8155 26.7518 7.00132 26.6282 7.08497C26.5502 7.13771 26.3652 7.07349 26.3238 7.11066C26.2851 7.14544 26.3127 7.35569 26.3486 7.50685C26.3737 7.61198 26.3143 7.76541 26.3855 7.83349C26.4568 7.90146 26.5139 7.94237 26.6141 7.91521C26.714 7.88793 26.7792 7.80508 26.8251 7.80315C26.858 7.80178 26.933 7.98283 26.9043 8.10535C26.8758 8.22787 26.8366 8.3297 26.6656 8.3705C26.4945 8.4113 26.3805 8.34004 26.3439 8.39153C26.3185 8.42744 26.2954 8.70237 26.1861 8.85421C26.103 8.96968 26.1703 9.06015 26.2844 9.08754C26.3986 9.1147 26.5404 9.04128 26.5997 9.04469C26.6299 9.04651 26.6345 9.35008 26.5632 9.43179C26.4922 9.51351 26.4214 9.64228 26.24 9.64228C26.0586 9.64228 25.9568 9.48976 25.9368 9.64239C25.9301 9.69513 25.8899 10.1359 25.9593 10.3337C26.0011 10.454 26.1458 10.5242 26.3111 10.4993C26.4612 10.4771 26.0439 10.955 25.7276 10.9276L25.7275 10.9279Z" fill="#CF4037"></path>
    <path d="M24.0597 19.7756C24.0551 19.7756 24.0505 19.7756 24.0459 19.7756C23.8783 19.7735 23.7246 19.7296 23.6326 19.6594C23.1992 19.8479 22.9781 19.7248 22.8839 19.6328C22.7666 19.5181 22.7429 19.3616 22.7769 19.2493C22.6839 19.207 22.4913 19.0971 22.437 18.8949C22.3854 18.7032 22.4727 18.4849 22.6962 18.246C22.9123 18.0149 23.3233 17.9496 23.5368 17.9913C23.582 17.9999 23.78 17.9293 24.117 17.7024C24.4138 17.5026 24.6648 17.2839 24.7722 17.1317C24.8198 17.0642 24.8385 17.0099 24.8222 16.9866C24.7551 16.8908 24.4702 16.7484 24.2189 16.6226C24.0411 16.5337 23.8732 16.4497 23.7768 16.3807C23.7058 16.3299 23.0828 15.8702 23.0752 15.372C23.0704 15.0745 23.1423 14.8303 23.2888 14.6462C23.4793 14.4069 23.7948 14.2694 24.2272 14.237C24.2269 14.2357 24.2268 14.2344 24.2266 14.2331C24.1743 13.8667 24.0867 13.2534 23.3321 12.7337C22.9213 12.4506 22.5339 11.8641 22.4611 11.6676C22.0433 11.6105 21.4859 10.7123 20.9923 9.83304C20.9465 9.75144 20.9103 9.687 20.8862 9.64688C20.8287 9.55027 20.5114 8.98303 20.4378 8.85119C20.1831 8.84062 19.8506 8.69537 19.7534 8.65048C19.6645 8.70083 19.3748 8.8471 19.158 8.75118C19.045 8.70117 18.9721 8.59638 18.9406 8.43909C18.7266 8.4966 18.6366 8.40033 18.6011 8.3335C18.508 8.15836 18.6056 7.82672 18.7815 7.69489C18.7776 7.58771 18.7869 7.22709 19.0787 7.11162C19.3381 7.00922 19.4729 7.05422 19.677 7.12242C19.7052 7.13185 19.735 7.14174 19.767 7.15197C19.9968 7.22516 20.3967 7.45826 20.6448 7.62124C20.5061 7.20186 20.243 6.82931 20.1543 6.71065C20.0469 6.7718 19.8561 6.8226 19.6771 6.69667C19.6122 6.65098 19.4658 6.56586 19.329 6.53676C19.2456 6.51903 19.0325 6.27661 18.9962 6.10772C18.9724 5.99714 19.0204 5.93758 19.0649 5.90724C19.2526 5.77813 19.3876 5.72733 19.4497 5.70869C19.458 5.66266 19.4715 5.61685 19.4848 5.5723C19.5123 5.47899 19.5383 5.39091 19.5112 5.32204C19.4932 5.27624 19.4355 5.21589 19.3796 5.15747C19.2881 5.06177 19.1935 4.96278 19.1948 4.86004C19.1968 4.72388 19.2732 4.65671 19.337 4.62444C19.4916 4.54613 19.7262 4.5917 19.888 4.67797C19.9805 4.58875 20.0818 4.54283 20.1893 4.54124C20.3333 4.53908 20.4452 4.6183 20.4915 4.65728C20.6273 4.63205 20.7553 4.65478 20.8723 4.72491C21.0939 4.85777 21.214 5.12485 21.2578 5.26669C21.6077 5.16656 21.8409 5.11587 21.9515 5.11587C22.1532 5.11587 22.2712 5.04723 22.2785 5.04279L22.6054 4.8256C22.6128 4.8206 22.6215 4.81765 22.6306 4.81674L23.1344 4.76753C23.1308 4.70433 23.1326 4.59966 23.1741 4.52954C23.2325 4.43123 23.3197 4.40997 23.404 4.3894C23.4477 4.37872 23.4928 4.36781 23.5389 4.34576C23.7116 4.26336 23.7851 4.19483 23.7574 4.14187C23.7286 4.08674 23.7428 4.05162 23.7597 4.03196C23.8069 3.97741 23.9097 3.99196 24.0954 4.04026C24.2575 4.08231 24.3072 4.11607 24.3745 4.19608C24.4268 4.25825 24.3909 4.37122 24.3535 4.45191C24.4196 4.45055 24.5053 4.44896 24.5467 4.44896C24.593 4.44896 24.6611 4.46623 24.733 4.48453C24.7859 4.49794 24.8405 4.51192 24.8819 4.51749C24.9543 4.52749 25.0642 4.48578 25.0833 4.46168C25.0828 4.41225 25.0765 4.33962 25.0731 4.32098C25.057 4.28632 25.0719 4.25768 25.0904 4.24347C25.165 4.18608 25.4014 4.30996 25.5073 4.39258C25.6845 4.5309 25.7346 4.75309 25.6579 4.8447C25.6194 4.89061 25.5661 4.97062 25.5382 5.01381C25.5548 5.03291 25.5826 5.06302 25.6252 5.10371C25.6852 5.16099 25.7097 5.22918 25.7196 5.27567C25.7928 5.26771 25.8771 5.24771 25.8967 5.21952C25.9029 5.21066 25.9032 5.18463 25.9035 5.16156C25.9039 5.1186 25.9047 5.06518 25.9329 5.01097C25.9452 4.98767 25.9697 4.9746 25.9979 4.97551C26.0982 4.97892 26.3288 5.20861 26.3867 5.34136C26.4389 5.46035 26.3683 5.64402 26.3355 5.71755C26.2998 5.79677 26.2044 5.84302 26.1417 5.86575C26.1574 5.90997 26.1791 5.98043 26.1961 6.06942C26.2277 6.23365 26.2392 6.34435 26.2096 6.45823C26.1987 6.49982 26.2112 6.51528 26.2153 6.52028C26.2264 6.53403 26.2598 6.55722 26.358 6.55824C26.3582 6.55824 26.3585 6.55824 26.3587 6.55824C26.4148 6.55824 26.4981 6.48153 26.548 6.43561C26.5915 6.39549 26.6155 6.37344 26.6443 6.36844C26.6602 6.3656 26.6852 6.36685 26.7134 6.38901C26.7817 6.44288 26.8654 6.62587 26.8654 6.72065C26.8654 6.82817 26.7998 7.03172 26.659 7.12685C26.6003 7.16651 26.5153 7.15958 26.4404 7.15333C26.4154 7.15128 26.3794 7.14833 26.3619 7.15015C26.3519 7.18993 26.3609 7.32904 26.4005 7.49588C26.4121 7.54441 26.4086 7.5976 26.4051 7.64897C26.4011 7.70989 26.397 7.77285 26.423 7.79786C26.4932 7.86468 26.5305 7.88514 26.5991 7.86639C26.6439 7.85411 26.6825 7.82684 26.7164 7.80274C26.7531 7.7766 26.785 7.7541 26.8223 7.75251C26.8377 7.75183 26.8608 7.75649 26.883 7.78172C26.9306 7.83593 26.984 7.9972 26.9561 8.11665C26.9266 8.24372 26.8808 8.3718 26.6781 8.42022C26.5812 8.44341 26.5019 8.4342 26.4441 8.42749C26.4247 8.42522 26.3991 8.42227 26.3872 8.4234C26.3824 8.43829 26.375 8.47227 26.3689 8.50023C26.3454 8.60854 26.3097 8.77232 26.2297 8.88336C26.2119 8.90802 26.1936 8.94405 26.2065 8.97644C26.2176 9.00428 26.2513 9.02758 26.297 9.03849C26.3551 9.05225 26.4304 9.03145 26.4911 9.01463C26.5359 9.00224 26.5716 8.99235 26.6025 8.99417C26.6137 8.99485 26.6413 8.99996 26.6563 9.03315C26.6849 9.09612 26.6842 9.37275 26.604 9.46469C26.5941 9.47617 26.5838 9.48901 26.5728 9.50254C26.5084 9.58312 26.4202 9.69348 26.2396 9.69348C26.1545 9.69348 26.0863 9.66506 26.0364 9.64438C26.0227 9.63869 26.0051 9.63142 25.9936 9.6279C25.9922 9.63256 25.9908 9.63938 25.9895 9.64904C25.9802 9.7228 25.9462 10.1369 26.0098 10.3179C26.0439 10.4162 26.1643 10.4701 26.3025 10.4493C26.352 10.4419 26.3756 10.4667 26.3834 10.4777C26.4145 10.5213 26.379 10.5786 26.3673 10.5975C26.285 10.7306 26.0242 10.9598 25.7846 10.9786C25.7976 11.0981 25.8455 11.3682 25.9458 11.5066C26.003 11.5855 26.136 11.8117 26.2901 12.0737C26.4861 12.4067 26.708 12.7842 26.8147 12.927C27.2422 13.4979 27.4767 13.9319 27.3971 14.4302C27.4898 14.4345 27.6876 14.433 27.9082 14.3658C28.3117 14.2427 28.5975 13.9683 28.7577 13.5504C29.0708 12.733 28.4142 11.8051 28.0614 11.3068L28.0463 11.2853C27.4477 10.4386 27.6113 9.38048 27.6757 9.07645C27.6903 9.00758 27.702 8.96189 27.7115 8.9312C27.6169 8.87779 27.4107 8.72004 27.3862 8.34873C27.3739 8.16052 27.4194 7.87662 27.7054 7.59271C27.9184 7.38109 28.2316 7.28755 28.6627 7.30642C28.9193 7.31767 29.1213 7.43462 29.2836 7.5285C29.3111 7.54441 29.3371 7.55941 29.362 7.57316C29.5038 7.65124 29.5325 7.72648 29.5316 7.77581C29.5309 7.81956 29.5051 7.85866 29.4629 7.88014C29.4253 7.89901 29.3303 8.01993 29.2674 8.09995C29.242 8.13222 29.218 8.1628 29.1959 8.18973C29.1283 8.27259 29.1132 8.33975 29.0833 8.47352C29.0771 8.50126 29.0703 8.53149 29.0624 8.5649C28.9989 8.83324 28.6478 8.9886 28.3412 8.9886C28.3404 8.9886 28.3395 8.9886 28.3386 8.9886C28.3103 9.07395 28.241 9.3124 28.228 9.62858C28.2131 9.99318 28.2725 10.5395 28.6401 11.0711C28.6656 11.108 28.6963 11.1506 28.7287 11.1957C28.891 11.4212 29.1361 11.7618 29.3042 12.1707C29.5056 12.6608 29.5483 13.1369 29.431 13.5856C29.3268 13.9838 29.1376 14.3118 28.8685 14.5606C28.653 14.7597 28.3866 14.9082 28.0768 15.002C27.6169 15.1412 27.2049 15.1178 27.0968 15.1084C26.9608 15.2422 26.8258 15.3802 26.6953 15.5191C26.6933 15.5391 26.6876 15.5638 26.6797 15.5974C26.6271 15.8223 26.5041 16.3489 27.214 16.856C27.3919 16.9833 27.4854 17.1281 27.4844 17.2745C27.4835 17.4102 27.4029 17.5346 27.2449 17.6446C25.7246 18.7025 25.497 19.2641 25.3876 19.5339C25.3338 19.6665 25.2983 19.7542 25.1389 19.7695C25.0185 19.781 24.799 19.7397 24.5898 19.6241C24.4392 19.722 24.2527 19.7752 24.0596 19.7752L24.0597 19.7756ZM23.6419 19.5479C23.6561 19.5479 23.67 19.5532 23.6804 19.5633C23.8156 19.6962 24.2523 19.7386 24.5554 19.5229C24.5731 19.5104 24.597 19.5093 24.6157 19.5204C24.826 19.6447 25.0374 19.6771 25.1284 19.6685C25.2192 19.6597 25.2338 19.6312 25.2879 19.4975C25.4011 19.2186 25.6363 18.6382 27.1819 17.5627C27.311 17.4728 27.3769 17.3757 27.3776 17.2741C27.3783 17.1629 27.2975 17.0434 27.1499 16.9377C26.3847 16.3912 26.5233 15.7986 26.5754 15.5755C26.582 15.5472 26.5895 15.515 26.5892 15.5058C26.5869 15.4909 26.5918 15.4769 26.6023 15.4657C26.7437 15.3148 26.8904 15.1647 27.0383 15.0198C27.05 15.0083 27.0667 15.0028 27.0833 15.0048C27.0879 15.0054 27.545 15.0572 28.048 14.9041C28.717 14.7005 29.1475 14.2487 29.3273 13.5613C29.5869 12.5686 28.9713 11.7131 28.6405 11.2536C28.6077 11.208 28.5768 11.1649 28.5507 11.1273C28.1665 10.5718 28.1051 10.0016 28.1212 9.62096C28.1386 9.20863 28.2457 8.93075 28.2502 8.91904C28.2583 8.89825 28.2798 8.88483 28.3031 8.88597C28.5768 8.8995 28.9054 8.76482 28.958 8.54262C28.9659 8.50967 28.9724 8.47977 28.9786 8.45238C29.0099 8.31282 29.0287 8.22849 29.1116 8.12711C29.133 8.10086 29.1567 8.07085 29.1817 8.03891C29.2858 7.9064 29.3581 7.81752 29.4126 7.79024C29.4245 7.78422 29.4246 7.77694 29.4246 7.7741C29.4249 7.75183 29.3947 7.70898 29.3083 7.66136C29.2825 7.64704 29.256 7.6317 29.228 7.61556C29.0761 7.52759 28.887 7.41826 28.6577 7.40814C28.2593 7.39052 27.9729 7.47406 27.7825 7.66318C27.5773 7.86684 27.4771 8.10165 27.4929 8.34237C27.5196 8.748 27.7859 8.8546 27.7972 8.85892C27.8157 8.86597 27.8286 8.88233 27.8306 8.9012C27.8318 8.91222 27.8292 8.92302 27.8235 8.93223C27.8081 8.96985 27.7156 9.29455 27.7121 9.74439C27.709 10.1441 27.7798 10.7259 28.135 11.2284L28.1502 11.2498C28.5136 11.7633 29.19 12.719 28.8583 13.5853C28.6431 14.1465 28.2383 14.3729 27.9366 14.4639C27.6107 14.5624 27.3386 14.5284 27.3271 14.5269C27.3126 14.525 27.2994 14.5175 27.2909 14.5061C27.2823 14.4947 27.279 14.4805 27.2819 14.4668C27.382 13.9782 27.1644 13.5695 26.7276 12.9862C26.6174 12.8388 26.3939 12.4589 26.1968 12.1236C26.0504 11.8747 25.9121 11.6396 25.8578 11.5645C25.7218 11.3772 25.6739 11.0059 25.6739 10.9279C25.6739 10.9135 25.6802 10.8999 25.6913 10.8902C25.7024 10.8806 25.7172 10.8758 25.7322 10.8772C25.9372 10.8949 26.1988 10.6607 26.2704 10.555C26.0999 10.5642 25.9549 10.4839 25.9084 10.3502C25.8301 10.1275 25.8828 9.64154 25.8834 9.63676C25.8878 9.60346 25.8982 9.55686 25.9387 9.53493C25.9828 9.51095 26.0297 9.5305 26.0794 9.55107C26.1252 9.57016 26.177 9.59176 26.2398 9.59176C26.3672 9.59176 26.4285 9.51504 26.4878 9.44094C26.4994 9.4265 26.5103 9.41287 26.5217 9.39968C26.5631 9.35229 26.5723 9.17567 26.5639 9.10123C26.5503 9.10453 26.5349 9.10873 26.5211 9.11259C26.4482 9.13282 26.3575 9.15794 26.2713 9.13748C26.1903 9.11805 26.1304 9.07259 26.1067 9.01258C26.0906 8.97201 26.0837 8.90666 26.1419 8.82585C26.2097 8.73174 26.2426 8.58002 26.2645 8.47966C26.2794 8.41124 26.2859 8.38272 26.2994 8.36351C26.3357 8.31236 26.3975 8.31952 26.4573 8.32646C26.5097 8.33248 26.5748 8.3401 26.6524 8.32146C26.7968 8.28702 26.8262 8.20576 26.8521 8.09472C26.8706 8.01584 26.8357 7.90674 26.812 7.86309C26.8021 7.86934 26.7904 7.87764 26.7806 7.88457C26.7413 7.91242 26.6925 7.94708 26.6288 7.96447C26.4982 8.00005 26.4213 7.94004 26.3476 7.86991C26.2875 7.81229 26.2932 7.72614 26.2987 7.64272C26.3016 7.59851 26.3047 7.55282 26.2964 7.5185C26.2764 7.43428 26.2614 7.34359 26.2549 7.2696C26.2431 7.13321 26.2646 7.09423 26.2871 7.074C26.3234 7.0415 26.382 7.04638 26.4498 7.05195C26.5007 7.05616 26.5705 7.06195 26.5973 7.04388C26.7012 6.97364 26.7586 6.80828 26.7586 6.72077C26.7586 6.65542 26.6943 6.52142 26.6566 6.47812C26.6461 6.4871 26.6331 6.49903 26.6225 6.5088C26.5525 6.57313 26.4567 6.6611 26.3568 6.65996C26.2476 6.65883 26.1716 6.63269 26.1308 6.58245C26.1088 6.5554 26.0866 6.50755 26.1059 6.43357C26.1308 6.33764 26.1198 6.23785 26.0909 6.08749C26.064 5.94611 26.0234 5.85439 26.023 5.85348C26.0169 5.83973 26.0173 5.82416 26.0243 5.81086C26.0314 5.79756 26.044 5.78767 26.0592 5.78415C26.0969 5.77506 26.2109 5.73574 26.2371 5.67743C26.2793 5.5831 26.3179 5.44865 26.288 5.38046C26.2408 5.27237 26.0858 5.13053 26.0167 5.08871C26.011 5.1128 26.0106 5.13803 26.0104 5.16258C26.0099 5.20168 26.0094 5.24214 25.9856 5.2759C25.9214 5.36841 25.7153 5.37966 25.6746 5.38091C25.66 5.38148 25.6461 5.37625 25.6356 5.36659C25.6252 5.35704 25.6192 5.34375 25.6192 5.32999C25.6192 5.32943 25.6173 5.24044 25.5493 5.17554C25.4626 5.09269 25.4318 5.04984 25.4286 5.04529C25.4172 5.02893 25.4167 5.00779 25.4273 4.99097C25.4309 4.98528 25.5154 4.85117 25.5741 4.78116C25.6048 4.74445 25.5851 4.58511 25.4392 4.47135C25.3495 4.40134 25.2425 4.35428 25.1827 4.33701C25.1889 4.39281 25.1901 4.46578 25.1901 4.4668C25.1901 4.48589 25.1827 4.51476 25.1475 4.54386C25.0837 4.59648 24.9552 4.63057 24.8667 4.61841C24.8191 4.61193 24.7613 4.59727 24.7053 4.58295C24.6432 4.56715 24.579 4.55079 24.5466 4.55079C24.4766 4.55079 24.2693 4.55556 24.2671 4.55568C24.2483 4.55613 24.2299 4.5467 24.22 4.53101C24.2101 4.51533 24.2098 4.49567 24.2193 4.47976C24.2661 4.40088 24.3091 4.28143 24.291 4.25984C24.2427 4.20233 24.2171 4.17744 24.0672 4.13857C23.9424 4.10606 23.8823 4.09777 23.8542 4.09856C23.9404 4.26813 23.6837 4.39065 23.5869 4.43679C23.5305 4.46373 23.4774 4.47669 23.4306 4.48805C23.3539 4.50669 23.3033 4.51908 23.2673 4.57966C23.2318 4.63955 23.2394 4.76366 23.2454 4.80651C23.2473 4.82015 23.2432 4.83401 23.2343 4.84481C23.2253 4.85561 23.2122 4.86254 23.1978 4.8639L22.6553 4.91698L22.3389 5.12712C22.3322 5.13144 22.1933 5.21793 21.9515 5.21793C21.8489 5.21793 21.5946 5.27544 21.2355 5.37977C21.2212 5.38398 21.2056 5.38216 21.1927 5.37489C21.1798 5.36761 21.1706 5.35545 21.1675 5.34147C21.1465 5.24612 21.0367 4.94414 20.8151 4.81128C20.7153 4.7515 20.6052 4.73502 20.4878 4.76241C20.4689 4.76684 20.4491 4.76116 20.4359 4.74764C20.4349 4.74673 20.3311 4.64319 20.1948 4.64319C20.1932 4.64319 20.1917 4.64319 20.19 4.64319C20.1023 4.64478 20.0173 4.68956 19.9378 4.7765C19.9202 4.7956 19.8905 4.79958 19.8682 4.7856C19.7116 4.6882 19.5003 4.65694 19.3871 4.71434C19.3306 4.74298 19.3026 4.79105 19.3016 4.8614C19.3007 4.92391 19.3846 5.01154 19.4585 5.08894C19.524 5.15747 19.5859 5.22225 19.6112 5.28635C19.6506 5.38648 19.6185 5.49502 19.5875 5.59992C19.5722 5.65175 19.5564 5.70528 19.5505 5.75472C19.5479 5.77699 19.5303 5.79495 19.5072 5.79915C19.5061 5.79938 19.3629 5.82779 19.1271 5.98998C19.1118 6.00043 19.0923 6.01975 19.0975 6.06806C19.113 6.21103 19.3102 6.41731 19.3544 6.438C19.4979 6.46914 19.6518 6.55256 19.7404 6.61484C19.9352 6.75191 20.1307 6.60279 20.1327 6.6012C20.144 6.59245 20.1583 6.58847 20.1728 6.59007C20.1873 6.59166 20.2003 6.5987 20.2091 6.60973C20.2267 6.63155 20.641 7.1514 20.7889 7.73489C20.7941 7.7558 20.785 7.77763 20.7662 7.78945C20.7473 7.80127 20.7227 7.80047 20.7047 7.78763C20.4696 7.61919 19.9741 7.32563 19.7329 7.2488C19.7004 7.23846 19.6701 7.22834 19.6414 7.21879C19.4478 7.15413 19.3412 7.11855 19.1195 7.20595C18.8551 7.3104 18.8893 7.71159 18.8896 7.71569C18.8914 7.73455 18.882 7.75296 18.8652 7.76319C18.7197 7.85161 18.6235 8.15064 18.6963 8.2877C18.7362 8.36271 18.8264 8.3751 18.9643 8.3243C18.9797 8.31861 18.997 8.32009 19.0112 8.32816C19.0254 8.33623 19.0349 8.35021 19.0368 8.36578C19.0559 8.52001 19.1117 8.61866 19.2029 8.65889C19.3688 8.73231 19.633 8.60513 19.7208 8.5499C19.7369 8.53978 19.7574 8.53865 19.7746 8.54706C19.7788 8.5491 20.195 8.75004 20.4661 8.75004C20.4674 8.75004 20.4688 8.75004 20.47 8.75004C20.4898 8.75004 20.5079 8.76038 20.5172 8.77709C20.5212 8.78425 20.9161 9.49083 20.9791 9.59664C21.0038 9.63779 21.0403 9.7028 21.0865 9.78519C21.2374 10.0542 21.4902 10.5044 21.7608 10.8876C22.1585 11.4506 22.3835 11.5688 22.5024 11.5688C22.5294 11.5688 22.5522 11.588 22.5555 11.6134C22.5664 11.6973 22.9412 12.3388 23.3947 12.6512C24.1863 13.1965 24.2813 13.8619 24.3324 14.2194C24.3353 14.2394 24.338 14.2587 24.3408 14.277C24.3429 14.2911 24.3386 14.3054 24.3292 14.3164C24.3196 14.3275 24.3058 14.3342 24.2908 14.335C23.5447 14.3738 23.1716 14.7223 23.182 15.3704C23.1876 15.7356 23.5989 16.1261 23.8409 16.2992C23.9305 16.3633 24.0947 16.4454 24.2684 16.5324C24.5439 16.6702 24.8287 16.8127 24.9109 16.9301C24.9546 16.9925 24.9377 17.0794 24.8607 17.1886C24.7243 17.3819 24.4189 17.6237 24.1786 17.7856C24.0281 17.887 23.6622 18.1194 23.5152 18.0911C23.3317 18.0553 22.9627 18.1139 22.7758 18.3137C22.5773 18.5258 22.4981 18.7129 22.5403 18.8697C22.5973 19.0817 22.8603 19.173 22.8629 19.174C22.8775 19.1788 22.889 19.1895 22.8948 19.2032C22.9005 19.2168 22.8997 19.2321 22.8926 19.2452C22.85 19.324 22.8639 19.4674 22.9603 19.5616C23.0923 19.6905 23.3261 19.6874 23.6185 19.553C23.6259 19.5496 23.6339 19.5479 23.6418 19.5479H23.6419ZM27.8072 8.94893C27.8072 8.94893 27.8072 8.94893 27.8071 8.94893C27.8071 8.94893 27.8071 8.94893 27.8072 8.94893ZM27.8076 8.94882C27.8076 8.94882 27.8076 8.94882 27.8075 8.94882C27.8075 8.94882 27.8075 8.94882 27.8076 8.94882ZM19.3524 6.43823C19.3524 6.43823 19.3528 6.43823 19.3529 6.43823C19.3528 6.43823 19.3525 6.43823 19.3524 6.43823ZM25.171 4.28064C25.171 4.28064 25.171 4.28086 25.1711 4.28098C25.1711 4.28086 25.1711 4.28075 25.171 4.28064Z" fill="black"></path>
    <path d="M19.009 8.39644C19.0058 8.39644 19.0024 8.39609 18.9991 8.39553C18.9701 8.3903 18.951 8.3637 18.9563 8.33609C18.9831 8.20073 19.1301 8.12731 19.2376 8.07366C19.2777 8.05366 19.3155 8.03468 19.3366 8.01808C19.3592 8.00013 19.393 8.00297 19.4119 8.02456C19.4307 8.04616 19.4277 8.07832 19.4051 8.09628C19.3753 8.11992 19.3345 8.14026 19.2873 8.16379C19.1943 8.21016 19.0785 8.26801 19.0615 8.35484C19.0567 8.37927 19.0342 8.39644 19.009 8.39644Z" fill="black"></path>
    <path fill-rule="evenodd" clip-rule="evenodd" d="M22.7939 5.4691C22.7939 5.4691 22.9807 5.28259 23.0609 5.28259C23.0885 5.28259 23.1861 5.43034 23.2465 5.53627C23.3076 5.64253 22.7939 5.4691 22.7939 5.4691Z" fill="black"></path>
    <path d="M23.2076 5.62079C23.1409 5.62079 23.0164 5.59829 22.7761 5.51714C22.759 5.51135 22.7461 5.49771 22.7419 5.481C22.7377 5.46418 22.7428 5.44656 22.7553 5.43406C22.8163 5.37326 22.9679 5.23187 23.0609 5.23187C23.0827 5.23187 23.1338 5.23187 23.2935 5.51225C23.3184 5.55556 23.2962 5.5859 23.2887 5.5942C23.2797 5.60443 23.2647 5.62102 23.2076 5.62102V5.62079ZM22.8932 5.44747C23.0009 5.48066 23.1111 5.50907 23.1743 5.51771C23.1237 5.43338 23.0732 5.36189 23.0489 5.33643C23.0176 5.34768 22.9563 5.39178 22.8932 5.44747Z" fill="black"></path>
    <path d="M23.6423 19.6297C23.6237 19.6297 23.6056 19.6203 23.5958 19.6037C23.5147 19.4674 23.7118 19.1298 23.9353 18.9305C23.9569 18.9113 23.9907 18.9123 24.0108 18.9329C24.031 18.9534 24.0299 18.9856 24.0083 19.0048C23.7688 19.2184 23.6546 19.496 23.6889 19.5535C23.7034 19.578 23.6943 19.6091 23.6687 19.623C23.6603 19.6274 23.6513 19.6295 23.6424 19.6295L23.6423 19.6297ZM24.5878 19.6147C24.5767 19.6147 24.5655 19.6114 24.5558 19.6045C24.5322 19.5877 24.5273 19.5558 24.545 19.5333C24.6639 19.3816 24.8144 19.1303 24.9243 18.9468C24.9721 18.8672 25.0132 18.7983 25.0439 18.7507C25.352 18.2703 26.0719 17.7734 26.2851 17.6326C26.5412 17.4633 26.6475 17.3566 26.6523 17.2641C26.6578 17.1551 26.5225 17.0243 26.2708 16.821C26.1352 16.7118 26.0111 16.4395 26.0485 16.1498C26.0752 15.9421 26.1959 15.6526 26.6189 15.4542C26.6454 15.4417 26.6775 15.4521 26.6905 15.4773C26.7035 15.5026 26.6927 15.5332 26.6662 15.5455C26.286 15.7239 26.1782 15.9794 26.1547 16.1622C26.1203 16.4293 26.2449 16.6668 26.34 16.7432C26.6302 16.9777 26.767 17.1161 26.7592 17.269C26.7516 17.4192 26.5955 17.5514 26.3462 17.7162C25.9157 18.0006 25.3715 18.4355 25.1352 18.8037C25.1054 18.8501 25.0646 18.9183 25.0173 18.9972C24.9061 19.183 24.7537 19.4375 24.6307 19.5942C24.6201 19.6076 24.604 19.6147 24.5878 19.6147ZM22.8454 19.273C22.8388 19.273 22.8321 19.2719 22.8257 19.2694C22.7983 19.259 22.7848 19.2295 22.7957 19.2034C22.8022 19.1877 22.9579 18.819 23.2311 18.6666C23.2565 18.6524 23.2893 18.6604 23.3042 18.6848C23.3192 18.709 23.3107 18.7402 23.2851 18.7544C23.0441 18.889 22.8966 19.2374 22.8952 19.2409C22.8868 19.2609 22.8668 19.273 22.8454 19.273ZM24.8464 14.3763C24.8425 14.3763 24.8384 14.3758 24.8344 14.375C24.8307 14.3742 24.5914 14.3233 24.2905 14.3351C24.2898 14.3351 24.289 14.3351 24.2883 14.3351C24.2598 14.3351 24.2361 14.3137 24.2349 14.2864C24.2337 14.2583 24.2567 14.2346 24.2861 14.2334C24.6027 14.2209 24.848 14.2735 24.8582 14.2758C24.887 14.2821 24.905 14.3095 24.8984 14.3368C24.8927 14.3604 24.8708 14.3764 24.8464 14.3764V14.3763ZM22.6738 11.6865C22.6187 11.6865 22.5586 11.6815 22.4932 11.6697C22.4642 11.6645 22.4451 11.6379 22.4505 11.6103C22.4559 11.5827 22.4839 11.5645 22.5129 11.5696C22.7946 11.62 22.9515 11.5359 23.0656 11.467C22.8749 11.4282 22.7419 11.3611 22.7123 11.1618C22.7009 11.0862 22.7679 11.0565 22.8169 11.0347C22.8757 11.0084 22.9425 10.9786 22.9763 10.8824C23.0448 10.6863 23.0415 10.6004 23.0277 10.4824C23.0216 10.4308 23.0237 10.3513 23.0257 10.2744C23.0273 10.2151 23.0295 10.1303 23.0249 10.0908C22.9796 10.0854 22.9397 10.0792 22.9037 10.0735C22.7387 10.0473 22.7043 10.042 22.6518 10.1757C22.6159 10.267 22.6169 10.3247 22.6179 10.3857C22.6192 10.4612 22.6206 10.5391 22.55 10.6616L22.5377 10.6831C22.4519 10.8336 22.3777 10.9635 22.0636 10.8736C21.7339 10.7792 21.6914 10.4729 21.6897 10.4599C21.6863 10.4326 21.7061 10.4077 21.7345 10.4035C21.7419 10.4024 21.9204 10.3725 21.9378 10.2159C21.944 10.1591 21.9097 10.0984 21.8733 10.0342C21.8358 9.96802 21.797 9.8996 21.7894 9.81936C21.7877 9.80231 21.7859 9.78595 21.7841 9.77015C21.7741 9.68059 21.7652 9.59967 21.8054 9.50124C21.7255 9.53364 21.6237 9.55818 21.519 9.53295C21.4147 9.50784 21.3266 9.43817 21.2572 9.32588C21.1892 9.21666 21.1187 8.85013 21.1756 8.74318C21.1827 8.72977 21.2045 8.6884 21.2494 8.67737C21.2949 8.66624 21.3333 8.69135 21.3704 8.71567C21.4273 8.75295 21.4918 8.79512 21.6048 8.75318C21.6621 8.73193 21.7111 8.70806 21.7526 8.68033C21.5736 8.51837 20.9112 7.93499 20.7055 7.78792C20.6818 7.77099 20.6771 7.73917 20.6948 7.71666C20.7126 7.69416 20.7462 7.68961 20.7697 7.70655C20.9799 7.85691 21.659 8.45507 21.8326 8.61248C21.903 8.53565 21.9401 8.43393 21.956 8.29186C21.9839 8.03967 22.0688 7.77645 22.1534 7.67961C22.1843 7.64415 22.2265 7.60938 22.2663 7.58028C22.0677 7.56255 21.766 7.53334 21.695 7.51391C21.5885 7.48481 21.397 7.22466 21.3588 7.10339C21.3537 7.08703 21.3379 7.03725 21.3692 7.00258C21.3798 6.99088 21.3947 6.98485 21.4098 6.98485H21.4103L22.3407 6.98792L22.3393 6.65583C22.1841 6.65344 21.7349 6.64583 21.5913 6.63435C21.5333 6.62969 21.4748 6.63537 21.4184 6.64094C21.31 6.65151 21.2077 6.66151 21.1359 6.59275C21.046 6.50705 21.0361 6.14416 21.0357 6.00937C20.9946 5.95572 20.8666 5.77922 20.8666 5.67023C20.8666 5.56123 20.8983 5.40848 20.8997 5.40223C20.9036 5.38439 20.9172 5.36984 20.9353 5.36416C20.9365 5.36382 21.0519 5.32734 21.205 5.28301C21.2333 5.27483 21.2631 5.29006 21.2717 5.31688C21.2803 5.34382 21.2643 5.37223 21.2361 5.38041C21.1302 5.4111 21.0426 5.43792 20.9989 5.45145C20.99 5.49884 20.9736 5.59556 20.9736 5.67023C20.9736 5.73706 21.0706 5.88458 21.1318 5.96197C21.1389 5.97084 21.1426 5.98164 21.1426 5.99277C21.1422 6.21565 21.1698 6.48114 21.2116 6.52103C21.2458 6.55377 21.3083 6.54945 21.4075 6.53979C21.4661 6.5341 21.5325 6.52763 21.6004 6.53308C21.7605 6.54592 22.3353 6.55422 22.3894 6.55502C22.3905 6.55502 22.3918 6.55502 22.3926 6.55502C22.4221 6.55502 22.446 6.57763 22.4461 6.60571L22.4479 7.03918C22.4479 7.0527 22.4423 7.06577 22.4322 7.07543C22.4222 7.08498 22.4086 7.09032 22.3944 7.09032H22.3942L21.4644 7.08725C21.5014 7.18284 21.6685 7.40116 21.7243 7.41639C21.7939 7.43537 22.1955 7.47322 22.4485 7.49402C22.478 7.4964 22.4997 7.52107 22.4972 7.54914C22.4947 7.5771 22.4689 7.5979 22.4393 7.59551C22.4374 7.5954 22.435 7.59517 22.4321 7.59494C22.4103 7.6079 22.2942 7.67802 22.2355 7.74508C22.1741 7.81532 22.0905 8.04853 22.0623 8.30289C22.0301 8.59202 21.9087 8.75011 21.6434 8.84854C21.4777 8.91014 21.3724 8.84126 21.3095 8.80012C21.299 8.7933 21.2857 8.78443 21.2766 8.77989C21.2751 8.78216 21.2731 8.78534 21.2709 8.78955C21.2401 8.84751 21.2848 9.17142 21.3489 9.27473C21.4035 9.36282 21.4693 9.41669 21.5449 9.43487C21.6757 9.46635 21.8097 9.38918 21.8741 9.35213C21.9072 9.33304 21.9448 9.31156 21.9766 9.34429C22.0086 9.37725 21.9806 9.41475 21.9671 9.43283C21.8684 9.56489 21.8771 9.64252 21.8902 9.76015C21.892 9.77651 21.8939 9.79333 21.8956 9.81095C21.9012 9.87039 21.9332 9.92688 21.9671 9.98654C22.0096 10.0616 22.0536 10.1392 22.0439 10.2273C22.0266 10.3827 21.9007 10.4614 21.8055 10.4918C21.8278 10.5675 21.8964 10.7203 22.0941 10.7769C22.325 10.8429 22.3596 10.7821 22.4433 10.6353L22.4558 10.6135C22.5127 10.5146 22.5117 10.4588 22.5105 10.3881C22.5095 10.3234 22.5081 10.2502 22.5512 10.1407C22.6346 9.92847 22.7547 9.94745 22.9208 9.97381C22.9629 9.98052 23.0108 9.98802 23.0652 9.99348C23.1396 10.0009 23.1373 10.0876 23.1323 10.2777C23.1304 10.3511 23.1283 10.4269 23.1336 10.4717C23.148 10.596 23.1524 10.7004 23.0774 10.9153C23.029 11.0531 22.9284 11.098 22.8619 11.1276C22.8463 11.1346 22.8257 11.1438 22.8182 11.1498C22.8378 11.2766 22.9067 11.3317 23.09 11.3686C23.2836 11.4075 23.427 11.3722 23.5414 11.2574C23.6029 11.1958 23.6273 11.0787 23.6509 10.9657C23.6605 10.9197 23.6704 10.8724 23.6828 10.8291C23.7021 10.7611 23.6973 10.6441 23.693 10.5408C23.6881 10.4225 23.684 10.3203 23.71 10.2626C23.7558 10.1611 23.8895 10.0479 23.9627 10.0479C23.9634 10.0479 23.964 10.0479 23.9648 10.0479C23.9951 10.0488 24.0755 10.0512 24.1929 10.3693C24.2539 10.5345 24.2997 10.7202 24.307 10.8313C24.3205 11.0374 24.2323 11.1294 24.1614 11.2034C24.158 11.2071 24.1545 11.2106 24.1512 11.2141C24.212 11.2522 24.3874 11.3109 24.5127 11.2832C24.7686 11.2267 24.8332 10.9154 24.8489 10.7348C24.861 10.5931 24.802 10.439 24.75 10.303L24.7391 10.2744C24.7134 10.2065 24.7244 10.134 24.7711 10.0649C24.8278 9.98097 24.9253 9.91994 24.9808 9.91562C25.0049 9.91392 25.0685 9.90915 25.1936 10.1035C25.2474 10.1871 25.3082 10.3045 25.3228 10.3783C25.3677 10.6066 25.44 10.8524 25.7325 10.8777C25.7618 10.8802 25.7836 10.905 25.7809 10.933C25.7782 10.9611 25.7522 10.9817 25.7228 10.9792C25.3252 10.9446 25.2526 10.5748 25.2178 10.3972C25.1956 10.285 25.0402 10.0438 24.9858 10.018C24.9634 10.0246 24.8955 10.0651 24.8572 10.1263C24.8322 10.1661 24.8265 10.2043 24.84 10.2399L24.8508 10.2682C24.9066 10.414 24.9698 10.5792 24.9558 10.7432C24.9246 11.1027 24.7759 11.3297 24.5373 11.3824C24.359 11.4218 24.0908 11.328 24.0422 11.2531C24.0251 11.2268 24.0265 11.1968 24.0457 11.1747C24.0577 11.1609 24.0705 11.1475 24.0828 11.1347C24.1489 11.0657 24.2113 11.0004 24.2007 10.8376C24.1944 10.7414 24.1541 10.5757 24.1006 10.4252C24.0327 10.2346 23.98 10.1661 23.9603 10.1512C23.9291 10.1636 23.8421 10.2286 23.8087 10.3026C23.7922 10.3391 23.7965 10.4441 23.8003 10.5366C23.8051 10.6525 23.81 10.7725 23.7864 10.8555C23.7749 10.8954 23.7658 10.9391 23.7562 10.9852C23.7297 11.1126 23.7022 11.2443 23.6193 11.3273C23.523 11.4239 23.4079 11.476 23.2708 11.4841C23.2618 11.491 23.2502 11.4951 23.2376 11.4951C23.2186 11.4951 23.1811 11.5179 23.1416 11.542C23.0481 11.5989 22.904 11.6868 22.6738 11.6868V11.6865ZM18.8371 7.7711C18.8151 7.7711 18.7943 7.75792 18.7867 7.73689C18.777 7.7103 18.7917 7.68132 18.8196 7.67211C18.8311 7.66836 19.1023 7.57903 19.2471 7.57903C19.2765 7.57903 19.3005 7.60187 19.3005 7.62995C19.3005 7.65802 19.2765 7.68086 19.2471 7.68086C19.1204 7.68086 18.8574 7.76735 18.8548 7.76826C18.849 7.77019 18.8431 7.7711 18.8373 7.7711H18.8371ZM20.0778 5.19243C20.054 5.19243 20.0323 5.1772 20.0261 5.15424C19.9823 4.9932 19.9634 4.97172 19.8842 4.88148C19.8559 4.84931 19.8207 4.80931 19.7754 4.75271C19.7575 4.73032 19.7619 4.69838 19.7854 4.68133C19.8089 4.66428 19.8424 4.66849 19.8603 4.69088C19.9044 4.74566 19.9387 4.78476 19.9663 4.81612C20.0513 4.91284 20.0798 4.94535 20.1297 5.12867C20.1371 5.15595 20.1199 5.18368 20.0914 5.19073C20.0868 5.19186 20.0824 5.19232 20.0779 5.19232L20.0778 5.19243ZM20.5709 5.08605C20.5694 5.08605 20.568 5.08605 20.5664 5.08594C20.537 5.08366 20.5151 5.05911 20.5174 5.03104C20.5174 5.02979 20.5272 4.87897 20.4055 4.72975C20.3873 4.70759 20.3916 4.67554 20.4149 4.65826C20.4381 4.64099 20.4718 4.64496 20.4899 4.66724C20.6383 4.84908 20.6247 5.03161 20.6241 5.03923C20.6218 5.06582 20.5984 5.08605 20.5709 5.08605Z" fill="black"></path>
    <path d="M27.0768 15.1295C27.0656 15.1295 27.0541 15.1271 27.0433 15.1222C27.0045 15.1045 26.9881 15.0603 27.0067 15.0234C27.0686 14.9007 27.2342 14.5602 27.2587 14.4597C27.2683 14.4198 27.3101 14.3951 27.352 14.4043C27.3939 14.4135 27.4199 14.4532 27.4102 14.4931C27.3775 14.6276 27.1705 15.0408 27.1471 15.0874C27.1337 15.114 27.1059 15.1295 27.0769 15.1295H27.0768ZM22.592 7.62395C22.4987 7.62395 22.4292 7.62281 22.4067 7.62247C22.3638 7.62167 22.3296 7.58792 22.3305 7.547C22.3313 7.50654 22.3659 7.47438 22.4081 7.47438C22.4086 7.47438 22.4091 7.47438 22.4097 7.47438C22.7122 7.47983 23.2344 7.47165 23.3482 7.42653C23.4164 7.39937 23.521 7.31708 23.6132 7.24457C23.7683 7.12251 23.8682 7.04738 23.9531 7.04625C24.0343 7.03647 24.4929 6.8269 24.5466 6.70347C24.6397 6.49037 24.6604 6.31637 24.6265 6.27113C24.5495 6.16839 24.4654 5.79209 24.4493 5.71776C24.4428 5.68787 24.4563 5.65718 24.4832 5.64059C24.5351 5.60842 24.6785 5.50466 24.7173 5.41158C24.7598 5.30974 24.7502 5.17597 24.6607 5.12847C24.5589 5.07448 24.2876 5.07687 24.2204 5.08982C24.201 5.09357 24.1808 5.09005 24.1639 5.08016C24.0518 5.01379 23.8496 4.90195 23.7846 4.88434C23.7241 4.86786 23.4249 4.87263 23.2317 4.88127C23.1887 4.88309 23.1523 4.85161 23.1503 4.81081C23.1483 4.77 23.1814 4.73523 23.2243 4.73329C23.3063 4.72966 23.7205 4.71284 23.8273 4.74193C23.9203 4.76728 24.1441 4.89502 24.2218 4.94026C24.3318 4.92866 24.6006 4.92719 24.7364 4.99924C24.9087 5.09062 24.9299 5.30338 24.8618 5.46647C24.8132 5.58285 24.6826 5.68616 24.6122 5.7356C24.6512 5.90597 24.7142 6.1335 24.7531 6.18533C24.8605 6.32887 24.7449 6.63539 24.6902 6.76052C24.6045 6.95737 24.0615 7.19456 23.9549 7.19456C23.916 7.19866 23.7884 7.29901 23.7121 7.35891C23.6066 7.44187 23.4976 7.52768 23.4079 7.56337C23.2755 7.61599 22.8459 7.62406 22.5919 7.62406L22.592 7.62395ZM23.9547 7.04625H23.9541H23.9549H23.9547Z" fill="black"></path>
    <path fill-rule="evenodd" clip-rule="evenodd" d="M12.9978 6.95749L12.6136 7.07274L12.227 5.90086L11.7511 6.04383L11.6599 5.76754C11.9295 5.69242 12.1466 5.53069 12.0962 5.24224L12.4017 5.15041L12.9978 6.95749ZM13.5446 6.33319C13.5899 6.45537 13.7081 6.54766 13.8454 6.52766C14.1341 6.48549 14.1518 6.11316 14.1296 5.9029L14.1231 5.89847C14.0376 6.06145 13.9043 6.14408 13.7136 6.17181C13.5453 6.19624 13.3623 6.14635 13.2313 6.04508C13.1092 5.9453 13.0366 5.79687 13.0131 5.64991C12.952 5.26724 13.181 4.92458 13.5902 4.8648C14.1845 4.77808 14.4235 5.24963 14.4993 5.72311C14.5724 6.18067 14.4431 6.73337 13.8853 6.81474C13.5461 6.86407 13.2634 6.71109 13.1659 6.38843L13.5445 6.33319H13.5446ZM14.0242 5.4775C13.9961 5.30361 13.8507 5.14688 13.6516 5.17587C13.461 5.20371 13.3795 5.39363 13.4066 5.56206C13.4349 5.73879 13.5584 5.9012 13.7632 5.87142C13.9762 5.84017 14.0537 5.66196 14.0242 5.47739V5.4775ZM15.6493 4.78695C16.045 4.81638 16.3591 5.07869 16.2992 5.81539C16.2379 6.568 15.8847 6.78087 15.4891 6.75144C15.0989 6.72234 14.7847 6.46015 14.8462 5.70742C14.9061 4.97084 15.2588 4.7583 15.6493 4.78706V4.78695ZM15.5148 6.43582C15.8427 6.46015 15.8806 5.99871 15.8979 5.78561C15.914 5.58865 15.9515 5.12734 15.6238 5.10301C15.3012 5.07915 15.2635 5.54035 15.2474 5.73743C15.2301 5.95041 15.1926 6.41184 15.5148 6.43582ZM17.2751 6.58653L16.4658 6.37422L16.5634 6.03486L17.7013 5.18825L18.0485 5.2794L17.7321 6.37786L17.9864 6.4448L17.8984 6.74996L17.6441 6.68336L17.5226 7.10615L17.1535 7.00932L17.275 6.58653H17.2751ZM17.546 5.64707L17.5375 5.64468L16.8601 6.14896L17.3631 6.28103L17.546 5.64707ZM5.46567 20.4475L5.98478 20.4306L6.04994 22.2675L7.03923 22.2376L7.05415 22.6545L5.54574 22.7007L5.46567 20.4477V20.4475ZM7.64736 22.0082C7.61992 22.2918 7.74593 22.439 8.00489 22.4725C8.19189 22.4969 8.35825 22.4069 8.40216 22.3107L8.81184 22.3642C8.62592 22.7287 8.32412 22.8551 7.94057 22.8049C7.40619 22.7353 7.12527 22.3417 7.19687 21.841C7.26632 21.3562 7.67004 21.0326 8.18461 21.1C8.7616 21.1755 8.97378 21.6747 8.86984 22.1676L7.64724 22.0082H7.64736ZM8.44488 21.8257C8.4345 21.5949 8.34989 21.4623 8.12375 21.4333C7.82875 21.3946 7.71204 21.6025 7.6877 21.7269L8.44488 21.8257ZM9.94446 23.1757L9.43943 23.0472L9.31341 21.3258L9.7898 21.4468L9.83789 22.6126L9.84421 22.6142L10.4932 21.6256L10.944 21.7399L9.94434 23.1757H9.94446ZM11.3792 22.8358C11.3122 23.1128 11.4162 23.275 11.6681 23.3417C11.8497 23.3898 12.0273 23.3222 12.0845 23.2324L12.4828 23.3381C12.2474 23.6755 11.9303 23.7619 11.5573 23.6631C11.0378 23.5251 10.815 23.0992 10.9565 22.6125C11.0938 22.1406 11.5394 21.8724 12.04 22.005C12.6011 22.1539 12.7408 22.6759 12.5683 23.1508L11.3791 22.8357L11.3792 22.8358ZM12.1952 22.7573C12.2177 22.527 12.1525 22.3854 11.9326 22.3269C11.6456 22.2509 11.5007 22.442 11.4588 22.5622L12.1952 22.7573ZM13.2219 22.3372L13.6628 22.4043L13.613 22.7037L13.6194 22.7046C13.7383 22.5149 13.9903 22.4092 14.2157 22.4435C14.2484 22.4484 14.2866 22.4604 14.3144 22.4747L14.2458 22.8863C14.1927 22.8676 14.1377 22.8538 14.0817 22.8455C13.7418 22.7939 13.5851 23.0096 13.5378 23.2935L13.4165 24.0206L12.9526 23.9498L13.2215 22.3372H13.2219ZM14.625 21.9155L15.0941 21.8918L15.1603 23.0995L15.7195 22.4835L16.2749 22.4556L15.6634 23.0872L16.4369 24.0825L15.8686 24.1108L15.3596 23.4059L15.187 23.5822L15.2178 24.1435L14.7487 24.1669L14.6252 21.9155H14.625ZM18.5907 23.5833L18.1575 23.6872L18.0995 23.4667L18.09 23.4691C18.0213 23.6747 17.8448 23.808 17.6526 23.8537C17.168 23.97 16.9773 23.7392 16.8745 23.3469L16.6179 22.373L17.0738 22.2639L17.3093 23.1581C17.3775 23.4183 17.4916 23.5278 17.7038 23.4771C17.9508 23.4181 18.0218 23.2608 17.9372 22.9394L17.7189 22.1096L18.1744 22.0003L18.5909 23.5835L18.5907 23.5833ZM19.303 22.821C19.362 23.0081 19.5504 23.0394 19.7283 22.9911C19.859 22.956 20.0097 22.8624 19.9646 22.7107C19.9259 22.58 19.7245 22.5855 19.38 22.6062C19.1028 22.6219 18.8156 22.6047 18.7336 22.3283C18.6143 21.9272 18.9464 21.7257 19.2998 21.6302C19.6595 21.5329 20.0251 21.5588 20.1743 21.935L19.7448 22.0511C19.6826 21.8876 19.5351 21.878 19.3727 21.9221C19.2709 21.9498 19.1269 22.0084 19.1647 22.136C19.2106 22.2912 19.4717 22.2435 19.7467 22.2312C20.0277 22.2173 20.3128 22.2391 20.3997 22.5303C20.5225 22.9435 20.1866 23.1786 19.8108 23.2807C19.4287 23.384 19.016 23.3481 18.873 22.9369L19.303 22.8211V22.821ZM21.1412 22.1837C21.205 22.4616 21.3716 22.5655 21.6294 22.5228C21.815 22.492 21.9453 22.3585 21.9565 22.2539L22.3641 22.1865C22.3027 22.5876 22.0549 22.7955 21.6736 22.8586C21.1418 22.9468 20.7495 22.6525 20.659 22.1547C20.5714 21.6726 20.8534 21.2479 21.3651 21.1629C21.9389 21.0677 22.2995 21.4827 22.3573 21.9828L21.1414 22.1837H21.1412ZM21.8432 21.7792C21.7601 21.5621 21.6377 21.4605 21.4131 21.4983C21.1193 21.5466 21.0744 21.7783 21.0905 21.9039L21.8432 21.7792ZM22.8258 21.0232L23.2723 21.0335L23.2666 21.2607L23.2765 21.2611C23.4002 21.0808 23.6076 20.9974 23.8061 21.0016C24.3053 21.0134 24.4243 21.2846 24.4141 21.6885L24.3885 22.6925L23.9188 22.6816L23.9423 21.7598C23.9492 21.4914 23.8697 21.3573 23.6515 21.3521C23.3967 21.3461 23.2842 21.4791 23.2757 21.8107L23.2538 22.666L22.7844 22.6551L22.8259 21.0233L22.8258 21.0232ZM7.64868 14.4842C7.64868 10.6072 10.9419 7.46427 15.0039 7.46427C19.066 7.46427 22.3593 10.6072 22.3593 14.4842C22.3593 18.3611 19.0661 21.5036 15.0039 21.5036C10.9417 21.5036 7.64868 18.3609 7.64868 14.4842ZM15.0039 21.0459C18.8017 21.0459 21.8798 18.1081 21.8798 14.4842C21.8798 10.8602 18.8014 7.92218 15.0039 7.92218C11.2064 7.92218 8.12829 10.8601 8.12829 14.4842C8.12829 18.1082 11.2068 21.0459 15.0039 21.0459Z" fill="black"></path>
    <path fill-rule="evenodd" clip-rule="evenodd" d="M14.0202 13.1095L14.7731 10.9145H15.2171L15.992 13.1119H15.5985L15.4716 12.7457H14.5387L14.3979 13.1095H14.0202ZM14.6974 12.2604H15.3036L14.9994 11.4027L14.6974 12.2604ZM14.5163 16.3726H15.7523V15.8891H14.1674V18.0832H15.7509V17.6011H14.511V17.2288H15.7515V16.7452H14.5163V16.3726ZM15.8389 9.95656C15.8389 10.3173 15.6234 10.6137 15.402 10.6137H14.1644V8.41644H15.3575C15.5749 8.41644 15.7925 8.59999 15.7925 9.07904C15.7925 9.19224 15.7476 9.40272 15.662 9.51047C15.7632 9.61287 15.8389 9.7896 15.8389 9.95656ZM15.312 8.90379H14.514V9.26679H15.3188C15.4895 9.26691 15.4853 8.90379 15.312 8.90379L15.3702 9.75107H14.5159V10.1296H15.367C15.5534 10.1296 15.5591 9.75107 15.3702 9.75107L15.312 8.90379ZM12.3119 14.9201C12.3119 15.2809 12.0964 15.5772 11.875 15.5772H10.5933V13.3799H11.8305C12.0479 13.3799 12.2652 13.5634 12.2652 14.0426C12.2652 14.1557 12.2205 14.3663 12.135 14.4739C12.236 14.5763 12.3119 14.7531 12.3119 14.9201ZM11.7849 13.8675H10.9428V14.2305H11.7917C11.9625 14.2305 11.9582 13.8675 11.7849 13.8675L11.8431 14.7149H10.9447V15.0931H11.8399C12.0263 15.0931 12.0319 14.7149 11.8431 14.7149L11.7849 13.8675ZM12.3627 15.575L13.1156 13.38H13.5597L14.3346 15.5775H13.9409L13.814 15.2113H12.8812L12.7403 15.575H12.3627ZM13.04 14.7261H13.6463L13.3421 13.8684L13.04 14.7261ZM19.3945 14.075C19.3951 14.4383 19.227 14.7694 18.977 14.77L19.4003 15.5761L18.968 15.5785L18.5528 14.7825H18.1588V15.5757H17.8122V13.3811H18.9747C19.2249 13.3808 19.3943 13.6848 19.3945 14.075ZM18.884 13.8625H18.1588V14.2938H18.8896C19.0997 14.2938 19.0996 13.8625 18.884 13.8625ZM13.906 13.3818H14.3913L14.9563 14.2748L15.5223 13.3818H16.0105L15.131 14.7265V15.5766H14.7817V14.7244L13.906 13.3818ZM16.4107 13.8639H17.4668V13.3805H16.0618V15.5749H17.4651V15.0925H16.4054V14.7201H17.4659V14.2367H16.4107V13.8639ZM15.7941 19.0857C15.7945 19.4491 15.6265 19.7805 15.3766 19.7807L15.7998 20.5872L15.3677 20.5893L14.9525 19.7936H14.5145V20.5868H14.168V18.3919H15.3741C15.6246 18.3915 15.794 18.6956 15.7941 19.0857ZM15.2837 18.8732H14.5146V19.3045H15.2892C15.4992 19.3045 15.4992 18.8732 15.2837 18.8732Z" fill="black"></path>
  </g>
  <defs>
    <clipPath id="clip0_404_562">
      <rect width="29.0635" height="21.0173" fill="white" transform="translate(0.468262 3.98273)"></rect>
    </clipPath>
  </defs>
</svg>
