<?xml version="1.0" encoding="UTF-8"?>
<svg xmlns="http://www.w3.org/2000/svg" width="32" height="33" viewBox="0 0 32 33" fill="none">
  <circle cx="16" cy="16.8385" r="13.3299" fill="white"></circle>
  <path d="M14.3737 0.0728955C16.6565 -0.132884 18.9876 0.0887247 21.1587 0.843529C24.0721 1.82494 26.6747 3.68279 28.5751 6.09633C30.4546 8.46655 31.6318 11.3816 31.93 14.3917C32.0658 16.0196 32.0158 17.6725 31.6751 19.2737C31.2002 21.5715 30.2096 23.7609 28.795 25.6338C27.3354 27.5707 25.4342 29.1745 23.2731 30.275C21.032 31.4189 18.5177 32.0329 16 32.0071C13.3573 32.0338 10.7189 31.3539 8.39613 30.1001C5.70017 28.6463 3.43909 26.3994 1.96364 23.7151C0.942236 21.8589 0.298237 19.7961 0.0766278 17.6883C-0.122487 15.4764 0.0533005 13.2128 0.758951 11.0992C1.7212 8.06665 3.63237 5.35152 6.13755 3.3937C8.49444 1.53502 11.3887 0.37615 14.3737 0.0728955ZM13.7839 0.556103C10.0799 1.08097 6.59244 2.99047 4.16473 5.8364C2.41769 7.87837 1.19051 10.3686 0.687303 13.012C0.370718 14.4583 0.435701 15.9496 0.470692 17.4192C0.683137 20.0769 1.64039 22.6612 3.15083 24.854C5.70267 28.6063 9.97739 31.1407 14.5029 31.5314C15.251 31.5722 16.0008 31.5614 16.749 31.5572C17.8295 31.5589 18.9017 31.3756 19.9448 31.1057C22.1009 30.55 24.1279 29.5136 25.8524 28.1064C29.0966 25.4838 31.2335 21.5048 31.5376 17.3367C31.5535 15.9696 31.6326 14.5841 31.3552 13.2361C30.9394 10.8434 29.9389 8.55569 28.4668 6.62453C26.9097 4.52257 24.7869 2.85467 22.41 1.77329C20.5047 0.927673 18.4252 0.415306 16.3332 0.450297C15.4826 0.452797 14.627 0.430303 13.7839 0.556103ZM5.83347 25.4246C6.05841 25.0256 6.42581 24.7373 6.75323 24.4266C7.07564 24.6865 7.34974 24.9981 7.64883 25.283C7.56052 25.388 7.46971 25.4913 7.37723 25.5929C7.17228 25.4796 6.9865 25.2597 6.73073 25.3063C6.84487 25.493 6.9715 25.6704 7.09814 25.8495C6.9865 25.9328 6.87236 26.0128 6.75239 26.0836C6.62326 25.9853 6.51912 25.8187 6.35333 25.7887C6.14505 25.9378 5.99259 26.1636 5.74516 26.2553L5.79014 26.2036C5.9701 26.0012 6.16671 25.8145 6.36 25.6246C6.51912 25.7596 6.67741 25.8945 6.83904 26.027C6.88736 25.9453 6.93568 25.8645 6.984 25.7829C6.8582 25.6496 6.73323 25.5155 6.60826 25.3813C6.69824 25.2905 6.78905 25.1997 6.87903 25.1089C7.02566 25.2447 7.17312 25.3788 7.32225 25.5113C7.3864 25.4471 7.45138 25.383 7.51636 25.3197C7.29559 25.0347 7.03565 24.7831 6.75406 24.559C6.43914 24.8381 6.14838 25.1447 5.83347 25.4246ZM25.0618 24.4332C25.2151 24.4449 25.3684 24.4407 25.5225 24.4424C25.7766 24.5124 25.8416 24.8123 26.0449 24.9523C26.1807 25.0614 26.3598 25.1389 26.4331 25.3072C26.4989 25.5121 26.4964 25.7646 26.3365 25.927C26.1074 26.1944 25.8466 26.4344 25.5817 26.666C25.2393 26.3552 24.9243 26.0162 24.5903 25.6962C24.4536 25.5521 24.3178 25.4071 24.1804 25.2638C24.4786 24.9923 24.7427 24.6832 25.0618 24.4332ZM25.0535 24.559C24.7869 24.7681 24.5661 25.0281 24.3278 25.268C24.7194 25.7221 25.1634 26.1286 25.5917 26.5468C25.8974 26.2211 26.4464 25.9378 26.3673 25.4196C26.3465 25.1797 26.0749 25.1214 25.9149 24.9948C25.7949 24.8631 25.7275 24.6907 25.5925 24.5732C25.44 24.4591 25.2034 24.4249 25.0535 24.559ZM7.58218 25.7087C7.83378 25.6937 8.08621 25.6946 8.33865 25.7087C8.08705 25.7387 7.83295 25.7396 7.58218 25.7087ZM7.95208 26.2036C8.11871 26.1553 8.29699 26.2219 8.38447 26.3744C8.51777 26.8193 8.09205 27.3641 7.6255 27.2942C7.19645 27.0026 7.56552 26.3552 7.95208 26.2036ZM8.02623 26.2844C7.7563 26.3394 7.60384 26.616 7.5047 26.8501C7.42389 27.0409 7.62383 27.2708 7.82878 27.2C8.06955 27.1117 8.25034 26.8926 8.33865 26.656C8.42529 26.466 8.23034 26.2286 8.02623 26.2844ZM21.7193 27.1942C21.5669 26.9026 21.9834 26.8201 22.1592 26.6943C22.4317 27.0675 22.6041 27.5033 22.8815 27.8715C23.0948 27.9473 23.2864 27.7457 23.4805 27.6791C23.5472 27.814 23.7122 27.9698 23.6288 28.1289C23.3131 28.3689 22.9524 28.5422 22.6024 28.7271C22.3242 28.2064 21.9926 27.7165 21.7193 27.1942ZM21.7535 27.0151C22.0001 27.5691 22.3275 28.0873 22.6558 28.5963C22.974 28.4364 23.2789 28.2522 23.583 28.0681C23.5372 27.9748 23.4905 27.8815 23.4431 27.7899C23.2689 27.8832 23.1015 27.9915 22.9165 28.0648C22.8191 28.039 22.7966 27.919 22.7399 27.849C22.5466 27.5074 22.3558 27.1642 22.1484 26.8301C22.0168 26.8901 21.8851 26.9526 21.7535 27.0151ZM9.39421 26.8718C9.85742 26.7801 10.4506 26.8876 10.6347 27.3808C10.7214 27.6557 10.713 27.9498 10.6289 28.2239C10.6006 28.343 10.4914 28.4172 10.4156 28.5063C10.6081 28.1339 10.7622 27.6457 10.4798 27.2758C10.2565 26.9351 9.8216 26.9109 9.45586 26.8768L9.39421 26.8718ZM11.0005 27.4683C11.0354 27.4683 11.1054 27.4658 11.1404 27.4649C11.4487 27.5799 11.7528 27.7074 12.0702 27.7965C12.1535 27.8232 12.236 27.8507 12.3193 27.8782C12.3126 28.0315 12.291 28.1839 12.2143 28.3197C12.0927 28.3006 11.971 28.2772 11.8486 28.2822C11.7161 28.3955 11.6861 28.5813 11.6236 28.7371C11.5387 29.0245 11.4428 29.3086 11.3104 29.5786C11.1371 29.5311 10.8822 29.5486 10.7813 29.3861C10.7838 29.0912 10.9055 28.8013 11.0404 28.543C11.0863 28.4747 11.1321 28.4072 11.1787 28.3405C11.0604 28.6746 10.9438 29.0095 10.8338 29.3461C10.9738 29.4019 11.1138 29.4578 11.2537 29.5136C11.4412 29.062 11.592 28.5963 11.7644 28.1398C11.9019 28.1681 12.0394 28.1948 12.1768 28.2222C12.1943 28.1314 12.2126 28.0415 12.2301 27.9515C11.8544 27.8015 11.4728 27.6632 11.0838 27.5508C11.0513 27.6016 10.9863 27.7032 10.9538 27.7549C11.0729 27.8357 11.1937 27.9157 11.3095 28.0023C11.3004 28.0273 11.2837 28.0773 11.2746 28.1023C11.1429 28.0173 11.0105 27.9348 10.8772 27.8532C10.9188 27.7249 10.9596 27.5966 11.0005 27.4683ZM7.58551 27.7874C7.80045 27.7724 8.01707 27.7657 8.23118 27.7907C8.01956 27.8407 7.79879 27.809 7.58551 27.7874ZM21.611 28.353C21.761 28.3697 21.9101 28.388 22.0593 28.4097C22.0093 28.7921 21.821 29.2078 21.4252 29.3328C21.1187 29.4153 20.7304 29.4253 20.4988 29.172C20.8229 29.2853 21.2061 29.3928 21.5219 29.1962C21.786 29.0529 21.9093 28.7654 21.9668 28.4847C21.8801 28.4763 21.7927 28.468 21.706 28.4614C21.6402 28.5613 21.5744 28.6605 21.5069 28.7596C21.5386 28.623 21.5735 28.488 21.611 28.353Z" fill="#BB8A1A"></path>
  <path d="M13.7839 0.556221C14.627 0.43042 15.4826 0.452915 16.3332 0.450415C18.4252 0.415424 20.5046 0.927791 22.41 1.7734C24.7869 2.85479 26.9097 4.52269 28.4667 6.62464C29.9389 8.55581 30.9394 10.8435 31.3552 13.2363C31.6326 14.5842 31.5534 15.9697 31.5376 17.3369C31.2335 21.5049 29.0966 25.4839 25.8524 28.1066C24.1279 29.5137 22.1009 30.5501 19.9448 31.1058C18.9017 31.3757 17.8295 31.559 16.749 31.5573C16.0008 31.5615 15.251 31.5723 14.5029 31.5315C9.97738 31.1408 5.70266 28.6064 3.15082 24.8541C1.64038 22.6613 0.683129 20.077 0.470684 17.4193C0.435693 15.9497 0.37071 14.4584 0.687294 13.0122C1.1905 10.3687 2.41768 7.87849 4.16472 5.83652C6.59243 2.99059 10.0799 1.08108 13.7839 0.556221ZM15.2802 1.12107C15.2802 2.21412 15.2777 3.30634 15.2802 4.39939C16.015 4.44188 16.754 4.45521 17.4888 4.40189C17.5487 4.1103 17.5437 3.81038 17.4904 3.51795C17.173 3.48463 16.8539 3.4738 16.5357 3.4688C16.4657 2.68733 16.5648 1.90087 16.4807 1.12024C16.08 1.11024 15.6792 1.11024 15.2793 1.12024M12.1768 1.56013C12.156 1.77174 12.1826 1.98335 12.2301 2.18913C12.4109 3.04724 12.5467 3.91535 12.7608 4.76679C13.4498 4.67515 14.1388 4.54602 14.8086 4.3594C14.7786 4.1178 14.7278 3.88036 14.6653 3.64542C14.5654 3.65292 14.4654 3.66708 14.3671 3.68707C14.1363 3.68041 13.9064 3.67541 13.6756 3.66125C13.6897 3.57877 13.7031 3.49629 13.7172 3.41464C13.8405 3.36799 13.9722 3.32633 14.0647 3.22719C14.2079 3.1997 14.3512 3.17721 14.4954 3.15471C14.5012 2.88645 14.4562 2.61985 14.3462 2.37408C14.2104 2.40157 14.0746 2.43073 13.9389 2.45989C13.7422 2.44906 13.5406 2.4374 13.3623 2.34659C13.5115 2.25078 13.6781 2.18247 13.8147 2.06749C13.978 2.0375 14.1413 1.99918 14.2979 1.94169C14.2213 1.71342 14.2621 1.39434 14.0771 1.23105C13.4398 1.31269 12.8183 1.49681 12.1768 1.56013ZM18.7651 1.68676C18.3077 1.89087 18.1686 2.47905 18.3327 2.91977C18.4785 3.24386 18.7934 3.43381 19.04 3.67291C18.985 3.83537 18.8792 3.97033 18.7443 4.07447C18.6543 3.90368 18.5668 3.73123 18.4835 3.55627C18.2494 3.5896 18.0228 3.66125 17.8103 3.76289C17.8687 3.97033 17.9303 4.18444 18.0703 4.35357C18.4052 4.79262 19.0475 4.91009 19.5499 4.7293C19.9715 4.57934 20.2422 4.11613 20.1839 3.67624C20.1339 3.42464 19.9931 3.1922 19.8023 3.02225C20.0239 2.96393 20.243 2.89061 20.4463 2.78314C20.6179 1.90587 19.4924 1.27603 18.7651 1.68676ZM9.91823 2.44073C10.0024 2.72899 10.1515 2.99059 10.2873 3.25635C10.2306 3.35299 10.224 3.49712 10.1173 3.55378C10.0174 3.56544 9.91656 3.55711 9.81659 3.55294C9.67496 3.26802 9.55749 2.97143 9.40753 2.69067C9.07678 2.81813 8.7352 2.9381 8.45444 3.16221C8.71771 3.74623 8.9968 4.32274 9.27423 4.90009C9.45835 5.28083 9.60748 5.67989 9.83825 6.03646C10.1715 5.93899 10.4831 5.7807 10.7763 5.59824C10.6714 5.31082 10.5247 5.04339 10.3881 4.77179C10.4014 4.66515 10.4156 4.55935 10.4306 4.45271C10.5456 4.40106 10.6614 4.34774 10.7747 4.29275C10.9463 4.64099 11.0904 5.0034 11.2737 5.34664C11.6195 5.26916 11.9285 5.08921 12.2335 4.91675C11.8186 3.93368 11.3212 2.98809 10.878 2.01751C10.5289 2.08332 10.2248 2.27244 9.91823 2.44073ZM21.5844 2.75815C21.1978 3.57127 20.7537 4.3569 20.3838 5.17752C20.977 5.54409 21.6102 5.84568 22.2467 6.12644C22.3833 5.91316 22.4975 5.68572 22.5649 5.44162C22.3383 5.32248 22.1067 5.21251 21.8793 5.09671C21.8843 4.96508 21.8926 4.83428 21.9026 4.70348C22.0842 4.7418 22.2667 4.78012 22.4491 4.81511C22.5508 4.86843 22.6524 4.92092 22.7557 4.97257C22.9124 4.76179 23.0348 4.52602 23.094 4.26859C22.8874 4.15112 22.6766 4.04115 22.4641 3.93368C22.455 3.8462 22.4466 3.75789 22.4391 3.66958C22.6041 3.69041 22.7691 3.7104 22.9348 3.73123C23.0598 3.79621 23.1856 3.85786 23.3139 3.91701C23.4572 3.6979 23.5897 3.4688 23.6538 3.2122C23.0715 2.91977 22.4991 2.60569 21.9068 2.33659C21.7293 2.38991 21.6777 2.61485 21.5844 2.75815ZM6.76072 4.35857C5.96259 4.631 5.44356 5.57742 5.71349 6.39137C5.87845 6.86208 6.20419 7.28531 6.63658 7.53941C7.53052 8.02678 8.86684 7.52524 9.05679 6.47802L9.14926 6.49551C9.16842 6.21392 9.31172 5.79236 9.05595 5.59991C9.04012 5.56159 9.00847 5.48327 8.9918 5.44495C8.74853 5.47244 8.5061 5.51743 8.27366 5.59574C8.32614 5.99731 8.33198 6.50051 7.90042 6.69879C7.80378 6.60298 7.60883 6.61131 7.51552 6.70796C7.20477 6.58549 6.93401 6.36388 6.77738 6.06646C6.61992 5.80402 6.63658 5.42829 6.87985 5.22084C7.15228 5.22168 7.42554 5.19752 7.68881 5.12503C7.7138 5.12837 7.76462 5.13586 7.78962 5.1392C7.84127 4.86677 7.89625 4.59184 7.87959 4.31358C7.50886 4.27609 7.12229 4.24026 6.76072 4.35857ZM24.891 5.06755C24.142 5.47661 23.3631 5.83068 22.6266 6.26224C22.7841 6.43886 22.9299 6.66213 23.1656 6.73712C23.3106 6.70129 23.4397 6.62381 23.5739 6.56133C23.7146 6.58882 23.8838 6.57216 23.9946 6.67963C24.1362 6.80376 24.0829 7.01121 24.0954 7.177C24.0704 7.2903 23.9438 7.42694 24.0479 7.53441C24.2578 7.78434 24.5053 8.00595 24.7885 8.17091C25.0351 7.4286 25.2842 6.68796 25.52 5.94232C25.6616 5.48161 25.8591 5.03589 25.9449 4.55851C25.57 4.67515 25.2368 4.88593 24.891 5.06755ZM15.6901 4.85677C13.8639 4.88593 12.0527 5.40496 10.4673 6.30889C8.15619 7.62438 6.34166 9.79132 5.46689 12.3048C4.89287 13.9094 4.73041 15.6456 4.91786 17.3352C5.19529 19.6979 6.25418 21.9665 7.90375 23.6827C9.62747 25.5322 12.0135 26.7386 14.517 27.066C16.4474 27.3109 18.446 27.0802 20.2472 26.332C22.5291 25.3981 24.4744 23.6777 25.6983 21.5391C27.2196 18.9098 27.567 15.6473 26.6789 12.7481C25.9257 10.2204 24.2187 8.00429 21.9984 6.58882C20.1347 5.39246 17.9037 4.77846 15.6901 4.85677ZM2.78008 11.1151C2.08693 11.3126 1.60039 12.0416 1.67954 12.7572C1.73119 13.3371 2.13692 13.8644 2.68178 14.0677C3.26746 14.2968 3.98227 14.1202 4.39633 13.6478C4.8862 13.1238 4.9187 12.254 4.49047 11.6833C4.11724 11.1568 3.39326 10.9285 2.78008 11.1151ZM28.3568 11.1135C27.6869 11.3009 27.1821 11.9741 27.2446 12.6764C27.2379 13.5578 28.121 14.2902 28.9849 14.1552C29.7856 14.0827 30.4354 13.3087 30.3488 12.5048C30.3321 11.5375 29.2682 10.8127 28.3568 11.1135ZM2.476 18.14C2.27855 18.1317 2.01445 18.1208 1.92697 18.3424C1.82367 18.6274 1.71619 18.9106 1.59206 19.188C1.49542 19.3988 1.67704 19.5754 1.81783 19.7071C1.79201 19.8545 1.73869 20.0037 1.76868 20.1553C1.82117 20.3136 1.98112 20.3902 2.10193 20.4902C2.28355 20.6152 2.42851 20.786 2.61096 20.9101C2.79341 21.0092 2.98753 20.8959 3.16415 20.841C3.32328 20.9426 3.52322 21.0809 3.71234 20.9609C3.96644 20.7968 4.21888 20.6302 4.48131 20.4785C4.68792 20.3527 4.62877 20.0861 4.61294 19.8854C4.76873 19.7846 4.96285 19.6429 4.91286 19.428C4.83122 19.1214 4.74291 18.8173 4.67459 18.5082C4.61627 18.2958 4.36551 18.2725 4.18722 18.2275C4.11557 18.0475 4.03726 17.8067 3.80482 17.7976C3.48074 17.7926 3.15915 17.7534 2.8359 17.7418C2.62179 17.7434 2.55264 17.9817 2.476 18.14ZM28.2485 17.8409C28.0985 17.9092 28.0843 18.0908 28.0335 18.2275C27.8427 18.2733 27.5695 18.2833 27.5145 18.5166C27.4462 18.8256 27.3562 19.1297 27.2796 19.4371C27.2429 19.6529 27.432 19.7937 27.5786 19.9137C27.567 20.0861 27.507 20.2986 27.6536 20.4336C27.8086 20.5619 27.9985 20.636 28.161 20.7535C28.3351 20.8651 28.5076 21.0434 28.735 21.0042C28.8458 20.9634 28.9316 20.8784 29.0249 20.8085C29.1991 20.9168 29.4315 21.0359 29.6206 20.8859C29.8456 20.6927 30.0738 20.5019 30.3079 20.3194C30.5029 20.167 30.4079 19.9045 30.3638 19.7046C30.5229 19.5854 30.6945 19.3947 30.5945 19.1814C30.4687 18.9023 30.3679 18.6132 30.2538 18.3291C30.1563 18.1175 29.9055 18.1333 29.7106 18.135C29.6473 17.9859 29.5898 17.7826 29.4048 17.7501C29.1832 17.7251 28.9633 17.7876 28.7425 17.7859C28.5776 17.7959 28.4001 17.7601 28.2485 17.8409ZM25.0618 24.4334C24.7427 24.6833 24.4786 24.9924 24.1804 25.264C24.1045 25.3339 24.0296 25.4048 23.9554 25.4772C23.8571 25.5764 23.7563 25.673 23.6555 25.7697C23.8296 26.2412 24.3953 26.527 24.3861 27.061C24.3337 27.0543 24.2278 27.0418 24.1745 27.036C23.8729 26.7261 23.653 26.347 23.3822 26.0113C23.1781 26.0838 23.0123 26.2254 22.8482 26.362C23.0948 26.7336 23.3389 27.1193 23.6772 27.4151C23.6922 27.4434 23.723 27.4984 23.7388 27.5267C24.107 27.7933 24.7635 27.6817 24.8952 27.1985C25.0735 27.1651 25.0751 26.7519 24.8993 26.7136C24.8727 26.5845 24.7977 26.4737 24.7202 26.3712C24.6544 26.1521 24.5469 25.9313 24.5903 25.6964C24.9243 26.0163 25.2393 26.3553 25.5817 26.6661C25.8466 26.4345 26.1074 26.1946 26.3365 25.9271C26.4964 25.7647 26.4989 25.5122 26.4331 25.3073C26.3598 25.139 26.1807 25.0615 26.0449 24.9524C25.8416 24.8124 25.7766 24.5125 25.5225 24.4425C25.5025 24.2592 25.0926 24.2601 25.0618 24.4334ZM5.83346 25.4248C5.69349 25.5547 5.56353 25.6947 5.43439 25.8355C5.55186 25.9588 5.671 26.0813 5.79014 26.2037L5.74515 26.2554C5.99258 26.1637 6.14504 25.938 6.35332 25.7888C6.51911 25.8188 6.62325 25.9854 6.75239 26.0838L6.70823 26.1096C6.78404 26.1562 6.85986 26.2029 6.93567 26.2495C6.85986 26.5495 6.74822 26.8777 6.91984 27.1676L6.95733 27.0793C7.17228 27.6192 7.87543 27.8958 8.38196 27.5967C8.44195 27.6059 8.56025 27.6242 8.6194 27.6334C8.63356 27.9616 8.67439 28.3357 8.99097 28.5173C9.36171 28.9014 10.0582 28.9164 10.4156 28.5065C10.4914 28.4173 10.6006 28.3432 10.6289 28.224C10.7372 28.0757 10.8863 27.9574 11.0654 28.0716C11.0513 28.2282 11.0421 28.3857 11.0404 28.5431C10.9055 28.8014 10.7838 29.0913 10.7813 29.3862C10.8821 29.5487 11.1371 29.5312 11.3104 29.5787C11.4428 29.3088 11.5386 29.0247 11.6236 28.7372C11.7886 28.5323 12.0085 28.3915 12.2643 28.3282L12.2143 28.3198C12.2909 28.184 12.3126 28.0316 12.3193 27.8783C12.236 27.8508 12.1535 27.8233 12.0702 27.7966C11.8627 27.5125 11.4678 27.4609 11.1404 27.4651C11.1054 27.4659 11.0354 27.4676 11.0004 27.4684C10.8763 27.4459 10.7547 27.4159 10.6347 27.3809C10.4506 26.8877 9.85741 26.7802 9.3942 26.8719C9.2684 26.8719 9.1526 26.9344 9.03596 26.9735C9.03096 26.7386 9.02513 26.4961 8.91266 26.2837C8.89933 26.3195 8.87267 26.392 8.86017 26.4287C8.73687 26.1671 8.55775 25.9055 8.26033 25.8313C7.99956 25.7747 7.68964 25.7497 7.4572 25.9096C7.3539 25.8871 7.24976 25.8646 7.14645 25.8422C7.2231 25.7588 7.29974 25.6755 7.37722 25.593C7.4697 25.4914 7.56051 25.3881 7.64882 25.2831C7.34973 24.9982 7.07564 24.6866 6.75322 24.4267C6.4258 24.7374 6.0584 25.0257 5.83346 25.4248ZM7.58217 25.7089C7.83294 25.7397 8.08704 25.7388 8.33864 25.7089C8.08621 25.6947 7.83377 25.6939 7.58217 25.7089ZM21.7193 27.1943C21.9926 27.7167 22.3242 28.2065 22.6024 28.7272C22.9523 28.5423 23.3131 28.369 23.6288 28.1291C23.7121 27.9699 23.5472 27.8141 23.4805 27.6792C23.2864 27.7458 23.0948 27.9474 22.8815 27.8716C22.6041 27.5034 22.4316 27.0677 22.1592 26.6944C21.9834 26.8202 21.5669 26.9027 21.7193 27.1943ZM19.9698 28.2515C19.9598 28.5406 20.0756 28.8497 20.3255 29.0122C20.3797 29.0688 20.4372 29.1221 20.4988 29.1721C20.7304 29.4254 21.1187 29.4154 21.4252 29.3329C21.821 29.2079 22.0093 28.7922 22.0592 28.4098C21.9101 28.3882 21.761 28.3698 21.611 28.3532C21.5735 28.4881 21.5385 28.6231 21.5069 28.7597C21.4869 28.7889 21.4469 28.848 21.4269 28.8772C21.2811 28.833 21.1311 28.8014 20.9904 28.7447C20.8204 28.6048 20.7737 28.3757 20.6971 28.1807C20.7771 28.0732 20.8512 27.9591 20.9529 27.8716C21.1361 27.8741 21.3136 27.9266 21.4902 27.9708C21.6019 27.8366 21.6902 27.685 21.7052 27.5084C21.4827 27.4009 21.2511 27.2818 20.9979 27.3009C20.4938 27.3376 20.0439 27.7517 19.9698 28.2515ZM7.5855 27.7875C7.79878 27.8091 8.01956 27.8408 8.23117 27.7908C8.01706 27.7658 7.80045 27.7725 7.5855 27.7875ZM12.565 27.9574L12.63 27.9741C12.5784 28.1432 12.5309 28.314 12.4976 28.4873C12.3568 28.6681 12.2926 28.8872 12.3509 29.1138C12.2743 29.3737 12.1951 29.637 12.1985 29.9119C12.1843 30.0544 12.4326 30.0902 12.4934 29.9752C12.6009 30.0169 12.7133 30.0494 12.8275 30.0702C12.9874 30.2643 13.3332 30.2402 13.5123 30.0835C13.7856 29.8561 13.8314 29.4987 13.7756 29.1663C13.7839 29.1396 13.7997 29.0863 13.8081 29.0605C13.8397 29.0472 13.903 29.0205 13.9355 29.0072C14.0672 28.6939 13.9239 28.2815 13.5881 28.1715C13.294 27.9541 12.9183 27.9208 12.565 27.9574ZM14.9419 28.1582C14.6987 28.5998 14.4954 29.0613 14.2604 29.507C14.1405 29.7445 13.9922 29.9769 13.9605 30.2468C13.9813 30.4101 14.3554 30.4085 14.3546 30.236C14.4587 30.1085 14.5612 29.9794 14.6653 29.8519C14.9228 29.8786 14.9769 30.161 15.0711 30.3543C15.2677 30.3735 15.4643 30.386 15.6626 30.3943C15.5784 29.9811 15.4243 29.587 15.3068 29.183C15.1977 28.8372 15.1252 28.4756 14.9419 28.1582ZM17.3638 28.289C17.2513 28.499 17.358 28.7364 17.3871 28.9547C17.4854 29.3621 17.4254 29.8103 17.6487 30.1835L17.6546 30.2652L17.702 30.3277C18.0295 30.3935 18.371 30.2677 18.6735 30.1444C18.7609 30.1269 18.8476 30.106 18.9342 30.0827C18.9117 29.9178 18.8876 29.7536 18.8601 29.5895C18.6726 29.5479 18.481 29.5487 18.2911 29.5512C18.2427 29.3087 18.2202 29.0621 18.1969 28.8172C18.1686 28.7097 18.2011 28.5215 18.0503 28.5023C18.0378 28.4073 18.0261 28.3132 18.0145 28.2182C17.8045 28.1116 17.5562 28.1749 17.3638 28.289ZM15.9358 28.3457C15.9292 28.6273 15.8958 28.9213 16.0083 29.1888C16.0108 29.3596 16.0166 29.5312 16.0283 29.702C15.9058 29.9211 15.98 30.1835 16.0058 30.4176C16.4532 30.4618 16.9014 30.4018 17.3446 30.3385C17.3555 30.1669 17.358 29.9961 17.353 29.8253C17.133 29.8145 16.9139 29.8061 16.694 29.8003C16.6865 29.3137 16.7273 28.8247 16.6573 28.3415C16.4182 28.2973 16.1741 28.2982 15.9358 28.3457ZM17.3405 7.37612C17.5138 7.58356 17.5862 7.86516 17.8062 8.03678C18.3052 8.52082 19.0392 8.55331 19.689 8.64579C19.8248 8.92238 20.0848 9.09234 20.3172 9.28062C20.1531 9.69801 19.8457 10.0313 19.5957 10.3962C19.4466 10.2995 19.3016 10.0737 19.1025 10.1687C18.8276 10.3004 18.6768 10.6236 18.7401 10.921C18.9209 10.9369 19.1025 10.941 19.2833 10.9294C19.28 11.0668 19.275 11.2035 19.2766 11.3409C19.285 11.51 19.3058 11.6775 19.3258 11.8458C19.0517 11.6858 18.7326 11.4226 18.3994 11.575C18.0295 11.7633 18.0428 12.2665 18.1428 12.6114C18.2002 12.8705 18.4185 13.0405 18.6493 13.1438C18.8992 13.1338 19.095 12.978 19.2775 12.8247C19.3333 12.9638 19.3883 13.103 19.4391 13.2446C19.4349 13.5004 19.4283 13.7953 19.2225 13.9802C18.9659 14.2568 18.566 14.2535 18.2194 14.2735C18.1436 14.7617 18.511 15.1366 18.5693 15.5998C18.7034 16.4238 18.8226 17.2744 19.2433 18.0109C19.4707 18.4932 19.914 18.8773 20.4455 18.9764C20.8521 19.0597 21.3286 18.9398 21.5744 18.5857C21.8018 18.2416 21.7993 17.7884 21.676 17.4068C21.4269 16.692 20.7646 16.2338 20.453 15.5548C20.2705 15.1566 20.283 14.6601 20.5388 14.296C20.8845 13.7861 21.4102 13.4445 21.851 13.0255C22.0692 12.813 22.2792 12.5581 22.3217 12.2465C22.3758 11.7108 21.8076 11.2018 21.2794 11.3609C21.0028 11.4284 20.8812 11.7075 20.7562 11.9333C20.7038 12.0207 20.6496 12.1082 20.5955 12.194C20.5955 11.9474 20.6005 11.6992 20.6479 11.4567C20.7263 11.3384 20.8112 11.2251 20.907 11.1193C21.5344 10.5795 22.6308 10.7119 23.0873 11.4159C23.2581 11.8483 23.2589 12.3598 23.0073 12.7622C22.5958 13.432 21.8643 13.7894 21.3011 14.3085C21.117 14.4726 20.9954 14.69 20.8912 14.91C21.2836 14.6276 21.7227 14.3626 22.2275 14.396C22.6174 14.4401 22.9498 14.6867 23.1723 15.0008C23.3881 15.4915 23.2273 16.0614 22.8232 16.3996L22.7607 16.4638C22.8124 16.1413 22.9315 15.7581 22.6882 15.4832C22.41 15.0658 21.7335 15.0416 21.4244 15.4332C21.2636 15.6115 21.2636 15.8647 21.2661 16.0897C21.651 16.6295 22.1767 17.1036 22.3325 17.7742C22.5033 18.3249 22.2925 18.9964 21.7677 19.273C21.1453 19.6071 20.3897 19.4746 19.7607 19.2264C19.714 19.1997 19.6207 19.1472 19.5741 19.1206C19.3983 19.0081 19.2225 18.8956 19.0392 18.794C19.1233 19.3072 19.3899 19.7987 19.8307 20.0878C20.2455 20.3761 20.7737 20.3594 21.247 20.2578C21.1245 20.4152 20.9945 20.5677 20.8845 20.7351C20.288 21.5616 20.3205 22.6238 20.3813 23.5919C20.4138 23.8677 20.1397 23.9518 19.924 23.9926C19.7282 24.0101 19.6682 24.2151 19.5749 24.3534L19.5241 24.2976L19.4841 24.2526C19.4458 24.1468 19.4116 24.0393 19.3774 23.9326C19.32 23.9268 19.2058 23.9152 19.1483 23.9093C18.8892 23.8918 18.7709 24.1251 18.6718 24.3217C18.6285 24.3567 18.541 24.4259 18.4977 24.4608C18.486 24.2559 18.476 24.0518 18.4668 23.8477C18.3069 23.8593 18.1461 23.8718 17.9878 23.8968C17.8462 23.9127 17.7195 23.9801 17.6004 24.0534C17.5346 24.2051 17.4846 24.3634 17.4238 24.5183C17.3971 24.4767 17.3446 24.3942 17.318 24.3534C17.3196 23.9585 17.0739 23.4228 17.4779 23.1479C17.947 22.8446 18.5343 22.9571 19.0617 22.9029C19.315 22.4789 19.5407 22.0081 19.5274 21.5033C19.5149 21.2184 19.4283 20.9068 19.1958 20.7226C18.9292 20.6177 18.6235 20.6752 18.3577 20.5635C18.1219 20.3961 18.0836 20.067 17.8737 19.8787C17.6687 19.8062 17.4463 19.8137 17.2322 19.8121C16.7006 19.8787 16.1141 20.1278 15.8775 20.6393C15.7326 20.9709 16.02 21.2858 16.3116 21.4041C16.4557 21.4683 16.6048 21.5191 16.7523 21.5749C16.6848 21.6058 16.6157 21.6349 16.5473 21.6641C16.2732 21.779 15.97 21.879 15.7809 22.1223C15.4726 22.5122 15.4768 23.0487 15.2077 23.4594C15.0277 23.716 14.6695 23.6327 14.4121 23.7435C14.2629 23.8902 14.2504 24.1201 14.173 24.3067C14.1213 24.1043 14.0705 23.901 14.0213 23.6985C13.8497 23.6952 13.6789 23.691 13.5081 23.6969C13.3007 23.8168 13.1407 24.0018 13.0791 24.2359C13.0632 24.2792 13.0308 24.365 13.0149 24.4084C12.9924 24.3725 12.9474 24.3009 12.9249 24.2651C12.9316 24.0709 12.9499 23.8777 12.9691 23.6852C12.7567 23.6877 12.5442 23.6877 12.3326 23.7035C12.2876 23.7319 12.1968 23.7885 12.151 23.8177C11.9719 23.8985 12.0668 24.2667 11.8394 24.2242L11.8261 24.1684C11.8019 23.8343 11.7494 23.5019 11.7336 23.167C11.7161 22.9887 11.8269 22.8138 11.9927 22.7505C12.6217 22.5113 13.3507 22.8846 13.9505 22.5363C14.5862 22.1531 14.742 21.36 14.8953 20.691C14.6478 20.5119 14.2738 20.3586 14.2763 19.9987C14.2379 19.7146 14.3671 19.4363 14.587 19.2589C15.336 18.5949 16.3599 18.3999 17.1813 17.8534C17.4529 17.6784 17.6879 17.361 17.5879 17.0228C17.5221 16.6987 17.2113 16.5396 16.9381 16.4179C16.9622 16.657 17.028 16.8995 16.9847 17.1402C16.8014 17.4035 16.4349 17.386 16.1583 17.486C16.0991 17.3977 16.0391 17.3094 15.9808 17.2211C15.8409 17.0069 15.7242 16.7803 15.6026 16.5562C15.0969 17.1819 14.4812 17.7784 13.6698 17.9617C13.5031 17.8359 13.3507 17.6751 13.1466 17.6118C12.5884 17.5301 11.931 17.9209 11.9444 18.5357C11.8944 18.549 11.7952 18.574 11.7453 18.5874L11.7419 18.5157C11.7311 18.3149 11.7144 18.115 11.6969 17.915C11.4953 17.9759 11.2995 18.0558 11.1088 18.145C11.1329 17.9517 11.1637 17.7593 11.1971 17.5676C11.0854 17.5935 10.9738 17.6201 10.8638 17.6526C10.8047 17.6843 10.6872 17.7476 10.6289 17.7792C10.673 17.5543 10.7663 17.3444 10.8821 17.1477C10.7214 17.1627 10.5606 17.1736 10.4048 17.2169L10.2973 17.2552C10.3465 16.9253 10.653 16.7137 10.948 16.6145C11.5411 16.4729 12.196 16.6479 12.7533 16.348C13.2024 16.1063 13.6323 15.8289 14.0796 15.5831C14.6137 15.2666 15.1735 14.9933 15.6776 14.6284C15.3235 14.6026 14.9661 14.5759 14.627 14.4643C14.5579 14.3385 14.4862 14.2143 14.4137 14.091C14.2438 14.2802 14.073 14.4801 13.8389 14.5909C13.5989 14.7134 13.3223 14.7075 13.0599 14.7159C12.91 14.6067 12.7658 14.4918 12.6325 14.3635C12.8616 14.2935 13.2682 14.3835 13.3198 14.0669C13.404 13.7911 13.1491 13.5995 12.9308 13.5004C12.5575 13.3529 12.1651 13.2654 11.7752 13.1763C11.7752 14.1594 11.7686 15.1424 11.7811 16.1255C11.6869 16.1405 11.5928 16.1555 11.4995 16.1688C11.4362 15.1516 11.5003 14.131 11.4712 13.1121C11.352 13.0996 11.2321 13.088 11.1138 13.0738C10.9638 13.0538 10.793 13.033 10.6897 12.9105C10.6031 12.7281 10.5489 12.5331 10.4731 12.3465C10.3631 12.1382 10.6056 11.9383 10.5231 11.7275C10.4956 11.585 10.4439 11.4251 10.5356 11.2943C10.6389 11.0877 10.8963 11.0577 11.1021 11.0752C11.2296 11.0777 11.357 11.0827 11.4845 11.0868C11.4845 11.0277 11.4845 10.9085 11.4845 10.8494C11.357 10.8419 11.2296 10.8352 11.1029 10.8269C10.9171 10.8186 10.7339 10.7852 10.5547 10.7377C10.663 10.6628 10.7813 10.6053 10.903 10.5561C10.8172 10.492 10.7305 10.4295 10.6505 10.3587C10.3706 9.97294 10.1848 9.49556 10.2615 9.01236C10.304 8.56581 10.613 8.21423 10.9121 7.90598C11.5578 7.56107 12.3726 7.92181 12.7242 8.52248C13.0116 9.17398 12.8408 10.0021 12.2718 10.4445C12.0977 10.6061 11.8177 10.6744 11.7394 10.9202C11.7677 11.056 11.7669 11.2085 11.8469 11.3276C12.0402 11.4676 12.2801 11.5184 12.5034 11.5942C12.8108 11.7158 13.1332 11.8233 13.4098 12.0091C13.7306 12.299 14.0697 12.5789 14.3213 12.9347C14.4945 13.1788 14.4929 13.4912 14.5412 13.7761C14.9228 13.7103 15.1485 13.3421 15.176 12.9788C15.176 12.7755 15.0619 12.5548 15.1927 12.3698C15.4476 11.9016 15.7559 11.4376 15.8142 10.8944C15.4193 10.7136 14.9519 10.5261 14.8228 10.0638L14.792 9.9921C14.9727 10.0912 15.1302 10.242 15.3343 10.292C15.5118 10.3137 15.6834 10.2454 15.8492 10.1904C16.3382 10.0729 16.6606 9.47724 16.4065 9.02235C16.2641 8.7266 15.8942 8.79408 15.6259 8.78492C15.8484 8.44084 16.2832 8.39502 16.6565 8.40002C16.8098 8.39752 16.9639 8.39418 17.118 8.39085C17.1222 8.04094 17.1863 7.6927 17.3396 7.37612M11.2612 8.7241C11.1846 8.8299 11.0979 8.92988 11.0396 9.04735C10.9713 9.2248 11.0929 9.39226 11.1562 9.55055C11.367 9.71384 11.5661 9.90296 11.6186 10.1771C12.0677 9.96044 12.4151 9.38643 12.1843 8.90072C12.0102 8.56081 11.5528 8.50082 11.2612 8.7241ZM17.9511 9.26146C18.1494 9.50306 18.5093 9.76883 18.8267 9.59637C18.666 9.46474 18.5052 9.32394 18.4435 9.11733C18.2744 9.13982 17.992 9.02319 17.9511 9.26146ZM18.6435 9.10567C18.616 9.28645 18.7159 9.41225 18.8967 9.43225C18.9426 9.31561 18.9884 9.19981 19.0334 9.08317C18.9034 9.08984 18.7734 9.09734 18.6435 9.10567ZM10.7563 11.3393C10.7463 11.48 10.738 11.6208 10.7339 11.7625C11.0196 11.7991 11.3095 11.7966 11.5945 11.7516C11.3787 11.5209 11.1071 11.2326 10.7563 11.3393ZM10.8455 11.9608C10.6755 12.0107 10.7497 12.2149 10.7222 12.3448C11.0171 12.444 11.3487 12.354 11.6028 12.1899C11.3687 12.0666 11.1146 11.9574 10.8455 11.9608ZM10.8338 12.5839C10.8338 12.6497 10.8363 12.783 10.8372 12.8497C11.0663 12.8505 11.2937 12.8097 11.5078 12.7247C11.3187 12.5731 11.0688 12.4715 10.8338 12.5839Z" fill="#00318A"></path>
  <path d="M15.2802 1.12104C15.6801 1.11021 16.0808 1.11021 16.4815 1.12104C16.5657 1.90167 16.4665 2.68813 16.5365 3.46959C16.8548 3.47459 17.1739 3.48542 17.4913 3.51875C17.5446 3.81117 17.5496 4.11109 17.4896 4.40269C16.7548 4.456 16.0158 4.44267 15.281 4.40019C15.2777 3.30714 15.281 2.21492 15.281 1.12187M15.3585 1.18102C15.3585 2.23741 15.3568 3.29297 15.3585 4.34937C16.0508 4.39935 16.7473 4.37603 17.4405 4.36103C17.4521 4.15025 17.4488 3.93864 17.4088 3.73203C17.4171 3.69537 17.4346 3.62289 17.443 3.58706C17.103 3.57873 16.7631 3.57957 16.4241 3.57957C16.3782 2.78894 16.4499 1.99498 16.3924 1.20602C16.3649 1.19185 16.3116 1.16186 16.2841 1.1477C15.975 1.1527 15.6659 1.14936 15.3585 1.18102ZM13.3199 2.18409C13.4831 2.13827 13.6489 2.09912 13.8164 2.06912C13.6798 2.1841 13.5131 2.25241 13.364 2.34822C13.5423 2.43903 13.7439 2.45069 13.9405 2.46152C13.7622 2.49818 13.5848 2.534 13.4065 2.57149C13.3773 2.44236 13.3482 2.31323 13.3199 2.18409ZM10.289 3.25798C10.3273 3.33963 10.364 3.42211 10.4014 3.50375C10.2432 3.5879 10.0832 3.66954 9.92241 3.74952C9.88742 3.68454 9.85243 3.61956 9.81827 3.55457C9.91824 3.55874 10.019 3.56707 10.119 3.55541C10.2257 3.49875 10.2323 3.35462 10.289 3.25798ZM22.4292 3.49542C22.6008 3.56874 22.7707 3.64705 22.9365 3.73286C22.7707 3.71203 22.6058 3.69204 22.4408 3.67121C22.4483 3.75952 22.4566 3.84783 22.4658 3.93531C22.3983 3.90115 22.3317 3.86616 22.2659 3.83033C22.32 3.7187 22.3742 3.60706 22.4292 3.49542ZM23.5755 6.56296C23.6605 6.52213 23.7455 6.48298 23.8305 6.44382C23.9671 6.55463 24.1029 6.6671 24.2379 6.7804C24.1929 6.9137 24.147 7.047 24.0971 7.17863C24.0846 7.01284 24.1379 6.80539 23.9963 6.68126C23.8854 6.57379 23.7163 6.59045 23.5755 6.56296ZM6.73157 25.3073C6.98734 25.2606 7.17312 25.4805 7.37807 25.5938C7.30059 25.6763 7.22394 25.7596 7.14729 25.8429C7.2506 25.8654 7.35474 25.8879 7.45805 25.9104C7.07315 26.1687 6.90736 26.6277 6.95818 27.0801L6.92069 27.1684C6.74906 26.8785 6.8607 26.5503 6.93652 26.2503C6.8607 26.2037 6.78489 26.157 6.70908 26.1104L6.75323 26.0846C6.8732 26.0137 6.98734 25.9338 7.09897 25.8504C6.97234 25.6713 6.84571 25.4939 6.73157 25.3073ZM19.9706 28.2523C20.0448 27.7525 20.4947 27.3384 20.9987 27.3017C21.252 27.2826 21.4836 27.4017 21.706 27.5092C21.691 27.6858 21.6027 27.8374 21.4911 27.9716C21.3144 27.9274 21.137 27.8749 20.9537 27.8724C20.8521 27.9599 20.7779 28.074 20.6979 28.1815C20.7746 28.3765 20.8212 28.6056 20.9912 28.7455C21.132 28.8022 21.282 28.8338 21.4277 28.878C21.2278 28.878 20.9654 28.9538 20.8346 28.7522C20.6729 28.5198 20.5147 28.1565 20.7371 27.9124C20.9212 27.6941 21.2353 27.8249 21.4802 27.8191C21.5244 27.7375 21.5685 27.6566 21.6135 27.5758C21.3736 27.495 21.1212 27.3426 20.8621 27.4292C20.4538 27.5158 20.0789 27.8991 20.1256 28.3365C20.1256 28.5764 20.2322 28.798 20.3264 29.013C20.0764 28.8505 19.9606 28.5414 19.9706 28.2523ZM12.5659 27.9582C12.9191 27.9216 13.2949 27.9549 13.589 28.1723C13.2715 28.0982 12.9466 28.0599 12.6309 27.9749L12.5659 27.9582ZM17.3646 28.2898C17.5571 28.1757 17.8054 28.1124 18.0153 28.219C17.8137 28.264 17.6112 28.3031 17.4088 28.3431C17.4396 28.963 17.6012 29.5661 17.6496 30.1843C17.4263 29.8111 17.4863 29.3629 17.388 28.9555C17.3588 28.7372 17.2522 28.4998 17.3646 28.2898ZM15.9367 28.3465C16.1749 28.299 16.4191 28.2981 16.6582 28.3423C16.7281 28.8255 16.6873 29.3145 16.6948 29.8011C16.9148 29.8069 17.1339 29.8153 17.3538 29.8261C17.3588 29.9969 17.3563 30.1677 17.3455 30.3393C16.9023 30.4026 16.454 30.4626 16.0067 30.4184C15.9808 30.1843 15.9067 29.9219 16.0292 29.7028L16.105 29.6636C16.1075 29.8569 16.11 30.0502 16.1191 30.2435C16.1774 30.4809 16.5007 30.3468 16.6615 30.2951C16.8439 30.2885 17.0256 30.2826 17.2088 30.2843L17.3063 30.2885C17.2963 30.1527 17.2872 30.0177 17.2788 29.8836C17.0622 29.8794 16.8456 29.8777 16.6298 29.8761C16.6248 29.3862 16.6248 28.8947 16.5648 28.4073C16.3799 28.4048 16.1958 28.4056 16.0108 28.4106C16.0092 28.6697 16.0092 28.9296 16.0092 29.1896C15.8967 28.9221 15.93 28.6281 15.9367 28.3465ZM13.0658 28.4514C13.2182 28.4623 13.4332 28.5531 13.389 28.7414C13.4057 28.9405 13.1482 28.8797 13.0249 28.9138C13.0366 28.7589 13.0508 28.6047 13.0658 28.4514Z" fill="#2B2F36"></path>
  <path d="M15.3576 1.18018C15.6651 1.14852 15.9742 1.15185 16.2832 1.14685C16.2774 1.23349 16.2724 1.32097 16.2682 1.40845C16.03 1.31847 15.775 1.31764 15.5259 1.34013C15.5218 2.28239 15.5268 3.22548 15.5218 4.16773L15.5251 4.24604C16.1074 4.28104 16.7065 4.34435 17.2788 4.19856C17.323 4.04276 17.3671 3.8878 17.4079 3.73118C17.4479 3.93779 17.4513 4.1494 17.4396 4.36018C16.7464 4.37518 16.05 4.39851 15.3576 4.34852C15.356 3.29213 15.3576 2.23657 15.3576 1.18018Z" fill="#9E8644"></path>
  <path d="M16.2832 1.14685C16.3107 1.16101 16.3641 1.19101 16.3916 1.20517C16.449 1.99413 16.3774 2.78809 16.4232 3.57872C16.7623 3.57872 17.1022 3.57789 17.4421 3.58622C17.4338 3.62204 17.4163 3.69452 17.408 3.73118C17.3671 3.8878 17.323 4.04276 17.2788 4.19856C17.2647 4.05443 17.2513 3.90947 17.2372 3.76534C16.9098 3.74784 16.5815 3.74201 16.2541 3.74118C16.2274 2.96388 16.2249 2.18491 16.2682 1.40845C16.2724 1.32097 16.2774 1.23349 16.2832 1.14685Z" fill="#A29165"></path>
  <path d="M12.1776 1.56089C12.8191 1.49758 13.4406 1.31346 14.078 1.23181C14.2629 1.3951 14.2221 1.71419 14.2987 1.94246C14.1421 1.99995 13.9788 2.03827 13.8155 2.06826C13.6481 2.09825 13.4823 2.13741 13.319 2.18323C13.3473 2.31236 13.3765 2.4415 13.4056 2.57063C13.5839 2.53314 13.7614 2.49732 13.9397 2.46066C14.0755 2.4315 14.2113 2.40234 14.3471 2.37485C14.457 2.62062 14.502 2.88721 14.4962 3.15548C14.3521 3.17797 14.2088 3.20047 14.0655 3.22796C13.8947 3.25795 13.7256 3.29544 13.5573 3.3371C13.5806 3.49706 13.6039 3.65701 13.6273 3.81614C13.878 3.80114 14.1238 3.74699 14.3679 3.68784C14.4662 3.66785 14.5662 3.65368 14.6662 3.64618C14.7286 3.88112 14.7795 4.11856 14.8095 4.36017C14.1396 4.54678 13.4506 4.67592 12.7616 4.76756C12.5475 3.91611 12.4117 3.04801 12.231 2.1899C12.1835 1.98412 12.1568 1.7725 12.1776 1.56089ZM12.3584 1.73168C12.3693 1.90247 12.3892 2.07326 12.4267 2.24072C12.5934 3.01052 12.7225 3.78781 12.9016 4.55511C13.4415 4.50096 13.973 4.37683 14.5029 4.26102C14.687 4.21854 14.5412 3.9811 14.5487 3.8578C14.2021 3.88029 13.868 3.98776 13.5215 4.01192C13.4606 3.74199 13.404 3.47123 13.359 3.1988C13.6781 3.12715 13.998 3.0605 14.3162 2.98469C14.2913 2.85639 14.2654 2.72726 14.2396 2.59812C13.9138 2.63145 13.5939 2.69643 13.2707 2.74392C13.2049 2.50898 13.1624 2.26738 13.1582 2.02327C13.4681 1.96579 13.7764 1.89914 14.083 1.82332C14.0563 1.69253 14.028 1.56173 13.9988 1.43176C13.4473 1.50757 12.9058 1.63587 12.3584 1.73168ZM21.5852 2.75891C21.6785 2.61562 21.7302 2.39068 21.9076 2.33736C22.5 2.60645 23.0723 2.92054 23.6547 3.21296C23.5905 3.46956 23.458 3.69867 23.3147 3.91778C23.1864 3.85863 23.0606 3.79698 22.9357 3.732C22.7699 3.64618 22.5999 3.56787 22.4283 3.49456C22.3733 3.60619 22.3192 3.71783 22.265 3.82947C22.3308 3.86529 22.3975 3.90029 22.465 3.93444C22.6774 4.04192 22.8882 4.15189 23.0948 4.26936C23.0356 4.52679 22.9132 4.76256 22.7566 4.97334C22.6532 4.92169 22.5516 4.8692 22.45 4.81588C22.2692 4.71924 22.0876 4.62593 21.9034 4.53679C21.8251 4.68591 21.7476 4.83671 21.6727 4.9875C21.741 5.02416 21.8101 5.06082 21.8801 5.09747C22.1076 5.21328 22.3392 5.32325 22.5658 5.44238C22.4983 5.68649 22.3841 5.91393 22.2475 6.12721C21.611 5.84645 20.9778 5.54486 20.3847 5.17829C20.7546 4.35767 21.1986 3.57204 21.5852 2.75891ZM21.9193 2.53314C21.4769 3.38459 21.032 4.2352 20.6179 5.10081C21.1153 5.40739 21.6502 5.6465 22.1684 5.91476C22.2292 5.79146 22.2858 5.66566 22.3367 5.53736C22.0467 5.3824 21.7568 5.22744 21.4636 5.07748C21.5494 4.80755 21.6827 4.55678 21.8401 4.32184C22.1367 4.45764 22.4225 4.6176 22.7257 4.73923C22.779 4.61343 22.8332 4.48763 22.8874 4.36183C22.6099 4.20854 22.3275 4.06608 22.0484 3.91778C22.1317 3.69117 22.2375 3.47373 22.3558 3.26378C22.6666 3.38209 22.9557 3.54621 23.2581 3.68201C23.3181 3.55621 23.3697 3.42707 23.4097 3.29378C22.9157 3.03551 22.4141 2.79057 21.9193 2.53314ZM24.8918 5.06832C25.2376 4.8867 25.5708 4.67592 25.9457 4.55928C25.8599 5.03666 25.6625 5.48237 25.5208 5.94309C25.2851 6.68873 25.036 7.42937 24.7894 8.17168C24.5061 8.00672 24.2587 7.78511 24.0487 7.53517C23.9446 7.4277 24.0712 7.29107 24.0962 7.17777C24.1462 7.04613 24.192 6.91284 24.237 6.77954C24.102 6.66623 23.9662 6.55376 23.8296 6.44296C23.7446 6.48211 23.6597 6.52127 23.5747 6.56209C23.4405 6.62458 23.3114 6.70206 23.1664 6.73788C22.9307 6.6629 22.7849 6.43963 22.6274 6.263C23.3639 5.83145 24.1429 5.47738 24.8918 5.06832ZM25.1334 5.1408C24.4003 5.53319 23.6621 5.91393 22.9223 6.29133C23.0023 6.39214 23.0881 6.48795 23.1781 6.58042C23.4022 6.48545 23.6222 6.38131 23.8371 6.26717C24.0421 6.40797 24.227 6.57542 24.3945 6.75954C24.3195 6.97532 24.2478 7.1911 24.1745 7.40604C24.3336 7.57683 24.5061 7.73929 24.7177 7.84509C25.0176 6.86035 25.3859 5.89643 25.6641 4.90586C25.4817 4.97084 25.3034 5.04749 25.1334 5.1408ZM12.63 27.974C12.9458 28.059 13.2707 28.0973 13.5881 28.1715C13.9238 28.2815 14.0671 28.6938 13.9355 29.0071C13.903 29.0204 13.8397 29.0471 13.808 29.0604C13.8697 28.8363 13.9272 28.5356 13.7139 28.3723C13.4123 28.1723 13.0391 28.1423 12.6908 28.0873C12.5667 28.6672 12.3809 29.2345 12.3076 29.8244C12.6608 29.9069 13.0249 30.0901 13.3932 30.0002C13.7264 29.861 13.6556 29.4445 13.7756 29.1662C13.8314 29.4986 13.7855 29.856 13.5123 30.0835C13.284 30.0718 13.0557 30.0752 12.8275 30.0702C12.7133 30.0493 12.6009 30.0168 12.4934 29.9752C12.4017 29.9319 12.3018 29.8785 12.1985 29.9119C12.1951 29.6369 12.2743 29.3737 12.3509 29.1137C12.4117 28.908 12.4576 28.698 12.4976 28.4872C12.5309 28.3139 12.5784 28.1432 12.63 27.974Z" fill="#A48C4C"></path>
  <path d="M15.5259 1.34004C15.775 1.31755 16.03 1.31838 16.2682 1.40836C16.2249 2.18482 16.2274 2.96379 16.2541 3.74108C16.5815 3.74192 16.9097 3.74775 17.2372 3.76525C17.2513 3.90937 17.2647 4.05434 17.2788 4.19847C16.694 4.16347 16.1074 4.1868 15.5218 4.16764C15.5268 3.22539 15.5218 2.2823 15.5259 1.34004ZM12.3584 1.73161C12.9058 1.6358 13.4473 1.5075 13.9988 1.43168C14.028 1.56165 14.0563 1.69245 14.083 1.82325C13.7764 1.89906 13.4681 1.96571 13.1582 2.0232C13.1624 2.2673 13.2049 2.5089 13.2707 2.74384C13.5939 2.69636 13.9139 2.63137 14.2396 2.59805C14.2654 2.72718 14.2913 2.85631 14.3162 2.98461C13.998 3.06043 13.6781 3.12708 13.359 3.19873C13.404 3.47115 13.4606 3.74192 13.5215 4.01185C13.868 3.98769 14.2021 3.88021 14.5487 3.85772C14.5412 3.98102 14.687 4.21846 14.5029 4.26095C13.973 4.37675 13.4415 4.50089 12.9016 4.55504C12.7225 3.78774 12.5934 3.01044 12.4267 2.24064C12.3892 2.07318 12.3693 1.9024 12.3584 1.73161ZM18.7851 1.8824C19.3366 1.54249 20.1789 1.87157 20.2997 2.5289C20.1881 2.57389 20.0756 2.61554 19.9606 2.65303C19.8698 2.43976 19.7857 2.144 19.5024 2.139C19.21 2.06819 19.0284 2.42559 19.1667 2.65803C19.3283 2.93796 19.6449 3.07959 19.8373 3.33619C20.1056 3.64111 20.0339 4.15014 19.7298 4.40508C19.3991 4.69834 18.8867 4.68751 18.5102 4.49339C18.2561 4.36176 18.1136 4.10182 18.0086 3.84772C18.1236 3.83273 18.2427 3.77108 18.3594 3.8044C18.5052 3.98435 18.6293 4.26262 18.9067 4.23596C19.2041 4.25179 19.3883 3.86439 19.22 3.63195C18.9834 3.32869 18.5851 3.14457 18.4668 2.75634C18.406 2.43809 18.4852 2.05569 18.7851 1.8824ZM21.9193 2.53307C22.4141 2.7905 22.9157 3.03543 23.4097 3.2937C23.3697 3.427 23.3181 3.55613 23.2581 3.68193C22.9557 3.54614 22.6666 3.38201 22.3558 3.26371C22.2375 3.47365 22.1317 3.6911 22.0484 3.91771C22.3275 4.066 22.6099 4.20846 22.8874 4.36176C22.8332 4.48756 22.7791 4.61336 22.7257 4.73916C22.4225 4.61752 22.1367 4.45757 21.8401 4.32177C21.6827 4.55671 21.5494 4.80747 21.4636 5.0774C21.7568 5.22737 22.0467 5.38232 22.3367 5.53728C22.2858 5.66558 22.2292 5.79139 22.1684 5.91469C21.6502 5.64642 21.1153 5.40732 20.6179 5.10073C21.032 4.23512 21.4769 3.38451 21.9193 2.53307ZM6.03007 5.20237C6.34165 4.61086 7.05147 4.35676 7.6888 4.48173C7.67797 4.62086 7.66548 4.75999 7.65381 4.89912C7.35056 4.90328 7.00565 4.88329 6.76404 5.10156C6.49328 5.32401 6.4033 5.7239 6.56243 6.03799C6.75905 6.44871 7.12062 6.83945 7.59216 6.9011C7.89375 6.94775 8.20867 6.79529 8.35696 6.52869C8.50526 6.30209 8.4636 6.02049 8.50026 5.76556C8.57941 5.63809 8.77019 5.70891 8.89766 5.67641C8.91515 6.0005 8.93765 6.33874 8.81684 6.647C8.6169 7.17769 8.06204 7.52927 7.50302 7.54093C6.35748 7.6534 5.40107 6.19045 6.03007 5.20237ZM25.1334 5.14072C25.3034 5.04741 25.4817 4.97076 25.6641 4.90578C25.3859 5.89636 25.0176 6.86027 24.7177 7.84502C24.5061 7.73921 24.3336 7.57675 24.1745 7.40597C24.2478 7.19102 24.3195 6.97524 24.3945 6.75947C24.227 6.57535 24.0421 6.40789 23.8371 6.2671C23.6222 6.38123 23.4022 6.48537 23.1781 6.58035C23.0881 6.48787 23.0023 6.39206 22.9223 6.29126C23.6622 5.91385 24.4003 5.53312 25.1334 5.14072ZM24.1479 6.09714C24.2628 6.20211 24.3828 6.30125 24.5061 6.39623C24.5861 6.21378 24.6469 6.02466 24.6869 5.82971C24.4986 5.90052 24.3187 5.99133 24.1479 6.09714Z" fill="#FFFFFA"></path>
  <path d="M18.7659 1.68758C19.4932 1.27686 20.6188 1.90669 20.4472 2.78396C20.2297 2.79146 20.0131 2.80396 19.7957 2.81646C19.7415 2.66233 19.6857 2.50987 19.6299 2.35658C19.5257 2.35158 19.4208 2.34658 19.3166 2.34241C19.2908 2.67149 19.5916 2.83395 19.8032 3.02307C19.994 3.19302 20.1347 3.42546 20.1847 3.67707C20.2431 4.11695 19.9723 4.58017 19.5507 4.73013C19.0484 4.91091 18.406 4.79344 18.0711 4.35439C17.9312 4.18527 17.8695 3.97116 17.8112 3.76371C18.0236 3.66207 18.2502 3.59042 18.4843 3.5571C18.5677 3.73205 18.6551 3.90451 18.7451 4.0753C18.9076 4.07863 19.0534 4.01614 19.1758 3.91117C19.1317 3.83119 19.0884 3.75121 19.0409 3.67373C18.7943 3.43463 18.4793 3.24468 18.3336 2.9206C18.1694 2.47988 18.3086 1.8917 18.7659 1.68758ZM18.7851 1.88253C18.4852 2.05582 18.406 2.43822 18.4669 2.75647C18.5852 3.1447 18.9834 3.32882 19.22 3.63208C19.3883 3.86452 19.2042 4.25192 18.9067 4.23609C18.6293 4.26275 18.5052 3.98449 18.3594 3.80453C18.2427 3.77121 18.1236 3.83286 18.0086 3.84785C18.1136 4.10196 18.2561 4.36189 18.5102 4.49352C18.8867 4.68764 19.3991 4.69847 19.7299 4.40521C20.0339 4.15028 20.1056 3.64124 19.8373 3.33632C19.6449 3.07972 19.3283 2.93809 19.1667 2.65816C19.0284 2.42572 19.21 2.06832 19.5024 2.13913C19.7857 2.14413 19.8698 2.43989 19.9606 2.65317C20.0756 2.61568 20.1881 2.57402 20.2997 2.52903C20.1789 1.8717 19.3366 1.54262 18.7851 1.88253Z" fill="#A28C51"></path>
  <path d="M9.91908 2.44153C10.2257 2.27324 10.5298 2.08413 10.8788 2.01831C11.322 2.98889 11.8194 3.93448 12.2343 4.91756C11.9294 5.09001 11.6203 5.26997 11.2746 5.34745C11.0913 5.0042 10.9471 4.6418 10.7755 4.29355C10.5822 4.2244 10.4098 4.36104 10.2415 4.43435C10.2898 4.54765 10.3373 4.66096 10.389 4.77259C10.5256 5.04419 10.6722 5.31162 10.7772 5.59905C10.4839 5.7815 10.1723 5.93979 9.8391 6.03727C9.60833 5.68069 9.4592 5.28163 9.27508 4.90089C8.99765 4.32354 8.71856 3.74703 8.45529 3.16301C8.73605 2.9389 9.07763 2.81894 9.40838 2.69147C9.55834 2.97223 9.67581 3.26882 9.81744 3.55375C9.8516 3.61873 9.88659 3.68371 9.92158 3.74869C10.0824 3.66872 10.2423 3.58707 10.4006 3.50292C10.3631 3.42128 10.3265 3.3388 10.2881 3.25716C10.1524 2.99139 10.0032 2.72979 9.91908 2.44153ZM10.1524 2.51901C10.2757 2.88725 10.4748 3.22383 10.6089 3.5879C10.3606 3.73287 10.1007 3.8545 9.83243 3.95614C9.63998 3.62373 9.49752 3.26549 9.31507 2.92807C9.09762 3.00639 8.88851 3.1047 8.68273 3.20883C9.06763 4.09527 9.50502 4.96005 9.92574 5.83149C10.1399 5.74234 10.3481 5.63987 10.5456 5.51907C10.3831 5.12834 10.1832 4.75427 10.0216 4.3627C10.2798 4.2269 10.5431 4.09777 10.818 3.99863C11.0221 4.3727 11.1629 4.78093 11.4012 5.13667C11.607 5.04502 11.8086 4.94588 12.0035 4.83175C11.6053 3.96031 11.2012 3.08887 10.7555 2.24075C10.5489 2.32073 10.3473 2.41321 10.1524 2.51901Z" fill="#A48C49"></path>
  <path d="M10.1523 2.51898C10.3473 2.41318 10.5489 2.3207 10.7555 2.24072C11.2012 3.08884 11.6053 3.96028 12.0035 4.83172C11.8086 4.94585 11.6069 5.04499 11.4012 5.13664C11.1629 4.7809 11.0221 4.37267 10.818 3.9986C10.5431 4.09774 10.2798 4.22687 10.0215 4.36267C10.1832 4.75424 10.3831 5.12831 10.5456 5.51904C10.3481 5.63984 10.1398 5.74231 9.92572 5.83146C9.50499 4.96002 9.06761 4.09524 8.68271 3.2088C8.88849 3.10467 9.0976 3.00636 9.31504 2.92804C9.4975 3.26546 9.63996 3.6237 9.83241 3.95611C10.1007 3.85447 10.3606 3.73284 10.6089 3.58787C10.4747 3.2238 10.2756 2.88722 10.1523 2.51898Z" fill="#FFFFFC"></path>
  <path d="M19.3166 2.34229C19.4208 2.34645 19.5257 2.35145 19.6299 2.35645C19.6857 2.50974 19.7415 2.6622 19.7957 2.81633C20.0131 2.80383 20.2297 2.79134 20.4472 2.78384C20.2439 2.89131 20.0248 2.96462 19.8032 3.02294C19.5916 2.83382 19.2908 2.67137 19.3166 2.34229Z" fill="#03317F"></path>
  <path d="M13.5573 3.33704C13.7256 3.29539 13.8947 3.2579 14.0655 3.22791C13.973 3.32705 13.8414 3.3687 13.7181 3.41536C13.7039 3.497 13.6906 3.57948 13.6764 3.66196C13.9072 3.67612 14.1371 3.68112 14.3679 3.68779C14.1238 3.74694 13.878 3.80109 13.6273 3.81609C13.6039 3.65696 13.5806 3.497 13.5573 3.33704Z" fill="#374041"></path>
  <path d="M19.0409 3.67371C19.0884 3.75119 19.1317 3.83117 19.1758 3.91114C19.0534 4.01612 18.9076 4.0786 18.7451 4.07527C18.8801 3.97113 18.9859 3.83616 19.0409 3.67371Z" fill="#424740"></path>
  <path d="M15.5218 4.16772C16.1075 4.18689 16.694 4.16356 17.2788 4.19855C16.7065 4.34435 16.1075 4.28103 15.5251 4.24604L15.5218 4.16772Z" fill="#E1C278"></path>
  <path d="M6.76157 4.35929C7.12314 4.24099 7.5097 4.27681 7.88044 4.3143C7.8971 4.59256 7.84212 4.86749 7.79046 5.13992C7.76547 5.13659 7.71465 5.12909 7.68966 5.12576C7.41639 5.07744 7.11481 5.03245 6.8807 5.22156C6.63743 5.42901 6.62077 5.80475 6.77823 6.06718C6.93485 6.3646 7.20562 6.58621 7.51637 6.70868C7.63301 6.77866 7.7938 6.79616 7.90127 6.69951C8.33282 6.50123 8.32699 5.99803 8.2745 5.59647C8.50694 5.51815 8.74938 5.47317 8.99265 5.44567C9.00931 5.484 9.04097 5.56231 9.0568 5.60063C9.0843 5.89222 9.08679 6.18715 9.0568 6.47874C8.86685 7.52597 7.53053 8.0275 6.6366 7.54013C6.20421 7.28603 5.87846 6.8628 5.7135 6.39209C5.44357 5.57814 5.96261 4.63172 6.76073 4.35929M6.02926 5.2024C5.40025 6.19048 6.35667 7.65343 7.50221 7.54096C8.06123 7.5293 8.61608 7.17772 8.81603 6.64703C8.93683 6.33877 8.91434 6.00053 8.89684 5.67645C8.76938 5.70894 8.57859 5.63812 8.49945 5.76559C8.46279 6.02052 8.50445 6.30212 8.35615 6.52872C8.20786 6.79532 7.89294 6.94778 7.59135 6.90113C7.11981 6.83948 6.75823 6.44875 6.56162 6.03802C6.40249 5.72393 6.49247 5.32404 6.76323 5.1016C7.00483 4.88332 7.34975 4.90331 7.653 4.89915C7.66466 4.76002 7.67716 4.62089 7.68799 4.48176C7.05066 4.35679 6.34084 4.61089 6.02926 5.2024ZM17.4071 28.3422C17.6096 28.3022 17.812 28.2631 18.0136 28.2181C18.0253 28.3131 18.037 28.4072 18.0495 28.5022C18.0928 28.9054 18.1428 29.3095 18.2469 29.7019C18.4519 29.671 18.6568 29.6361 18.8593 29.5894C18.8867 29.7535 18.9109 29.9176 18.9334 30.0826C18.8468 30.1059 18.7601 30.1268 18.6726 30.1443C18.3327 30.1826 17.9911 30.2051 17.6537 30.2651L17.6479 30.1834C17.5996 29.5652 17.438 28.9621 17.4071 28.3422ZM17.4813 28.413C17.5654 28.9987 17.6571 29.5827 17.7562 30.1659C18.1203 30.1359 18.4794 30.0668 18.8368 29.9943C18.8134 29.9002 18.7893 29.806 18.7659 29.7127C18.5685 29.746 18.3719 29.7794 18.1744 29.8093C18.0461 29.3228 18.027 28.8163 17.9095 28.3281C17.7662 28.3556 17.6237 28.383 17.4813 28.413Z" fill="#A48C4D"></path>
  <path d="M10.2415 4.43431C10.4098 4.361 10.5822 4.22436 10.7755 4.29351C10.6622 4.3485 10.5464 4.40182 10.4314 4.45347C10.4164 4.56011 10.4023 4.66592 10.3889 4.77256C10.3373 4.66092 10.2898 4.54761 10.2415 4.43431Z" fill="#323C41"></path>
  <path d="M21.6727 4.98746C21.7476 4.83667 21.8251 4.68587 21.9034 4.53674C22.0876 4.62589 22.2692 4.7192 22.45 4.81584C22.2675 4.78085 22.0851 4.74252 21.9034 4.7042C21.8934 4.835 21.8851 4.9658 21.8801 5.09743C21.8101 5.06077 21.741 5.02412 21.6727 4.98746Z" fill="#2B3B48"></path>
  <path d="M15.6909 4.85749C17.9045 4.77918 20.1356 5.39319 21.9992 6.58954C24.2195 8.00501 25.9266 10.2211 26.6797 12.7488C27.5678 15.648 27.2204 18.9105 25.6991 21.5398C24.4753 23.6784 22.5299 25.3988 20.248 26.3327C18.4468 27.0809 16.4482 27.3117 14.5179 27.0667C12.0143 26.7393 9.62829 25.533 7.90457 23.6834C6.255 21.9672 5.19611 19.6986 4.91868 17.3359C4.73123 15.6464 4.89369 13.9101 5.46771 12.3056C6.34248 9.79204 8.15701 7.62511 10.4681 6.30962C12.0535 5.40568 13.8647 4.88665 15.6909 4.85749ZM14.8611 5.27489C13.5373 5.40485 12.2434 5.79808 11.0613 6.40626C8.73353 7.59512 6.87401 9.66291 5.93592 12.1023C5.09947 14.2567 4.98367 16.6786 5.60267 18.9047C6.23917 21.2199 7.68213 23.3019 9.62246 24.7148C11.4978 26.0986 13.8364 26.8434 16.1666 26.7935C18.406 26.7726 20.6313 26.0203 22.4266 24.6815C24.3436 23.2677 25.7733 21.2032 26.4023 18.9047C27.0313 16.6378 26.9013 14.1642 26.0207 11.9815C25.1451 9.78121 23.5147 7.89504 21.4736 6.69785C19.4991 5.52899 17.1413 5.02495 14.8611 5.27489ZM23.9554 25.4771C24.2453 25.7429 24.4769 26.0637 24.7202 26.3711C24.7977 26.4735 24.8727 26.5843 24.8993 26.7135C24.9002 26.8751 24.8993 27.0359 24.8952 27.1984C24.7635 27.6816 24.107 27.7932 23.7388 27.5266C23.9729 27.5533 24.2203 27.6474 24.4511 27.5499C24.7969 27.4275 24.9935 26.9568 24.7802 26.6418C24.5553 26.2711 24.2753 25.9379 24.0004 25.6046C23.9229 25.6771 23.8463 25.7512 23.7705 25.8254C24.0046 26.187 24.312 26.4994 24.5269 26.8743C24.6352 27.0926 24.2936 27.3283 24.1295 27.1392C23.8304 26.8285 23.6188 26.4461 23.3297 26.1261C23.2081 26.2186 23.0873 26.3111 22.9673 26.4052C23.2014 26.7426 23.4755 27.0551 23.6771 27.415C23.3389 27.1192 23.0948 26.7335 22.8482 26.3619C23.0123 26.2253 23.1781 26.0836 23.3822 26.0112C23.653 26.3469 23.8729 26.726 24.1745 27.0359C24.2278 27.0417 24.3336 27.0542 24.3861 27.0609C24.3953 26.5269 23.8296 26.2411 23.6555 25.7696C23.7563 25.6729 23.8571 25.5763 23.9554 25.4771ZM14.9419 28.1581C15.1252 28.4755 15.1977 28.8371 15.3068 29.1828C15.4243 29.5869 15.5784 29.981 15.6626 30.3942C15.4643 30.3859 15.2677 30.3734 15.071 30.3542C14.9769 30.1609 14.9228 29.8785 14.6653 29.8518C14.5612 29.9793 14.4587 30.1084 14.3546 30.2359C14.2238 30.2226 14.0913 30.2276 13.9605 30.2467C13.9922 29.9768 14.1405 29.7444 14.2604 29.5069C14.4954 29.0612 14.6986 28.5997 14.9419 28.1581ZM14.9344 28.4014C14.6237 28.9829 14.2971 29.5627 14.0671 30.1817C14.1321 30.1834 14.2613 30.1859 14.3254 30.1876C14.3954 30.0534 14.4654 29.9193 14.5337 29.7852C14.6761 29.8043 14.8178 29.8268 14.9594 29.8527C15.0061 29.986 15.0544 30.1193 15.1027 30.2526C15.2485 30.2684 15.3951 30.2809 15.5426 30.2901C15.376 29.6511 15.1943 29.0087 14.9344 28.4014Z" fill="#BA8A1D"></path>
  <path d="M6.88068 5.22162C7.11478 5.0325 7.41637 5.07749 7.68963 5.12581C7.42637 5.19829 7.15311 5.22245 6.88068 5.22162Z" fill="#2A3843"></path>
  <path d="M9.05679 5.60071C9.31256 5.79316 9.16926 6.21472 9.1501 6.49631L9.05763 6.47881C9.08678 6.18722 9.08429 5.8923 9.05763 5.60071H9.05679Z" fill="#1D2F44"></path>
  <path d="M24.1479 6.09726C24.3187 5.99146 24.4986 5.90065 24.6869 5.82983C24.6469 6.02478 24.5861 6.2139 24.5061 6.39635C24.3828 6.30138 24.2629 6.20224 24.1479 6.09726Z" fill="#B3944A"></path>
  <path d="M7.51636 6.70874C7.60967 6.61209 7.80462 6.60376 7.90126 6.69957C7.79379 6.79621 7.63299 6.77872 7.51636 6.70874Z" fill="#514E34"></path>
  <path d="M16.6573 8.39988C16.5374 7.9125 16.9606 7.57426 17.3405 7.37598C17.1872 7.69256 17.123 8.0408 17.1189 8.39071C16.9647 8.39405 16.8106 8.39738 16.6573 8.39988ZM15.5693 8.78561H15.6268C15.895 8.79394 16.2649 8.72646 16.4074 9.02222C16.6615 9.4771 16.3391 10.0728 15.85 10.1902C16.0058 9.91865 16.1883 9.6004 16.0591 9.28048C15.9983 9.0722 15.7551 9.05221 15.5843 8.98639C15.5801 8.9364 15.5726 8.8356 15.5693 8.78561Z" fill="#596DB1"></path>
  <path d="M10.0724 8.81481C10.1898 8.40409 10.5039 8.04418 10.913 7.90588C10.6139 8.21414 10.3048 8.56571 10.2623 9.01226C10.1857 9.49547 10.3714 9.97285 10.6514 10.3586C10.1098 10.0778 9.92406 9.37467 10.0724 8.81481ZM12.3326 23.7034C12.5442 23.6876 12.7567 23.6876 12.9691 23.6851C12.9499 23.8776 12.9316 24.0709 12.925 24.265C12.8775 24.235 12.7817 24.1742 12.7342 24.1433C12.6742 23.9259 12.6009 23.7026 12.3326 23.7034Z" fill="#586EB1"></path>
  <path d="M12.725 8.52234C13.0208 8.54817 13.1549 8.84476 13.2615 9.08219C13.439 9.56707 13.3607 10.1419 13.0474 10.5551C12.84 10.8509 12.5234 11.04 12.2093 11.205C12.0618 11.0967 11.9002 11.0084 11.7403 10.92C11.8186 10.6743 12.0985 10.606 12.2726 10.4443C12.8416 10.002 13.0124 9.17384 12.725 8.52234ZM23.1723 15.0007C23.5214 15.1215 23.7621 15.4689 23.7621 15.8379C23.7988 16.3603 23.4206 16.8393 22.9465 17.0243C22.9257 16.8119 22.8974 16.6002 22.8232 16.3995C23.2273 16.0612 23.3881 15.4914 23.1723 15.0007ZM15.7809 22.1221C15.97 21.8789 16.2733 21.7789 16.5474 21.6639C16.7731 21.7747 17.0039 21.873 17.2363 21.9688C16.8914 22.1438 16.4724 22.2404 16.2391 22.5754C15.9692 22.9461 15.9725 23.4376 15.7351 23.8225C15.5534 24.1175 15.1694 24.0391 14.8928 24.1566C14.7836 24.3224 14.7528 24.5282 14.6728 24.709C14.4887 24.5973 14.3188 24.464 14.173 24.3066C14.2504 24.12 14.2629 23.89 14.4121 23.7434C14.6695 23.6326 15.0277 23.7159 15.2077 23.4593C15.4768 23.0486 15.4726 22.512 15.7809 22.1221Z" fill="#D3D3D6"></path>
  <path d="M11.262 8.724C11.5536 8.50072 12.011 8.56071 12.1851 8.90062C12.4159 9.38632 12.0685 9.96034 11.6195 10.177C11.567 9.90286 11.3679 9.71374 11.1571 9.55045C11.4012 9.53379 11.7819 9.56461 11.8044 9.22887C11.8619 8.90062 11.5153 8.77982 11.262 8.724Z" fill="#596DB2"></path>
  <path d="M11.2621 8.724C11.5153 8.77982 11.8619 8.90062 11.8044 9.22887C11.7819 9.56461 11.4012 9.53379 11.1571 9.55045C11.0938 9.39216 10.9721 9.2247 11.0404 9.04725C11.0988 8.92978 11.1854 8.8298 11.2621 8.724Z" fill="#D2D3D9"></path>
  <path d="M17.952 9.26136C17.9928 9.02309 18.2752 9.13972 18.4443 9.11723C18.506 9.32384 18.6668 9.46464 18.8276 9.59627C18.5102 9.76873 18.1502 9.50296 17.952 9.26136Z" fill="#CDD3E0"></path>
  <path d="M18.6443 9.10562C18.7743 9.09729 18.9042 9.08979 19.0342 9.08313C18.9892 9.19977 18.9434 9.31557 18.8976 9.43221C18.7168 9.41221 18.6168 9.28641 18.6443 9.10562Z" fill="#B4C8EB"></path>
  <path d="M20.3172 9.28052C20.478 9.42631 20.7254 9.53212 20.7771 9.75789C20.6696 10.032 20.4655 10.2536 20.323 10.5085C20.1847 10.4702 20.0489 10.4252 19.9098 10.3944C19.8548 10.4669 19.8148 10.5477 19.7907 10.6368C19.5632 10.4427 19.3966 10.771 19.2833 10.9293C19.1025 10.9409 18.9209 10.9368 18.7401 10.9209C18.6768 10.6235 18.8276 10.3003 19.1025 10.1686C19.3016 10.0736 19.4466 10.2994 19.5957 10.3961C19.8457 10.0312 20.1531 9.69791 20.3172 9.28052ZM17.6004 24.0533C17.7195 23.98 17.8462 23.9125 17.9878 23.8967C18.0445 23.9067 18.1586 23.9275 18.2152 23.9375C18.2777 24.0567 18.341 24.1766 18.406 24.2949C18.1236 24.3683 18.0178 24.6415 17.9028 24.8773C17.6812 24.659 17.6637 24.3391 17.6004 24.0533Z" fill="#D3D3D7"></path>
  <path d="M14.757 10.4928C14.7212 10.3453 14.7745 10.2012 14.8236 10.0637C14.9528 10.5261 15.4201 10.7136 15.815 10.8943C15.7567 11.4375 15.4485 11.9016 15.1935 12.3698C15.0627 12.5547 15.1777 12.7755 15.1769 12.9788C15.1494 13.342 14.9236 13.7103 14.542 13.7761C14.4937 13.4912 14.4954 13.1787 14.3221 12.9346C14.0705 12.5789 13.7314 12.299 13.4107 12.009C13.8031 12.0399 14.1921 12.1082 14.5854 12.129C14.842 11.8066 15.0586 11.455 15.2494 11.0901C15.0594 10.9185 14.7936 10.7719 14.757 10.4928ZM21.2795 11.3609C21.8077 11.2018 22.3758 11.7108 22.3217 12.2465C22.2792 12.5581 22.0693 12.813 21.851 13.0255C21.4103 13.4445 20.8846 13.7861 20.5388 14.296C20.2831 14.66 20.2706 15.1566 20.453 15.5548C20.7646 16.2338 21.4269 16.692 21.676 17.4068C21.7993 17.7884 21.8018 18.2416 21.5744 18.5857C21.3286 18.9397 20.8521 19.0597 20.4455 18.9764C19.914 18.8773 19.4708 18.4932 19.2433 18.0108C19.3775 18.1258 19.5183 18.2349 19.6649 18.3357C20.0381 18.5465 20.5297 18.6565 20.9229 18.4382C21.2386 18.2633 21.3328 17.8509 21.2295 17.5243C21.0803 17.0119 20.6621 16.6503 20.353 16.2355C19.9473 15.7206 19.6799 15.0008 19.9348 14.3601C20.2714 13.597 21.0479 13.1921 21.5677 12.5772C21.6977 12.4364 21.741 12.2457 21.7477 12.059C21.6602 11.7841 21.3836 11.5967 21.097 11.6983C20.9804 11.7724 20.8662 11.8508 20.7563 11.9332C20.8812 11.7075 21.0029 11.4284 21.2795 11.3609ZM11.1138 13.0738C11.2321 13.0879 11.352 13.0996 11.4712 13.1121C11.5003 14.131 11.4362 15.1516 11.4995 16.1688C11.5928 16.1555 11.687 16.1405 11.7811 16.1255C11.9494 16.0847 12.1143 16.0272 12.2701 15.9514C12.7109 15.7039 13.1082 15.3882 13.5306 15.1124C13.8889 14.885 14.2679 14.6909 14.627 14.4642C14.9661 14.5759 15.3235 14.6025 15.6776 14.6284C15.1735 14.9933 14.6137 15.2665 14.0797 15.5831C13.6323 15.8289 13.2024 16.1063 12.7533 16.3479C12.196 16.6478 11.5412 16.4729 10.948 16.6145C10.6531 16.7137 10.3465 16.9253 10.2973 17.2552L10.2723 17.3485C10.134 17.2793 10.2248 17.1094 10.2398 16.9961C10.334 16.562 10.7797 16.3821 11.1213 16.1763C11.1213 15.1424 11.1304 14.1085 11.1138 13.0738ZM16.9381 16.4179C17.2113 16.5395 17.5221 16.6987 17.5879 17.0227C17.6879 17.361 17.453 17.6784 17.1814 17.8534C16.3599 18.3999 15.336 18.5948 14.587 19.2588C14.3671 19.4363 14.238 19.7145 14.2763 19.9986C14.2738 20.3585 14.6478 20.5118 14.8953 20.691C14.742 21.36 14.5862 22.1531 13.9505 22.5363C13.3507 22.8846 12.6217 22.5113 11.9927 22.7504C11.8269 22.8137 11.7161 22.9887 11.7336 23.167C11.7494 23.5019 11.8019 23.8343 11.8261 24.1684C11.7219 24.0559 11.6578 23.9151 11.6678 23.7593C11.6645 23.3911 11.5861 22.9687 11.8336 22.6563C12.0085 22.5363 12.2076 22.4555 12.4134 22.4055C12.8925 22.3988 13.499 22.618 13.8706 22.2047C14.1563 21.819 14.2538 21.3183 14.2763 20.8476C14.178 20.576 13.8089 20.4627 13.7439 20.1578C13.6298 19.5729 14.0238 19.0556 14.4104 18.6648C14.9236 18.1833 15.5035 17.7517 16.1583 17.486C16.4349 17.386 16.8015 17.4035 16.9847 17.1402C17.0281 16.8994 16.9622 16.657 16.9381 16.4179ZM17.2322 19.812C17.4463 19.8137 17.6687 19.8062 17.8737 19.8787C18.0836 20.067 18.1219 20.396 18.3577 20.5635C18.6235 20.6751 18.9292 20.6176 19.1958 20.7226C19.4283 20.9067 19.5149 21.2183 19.5274 21.5032C19.5407 22.0081 19.315 22.4788 19.0617 22.9029C18.5343 22.957 17.947 22.8446 17.4779 23.1478C17.0739 23.4228 17.3197 23.9584 17.318 24.3533C17.1139 23.9934 17.0972 23.5019 17.2913 23.1362C17.6321 22.7229 18.2269 22.7879 18.7035 22.7038C18.8551 22.6963 18.8784 22.5246 18.9117 22.4088C18.9542 22.1656 18.9509 21.9123 18.9092 21.669C18.8859 21.5624 18.8593 21.4574 18.8326 21.3525C18.6993 21.31 18.5652 21.2683 18.4327 21.2225C17.982 21.0459 17.6271 20.676 17.4121 20.2486C17.3455 20.1053 17.288 19.9587 17.2322 19.812Z" fill="#5A6DB2"></path>
  <path d="M20.323 10.5086C20.658 10.6169 20.932 10.3286 21.1928 10.1678C21.1303 10.5294 20.9104 10.8777 20.5347 10.9701C20.4305 10.956 20.3264 10.941 20.2222 10.9235C20.0723 10.8368 19.9331 10.7352 19.7907 10.6369C19.8148 10.5477 19.8548 10.4669 19.9098 10.3945C20.0489 10.4253 20.1847 10.4703 20.323 10.5086Z" fill="#EA0E16"></path>
  <path d="M11.1037 10.8269C11.2304 10.8352 11.3578 10.8419 11.4853 10.8494C11.4853 10.9086 11.4853 11.0277 11.4853 11.0868C11.3578 11.0827 11.2304 11.0777 11.1029 11.0752C11.1029 11.0127 11.1029 10.8886 11.1046 10.8269H11.1037Z" fill="#536EB5"></path>
  <path d="M11.7403 10.9202C11.9002 11.0085 12.0618 11.0968 12.2093 11.2051C12.3176 11.3267 12.4109 11.4609 12.5042 11.5942C12.281 11.5183 12.041 11.4675 11.8477 11.3276C11.7678 11.2084 11.7686 11.056 11.7403 10.9202Z" fill="#5A6EAE"></path>
  <path d="M20.2222 10.9235C20.3263 10.941 20.4305 10.956 20.5346 10.9701C20.6613 11.0118 20.7829 11.0676 20.907 11.1192C20.8112 11.2251 20.7262 11.3384 20.6479 11.4567C20.5163 11.3925 20.3805 11.3359 20.2639 11.2475C20.2255 11.1442 20.2305 11.0318 20.2222 10.9235Z" fill="#D7D3D5"></path>
  <path d="M2.78009 11.115C3.39327 10.9284 4.11724 11.1567 4.49048 11.6832C4.9187 12.2539 4.88621 13.1237 4.39634 13.6477C3.98228 14.1201 3.26747 14.2967 2.68178 14.0676C2.13693 13.8643 1.7312 13.3369 1.67954 12.7571C1.6004 12.0414 2.08694 11.3125 2.78009 11.115ZM2.53765 11.4466C2.63013 11.4899 2.71761 11.5891 2.82925 11.5616C3.15083 11.4974 3.47574 11.4524 3.79983 11.4041C3.41076 11.175 2.91839 11.2266 2.53765 11.4466ZM2.11776 11.8448C2.65013 12.1039 3.15583 12.4105 3.67403 12.6963C3.70652 12.5546 3.73734 12.413 3.76733 12.2705C3.36411 11.9448 2.90589 11.6874 2.40769 11.5374C2.30855 11.6374 2.21191 11.7398 2.11776 11.8448ZM2.98087 11.6024C3.10917 11.7082 3.23831 11.8623 3.42409 11.8323C3.71485 11.8182 4.00644 11.8048 4.29803 11.7907C4.22888 11.7065 4.1539 11.6307 4.07142 11.5607C3.71068 11.4841 3.33828 11.5291 2.98087 11.6024ZM3.48324 11.9223C3.59655 12.0223 3.70902 12.1264 3.84398 12.1972C4.06642 12.2156 4.2897 12.1989 4.51214 12.1914C4.47465 12.1039 4.43716 12.0173 4.39884 11.9315C4.09642 11.8773 3.7865 11.8773 3.48324 11.9223ZM1.91032 12.4013C2.39936 12.7313 2.93422 13.0012 3.50074 13.1703C3.51573 13.0345 3.67902 12.8454 3.52573 12.7421C3.06668 12.4272 2.57265 12.1597 2.06028 11.9406C1.9903 12.0873 1.94031 12.2414 1.91032 12.4013ZM4.3047 12.273C4.26304 12.8337 4.03393 13.3436 3.76234 13.826C4.36801 13.6194 4.65794 12.9345 4.56879 12.3314C4.48048 12.3114 4.39301 12.2922 4.3047 12.273ZM3.33328 13.6735C3.38077 13.7102 3.47491 13.7818 3.5224 13.8185C3.98644 13.4611 4.14557 12.8571 4.20805 12.3022C4.13057 12.298 3.97561 12.2905 3.89813 12.2864C3.75234 12.7654 3.57072 13.2328 3.33328 13.6735ZM1.87783 12.5321C1.90032 12.7321 1.86616 12.9929 2.05528 13.1245C2.39936 13.3919 2.81425 13.5594 3.24497 13.6202C3.30745 13.5011 3.36911 13.3811 3.42992 13.2611C2.89256 13.0612 2.38853 12.7896 1.87783 12.5321ZM2.13109 13.3378C2.09277 13.4527 2.13109 13.4969 2.24773 13.4694C2.28772 13.3536 2.24856 13.3094 2.13109 13.3378ZM2.36187 13.4586C2.3727 13.7102 2.59097 13.8226 2.80509 13.8785C2.81008 13.616 2.59431 13.4927 2.36187 13.4586ZM2.82341 13.6543C2.88257 13.7493 2.93255 13.8543 3.01753 13.9318C3.16499 13.9893 3.32662 13.9509 3.47908 13.9409C3.33995 13.7118 3.07418 13.6477 2.82341 13.6543Z" fill="#FDF7FB"></path>
  <path d="M28.3568 11.1134C29.2682 10.8127 30.3321 11.5375 30.3487 12.5047C30.4354 13.3087 29.7856 14.0826 28.9849 14.1551C28.121 14.2901 27.2379 13.5578 27.2445 12.6763C27.1821 11.974 27.6869 11.3009 28.3568 11.1134ZM28.0918 11.4458C28.1868 11.4933 28.2801 11.5908 28.3967 11.5608C28.7192 11.4975 29.0441 11.4508 29.3698 11.4033C28.9741 11.1776 28.4792 11.2309 28.0918 11.4458ZM27.6828 11.8466C28.2143 12.1073 28.7192 12.4172 29.2415 12.6938C29.2699 12.5572 29.354 12.4206 29.3282 12.2781C28.9441 11.9324 28.4692 11.7049 27.9835 11.5383C27.8811 11.6383 27.7811 11.7407 27.6828 11.8466ZM28.5475 11.6008C28.6608 11.6916 28.7633 11.8349 28.9233 11.8316C29.2349 11.8257 29.5465 11.8024 29.8589 11.8049C29.7939 11.7216 29.7306 11.6374 29.6531 11.5675C29.289 11.4783 28.9091 11.5283 28.5475 11.6008ZM29.0532 11.9224C29.1657 12.024 29.2749 12.1373 29.4148 12.2023C29.6364 12.2148 29.858 12.1998 30.0796 12.1898C30.0438 12.1065 30.008 12.0223 29.973 11.939C29.6706 11.8749 29.3582 11.8749 29.0532 11.9224ZM27.5895 11.9882C27.5261 12.1206 27.4987 12.2648 27.4695 12.4072C27.9544 12.7255 28.4792 12.9796 29.0258 13.172C29.0824 13.0587 29.1374 12.9446 29.1915 12.8305C28.8041 12.5247 28.3634 12.2923 27.9252 12.0698C27.8161 12.039 27.7044 11.9299 27.5895 11.9882ZM29.419 12.4197C29.2832 12.8521 29.1082 13.2703 28.9008 13.6736C28.9491 13.7119 29.0441 13.7885 29.0924 13.8269C29.5489 13.4503 29.7406 12.8455 29.7472 12.2706C29.6339 12.3031 29.4498 12.2648 29.419 12.4197ZM29.8655 12.2614C29.8172 12.8463 29.6098 13.402 29.2499 13.866C29.8647 13.6727 30.2521 12.9913 30.128 12.3631C30.068 12.2798 29.9513 12.2939 29.8655 12.2614ZM27.4587 12.5447C27.4678 12.7272 27.4303 12.9546 27.5811 13.0921C27.9069 13.3737 28.3226 13.5328 28.7408 13.6161C28.8916 13.5736 28.9174 13.3795 28.9966 13.2628C28.4634 13.0671 27.9652 12.7963 27.4587 12.5447ZM27.6961 13.3462C27.6628 13.462 27.7036 13.5036 27.8194 13.472C27.8536 13.3545 27.8119 13.312 27.6961 13.3462ZM27.9352 13.4628C27.9469 13.7144 28.1518 13.8352 28.3751 13.8802C28.3693 13.6244 28.1685 13.4928 27.9352 13.4628ZM28.3926 13.6452C28.4476 13.7411 28.4917 13.8477 28.5717 13.9277C28.705 13.9793 28.8525 13.9635 28.9933 13.9735C28.9591 13.6877 28.6184 13.6594 28.3926 13.6452Z" fill="#FDF8FD"></path>
  <path d="M2.53763 11.4467C2.91836 11.2268 3.41073 11.1751 3.7998 11.4042C3.47572 11.4526 3.1508 11.4975 2.82922 11.5617C2.71758 11.5892 2.6301 11.49 2.53763 11.4467Z" fill="#C6363B"></path>
  <path d="M28.0919 11.4458C28.4793 11.2308 28.9741 11.1775 29.3699 11.4033C29.0441 11.4508 28.7192 11.4974 28.3968 11.5607C28.2801 11.5907 28.1868 11.4933 28.0919 11.4458Z" fill="#C63136"></path>
  <path d="M10.7572 11.3391C11.1079 11.2325 11.3795 11.5208 11.5953 11.7515C11.3104 11.7965 11.0204 11.799 10.7347 11.7624C10.7388 11.6207 10.7472 11.4799 10.7572 11.3391Z" fill="#576DB5"></path>
  <path d="M19.2766 11.3408C19.4324 11.345 19.589 11.3483 19.7448 11.3525C19.7715 11.6474 19.7965 11.9415 19.8198 12.2364C19.5274 12.0881 19.1692 11.7665 18.8442 12.019C18.4735 12.2714 18.5876 12.7704 18.6493 13.1437C18.4185 13.0404 18.2002 12.8704 18.1428 12.6113C18.0428 12.2664 18.0295 11.7632 18.3994 11.5749C18.7326 11.4225 19.0517 11.6857 19.3258 11.8457C19.3058 11.6774 19.285 11.5099 19.2766 11.3408ZM19.4391 13.2445C19.4524 13.2795 19.4791 13.3495 19.4924 13.3845C19.5907 13.3461 19.6899 13.3078 19.789 13.2703C19.949 13.6019 20.0256 14.0501 19.754 14.345C19.5049 14.645 19.0858 14.6433 18.7334 14.6966C18.6834 15.1973 19.0209 15.6139 19.0817 16.0971C19.1941 16.8619 19.3516 17.625 19.6649 18.3357C19.5182 18.2349 19.3774 18.1257 19.2433 18.0108C18.8226 17.2743 18.7034 16.4237 18.5693 15.5997C18.511 15.1365 18.1436 14.7616 18.2194 14.2734C18.566 14.2534 18.9659 14.2567 19.2225 13.9801C19.4283 13.7952 19.4349 13.5003 19.4391 13.2445Z" fill="#D2D3D8"></path>
  <path d="M23.0873 11.4158C23.5022 11.5607 23.7138 12.0031 23.698 12.4222C23.7221 12.9137 23.4339 13.3528 23.0881 13.676C22.809 13.926 22.5083 14.1492 22.2275 14.3958C21.7227 14.3625 21.2836 14.6274 20.8912 14.9099C20.9953 14.6899 21.117 14.4725 21.3011 14.3084C21.8643 13.7893 22.5958 13.4319 23.0073 12.7621C23.2589 12.3597 23.2581 11.8482 23.0873 11.4158ZM21.2661 16.0896C21.3394 15.8804 21.4419 15.6438 21.6868 15.5972C21.9967 15.4797 22.2992 15.6972 22.4175 15.9779C22.2442 16.0229 22.0326 16.0204 21.9101 16.1712C21.761 16.3312 21.7651 16.5961 21.9251 16.7469C22.2792 17.1568 22.6674 17.57 22.814 18.1074C22.9573 18.5631 22.8998 19.1171 22.5341 19.4553C22.0901 19.9269 21.3694 19.9477 20.7796 19.7994C20.4047 19.6936 19.9998 19.5545 19.7607 19.2262C20.3897 19.4745 21.1453 19.607 21.7676 19.2729C22.2925 18.9963 22.5033 18.3248 22.3325 17.7741C22.1767 17.1035 21.651 16.6294 21.2661 16.0896ZM13.6697 17.9616C14.4812 17.7783 15.0969 17.1818 15.6026 16.5561C15.7242 16.7802 15.8408 17.0068 15.9808 17.2209C15.4201 17.6566 14.9094 18.2207 14.1771 18.3573C13.9872 18.224 13.8114 18.044 13.5798 17.9907C13.2132 17.9882 12.8258 18.1482 12.6 18.4423C12.495 18.6889 12.3701 18.928 12.2618 19.1738C12.2301 19.6453 12.2468 20.1202 12.2501 20.5926C12.2393 20.8691 12.5784 21.0424 12.49 21.3307C12.4276 21.6856 12.3959 22.0447 12.4134 22.4054C12.2076 22.4554 12.0085 22.5362 11.8336 22.6562C11.6519 22.5862 11.482 22.4779 11.4195 22.2838C11.6086 22.1921 11.8585 22.1297 11.9352 21.9072C11.9769 21.6889 11.9002 21.4657 11.9452 21.2482C11.9852 21.0441 12.0052 20.8367 12.0068 20.6292C11.9194 20.5351 11.7544 20.4759 11.7569 20.3276C11.7311 19.7478 11.7686 19.1671 11.7452 18.5872C11.7952 18.5739 11.8944 18.5489 11.9444 18.5356C11.931 17.9207 12.5884 17.53 13.1465 17.6117C13.3507 17.675 13.5031 17.8358 13.6697 17.9616ZM15.8775 20.6392C16.1141 20.1277 16.7006 19.8786 17.2321 19.8119C17.288 19.9586 17.3455 20.1052 17.4121 20.2485C17.0822 20.3976 16.7231 20.5342 16.489 20.825C16.3565 20.9866 16.3507 21.2066 16.3116 21.404C16.02 21.2857 15.7325 20.9708 15.8775 20.6392ZM12.151 23.8175C12.1968 23.7884 12.2876 23.7317 12.3326 23.7034C12.6009 23.7026 12.6742 23.9259 12.7342 24.1433C12.615 24.3008 12.5034 24.4624 12.3909 24.624C12.101 24.4632 12.1668 24.0941 12.151 23.8175ZM13.0791 24.2358C13.1407 24.0017 13.3007 23.8167 13.5081 23.6967C13.6756 23.8084 13.798 23.9692 13.9188 24.1275C13.7356 24.3191 13.6048 24.5515 13.4898 24.7881C13.3057 24.6432 13.1649 24.4541 13.0791 24.2358ZM18.6718 24.3216C18.7709 24.125 18.8892 23.8917 19.1483 23.9092C19.2591 24.0242 19.3733 24.1366 19.4841 24.2524L19.5241 24.2974C19.3441 24.4649 19.2008 24.664 19.0667 24.8689C18.8984 24.7148 18.7767 24.5215 18.6718 24.3216Z" fill="#D2D3D7"></path>
  <path d="M2.11777 11.8449C2.21191 11.7399 2.30855 11.6374 2.40769 11.5375C2.9059 11.6874 3.36411 11.9449 3.76734 12.2706C3.73735 12.4131 3.70652 12.5547 3.67403 12.6963C3.15583 12.4106 2.65013 12.104 2.11777 11.8449ZM27.4587 12.5447C27.9652 12.7963 28.4634 13.0671 28.9966 13.2629C28.9175 13.3795 28.8916 13.5736 28.7409 13.6161C28.3226 13.5328 27.9069 13.3737 27.5812 13.0921C27.4304 12.9546 27.4679 12.7272 27.4587 12.5447Z" fill="#EF0C14"></path>
  <path d="M2.98087 11.6025C3.33827 11.5292 3.71068 11.4842 4.07142 11.5608C4.15389 11.6308 4.22887 11.7066 4.29802 11.7908C4.00643 11.805 3.71484 11.8183 3.42408 11.8324C3.2383 11.8624 3.10917 11.7083 2.98087 11.6025Z" fill="#E31219"></path>
  <path d="M27.6828 11.8465C27.7811 11.7407 27.8811 11.6382 27.9835 11.5382C28.4692 11.7048 28.9441 11.9323 29.3282 12.278C29.354 12.4205 29.2699 12.5571 29.2415 12.6937C28.7192 12.4171 28.2143 12.1072 27.6828 11.8465Z" fill="#EF0D14"></path>
  <path d="M28.5476 11.6009C28.9091 11.5284 29.2891 11.4784 29.6531 11.5675C29.7306 11.6375 29.7939 11.7217 29.8589 11.805C29.5465 11.8025 29.2349 11.8258 28.9233 11.8316C28.7634 11.835 28.6609 11.6917 28.5476 11.6009Z" fill="#DC151B"></path>
  <path d="M21.097 11.6983C21.3836 11.5967 21.6602 11.7841 21.7477 12.059C21.4852 12.1723 21.2703 12.3631 21.0887 12.5797C21.1087 12.2865 21.1162 11.9924 21.097 11.6983Z" fill="#D3D3D8"></path>
  <path d="M3.48325 11.9224C3.7865 11.8775 4.09642 11.8775 4.39884 11.9316C4.43716 12.0174 4.47466 12.1041 4.51215 12.1915C4.2897 12.199 4.06643 12.2157 3.84399 12.1974C3.70902 12.1266 3.59655 12.0224 3.48325 11.9224Z" fill="#E1131A"></path>
  <path d="M10.8463 11.9606C11.1154 11.9573 11.3695 12.0665 11.6036 12.1898C11.3495 12.3539 11.0179 12.4439 10.723 12.3447C10.7505 12.2147 10.6764 12.0106 10.8463 11.9606Z" fill="#566DB5"></path>
  <path d="M29.0533 11.9223C29.3582 11.8748 29.6706 11.8748 29.973 11.939C30.008 12.0223 30.0439 12.1064 30.0797 12.1897C29.8581 12.1997 29.6365 12.2147 29.4149 12.2022C29.2749 12.1373 29.1658 12.024 29.0533 11.9223Z" fill="#E21219"></path>
  <path d="M1.91031 12.4014C1.9403 12.2414 1.99029 12.0873 2.06027 11.9407C2.57264 12.1598 3.06668 12.4272 3.52572 12.7421C3.67902 12.8454 3.51573 13.0346 3.50073 13.1704C2.93421 13.0012 2.39935 12.7313 1.91031 12.4014ZM3.04168 19.0405C3.26829 18.878 3.62986 19.0555 3.63319 19.3354C3.66069 19.622 3.31161 19.8545 3.06251 19.6987C2.80924 19.5754 2.78092 19.1713 3.04168 19.0405ZM3.66235 19.7112C3.96561 19.7303 4.36134 19.8536 4.46548 20.1719C4.38633 20.3826 4.13556 20.4301 3.97311 20.5601C3.80398 20.6476 3.65985 20.8367 3.45324 20.8125C3.18748 20.5884 3.30661 20.1952 3.3466 19.8994C3.49823 19.9703 3.62653 20.0769 3.75566 20.181C3.724 20.0244 3.68985 19.8686 3.66235 19.7112Z" fill="#F10B13"></path>
  <path d="M27.5895 11.9882C27.7044 11.9299 27.8161 12.039 27.9252 12.0698C28.3634 12.2923 28.8042 12.5247 29.1916 12.8305C29.1374 12.9446 29.0824 13.0587 29.0258 13.172C28.4792 12.9796 27.9544 12.7255 27.4695 12.4072C27.4987 12.2648 27.5262 12.1207 27.5895 11.9882ZM1.94946 20.0877C1.9428 19.6987 2.49432 19.662 2.79008 19.6404C2.73592 19.7995 2.67261 19.9553 2.61512 20.1136C2.75175 20.0278 2.88339 19.9336 3.01585 19.8411C3.11916 20.0961 3.1025 20.4018 2.98669 20.6493C2.91754 20.8026 2.69177 20.7709 2.59846 20.6593C2.39685 20.4518 2.13691 20.3077 1.94946 20.0877Z" fill="#F10C13"></path>
  <path d="M4.30472 12.2731C4.39303 12.2922 4.48051 12.3114 4.56882 12.3314C4.65796 12.9346 4.36804 13.6194 3.76236 13.826C4.03396 13.3436 4.26306 12.8338 4.30472 12.2731Z" fill="#E11219"></path>
  <path d="M29.419 12.4198C29.4498 12.2648 29.6339 12.3031 29.7472 12.2706C29.7406 12.8455 29.549 13.4503 29.0924 13.8269C29.0441 13.7886 28.9491 13.7119 28.9008 13.6736C29.1082 13.2704 29.2832 12.8521 29.419 12.4198Z" fill="#EB0F16"></path>
  <path d="M29.8655 12.2615C29.9513 12.294 30.068 12.2798 30.128 12.3631C30.2521 12.9913 29.8647 13.6728 29.2498 13.8661C29.6098 13.402 29.8172 12.8463 29.8655 12.2615Z" fill="#E41118"></path>
  <path d="M3.33328 13.6736C3.57072 13.2329 3.75234 12.7655 3.89814 12.2865C3.97562 12.2907 4.13058 12.2982 4.20806 12.3023C4.14557 12.8572 3.98645 13.4612 3.5224 13.8186C3.47491 13.7819 3.38077 13.7103 3.33328 13.6736Z" fill="#E90F16"></path>
  <path d="M10.8347 12.5839C11.0696 12.4714 11.3195 12.573 11.5086 12.7247C11.2945 12.8096 11.0671 12.8505 10.838 12.8496C10.838 12.783 10.8355 12.6497 10.8347 12.5839Z" fill="#556DB6"></path>
  <path d="M1.87781 12.5322C2.38851 12.7897 2.89254 13.0613 3.4299 13.2612C3.36909 13.3812 3.30744 13.5011 3.24495 13.6203C2.81423 13.5595 2.39934 13.392 2.05526 13.1246C1.86614 12.9929 1.9003 12.7322 1.87781 12.5322ZM29.404 19.6437C29.6631 19.6529 29.933 19.6954 30.148 19.8503C30.3004 19.9211 30.2496 20.1469 30.1246 20.2194C29.9405 20.366 29.7556 20.5118 29.5806 20.6701C29.4865 20.7859 29.2482 20.7901 29.1957 20.6318C29.1007 20.4118 29.0982 20.1652 29.1032 19.9303C29.2832 19.8462 29.4148 20.0478 29.5681 20.1094C29.514 19.9536 29.454 19.8003 29.404 19.6437Z" fill="#F00C14"></path>
  <path d="M11.7752 13.1761C12.1651 13.2653 12.5575 13.3528 12.9308 13.5002C12.9641 13.5769 12.9966 13.6552 13.0283 13.7327C12.7742 13.681 12.5192 13.6352 12.2635 13.5952C12.2376 14.38 12.2443 15.1665 12.2701 15.9513C12.1143 16.0271 11.9494 16.0846 11.7811 16.1254C11.7686 15.1423 11.7744 14.1592 11.7752 13.1761Z" fill="#D1D3D8"></path>
  <path d="M2.13111 13.3379C2.24858 13.3096 2.28773 13.3537 2.24774 13.4695C2.13111 13.497 2.09278 13.4529 2.13111 13.3379Z" fill="#BC7D80"></path>
  <path d="M27.6961 13.3462C27.8119 13.312 27.8536 13.3545 27.8194 13.472C27.7036 13.5036 27.6628 13.462 27.6961 13.3462Z" fill="#C86D70"></path>
  <path d="M2.36185 13.4586C2.59429 13.4928 2.81006 13.6161 2.80507 13.8785C2.59095 13.8227 2.37268 13.7102 2.36185 13.4586Z" fill="#C33539"></path>
  <path d="M12.9308 13.5004C13.149 13.5995 13.404 13.7911 13.3198 14.0669C13.2682 14.3835 12.8616 14.2935 12.6325 14.3635C12.7733 14.2618 12.9508 14.1944 13.0516 14.0461C13.0724 13.9419 13.0457 13.8361 13.0282 13.7328C12.9966 13.6553 12.9641 13.577 12.9308 13.5004Z" fill="#566DAF"></path>
  <path d="M27.9352 13.4628C28.1685 13.4928 28.3693 13.6244 28.3751 13.8802C28.1518 13.8352 27.9469 13.7144 27.9352 13.4628Z" fill="#CE3439"></path>
  <path d="M2.82343 13.6544C3.07419 13.6477 3.33996 13.7119 3.47909 13.941C3.32663 13.951 3.165 13.9893 3.01754 13.9318C2.93256 13.8543 2.88258 13.7494 2.82343 13.6544Z" fill="#CC2B30"></path>
  <path d="M28.3926 13.6453C28.6184 13.6594 28.9591 13.6878 28.9933 13.9735C28.8525 13.9635 28.705 13.9793 28.5717 13.9277C28.4917 13.8477 28.4476 13.7411 28.3926 13.6453Z" fill="#CA1D23"></path>
  <path d="M13.8389 14.5908C14.073 14.48 14.2438 14.2801 14.4137 14.0909C14.4862 14.2142 14.5579 14.3384 14.627 14.4642C14.2679 14.6908 13.8889 14.8849 13.5306 15.1123C13.3773 14.9757 13.2232 14.8399 13.0599 14.7158C13.3223 14.7074 13.5989 14.7133 13.8389 14.5908Z" fill="#CDD3DF"></path>
  <path d="M21.4244 15.4332C21.7335 15.0416 22.41 15.0658 22.6883 15.4832C22.9315 15.7581 22.8124 16.1413 22.7607 16.4637C22.6666 16.5496 22.5391 16.5812 22.4267 16.6337C22.4258 16.4146 22.4392 16.1955 22.4175 15.978C22.2992 15.6973 21.9968 15.4798 21.6868 15.5973C21.4419 15.644 21.3394 15.8806 21.2661 16.0897C21.2636 15.8647 21.2636 15.6115 21.4244 15.4332ZM10.8638 17.6526C10.9738 17.6201 11.0854 17.5934 11.1971 17.5676C11.1637 17.7592 11.1329 17.9517 11.1088 18.145C11.2995 18.0558 11.4953 17.9758 11.6969 17.915C11.7144 18.115 11.7311 18.3149 11.7419 18.5157C11.6578 18.4266 11.5736 18.3374 11.4887 18.2491C11.452 19.0006 11.4878 19.7537 11.4803 20.5052C11.4645 20.6277 11.4912 20.7968 11.3529 20.8584C11.1829 20.9234 10.998 20.9292 10.8197 20.9542C10.8147 20.8318 10.8088 20.7093 10.803 20.5868C10.9021 20.5493 11.0021 20.5127 11.1021 20.4769C11.1496 19.8762 11.1096 19.2722 11.1263 18.6698C11.1596 18.3058 10.9321 17.9983 10.8638 17.6526Z" fill="#5A6DB1"></path>
  <path d="M10.4048 17.2169C10.5605 17.1735 10.7213 17.1627 10.8821 17.1477C10.7663 17.3443 10.673 17.5543 10.6289 17.7792L10.603 17.8792C10.5256 17.6609 10.5214 17.4193 10.4048 17.2169Z" fill="#6C81B9"></path>
  <path d="M2.47598 18.1399C2.55262 17.9816 2.62177 17.7434 2.83588 17.7417C3.15913 17.7534 3.48072 17.7925 3.8048 17.7975C4.03724 17.8067 4.11555 18.0475 4.1872 18.2274C4.36549 18.2724 4.61625 18.2957 4.67457 18.5082C4.74289 18.8173 4.8312 19.1213 4.91284 19.4279C4.96283 19.6429 4.76871 19.7845 4.61292 19.8853C4.62875 20.0861 4.6879 20.3527 4.48129 20.4785C4.21886 20.6301 3.96642 20.7967 3.71232 20.9609C3.5232 21.0808 3.32326 20.9425 3.16413 20.8409C2.98751 20.8959 2.79339 21.0092 2.61094 20.91C2.42849 20.7859 2.28353 20.6151 2.10191 20.4902C1.9811 20.3902 1.82115 20.3135 1.76866 20.1552C1.73867 20.0036 1.79199 19.8545 1.81781 19.707C1.67702 19.5754 1.4954 19.3988 1.59204 19.188C1.71617 18.9106 1.82365 18.6273 1.92695 18.3424C2.01443 18.1208 2.27853 18.1316 2.47598 18.1399ZM2.70342 18.045C2.65676 18.3332 2.88087 18.5773 3.03583 18.7973C3.23828 18.8606 3.19995 18.5182 3.29326 18.404C3.35408 18.5448 3.38824 18.6948 3.42656 18.8439C3.66317 18.7589 3.8073 18.534 3.9156 18.319C3.99142 18.2132 3.95809 18.0391 3.82396 18.0016C3.59152 17.9358 3.34408 17.9725 3.10581 17.9475C2.96835 17.95 2.78256 17.8925 2.70342 18.045ZM1.88946 18.978C1.83781 19.1272 1.70618 19.2905 1.80365 19.4496C2.07025 19.6287 2.39683 19.4463 2.67926 19.3971C2.64093 19.2313 2.5043 19.128 2.3935 19.0114C2.53346 18.9964 2.71008 19.0947 2.82255 18.978C2.73758 18.6815 2.53263 18.4149 2.25103 18.2824C2.02859 18.4515 2.0036 18.7423 1.88946 18.978ZM3.71649 19.1022C3.87145 19.1088 4.02724 19.1113 4.1822 19.1172C4.07639 19.2355 3.78064 19.2771 3.86062 19.4762C4.05807 19.5854 4.27384 19.6695 4.49962 19.6904C4.63458 19.6912 4.76205 19.5729 4.71706 19.4338C4.64208 19.1513 4.5721 18.8672 4.49545 18.5848C4.46879 18.4632 4.28134 18.4082 4.18553 18.4873C3.97309 18.6356 3.77481 18.8406 3.71649 19.1022ZM3.04166 19.0405C2.7809 19.1713 2.80922 19.5754 3.06249 19.6987C3.31159 19.8545 3.66067 19.622 3.63318 19.3355C3.62984 19.0555 3.26827 18.8781 3.04166 19.0405ZM1.94945 20.0878C2.1369 20.3077 2.39683 20.4518 2.59844 20.6593C2.69175 20.7709 2.91753 20.8026 2.98668 20.6493C3.10248 20.4018 3.11914 20.0961 3.01584 19.8412C2.88337 19.9336 2.75174 20.0278 2.61511 20.1136C2.67259 19.9553 2.73591 19.7995 2.79006 19.6404C2.4943 19.662 1.94278 19.6987 1.94945 20.0878ZM3.66233 19.7112C3.68983 19.8686 3.72399 20.0244 3.75564 20.1811C3.62651 20.0769 3.49821 19.9703 3.34658 19.8995C3.30659 20.1952 3.18746 20.5885 3.45322 20.8126C3.65984 20.8367 3.80396 20.6476 3.97309 20.5601C4.13554 20.4302 4.38631 20.3827 4.46546 20.1719C4.36132 19.8537 3.96559 19.7303 3.66233 19.7112Z" fill="#FFF3F9"></path>
  <path d="M28.2484 17.8409C28.4001 17.76 28.5775 17.7959 28.7425 17.7859C28.9633 17.7875 29.1832 17.7251 29.4048 17.75C29.5898 17.7825 29.6472 17.9858 29.7106 18.1349C29.9055 18.1333 30.1563 18.1175 30.2537 18.3291C30.3679 18.6132 30.4687 18.9022 30.5945 19.1813C30.6945 19.3946 30.5228 19.5854 30.3637 19.7045C30.4079 19.9045 30.5028 20.1669 30.3079 20.3194C30.0738 20.5018 29.8455 20.6926 29.6206 20.8859C29.4315 21.0359 29.199 20.9167 29.0249 20.8084C28.9316 20.8784 28.8458 20.9634 28.735 21.0042C28.5075 21.0434 28.3351 20.8651 28.161 20.7534C27.9985 20.636 27.8085 20.5618 27.6536 20.4335C27.507 20.2986 27.5669 20.0861 27.5786 19.9137C27.432 19.7937 27.2429 19.6529 27.2795 19.4371C27.3562 19.1297 27.4461 18.8256 27.5145 18.5165C27.5694 18.2832 27.8427 18.2732 28.0335 18.2274C28.0843 18.0908 28.0985 17.9092 28.2484 17.8409ZM28.6642 17.9675C28.5225 17.9767 28.3234 17.9508 28.2534 18.11C28.2384 18.4382 28.5075 18.6898 28.75 18.8706C28.7991 18.7156 28.8383 18.5573 28.8816 18.4007C28.9391 18.5348 28.9866 18.6731 29.0457 18.8064C29.2099 18.8331 29.259 18.6248 29.3457 18.524C29.4473 18.3607 29.5981 18.0825 29.379 17.9475C29.1407 17.9292 28.9024 17.9708 28.6642 17.9675ZM29.7822 18.3649C29.5764 18.5323 29.4273 18.7681 29.3615 19.0264C29.5239 19.0264 29.6864 19.0172 29.8489 19.0147C29.7422 19.1372 29.5006 19.1963 29.5223 19.3896C29.8155 19.4729 30.2496 19.677 30.4537 19.3405C30.3246 19.058 30.2196 18.7665 30.108 18.4774C30.0763 18.3332 29.8963 18.2724 29.7822 18.3649ZM27.6686 18.6873C27.6311 19.0147 27.417 19.3255 27.5045 19.6587C27.8294 19.7379 28.1401 19.5829 28.4092 19.4163C28.2793 19.3063 28.1376 19.213 27.9952 19.1205C28.1635 19.1147 28.3326 19.1105 28.5009 19.0972C28.4001 18.8456 28.2251 18.614 27.9868 18.4807C27.8344 18.3841 27.6719 18.5298 27.6686 18.6873ZM28.775 19.0197C28.53 19.1222 28.48 19.4854 28.6933 19.6496C28.9033 19.8603 29.3082 19.7095 29.3232 19.4113C29.3831 19.1155 29.0324 18.8798 28.775 19.0197ZM28.3026 19.7345C28.0618 19.8253 27.7344 19.9311 27.7319 20.2427C27.9993 20.4269 28.2751 20.5985 28.5459 20.7784C28.6617 20.8676 28.8141 20.7909 28.8616 20.6635C28.9224 20.411 28.8841 20.1486 28.8416 19.8962C28.6908 19.9778 28.5575 20.0853 28.4201 20.1861C28.46 20.0353 28.5075 19.887 28.5534 19.7387C28.4709 19.722 28.3834 19.6945 28.3026 19.7345ZM29.404 19.6437C29.454 19.8003 29.5139 19.9536 29.5681 20.1094C29.4148 20.0478 29.2832 19.8462 29.1032 19.9303C29.0982 20.1653 29.1007 20.4119 29.1957 20.6318C29.2482 20.7901 29.4864 20.7859 29.5806 20.6701C29.7555 20.5118 29.9405 20.366 30.1246 20.2194C30.2496 20.1469 30.3004 19.9212 30.1479 19.8503C29.933 19.6954 29.6631 19.6529 29.404 19.6437Z" fill="#FFF2F4"></path>
  <path d="M2.70345 18.0449C2.78259 17.8925 2.96838 17.9499 3.10584 17.9474C3.34411 17.9724 3.59155 17.9358 3.82399 18.0016C3.95812 18.0391 3.99144 18.2132 3.91563 18.319C3.80733 18.534 3.6632 18.7589 3.42659 18.8439C3.38827 18.6947 3.35411 18.5448 3.29329 18.404C3.19998 18.5181 3.23831 18.8605 3.03586 18.7972C2.8809 18.5773 2.65679 18.3332 2.70345 18.0449ZM1.88949 18.978C2.00363 18.7422 2.02862 18.4515 2.25106 18.2824C2.53266 18.4148 2.7376 18.6814 2.82258 18.978C2.71011 19.0946 2.53349 18.9963 2.39353 19.0113C2.50433 19.128 2.64096 19.2313 2.67929 19.3971C2.39686 19.4462 2.07028 19.6287 1.80368 19.4495C1.7062 19.2904 1.83784 19.1271 1.88949 18.978ZM29.7822 18.3648C29.8964 18.2724 30.0763 18.3332 30.108 18.4773C30.2196 18.7664 30.3246 19.058 30.4537 19.3404C30.2496 19.677 29.8156 19.4729 29.5223 19.3896C29.5006 19.1963 29.7423 19.1371 29.8489 19.0147C29.6864 19.0172 29.524 19.0255 29.3615 19.0263C29.4273 18.7681 29.5765 18.5323 29.7822 18.3648ZM3.71652 19.1021C3.77483 18.8405 3.97312 18.6356 4.18556 18.4873C4.28137 18.4082 4.46882 18.4631 4.49548 18.5848C4.57213 18.8672 4.64211 19.1513 4.71709 19.4337C4.76208 19.5729 4.63461 19.6912 4.49965 19.6903C4.27387 19.6695 4.05809 19.5853 3.86065 19.4762C3.78067 19.2771 4.07642 19.2354 4.18223 19.1171C4.02727 19.1113 3.87148 19.1088 3.71652 19.1021ZM27.6686 18.6872C27.672 18.5298 27.8344 18.384 27.9869 18.4806C28.2251 18.6139 28.4001 18.8455 28.5009 19.0971C28.3326 19.1105 28.1635 19.1146 27.9952 19.1205C28.1377 19.2129 28.2793 19.3063 28.4093 19.4162C28.1402 19.5828 27.8294 19.7378 27.5045 19.6587C27.417 19.3254 27.6311 19.0147 27.6686 18.6872ZM28.775 19.0197C29.0324 18.8797 29.3832 19.1155 29.3232 19.4112C29.3082 19.7095 28.9033 19.8603 28.6934 19.6495C28.4801 19.4854 28.5301 19.1221 28.775 19.0197ZM28.3026 19.7345C28.3834 19.6945 28.4709 19.722 28.5534 19.7386C28.5076 19.8869 28.4601 20.0352 28.4201 20.186C28.5576 20.0852 28.6909 19.9777 28.8417 19.8961C28.8841 20.1485 28.9225 20.411 28.8616 20.6634C28.8142 20.7909 28.6617 20.8675 28.5459 20.7784C28.2751 20.5984 27.9994 20.4268 27.7319 20.2427C27.7344 19.9311 28.0619 19.8253 28.3026 19.7345Z" fill="#F20B13"></path>
  <path d="M28.6642 17.9675C28.9024 17.9709 29.1407 17.9292 29.379 17.9476C29.5981 18.0825 29.4473 18.3608 29.3457 18.5241C29.259 18.6249 29.2099 18.8332 29.0457 18.8065C28.9866 18.6732 28.9391 18.5349 28.8816 18.4008C28.8383 18.5574 28.7991 18.7157 28.75 18.8706C28.5075 18.6899 28.2384 18.4383 28.2534 18.11C28.3234 17.9509 28.5225 17.9767 28.6642 17.9675Z" fill="#F30B12"></path>
  <path d="M11.4887 18.249C11.5736 18.3373 11.6578 18.4265 11.7419 18.5156L11.7453 18.5873C11.7686 19.1671 11.7311 19.7478 11.7569 20.3277C11.7544 20.4759 11.9194 20.5351 12.0069 20.6292C12.0052 20.8367 11.9852 21.0441 11.9452 21.2482C11.9002 21.4657 11.9769 21.689 11.9352 21.9072C11.8586 22.1297 11.6086 22.1922 11.4195 22.2838C11.1721 22.2063 10.9696 22.0505 10.8522 21.8164C11.0346 21.8623 11.2162 21.9364 11.4062 21.9297C11.6545 21.8631 11.7278 21.4765 11.5203 21.3249C11.302 21.2124 11.0479 21.2108 10.8088 21.1849C10.8122 21.1266 10.8172 21.0116 10.8197 20.9542C10.998 20.9292 11.1829 20.9233 11.3529 20.8583C11.4912 20.7967 11.4645 20.6276 11.4803 20.5051C11.4878 19.7536 11.452 19.0005 11.4887 18.249Z" fill="#043083"></path>
  <path d="M19.0392 18.7939C19.2225 18.8956 19.3983 19.0081 19.574 19.1205C19.5357 19.4663 19.7115 19.7762 19.8306 20.0878C19.3899 19.7987 19.1233 19.3071 19.0392 18.7939Z" fill="#CFD3DE"></path>
  <path d="M20.8845 20.735C21.1661 20.7275 21.4477 20.7101 21.7285 20.6851C21.0528 21.3874 20.7854 22.3838 20.8429 23.341C20.8429 23.6168 20.9229 23.9009 20.8487 24.1725C20.7388 24.3699 20.4688 24.3549 20.2797 24.4341C20.2139 24.5449 20.1472 24.6549 20.0806 24.7648C19.9098 24.6299 19.7423 24.4916 19.5749 24.3533C19.6682 24.215 19.7282 24.01 19.924 23.9925C20.1397 23.9517 20.4138 23.8676 20.3813 23.5918C20.3205 22.6237 20.288 21.5615 20.8845 20.735Z" fill="#D2D3D6"></path>
  <path d="M10.8088 21.1849C11.0479 21.2108 11.302 21.2124 11.5203 21.3249C11.7278 21.4765 11.6545 21.8631 11.4062 21.9297C11.2162 21.9364 11.0346 21.8623 10.8522 21.8164C10.8422 21.619 10.9305 21.4415 11.0379 21.2824C10.9613 21.2499 10.8847 21.2174 10.8088 21.1849Z" fill="#586DB3"></path>
  <path d="M18.4327 21.2224C18.5651 21.2682 18.6993 21.3099 18.8326 21.3524C18.8592 21.4574 18.8859 21.5623 18.9092 21.669C18.7276 21.5465 18.5402 21.4199 18.4327 21.2224Z" fill="#C8CDE1"></path>
  <path d="M13.5081 23.6968C13.6789 23.6909 13.8497 23.6951 14.0213 23.6984C14.0705 23.9009 14.1213 24.1042 14.173 24.3066C14.083 24.2541 13.998 24.1941 13.9189 24.1275C13.7981 23.9692 13.6756 23.8084 13.5081 23.6968Z" fill="#586EAF"></path>
  <path d="M17.9878 23.8967C18.1461 23.8717 18.3069 23.8592 18.4668 23.8475C18.476 24.0516 18.486 24.2558 18.4977 24.4607C18.4743 24.4191 18.4285 24.3366 18.406 24.2949C18.341 24.1766 18.2777 24.0566 18.2152 23.9375C18.1586 23.9275 18.0444 23.9067 17.9878 23.8967Z" fill="#4C68A4"></path>
  <path d="M19.1483 23.9093C19.2058 23.9151 19.3199 23.9268 19.3774 23.9326C19.4116 24.0393 19.4457 24.1467 19.4841 24.2525C19.3733 24.1367 19.2591 24.0243 19.1483 23.9093Z" fill="#5A72AE"></path>
  <path d="M25.0618 24.4332C25.0926 24.2599 25.5025 24.2591 25.5225 24.4424C25.3684 24.4407 25.2151 24.4449 25.0618 24.4332Z" fill="#2A3A46"></path>
  <path d="M25.0535 24.5591C25.2034 24.4249 25.44 24.4591 25.5925 24.5732C25.7275 24.6907 25.7949 24.8631 25.9149 24.9948C26.0749 25.1214 26.3465 25.1797 26.3673 25.4197C26.4464 25.9379 25.8974 26.2211 25.5917 26.5469C25.1634 26.1287 24.7194 25.7221 24.3278 25.268C24.5661 25.0281 24.7869 24.7682 25.0535 24.5591ZM24.8119 25.0931C24.9343 25.2464 25.0751 25.3838 25.2351 25.498C25.3359 25.3547 25.5033 25.1531 25.3459 24.9873C25.1818 24.7915 24.9601 24.9848 24.8119 25.0931ZM25.5767 25.4605C25.5417 25.4988 25.4717 25.5763 25.4367 25.6155L25.3759 25.5713C25.4475 25.7571 25.5858 25.9012 25.7416 26.0203C25.8532 25.8887 26.0407 25.7146 25.8974 25.5346C25.8258 25.4163 25.6883 25.4555 25.5767 25.4605ZM5.83345 25.4247C6.14837 25.1447 6.43913 24.8382 6.75404 24.5591C7.03564 24.7832 7.29557 25.0348 7.51635 25.3197C7.45136 25.383 7.38638 25.4472 7.32223 25.5113C7.1731 25.3788 7.02564 25.2447 6.87901 25.1089C6.78904 25.1997 6.69823 25.2905 6.60825 25.3813C6.73322 25.5155 6.85818 25.6496 6.98398 25.7829C6.93566 25.8646 6.88734 25.9454 6.83902 26.027C6.6774 25.8945 6.51911 25.7596 6.35998 25.6246C6.1667 25.8146 5.97008 26.0012 5.79013 26.2036C5.67099 26.0812 5.55186 25.9587 5.43439 25.8354C5.56352 25.6946 5.69349 25.5546 5.83345 25.4247ZM12.6908 28.0873C13.0391 28.1423 13.4123 28.1723 13.7139 28.3722C13.9272 28.5355 13.8697 28.8363 13.808 29.0604C13.7997 29.0862 13.7839 29.1395 13.7756 29.1662C13.6556 29.4445 13.7264 29.861 13.3932 30.0001C13.0249 30.0901 12.6608 29.9068 12.3076 29.8244C12.3809 29.2345 12.5667 28.6672 12.6908 28.0873ZM13.0649 28.4505C13.0499 28.6038 13.0357 28.758 13.0241 28.9129C13.1474 28.8788 13.4048 28.9396 13.3882 28.7405C13.4323 28.5522 13.2174 28.4614 13.0649 28.4505ZM12.9149 29.1479C12.8533 29.3212 12.8183 29.5019 12.8058 29.6861C12.9558 29.6736 13.1582 29.7236 13.2415 29.5569C13.2557 29.4445 13.2224 29.3345 13.2074 29.2253C13.1099 29.1995 13.0124 29.1737 12.9149 29.1479Z" fill="#FFFFF8"></path>
  <path d="M24.8119 25.0932C24.9602 24.9849 25.1818 24.7916 25.3459 24.9874C25.5033 25.1531 25.3359 25.3548 25.2351 25.4981C25.0751 25.3839 24.9343 25.2465 24.8119 25.0932ZM24.9643 25.0923C25.0451 25.189 25.1326 25.2789 25.2276 25.3614C25.2559 25.3139 25.3134 25.2173 25.3417 25.1698C25.3151 25.1207 25.2617 25.0223 25.2359 24.9732C25.1443 25.0115 25.0543 25.0515 24.9643 25.0923Z" fill="#A69A77"></path>
  <path d="M24.9643 25.0923C25.0543 25.0515 25.1443 25.0115 25.2359 24.9731C25.2617 25.0223 25.3151 25.1206 25.3417 25.1698C25.3134 25.2172 25.2559 25.3139 25.2276 25.3614C25.1326 25.2789 25.0451 25.1889 24.9643 25.0923Z" fill="#323B38"></path>
  <path d="M23.9554 25.4772C24.0296 25.4047 24.1045 25.3339 24.1804 25.2639C24.3178 25.4072 24.4536 25.5522 24.5902 25.6963C24.5469 25.9312 24.6544 26.152 24.7202 26.3711C24.4769 26.0637 24.2453 25.743 23.9554 25.4772Z" fill="#143362"></path>
  <path d="M25.5767 25.4605C25.6883 25.4555 25.8258 25.4163 25.8974 25.5346C26.0407 25.7146 25.8533 25.8887 25.7416 26.0203C25.5858 25.9012 25.4475 25.7571 25.3759 25.5713L25.4367 25.6155C25.5467 25.6946 25.6541 25.7762 25.7624 25.8587C25.7924 25.7754 25.8224 25.6913 25.8533 25.6088C25.7616 25.558 25.6691 25.508 25.5767 25.4605Z" fill="#9B916E"></path>
  <path d="M25.4367 25.6154C25.4717 25.5763 25.5417 25.4988 25.5767 25.4604C25.6691 25.5079 25.7616 25.5579 25.8533 25.6087C25.8224 25.6912 25.7924 25.7754 25.7625 25.8587C25.6542 25.7762 25.5467 25.6946 25.4367 25.6154Z" fill="#3B4342"></path>
  <path d="M23.7705 25.8254C23.8463 25.7512 23.9229 25.6771 24.0004 25.6046C24.2753 25.9379 24.5553 26.2711 24.7802 26.6418C24.9935 26.9568 24.7969 27.4275 24.4511 27.5499C24.2204 27.6474 23.9729 27.5533 23.7388 27.5266C23.723 27.4983 23.6922 27.4433 23.6772 27.415C23.4755 27.0551 23.2015 26.7427 22.9673 26.4052C23.0873 26.3111 23.2081 26.2186 23.3298 26.1261C23.6188 26.4461 23.8305 26.8285 24.1295 27.1392C24.2937 27.3283 24.6352 27.0926 24.5269 26.8743C24.312 26.4994 24.0046 26.187 23.7705 25.8254Z" fill="#FFFFF4"></path>
  <path d="M7.4572 25.9095C7.68964 25.7495 7.99956 25.7745 8.26033 25.8312C8.55775 25.9053 8.73687 26.1669 8.86017 26.4285C8.94765 26.8784 8.73604 27.3225 8.38196 27.5966C7.87543 27.8956 7.17228 27.6191 6.95733 27.0792C6.90651 26.6268 7.0723 26.1678 7.4572 25.9095ZM7.95207 26.2036C7.56551 26.3552 7.19644 27.0025 7.62549 27.2941C8.09204 27.3641 8.51776 26.8193 8.38446 26.3744C8.29698 26.2219 8.1187 26.1553 7.95207 26.2036Z" fill="#FFFFF6"></path>
  <path d="M8.0262 26.2844C8.23031 26.2286 8.42526 26.466 8.33862 26.656C8.25031 26.8926 8.06952 27.1117 7.82875 27.2C7.6238 27.2708 7.42385 27.0409 7.50467 26.8501C7.60381 26.616 7.75627 26.3394 8.0262 26.2844Z" fill="#023185"></path>
  <path d="M8.86017 26.4287C8.87266 26.392 8.89932 26.3195 8.91265 26.2837C9.02512 26.4961 9.03096 26.7386 9.03596 26.9735C9.15259 26.9344 9.26839 26.8719 9.3942 26.8719L9.45585 26.8769C9.21674 27.0577 8.95348 27.2443 8.85017 27.54C8.70354 27.8658 8.82434 28.2257 8.99097 28.5173C8.67438 28.3357 8.63356 27.9616 8.6194 27.6333C8.56025 27.6242 8.44194 27.6058 8.38196 27.5967C8.73603 27.3226 8.94764 26.8785 8.86017 26.4287Z" fill="#28334A"></path>
  <path d="M24.8993 26.7135C25.0751 26.7518 25.0735 27.1651 24.8952 27.1984C24.8985 27.0359 24.9002 26.8751 24.8993 26.7135Z" fill="#2F3C42"></path>
  <path d="M21.7535 27.0152C21.8851 26.9527 22.0168 26.8902 22.1484 26.8302C22.3558 27.1643 22.5466 27.5075 22.7399 27.8491C22.7966 27.9191 22.8191 28.0391 22.9165 28.0649C23.1015 27.9916 23.2689 27.8833 23.4431 27.79C23.4905 27.8816 23.5372 27.9749 23.583 28.0682C23.2789 28.2523 22.974 28.4365 22.6558 28.5964C22.3275 28.0874 22.0001 27.5692 21.7535 27.0152ZM11.0838 27.5508C11.4728 27.6633 11.8544 27.8016 12.2301 27.9516C12.2126 28.0416 12.1943 28.1315 12.1768 28.2223C12.0394 28.1948 11.9019 28.1682 11.7644 28.1399C11.592 28.5964 11.4412 29.0621 11.2537 29.5137C11.1138 29.4579 10.9738 29.402 10.8338 29.3462C10.9438 29.0096 11.0604 28.6747 11.1787 28.3406C11.2112 28.2607 11.2437 28.1815 11.2746 28.1024C11.2837 28.0774 11.3004 28.0274 11.3095 28.0024C11.1937 27.9158 11.0729 27.8358 10.9538 27.755C10.9863 27.7033 11.0513 27.6017 11.0838 27.5508Z" fill="#FFFFF7"></path>
  <path d="M9.45586 26.8767C9.8216 26.9109 10.2565 26.935 10.4798 27.2758C10.7622 27.6457 10.6081 28.1339 10.4156 28.5063C10.0582 28.9162 9.36172 28.9012 8.99098 28.5171C8.82436 28.2255 8.70356 27.8656 8.85018 27.5399C8.95349 27.2441 9.21676 27.0575 9.45586 26.8767ZM9.62498 27.3682C9.34922 27.584 9.12261 28.0831 9.4292 28.3563C9.86492 28.5071 10.2073 27.9723 10.1415 27.5857C10.1873 27.3174 9.79161 27.1791 9.62498 27.3682ZM20.8612 27.4282C21.1203 27.3416 21.3728 27.494 21.6127 27.5749C21.5677 27.6557 21.5236 27.7365 21.4794 27.8181C21.2345 27.824 20.9204 27.6932 20.7363 27.9114C20.5138 28.1555 20.6721 28.5188 20.8337 28.7512C20.9645 28.9528 21.227 28.877 21.4269 28.877C21.4469 28.8479 21.4869 28.7887 21.5069 28.7596C21.5744 28.6604 21.6402 28.5613 21.706 28.4613C21.7927 28.468 21.8801 28.4763 21.9668 28.4846C21.9093 28.7654 21.786 29.0528 21.5219 29.1961C21.2061 29.3927 20.8229 29.2853 20.4988 29.1719C20.4372 29.122 20.3797 29.0686 20.3255 29.012C20.2314 28.797 20.1248 28.5754 20.1248 28.3355C20.0781 27.8981 20.453 27.5149 20.8612 27.4282Z" fill="#FFFFF3"></path>
  <path d="M9.62496 27.3683C9.79159 27.1792 10.1873 27.3175 10.1415 27.5858C10.2073 27.9723 9.8649 28.5072 9.42918 28.3564C9.12259 28.0831 9.3492 27.5841 9.62496 27.3683Z" fill="#06317B"></path>
  <path d="M10.6347 27.3809C10.7547 27.4159 10.8763 27.4458 11.0004 27.4683C10.9596 27.5966 10.9188 27.7249 10.8771 27.8532C11.0104 27.9349 11.1429 28.0174 11.2745 28.1023C11.2437 28.1815 11.2112 28.2606 11.1787 28.3406C11.1321 28.4073 11.0863 28.4747 11.0404 28.5431C11.0421 28.3856 11.0513 28.2281 11.0654 28.0715C10.8863 27.9574 10.7372 28.0757 10.6289 28.224C10.713 27.9499 10.7214 27.6558 10.6347 27.3809Z" fill="#374654"></path>
  <path d="M11.1404 27.4651C11.4678 27.4609 11.8627 27.5126 12.0701 27.7966C11.7527 27.7075 11.4486 27.58 11.1404 27.4651Z" fill="#253C58"></path>
  <path d="M11.8486 28.2823C11.971 28.2773 12.0927 28.3006 12.2143 28.3198L12.2643 28.3281C12.0085 28.3914 11.7886 28.5322 11.6236 28.7372C11.6861 28.5814 11.7161 28.3956 11.8486 28.2823Z" fill="#2A3E55"></path>
  <path d="M17.4821 28.4131C17.6245 28.3831 17.767 28.3556 17.9103 28.3281C18.0278 28.8163 18.0469 29.3229 18.1752 29.8094C18.3727 29.7794 18.5693 29.7461 18.7668 29.7128C18.7901 29.8061 18.8142 29.9002 18.8376 29.9944C18.4802 30.0668 18.1211 30.136 17.757 30.166C17.6579 29.5828 17.5662 28.9988 17.4821 28.4131ZM14.9344 28.4014C15.1943 29.0088 15.376 29.6511 15.5426 30.2901C15.3951 30.281 15.2485 30.2685 15.1027 30.2526C15.0544 30.1193 15.0061 29.986 14.9594 29.8527C14.8178 29.8269 14.6761 29.8044 14.5337 29.7852C14.4654 29.9194 14.3954 30.0535 14.3254 30.1876C14.2613 30.186 14.1321 30.1835 14.0671 30.1818C14.2971 29.5628 14.6237 28.983 14.9344 28.4014ZM14.7578 29.3554C14.617 29.3903 14.6612 29.637 14.8094 29.6045C14.9461 29.5728 14.8911 29.3337 14.7578 29.3554Z" fill="#FFFFF5"></path>
  <path d="M16.01 28.4097C16.1949 28.4047 16.379 28.4039 16.564 28.4064C16.624 28.8938 16.624 29.3853 16.629 29.8752C16.8447 29.8768 17.0614 29.8785 17.278 29.8827C17.2863 30.0168 17.2955 30.1518 17.3055 30.2876L17.208 30.2834C17.1888 30.2143 17.1513 30.0751 17.1322 30.006C16.9331 29.991 16.7339 29.9777 16.5348 29.9652C16.5182 29.4769 16.5115 28.9896 16.4907 28.5022C16.3557 28.5039 16.2216 28.5055 16.0883 28.508C16.0883 28.8929 16.1033 29.2778 16.1041 29.6627L16.0283 29.7019C16.0166 29.5311 16.0108 29.3595 16.0083 29.1887C16.0083 28.9288 16.0083 28.6688 16.01 28.4097Z" fill="#C2B388"></path>
  <path d="M12.351 29.1138C12.2926 28.8872 12.3568 28.6681 12.4976 28.4873C12.4576 28.6981 12.4118 28.908 12.351 29.1138Z" fill="#3E4B53"></path>
  <path d="M16.0883 28.508C16.2216 28.5055 16.3557 28.5039 16.4907 28.5022C16.5115 28.9896 16.5182 29.4769 16.5348 29.9652C16.734 29.9776 16.9331 29.991 17.1322 30.006C17.1513 30.0751 17.1888 30.2143 17.208 30.2834C17.0247 30.2817 16.8431 30.2876 16.6606 30.2942C16.4815 30.2651 16.3007 30.2268 16.1183 30.2426C16.1091 30.0493 16.1066 29.856 16.1041 29.6627C16.1041 29.2778 16.0875 28.8929 16.0883 28.508Z" fill="#FFFFF9"></path>
  <path d="M18.0503 28.5022C18.2011 28.5214 18.1686 28.7096 18.1969 28.8171C18.2202 29.0621 18.2427 29.3087 18.291 29.5511C18.481 29.5486 18.6726 29.5478 18.8601 29.5894C18.6576 29.6361 18.4527 29.6711 18.2477 29.7019C18.1436 29.3095 18.0936 28.9054 18.0503 28.5022Z" fill="#293E58"></path>
  <path d="M12.915 29.1479C13.0124 29.1738 13.1099 29.1996 13.2074 29.2254C13.2224 29.3346 13.2557 29.4445 13.2415 29.557C13.1582 29.7236 12.9558 29.6736 12.8058 29.6861C12.8183 29.502 12.8533 29.3212 12.915 29.1479ZM12.9891 29.2421C12.9583 29.3612 12.9283 29.4804 12.9 29.6012C13.0766 29.6387 13.1757 29.5104 13.2024 29.3537C13.1491 29.3262 13.0424 29.2704 12.9891 29.2421Z" fill="#A0936B"></path>
  <path d="M12.9891 29.2419C13.0424 29.2703 13.149 29.3261 13.2024 29.3536C13.1757 29.5102 13.0766 29.6385 12.8999 29.601C12.9283 29.4802 12.9583 29.3611 12.9891 29.2419Z" fill="#363A31"></path>
  <path d="M14.7578 29.3554C14.8911 29.3337 14.9461 29.5728 14.8095 29.6045C14.6612 29.637 14.617 29.3904 14.7578 29.3554Z" fill="#AB955C"></path>
  <path d="M12.1985 29.9118C12.3018 29.8785 12.4017 29.9318 12.4934 29.9751C12.4326 30.0901 12.1843 30.0543 12.1985 29.9118Z" fill="#464B44"></path>
  <path d="M12.8275 30.0701C13.0558 30.0751 13.284 30.0717 13.5123 30.0834C13.3332 30.24 12.9874 30.2642 12.8275 30.0701Z" fill="#3B4544"></path>
  <path d="M17.6546 30.2651C17.992 30.2051 18.3336 30.1826 18.6735 30.1443C18.3711 30.2676 18.0295 30.3934 17.7021 30.3276L17.6546 30.2651Z" fill="#2C3F56"></path>
  <path d="M13.9605 30.2467C14.0913 30.2275 14.2238 30.2225 14.3546 30.2359C14.3546 30.4083 13.9813 30.41 13.9605 30.2467Z" fill="#2F3D49"></path>
  <path d="M16.1183 30.2426C16.3007 30.2268 16.4815 30.2651 16.6606 30.2942C16.4999 30.3459 16.1766 30.48 16.1183 30.2426Z" fill="#B0A789"></path>
</svg>
