<?xml version="1.0" encoding="UTF-8"?>
<svg xmlns="http://www.w3.org/2000/svg" width="24" height="25" viewBox="0 0 24 25" fill="none">
  <ellipse cx="12" cy="12.6289" rx="9.9974" ry="9.9974" fill="white"></ellipse>
  <path d="M10.7803 0.0546716C12.4924 -0.0996633 14.2407 0.0665435 15.869 0.632646C18.054 1.36871 20.006 2.76209 21.4313 4.57225C22.8409 6.34991 23.7238 8.53622 23.9475 10.7938C24.0494 12.0147 24.0119 13.2544 23.7563 14.4553C23.4002 16.1786 22.6572 17.8207 21.5962 19.2253C20.5015 20.6781 19.0757 21.8809 17.4548 22.7063C15.774 23.5642 13.8883 24.0247 12 24.0053C10.018 24.0253 8.03915 23.5154 6.2971 22.5751C4.27513 21.4847 2.57932 19.7995 1.47273 17.7863C0.706677 16.3942 0.223678 14.8471 0.0574709 13.2662C-0.0918653 11.6073 0.0399754 9.90961 0.569213 8.3244C1.2909 6.04999 2.72428 4.01364 4.60317 2.54527C6.37083 1.15126 8.54152 0.282113 10.7803 0.0546716ZM10.3379 0.417077C7.5599 0.810725 4.94433 2.24285 3.12355 4.3773C1.81326 5.90878 0.892879 7.77642 0.515477 9.75903C0.278039 10.8437 0.326776 11.9622 0.353019 13.0644C0.512353 15.0576 1.23029 16.9959 2.36312 18.6405C4.277 21.4547 7.48304 23.3555 10.8772 23.6485C11.4383 23.6792 12.0006 23.671 12.5617 23.6679C13.3721 23.6692 14.1763 23.5317 14.9586 23.3292C16.5757 22.9125 18.0959 22.1352 19.3893 21.0798C21.8224 19.1128 23.4251 16.1286 23.6532 13.0026C23.6651 11.9772 23.7244 10.9381 23.5164 9.92711C23.2046 8.13257 22.4542 6.41677 21.3501 4.9684C20.1822 3.39193 18.5902 2.141 16.8075 1.32997C15.3785 0.695755 13.8189 0.31148 12.2499 0.337723C11.612 0.339598 10.9703 0.322727 10.3379 0.417077ZM4.3751 19.0685C4.54381 18.7692 4.81936 18.553 5.06492 18.3199C5.30673 18.5149 5.5123 18.7486 5.73662 18.9623C5.67039 19.041 5.60228 19.1185 5.53292 19.1947C5.37921 19.1097 5.23987 18.9448 5.04805 18.9798C5.13365 19.1197 5.22863 19.2528 5.3236 19.3871C5.23987 19.4496 5.15427 19.5096 5.0643 19.5627C4.96745 19.489 4.88934 19.364 4.765 19.3415C4.60879 19.4534 4.49444 19.6227 4.30887 19.6914L4.34261 19.6527C4.47757 19.5009 4.62503 19.3609 4.77 19.2184C4.88934 19.3197 5.00806 19.4209 5.12928 19.5202C5.16552 19.459 5.20176 19.3984 5.238 19.3372C5.14365 19.2372 5.04992 19.1366 4.9562 19.036C5.02368 18.9679 5.09179 18.8998 5.15927 18.8317C5.26924 18.9335 5.37984 19.0341 5.49168 19.1335C5.5398 19.0854 5.58853 19.0372 5.63727 18.9898C5.47169 18.7761 5.27674 18.5874 5.06554 18.4193C4.82936 18.6286 4.61129 18.8585 4.3751 19.0685ZM18.7964 18.3249C18.9113 18.3337 19.0263 18.3305 19.1419 18.3318C19.3325 18.3843 19.3812 18.6092 19.5337 18.7142C19.6355 18.7961 19.7698 18.8542 19.8248 18.9804C19.8742 19.1341 19.8723 19.3234 19.7524 19.4453C19.5805 19.6458 19.3849 19.8258 19.1863 19.9995C18.9294 19.7664 18.6933 19.5121 18.4427 19.2722C18.3402 19.1641 18.2384 19.0554 18.1353 18.9479C18.359 18.7442 18.557 18.5124 18.7964 18.3249ZM18.7901 18.4193C18.5902 18.5761 18.4246 18.7711 18.2459 18.951C18.5395 19.2915 18.8726 19.5965 19.1937 19.9101C19.4231 19.6658 19.8348 19.4534 19.7755 19.0647C19.7599 18.8848 19.5562 18.841 19.4362 18.7461C19.3462 18.6473 19.2956 18.518 19.1944 18.4299C19.08 18.3443 18.9026 18.3187 18.7901 18.4193ZM5.68663 19.2816C5.87533 19.2703 6.06466 19.2709 6.25399 19.2816C6.06529 19.304 5.87471 19.3047 5.68663 19.2816ZM5.96406 19.6527C6.08903 19.6165 6.22274 19.6664 6.28835 19.7808C6.38833 20.1145 6.06903 20.5231 5.71913 20.4706C5.39733 20.2519 5.67414 19.7664 5.96406 19.6527ZM6.01967 19.7133C5.81722 19.7546 5.70288 19.962 5.62852 20.1376C5.56791 20.2807 5.71788 20.4531 5.87159 20.4C6.05216 20.3338 6.18775 20.1694 6.25399 19.992C6.31897 19.8495 6.17276 19.6714 6.01967 19.7133ZM16.2895 20.3956C16.1752 20.1769 16.4876 20.1151 16.6194 20.0207C16.8237 20.3007 16.9531 20.6275 17.1612 20.9036C17.3211 20.9605 17.4648 20.8093 17.6104 20.7593C17.6604 20.8605 17.7841 20.9774 17.7216 21.0967C17.4848 21.2767 17.2143 21.4066 16.9518 21.5453C16.7431 21.1548 16.4944 20.7874 16.2895 20.3956ZM16.3151 20.2613C16.5001 20.6768 16.7456 21.0655 16.9918 21.4472C17.2305 21.3273 17.4592 21.1892 17.6873 21.0511C17.6529 20.9811 17.6179 20.9111 17.5823 20.8424C17.4517 20.9124 17.3261 20.9936 17.1874 21.0486C17.1143 21.0292 17.0974 20.9392 17.0549 20.8868C16.91 20.6306 16.7669 20.3731 16.6113 20.1226C16.5126 20.1676 16.4138 20.2144 16.3151 20.2613ZM7.04566 20.1538C7.39306 20.0851 7.83795 20.1657 7.97604 20.5356C8.04102 20.7418 8.03477 20.9624 7.97166 21.1679C7.95042 21.2573 7.86857 21.3129 7.81171 21.3798C7.95604 21.1005 8.07164 20.7343 7.85982 20.4569C7.69236 20.2013 7.3662 20.1832 7.09189 20.1576L7.04566 20.1538ZM8.25034 20.6012C8.27659 20.6012 8.32907 20.5993 8.35531 20.5987C8.5865 20.6849 8.81457 20.7805 9.05263 20.8474C9.11512 20.8674 9.17698 20.888 9.23946 20.9086C9.23446 21.0236 9.21822 21.1379 9.16073 21.2398C9.0695 21.2254 8.97828 21.2079 8.88643 21.2117C8.78708 21.2967 8.76458 21.436 8.71772 21.5528C8.65399 21.7684 8.58213 21.9815 8.48278 22.1839C8.35282 22.1483 8.16162 22.1614 8.08601 22.0396C8.08788 21.8184 8.17911 21.6009 8.28033 21.4072C8.3147 21.356 8.34907 21.3054 8.38406 21.2554C8.29533 21.506 8.20785 21.7572 8.12538 22.0096C8.23035 22.0515 8.33532 22.0933 8.44029 22.1352C8.58088 21.7965 8.69398 21.4472 8.82332 21.1048C8.92642 21.1261 9.02951 21.1461 9.13261 21.1667C9.14573 21.0986 9.15948 21.0311 9.1726 20.9636C8.8908 20.8511 8.60463 20.7474 8.31283 20.6631C8.28846 20.7012 8.23972 20.7774 8.21535 20.8162C8.3047 20.8768 8.3953 20.9367 8.48216 21.0017C8.47528 21.0205 8.46279 21.058 8.45591 21.0767C8.35719 21.013 8.25784 20.9511 8.15787 20.8899C8.18911 20.7937 8.21973 20.6974 8.25034 20.6012ZM5.68913 20.8405C5.85034 20.8293 6.0128 20.8243 6.17338 20.843C6.01467 20.8805 5.84909 20.8568 5.68913 20.8405ZM16.2083 21.2648C16.3207 21.2773 16.4326 21.291 16.5444 21.3073C16.5069 21.5941 16.3657 21.9059 16.0689 21.9996C15.839 22.0615 15.5478 22.069 15.3741 21.879C15.6172 21.964 15.9046 22.0446 16.1414 21.8971C16.3395 21.7896 16.432 21.5741 16.4751 21.3635C16.4101 21.3573 16.3445 21.351 16.2795 21.346C16.2301 21.421 16.1808 21.4953 16.1302 21.5697C16.1539 21.4672 16.1802 21.366 16.2083 21.2648Z" fill="#BB8A1A"></path>
  <path d="M10.3379 0.417166C10.9703 0.322815 11.612 0.339686 12.2499 0.337811C13.8189 0.311568 15.3785 0.695843 16.8075 1.33005C18.5902 2.14109 20.1823 3.39202 21.3501 4.96848C22.4542 6.41686 23.2046 8.13266 23.5164 9.92719C23.7245 10.9382 23.6651 11.9773 23.6532 13.0026C23.4252 16.1287 21.8225 19.1129 19.3893 21.0799C18.0959 22.1353 16.5757 22.9126 14.9586 23.3293C14.1763 23.5318 13.3721 23.6693 12.5617 23.668C12.0006 23.6711 11.4383 23.6792 10.8772 23.6486C7.48305 23.3556 4.27701 21.4548 2.36313 18.6406C1.2303 16.996 0.512362 15.0577 0.353028 13.0645C0.326785 11.9623 0.278048 10.8438 0.515486 9.75911C0.892888 7.7765 1.81327 5.90886 3.12356 4.37739C4.94434 2.24294 7.55991 0.810814 10.3379 0.417166ZM11.4601 0.840806C11.4601 1.66059 11.4583 2.47975 11.4601 3.29954C12.0112 3.33141 12.5655 3.34141 13.1166 3.30142C13.1616 3.08272 13.1578 2.85778 13.1178 2.63846C12.8798 2.61347 12.6405 2.60535 12.4018 2.6016C12.3493 2.0155 12.4236 1.42565 12.3605 0.840181C12.06 0.832683 11.7594 0.832683 11.4595 0.840181M9.13262 1.1701C9.117 1.3288 9.137 1.48751 9.17261 1.64185C9.3082 2.28543 9.41005 2.93651 9.57063 3.5751C10.0874 3.50636 10.6041 3.40951 11.1065 3.26955C11.084 3.08835 11.0459 2.91027 10.999 2.73406C10.924 2.73969 10.8491 2.75031 10.7753 2.76531C10.6022 2.76031 10.4298 2.75656 10.2567 2.74594C10.2673 2.68408 10.2773 2.62222 10.2879 2.56098C10.3804 2.52599 10.4791 2.49475 10.5485 2.4204C10.656 2.39978 10.7634 2.3829 10.8715 2.36603C10.8759 2.16484 10.8422 1.96489 10.7597 1.78056C10.6579 1.80118 10.556 1.82305 10.4542 1.84492C10.3067 1.8368 10.1555 1.82805 10.0218 1.75994C10.1336 1.68809 10.2586 1.63685 10.3611 1.55062C10.4835 1.52813 10.606 1.49938 10.7235 1.45627C10.666 1.28507 10.6966 1.04575 10.5579 0.923284C10.0799 0.984518 9.61375 1.12261 9.13262 1.1701ZM14.0738 1.26507C13.7308 1.41816 13.6265 1.85929 13.7495 2.18983C13.8589 2.43289 14.0951 2.57536 14.28 2.75468C14.2388 2.87653 14.1594 2.97775 14.0582 3.05586C13.9907 2.92776 13.9251 2.79842 13.8626 2.66721C13.6871 2.6922 13.5171 2.74594 13.3578 2.82217C13.4015 2.97775 13.4478 3.13833 13.5527 3.26518C13.8039 3.59447 14.2857 3.68257 14.6624 3.54698C14.9786 3.43451 15.1817 3.0871 15.1379 2.75718C15.1004 2.56848 14.9948 2.39415 14.8518 2.26669C15.018 2.22295 15.1823 2.16796 15.3348 2.08736C15.4635 1.4294 14.6193 0.957025 14.0738 1.26507ZM7.43869 1.83055C7.5018 2.04674 7.61364 2.24294 7.71549 2.44226C7.673 2.51475 7.668 2.62284 7.58802 2.66533C7.51304 2.67408 7.43744 2.66783 7.36246 2.66471C7.25623 2.45101 7.16813 2.22857 7.05566 2.018C6.8076 2.1136 6.55142 2.20358 6.34085 2.37166C6.5383 2.80967 6.74762 3.24206 6.95569 3.67507C7.09378 3.96062 7.20562 4.25992 7.3787 4.52735C7.62864 4.45424 7.86233 4.33552 8.08227 4.19868C8.00354 3.98311 7.89357 3.78254 7.7911 3.57884C7.80109 3.49887 7.81172 3.41951 7.82296 3.33953C7.90919 3.30079 7.99604 3.2608 8.08102 3.21956C8.20974 3.48074 8.31783 3.75255 8.4553 4.00998C8.71461 3.95187 8.94642 3.81691 9.17511 3.68757C8.86394 2.95026 8.49091 2.24107 8.1585 1.51313C7.89669 1.56249 7.66863 1.70433 7.43869 1.83055ZM16.1883 2.06861C15.8984 2.67845 15.5653 3.26767 15.2879 3.88314C15.7328 4.15807 16.2077 4.38426 16.685 4.59483C16.7875 4.43487 16.8731 4.26429 16.9237 4.08121C16.7538 3.99186 16.5801 3.90938 16.4095 3.82253C16.4132 3.72381 16.4195 3.62571 16.427 3.52761C16.5632 3.55635 16.7 3.58509 16.8369 3.61134C16.9131 3.65133 16.9893 3.69069 17.0668 3.72943C17.1843 3.57135 17.2761 3.39452 17.3205 3.20144C17.1655 3.11334 17.0075 3.03086 16.8481 2.95026C16.8412 2.88465 16.835 2.81842 16.8294 2.75218C16.9531 2.7678 17.0768 2.7828 17.2012 2.79842C17.2949 2.84716 17.3892 2.8934 17.4855 2.93776C17.5929 2.77343 17.6923 2.6016 17.7404 2.40915C17.3036 2.18983 16.8744 1.95427 16.4301 1.75244C16.297 1.79243 16.2583 1.96114 16.1883 2.06861ZM5.07055 3.26892C4.47196 3.47325 4.08268 4.18306 4.28513 4.79353C4.40885 5.14656 4.65316 5.46398 4.97745 5.65455C5.6479 6.02008 6.65014 5.64393 6.79261 4.85851L6.86196 4.87163C6.87633 4.66044 6.98381 4.34427 6.79198 4.19993C6.78011 4.17119 6.75636 4.11246 6.74387 4.08371C6.56142 4.10433 6.37959 4.13807 6.20526 4.19681C6.24462 4.49798 6.249 4.87538 5.92533 5.02409C5.85285 4.95224 5.70664 4.95849 5.63666 5.03097C5.40359 4.93912 5.20052 4.77291 5.08305 4.54984C4.96496 4.35302 4.97745 4.07122 5.1599 3.91563C5.36423 3.91626 5.56917 3.89814 5.76662 3.84378C5.78537 3.84627 5.82348 3.8519 5.84223 3.8544C5.88097 3.65008 5.92221 3.44388 5.90971 3.23518C5.63166 3.20707 5.34173 3.1802 5.07055 3.26892ZM18.6683 3.80066C18.1065 4.10746 17.5223 4.37301 16.97 4.69668C17.0881 4.82914 17.1974 4.9966 17.3742 5.05284C17.483 5.02597 17.5798 4.96786 17.6804 4.921C17.786 4.94162 17.9128 4.92912 17.9959 5.00972C18.1022 5.10282 18.0622 5.25841 18.0716 5.38275C18.0528 5.46773 17.9578 5.5702 18.0359 5.65081C18.1934 5.83826 18.379 6.00446 18.5914 6.12818C18.7764 5.57145 18.9632 5.01597 19.14 4.45674C19.2462 4.11121 19.3943 3.77692 19.4587 3.41889C19.1775 3.50636 18.9276 3.66445 18.6683 3.80066ZM11.7676 3.64258C10.3979 3.66445 9.03952 4.05372 7.85046 4.73167C6.11716 5.71829 4.75626 7.34349 4.10018 9.22863C3.66967 10.4321 3.54782 11.7342 3.68841 13.0014C3.89648 14.7734 4.69065 16.4749 5.92783 17.762C7.22062 19.1492 9.01015 20.0539 10.8878 20.2995C12.3355 20.4832 13.8345 20.3101 15.1854 19.749C16.8969 19.0486 18.3559 17.7583 19.2737 16.1543C20.4147 14.1823 20.6752 11.7355 20.0092 9.56104C19.4443 7.66528 18.164 6.00321 16.4988 4.94162C15.1011 4.04435 13.4278 3.58384 11.7676 3.64258ZM2.08508 8.33636C1.56521 8.48445 1.20031 9.03118 1.25967 9.56791C1.29841 10.0028 1.6027 10.3983 2.01135 10.5508C2.45061 10.7226 2.98672 10.5901 3.29726 10.2359C3.66467 9.84284 3.68904 9.19051 3.36787 8.7625C3.08794 8.3676 2.54496 8.19639 2.08508 8.33636ZM21.2676 8.33511C20.7652 8.4757 20.3866 8.98057 20.4334 9.5073C20.4284 10.1684 21.0908 10.7176 21.7387 10.6164C22.3392 10.562 22.8266 9.98156 22.7616 9.37859C22.7491 8.65315 21.9512 8.10954 21.2676 8.33511ZM1.85701 13.605C1.70893 13.5987 1.51085 13.5906 1.44524 13.7568C1.36776 13.9705 1.28716 14.183 1.19406 14.391C1.12158 14.5491 1.25779 14.6816 1.36339 14.7803C1.34402 14.8909 1.30403 15.0028 1.32653 15.1165C1.36589 15.2352 1.48586 15.2927 1.57646 15.3677C1.71268 15.4614 1.8214 15.5895 1.95824 15.6826C2.09508 15.7569 2.24066 15.672 2.37313 15.6307C2.49247 15.7069 2.64243 15.8107 2.78427 15.7207C2.97485 15.5976 3.16417 15.4726 3.361 15.3589C3.51596 15.2646 3.47159 15.0646 3.45972 14.914C3.57657 14.8384 3.72215 14.7322 3.68466 14.571C3.62343 14.341 3.5572 14.113 3.50596 13.8812C3.46222 13.7218 3.27414 13.7043 3.14043 13.6706C3.08669 13.5356 3.02796 13.3551 2.85363 13.3482C2.61057 13.3444 2.36938 13.3151 2.12694 13.3063C1.96636 13.3076 1.9145 13.4863 1.85701 13.605ZM21.1864 13.3807C21.0739 13.4319 21.0633 13.5681 21.0252 13.6706C20.8821 13.705 20.6771 13.7125 20.6359 13.8874C20.5846 14.1192 20.5172 14.3473 20.4597 14.5779C20.4322 14.7397 20.574 14.8453 20.684 14.9353C20.6753 15.0646 20.6303 15.2239 20.7402 15.3252C20.8565 15.4214 20.9989 15.477 21.1208 15.5651C21.2514 15.6488 21.3807 15.7825 21.5513 15.7532C21.6344 15.7226 21.6987 15.6588 21.7687 15.6063C21.8993 15.6876 22.0736 15.7769 22.2155 15.6645C22.3842 15.5195 22.5554 15.3764 22.731 15.2396C22.8772 15.1252 22.8059 14.9284 22.7728 14.7784C22.8922 14.6891 23.0209 14.546 22.9459 14.386C22.8516 14.1767 22.776 13.9599 22.6904 13.7468C22.6172 13.5881 22.4292 13.6 22.283 13.6012C22.2355 13.4894 22.1924 13.3369 22.0536 13.3126C21.8874 13.2938 21.7225 13.3407 21.5569 13.3394C21.4332 13.3469 21.3001 13.3201 21.1864 13.3807ZM18.7964 18.325C18.557 18.5125 18.359 18.7443 18.1353 18.948C18.0784 19.0005 18.0222 19.0536 17.9666 19.1079C17.8928 19.1823 17.8172 19.2548 17.7416 19.3273C17.8722 19.6809 18.2965 19.8952 18.2896 20.2958C18.2503 20.2908 18.1709 20.2814 18.1309 20.277C17.9047 20.0446 17.7398 19.7603 17.5367 19.5085C17.3836 19.5628 17.2593 19.669 17.1362 19.7715C17.3211 20.0502 17.5042 20.3395 17.7579 20.5613C17.7691 20.5826 17.7922 20.6238 17.8041 20.645C18.0803 20.845 18.5727 20.7613 18.6714 20.3988C18.8051 20.3739 18.8064 20.0639 18.6745 20.0352C18.6545 19.9383 18.5983 19.8552 18.5402 19.7784C18.4908 19.6141 18.4102 19.4485 18.4427 19.2723C18.6933 19.5122 18.9295 19.7665 19.1863 19.9996C19.385 19.8259 19.5805 19.6459 19.7524 19.4453C19.8723 19.3235 19.8742 19.1342 19.8248 18.9805C19.7699 18.8543 19.6355 18.7961 19.5337 18.7143C19.3812 18.6093 19.3325 18.3844 19.1419 18.3319C19.1269 18.1944 18.8195 18.195 18.7964 18.325ZM4.37511 19.0686C4.27014 19.166 4.17266 19.271 4.07581 19.3766C4.16391 19.4691 4.25326 19.5609 4.34262 19.6528L4.30888 19.6915C4.49445 19.6228 4.6088 19.4535 4.76501 19.3416C4.88935 19.3641 4.96745 19.4891 5.0643 19.5628L5.03119 19.5822C5.08805 19.6172 5.14491 19.6522 5.20177 19.6872C5.14491 19.9121 5.06118 20.1583 5.1899 20.3757L5.21801 20.3095C5.37922 20.7144 5.90659 20.9218 6.28649 20.6975C6.33148 20.7044 6.4202 20.7181 6.46457 20.725C6.47519 20.9712 6.50581 21.2518 6.74324 21.388C7.0213 21.676 7.54366 21.6873 7.81172 21.3798C7.86858 21.313 7.95043 21.2574 7.97167 21.168C8.0529 21.0568 8.16475 20.9681 8.29909 21.0537C8.28847 21.1711 8.28159 21.2892 8.28034 21.4073C8.17912 21.601 8.08789 21.8185 8.08602 22.0397C8.16162 22.1615 8.35283 22.1484 8.48279 22.184C8.58214 21.9816 8.654 21.7685 8.71773 21.5529C8.84145 21.3992 9.00641 21.2936 9.19823 21.2461L9.16074 21.2399C9.21822 21.138 9.23447 21.0237 9.23947 20.9087C9.17699 20.8881 9.11513 20.8675 9.05264 20.8475C8.89706 20.6344 8.60089 20.5957 8.35532 20.5988C8.32908 20.5994 8.2766 20.6007 8.25035 20.6013C8.15725 20.5844 8.06603 20.5619 7.97605 20.5357C7.83796 20.1658 7.39307 20.0852 7.04566 20.1539C6.95131 20.1539 6.86446 20.2008 6.77698 20.2301C6.77324 20.0539 6.76886 19.8721 6.68451 19.7128C6.67451 19.7396 6.65452 19.794 6.64514 19.8215C6.55267 19.6253 6.41833 19.4291 6.19526 19.3735C5.99969 19.331 5.76725 19.3123 5.59292 19.4322C5.51544 19.4154 5.43733 19.3985 5.35985 19.3816C5.41734 19.3191 5.47482 19.2566 5.53293 19.1948C5.60229 19.1186 5.6704 19.0411 5.73663 18.9623C5.51231 18.7487 5.30674 18.515 5.06493 18.32C4.81937 18.5531 4.54381 18.7693 4.37511 19.0686ZM5.68664 19.2816C5.87472 19.3048 6.06529 19.3041 6.254 19.2816C6.06467 19.271 5.87534 19.2704 5.68664 19.2816ZM16.2895 20.3957C16.4945 20.7875 16.7431 21.1549 16.9518 21.5454C17.2143 21.4067 17.4848 21.2767 17.7216 21.0968C17.7841 20.9774 17.6604 20.8606 17.6104 20.7594C17.4648 20.8094 17.3211 20.9606 17.1612 20.9037C16.9531 20.6275 16.8237 20.3007 16.6194 20.0208C16.4876 20.1152 16.1752 20.177 16.2895 20.3957ZM14.9774 21.1886C14.9699 21.4055 15.0567 21.6373 15.2442 21.7591C15.2848 21.8016 15.3279 21.8416 15.3741 21.8791C15.5478 22.069 15.839 22.0615 16.0689 21.9997C16.3657 21.906 16.507 21.5942 16.5444 21.3074C16.4326 21.2911 16.3208 21.2774 16.2083 21.2649C16.1802 21.3661 16.1539 21.4673 16.1302 21.5698C16.1152 21.5917 16.0852 21.636 16.0702 21.6579C15.9608 21.6248 15.8484 21.601 15.7428 21.5585C15.6153 21.4536 15.5803 21.2817 15.5228 21.1355C15.5828 21.0549 15.6384 20.9693 15.7147 20.9037C15.8521 20.9056 15.9852 20.945 16.1177 20.9781C16.2014 20.8775 16.2676 20.7638 16.2789 20.6313C16.1121 20.5507 15.9384 20.4613 15.7484 20.4757C15.3704 20.5032 15.033 20.8137 14.9774 21.1886ZM5.68914 20.8406C5.8491 20.8569 6.01468 20.8806 6.17339 20.8431C6.01281 20.8244 5.85035 20.8294 5.68914 20.8406ZM9.4238 20.9681L9.47253 20.9806C9.43379 21.1074 9.39818 21.2355 9.37319 21.3655C9.26759 21.5011 9.21947 21.6654 9.26321 21.8354C9.20573 22.0303 9.14637 22.2277 9.14887 22.4339C9.13825 22.5408 9.32445 22.5677 9.37006 22.4814C9.45066 22.5127 9.53502 22.537 9.62062 22.5527C9.74059 22.6983 9.9999 22.6801 10.1342 22.5627C10.3392 22.3921 10.3735 22.124 10.3317 21.8747C10.3379 21.8547 10.3498 21.8147 10.3561 21.7954C10.3798 21.7854 10.4273 21.7654 10.4517 21.7554C10.5504 21.5204 10.4429 21.2111 10.1911 21.1287C9.97053 20.9656 9.68873 20.9406 9.4238 20.9681ZM11.2065 21.1187C11.024 21.4498 10.8715 21.796 10.6953 22.1303C10.6054 22.3084 10.4941 22.4827 10.4704 22.6851C10.486 22.8076 10.7666 22.8063 10.7659 22.677C10.8441 22.5814 10.9209 22.4846 10.999 22.389C11.1921 22.409 11.2327 22.6208 11.3033 22.7657C11.4508 22.7801 11.5982 22.7895 11.7469 22.7957C11.6838 22.4858 11.5682 22.1903 11.4801 21.8872C11.3983 21.6279 11.3439 21.3567 11.2065 21.1187ZM13.0229 21.2168C12.9385 21.3742 13.0185 21.5523 13.0404 21.716C13.1141 22.0216 13.0691 22.3577 13.2366 22.6376L13.2409 22.6989L13.2765 22.7457C13.5221 22.7951 13.7783 22.7008 14.0051 22.6083C14.0707 22.5952 14.1357 22.5795 14.2007 22.562C14.1838 22.4383 14.1657 22.3152 14.1451 22.1921C14.0045 22.1609 13.8608 22.1615 13.7183 22.1634C13.6821 21.9816 13.6652 21.7966 13.6477 21.6129C13.6265 21.5323 13.6508 21.3911 13.5377 21.3767C13.5284 21.3055 13.5196 21.2349 13.5109 21.1637C13.3534 21.0837 13.1672 21.1312 13.0229 21.2168ZM11.9519 21.2593C11.9469 21.4704 11.9219 21.691 12.0063 21.8916C12.0081 22.0197 12.0125 22.1484 12.0212 22.2765C11.9294 22.4408 11.985 22.6376 12.0044 22.8132C12.3399 22.8463 12.6761 22.8014 13.0085 22.7539C13.0166 22.6251 13.0185 22.4971 13.0147 22.369C12.8498 22.3608 12.6854 22.3546 12.5205 22.3502C12.5149 21.9853 12.5455 21.6185 12.493 21.2561C12.3137 21.223 12.1306 21.2236 11.9519 21.2593ZM13.0054 5.53209C13.1353 5.68767 13.1897 5.89887 13.3546 6.02758C13.7289 6.39061 14.2794 6.41498 14.7668 6.48434C14.8686 6.69179 15.0636 6.81925 15.2379 6.96047C15.1148 7.27351 14.8843 7.52344 14.6968 7.79712C14.585 7.72464 14.4762 7.55531 14.3269 7.62654C14.1207 7.72527 14.0076 7.9677 14.0551 8.19077C14.1907 8.20264 14.3269 8.20577 14.4625 8.19702C14.46 8.30012 14.4562 8.40259 14.4575 8.50569C14.4637 8.63253 14.4794 8.75812 14.4944 8.88434C14.2888 8.76437 14.0495 8.56692 13.7995 8.68127C13.5221 8.82248 13.5321 9.19988 13.6071 9.45857C13.6502 9.65289 13.8139 9.78036 13.987 9.85784C14.1744 9.85034 14.3213 9.7335 14.4581 9.61853C14.5 9.72287 14.5412 9.82722 14.5793 9.93344C14.5762 10.1253 14.5712 10.3465 14.4169 10.4852C14.2244 10.6926 13.9245 10.6901 13.6646 10.7051C13.6077 11.0713 13.8833 11.3524 13.927 11.6999C14.0276 12.3178 14.117 12.9558 14.4325 13.5081C14.6031 13.8699 14.9355 14.158 15.3341 14.2323C15.6391 14.2948 15.9965 14.2048 16.1808 13.9393C16.3514 13.6812 16.3495 13.3413 16.257 13.0551C16.0702 12.519 15.5734 12.1754 15.3398 11.6661C15.2029 11.3674 15.2123 10.995 15.4041 10.722C15.6634 10.3396 16.0577 10.0834 16.3882 9.76911C16.5519 9.60978 16.7094 9.41858 16.7413 9.18489C16.7819 8.78312 16.3557 8.40134 15.9596 8.52069C15.7522 8.5713 15.6609 8.78062 15.5672 8.94995C15.5278 9.01556 15.4872 9.08116 15.4466 9.14552C15.4466 8.96057 15.4504 8.77437 15.486 8.59254C15.5447 8.50381 15.6084 8.41884 15.6803 8.33948C16.1508 7.93459 16.9731 8.03394 17.3155 8.56192C17.4436 8.88622 17.4442 9.26987 17.2555 9.57166C16.9468 10.074 16.3982 10.3421 15.9758 10.7314C15.8378 10.8545 15.7465 11.0175 15.6684 11.1825C15.9627 10.9707 16.292 10.772 16.6707 10.797C16.9631 10.8301 17.2124 11.015 17.3792 11.2506C17.5411 11.6186 17.4205 12.046 17.1174 12.2997L17.0706 12.3478C17.1093 12.106 17.1987 11.8186 17.0162 11.6124C16.8075 11.2993 16.3001 11.2812 16.0683 11.5749C15.9477 11.7086 15.9477 11.8986 15.9496 12.0673C16.2383 12.4722 16.6326 12.8277 16.7494 13.3307C16.8775 13.7437 16.7194 14.2473 16.3258 14.4548C15.859 14.7053 15.2923 14.606 14.8205 14.4198C14.7855 14.3998 14.7155 14.3604 14.6806 14.3404C14.5487 14.2561 14.4169 14.1717 14.2794 14.0955C14.3425 14.4804 14.5425 14.849 14.873 15.0659C15.1842 15.2821 15.5803 15.2696 15.9352 15.1933C15.8434 15.3114 15.7459 15.4258 15.6634 15.5514C15.216 16.1712 15.2404 16.9679 15.286 17.6939C15.3104 17.9007 15.1048 17.9639 14.943 17.9945C14.7962 18.0076 14.7512 18.1613 14.6812 18.265L14.6431 18.2232L14.6131 18.1894C14.5843 18.1101 14.5587 18.0295 14.5331 17.9495C14.49 17.9451 14.4044 17.9364 14.3613 17.932C14.1669 17.9189 14.0782 18.0938 14.0039 18.2413C13.9714 18.2675 13.9058 18.3194 13.8733 18.3456C13.8645 18.1919 13.857 18.0388 13.8501 17.8858C13.7302 17.8945 13.6096 17.9039 13.4909 17.9226C13.3846 17.9345 13.2897 17.9851 13.2003 18.0401C13.151 18.1538 13.1135 18.2725 13.0678 18.3887C13.0479 18.3575 13.0085 18.2956 12.9885 18.265C12.9897 17.9689 12.8054 17.5671 13.1085 17.3609C13.4602 17.1334 13.9008 17.2178 14.2963 17.1772C14.4862 16.8591 14.6556 16.5061 14.6456 16.1275C14.6362 15.9138 14.5712 15.6801 14.3969 15.542C14.1969 15.4633 13.9676 15.5064 13.7683 15.4226C13.5915 15.2971 13.5627 15.0502 13.4053 14.909C13.2516 14.8547 13.0847 14.8603 12.9241 14.859C12.5255 14.909 12.0856 15.0959 11.9082 15.4795C11.7994 15.7282 12.015 15.9644 12.2337 16.0531C12.3418 16.1012 12.4536 16.1393 12.5642 16.1812C12.5136 16.2043 12.4618 16.2262 12.4105 16.2481C12.2049 16.3343 11.9775 16.4093 11.8357 16.5917C11.6045 16.8841 11.6076 17.2865 11.4058 17.5946C11.2708 17.787 11.0021 17.7245 10.8091 17.8076C10.6972 17.9176 10.6878 18.0901 10.6297 18.23C10.591 18.0782 10.5529 17.9257 10.516 17.7739C10.3873 17.7714 10.2592 17.7683 10.1311 17.7727C9.97553 17.8626 9.85556 18.0013 9.80932 18.1769C9.79745 18.2094 9.77308 18.2738 9.76121 18.3063C9.74434 18.2794 9.7106 18.2257 9.69373 18.1988C9.69872 18.0532 9.71247 17.9082 9.72684 17.7639C9.56751 17.7658 9.40818 17.7658 9.24947 17.7777C9.21573 17.7989 9.14762 17.8414 9.11325 17.8633C8.97891 17.9239 9.05014 18.2 8.87956 18.1682L8.86957 18.1263C8.85144 17.8758 8.81208 17.6264 8.80021 17.3753C8.78709 17.2415 8.87019 17.1103 8.99453 17.0628C9.46629 16.8835 10.013 17.1634 10.4629 16.9023C10.9397 16.6148 11.0565 16.02 11.1715 15.5182C10.9859 15.3839 10.7053 15.2689 10.7072 14.999C10.6785 14.7859 10.7753 14.5772 10.9403 14.4441C11.502 13.9462 12.2699 13.7999 12.886 13.39C13.0897 13.2588 13.2659 13.0208 13.1909 12.7671C13.1416 12.524 12.9085 12.4047 12.7036 12.3134C12.7217 12.4928 12.7711 12.6746 12.7386 12.8552C12.6011 13.0526 12.3262 13.0395 12.1187 13.1145C12.0744 13.0483 12.0294 12.982 11.9856 12.9158C11.8807 12.7552 11.7932 12.5853 11.702 12.4172C11.3227 12.8864 10.8609 13.3338 10.2523 13.4713C10.1274 13.3769 10.013 13.2563 9.85993 13.2088C9.44129 13.1476 8.9483 13.4407 8.95829 13.9018C8.9208 13.9118 8.84645 13.9305 8.80896 13.9405L8.80646 13.8868C8.79833 13.7362 8.78584 13.5862 8.77272 13.4363C8.62151 13.4819 8.47467 13.5419 8.33158 13.6087C8.3497 13.4638 8.37282 13.3194 8.39781 13.1757C8.31409 13.1951 8.23036 13.2151 8.14788 13.2395C8.10352 13.2632 8.01541 13.3107 7.97167 13.3344C8.00479 13.1657 8.07477 13.0083 8.16163 12.8608C8.04103 12.8721 7.92044 12.8802 7.80359 12.9127L7.72299 12.9414C7.75985 12.694 7.98979 12.5353 8.21099 12.4609C8.65587 12.3547 9.14699 12.4859 9.56501 12.261C9.9018 12.0798 10.2242 11.8717 10.5598 11.6874C10.9603 11.4499 11.3802 11.245 11.7582 10.9713C11.4926 10.9519 11.2246 10.9319 10.9703 10.8482C10.9184 10.7539 10.8647 10.6608 10.8103 10.5683C10.6828 10.7101 10.5548 10.8601 10.3792 10.9432C10.1992 11.035 9.99177 11.0307 9.79495 11.0369C9.68248 10.9551 9.57438 10.8688 9.47441 10.7726C9.64624 10.7201 9.95116 10.7876 9.9899 10.5502C10.053 10.3433 9.86181 10.1996 9.6981 10.1253C9.41817 10.0147 9.12387 9.94906 8.83145 9.88221C8.83145 10.6195 8.82645 11.3568 8.83582 12.0941C8.76522 12.1054 8.69461 12.1166 8.62463 12.1266C8.57714 11.3637 8.62525 10.5983 8.60338 9.83409C8.51403 9.82472 8.42406 9.81597 8.33533 9.80535C8.22286 9.79036 8.09477 9.77474 8.01729 9.68288C7.9523 9.54604 7.91169 9.39983 7.85483 9.25987C7.77235 9.10366 7.95418 8.9537 7.89232 8.79561C7.8717 8.68877 7.83296 8.5688 7.90169 8.4707C7.97917 8.31574 8.17225 8.29325 8.32658 8.30637C8.42218 8.30824 8.51778 8.31199 8.61338 8.31511C8.61338 8.27075 8.61338 8.1814 8.61338 8.13704C8.51778 8.13141 8.42218 8.12641 8.32721 8.12016C8.18787 8.11392 8.0504 8.08892 7.91606 8.05331C7.99729 7.99707 8.08602 7.95396 8.17725 7.91709C8.11289 7.86898 8.0479 7.82212 7.98792 7.76901C7.77797 7.47971 7.63864 7.12167 7.69612 6.75927C7.72799 6.42435 7.9598 6.16067 8.18412 5.92948C8.66837 5.6708 9.27946 5.94136 9.54314 6.39186C9.75871 6.88049 9.63062 7.50158 9.20385 7.83336C9.07326 7.95458 8.86332 8.00582 8.80458 8.19015C8.82583 8.292 8.8252 8.40634 8.88519 8.49569C9.03015 8.60067 9.2101 8.63878 9.37756 8.69564C9.60812 8.78687 9.84994 8.86747 10.0574 9.00681C10.2979 9.22425 10.5523 9.4342 10.741 9.701C10.8709 9.88408 10.8697 10.1184 10.9059 10.3321C11.1921 10.2827 11.3614 10.0065 11.382 9.73412C11.382 9.58166 11.2964 9.41608 11.3945 9.27736C11.5857 8.92621 11.8169 8.57817 11.8607 8.17078C11.5645 8.03519 11.214 7.8946 11.1171 7.54781L11.094 7.49408C11.2296 7.56843 11.3477 7.68153 11.5008 7.71902C11.6338 7.73526 11.7626 7.68403 11.8869 7.64279C12.2537 7.55469 12.4955 7.10793 12.3049 6.76677C12.1981 6.54495 11.9206 6.59556 11.7194 6.58869C11.8863 6.33063 12.2124 6.29626 12.4924 6.30001C12.6073 6.29814 12.7229 6.29564 12.8385 6.29314C12.8417 6.03071 12.8898 5.76953 13.0047 5.53209M8.44593 6.54307C8.38844 6.62243 8.32346 6.69741 8.27972 6.78551C8.22848 6.9186 8.31971 7.04419 8.3672 7.16291C8.52528 7.28538 8.67462 7.42722 8.71398 7.63279C9.05077 7.47033 9.31133 7.03982 9.13825 6.67554C9.00765 6.42061 8.66462 6.37562 8.44593 6.54307ZM13.4634 6.94609C13.6121 7.1273 13.882 7.32662 14.1201 7.19728C13.9995 7.09855 13.8789 6.99296 13.8327 6.838C13.7058 6.85487 13.494 6.76739 13.4634 6.94609ZM13.9826 6.82925C13.962 6.96484 14.037 7.05919 14.1726 7.07419C14.2069 6.98671 14.2413 6.89986 14.275 6.81238C14.1776 6.81738 14.0801 6.823 13.9826 6.82925ZM8.06727 8.50444C8.05978 8.61004 8.05353 8.71564 8.0504 8.82186C8.26472 8.84935 8.48217 8.84748 8.69586 8.81373C8.53403 8.64065 8.33033 8.42446 8.06727 8.50444ZM8.13413 8.97057C8.00667 9.00806 8.06228 9.16114 8.04166 9.25862C8.26285 9.33297 8.51153 9.26549 8.70211 9.1424C8.52653 9.04992 8.33595 8.96807 8.13413 8.97057ZM8.12538 9.43795C8.12538 9.48731 8.12726 9.58728 8.12788 9.63727C8.29971 9.63789 8.47029 9.60728 8.63088 9.54354C8.48904 9.42982 8.30159 9.35359 8.12538 9.43795Z" fill="#00318A"></path>
  <path d="M11.4601 0.840809C11.7601 0.832686 12.0606 0.832686 12.3611 0.840809C12.4243 1.42628 12.3499 2.01613 12.4024 2.60223C12.6411 2.60598 12.8804 2.6141 13.1184 2.63909C13.1584 2.85841 13.1622 3.08335 13.1172 3.30204C12.5661 3.34203 12.0119 3.33204 11.4608 3.30017C11.4583 2.48038 11.4608 1.66122 11.4608 0.841434M11.5189 0.885797C11.5189 1.67809 11.5176 2.46976 11.5189 3.26205C12.0381 3.29954 12.5605 3.28205 13.0803 3.2708C13.0891 3.11272 13.0866 2.95401 13.0566 2.79905C13.0628 2.77156 13.076 2.7172 13.0822 2.69033C12.8273 2.68408 12.5723 2.6847 12.318 2.6847C12.2837 2.09173 12.3374 1.49626 12.2943 0.904542C12.2737 0.89392 12.2337 0.871426 12.2131 0.860804C11.9812 0.864553 11.7494 0.862053 11.5189 0.885797ZM9.98989 1.6381C10.1124 1.60374 10.2367 1.57437 10.3623 1.55187C10.2598 1.6381 10.1348 1.68934 10.023 1.76119C10.1567 1.8293 10.3079 1.83805 10.4554 1.84617C10.3217 1.87367 10.1886 1.90053 10.0549 1.92865C10.033 1.8318 10.0111 1.73495 9.98989 1.6381ZM7.71673 2.44352C7.74547 2.50475 7.77296 2.56661 7.80108 2.62784C7.68236 2.69095 7.56239 2.75219 7.4418 2.81217C7.41555 2.76343 7.38931 2.7147 7.36369 2.66596C7.43867 2.66908 7.51428 2.67533 7.58926 2.66658C7.66924 2.6241 7.67424 2.516 7.71673 2.44352ZM16.8219 2.6216C16.9506 2.67658 17.078 2.73532 17.2024 2.79967C17.078 2.78405 16.9543 2.76906 16.8306 2.75344C16.8362 2.81967 16.8425 2.8859 16.8494 2.95151C16.7987 2.92589 16.7488 2.89965 16.6994 2.87278C16.74 2.78905 16.7806 2.70532 16.8219 2.6216ZM17.6816 4.92225C17.7454 4.89163 17.8091 4.86226 17.8728 4.8329C17.9753 4.916 18.0772 5.00035 18.1784 5.08533C18.1446 5.1853 18.1103 5.28528 18.0728 5.384C18.0634 5.25966 18.1034 5.10408 17.9972 5.01098C17.9141 4.93037 17.7872 4.94287 17.6816 4.92225ZM5.04867 18.9805C5.24049 18.9455 5.37983 19.1104 5.53354 19.1954C5.47543 19.2573 5.41795 19.3198 5.36046 19.3822C5.43794 19.3991 5.51605 19.416 5.59353 19.4329C5.30485 19.6266 5.18051 19.9708 5.21863 20.3101L5.19051 20.3764C5.06179 20.1589 5.14552 19.9127 5.20238 19.6878C5.14552 19.6528 5.08866 19.6178 5.0318 19.5828L5.06492 19.5634C5.15489 19.5103 5.2405 19.4503 5.32422 19.3879C5.22925 19.2535 5.13427 19.1204 5.04867 18.9805ZM14.978 21.1893C15.0336 20.8144 15.371 20.5038 15.749 20.4763C15.939 20.462 16.1127 20.5513 16.2795 20.6319C16.2683 20.7644 16.202 20.8781 16.1183 20.9787C15.9858 20.9456 15.8527 20.9062 15.7153 20.9043C15.639 20.97 15.5834 21.0556 15.5234 21.1362C15.5809 21.2824 15.6159 21.4542 15.7434 21.5592C15.849 21.6017 15.9615 21.6254 16.0708 21.6585C15.9208 21.6585 15.724 21.7154 15.6259 21.5642C15.5047 21.3898 15.386 21.1174 15.5528 20.9343C15.6909 20.7706 15.9265 20.8687 16.1102 20.8644C16.1433 20.8031 16.1764 20.7425 16.2101 20.6819C16.0302 20.6213 15.8409 20.5069 15.6465 20.5719C15.3404 20.6369 15.0592 20.9243 15.0942 21.2524C15.0942 21.4323 15.1742 21.5985 15.2448 21.7597C15.0573 21.6379 14.9705 21.4061 14.978 21.1893ZM9.42441 20.9687C9.68934 20.9412 9.97114 20.9662 10.1917 21.1293C9.95365 21.0737 9.70996 21.0449 9.47314 20.9812L9.42441 20.9687ZM13.0235 21.2174C13.1678 21.1318 13.354 21.0843 13.5115 21.1643C13.3603 21.198 13.2084 21.2274 13.0566 21.2574C13.0797 21.7223 13.2009 22.1746 13.2372 22.6383C13.0697 22.3583 13.1147 22.0222 13.041 21.7166C13.0191 21.5529 12.9391 21.3748 13.0235 21.2174ZM11.9525 21.2599C12.1312 21.2243 12.3143 21.2236 12.4936 21.2568C12.5461 21.6192 12.5155 21.9859 12.5211 22.3508C12.6861 22.3552 12.8504 22.3615 13.0153 22.3696C13.0191 22.4977 13.0172 22.6258 13.0091 22.7545C12.6767 22.802 12.3405 22.847 12.005 22.8138C11.9856 22.6383 11.93 22.4414 12.0219 22.2771L12.0787 22.2477C12.0806 22.3927 12.0825 22.5377 12.0893 22.6826C12.1331 22.8607 12.3755 22.7601 12.4961 22.7214C12.6329 22.7164 12.7692 22.712 12.9066 22.7133L12.9797 22.7164C12.9722 22.6145 12.9654 22.5133 12.9591 22.4127C12.7967 22.4096 12.6342 22.4083 12.4724 22.4071C12.4686 22.0397 12.4686 21.671 12.4236 21.3055C12.2849 21.3036 12.1468 21.3042 12.0081 21.308C12.0069 21.5023 12.0069 21.6973 12.0069 21.8922C11.9225 21.6916 11.9475 21.4711 11.9525 21.2599ZM9.79931 21.3386C9.91366 21.3467 10.0749 21.4148 10.0417 21.5561C10.0542 21.7054 9.86117 21.6598 9.76869 21.6854C9.77744 21.5692 9.78806 21.4536 9.79931 21.3386Z" fill="#2B2F36"></path>
  <path d="M11.5182 0.885101C11.7488 0.861357 11.9806 0.863856 12.2124 0.860107C12.208 0.925091 12.2043 0.990699 12.2012 1.05631C12.0225 0.988824 11.8313 0.988199 11.6444 1.00507C11.6413 1.71176 11.6451 2.41908 11.6413 3.12577L11.6438 3.1845C12.0806 3.21075 12.5298 3.25823 12.9591 3.14889C12.9922 3.03204 13.0253 2.91582 13.056 2.79835C13.0859 2.95331 13.0884 3.11202 13.0797 3.27011C12.5598 3.28135 12.0375 3.29885 11.5182 3.26136C11.517 2.46906 11.5182 1.6774 11.5182 0.885101Z" fill="#9E8644"></path>
  <path d="M12.2124 0.860107C12.2331 0.87073 12.273 0.893224 12.2937 0.903846C12.3368 1.49557 12.283 2.09104 12.3174 2.68401C12.5717 2.68401 12.8266 2.68338 13.0816 2.68963C13.0753 2.7165 13.0622 2.77086 13.056 2.79835C13.0253 2.91582 12.9922 3.03204 12.9591 3.14889C12.9485 3.04079 12.9385 2.93207 12.9279 2.82397C12.6823 2.81085 12.4361 2.80648 12.1906 2.80585C12.1706 2.22288 12.1687 1.63866 12.2012 1.05631C12.2043 0.990699 12.2081 0.925091 12.2124 0.860107Z" fill="#A29165"></path>
  <path d="M9.13324 1.17076C9.61437 1.12327 10.0805 0.985184 10.5585 0.92395C10.6972 1.04642 10.6666 1.28573 10.7241 1.45694C10.6066 1.50005 10.4841 1.52879 10.3617 1.55129C10.2361 1.57378 10.1117 1.60315 9.98927 1.63751C10.0105 1.73436 10.0324 1.83121 10.0543 1.92806C10.188 1.89995 10.3211 1.87308 10.4548 1.84559C10.5566 1.82372 10.6585 1.80185 10.7603 1.78123C10.8428 1.96555 10.8765 2.1655 10.8722 2.3667C10.7641 2.38357 10.6566 2.40044 10.5491 2.42106C10.421 2.44356 10.2942 2.47167 10.168 2.50291C10.1855 2.62288 10.203 2.74285 10.2205 2.8622C10.4085 2.85095 10.5929 2.81034 10.7759 2.76597C10.8497 2.75098 10.9247 2.74035 10.9996 2.73473C11.0465 2.91093 11.0846 3.08901 11.1071 3.27022C10.6047 3.41018 10.088 3.50703 9.57125 3.57576C9.41067 2.93718 9.30882 2.2861 9.17323 1.64251C9.13761 1.48818 9.11762 1.32947 9.13324 1.17076ZM9.26883 1.29885C9.27695 1.42694 9.29195 1.55504 9.32007 1.68063C9.44503 2.25798 9.54188 2.84095 9.67622 3.41643C10.0811 3.37581 10.4798 3.28271 10.8772 3.19586C11.0153 3.16399 10.9059 2.98591 10.9115 2.89344C10.6516 2.91031 10.401 2.99091 10.1411 3.00903C10.0955 2.80659 10.053 2.60351 10.0193 2.39919C10.2586 2.34546 10.4985 2.29547 10.7372 2.23861C10.7185 2.14238 10.6991 2.04553 10.6797 1.94868C10.4354 1.97368 10.1955 2.02241 9.95303 2.05803C9.90367 1.88183 9.8718 1.70062 9.86867 1.51755C10.1011 1.47443 10.3323 1.42445 10.5622 1.36758C10.5422 1.26949 10.521 1.17139 10.4991 1.07391C10.0855 1.13077 9.67935 1.227 9.26883 1.29885ZM16.1889 2.06928C16.2589 1.96181 16.2976 1.7931 16.4307 1.75311C16.875 1.95493 17.3042 2.1905 17.741 2.40981C17.6929 2.60226 17.5935 2.77409 17.4861 2.93843C17.3898 2.89406 17.2955 2.84783 17.2018 2.79909C17.0774 2.73473 16.95 2.676 16.8212 2.62101C16.78 2.70474 16.7394 2.78847 16.6988 2.87219C16.7481 2.89906 16.7981 2.92531 16.8487 2.95092C17.0081 3.03153 17.1662 3.11401 17.3211 3.20211C17.2767 3.39518 17.1849 3.57201 17.0674 3.7301C16.9899 3.69136 16.9137 3.65199 16.8375 3.612C16.7019 3.53952 16.5657 3.46954 16.4276 3.40268C16.3689 3.51453 16.3108 3.62762 16.2545 3.74072C16.3058 3.76821 16.3576 3.7957 16.4101 3.8232C16.5807 3.91005 16.7544 3.99253 16.9243 4.08188C16.8737 4.26496 16.7881 4.43554 16.6857 4.5955C16.2083 4.38493 15.7334 4.15874 15.2885 3.88381C15.5659 3.26834 15.899 2.67912 16.1889 2.06928ZM16.4395 1.89995C16.1077 2.53853 15.774 3.17649 15.4635 3.8257C15.8365 4.05564 16.2376 4.23497 16.6263 4.43616C16.6719 4.34369 16.7144 4.24934 16.7525 4.15311C16.5351 4.03689 16.3176 3.92067 16.0977 3.8082C16.162 3.60575 16.262 3.41768 16.3801 3.24147C16.6026 3.34332 16.8169 3.46329 17.0443 3.55452C17.0843 3.46017 17.1249 3.36582 17.1655 3.27147C16.9575 3.1565 16.7456 3.04965 16.5363 2.93843C16.5988 2.76847 16.6782 2.60539 16.7669 2.44793C16.9999 2.53666 17.2168 2.65975 17.4436 2.7616C17.4886 2.66725 17.5273 2.5704 17.5573 2.47042C17.1868 2.27672 16.8106 2.09302 16.4395 1.89995ZM18.6689 3.80133C18.9282 3.66511 19.1781 3.50703 19.4593 3.41955C19.3949 3.77758 19.2469 4.11187 19.1406 4.45741C18.9638 5.01664 18.777 5.57212 18.592 6.12885C18.3796 6.00513 18.194 5.83892 18.0366 5.65147C17.9584 5.57087 18.0534 5.46839 18.0722 5.38342C18.1097 5.28469 18.144 5.18472 18.1778 5.08474C18.0765 4.99977 17.9747 4.91541 17.8722 4.83231C17.8085 4.86168 17.7448 4.89104 17.681 4.92166C17.5804 4.96852 17.4836 5.02663 17.3748 5.0535C17.198 4.99727 17.0887 4.82981 16.9706 4.69734C17.5229 4.37368 18.1072 4.10812 18.6689 3.80133ZM18.8501 3.85569C18.3002 4.14999 17.7466 4.43554 17.1918 4.71859C17.2518 4.7942 17.3161 4.86605 17.3836 4.93541C17.5517 4.86418 17.7166 4.78607 17.8778 4.70047C18.0316 4.80607 18.1703 4.93166 18.2959 5.06975C18.2396 5.23158 18.1859 5.39341 18.1309 5.55462C18.2502 5.68271 18.3796 5.80456 18.5383 5.88391C18.7632 5.14535 19.0394 4.42242 19.2481 3.67948C19.1113 3.72822 18.9776 3.78571 18.8501 3.85569ZM9.47253 20.9806C9.70934 21.0443 9.95303 21.0731 10.1911 21.1287C10.4429 21.2112 10.5504 21.5205 10.4516 21.7554C10.4273 21.7654 10.3798 21.7854 10.356 21.7954C10.4023 21.6273 10.4454 21.4018 10.2854 21.2793C10.0592 21.1293 9.77932 21.1068 9.51814 21.0656C9.42504 21.5005 9.2857 21.926 9.23071 22.3684C9.49565 22.4302 9.7687 22.5677 10.0449 22.5002C10.2948 22.3959 10.2417 22.0835 10.3317 21.8748C10.3735 22.1241 10.3392 22.3921 10.1342 22.5627C9.96302 22.554 9.79182 22.5565 9.62061 22.5527C9.53501 22.5371 9.45066 22.5127 9.37005 22.4815C9.30132 22.449 9.22634 22.409 9.14886 22.434C9.14636 22.2278 9.20572 22.0303 9.26321 21.8354C9.30882 21.6811 9.34319 21.5236 9.37318 21.3655C9.39817 21.2355 9.43379 21.1075 9.47253 20.9806Z" fill="#A48C4C"></path>
  <path d="M11.6445 1.00506C11.8313 0.988191 12.0225 0.988816 12.2012 1.0563C12.1687 1.63865 12.1706 2.22287 12.1906 2.80584C12.4361 2.80647 12.6823 2.81084 12.9279 2.82396C12.9385 2.93206 12.9485 3.04078 12.9591 3.14888C12.5205 3.12264 12.0806 3.14013 11.6413 3.12576C11.6451 2.41907 11.6413 1.71175 11.6445 1.00506ZM9.26883 1.29874C9.67935 1.22688 10.0855 1.13065 10.4991 1.07379C10.521 1.17127 10.5423 1.26937 10.5622 1.36747C10.3323 1.42433 10.1011 1.47431 9.86868 1.51743C9.8718 1.70051 9.90367 1.88171 9.95303 2.05791C10.1955 2.0223 10.4354 1.97356 10.6797 1.94857C10.6991 2.04542 10.7185 2.14227 10.7372 2.23849C10.4985 2.29535 10.2586 2.34534 10.0193 2.39907C10.053 2.6034 10.0955 2.80647 10.1411 3.00892C10.401 2.9908 10.6516 2.91019 10.9115 2.89332C10.9059 2.9858 11.0153 3.16388 10.8772 3.19574C10.4798 3.2826 10.0811 3.3757 9.67623 3.41631C9.54189 2.84084 9.44504 2.25786 9.32007 1.68051C9.29195 1.55492 9.27696 1.42683 9.26883 1.29874ZM14.0888 1.41183C14.5025 1.1569 15.1342 1.40371 15.2248 1.89671C15.1411 1.93045 15.0567 1.96169 14.9705 1.98981C14.9024 1.82985 14.8393 1.60803 14.6268 1.60428C14.4075 1.55117 14.2713 1.81923 14.375 1.99356C14.4962 2.2035 14.7337 2.30972 14.878 2.50217C15.0792 2.73086 15.0255 3.11264 14.7974 3.30384C14.5493 3.52378 14.1651 3.51566 13.8826 3.37007C13.6921 3.27135 13.5852 3.0764 13.5065 2.88582C13.5927 2.87458 13.6821 2.82834 13.7695 2.85333C13.8789 2.9883 13.972 3.19699 14.1801 3.177C14.4031 3.18887 14.5412 2.89832 14.415 2.72399C14.2375 2.49655 13.9389 2.35846 13.8501 2.06729C13.8045 1.8286 13.8639 1.5418 14.0888 1.41183ZM16.4395 1.89983C16.8106 2.0929 17.1868 2.27661 17.5573 2.47031C17.5273 2.57028 17.4886 2.66713 17.4436 2.76148C17.2168 2.65963 17 2.53654 16.7669 2.44781C16.6782 2.60527 16.5988 2.76835 16.5363 2.93831C16.7456 3.04953 16.9575 3.15638 17.1655 3.27135C17.1249 3.3657 17.0843 3.46005 17.0443 3.5544C16.8169 3.46317 16.6026 3.3432 16.3801 3.24136C16.262 3.41756 16.162 3.60564 16.0977 3.80808C16.3176 3.92055 16.5351 4.03677 16.7525 4.15299C16.7144 4.24922 16.6719 4.34357 16.6263 4.43605C16.2376 4.23485 15.8365 4.05552 15.4635 3.82558C15.774 3.17637 16.1077 2.53841 16.4395 1.89983ZM4.52257 3.90181C4.75626 3.45817 5.28862 3.2676 5.76662 3.36132C5.7585 3.46567 5.74912 3.57002 5.74038 3.67437C5.51293 3.67749 5.25425 3.6625 5.07305 3.8262C4.86998 3.99304 4.80249 4.29296 4.92184 4.52852C5.0693 4.83657 5.34048 5.12962 5.69414 5.17585C5.92033 5.21084 6.15652 5.0965 6.26774 4.89655C6.37896 4.7266 6.34772 4.5154 6.37521 4.3242C6.43457 4.2286 6.57766 4.28171 6.67326 4.25734C6.68638 4.5004 6.70325 4.75409 6.61265 4.98528C6.46269 5.3833 6.04655 5.64698 5.62728 5.65573C4.76813 5.74008 4.05081 4.64287 4.52257 3.90181ZM18.8501 3.85557C18.9776 3.78559 19.1113 3.7281 19.2481 3.67937C19.0394 4.4223 18.7632 5.14524 18.5383 5.88379C18.3796 5.80444 18.2503 5.6826 18.1309 5.55451C18.1859 5.3933 18.2396 5.23146 18.2959 5.06963C18.1703 4.93154 18.0316 4.80595 17.8778 4.70035C17.7166 4.78595 17.5517 4.86406 17.3836 4.93529C17.3161 4.86593 17.2518 4.79408 17.1918 4.71847C17.7466 4.43542 18.3002 4.14987 18.8501 3.85557ZM18.1109 4.57289C18.1971 4.65161 18.2871 4.72597 18.3796 4.7972C18.4396 4.66036 18.4852 4.51852 18.5152 4.37231C18.374 4.42542 18.239 4.49353 18.1109 4.57289Z" fill="#FFFFFA"></path>
  <path d="M14.0745 1.26569C14.6199 0.957642 15.4641 1.43002 15.3354 2.08797C15.1723 2.0936 15.0098 2.10297 14.8468 2.11234C14.8061 1.99675 14.7643 1.8824 14.7224 1.76743C14.6443 1.76368 14.5656 1.75993 14.4875 1.75681C14.4681 2.00362 14.6937 2.12546 14.8524 2.2673C14.9955 2.39477 15.1011 2.5691 15.1386 2.7578C15.1823 3.08771 14.9792 3.43512 14.6631 3.54759C14.2863 3.68318 13.8045 3.59508 13.5533 3.26579C13.4484 3.13895 13.4021 2.97837 13.3584 2.82278C13.5177 2.74655 13.6877 2.69282 13.8633 2.66782C13.9258 2.79904 13.9914 2.92838 14.0588 3.05647C14.1807 3.05897 14.29 3.01211 14.3819 2.93338C14.3488 2.87339 14.3163 2.81341 14.2807 2.7553C14.0957 2.57597 13.8595 2.43351 13.7502 2.19045C13.6271 1.85991 13.7314 1.41877 14.0745 1.26569ZM14.0888 1.4119C13.8639 1.54187 13.8045 1.82867 13.8501 2.06735C13.9389 2.35853 14.2375 2.49662 14.415 2.72406C14.5412 2.89839 14.4031 3.18894 14.1801 3.17707C13.972 3.19706 13.8789 2.98836 13.7695 2.8534C13.6821 2.82841 13.5927 2.87464 13.5065 2.88589C13.5852 3.07647 13.6921 3.27142 13.8826 3.37014C14.1651 3.51573 14.5493 3.52385 14.7974 3.30391C15.0255 3.11271 15.0792 2.73093 14.878 2.50224C14.7337 2.30979 14.4962 2.20357 14.375 1.99362C14.2713 1.81929 14.4075 1.55124 14.6268 1.60435C14.8393 1.6081 14.9024 1.82992 14.9705 1.98987C15.0567 1.96176 15.1411 1.93051 15.2248 1.89677C15.1342 1.40378 14.5025 1.15697 14.0888 1.4119Z" fill="#A28C51"></path>
  <path d="M7.4393 1.83109C7.66924 1.70487 7.89731 1.56303 8.15911 1.51367C8.49153 2.24161 8.86456 2.9508 9.17572 3.68811C8.94703 3.81745 8.71522 3.95241 8.45591 4.01052C8.31845 3.75309 8.21035 3.48129 8.08163 3.2201C7.93667 3.16824 7.80733 3.27072 7.68111 3.3257C7.71735 3.41068 7.75297 3.49566 7.79171 3.57938C7.89418 3.78308 8.00415 3.98365 8.08288 4.19922C7.86294 4.33606 7.62925 4.45478 7.37932 4.52789C7.20624 4.26046 7.09439 3.96116 6.9563 3.67561C6.74823 3.2426 6.53891 2.81021 6.34146 2.3722C6.55203 2.20412 6.80821 2.11414 7.05628 2.01854C7.16875 2.22911 7.25685 2.45155 7.36307 2.66525C7.38869 2.71399 7.41493 2.76272 7.44118 2.81146C7.56177 2.75148 7.68174 2.69024 7.80046 2.62713C7.77234 2.5659 7.74485 2.50404 7.7161 2.44281C7.61426 2.24348 7.50241 2.04728 7.4393 1.83109ZM7.61426 1.8892C7.70673 2.16538 7.85607 2.41781 7.95667 2.69087C7.77046 2.79959 7.57552 2.89081 7.37432 2.96704C7.22998 2.71773 7.12313 2.44905 6.98629 2.19599C6.82321 2.25473 6.66638 2.32846 6.51204 2.40656C6.80072 3.07139 7.12876 3.71997 7.4443 4.37355C7.60488 4.3067 7.76109 4.22984 7.90918 4.13924C7.78734 3.84619 7.63737 3.56564 7.51616 3.27196C7.70986 3.17012 7.9073 3.07327 8.1135 2.99891C8.26659 3.27946 8.37218 3.58563 8.55089 3.85244C8.70522 3.78371 8.85643 3.70935 9.00264 3.62375C8.70397 2.97017 8.40093 2.31659 8.06664 1.6805C7.91168 1.74049 7.76047 1.80984 7.61426 1.8892Z" fill="#A48C49"></path>
  <path d="M7.61427 1.88924C7.76048 1.80988 7.91169 1.74053 8.06665 1.68054C8.40094 2.31663 8.70398 2.97021 9.00266 3.62379C8.85645 3.70939 8.70523 3.78375 8.5509 3.85248C8.3722 3.58567 8.2666 3.2795 8.11351 2.99895C7.90732 3.07331 7.70987 3.17016 7.51617 3.272C7.63739 3.56568 7.78735 3.84623 7.90919 4.13928C7.7611 4.22988 7.6049 4.30673 7.44431 4.37359C7.12877 3.72001 6.80073 3.07143 6.51205 2.4066C6.66639 2.3285 6.82322 2.25477 6.98631 2.19603C7.12315 2.44909 7.22999 2.71777 7.37433 2.96708C7.57553 2.89085 7.77048 2.79963 7.95668 2.6909C7.85608 2.41785 7.70674 2.16542 7.61427 1.88924Z" fill="#FFFFFC"></path>
  <path d="M14.4875 1.75671C14.5656 1.75984 14.6443 1.76359 14.7224 1.76734C14.7643 1.88231 14.8061 1.99665 14.8467 2.11225C15.0098 2.10287 15.1723 2.0935 15.3354 2.08788C15.1829 2.16848 15.0186 2.22347 14.8524 2.26721C14.6937 2.12537 14.4681 2.00352 14.4875 1.75671Z" fill="#03317F"></path>
  <path d="M10.168 2.50275C10.2942 2.47151 10.421 2.44339 10.5491 2.4209C10.4798 2.49525 10.381 2.5265 10.2886 2.56149C10.2779 2.62272 10.2679 2.68458 10.2573 2.74644C10.4304 2.75706 10.6029 2.76081 10.7759 2.76581C10.5929 2.81017 10.4085 2.85079 10.2205 2.86203C10.203 2.74269 10.1855 2.62272 10.168 2.50275Z" fill="#374041"></path>
  <path d="M14.2807 2.75537C14.3163 2.81348 14.3488 2.87347 14.3819 2.93345C14.29 3.01218 14.1807 3.05904 14.0588 3.05654C14.1601 2.97844 14.2394 2.87721 14.2807 2.75537Z" fill="#424740"></path>
  <path d="M11.6413 3.12573C12.0806 3.1401 12.5205 3.12261 12.9591 3.14885C12.5298 3.2582 12.0806 3.21071 11.6438 3.18447L11.6413 3.12573Z" fill="#E1C278"></path>
  <path d="M5.07117 3.26947C5.34235 3.18074 5.63227 3.20761 5.91032 3.23572C5.92282 3.44442 5.88158 3.65062 5.84284 3.85494C5.8241 3.85244 5.78598 3.84682 5.76724 3.84432C5.56229 3.80808 5.3361 3.77433 5.16052 3.91617C4.97807 4.07176 4.96557 4.35356 5.08366 4.55038C5.20113 4.77345 5.4042 4.93966 5.63727 5.03151C5.72475 5.08399 5.84534 5.09712 5.92594 5.02464C6.24961 4.87592 6.24524 4.49852 6.20587 4.19735C6.3802 4.13861 6.56203 4.10487 6.74448 4.08425C6.75698 4.113 6.78072 4.17173 6.79259 4.20047C6.81321 4.41917 6.81509 4.64036 6.79259 4.85905C6.65013 5.64447 5.64789 6.02063 4.97744 5.6551C4.65315 5.46452 4.40884 5.1471 4.28512 4.79407C4.08267 4.1836 4.47195 3.47379 5.07054 3.26947M4.52193 3.9018C4.05018 4.64286 4.7675 5.74007 5.62665 5.65572C6.04591 5.64697 6.46205 5.38329 6.61202 4.98527C6.70262 4.75408 6.68575 4.5004 6.67262 4.25733C6.57702 4.2817 6.43394 4.22859 6.37458 4.32419C6.34708 4.51539 6.37833 4.72659 6.26711 4.89654C6.15588 5.09649 5.9197 5.21084 5.6935 5.17585C5.33985 5.12961 5.06867 4.83656 4.92121 4.52851C4.80186 4.29295 4.86934 3.99303 5.07242 3.8262C5.25362 3.66249 5.5123 3.67749 5.73974 3.67436C5.74849 3.57001 5.75786 3.46566 5.76599 3.36132C5.28798 3.26759 4.75562 3.45817 4.52193 3.9018ZM13.0553 21.2567C13.2072 21.2267 13.359 21.1973 13.5102 21.1636C13.519 21.2348 13.5277 21.3054 13.5371 21.3766C13.5696 21.6791 13.6071 21.9821 13.6852 22.2764C13.8389 22.2533 13.9926 22.227 14.1444 22.192C14.1651 22.3151 14.1832 22.4382 14.2 22.562C14.1351 22.5794 14.0701 22.5951 14.0045 22.6082C13.7495 22.6369 13.4934 22.6538 13.2403 22.6988L13.2359 22.6376C13.1997 22.1739 13.0785 21.7215 13.0553 21.2567ZM13.111 21.3098C13.1741 21.749 13.2428 22.1871 13.3171 22.6244C13.5902 22.6019 13.8595 22.5501 14.1276 22.4957C14.1101 22.4251 14.0919 22.3545 14.0745 22.2845C13.9264 22.3095 13.7789 22.3345 13.6308 22.357C13.5346 21.9921 13.5202 21.6122 13.4321 21.246C13.3246 21.2667 13.2178 21.2873 13.111 21.3098Z" fill="#A48C4D"></path>
  <path d="M7.68112 3.32564C7.80734 3.27066 7.93668 3.16818 8.08164 3.22004C7.99666 3.26128 7.90981 3.30127 7.82358 3.34001C7.81234 3.41999 7.80171 3.49935 7.79172 3.57932C7.75298 3.4956 7.71736 3.41062 7.68112 3.32564Z" fill="#323C41"></path>
  <path d="M16.2545 3.74063C16.3107 3.62753 16.3688 3.51443 16.4276 3.40259C16.5657 3.46945 16.7019 3.53943 16.8375 3.61191C16.7006 3.58567 16.5638 3.55692 16.4276 3.52818C16.4201 3.62628 16.4138 3.72438 16.4101 3.8231C16.3576 3.79561 16.3057 3.76812 16.2545 3.74063Z" fill="#2B3B48"></path>
  <path d="M11.7682 3.64306C13.4284 3.58432 15.1017 4.04483 16.4994 4.9421C18.1646 6.0037 19.4449 7.66576 20.0098 9.56152C20.6759 11.736 20.4153 14.1828 19.2743 16.1548C18.3565 17.7588 16.8975 19.0491 15.186 19.7495C13.8351 20.3106 12.3361 20.4837 10.8884 20.3C9.01076 20.0544 7.22123 19.1497 5.92844 17.7625C4.69126 16.4753 3.89709 14.7739 3.68902 13.0019C3.54843 11.7347 3.67028 10.4325 4.10079 9.22911C4.75687 7.34397 6.11776 5.71877 7.85106 4.73215C9.04013 4.0542 10.3985 3.66493 11.7682 3.64306ZM11.1458 3.9561C10.153 4.05358 9.18259 4.3485 8.29595 4.80463C6.55015 5.69628 5.15551 7.24712 4.45195 9.07665C3.82461 10.6925 3.73776 12.5089 4.20201 14.1784C4.67939 15.9149 5.76161 17.4763 7.21685 18.5361C8.62336 19.5739 10.3773 20.1325 12.125 20.095C13.8045 20.0794 15.4735 19.5152 16.82 18.5111C18.2577 17.4507 19.33 15.9024 19.8017 14.1784C20.2735 12.4783 20.176 10.6231 19.5155 8.98605C18.8588 7.33585 17.636 5.92122 16.1052 5.02333C14.6243 4.14668 12.856 3.76865 11.1458 3.9561ZM17.9666 19.1078C18.184 19.3071 18.3577 19.5477 18.5402 19.7782C18.5983 19.8551 18.6545 19.9382 18.6745 20.035C18.6751 20.1563 18.6745 20.2769 18.6714 20.3987C18.5727 20.7611 18.0803 20.8448 17.8041 20.6449C17.9797 20.6649 18.1653 20.7355 18.3383 20.6624C18.5976 20.5705 18.7451 20.2175 18.5852 19.9813C18.4164 19.7033 18.2065 19.4533 18.0003 19.2034C17.9422 19.2578 17.8847 19.3134 17.8278 19.369C18.0034 19.6402 18.234 19.8745 18.3952 20.1556C18.4764 20.3193 18.2202 20.4962 18.0972 20.3543C17.8728 20.1213 17.7141 19.8345 17.4973 19.5945C17.4061 19.6639 17.3155 19.7333 17.2255 19.8039C17.4011 20.0569 17.6067 20.2912 17.7579 20.5612C17.5042 20.3393 17.3211 20.05 17.1362 19.7714C17.2592 19.6689 17.3836 19.5627 17.5367 19.5083C17.7397 19.7601 17.9047 20.0444 18.1309 20.2769C18.1709 20.2812 18.2502 20.2906 18.2896 20.2956C18.2965 19.8951 17.8722 19.6808 17.7416 19.3271C17.8172 19.2546 17.8928 19.1821 17.9666 19.1078ZM11.2064 21.1185C11.3439 21.3566 11.3983 21.6278 11.4801 21.8871C11.5682 22.1901 11.6838 22.4857 11.7469 22.7956C11.5982 22.7893 11.4508 22.78 11.3033 22.7656C11.2327 22.6206 11.1921 22.4088 10.999 22.3888C10.9209 22.4844 10.844 22.5813 10.7659 22.6769C10.6678 22.6669 10.5685 22.6706 10.4704 22.685C10.4941 22.4825 10.6053 22.3082 10.6953 22.1301C10.8715 21.7958 11.024 21.4497 11.2064 21.1185ZM11.2008 21.301C10.9678 21.7371 10.7228 22.172 10.5504 22.6362C10.5991 22.6375 10.6959 22.6394 10.7441 22.6406C10.7965 22.54 10.849 22.4394 10.9003 22.3388C11.0071 22.3532 11.1133 22.3701 11.2196 22.3894C11.2546 22.4894 11.2908 22.5894 11.327 22.6894C11.4364 22.7012 11.5464 22.7106 11.657 22.7175C11.532 22.2382 11.3958 21.7565 11.2008 21.301Z" fill="#BA8A1D"></path>
  <path d="M5.16052 3.91625C5.3361 3.77441 5.56229 3.80815 5.76724 3.84439C5.56979 3.89875 5.36484 3.91687 5.16052 3.91625Z" fill="#2A3843"></path>
  <path d="M6.79257 4.20044C6.9844 4.34478 6.87692 4.66094 6.86255 4.87214L6.7932 4.85902C6.81507 4.64033 6.81319 4.41913 6.7932 4.20044H6.79257Z" fill="#1D2F44"></path>
  <path d="M18.1109 4.57301C18.239 4.49365 18.374 4.42555 18.5152 4.37244C18.4852 4.51865 18.4396 4.66049 18.3796 4.79733C18.2871 4.72609 18.1972 4.65174 18.1109 4.57301Z" fill="#B3944A"></path>
  <path d="M5.63727 5.03155C5.70725 4.95907 5.85346 4.95282 5.92594 5.02468C5.84534 5.09716 5.72475 5.08404 5.63727 5.03155Z" fill="#514E34"></path>
  <path d="M12.493 6.29991C12.403 5.93438 12.7204 5.68069 13.0053 5.53198C12.8904 5.76942 12.8423 6.0306 12.8391 6.29303C12.7235 6.29553 12.6079 6.29803 12.493 6.29991ZM11.6769 6.58921H11.7201C11.9213 6.59546 12.1987 6.54484 12.3055 6.76666C12.4961 7.10782 12.2543 7.55458 11.8875 7.64268C12.0044 7.43899 12.1412 7.2003 12.0443 6.96036C11.9987 6.80415 11.8163 6.78916 11.6882 6.73979C11.6851 6.7023 11.6794 6.6267 11.6769 6.58921Z" fill="#596DB1"></path>
  <path d="M7.55428 6.61114C7.64238 6.3031 7.87794 6.03317 8.18474 5.92944C7.96042 6.16063 7.72861 6.42431 7.69674 6.75923C7.63926 7.12163 7.77859 7.47967 7.98854 7.76897C7.58239 7.5584 7.44306 7.03103 7.55428 6.61114ZM9.24946 17.7776C9.40817 17.7657 9.5675 17.7657 9.72684 17.7639C9.71247 17.9082 9.69872 18.0532 9.69372 18.1988C9.65811 18.1763 9.58625 18.1306 9.55063 18.1075C9.50565 17.9444 9.45066 17.777 9.24946 17.7776Z" fill="#586EB1"></path>
  <path d="M9.54376 6.39185C9.76558 6.41122 9.86618 6.63366 9.94616 6.81174C10.0793 7.17539 10.0205 7.60653 9.78558 7.91645C9.62999 8.13827 9.39255 8.28011 9.15699 8.40382C9.04639 8.32259 8.92518 8.25636 8.80521 8.19013C8.86394 8.0058 9.07389 7.95456 9.20448 7.83335C9.63124 7.50156 9.75933 6.88047 9.54376 6.39185ZM17.3792 11.2506C17.641 11.3412 17.8216 11.6017 17.8216 11.8785C17.8491 12.2703 17.5654 12.6296 17.2099 12.7683C17.1943 12.609 17.173 12.4503 17.1174 12.2997C17.4205 12.046 17.5411 11.6186 17.3792 11.2506ZM11.8357 16.5917C11.9775 16.4092 12.2049 16.3343 12.4105 16.248C12.5799 16.3311 12.7529 16.4049 12.9273 16.4767C12.6686 16.6079 12.3543 16.6804 12.1793 16.9316C11.9769 17.2097 11.9794 17.5783 11.8013 17.867C11.6651 18.0882 11.377 18.0294 11.1696 18.1175C11.0877 18.2419 11.0646 18.3962 11.0046 18.5318C10.8665 18.4481 10.7391 18.3481 10.6297 18.23C10.6878 18.0901 10.6972 17.9176 10.8091 17.8076C11.0021 17.7245 11.2708 17.787 11.4058 17.5946C11.6076 17.2865 11.6045 16.8841 11.8357 16.5917Z" fill="#D3D3D6"></path>
  <path d="M8.44653 6.543C8.66522 6.37554 9.00826 6.42053 9.13885 6.67546C9.31193 7.03974 9.05137 7.47026 8.71458 7.63271C8.67522 7.42714 8.52588 7.2853 8.3678 7.16284C8.55088 7.15034 8.83643 7.17346 8.8533 6.92165C8.89641 6.67546 8.63648 6.58486 8.44653 6.543Z" fill="#596DB2"></path>
  <path d="M8.44653 6.54309C8.63648 6.58495 8.89641 6.67556 8.8533 6.92174C8.83643 7.17355 8.55088 7.15043 8.3678 7.16293C8.32031 7.04421 8.22909 6.91862 8.28032 6.78553C8.32406 6.69743 8.38905 6.62245 8.44653 6.54309Z" fill="#D2D3D9"></path>
  <path d="M13.464 6.94605C13.4946 6.76735 13.7064 6.85482 13.8332 6.83795C13.8795 6.99291 14.0001 7.09851 14.1207 7.19723C13.8826 7.32658 13.6127 7.12725 13.464 6.94605Z" fill="#CDD3E0"></path>
  <path d="M13.9832 6.82925C14.0807 6.823 14.1782 6.81738 14.2756 6.81238C14.2419 6.89986 14.2075 6.98671 14.1732 7.07418C14.0376 7.05919 13.9626 6.96484 13.9832 6.82925Z" fill="#B4C8EB"></path>
  <path d="M15.2379 6.96033C15.3585 7.06967 15.5441 7.14903 15.5828 7.31836C15.5022 7.52393 15.3491 7.69014 15.2423 7.88134C15.1386 7.8526 15.0367 7.81885 14.9324 7.79573C14.8911 7.8501 14.8611 7.91071 14.843 7.97756C14.6724 7.83198 14.5475 8.07816 14.4625 8.19688C14.3269 8.20563 14.1907 8.2025 14.0551 8.19063C14.0076 7.96757 14.1207 7.72513 14.3269 7.6264C14.4762 7.55517 14.585 7.7245 14.6968 7.79698C14.8843 7.52331 15.1148 7.27337 15.2379 6.96033ZM13.2003 18.0399C13.2897 17.985 13.3846 17.9344 13.4909 17.9225C13.5334 17.93 13.619 17.9456 13.6614 17.9531C13.7083 18.0424 13.7558 18.1324 13.8045 18.2212C13.5927 18.2761 13.5134 18.4811 13.4271 18.6579C13.2609 18.4942 13.2478 18.2543 13.2003 18.0399Z" fill="#D3D3D7"></path>
  <path d="M11.0677 7.86952C11.0409 7.75893 11.0808 7.65083 11.1177 7.54773C11.2146 7.89451 11.5651 8.0351 11.8613 8.17069C11.8175 8.57809 11.5863 8.92612 11.3951 9.27728C11.297 9.41599 11.3833 9.58158 11.3826 9.73404C11.362 10.0065 11.1927 10.2826 10.9065 10.332C10.8703 10.1183 10.8715 9.884 10.7416 9.70092C10.5529 9.43411 10.2986 9.22417 10.058 9.00673C10.3523 9.02984 10.6441 9.08108 10.939 9.0967C11.1315 8.85489 11.2939 8.59121 11.437 8.31753C11.2945 8.18881 11.0952 8.07884 11.0677 7.86952ZM15.9596 8.5206C16.3557 8.40126 16.7819 8.78303 16.7413 9.1848C16.7094 9.41849 16.5519 9.60969 16.3882 9.76903C16.0577 10.0833 15.6634 10.3395 15.4041 10.7219C15.2123 10.995 15.2029 11.3674 15.3397 11.666C15.5734 12.1753 16.0702 12.5189 16.257 13.055C16.3495 13.3412 16.3514 13.6811 16.1808 13.9392C15.9964 14.2048 15.639 14.2947 15.3341 14.2322C14.9355 14.1579 14.6031 13.8698 14.4325 13.5081C14.5331 13.5943 14.6387 13.6761 14.7486 13.7517C15.0286 13.9098 15.3972 13.9923 15.6921 13.8286C15.929 13.6974 15.9996 13.3881 15.9221 13.1432C15.8102 12.7589 15.4966 12.4877 15.2648 12.1765C14.9605 11.7904 14.7599 11.2505 14.9511 10.77C15.2035 10.1977 15.7859 9.894 16.1758 9.43287C16.2732 9.32727 16.3057 9.18418 16.3107 9.04422C16.2451 8.83802 16.0377 8.69743 15.8227 8.77366C15.7353 8.82927 15.6497 8.88801 15.5672 8.94987C15.6609 8.78053 15.7521 8.57121 15.9596 8.5206ZM8.33531 9.80527C8.42404 9.81589 8.51401 9.82464 8.60337 9.83401C8.62523 10.5982 8.57712 11.3636 8.62461 12.1265C8.69459 12.1165 8.7652 12.1053 8.83581 12.094C8.96202 12.0634 9.08574 12.0203 9.20258 11.9635C9.53312 11.7779 9.83117 11.5411 10.148 11.3342C10.4166 11.1637 10.7009 11.0181 10.9703 10.8481C11.2246 10.9319 11.4926 10.9518 11.7582 10.9712C11.3801 11.2449 10.9603 11.4498 10.5597 11.6873C10.2242 11.8716 9.90178 12.0797 9.56499 12.2609C9.14697 12.4858 8.65585 12.3546 8.21097 12.4608C7.98978 12.5352 7.75984 12.6939 7.72297 12.9413L7.70422 13.0113C7.6005 12.9594 7.66861 12.832 7.67986 12.747C7.75046 12.4215 8.08475 12.2865 8.34093 12.1322C8.34093 11.3567 8.34781 10.5813 8.33531 9.80527ZM12.7035 12.3134C12.9085 12.4046 13.1416 12.5239 13.1909 12.767C13.2659 13.0207 13.0897 13.2587 12.886 13.39C12.2699 13.7999 11.502 13.9461 10.9403 14.4441C10.7753 14.5772 10.6785 14.7858 10.7072 14.9989C10.7053 15.2688 10.9859 15.3838 11.1714 15.5182C11.0565 16.0199 10.9396 16.6148 10.4629 16.9022C10.013 17.1634 9.46627 16.8834 8.99451 17.0628C8.87017 17.1102 8.78707 17.2415 8.80019 17.3752C8.81206 17.6264 8.85143 17.8757 8.86955 18.1262C8.79144 18.0419 8.74333 17.9363 8.75083 17.8194C8.74833 17.5433 8.68959 17.2265 8.87517 16.9922C9.00639 16.9022 9.15572 16.8416 9.31006 16.8041C9.66934 16.7991 10.1242 16.9634 10.4029 16.6535C10.6172 16.3642 10.6903 15.9887 10.7072 15.6356C10.6335 15.4319 10.3567 15.347 10.3079 15.1183C10.2223 14.6796 10.5179 14.2916 10.8078 13.9986C11.1927 13.6374 11.6276 13.3137 12.1187 13.1144C12.3261 13.0394 12.6011 13.0525 12.7385 12.8551C12.771 12.6745 12.7217 12.4927 12.7035 12.3134ZM12.9241 14.859C13.0847 14.8602 13.2515 14.8546 13.4052 14.9089C13.5627 15.0502 13.5914 15.297 13.7683 15.4226C13.9676 15.5063 14.1969 15.4632 14.3969 15.5419C14.5712 15.68 14.6362 15.9137 14.6455 16.1274C14.6555 16.506 14.4862 16.8591 14.2963 17.1771C13.9007 17.2177 13.4602 17.1334 13.1084 17.3608C12.8054 17.567 12.9897 17.9688 12.9885 18.2649C12.8354 17.995 12.8229 17.6264 12.9685 17.3521C13.224 17.0421 13.6702 17.0909 14.0276 17.0278C14.1413 17.0221 14.1588 16.8934 14.1838 16.8066C14.2157 16.6241 14.2132 16.4342 14.1819 16.2517C14.1644 16.1717 14.1444 16.093 14.1244 16.0143C14.0245 15.9824 13.9239 15.9512 13.8245 15.9168C13.4865 15.7843 13.2203 15.5069 13.0591 15.1864C13.0091 15.0789 12.966 14.9689 12.9241 14.859Z" fill="#5A6DB2"></path>
  <path d="M15.2423 7.88141C15.4935 7.96264 15.699 7.74645 15.8946 7.62585C15.8478 7.89703 15.6828 8.15822 15.401 8.22757C15.3229 8.21695 15.2448 8.2057 15.1667 8.19258C15.0542 8.1276 14.9499 8.05137 14.843 7.97764C14.8611 7.91078 14.8911 7.85017 14.9324 7.79581C15.0367 7.81893 15.1386 7.85267 15.2423 7.88141Z" fill="#EA0E16"></path>
  <path d="M8.3278 8.12012C8.42278 8.12637 8.51838 8.13136 8.61398 8.13699C8.61398 8.18135 8.61398 8.2707 8.61398 8.31507C8.51838 8.31194 8.42278 8.30819 8.32718 8.30632C8.32718 8.25946 8.32718 8.16636 8.32843 8.12012H8.3278Z" fill="#536EB5"></path>
  <path d="M8.80521 8.19006C8.92518 8.2563 9.04639 8.32253 9.15699 8.40376C9.23822 8.49498 9.3082 8.59558 9.37818 8.69556C9.21073 8.6387 9.03077 8.60058 8.88581 8.49561C8.82583 8.40626 8.82645 8.29191 8.80521 8.19006Z" fill="#5A6EAE"></path>
  <path d="M15.1667 8.19263C15.2448 8.20575 15.3229 8.217 15.401 8.22762C15.4959 8.25886 15.5872 8.30072 15.6803 8.33946C15.6084 8.41882 15.5447 8.5038 15.4859 8.59252C15.3872 8.54441 15.2854 8.50192 15.1979 8.43569C15.1692 8.35821 15.1729 8.27386 15.1667 8.19263Z" fill="#D7D3D5"></path>
  <path d="M2.08506 8.33623C2.54494 8.19626 3.08793 8.36747 3.36785 8.76236C3.68902 9.19038 3.66465 9.84271 3.29725 10.2357C2.9867 10.59 2.45059 10.7225 2.01133 10.5507C1.60269 10.3982 1.29839 10.0027 1.25965 9.56778C1.20029 9.03105 1.5652 8.48431 2.08506 8.33623ZM1.90323 8.58491C1.97259 8.6174 2.0382 8.69176 2.12193 8.67114C2.36311 8.62303 2.6068 8.58929 2.84986 8.55304C2.55806 8.38121 2.18878 8.41995 1.90323 8.58491ZM1.58832 8.88358C1.98759 9.07791 2.36686 9.30785 2.75551 9.52217C2.77988 9.41595 2.803 9.30972 2.82549 9.20288C2.52307 8.95856 2.17941 8.76549 1.80576 8.65302C1.7314 8.728 1.65892 8.80485 1.58832 8.88358ZM2.23565 8.70176C2.33187 8.78111 2.42872 8.89671 2.56806 8.87421C2.78613 8.86359 3.00482 8.85359 3.22352 8.84297C3.17165 8.77986 3.11542 8.723 3.05356 8.67051C2.783 8.61303 2.5037 8.64677 2.23565 8.70176ZM2.61242 8.94169C2.6974 9.01667 2.78176 9.09478 2.88298 9.14789C3.04981 9.16164 3.21727 9.14914 3.3841 9.14352C3.35598 9.07791 3.32786 9.01293 3.29912 8.94857C3.0723 8.90795 2.83986 8.90795 2.61242 8.94169ZM1.43273 9.30098C1.79951 9.54841 2.20066 9.75086 2.62555 9.8777C2.63679 9.77585 2.75926 9.63401 2.64429 9.55653C2.30001 9.32035 1.92948 9.11977 1.5452 8.95544C1.49272 9.06541 1.45522 9.18101 1.43273 9.30098ZM3.22851 9.20475C3.19727 9.62527 3.02544 10.0077 2.82174 10.3694C3.276 10.2145 3.49345 9.70087 3.42659 9.24849C3.36035 9.23349 3.29475 9.21912 3.22851 9.20475ZM2.49995 10.2551C2.53557 10.2826 2.60618 10.3363 2.64179 10.3638C2.98983 10.0958 3.10917 9.64276 3.15603 9.22662C3.09792 9.2235 2.9817 9.21787 2.92359 9.21475C2.81425 9.57403 2.67803 9.92456 2.49995 10.2551ZM1.40836 9.39907C1.42523 9.54904 1.39961 9.74461 1.54145 9.84333C1.79951 10.0439 2.11068 10.1695 2.43372 10.2151C2.48058 10.1258 2.52682 10.0358 2.57243 9.94581C2.16941 9.79585 1.79139 9.59215 1.40836 9.39907ZM1.59831 10.0033C1.56957 10.0895 1.59831 10.1226 1.68579 10.102C1.71578 10.0152 1.68641 9.98205 1.59831 10.0033ZM1.77139 10.0939C1.77952 10.2826 1.94322 10.3669 2.10381 10.4088C2.10756 10.212 1.94572 10.1195 1.77139 10.0939ZM2.11755 10.2407C2.16192 10.312 2.19941 10.3907 2.26314 10.4488C2.37374 10.4919 2.49495 10.4632 2.6093 10.4557C2.50495 10.2838 2.30563 10.2357 2.11755 10.2407Z" fill="#FDF7FB"></path>
  <path d="M21.2676 8.33509C21.9512 8.10952 22.7491 8.65313 22.7616 9.37857C22.8266 9.98153 22.3392 10.562 21.7387 10.6164C21.0908 10.7176 20.4284 10.1684 20.4334 9.50728C20.3866 8.98054 20.7652 8.47567 21.2676 8.33509ZM21.0689 8.5844C21.1401 8.62001 21.2101 8.69312 21.2976 8.67062C21.5394 8.62314 21.7831 8.58815 22.0274 8.55253C21.7306 8.3832 21.3594 8.42319 21.0689 8.5844ZM20.7621 8.88494C21.1607 9.08052 21.5394 9.31296 21.9312 9.5204C21.9524 9.41793 22.0155 9.31546 21.9961 9.20861C21.7081 8.9493 21.3519 8.77872 20.9877 8.65375C20.9108 8.72873 20.8358 8.80559 20.7621 8.88494ZM21.4107 8.70062C21.4957 8.76872 21.5725 8.8762 21.6925 8.8737C21.9262 8.86932 22.1599 8.85183 22.3942 8.8537C22.3454 8.79122 22.2979 8.72811 22.2398 8.67562C21.9668 8.60876 21.6819 8.64626 21.4107 8.70062ZM21.7899 8.9418C21.8743 9.01803 21.9562 9.10301 22.0611 9.15175C22.2273 9.16112 22.3935 9.14987 22.5597 9.14238C22.5329 9.07989 22.506 9.01678 22.4798 8.9543C22.253 8.90619 22.0186 8.90619 21.7899 8.9418ZM20.6921 8.99117C20.6446 9.09051 20.624 9.19861 20.6021 9.30546C20.9658 9.54415 21.3594 9.73472 21.7693 9.87906C21.8118 9.79408 21.8531 9.70848 21.8937 9.62288C21.6031 9.39356 21.2726 9.21923 20.9439 9.0524C20.8621 9.02928 20.7783 8.94743 20.6921 8.99117ZM22.0643 9.31483C21.9624 9.63912 21.8312 9.95279 21.6756 10.2552C21.7118 10.284 21.7831 10.3414 21.8193 10.3702C22.1617 10.0878 22.3054 9.63412 22.3104 9.20299C22.2255 9.22735 22.0874 9.19861 22.0643 9.31483ZM22.3992 9.19611C22.3629 9.63475 22.2073 10.0515 21.9374 10.3996C22.3985 10.2546 22.6891 9.74347 22.596 9.27234C22.551 9.20986 22.4635 9.22048 22.3992 9.19611ZM20.594 9.40856C20.6009 9.5454 20.5728 9.71598 20.6859 9.81908C20.9302 10.0303 21.242 10.1496 21.5556 10.2121C21.6687 10.1802 21.6881 10.0346 21.7475 9.94717C21.3476 9.80033 20.9739 9.59726 20.594 9.40856ZM20.7721 10.0097C20.7471 10.0965 20.7777 10.1277 20.8646 10.104C20.8902 10.0159 20.8589 9.98403 20.7721 10.0097ZM20.9514 10.0971C20.9602 10.2858 21.1139 10.3764 21.2813 10.4102C21.277 10.2183 21.1264 10.1196 20.9514 10.0971ZM21.2945 10.234C21.3357 10.3058 21.3688 10.3858 21.4288 10.4458C21.5288 10.4845 21.6394 10.4727 21.745 10.4802C21.7193 10.2658 21.4638 10.2446 21.2945 10.234Z" fill="#FDF8FD"></path>
  <path d="M1.90323 8.58501C2.18878 8.42005 2.55806 8.38131 2.84986 8.55314C2.6068 8.58938 2.36311 8.62313 2.12192 8.67124C2.03819 8.69186 1.97259 8.6175 1.90323 8.58501Z" fill="#C6363B"></path>
  <path d="M21.0689 8.58433C21.3594 8.42312 21.7306 8.38313 22.0274 8.55246C21.7831 8.58808 21.5394 8.62307 21.2976 8.67056C21.2101 8.69305 21.1401 8.61995 21.0689 8.58433Z" fill="#C63136"></path>
  <path d="M8.0679 8.50433C8.33095 8.42435 8.53465 8.64055 8.69648 8.81363C8.48279 8.84737 8.26534 8.84924 8.05103 8.82175C8.05415 8.71553 8.0604 8.60993 8.0679 8.50433Z" fill="#576DB5"></path>
  <path d="M14.4575 8.50562C14.5743 8.50874 14.6918 8.51124 14.8086 8.51436C14.8286 8.73556 14.8474 8.95612 14.8649 9.17732C14.6456 9.06609 14.3769 8.82491 14.1332 9.01423C13.8551 9.20356 13.9407 9.57784 13.987 9.85776C13.8139 9.78028 13.6502 9.65282 13.6071 9.45849C13.5321 9.19981 13.5221 8.82241 13.7995 8.6812C14.0495 8.56685 14.2888 8.7643 14.4943 8.88427C14.4793 8.75805 14.4637 8.63246 14.4575 8.50562ZM14.5793 9.93337C14.5893 9.95961 14.6093 10.0121 14.6193 10.0383C14.693 10.0096 14.7674 9.98086 14.8418 9.95274C14.9617 10.2014 15.0192 10.5376 14.8155 10.7588C14.6287 10.9837 14.3144 10.9825 14.0501 11.0225C14.0126 11.398 14.2657 11.7104 14.3113 12.0728C14.3956 12.6464 14.5137 13.2188 14.7487 13.7518C14.6387 13.6761 14.5331 13.5943 14.4325 13.5081C14.1169 12.9557 14.0276 12.3178 13.927 11.6998C13.8833 11.3524 13.6077 11.0712 13.6646 10.705C13.9245 10.69 14.2244 10.6925 14.4169 10.4851C14.5712 10.3464 14.5762 10.1252 14.5793 9.93337Z" fill="#D2D3D8"></path>
  <path d="M17.3155 8.56189C17.6267 8.67061 17.7854 9.0024 17.7735 9.31669C17.7916 9.68535 17.5754 10.0146 17.3161 10.2571C17.1068 10.4445 16.8812 10.612 16.6707 10.7969C16.292 10.7719 15.9627 10.9706 15.6684 11.1825C15.7465 11.0175 15.8377 10.8544 15.9758 10.7313C16.3982 10.3421 16.9468 10.074 17.2555 9.57163C17.4442 9.26983 17.4436 8.88618 17.3155 8.56189ZM15.9496 12.0672C16.0046 11.9104 16.0814 11.7329 16.2651 11.6979C16.4976 11.6098 16.7244 11.7729 16.8131 11.9835C16.6832 12.0172 16.5244 12.0154 16.4326 12.1285C16.3207 12.2484 16.3239 12.4471 16.4438 12.5602C16.7094 12.8676 17.0006 13.1776 17.1105 13.5806C17.218 13.9224 17.1749 14.3379 16.9006 14.5916C16.5676 14.9452 16.0271 14.9609 15.5847 14.8496C15.3035 14.7703 14.9998 14.6659 14.8205 14.4197C15.2923 14.6059 15.859 14.7053 16.3257 14.4547C16.7194 14.2473 16.8775 13.7437 16.7494 13.3307C16.6325 12.8277 16.2383 12.4721 15.9496 12.0672ZM10.2523 13.4712C10.8609 13.3338 11.3227 12.8864 11.7019 12.4171C11.7932 12.5852 11.8806 12.7552 11.9856 12.9158C11.5651 13.2425 11.1821 13.6656 10.6328 13.768C10.4904 13.6681 10.3585 13.5331 10.1848 13.4931C9.90991 13.4912 9.61936 13.6112 9.45003 13.8318C9.3713 14.0167 9.27758 14.1961 9.19635 14.3804C9.1726 14.734 9.1851 15.0902 9.1876 15.4445C9.17948 15.6519 9.43378 15.7819 9.36755 15.9981C9.32069 16.2643 9.29695 16.5336 9.31007 16.8041C9.15573 16.8416 9.0064 16.9022 8.87518 16.9922C8.73897 16.9397 8.6115 16.8585 8.56464 16.7129C8.70647 16.6442 8.89393 16.5973 8.95141 16.4305C8.98265 16.2668 8.92517 16.0993 8.95891 15.9362C8.9889 15.7831 9.0039 15.6276 9.00515 15.472C8.93954 15.4014 8.81582 15.357 8.8177 15.2458C8.79833 14.8109 8.82644 14.3754 8.80895 13.9405C8.84644 13.9305 8.92079 13.9117 8.95828 13.9018C8.94829 13.4406 9.44128 13.1476 9.85992 13.2088C10.013 13.2563 10.1274 13.3769 10.2523 13.4712ZM11.9081 15.4795C12.0856 15.0958 12.5255 14.909 12.9241 14.859C12.966 14.969 13.0091 15.0789 13.0591 15.1864C12.8117 15.2983 12.5424 15.4007 12.3668 15.6188C12.2674 15.74 12.2631 15.905 12.2337 16.0531C12.015 15.9643 11.7994 15.7282 11.9081 15.4795ZM9.11324 17.8632C9.14761 17.8414 9.21572 17.7989 9.24946 17.7776C9.45066 17.777 9.50564 17.9445 9.55063 18.1075C9.46128 18.2256 9.37755 18.3468 9.2932 18.4681C9.07575 18.3475 9.12512 18.0707 9.11324 17.8632ZM9.80931 18.1769C9.85555 18.0013 9.97552 17.8626 10.1311 17.7726C10.2567 17.8563 10.3485 17.9769 10.4391 18.0957C10.3017 18.2394 10.2036 18.4137 10.1174 18.5912C9.97927 18.4824 9.87367 18.3406 9.80931 18.1769ZM14.0038 18.2412C14.0782 18.0938 14.1669 17.9188 14.3613 17.932C14.4444 18.0182 14.53 18.1025 14.6131 18.1894L14.6431 18.2231C14.5081 18.3487 14.4006 18.4981 14.3 18.6518C14.1738 18.5362 14.0826 18.3912 14.0038 18.2412Z" fill="#D2D3D7"></path>
  <path d="M1.58832 8.88364C1.65892 8.80491 1.73141 8.72806 1.80576 8.65308C2.17941 8.76555 2.52307 8.95862 2.8255 9.20293C2.803 9.30978 2.77988 9.416 2.75551 9.52223C2.36687 9.30791 1.98759 9.07797 1.58832 8.88364ZM20.594 9.40851C20.9739 9.59721 21.3476 9.80028 21.7475 9.94712C21.6881 10.0346 21.6687 10.1802 21.5556 10.212C21.242 10.1496 20.9302 10.0302 20.6859 9.81902C20.5728 9.71593 20.6009 9.54535 20.594 9.40851Z" fill="#EF0C14"></path>
  <path d="M2.23566 8.70188C2.50371 8.64689 2.78301 8.61315 3.05357 8.67064C3.11543 8.72312 3.17166 8.77998 3.22353 8.84309C3.00483 8.85371 2.78614 8.86371 2.56807 8.87433C2.42873 8.89683 2.33188 8.78123 2.23566 8.70188Z" fill="#E31219"></path>
  <path d="M20.7621 8.88488C20.8358 8.80552 20.9108 8.72867 20.9877 8.65369C21.3519 8.77865 21.7081 8.94923 21.9961 9.20854C22.0155 9.31539 21.9524 9.41786 21.9312 9.52034C21.5394 9.31289 21.1607 9.08045 20.7621 8.88488Z" fill="#EF0D14"></path>
  <path d="M21.4107 8.70058C21.6819 8.64622 21.9668 8.60873 22.2398 8.67558C22.2979 8.72807 22.3454 8.79118 22.3942 8.85366C22.1599 8.85179 21.9262 8.86928 21.6925 8.87366C21.5725 8.87616 21.4957 8.76869 21.4107 8.70058Z" fill="#DC151B"></path>
  <path d="M15.8228 8.77369C16.0377 8.69746 16.2452 8.83805 16.3108 9.04425C16.114 9.12923 15.9527 9.27231 15.8165 9.43477C15.8315 9.21483 15.8371 8.99426 15.8228 8.77369Z" fill="#D3D3D8"></path>
  <path d="M2.61243 8.94186C2.83987 8.90812 3.07231 8.90812 3.29912 8.94874C3.32787 9.0131 3.35598 9.07808 3.3841 9.14369C3.21727 9.14931 3.04981 9.16181 2.88298 9.14806C2.78176 9.09495 2.6974 9.01685 2.61243 8.94186Z" fill="#E1131A"></path>
  <path d="M8.13474 8.97039C8.33657 8.96789 8.52714 9.04975 8.70272 9.14222C8.51214 9.26532 8.26346 9.3328 8.04227 9.25844C8.06289 9.16097 8.00728 9.00788 8.13474 8.97039Z" fill="#566DB5"></path>
  <path d="M21.7899 8.94171C22.0186 8.90609 22.253 8.90609 22.4798 8.9542C22.506 9.01669 22.5329 9.0798 22.5597 9.14228C22.3935 9.14978 22.2273 9.16103 22.0611 9.15165C21.9562 9.10292 21.8743 9.01794 21.7899 8.94171Z" fill="#E21219"></path>
  <path d="M1.43274 9.30098C1.45523 9.18101 1.49272 9.06542 1.54521 8.95544C1.92949 9.11978 2.30001 9.32035 2.6443 9.55654C2.75927 9.63402 2.6368 9.77586 2.62555 9.8777C2.20066 9.75086 1.79952 9.54842 1.43274 9.30098ZM2.28127 14.2803C2.45122 14.1585 2.7224 14.2916 2.7249 14.5015C2.74552 14.7164 2.48372 14.8908 2.29689 14.7739C2.10694 14.6815 2.08569 14.3784 2.28127 14.2803ZM2.74677 14.7833C2.97421 14.7977 3.27101 14.8902 3.34912 15.1288C3.28976 15.2869 3.10168 15.3225 2.97984 15.42C2.853 15.4856 2.7449 15.6275 2.58994 15.6093C2.39062 15.4413 2.47997 15.1463 2.50996 14.9245C2.62368 14.9776 2.7199 15.0576 2.81675 15.1357C2.79301 15.0182 2.76739 14.9014 2.74677 14.7833Z" fill="#F10B13"></path>
  <path d="M20.6921 8.99105C20.7783 8.94731 20.862 9.02916 20.9439 9.05228C21.2726 9.21911 21.6031 9.39344 21.8936 9.62276C21.853 9.70836 21.8118 9.79396 21.7693 9.87894C21.3594 9.7346 20.9658 9.54403 20.6021 9.30534C20.624 9.19849 20.6446 9.0904 20.6921 8.99105ZM1.46208 15.0657C1.45708 14.7739 1.87072 14.7464 2.09254 14.7302C2.05193 14.8495 2.00444 14.9664 1.96133 15.0851C2.0638 15.0207 2.16252 14.9501 2.26187 14.8808C2.33935 15.072 2.32686 15.3013 2.24 15.4869C2.18814 15.6018 2.01881 15.5781 1.94883 15.4944C1.79762 15.3388 1.60267 15.2307 1.46208 15.0657Z" fill="#F10C13"></path>
  <path d="M3.22852 9.20483C3.29475 9.21921 3.36036 9.23358 3.42659 9.24857C3.49345 9.70095 3.276 10.2146 2.82175 10.3695C3.02544 10.0078 3.19727 9.62535 3.22852 9.20483Z" fill="#E11219"></path>
  <path d="M22.0642 9.31485C22.0874 9.19863 22.2255 9.22737 22.3104 9.203C22.3054 9.63414 22.1617 10.0878 21.8193 10.3702C21.7831 10.3415 21.7118 10.284 21.6756 10.2552C21.8312 9.95281 21.9624 9.63914 22.0642 9.31485Z" fill="#EB0F16"></path>
  <path d="M22.3991 9.19617C22.4635 9.22054 22.551 9.20991 22.596 9.2724C22.6891 9.74352 22.3985 10.2546 21.9374 10.3996C22.2073 10.0516 22.3629 9.6348 22.3991 9.19617Z" fill="#E41118"></path>
  <path d="M2.49997 10.2552C2.67805 9.92466 2.81426 9.57413 2.92361 9.21484C2.98172 9.21797 3.09794 9.22359 3.15605 9.22672C3.10919 9.64286 2.98984 10.0959 2.64181 10.3639C2.60619 10.3364 2.53559 10.2827 2.49997 10.2552Z" fill="#E90F16"></path>
  <path d="M8.12598 9.43787C8.30218 9.35351 8.48963 9.42974 8.63147 9.54346C8.47089 9.6072 8.30031 9.63781 8.12848 9.63719C8.12848 9.5872 8.1266 9.48723 8.12598 9.43787Z" fill="#556DB6"></path>
  <path d="M1.40836 9.39917C1.79138 9.59224 2.16941 9.79594 2.57243 9.9459C2.52682 10.0359 2.48058 10.1259 2.43371 10.2152C2.11067 10.1696 1.7995 10.044 1.54145 9.84343C1.39961 9.74471 1.42523 9.54913 1.40836 9.39917ZM22.053 14.7328C22.2473 14.7397 22.4498 14.7715 22.611 14.8877C22.7253 14.9409 22.6872 15.1102 22.5935 15.1645C22.4554 15.2745 22.3167 15.3839 22.1855 15.5026C22.1149 15.5894 21.9361 15.5926 21.8968 15.4738C21.8256 15.3089 21.8237 15.1239 21.8274 14.9477C21.9624 14.8846 22.0611 15.0358 22.1761 15.0821C22.1355 14.9652 22.0905 14.8503 22.053 14.7328Z" fill="#F00C14"></path>
  <path d="M8.83143 9.88208C9.12385 9.94894 9.41815 10.0145 9.69808 10.1251C9.72307 10.1826 9.74744 10.2414 9.77118 10.2995C9.58061 10.2607 9.38941 10.2264 9.19758 10.1964C9.17821 10.785 9.18321 11.3748 9.20258 11.9634C9.08574 12.0203 8.96202 12.0634 8.8358 12.094C8.82643 11.3567 8.8308 10.6194 8.83143 9.88208Z" fill="#D1D3D8"></path>
  <path d="M1.59831 10.0034C1.68642 9.98218 1.71578 10.0153 1.68579 10.1021C1.59831 10.1228 1.56957 10.0897 1.59831 10.0034Z" fill="#BC7D80"></path>
  <path d="M20.7721 10.0096C20.8589 9.98393 20.8902 10.0158 20.8646 10.1039C20.7777 10.1276 20.7471 10.0964 20.7721 10.0096Z" fill="#C86D70"></path>
  <path d="M1.77139 10.094C1.94572 10.1196 2.10756 10.2121 2.10381 10.4089C1.94322 10.367 1.77952 10.2827 1.77139 10.094Z" fill="#C33539"></path>
  <path d="M9.69806 10.1252C9.86176 10.1996 10.053 10.3433 9.98986 10.5501C9.95112 10.7876 9.6462 10.7201 9.47437 10.7726C9.57996 10.6963 9.71305 10.6457 9.78866 10.5345C9.80428 10.4564 9.78428 10.3771 9.77116 10.2996C9.74742 10.2415 9.72305 10.1827 9.69806 10.1252Z" fill="#566DAF"></path>
  <path d="M20.9514 10.097C21.1264 10.1195 21.277 10.2183 21.2813 10.4101C21.1139 10.3763 20.9602 10.2857 20.9514 10.097Z" fill="#CE3439"></path>
  <path d="M2.11755 10.2408C2.30563 10.2358 2.50495 10.2839 2.6093 10.4558C2.49496 10.4633 2.37374 10.492 2.26314 10.4489C2.19941 10.3908 2.16192 10.3121 2.11755 10.2408Z" fill="#CC2B30"></path>
  <path d="M21.2944 10.234C21.4638 10.2446 21.7193 10.2659 21.7449 10.4802C21.6393 10.4727 21.5287 10.4846 21.4288 10.4458C21.3688 10.3858 21.3357 10.3059 21.2944 10.234Z" fill="#CA1D23"></path>
  <path d="M10.3791 10.9431C10.5547 10.86 10.6828 10.7101 10.8103 10.5682C10.8646 10.6607 10.9184 10.7538 10.9702 10.8482C10.7009 11.0181 10.4166 11.1637 10.148 11.3343C10.033 11.2318 9.91739 11.13 9.79492 11.0369C9.99175 11.0306 10.1992 11.035 10.3791 10.9431Z" fill="#CDD3DF"></path>
  <path d="M16.0683 11.5749C16.3001 11.2812 16.8075 11.2993 17.0162 11.6123C17.1987 11.8185 17.1093 12.106 17.0706 12.3478C17 12.4121 16.9044 12.4359 16.82 12.4752C16.8194 12.3109 16.8294 12.1466 16.8131 11.9835C16.7244 11.7729 16.4976 11.6098 16.2651 11.6979C16.0814 11.7329 16.0046 11.9104 15.9496 12.0672C15.9477 11.8985 15.9477 11.7086 16.0683 11.5749ZM8.14788 13.2394C8.23036 13.2151 8.31409 13.1951 8.39781 13.1757C8.37282 13.3194 8.3497 13.4637 8.33158 13.6087C8.47467 13.5418 8.62151 13.4819 8.77272 13.4362C8.78584 13.5862 8.79833 13.7362 8.80646 13.8868C8.74335 13.8199 8.68024 13.753 8.61651 13.6868C8.58901 14.2504 8.61588 14.8153 8.61026 15.3789C8.59839 15.4707 8.61838 15.5976 8.51466 15.6438C8.38719 15.6925 8.24848 15.6969 8.11476 15.7157C8.11101 15.6238 8.10664 15.5319 8.10226 15.4401C8.17662 15.412 8.2516 15.3845 8.32658 15.3576C8.3622 14.9071 8.3322 14.4541 8.3447 14.0023C8.3697 13.7293 8.19911 13.4987 8.14788 13.2394Z" fill="#5A6DB1"></path>
  <path d="M7.80356 12.9126C7.9204 12.8801 8.041 12.872 8.16159 12.8607C8.07474 13.0082 8.00476 13.1656 7.97164 13.3343L7.95227 13.4093C7.89416 13.2456 7.89104 13.0644 7.80356 12.9126Z" fill="#6C81B9"></path>
  <path d="M1.857 13.6049C1.91448 13.4862 1.96634 13.3075 2.12693 13.3063C2.36936 13.315 2.61055 13.3444 2.85361 13.3481C3.02794 13.355 3.08668 13.5356 3.14041 13.6706C3.27413 13.7043 3.46221 13.7218 3.50594 13.8811C3.55718 14.1129 3.62341 14.341 3.68465 14.5709C3.72214 14.7322 3.57655 14.8384 3.45971 14.914C3.47158 15.0646 3.51594 15.2645 3.36098 15.3589C3.16416 15.4726 2.97483 15.5976 2.78426 15.7206C2.64242 15.8106 2.49246 15.7069 2.37311 15.6307C2.24065 15.6719 2.09506 15.7569 1.95822 15.6825C1.82138 15.5894 1.71266 15.4613 1.57645 15.3676C1.48584 15.2926 1.36588 15.2351 1.32651 15.1164C1.30402 15.0027 1.34401 14.8909 1.36338 14.7803C1.25778 14.6815 1.12156 14.5491 1.19404 14.391C1.28715 14.1829 1.36775 13.9705 1.44523 13.7568C1.51084 13.5906 1.70891 13.5987 1.857 13.6049ZM2.02758 13.5337C1.99259 13.7499 2.16067 13.933 2.27689 14.0979C2.42872 14.1454 2.39998 13.8886 2.46996 13.803C2.51558 13.9086 2.54119 14.0211 2.56994 14.1329C2.74739 14.0692 2.85549 13.9005 2.93672 13.7393C2.99358 13.6599 2.96858 13.5293 2.86798 13.5012C2.69365 13.4519 2.50808 13.4794 2.32937 13.4606C2.22628 13.4625 2.08694 13.4194 2.02758 13.5337ZM1.41711 14.2335C1.37837 14.3454 1.27965 14.4678 1.35275 14.5872C1.5527 14.7215 1.79764 14.5847 2.00946 14.5478C1.98072 14.4235 1.87824 14.346 1.79514 14.2585C1.90011 14.2473 2.03258 14.321 2.11693 14.2335C2.0532 14.0111 1.89949 13.8111 1.68829 13.7118C1.52146 13.8386 1.50271 14.0567 1.41711 14.2335ZM2.78738 14.3266C2.9036 14.3316 3.02045 14.3335 3.13667 14.3379C3.05731 14.4266 2.83549 14.4579 2.89548 14.6072C3.04356 14.689 3.2054 14.7521 3.37473 14.7678C3.47595 14.7684 3.57155 14.6797 3.53781 14.5753C3.48158 14.3635 3.42909 14.1504 3.3716 13.9386C3.35161 13.8474 3.21102 13.8061 3.13916 13.8655C2.97983 13.9767 2.83112 14.1304 2.78738 14.3266ZM2.28126 14.2804C2.08569 14.3785 2.10693 14.6815 2.29688 14.774C2.48371 14.8909 2.74552 14.7165 2.7249 14.5016C2.7224 14.2916 2.45122 14.1586 2.28126 14.2804ZM1.4621 15.0658C1.60269 15.2308 1.79764 15.3389 1.94885 15.4945C2.01883 15.5782 2.18816 15.6019 2.24002 15.487C2.32688 15.3014 2.33937 15.0721 2.26189 14.8809C2.16254 14.9502 2.06382 15.0208 1.96135 15.0852C2.00446 14.9665 2.05195 14.8496 2.09256 14.7303C1.87074 14.7465 1.4571 14.774 1.4621 15.0658ZM2.74677 14.7834C2.76739 14.9015 2.793 15.0183 2.81675 15.1358C2.7199 15.0577 2.62367 14.9777 2.50995 14.9246C2.47996 15.1464 2.39061 15.4413 2.58993 15.6094C2.74489 15.6275 2.85299 15.4857 2.97983 15.4201C3.10167 15.3226 3.28975 15.287 3.34911 15.1289C3.27101 14.8902 2.97421 14.7978 2.74677 14.7834Z" fill="#FFF3F9"></path>
  <path d="M21.1863 13.3806C21.3 13.32 21.4331 13.3469 21.5569 13.3394C21.7224 13.3407 21.8874 13.2938 22.0536 13.3125C22.1923 13.3369 22.2354 13.4894 22.2829 13.6012C22.4291 13.6 22.6172 13.5881 22.6903 13.7468C22.7759 13.9599 22.8515 14.1767 22.9459 14.386C23.0208 14.546 22.8921 14.6891 22.7728 14.7784C22.8059 14.9284 22.8771 15.1252 22.7309 15.2395C22.5553 15.3764 22.3841 15.5195 22.2154 15.6644C22.0736 15.7769 21.8993 15.6875 21.7687 15.6063C21.6987 15.6588 21.6343 15.7225 21.5512 15.7532C21.3806 15.7825 21.2513 15.6488 21.1207 15.5651C20.9989 15.477 20.8564 15.4214 20.7402 15.3251C20.6302 15.2239 20.6752 15.0646 20.684 14.9352C20.574 14.8453 20.4321 14.7397 20.4596 14.5778C20.5171 14.3473 20.5846 14.1192 20.6358 13.8874C20.6771 13.7124 20.882 13.7049 21.0251 13.6706C21.0632 13.5681 21.0739 13.4319 21.1863 13.3806ZM21.4981 13.4756C21.3919 13.4825 21.2426 13.4631 21.1901 13.5825C21.1788 13.8287 21.3807 14.0174 21.5625 14.1529C21.5993 14.0367 21.6287 13.918 21.6612 13.8005C21.7043 13.9011 21.7399 14.0049 21.7843 14.1048C21.9074 14.1248 21.9443 13.9686 22.0092 13.893C22.0855 13.7705 22.1986 13.5618 22.0342 13.4606C21.8555 13.4469 21.6768 13.4781 21.4981 13.4756ZM22.3367 13.7737C22.1823 13.8993 22.0705 14.0761 22.0211 14.2698C22.143 14.2698 22.2648 14.2629 22.3866 14.261C22.3067 14.3529 22.1255 14.3973 22.1417 14.5422C22.3616 14.6047 22.6872 14.7578 22.8403 14.5054C22.7434 14.2935 22.6647 14.0748 22.581 13.858C22.5572 13.7499 22.4223 13.7043 22.3367 13.7737ZM20.7514 14.0155C20.7233 14.261 20.5627 14.4941 20.6283 14.744C20.872 14.8034 21.1051 14.6872 21.3069 14.5622C21.2094 14.4797 21.1032 14.4098 20.9964 14.3404C21.1226 14.336 21.2494 14.3329 21.3757 14.3229C21.3 14.1342 21.1688 13.9605 20.9901 13.8605C20.8758 13.788 20.7539 13.8974 20.7514 14.0155ZM21.5812 14.2648C21.3975 14.3416 21.36 14.6141 21.52 14.7372C21.6774 14.8953 21.9811 14.7822 21.9924 14.5585C22.0374 14.3366 21.7743 14.1598 21.5812 14.2648ZM21.2269 14.8009C21.0464 14.869 20.8008 14.9484 20.7989 15.1821C20.9995 15.3201 21.2063 15.4489 21.4094 15.5838C21.4962 15.6507 21.6106 15.5932 21.6462 15.4976C21.6918 15.3083 21.6631 15.1114 21.6312 14.9221C21.5181 14.9834 21.4181 15.064 21.315 15.1396C21.345 15.0265 21.3807 14.9152 21.415 14.804C21.3532 14.7915 21.2876 14.7709 21.2269 14.8009ZM22.053 14.7328C22.0905 14.8503 22.1355 14.9652 22.1761 15.0821C22.0611 15.0358 21.9624 14.8846 21.8274 14.9477C21.8237 15.1239 21.8255 15.3089 21.8968 15.4739C21.9361 15.5926 22.1148 15.5894 22.1854 15.5026C22.3167 15.3839 22.4554 15.2745 22.5935 15.1646C22.6872 15.1102 22.7253 14.9409 22.611 14.8878C22.4497 14.7715 22.2473 14.7397 22.053 14.7328Z" fill="#FFF2F4"></path>
  <path d="M2.02758 13.5337C2.08694 13.4193 2.22628 13.4624 2.32938 13.4605C2.50808 13.4793 2.69366 13.4518 2.86799 13.5012C2.96859 13.5293 2.99358 13.6599 2.93672 13.7392C2.85549 13.9004 2.7474 14.0691 2.56994 14.1329C2.5412 14.021 2.51558 13.9086 2.46997 13.803C2.39999 13.8886 2.42873 14.1454 2.27689 14.0979C2.16067 13.9329 1.99259 13.7498 2.02758 13.5337ZM1.41712 14.2335C1.50272 14.0566 1.52147 13.8386 1.6883 13.7117C1.89949 13.8111 2.0532 14.011 2.11694 14.2335C2.03258 14.321 1.90012 14.2472 1.79514 14.2585C1.87825 14.3459 1.98072 14.4234 2.00946 14.5478C1.79764 14.5846 1.55271 14.7215 1.35276 14.5871C1.27965 14.4678 1.37838 14.3453 1.41712 14.2335ZM22.3367 13.7736C22.4223 13.7042 22.5572 13.7498 22.581 13.8579C22.6647 14.0748 22.7435 14.2935 22.8403 14.5053C22.6872 14.7577 22.3617 14.6046 22.1417 14.5421C22.1255 14.3972 22.3067 14.3528 22.3867 14.261C22.2648 14.2628 22.143 14.2691 22.0211 14.2697C22.0705 14.076 22.1823 13.8992 22.3367 13.7736ZM2.78739 14.3266C2.83113 14.1304 2.97984 13.9767 3.13917 13.8654C3.21103 13.8061 3.35162 13.8473 3.37161 13.9386C3.4291 14.1504 3.48158 14.3634 3.53782 14.5753C3.57156 14.6796 3.47596 14.7683 3.37473 14.7677C3.2054 14.7521 3.04357 14.689 2.89548 14.6071C2.8355 14.4578 3.05732 14.4265 3.13667 14.3378C3.02045 14.3334 2.90361 14.3316 2.78739 14.3266ZM20.7515 14.0154C20.754 13.8973 20.8758 13.788 20.9902 13.8604C21.1689 13.9604 21.3001 14.1341 21.3757 14.3228C21.2495 14.3328 21.1226 14.3359 20.9964 14.3403C21.1033 14.4097 21.2095 14.4797 21.307 14.5621C21.1051 14.6871 20.8721 14.8033 20.6284 14.744C20.5628 14.494 20.7234 14.261 20.7515 14.0154ZM21.5813 14.2647C21.7743 14.1597 22.0374 14.3366 21.9924 14.5584C21.9811 14.7821 21.6775 14.8952 21.52 14.7371C21.3601 14.614 21.3976 14.3416 21.5813 14.2647ZM21.227 14.8008C21.2876 14.7708 21.3532 14.7915 21.415 14.804C21.3807 14.9152 21.3451 15.0264 21.3151 15.1395C21.4182 15.0639 21.5181 14.9833 21.6312 14.922C21.6631 15.1114 21.6918 15.3082 21.6462 15.4975C21.6106 15.5931 21.4963 15.6506 21.4094 15.5837C21.2064 15.4488 20.9995 15.3201 20.799 15.182C20.8008 14.9483 21.0464 14.8689 21.227 14.8008Z" fill="#F20B13"></path>
  <path d="M21.4981 13.4757C21.6768 13.4782 21.8555 13.4469 22.0342 13.4607C22.1986 13.5619 22.0855 13.7706 22.0092 13.8931C21.9443 13.9687 21.9074 14.1249 21.7843 14.1049C21.7399 14.0049 21.7043 13.9012 21.6612 13.8006C21.6287 13.918 21.5994 14.0368 21.5625 14.153C21.3807 14.0174 21.1788 13.8287 21.1901 13.5825C21.2426 13.4632 21.3919 13.4825 21.4981 13.4757Z" fill="#F30B12"></path>
  <path d="M8.6165 13.6868C8.68023 13.753 8.74334 13.8199 8.80645 13.8867L8.80895 13.9405C8.82644 14.3753 8.79832 14.8109 8.81769 15.2457C8.81582 15.357 8.93954 15.4013 9.00515 15.4719C9.0039 15.6275 8.9889 15.7831 8.95891 15.9362C8.92517 16.0993 8.98265 16.2667 8.95141 16.4304C8.89392 16.5973 8.70647 16.6441 8.56463 16.7129C8.37906 16.6547 8.22722 16.5379 8.13912 16.3623C8.27596 16.3967 8.41217 16.4523 8.55464 16.4473C8.74084 16.3973 8.79582 16.1074 8.64024 15.9937C8.47653 15.9093 8.28596 15.9081 8.10663 15.8887C8.10913 15.845 8.11288 15.7587 8.11475 15.7156C8.24847 15.6969 8.38718 15.6925 8.51465 15.6438C8.61837 15.5975 8.59838 15.4707 8.61025 15.3788C8.61587 14.8152 8.589 14.2504 8.6165 13.6868Z" fill="#043083"></path>
  <path d="M14.2794 14.0955C14.4169 14.1717 14.5487 14.256 14.6805 14.3404C14.6518 14.5997 14.7836 14.8321 14.873 15.0658C14.5424 14.849 14.3425 14.4804 14.2794 14.0955Z" fill="#CFD3DE"></path>
  <path d="M15.6634 15.5513C15.8746 15.5457 16.0858 15.5325 16.2964 15.5138C15.7896 16.0405 15.589 16.7878 15.6322 17.5058C15.6322 17.7126 15.6921 17.9257 15.6365 18.1294C15.5541 18.2774 15.3516 18.2662 15.2098 18.3256C15.1604 18.4087 15.1104 18.4911 15.0604 18.5736C14.9323 18.4724 14.8067 18.3687 14.6812 18.265C14.7511 18.1612 14.7961 18.0075 14.943 17.9944C15.1048 17.9638 15.3104 17.9007 15.286 17.6939C15.2404 16.9678 15.216 16.1711 15.6634 15.5513Z" fill="#D2D3D6"></path>
  <path d="M8.10663 15.8887C8.28596 15.908 8.47653 15.9093 8.64024 15.9936C8.79582 16.1074 8.74084 16.3973 8.55464 16.4473C8.41217 16.4523 8.27596 16.3967 8.13912 16.3623C8.13162 16.2142 8.19785 16.0811 8.27846 15.9618C8.22097 15.9374 8.16349 15.913 8.10663 15.8887Z" fill="#586DB3"></path>
  <path d="M13.8245 15.9169C13.9239 15.9512 14.0245 15.9825 14.1244 16.0143C14.1444 16.0931 14.1644 16.1718 14.1819 16.2518C14.0457 16.1599 13.9051 16.065 13.8245 15.9169Z" fill="#C8CDE1"></path>
  <path d="M10.1311 17.7726C10.2592 17.7682 10.3873 17.7713 10.516 17.7738C10.5529 17.9257 10.591 18.0781 10.6297 18.23C10.5622 18.1906 10.4985 18.1456 10.4391 18.0956C10.3485 17.9769 10.2567 17.8563 10.1311 17.7726Z" fill="#586EAF"></path>
  <path d="M13.4908 17.9225C13.6096 17.9037 13.7302 17.8944 13.8501 17.8856C13.857 18.0387 13.8645 18.1918 13.8732 18.3455C13.8557 18.3143 13.8214 18.2524 13.8045 18.2212C13.7558 18.1324 13.7083 18.0425 13.6614 17.9531C13.6189 17.9456 13.5333 17.93 13.4908 17.9225Z" fill="#4C68A4"></path>
  <path d="M14.3612 17.932C14.4044 17.9364 14.49 17.9451 14.5331 17.9495C14.5587 18.0295 14.5843 18.1101 14.613 18.1894C14.5299 18.1026 14.4443 18.0182 14.3612 17.932Z" fill="#5A72AE"></path>
  <path d="M18.7964 18.3249C18.8195 18.1949 19.1269 18.1943 19.1419 18.3318C19.0263 18.3305 18.9113 18.3336 18.7964 18.3249Z" fill="#2A3A46"></path>
  <path d="M18.7901 18.4193C18.9026 18.3187 19.08 18.3443 19.1944 18.4299C19.2956 18.518 19.3462 18.6474 19.4362 18.7461C19.5562 18.8411 19.7599 18.8848 19.7755 19.0648C19.8348 19.4534 19.4231 19.6658 19.1938 19.9102C18.8726 19.5965 18.5395 19.2916 18.2459 18.951C18.4246 18.7711 18.5902 18.5761 18.7901 18.4193ZM18.6089 18.8198C18.7008 18.9348 18.8064 19.0379 18.9263 19.1235C19.0019 19.016 19.1275 18.8648 19.0094 18.7405C18.8863 18.5936 18.7201 18.7386 18.6089 18.8198ZM19.1825 19.0954C19.1563 19.1241 19.1038 19.1822 19.0775 19.2116L19.0319 19.1785C19.0857 19.3178 19.1894 19.4259 19.3062 19.5153C19.39 19.4165 19.5305 19.2859 19.4231 19.151C19.3693 19.0623 19.2662 19.0916 19.1825 19.0954ZM4.3751 19.0685C4.61129 18.8586 4.82936 18.6286 5.06555 18.4193C5.27674 18.5874 5.47169 18.7761 5.63727 18.9898C5.58854 19.0373 5.5398 19.0854 5.49169 19.1335C5.37984 19.0341 5.26925 18.9335 5.15927 18.8317C5.09179 18.8998 5.02368 18.9679 4.9562 19.036C5.04993 19.1366 5.14365 19.2372 5.238 19.3372C5.20176 19.3984 5.16552 19.459 5.12928 19.5203C5.00806 19.4209 4.88934 19.3197 4.77 19.2185C4.62504 19.3609 4.47758 19.5009 4.34261 19.6527C4.25326 19.5609 4.16391 19.469 4.07581 19.3765C4.17266 19.2709 4.27013 19.166 4.3751 19.0685ZM9.51814 21.0655C9.77932 21.1067 10.0593 21.1292 10.2854 21.2792C10.4454 21.4016 10.4023 21.6272 10.356 21.7953C10.3498 21.8147 10.3379 21.8547 10.3317 21.8746C10.2417 22.0833 10.2948 22.3958 10.0449 22.5001C9.7687 22.5676 9.49565 22.4301 9.23072 22.3683C9.2857 21.9259 9.42504 21.5004 9.51814 21.0655ZM9.79869 21.3379C9.78745 21.4529 9.77682 21.5685 9.76808 21.6847C9.86055 21.6591 10.0536 21.7047 10.0411 21.5554C10.0742 21.4141 9.91304 21.346 9.79869 21.3379ZM9.68622 21.8609C9.63999 21.9909 9.61374 22.1265 9.60437 22.2645C9.71684 22.2552 9.86868 22.2927 9.93116 22.1677C9.94178 22.0833 9.91679 22.0009 9.90554 21.919C9.83243 21.8996 9.75933 21.8803 9.68622 21.8609Z" fill="#FFFFF8"></path>
  <path d="M18.6089 18.8199C18.7201 18.7386 18.8863 18.5937 19.0094 18.7405C19.1275 18.8649 19.0019 19.0161 18.9263 19.1235C18.8063 19.0379 18.7007 18.9348 18.6089 18.8199ZM18.7232 18.8192C18.7838 18.8917 18.8495 18.9592 18.9207 19.0211C18.9419 18.9855 18.985 18.913 19.0063 18.8774C18.9863 18.8405 18.9463 18.7668 18.9269 18.7299C18.8582 18.7586 18.7907 18.7886 18.7232 18.8192Z" fill="#A69A77"></path>
  <path d="M18.7232 18.8192C18.7907 18.7886 18.8582 18.7586 18.9269 18.7299C18.9463 18.7667 18.9863 18.8405 19.0063 18.8773C18.985 18.9129 18.9419 18.9854 18.9207 19.021C18.8495 18.9592 18.7838 18.8917 18.7232 18.8192Z" fill="#323B38"></path>
  <path d="M17.9666 19.108C18.0222 19.0536 18.0784 19.0005 18.1353 18.948C18.2384 19.0555 18.3402 19.1642 18.4427 19.2723C18.4102 19.4485 18.4908 19.6141 18.5402 19.7784C18.3577 19.5478 18.184 19.3073 17.9666 19.108Z" fill="#143362"></path>
  <path d="M19.1825 19.0953C19.2662 19.0915 19.3693 19.0622 19.4231 19.1509C19.5305 19.2859 19.39 19.4164 19.3062 19.5152C19.1894 19.4258 19.0857 19.3177 19.0319 19.1784L19.0775 19.2115C19.16 19.2709 19.2406 19.3321 19.3218 19.394C19.3443 19.3315 19.3668 19.2684 19.39 19.2065C19.3212 19.1684 19.2519 19.1309 19.1825 19.0953Z" fill="#9B916E"></path>
  <path d="M19.0775 19.2116C19.1038 19.1822 19.1563 19.1241 19.1825 19.0953C19.2519 19.131 19.3212 19.1684 19.39 19.2066C19.3668 19.2684 19.3444 19.3315 19.3219 19.394C19.2406 19.3322 19.16 19.2709 19.0775 19.2116Z" fill="#3B4342"></path>
  <path d="M17.8279 19.3691C17.8847 19.3135 17.9422 19.2579 18.0003 19.2035C18.2065 19.4534 18.4165 19.7034 18.5852 19.9814C18.7451 20.2176 18.5977 20.5706 18.3384 20.6625C18.1653 20.7356 17.9797 20.665 17.8041 20.645C17.7923 20.6237 17.7691 20.5825 17.7579 20.5613C17.6067 20.2913 17.4011 20.057 17.2255 19.804C17.3155 19.7334 17.4061 19.664 17.4973 19.5946C17.7141 19.8346 17.8729 20.1214 18.0972 20.3544C18.2203 20.4963 18.4764 20.3195 18.3952 20.1557C18.234 19.8746 18.0034 19.6403 17.8279 19.3691Z" fill="#FFFFF4"></path>
  <path d="M5.59291 19.4321C5.76724 19.3121 5.99968 19.3308 6.19525 19.3733C6.41832 19.4289 6.55266 19.6251 6.64514 19.8213C6.71075 20.1587 6.55204 20.4918 6.28648 20.6974C5.90658 20.9217 5.37922 20.7142 5.21801 20.3093C5.17989 19.97 5.30424 19.6258 5.59291 19.4321ZM5.96406 19.6526C5.67414 19.7663 5.39734 20.2518 5.71913 20.4705C6.06904 20.523 6.38833 20.1144 6.28835 19.7807C6.22275 19.6664 6.08903 19.6164 5.96406 19.6526Z" fill="#FFFFF6"></path>
  <path d="M6.01964 19.7132C6.17273 19.6714 6.31894 19.8495 6.25396 19.9919C6.18772 20.1694 6.05213 20.3337 5.87155 20.3999C5.71784 20.4531 5.56788 20.2806 5.62849 20.1375C5.70285 19.9619 5.81719 19.7545 6.01964 19.7132Z" fill="#023185"></path>
  <path d="M6.64513 19.8215C6.6545 19.794 6.67449 19.7396 6.68449 19.7128C6.76884 19.8721 6.77322 20.0539 6.77697 20.2301C6.86444 20.2008 6.9513 20.1539 7.04565 20.1539L7.09188 20.1577C6.91256 20.2932 6.71511 20.4332 6.63763 20.655C6.52766 20.8993 6.61826 21.1693 6.74323 21.388C6.50579 21.2517 6.47517 20.9712 6.46455 20.725C6.42018 20.7181 6.33146 20.7044 6.28647 20.6975C6.55202 20.4919 6.71073 20.1589 6.64513 19.8215Z" fill="#28334A"></path>
  <path d="M18.6745 20.0352C18.8064 20.0639 18.8051 20.3738 18.6714 20.3988C18.6739 20.277 18.6751 20.1564 18.6745 20.0352Z" fill="#2F3C42"></path>
  <path d="M16.3151 20.2614C16.4138 20.2145 16.5126 20.1677 16.6113 20.1227C16.7669 20.3732 16.91 20.6307 17.0549 20.8869C17.0974 20.9393 17.1143 21.0293 17.1874 21.0487C17.3261 20.9937 17.4517 20.9125 17.5823 20.8425C17.6179 20.9112 17.6529 20.9812 17.6873 21.0512C17.4592 21.1893 17.2305 21.3274 16.9918 21.4473C16.7456 21.0656 16.5001 20.6769 16.3151 20.2614ZM8.31282 20.6632C8.60462 20.7475 8.89079 20.8512 9.17259 20.9637C9.15947 21.0312 9.14573 21.0987 9.1326 21.1668C9.02951 21.1462 8.92641 21.1262 8.82331 21.1049C8.69397 21.4473 8.58087 21.7966 8.44028 22.1353C8.33531 22.0934 8.23034 22.0516 8.12537 22.0097C8.20784 21.7573 8.29532 21.5061 8.38405 21.2555C8.40842 21.1955 8.43279 21.1362 8.4559 21.0768C8.46278 21.0581 8.47527 21.0206 8.48215 21.0018C8.3953 20.9368 8.30469 20.8769 8.21534 20.8163C8.23971 20.7775 8.28845 20.7013 8.31282 20.6632Z" fill="#FFFFF7"></path>
  <path d="M7.0919 20.1576C7.3662 20.1832 7.69236 20.2013 7.85982 20.4569C8.07164 20.7343 7.95605 21.1005 7.81171 21.3798C7.54365 21.6872 7.02129 21.6759 6.74324 21.3879C6.61827 21.1692 6.52767 20.8993 6.63764 20.655C6.71512 20.4331 6.91257 20.2932 7.0919 20.1576ZM7.21874 20.5262C7.01192 20.6881 6.84196 21.0624 7.0719 21.2673C7.39869 21.3804 7.6555 20.9793 7.60614 20.6893C7.6405 20.4881 7.34371 20.3844 7.21874 20.5262ZM15.6459 20.5712C15.8402 20.5063 16.0296 20.6206 16.2095 20.6812C16.1758 20.7418 16.1427 20.8024 16.1096 20.8637C15.9258 20.868 15.6903 20.7699 15.5522 20.9336C15.3854 21.1167 15.5041 21.3891 15.6253 21.5635C15.7234 21.7147 15.9202 21.6578 16.0702 21.6578C16.0852 21.636 16.1152 21.5916 16.1302 21.5697C16.1808 21.4954 16.2301 21.421 16.2795 21.346C16.3445 21.351 16.4101 21.3573 16.4751 21.3635C16.432 21.5741 16.3395 21.7897 16.1414 21.8971C15.9046 22.0446 15.6172 21.964 15.3741 21.879C15.3279 21.8415 15.2848 21.8015 15.2442 21.7591C15.1735 21.5978 15.0936 21.4316 15.0936 21.2517C15.0586 20.9236 15.3398 20.6362 15.6459 20.5712Z" fill="#FFFFF3"></path>
  <path d="M7.21872 20.5263C7.34369 20.3844 7.64049 20.4882 7.60612 20.6894C7.65548 20.9793 7.39868 21.3804 7.07189 21.2673C6.84194 21.0624 7.0119 20.6881 7.21872 20.5263Z" fill="#06317B"></path>
  <path d="M7.97602 20.5356C8.066 20.5619 8.15723 20.5844 8.25033 20.6013C8.21971 20.6975 8.18909 20.7937 8.15785 20.8899C8.25782 20.9512 8.35717 21.013 8.4559 21.0768C8.43278 21.1361 8.40841 21.1955 8.38404 21.2555C8.34905 21.3054 8.31469 21.3561 8.28032 21.4073C8.28157 21.2892 8.28844 21.1711 8.29906 21.0536C8.16472 20.968 8.05288 21.0568 7.97165 21.168C8.03476 20.9624 8.04101 20.7418 7.97602 20.5356Z" fill="#374654"></path>
  <path d="M8.35529 20.5988C8.60085 20.5957 8.89702 20.6344 9.0526 20.8475C8.81454 20.7806 8.58648 20.685 8.35529 20.5988Z" fill="#253C58"></path>
  <path d="M8.88642 21.2117C8.97827 21.2079 9.0695 21.2254 9.16072 21.2398L9.19821 21.2461C9.00639 21.2936 8.84143 21.3991 8.71771 21.5529C8.76458 21.436 8.78707 21.2967 8.88642 21.2117Z" fill="#2A3E55"></path>
  <path d="M13.1116 21.3098C13.2184 21.2873 13.3253 21.2667 13.4327 21.2461C13.5208 21.6122 13.5352 21.9921 13.6314 22.3571C13.7795 22.3346 13.927 22.3096 14.0751 22.2846C14.0926 22.3546 14.1107 22.4252 14.1282 22.4958C13.8601 22.5501 13.5908 22.602 13.3178 22.6245C13.2434 22.1871 13.1747 21.7491 13.1116 21.3098ZM11.2008 21.3011C11.3958 21.7566 11.532 22.2383 11.6569 22.7176C11.5463 22.7107 11.4364 22.7013 11.327 22.6895C11.2908 22.5895 11.2545 22.4895 11.2196 22.3895C11.1133 22.3702 11.0071 22.3533 10.9003 22.3389C10.849 22.4395 10.7965 22.5401 10.7441 22.6407C10.6959 22.6395 10.5991 22.6376 10.5504 22.6364C10.7228 22.1721 10.9677 21.7372 11.2008 21.3011ZM11.0683 22.0165C10.9627 22.0428 10.9959 22.2277 11.1071 22.2033C11.2096 22.1796 11.1683 22.0003 11.0683 22.0165Z" fill="#FFFFF5"></path>
  <path d="M12.0075 21.3072C12.1462 21.3035 12.2843 21.3029 12.423 21.3047C12.468 21.6703 12.468 22.0389 12.4717 22.4063C12.6336 22.4076 12.796 22.4088 12.9585 22.4119C12.9647 22.5125 12.9716 22.6138 12.9791 22.7156L12.906 22.7125C12.8916 22.6606 12.8635 22.5563 12.8491 22.5044C12.6998 22.4932 12.5505 22.4832 12.4011 22.4738C12.3886 22.1077 12.3836 21.7421 12.368 21.3766C12.2668 21.3778 12.1662 21.3791 12.0662 21.381C12.0662 21.6696 12.0775 21.9583 12.0781 22.247L12.0212 22.2764C12.0125 22.1483 12.0081 22.0195 12.0062 21.8915C12.0062 21.6965 12.0062 21.5016 12.0075 21.3072Z" fill="#C2B388"></path>
  <path d="M9.26322 21.8354C9.21948 21.6654 9.26759 21.5011 9.37319 21.3655C9.3432 21.5236 9.30883 21.681 9.26322 21.8354Z" fill="#3E4B53"></path>
  <path d="M12.0662 21.3811C12.1662 21.3792 12.2668 21.378 12.368 21.3767C12.3836 21.7422 12.3886 22.1078 12.4011 22.4739C12.5505 22.4833 12.6998 22.4933 12.8491 22.5045C12.8635 22.5564 12.8916 22.6608 12.906 22.7126C12.7685 22.7114 12.6323 22.7157 12.4955 22.7207C12.3611 22.6989 12.2255 22.6701 12.0887 22.682C12.0818 22.537 12.08 22.3921 12.0781 22.2471C12.0781 21.9584 12.0656 21.6698 12.0662 21.3811Z" fill="#FFFFF9"></path>
  <path d="M13.5377 21.3767C13.6508 21.3911 13.6264 21.5323 13.6477 21.6129C13.6652 21.7966 13.682 21.9816 13.7183 22.1634C13.8607 22.1615 14.0044 22.1609 14.145 22.1921C13.9932 22.2271 13.8395 22.2534 13.6858 22.2765C13.6077 21.9822 13.5702 21.6791 13.5377 21.3767Z" fill="#293E58"></path>
  <path d="M9.68622 21.861C9.75933 21.8803 9.83244 21.8997 9.90554 21.9191C9.91679 22.0009 9.94178 22.0834 9.93116 22.1678C9.86868 22.2927 9.71684 22.2552 9.60437 22.2646C9.61374 22.1265 9.63999 21.9909 9.68622 21.861ZM9.74183 21.9316C9.71872 22.0209 9.69622 22.1103 9.67498 22.2009C9.80744 22.229 9.8818 22.1328 9.90179 22.0153C9.8618 21.9947 9.78182 21.9528 9.74183 21.9316Z" fill="#A0936B"></path>
  <path d="M9.74182 21.9314C9.7818 21.9526 9.86178 21.9945 9.90177 22.0151C9.88178 22.1326 9.80742 22.2288 9.67496 22.2007C9.6962 22.1101 9.7187 22.0207 9.74182 21.9314Z" fill="#363A31"></path>
  <path d="M11.0684 22.0165C11.1684 22.0003 11.2096 22.1796 11.1071 22.2034C10.9959 22.2277 10.9628 22.0428 11.0684 22.0165Z" fill="#AB955C"></path>
  <path d="M9.14884 22.4339C9.22632 22.4089 9.3013 22.4489 9.37004 22.4813C9.32442 22.5676 9.13822 22.5407 9.14884 22.4339Z" fill="#464B44"></path>
  <path d="M9.62061 22.5526C9.79181 22.5564 9.96302 22.5539 10.1342 22.5626C9.99988 22.6801 9.74057 22.6982 9.62061 22.5526Z" fill="#3B4544"></path>
  <path d="M13.2409 22.6988C13.494 22.6538 13.7502 22.6369 14.0051 22.6082C13.7783 22.7006 13.5221 22.795 13.2766 22.7456L13.2409 22.6988Z" fill="#2C3F56"></path>
  <path d="M10.4704 22.685C10.5685 22.6706 10.6678 22.6669 10.7659 22.6769C10.7659 22.8062 10.486 22.8075 10.4704 22.685Z" fill="#2F3D49"></path>
  <path d="M12.0887 22.682C12.2256 22.6701 12.3611 22.6988 12.4955 22.7207C12.3749 22.7595 12.1325 22.8601 12.0887 22.682Z" fill="#B0A789"></path>
</svg>
