<?xml version="1.0" encoding="UTF-8"?>
<svg xmlns="http://www.w3.org/2000/svg" width="36" height="36" viewBox="0 0 36 36" fill="none">
  <ellipse cx="17.9956" cy="18.9387" rx="14.9924" ry="14.9924" fill="white"></ellipse>
  <path d="M16.1665 0.0819872C18.7339 -0.149458 21.3557 0.0997907 23.7976 0.948736C27.0744 2.05255 30.0017 4.14212 32.139 6.85668C34.253 9.52252 35.577 12.8012 35.9124 16.1866C36.0652 18.0176 36.0089 19.8767 35.6257 21.6776C35.0916 24.2619 33.9775 26.7244 32.3864 28.8309C30.7447 31.0095 28.6064 32.8132 26.1758 34.051C23.6552 35.3376 20.8272 36.0282 17.9956 35.9991C15.0233 36.0291 12.0558 35.2645 9.44332 33.8543C6.41111 32.2192 3.86802 29.692 2.20855 26.6729C1.05975 24.5852 0.335434 22.2651 0.0861851 19.8945C-0.137764 17.4067 0.0599483 14.8608 0.853609 12.4835C1.93587 9.07275 4.08541 6.01898 6.90305 3.81697C9.55389 1.72647 12.8091 0.423065 16.1665 0.0819872ZM15.5031 0.625462C11.3371 1.21579 7.41466 3.36345 4.68417 6.56433C2.71923 8.86098 1.33899 11.6618 0.773025 14.6349C0.416955 16.2616 0.490043 17.9389 0.529398 19.5918C0.76834 22.5809 1.84498 25.4876 3.54381 27.9538C6.41392 32.1742 11.2218 35.0246 16.3117 35.4641C17.1532 35.51 17.9965 35.4978 18.8379 35.4931C20.0533 35.495 21.2592 35.2889 22.4324 34.9853C24.8574 34.3603 27.1372 33.1946 29.0768 31.612C32.7256 28.6622 35.1291 24.187 35.4711 19.499C35.4889 17.9614 35.5779 16.4031 35.2659 14.887C34.7983 12.1959 33.6729 9.62278 32.0172 7.45076C30.2659 5.08664 27.8784 3.21072 25.205 1.99446C23.0621 1.04338 20.7232 0.467105 18.3704 0.50646C17.4137 0.509271 16.4513 0.483971 15.5031 0.625462ZM6.56103 28.5957C6.81403 28.1468 7.22726 27.8226 7.59551 27.4731C7.95814 27.7655 8.26642 28.1159 8.60281 28.4364C8.50349 28.5544 8.40135 28.6706 8.29734 28.785C8.06683 28.6575 7.85788 28.4101 7.57021 28.4626C7.69858 28.6725 7.84101 28.8721 7.98344 29.0736C7.85788 29.1673 7.7295 29.2572 7.59457 29.3369C7.44933 29.2263 7.3322 29.0389 7.14574 29.0052C6.91148 29.1729 6.74001 29.4268 6.46171 29.5299L6.51231 29.4718C6.7147 29.2441 6.93584 29.0342 7.15323 28.8206C7.3322 28.9724 7.51024 29.1242 7.69202 29.2731C7.74637 29.1813 7.80072 29.0904 7.85507 28.9986C7.71357 28.8487 7.57302 28.6978 7.43247 28.547C7.53367 28.4448 7.6358 28.3427 7.737 28.2405C7.90192 28.3933 8.06777 28.5441 8.2355 28.6931C8.30765 28.621 8.38074 28.5488 8.45382 28.4776C8.20551 28.1571 7.91316 27.8742 7.59645 27.6221C7.24225 27.936 6.91523 28.2808 6.56103 28.5957ZM28.1876 27.4806C28.36 27.4937 28.5324 27.489 28.7058 27.4909C28.9916 27.5696 29.0646 27.907 29.2933 28.0644C29.446 28.1871 29.6475 28.2743 29.7299 28.4636C29.804 28.6941 29.8011 28.978 29.6212 29.1607C29.3636 29.4615 29.0703 29.7314 28.7723 29.9918C28.3872 29.6423 28.033 29.261 27.6572 28.9011C27.5036 28.739 27.3508 28.576 27.1962 28.4148C27.5317 28.1094 27.8287 27.7617 28.1876 27.4806ZM28.1782 27.6221C27.8784 27.8573 27.6301 28.1497 27.3621 28.4195C27.8025 28.9302 28.3019 29.3875 28.7835 29.8579C29.1274 29.4915 29.7449 29.1729 29.6559 28.5901C29.6325 28.3202 29.327 28.2546 29.1471 28.1122C29.0122 27.9641 28.9363 27.7702 28.7845 27.638C28.613 27.5097 28.3469 27.4712 28.1782 27.6221ZM8.52785 28.9152C8.81083 28.8983 9.09475 28.8993 9.37867 28.9152C9.09569 28.9489 8.80989 28.9499 8.52785 28.9152ZM8.94389 29.4718C9.13129 29.4174 9.33182 29.4924 9.43021 29.6639C9.58013 30.1643 9.10131 30.7771 8.57658 30.6984C8.09401 30.3704 8.50911 29.6423 8.94389 29.4718ZM9.02728 29.5627C8.72369 29.6245 8.55221 29.9356 8.44071 30.1989C8.34981 30.4135 8.5747 30.6721 8.80521 30.5925C9.07601 30.4932 9.27934 30.2467 9.37867 29.9806C9.47612 29.767 9.25686 29.4999 9.02728 29.5627ZM24.4282 30.5859C24.2568 30.258 24.7253 30.1652 24.923 30.0237C25.2294 30.4435 25.4234 30.9336 25.7354 31.3477C25.9753 31.433 26.1908 31.2062 26.4091 31.1313C26.4841 31.2831 26.6696 31.4583 26.5759 31.6373C26.2208 31.9071 25.815 32.102 25.4215 32.31C25.1085 31.7244 24.7356 31.1734 24.4282 30.5859ZM24.4667 30.3845C24.744 31.0076 25.1123 31.5904 25.4815 32.1629C25.8394 31.983 26.1823 31.7759 26.5244 31.5689C26.4728 31.4639 26.4204 31.359 26.3669 31.2559C26.1711 31.3608 25.9828 31.4827 25.7747 31.5651C25.6651 31.5361 25.6398 31.4011 25.5761 31.3224C25.3587 30.9382 25.1441 30.5522 24.9108 30.1764C24.7628 30.2439 24.6147 30.3142 24.4667 30.3845ZM10.5659 30.2233C11.0869 30.1202 11.754 30.2411 11.9611 30.7958C12.0586 31.105 12.0492 31.4358 11.9546 31.7441C11.9227 31.8781 11.7999 31.9615 11.7147 32.0617C11.9311 31.6429 12.1045 31.0938 11.7868 30.6777C11.5357 30.2945 11.0466 30.2673 10.6352 30.2289L10.5659 30.2233ZM12.3725 30.8942C12.4118 30.8942 12.4905 30.8914 12.5299 30.8905C12.8766 31.0198 13.2186 31.1631 13.5756 31.2634C13.6693 31.2934 13.7621 31.3243 13.8558 31.3552C13.8483 31.5276 13.8239 31.6991 13.7377 31.8518C13.6009 31.8303 13.4641 31.8041 13.3264 31.8097C13.1774 31.9371 13.1436 32.1461 13.0734 32.3213C12.9778 32.6446 12.87 32.9641 12.721 33.2677C12.5261 33.2143 12.2394 33.234 12.126 33.0512C12.1288 32.7195 12.2656 32.3934 12.4174 32.103C12.469 32.0261 12.5205 31.9502 12.573 31.8753C12.4399 32.251 12.3087 32.6277 12.1851 33.0063C12.3425 33.069 12.4999 33.1318 12.6573 33.1946C12.8682 32.6867 13.0378 32.1629 13.2317 31.6494C13.3863 31.6813 13.5409 31.7113 13.6955 31.7422C13.7152 31.6401 13.7358 31.5389 13.7555 31.4377C13.3329 31.269 12.9038 31.1135 12.4662 30.987C12.4296 31.0441 12.3565 31.1584 12.32 31.2165C12.454 31.3074 12.5899 31.3974 12.7201 31.4948C12.7098 31.5229 12.6911 31.5792 12.6807 31.6073C12.5327 31.5117 12.3837 31.4189 12.2338 31.3271C12.2806 31.1828 12.3266 31.0385 12.3725 30.8942ZM8.5316 31.2531C8.77335 31.2362 9.01698 31.2287 9.25779 31.2568C9.01979 31.3131 8.77148 31.2774 8.5316 31.2531ZM24.3064 31.8893C24.4751 31.9081 24.6428 31.9287 24.8105 31.953C24.7543 32.3831 24.5426 32.8507 24.0975 32.9913C23.7526 33.084 23.316 33.0953 23.0555 32.8104C23.42 32.9379 23.851 33.0587 24.2062 32.8376C24.5032 32.6764 24.6419 32.3532 24.7065 32.0374C24.6091 32.028 24.5107 32.0186 24.4132 32.0111C24.3392 32.1236 24.2652 32.2351 24.1893 32.3466C24.2249 32.1929 24.2643 32.0411 24.3064 31.8893Z" fill="#BB8A1A"></path>
  <path d="M15.5031 0.625536C16.4513 0.484045 17.4137 0.509345 18.3704 0.506533C20.7232 0.467178 23.0621 1.04345 25.205 1.99453C27.8784 3.21079 30.2659 5.08672 32.0172 7.45083C33.6729 9.62286 34.7983 12.1959 35.2659 14.8871C35.5779 16.4032 35.4889 17.9614 35.4711 19.4991C35.1291 24.187 32.7256 28.6623 29.0768 31.612C27.1372 33.1947 24.8574 34.3603 22.4324 34.9853C21.2592 35.2889 20.0533 35.4951 18.8379 35.4932C17.9965 35.4979 17.1532 35.5101 16.3117 35.4642C11.2218 35.0247 6.41392 32.1743 3.54381 27.9539C1.84498 25.4876 0.768338 22.581 0.529397 19.5919C0.490042 17.939 0.416954 16.2617 0.773023 14.635C1.33899 11.6618 2.71923 8.86106 4.68417 6.56441C7.41466 3.36353 11.337 1.21586 15.5031 0.625536ZM17.186 1.26084C17.186 2.49022 17.1832 3.71866 17.186 4.94804C18.0124 4.99582 18.8436 5.01082 19.67 4.95085C19.7375 4.62289 19.7319 4.28556 19.6719 3.95666C19.3149 3.91918 18.956 3.907 18.5981 3.90138C18.5194 3.02245 18.6309 2.1379 18.5362 1.2599C18.0855 1.24866 17.6348 1.24866 17.185 1.2599M13.6955 1.75465C13.6721 1.99266 13.7021 2.23066 13.7555 2.46211C13.9588 3.42724 14.1116 4.40362 14.3524 5.36126C15.1273 5.25819 15.9022 5.11295 16.6556 4.90306C16.6219 4.63132 16.5647 4.36427 16.4944 4.10003C16.382 4.10846 16.2696 4.12439 16.159 4.14688C15.8994 4.13938 15.6408 4.13376 15.3813 4.11783C15.3972 4.02507 15.4122 3.9323 15.4281 3.84047C15.5668 3.788 15.7148 3.74115 15.8188 3.62964C15.98 3.59872 16.1412 3.57342 16.3033 3.54812C16.3098 3.2464 16.2592 2.94655 16.1356 2.67013C15.9828 2.70105 15.8301 2.73384 15.6774 2.76664C15.4562 2.75446 15.2295 2.74134 15.0289 2.6392C15.1967 2.53145 15.3841 2.45461 15.5377 2.3253C15.7214 2.29157 15.9051 2.24846 16.0812 2.18381C15.995 1.92706 16.0409 1.56818 15.8329 1.38453C15.1161 1.47636 14.4171 1.68344 13.6955 1.75465ZM21.1055 1.89708C20.5911 2.12665 20.4346 2.78819 20.6192 3.28388C20.7832 3.64838 21.1374 3.86202 21.4148 4.13095C21.3529 4.31367 21.2339 4.46547 21.0821 4.5826C20.9809 4.39051 20.8825 4.19654 20.7888 3.99977C20.5255 4.03725 20.2707 4.11783 20.0317 4.23215C20.0973 4.46547 20.1666 4.70628 20.3241 4.8965C20.7007 5.39031 21.4232 5.52243 21.9882 5.3191C22.4624 5.15043 22.7669 4.62945 22.7013 4.1347C22.6451 3.85171 22.4867 3.59028 22.2721 3.39913C22.5214 3.33354 22.7678 3.25108 22.9965 3.13021C23.1895 2.14352 21.9236 1.43513 21.1055 1.89708ZM11.1553 2.74509C11.2499 3.0693 11.4176 3.36352 11.5704 3.66244C11.5067 3.77113 11.4992 3.93324 11.3792 3.99695C11.2668 4.01007 11.1534 4.0007 11.041 3.99602C10.8817 3.67555 10.7495 3.34197 10.5809 3.0262C10.2089 3.16956 9.82469 3.30449 9.50891 3.55655C9.80501 4.21341 10.1189 4.86183 10.4309 5.51119C10.638 5.93941 10.8058 6.38824 11.0653 6.78929C11.4401 6.67966 11.7906 6.50162 12.1204 6.29642C12.0023 5.97314 11.8374 5.67236 11.6838 5.36689C11.6987 5.24695 11.7147 5.12794 11.7315 5.00801C11.8608 4.94991 11.9911 4.88994 12.1185 4.8281C12.3116 5.21977 12.4737 5.62738 12.6798 6.01343C13.0687 5.92629 13.4163 5.72389 13.7593 5.52993C13.2926 4.42424 12.7332 3.36071 12.2347 2.26908C11.8421 2.3431 11.5001 2.55581 11.1553 2.74509ZM24.2764 3.10209C23.8417 4.01663 23.3422 4.90025 22.9262 5.82322C23.5933 6.23551 24.3055 6.57471 25.0214 6.89049C25.175 6.65061 25.3034 6.3948 25.3793 6.12025C25.1244 5.98626 24.864 5.86257 24.6081 5.73233C24.6138 5.58428 24.6231 5.43716 24.6344 5.29005C24.8387 5.33315 25.0439 5.37626 25.2491 5.41561C25.3634 5.47558 25.4777 5.53461 25.5939 5.59271C25.7701 5.35564 25.9078 5.09046 25.9743 4.80092C25.7419 4.6688 25.5049 4.54511 25.2659 4.42424C25.2556 4.32585 25.2463 4.22653 25.2378 4.1272C25.4234 4.15063 25.6089 4.17311 25.7954 4.19654C25.9359 4.26963 26.0774 4.33897 26.2217 4.4055C26.3829 4.15906 26.5319 3.90138 26.604 3.61277C25.949 3.28388 25.3053 2.93062 24.6391 2.62796C24.4395 2.68793 24.3814 2.94093 24.2764 3.10209ZM7.60394 4.90212C6.70627 5.20853 6.1225 6.27299 6.4261 7.18846C6.61163 7.71788 6.97801 8.19389 7.46432 8.47969C8.46975 9.02785 9.97274 8.46376 10.1864 7.28591L10.2904 7.30559C10.3119 6.98888 10.4731 6.51474 10.1854 6.29829C10.1676 6.25519 10.132 6.16711 10.1133 6.124C9.83968 6.15492 9.56701 6.20552 9.30558 6.2936C9.36461 6.74525 9.37117 7.31121 8.88579 7.53423C8.7771 7.42647 8.55783 7.43584 8.45289 7.54453C8.10338 7.40679 7.79884 7.15754 7.62268 6.82302C7.44558 6.52786 7.46432 6.10526 7.73794 5.87194C8.04434 5.87288 8.35169 5.84571 8.64779 5.76418C8.6759 5.76793 8.73306 5.77637 8.76117 5.78011C8.81926 5.47371 8.88111 5.16449 8.86237 4.85152C8.44539 4.80936 8.01061 4.76906 7.60394 4.90212ZM27.9955 5.69953C27.1531 6.15961 26.277 6.55785 25.4487 7.04323C25.6258 7.24187 25.7897 7.493 26.0549 7.57733C26.218 7.53704 26.3632 7.44989 26.5141 7.37962C26.6724 7.41054 26.8626 7.3918 26.9873 7.51267C27.1465 7.65229 27.0866 7.88561 27.1006 8.07208C27.0725 8.19951 26.9301 8.35319 27.0472 8.47406C27.2834 8.75517 27.5617 9.00442 27.8802 9.18995C28.1576 8.35506 28.4378 7.52205 28.7029 6.68341C28.8622 6.16523 29.0843 5.66392 29.1808 5.12701C28.7592 5.25819 28.3844 5.49526 27.9955 5.69953ZM17.647 5.46246C15.593 5.49526 13.5559 6.07903 11.7728 7.0957C9.17346 8.57526 7.13262 11.0125 6.14874 13.8395C5.50313 15.6442 5.32041 17.5969 5.53124 19.4972C5.84327 22.1546 7.03423 24.7062 8.88954 26.6364C10.8282 28.7166 13.5119 30.0734 16.3276 30.4417C18.4987 30.7172 20.7467 30.4576 22.7725 29.6162C25.339 28.5658 27.527 26.6308 28.9035 24.2255C30.6145 21.2682 31.0052 17.5988 30.0064 14.338C29.1593 11.495 27.2393 9.00255 24.7421 7.41054C22.646 6.06497 20.1367 5.37438 17.647 5.46246ZM3.12683 12.5014C2.34723 12.7235 1.8 13.5434 1.88902 14.3483C1.94712 15.0004 2.40345 15.5936 3.01626 15.8222C3.67499 16.0799 4.47896 15.8813 4.94466 15.35C5.49563 14.7606 5.53218 13.7823 5.05055 13.1405C4.63076 12.5483 3.81648 12.2915 3.12683 12.5014ZM31.8935 12.4995C31.1402 12.7104 30.5723 13.4675 30.6426 14.2574C30.6351 15.2488 31.6283 16.0724 32.6 15.9206C33.5005 15.8391 34.2314 14.9686 34.134 14.0644C34.1152 12.9765 32.9186 12.1613 31.8935 12.4995ZM2.78482 20.4024C2.56274 20.393 2.26571 20.3808 2.16732 20.6301C2.05113 20.9506 1.93025 21.2691 1.79063 21.5812C1.68194 21.8182 1.88621 22.0169 2.04457 22.1649C2.01552 22.3308 1.95555 22.4985 1.98928 22.6691C2.04832 22.8471 2.22822 22.9333 2.36409 23.0458C2.56836 23.1863 2.73141 23.3784 2.93662 23.518C3.14182 23.6295 3.36015 23.5021 3.5588 23.4402C3.73777 23.5546 3.96266 23.7101 4.17536 23.5752C4.46116 23.3906 4.74508 23.2032 5.04024 23.0326C5.27262 22.8911 5.20609 22.5913 5.18829 22.3655C5.36351 22.2521 5.58184 22.0928 5.52562 21.851C5.43379 21.5062 5.33446 21.1642 5.25763 20.8166C5.19204 20.5776 4.90999 20.5514 4.70947 20.5008C4.62888 20.2984 4.5408 20.0276 4.27937 20.0173C3.91487 20.0117 3.55318 19.9676 3.18961 19.9545C2.9488 19.9564 2.87102 20.2244 2.78482 20.4024ZM31.7717 20.066C31.603 20.1428 31.5871 20.3471 31.53 20.5008C31.3154 20.5523 31.008 20.5636 30.9462 20.8259C30.8694 21.1736 30.7682 21.5156 30.6819 21.8613C30.6407 22.104 30.8534 22.2624 31.0183 22.3973C31.0052 22.5913 30.9378 22.8302 31.1027 22.982C31.277 23.1263 31.4906 23.2097 31.6733 23.3418C31.8692 23.4674 32.0631 23.6679 32.3189 23.6239C32.4436 23.578 32.5401 23.4824 32.645 23.4037C32.8409 23.5255 33.1023 23.6595 33.315 23.4908C33.568 23.2734 33.8247 23.0589 34.088 22.8537C34.3073 22.6822 34.2005 22.387 34.1508 22.1621C34.3298 22.0281 34.5228 21.8136 34.4104 21.5737C34.2689 21.2598 34.1555 20.9346 34.0271 20.6151C33.9175 20.3771 33.6355 20.3949 33.4162 20.3968C33.345 20.2291 33.2803 20.0004 33.0723 19.9639C32.8231 19.9358 32.5757 20.006 32.3274 20.0042C32.1418 20.0154 31.9422 19.9751 31.7717 20.066ZM28.1876 27.4807C27.8287 27.7618 27.5317 28.1094 27.1962 28.4149C27.1109 28.4936 27.0266 28.5733 26.9432 28.6548C26.8326 28.7663 26.7193 28.875 26.6059 28.9837C26.8017 29.514 27.438 29.8354 27.4277 30.4361C27.3686 30.4286 27.2496 30.4145 27.1897 30.408C26.8504 30.0594 26.6031 29.633 26.2985 29.2554C26.069 29.3369 25.8825 29.4962 25.6979 29.6499C25.9753 30.0678 26.2498 30.5017 26.6302 30.8343C26.6471 30.8662 26.6818 30.928 26.6996 30.9599C27.1138 31.2597 27.8521 31.1342 28.0002 30.5907C28.2007 30.5532 28.2026 30.0884 28.0049 30.0453C27.9749 29.9001 27.8905 29.7755 27.8034 29.6602C27.7294 29.4138 27.6085 29.1655 27.6572 28.9012C28.033 29.261 28.3872 29.6424 28.7723 29.9919C29.0703 29.7314 29.3636 29.4616 29.6212 29.1608C29.8011 28.9781 29.804 28.6941 29.7299 28.4636C29.6475 28.2744 29.446 28.1872 29.2933 28.0645C29.0646 27.907 28.9916 27.5697 28.7058 27.491C28.6833 27.2849 28.2223 27.2858 28.1876 27.4807ZM6.56103 28.5958C6.40361 28.7419 6.25743 28.8993 6.1122 29.0577C6.24432 29.1964 6.37831 29.3341 6.51231 29.4719L6.46171 29.53C6.74 29.4269 6.91148 29.173 7.14573 29.0052C7.3322 29.039 7.44933 29.2264 7.59457 29.3369L7.54491 29.366C7.63018 29.4185 7.71545 29.4709 7.80072 29.5234C7.71545 29.8607 7.58989 30.2299 7.78291 30.556L7.82508 30.4567C8.06683 31.0639 8.85768 31.375 9.42739 31.0386C9.49486 31.0489 9.62792 31.0695 9.69445 31.0798C9.71037 31.449 9.75629 31.8697 10.1124 32.074C10.5293 32.506 11.3127 32.5228 11.7147 32.0618C11.7999 31.9615 11.9227 31.8782 11.9546 31.7442C12.0764 31.5774 12.2441 31.4443 12.4456 31.5727C12.4296 31.7488 12.4193 31.9259 12.4174 32.103C12.2656 32.3935 12.1288 32.7196 12.126 33.0513C12.2394 33.234 12.5261 33.2144 12.721 33.2678C12.87 32.9642 12.9778 32.6446 13.0734 32.3214C13.2589 32.0909 13.5063 31.9325 13.7939 31.8613L13.7377 31.8519C13.8239 31.6992 13.8483 31.5277 13.8558 31.3553C13.7621 31.3244 13.6693 31.2934 13.5756 31.2635C13.3423 30.9439 12.8981 30.8858 12.5299 30.8905C12.4905 30.8915 12.4118 30.8933 12.3725 30.8943C12.2328 30.869 12.096 30.8352 11.9611 30.7959C11.754 30.2412 11.0869 30.1203 10.5659 30.2234C10.4244 30.2234 10.2941 30.2936 10.163 30.3377C10.1573 30.0734 10.1508 29.8008 10.0243 29.5618C10.0093 29.6021 9.9793 29.6836 9.96525 29.7249C9.82657 29.4306 9.6251 29.1364 9.29059 29.053C8.9973 28.9893 8.64872 28.9612 8.38729 29.1411C8.2711 29.1158 8.15397 29.0905 8.03778 29.0652C8.12399 28.9715 8.2102 28.8778 8.29734 28.785C8.40135 28.6707 8.50349 28.5545 8.60281 28.4365C8.26642 28.116 7.95814 27.7655 7.59551 27.4732C7.22726 27.8227 6.81403 28.1469 6.56103 28.5958ZM8.52785 28.9153C8.80989 28.9499 9.09569 28.949 9.37867 28.9153C9.09475 28.8993 8.81083 28.8984 8.52785 28.9153ZM24.4282 30.586C24.7356 31.1735 25.1085 31.7245 25.4215 32.3101C25.815 32.1021 26.2208 31.9072 26.5759 31.6373C26.6696 31.4584 26.4841 31.2831 26.4091 31.1313C26.1908 31.2063 25.9753 31.4331 25.7354 31.3478C25.4234 30.9336 25.2294 30.4436 24.923 30.0238C24.7253 30.1653 24.2568 30.258 24.4282 30.586ZM22.4605 31.7751C22.4492 32.1002 22.5795 32.4479 22.8606 32.6306C22.9215 32.6943 22.9862 32.7543 23.0555 32.8105C23.316 33.0954 23.7526 33.0841 24.0975 32.9913C24.5426 32.8508 24.7543 32.3832 24.8105 31.9531C24.6428 31.9288 24.4751 31.9081 24.3064 31.8894C24.2643 32.0412 24.2249 32.193 24.1893 32.3467C24.1668 32.3795 24.1218 32.446 24.0993 32.4788C23.9354 32.4291 23.7667 32.3935 23.6083 32.3298C23.4172 32.1724 23.3647 31.9147 23.2785 31.6954C23.3685 31.5746 23.4519 31.4462 23.5662 31.3478C23.7723 31.3506 23.9719 31.4096 24.1706 31.4593C24.2961 31.3084 24.3954 31.1379 24.4123 30.9393C24.1621 30.8184 23.9016 30.6844 23.6168 30.7059C23.0499 30.7472 22.5439 31.2129 22.4605 31.7751ZM8.5316 31.2532C8.77147 31.2775 9.01979 31.3131 9.25779 31.2569C9.01698 31.2288 8.77335 31.2363 8.5316 31.2532ZM14.1322 31.4443L14.2053 31.4631C14.1472 31.6533 14.0938 31.8454 14.0563 32.0403C13.8979 32.2436 13.8258 32.49 13.8914 32.7449C13.8052 33.0373 13.7162 33.3334 13.7199 33.6426C13.704 33.8028 13.9832 33.8431 14.0516 33.7138C14.1725 33.7606 14.299 33.7972 14.4274 33.8206C14.6073 34.0389 14.9961 34.0118 15.1976 33.8356C15.5049 33.5798 15.5565 33.1778 15.4937 32.8039C15.5031 32.774 15.5209 32.714 15.5302 32.6849C15.5658 32.6699 15.6371 32.64 15.6736 32.625C15.8217 32.2726 15.6605 31.8088 15.2829 31.6851C14.9521 31.4406 14.5295 31.4031 14.1322 31.4443ZM16.8055 31.6701C16.5319 32.1668 16.3033 32.6859 16.039 33.1872C15.9041 33.4542 15.7373 33.7157 15.7017 34.0193C15.7251 34.2029 16.1459 34.201 16.1449 34.0071C16.2621 33.8637 16.3773 33.7185 16.4944 33.5751C16.784 33.6051 16.8449 33.9227 16.9508 34.1401C17.1719 34.1617 17.393 34.1757 17.6161 34.1851C17.5214 33.7203 17.3481 33.2771 17.2159 32.8227C17.0932 32.4338 17.0117 32.0271 16.8055 31.6701ZM19.5295 31.8172C19.403 32.0534 19.5229 32.3204 19.5557 32.5659C19.6663 33.0241 19.5988 33.5283 19.8499 33.948L19.8565 34.0399L19.9099 34.1101C20.2781 34.1842 20.6623 34.0427 21.0025 33.904C21.1009 33.8843 21.1983 33.8609 21.2958 33.8347C21.2705 33.6491 21.2433 33.4645 21.2124 33.2799C21.0015 33.2331 20.786 33.234 20.5724 33.2368C20.518 32.9642 20.4927 32.6868 20.4665 32.4113C20.4346 32.2904 20.4712 32.0787 20.3016 32.0571C20.2875 31.9503 20.2744 31.8444 20.2613 31.7376C20.0252 31.6177 19.7459 31.6889 19.5295 31.8172ZM17.9234 31.881C17.9159 32.1977 17.8784 32.5284 18.0049 32.8292C18.0077 33.0213 18.0143 33.2144 18.0274 33.4064C17.8897 33.6529 17.9731 33.948 18.0021 34.2113C18.5053 34.261 19.0094 34.1935 19.5079 34.1223C19.5201 33.9293 19.5229 33.7372 19.5173 33.5451C19.2699 33.5329 19.0235 33.5236 18.7761 33.517C18.7677 32.9698 18.8136 32.4198 18.7349 31.8763C18.4659 31.8266 18.1914 31.8276 17.9234 31.881ZM19.5032 8.29603C19.6981 8.52935 19.7797 8.84606 20.027 9.03909C20.5883 9.5835 21.4138 9.62005 22.1447 9.72406C22.2974 10.0351 22.5898 10.2263 22.8512 10.4381C22.6666 10.9075 22.3209 11.2823 22.0398 11.6927C21.872 11.5841 21.709 11.3301 21.485 11.4369C21.1758 11.585 21.0062 11.9486 21.0774 12.2831C21.2808 12.3009 21.485 12.3056 21.6884 12.2924C21.6846 12.4471 21.679 12.6007 21.6809 12.7553C21.6902 12.9455 21.7137 13.1339 21.7362 13.3232C21.4279 13.1433 21.069 12.8472 20.6942 13.0186C20.2781 13.2304 20.2931 13.7964 20.4056 14.1843C20.4702 14.4757 20.7157 14.6669 20.9753 14.7831C21.2564 14.7718 21.4766 14.5966 21.6818 14.4242C21.7446 14.5807 21.8064 14.7371 21.8636 14.8964C21.8589 15.1841 21.8514 15.5158 21.62 15.7238C21.3314 16.0349 20.8816 16.0312 20.4918 16.0537C20.4065 16.6028 20.8197 17.0244 20.8853 17.5454C21.0362 18.4721 21.1702 19.4288 21.6434 20.2572C21.8992 20.7997 22.3977 21.2317 22.9955 21.3432C23.4528 21.4369 23.9888 21.3019 24.2652 20.9037C24.521 20.5167 24.5182 20.007 24.3795 19.5778C24.0993 18.7739 23.3544 18.2585 23.004 17.4948C22.7987 17.0469 22.8128 16.4884 23.1005 16.079C23.4893 15.5055 24.0806 15.1213 24.5763 14.65C24.8218 14.4111 25.0579 14.1243 25.1057 13.7739C25.1666 13.1714 24.5276 12.5989 23.9335 12.7778C23.6224 12.8537 23.4856 13.1676 23.345 13.4216C23.286 13.5199 23.2251 13.6183 23.1642 13.7148C23.1642 13.4375 23.1698 13.1583 23.2232 12.8856C23.3113 12.7525 23.4069 12.6251 23.5146 12.5061C24.2202 11.8989 25.4533 12.0479 25.9668 12.8397C26.1589 13.326 26.1599 13.9013 25.8769 14.3539C25.414 15.1073 24.5913 15.5093 23.9578 16.093C23.7508 16.2776 23.614 16.5222 23.4968 16.7696C23.9382 16.4519 24.432 16.1539 24.9998 16.1914C25.4384 16.2411 25.8122 16.5184 26.0624 16.8717C26.3051 17.4236 26.1243 18.0645 25.6698 18.445L25.5995 18.5171C25.6576 18.1545 25.7916 17.7234 25.518 17.4142C25.205 16.9448 24.4442 16.9176 24.0965 17.358C23.9157 17.5585 23.9157 17.8434 23.9185 18.0964C24.3514 18.7036 24.9427 19.2367 25.1179 19.991C25.31 20.6104 25.0729 21.3657 24.4826 21.6768C23.7826 22.0525 22.9327 21.9035 22.2253 21.6243C22.1728 21.5943 22.0679 21.5353 22.0154 21.5053C21.8177 21.3788 21.62 21.2523 21.4138 21.138C21.5085 21.7152 21.8083 22.268 22.304 22.5932C22.7706 22.9174 23.3647 22.8986 23.8969 22.7843C23.7592 22.9614 23.613 23.1329 23.4893 23.3212C22.8184 24.2508 22.855 25.4455 22.9234 26.5343C22.9599 26.8445 22.6516 26.9391 22.4089 26.985C22.1887 27.0047 22.1213 27.2352 22.0163 27.3907L21.9592 27.328L21.9142 27.2774C21.8711 27.1584 21.8327 27.0375 21.7943 26.9175C21.7296 26.911 21.6012 26.8979 21.5366 26.8913C21.2452 26.8716 21.1121 27.134 21.0006 27.3551C20.9519 27.3945 20.8535 27.4723 20.8048 27.5116C20.7916 27.2811 20.7804 27.0515 20.7701 26.822C20.5902 26.8351 20.4093 26.8491 20.2313 26.8772C20.072 26.8951 19.9296 26.971 19.7956 27.0534C19.7216 27.2239 19.6653 27.402 19.5969 27.5763C19.5669 27.5294 19.5079 27.4367 19.4779 27.3907C19.4798 26.9466 19.2034 26.3441 19.6578 26.0349C20.1854 25.6938 20.846 25.8203 21.4391 25.7594C21.724 25.2824 21.9779 24.753 21.9629 24.1852C21.9489 23.8647 21.8514 23.5143 21.59 23.3072C21.2901 23.1891 20.9462 23.2538 20.6473 23.1282C20.3822 22.9399 20.3391 22.5697 20.1029 22.358C19.8724 22.2765 19.6222 22.2849 19.3814 22.283C18.7836 22.358 18.1239 22.6381 17.8578 23.2135C17.6948 23.5864 18.018 23.9406 18.346 24.0737C18.5081 24.1458 18.6758 24.203 18.8417 24.2658C18.7658 24.3004 18.688 24.3332 18.6112 24.366C18.3029 24.4953 17.9618 24.6078 17.7491 24.8814C17.4024 25.3199 17.4071 25.9234 17.1044 26.3853C16.902 26.6739 16.4991 26.5802 16.2096 26.7048C16.0419 26.8698 16.0278 27.1284 15.9407 27.3383C15.8826 27.1106 15.8254 26.8819 15.7701 26.6542C15.5771 26.6505 15.385 26.6458 15.1929 26.6524C14.9596 26.7873 14.7797 26.9953 14.7103 27.2586C14.6925 27.3073 14.656 27.4039 14.6382 27.4526C14.6129 27.4123 14.5623 27.3317 14.537 27.2914C14.5445 27.0731 14.5651 26.8557 14.5867 26.6392C14.3477 26.6421 14.1088 26.6421 13.8708 26.6599C13.8202 26.6917 13.718 26.7554 13.6665 26.7882C13.465 26.8791 13.5719 27.2933 13.316 27.2455L13.3011 27.1827C13.2739 26.807 13.2148 26.4331 13.197 26.0564C13.1774 25.8559 13.302 25.6591 13.4885 25.5879C14.1959 25.319 15.0158 25.7388 15.6905 25.3471C16.4054 24.9161 16.5806 24.024 16.7531 23.2716C16.4748 23.0701 16.054 22.8977 16.0568 22.4929C16.0137 22.1734 16.159 21.8604 16.4064 21.6608C17.2487 20.914 18.4003 20.6948 19.3243 20.0801C19.6297 19.8833 19.894 19.5263 19.7815 19.1458C19.7075 18.7813 19.358 18.6024 19.0506 18.4656C19.0778 18.7345 19.1518 19.0072 19.1031 19.278C18.897 19.5741 18.4847 19.5544 18.1736 19.6668C18.1071 19.5675 18.0396 19.4682 17.974 19.3689C17.8166 19.128 17.6854 18.8732 17.5486 18.6211C16.9798 19.3248 16.2874 19.9957 15.3747 20.2019C15.1873 20.0604 15.0158 19.8795 14.7862 19.8083C14.1584 19.7165 13.4191 20.156 13.4341 20.8475C13.3779 20.8625 13.2664 20.8906 13.2102 20.9056L13.2064 20.825C13.1942 20.5992 13.1755 20.3743 13.1558 20.1494C12.9291 20.2178 12.7089 20.3078 12.4943 20.408C12.5215 20.1906 12.5561 19.9742 12.5936 19.7587C12.468 19.7877 12.3425 19.8177 12.2188 19.8542C12.1523 19.8898 12.0201 19.9611 11.9546 19.9967C12.0042 19.7437 12.1092 19.5075 12.2394 19.2864C12.0586 19.3033 11.8777 19.3154 11.7025 19.3642L11.5816 19.4073C11.6369 19.0362 11.9817 18.7982 12.3134 18.6867C12.9806 18.5274 13.7171 18.7242 14.344 18.3869C14.849 18.1151 15.3325 17.8031 15.8357 17.5267C16.4363 17.1706 17.066 16.8633 17.6329 16.4528C17.2347 16.4238 16.8327 16.3938 16.4513 16.2682C16.3736 16.1268 16.293 15.9871 16.2115 15.8485C16.0203 16.0612 15.8282 16.286 15.5649 16.4107C15.295 16.5484 14.984 16.5419 14.6888 16.5512C14.5201 16.4285 14.358 16.2992 14.2081 16.1549C14.4658 16.0762 14.923 16.1774 14.9811 15.8213C15.0758 15.5111 14.7891 15.2956 14.5436 15.1841C14.1238 15.0183 13.6824 14.9199 13.2439 14.8196C13.2439 15.9253 13.2364 17.031 13.2505 18.1367C13.1446 18.1535 13.0387 18.1704 12.9337 18.1854C12.8625 17.0413 12.9347 15.8934 12.9019 14.7475C12.7679 14.7334 12.633 14.7203 12.4999 14.7043C12.3312 14.6819 12.1391 14.6584 12.023 14.5207C11.9255 14.3155 11.8646 14.0962 11.7793 13.8863C11.6556 13.6521 11.9283 13.4272 11.8355 13.1901C11.8046 13.0299 11.7465 12.85 11.8496 12.7029C11.9658 12.4705 12.2553 12.4367 12.4868 12.4564C12.6301 12.4592 12.7735 12.4649 12.9169 12.4695C12.9169 12.403 12.9169 12.269 12.9169 12.2025C12.7735 12.1941 12.6301 12.1866 12.4877 12.1772C12.2788 12.1678 12.0726 12.1303 11.8712 12.0769C11.993 11.9926 12.126 11.9279 12.2628 11.8727C12.1663 11.8005 12.0689 11.7302 11.9789 11.6506C11.6641 11.2167 11.4551 10.6798 11.5413 10.1363C11.5891 9.6341 11.9367 9.23868 12.2731 8.89198C12.9993 8.50405 13.9157 8.90978 14.3112 9.58538C14.6344 10.3181 14.4424 11.2495 13.8024 11.7471C13.6065 11.9289 13.2917 12.0057 13.2036 12.2821C13.2355 12.4349 13.2345 12.6063 13.3245 12.7403C13.5419 12.8978 13.8117 12.9549 14.0629 13.0402C14.4086 13.177 14.7712 13.2979 15.0823 13.5068C15.4431 13.8329 15.8245 14.1478 16.1074 14.5479C16.3023 14.8224 16.3005 15.1738 16.3548 15.4943C16.784 15.4202 17.0379 15.0061 17.0688 14.5975C17.0688 14.3689 16.9405 14.1206 17.0876 13.9126C17.3743 13.386 17.721 12.864 17.7866 12.2531C17.3424 12.0498 16.8168 11.8389 16.6715 11.3189L16.6369 11.2383C16.8402 11.3498 17.0173 11.5194 17.2469 11.5756C17.4465 11.6 17.6395 11.5231 17.826 11.4613C18.376 11.3292 18.7386 10.6592 18.4528 10.1476C18.2926 9.81495 17.8766 9.89085 17.5748 9.88054C17.825 9.49355 18.3141 9.44201 18.7339 9.44763C18.9063 9.44482 19.0797 9.44107 19.253 9.43733C19.2577 9.04377 19.3299 8.6521 19.5023 8.29603M12.6658 9.81214C12.5795 9.93114 12.4821 10.0436 12.4165 10.1757C12.3397 10.3753 12.4765 10.5636 12.5477 10.7417C12.7848 10.9253 13.0087 11.138 13.0677 11.4463C13.5728 11.2027 13.9635 10.5571 13.704 10.0108C13.5081 9.62848 12.9937 9.56101 12.6658 9.81214ZM20.1901 10.4165C20.4131 10.6883 20.8179 10.9872 21.1749 10.7932C20.994 10.6452 20.8132 10.4868 20.7439 10.2544C20.5536 10.2797 20.236 10.1485 20.1901 10.4165ZM20.9687 10.2413C20.9378 10.4446 21.0503 10.5861 21.2536 10.6086C21.3051 10.4774 21.3567 10.3472 21.4073 10.216C21.2611 10.2235 21.1149 10.2319 20.9687 10.2413ZM12.0979 12.7535C12.0867 12.9118 12.0773 13.0702 12.0726 13.2295C12.394 13.2707 12.7201 13.2679 13.0406 13.2173C12.7979 12.9577 12.4924 12.6335 12.0979 12.7535ZM12.1982 13.4525C12.007 13.5087 12.0904 13.7383 12.0595 13.8844C12.3912 13.996 12.7641 13.8948 13.0499 13.7102C12.7866 13.5715 12.5008 13.4487 12.1982 13.4525ZM12.1851 14.1534C12.1851 14.2274 12.1879 14.3773 12.1888 14.4523C12.4465 14.4532 12.7023 14.4073 12.9431 14.3117C12.7304 14.1412 12.4493 14.0269 12.1851 14.1534Z" fill="#00318A"></path>
  <path d="M17.186 1.26084C17.6357 1.24866 18.0864 1.24866 18.5371 1.26084C18.6318 2.13884 18.5203 3.02339 18.599 3.90232C18.9569 3.90794 19.3158 3.92012 19.6728 3.9576C19.7328 4.2865 19.7384 4.62383 19.6709 4.95179C18.8445 5.01176 18.0133 4.99677 17.1869 4.94898C17.1831 3.7196 17.1869 2.49116 17.1869 1.26178M17.274 1.32831C17.274 2.51646 17.2722 3.70367 17.274 4.89182C18.0527 4.94804 18.8361 4.9218 19.6157 4.90494C19.6288 4.66787 19.625 4.42987 19.5801 4.19748C19.5894 4.15625 19.6091 4.07473 19.6185 4.03444C19.2362 4.02507 18.8539 4.02601 18.4725 4.02601C18.421 3.13677 18.5015 2.24379 18.4369 1.35642C18.406 1.34049 18.346 1.30676 18.3151 1.29083C17.9674 1.29645 17.6198 1.2927 17.274 1.32831ZM14.9811 2.45649C15.1648 2.40495 15.3513 2.36091 15.5396 2.32718C15.3859 2.45649 15.1985 2.53333 15.0308 2.64108C15.2313 2.74322 15.4581 2.75634 15.6792 2.76852C15.4787 2.80975 15.2791 2.85004 15.0786 2.89221C15.0458 2.74697 15.013 2.60173 14.9811 2.45649ZM11.5722 3.66432C11.6153 3.75614 11.6566 3.84891 11.6987 3.94074C11.5207 4.03538 11.3408 4.12721 11.1599 4.21716C11.1206 4.14407 11.0812 4.07098 11.0428 3.9979C11.1553 4.00258 11.2686 4.01195 11.3811 3.99883C11.501 3.93512 11.5085 3.77301 11.5722 3.66432ZM25.2266 3.93137C25.4196 4.01383 25.6108 4.10191 25.7972 4.19842C25.6108 4.17499 25.4252 4.15251 25.2397 4.12908C25.2481 4.22841 25.2575 4.32773 25.2678 4.42612C25.1919 4.3877 25.1169 4.34834 25.0429 4.30805C25.1038 4.18249 25.1647 4.05693 25.2266 3.93137ZM26.5159 7.3815C26.6115 7.33558 26.7071 7.29154 26.8026 7.2475C26.9563 7.37213 27.1091 7.49862 27.2609 7.62606C27.2103 7.77598 27.1587 7.92591 27.1025 8.07396C27.0884 7.88749 27.1484 7.65417 26.9891 7.51455C26.8645 7.39368 26.6743 7.41242 26.5159 7.3815ZM7.57114 28.4636C7.8588 28.4112 8.06776 28.6585 8.29827 28.786C8.21113 28.8787 8.12492 28.9724 8.03871 29.0661C8.1549 29.0914 8.27203 29.1167 8.38822 29.142C7.95532 29.4325 7.76885 29.9488 7.82601 30.4576L7.78384 30.557C7.59081 30.2309 7.71638 29.8617 7.80164 29.5244C7.71638 29.4719 7.63111 29.4194 7.54584 29.3669L7.5955 29.3379C7.73043 29.2582 7.8588 29.1683 7.98437 29.0746C7.84194 28.8731 7.69951 28.6735 7.57114 28.4636ZM22.4614 31.776C22.5448 31.2138 23.0508 30.7481 23.6177 30.7069C23.9026 30.6853 24.163 30.8193 24.4132 30.9402C24.3964 31.1388 24.297 31.3094 24.1715 31.4602C23.9728 31.4106 23.7732 31.3516 23.5671 31.3487C23.4528 31.4471 23.3694 31.5755 23.2794 31.6964C23.3656 31.9156 23.4181 32.1733 23.6093 32.3307C23.7676 32.3945 23.9363 32.4301 24.1003 32.4797C23.8754 32.4797 23.5802 32.565 23.4331 32.3382C23.2513 32.0768 23.0733 31.6683 23.3235 31.3937C23.5306 31.1482 23.8838 31.2953 24.1593 31.2888C24.209 31.1969 24.2586 31.1061 24.3092 31.0152C24.0394 30.9243 23.7554 30.7528 23.464 30.8502C23.0049 30.9477 22.5832 31.3787 22.6357 31.8707C22.6357 32.1405 22.7556 32.3898 22.8615 32.6315C22.5804 32.4488 22.4502 32.1012 22.4614 31.776ZM14.1331 31.4453C14.5304 31.404 14.953 31.4415 15.2838 31.6861C14.9268 31.6027 14.5613 31.5596 14.2062 31.464L14.1331 31.4453ZM19.5304 31.8182C19.7468 31.6898 20.0261 31.6186 20.2622 31.7385C20.0355 31.7891 19.8078 31.8332 19.5801 31.8782C19.6147 32.5753 19.7965 33.2537 19.8509 33.949C19.5997 33.5292 19.6672 33.0251 19.5566 32.5669C19.5238 32.3214 19.4039 32.0543 19.5304 31.8182ZM17.9243 31.8819C18.1923 31.8285 18.4669 31.8276 18.7358 31.8772C18.8145 32.4207 18.7686 32.9707 18.777 33.518C19.0244 33.5245 19.2708 33.5339 19.5182 33.5461C19.5238 33.7382 19.521 33.9302 19.5088 34.1233C19.0103 34.1945 18.5062 34.262 18.003 34.2123C17.974 33.949 17.8906 33.6538 18.0283 33.4074L18.1136 33.3633C18.1164 33.5807 18.1192 33.7981 18.1295 34.0155C18.1951 34.2826 18.5587 34.1317 18.7395 34.0736C18.9448 34.0661 19.149 34.0596 19.3552 34.0614L19.4648 34.0661C19.4536 33.9134 19.4433 33.7616 19.4339 33.6107C19.1903 33.606 18.9466 33.6042 18.7039 33.6023C18.6983 33.0513 18.6983 32.4985 18.6309 31.9503C18.4228 31.9475 18.2157 31.9484 18.0077 31.9541C18.0059 32.2455 18.0059 32.5378 18.0059 32.8302C17.8794 32.5294 17.9168 32.1986 17.9243 31.8819ZM14.6953 32C14.8668 32.0122 15.1086 32.1143 15.0589 32.3261C15.0776 32.55 14.7881 32.4816 14.6494 32.52C14.6625 32.3457 14.6785 32.1724 14.6953 32Z" fill="#2B2F36"></path>
  <path d="M17.2731 1.3274C17.6188 1.29179 17.9665 1.29554 18.3141 1.28992C18.3076 1.38737 18.3019 1.48576 18.2973 1.58414C18.0293 1.48294 17.7425 1.48201 17.4624 1.50731C17.4577 2.56708 17.4633 3.6278 17.4577 4.68757L17.4614 4.77565C18.1164 4.81501 18.7901 4.88622 19.4339 4.72224C19.4835 4.54702 19.5332 4.37273 19.5791 4.19657C19.6241 4.42895 19.6278 4.66696 19.6147 4.90403C18.8351 4.92089 18.0517 4.94713 17.2731 4.89091C17.2712 3.70276 17.2731 2.51555 17.2731 1.3274Z" fill="#9E8644"></path>
  <path d="M18.3141 1.28992C18.3451 1.30585 18.405 1.33958 18.4359 1.35551C18.5006 2.24287 18.42 3.13586 18.4716 4.0251C18.8529 4.0251 19.2352 4.02416 19.6175 4.03353C19.6082 4.07382 19.5885 4.15534 19.5791 4.19657C19.5332 4.37273 19.4835 4.54702 19.4339 4.72224C19.418 4.56014 19.403 4.39709 19.387 4.23499C19.0188 4.21531 18.6496 4.20875 18.2813 4.20782C18.2514 3.33357 18.2485 2.45745 18.2973 1.58414C18.302 1.48576 18.3076 1.38737 18.3141 1.28992Z" fill="#A29165"></path>
  <path d="M13.6965 1.75562C14.418 1.68441 15.117 1.47733 15.8338 1.3855C16.0418 1.56916 15.9959 1.92804 16.0821 2.18478C15.906 2.24944 15.7223 2.29254 15.5387 2.32627C15.3503 2.36 15.1639 2.40405 14.9802 2.45558C15.0121 2.60082 15.0449 2.74606 15.0776 2.8913C15.2782 2.84913 15.4778 2.80884 15.6783 2.76761C15.831 2.73481 15.9838 2.70202 16.1365 2.6711C16.2602 2.94752 16.3108 3.24737 16.3042 3.54909C16.1421 3.57439 15.9809 3.59969 15.8198 3.63061C15.6277 3.66434 15.4375 3.70651 15.2482 3.75336C15.2744 3.93327 15.3007 4.11318 15.3269 4.29215C15.6089 4.27529 15.8854 4.21438 16.1599 4.14785C16.2705 4.12536 16.3829 4.10943 16.4954 4.101C16.5656 4.36524 16.6228 4.63229 16.6565 4.90403C15.9032 5.11392 15.1282 5.25916 14.3533 5.36224C14.1125 4.4046 13.9598 3.42821 13.7564 2.46308C13.703 2.23163 13.673 1.99363 13.6965 1.75562ZM13.8998 1.94771C13.912 2.1398 13.9345 2.33189 13.9766 2.52024C14.164 3.38605 14.3093 4.26029 14.5107 5.12329C15.1179 5.06239 15.7158 4.92277 16.3117 4.79252C16.5188 4.74474 16.3548 4.47768 16.3632 4.339C15.9734 4.3643 15.5977 4.48518 15.2079 4.51235C15.1395 4.20876 15.0758 3.90422 15.0252 3.59782C15.3841 3.51723 15.7439 3.44227 16.1018 3.357C16.0737 3.2127 16.0447 3.06746 16.0156 2.92222C15.6492 2.9597 15.2894 3.03279 14.9258 3.0862C14.8518 2.82196 14.804 2.55022 14.7994 2.27567C15.1479 2.21102 15.4946 2.13606 15.8394 2.05079C15.8095 1.90367 15.7776 1.75656 15.7448 1.61038C15.1245 1.69565 14.5154 1.83996 13.8998 1.94771ZM24.2774 3.10307C24.3823 2.9419 24.4404 2.6889 24.64 2.62893C25.3062 2.93159 25.95 3.28485 26.6049 3.61375C26.5328 3.90235 26.3838 4.16003 26.2226 4.40647C26.0783 4.33994 25.9368 4.2706 25.7963 4.19751C25.6098 4.101 25.4187 4.01292 25.2256 3.93046C25.1638 4.05602 25.1029 4.18158 25.042 4.30714C25.116 4.34744 25.191 4.38679 25.2669 4.42521C25.5058 4.54609 25.7429 4.66977 25.9753 4.80189C25.9087 5.09143 25.771 5.35661 25.5948 5.59368C25.4786 5.53559 25.3643 5.47655 25.25 5.41658C25.0467 5.30789 24.8424 5.20294 24.6353 5.10268C24.5472 5.27041 24.4601 5.44001 24.3758 5.60961C24.4526 5.65084 24.5304 5.69207 24.6091 5.7333C24.8649 5.86354 25.1254 5.98723 25.3802 6.12123C25.3043 6.39577 25.176 6.65158 25.0223 6.89146C24.3064 6.57568 23.5943 6.23648 22.9271 5.82419C23.3432 4.90122 23.8426 4.0176 24.2774 3.10307ZM24.6531 2.84913C24.1556 3.80677 23.6552 4.76348 23.1895 5.73705C23.7489 6.08187 24.3505 6.3508 24.9333 6.65252C25.0017 6.51384 25.0654 6.37235 25.1226 6.22805C24.7965 6.05376 24.4704 5.87947 24.1406 5.71081C24.2371 5.40721 24.387 5.12517 24.5641 4.86093C24.8977 5.01366 25.2191 5.19357 25.5602 5.33038C25.6201 5.18889 25.681 5.04739 25.7419 4.9059C25.4299 4.73349 25.1123 4.57326 24.7984 4.40647C24.8921 4.1516 25.0111 3.90703 25.1441 3.6709C25.4936 3.80396 25.8188 3.98856 26.1589 4.14129C26.2264 3.9998 26.2845 3.85456 26.3295 3.70464C25.7738 3.41416 25.2097 3.13867 24.6531 2.84913ZM27.9964 5.7005C28.3853 5.49623 28.7601 5.25916 29.1818 5.12798C29.0852 5.66489 28.8632 6.1662 28.7039 6.68438C28.4387 7.52302 28.1585 8.35603 27.8812 9.19092C27.5626 9.00539 27.2843 8.75614 27.0481 8.47504C26.931 8.35416 27.0734 8.20049 27.1016 8.07305C27.1578 7.925 27.2093 7.77508 27.2599 7.62515C27.1081 7.49772 26.9554 7.37122 26.8017 7.24659C26.7061 7.29063 26.6106 7.33467 26.515 7.38059C26.3641 7.45087 26.2189 7.53801 26.0558 7.5783C25.7907 7.49397 25.6267 7.24285 25.4496 7.0442C26.2779 6.55882 27.154 6.16058 27.9964 5.7005ZM28.2682 5.78202C27.4436 6.22336 26.6134 6.65158 25.7813 7.07606C25.8712 7.18944 25.9678 7.29719 26.069 7.4012C26.321 7.29438 26.5684 7.17725 26.8101 7.04888C27.0407 7.20724 27.2487 7.39558 27.437 7.60266C27.3527 7.84535 27.2721 8.08804 27.1896 8.3298C27.3686 8.52189 27.5626 8.70461 27.8006 8.82361C28.1379 7.71604 28.5521 6.63191 28.865 5.51778C28.6598 5.59087 28.4593 5.67708 28.2682 5.78202ZM14.2053 31.4631C14.5604 31.5587 14.9258 31.6018 15.2829 31.6852C15.6605 31.8088 15.8216 32.2727 15.6736 32.625C15.6371 32.64 15.5658 32.67 15.5302 32.685C15.5996 32.4329 15.6642 32.0946 15.4243 31.911C15.0851 31.6861 14.6654 31.6524 14.2737 31.5905C14.1341 32.2427 13.9251 32.8808 13.8426 33.5442C14.2399 33.637 14.6494 33.8431 15.0636 33.7419C15.4384 33.5855 15.3588 33.1169 15.4937 32.804C15.5565 33.1778 15.5049 33.5798 15.1976 33.8356C14.9408 33.8225 14.6841 33.8263 14.4274 33.8206C14.299 33.7972 14.1725 33.7607 14.0516 33.7138C13.9485 33.6651 13.8361 33.6051 13.7199 33.6426C13.7161 33.3334 13.8052 33.0373 13.8914 32.7449C13.9598 32.5135 14.0113 32.2774 14.0563 32.0403C14.0938 31.8454 14.1472 31.6533 14.2053 31.4631Z" fill="#A48C4C"></path>
  <path d="M17.4624 1.50722C17.7426 1.48192 18.0293 1.48286 18.2973 1.58406C18.2485 2.45737 18.2514 3.33349 18.2813 4.20773C18.6496 4.20867 19.0188 4.21523 19.387 4.23491C19.403 4.39701 19.418 4.56005 19.4339 4.72216C18.7761 4.6828 18.1164 4.70904 17.4577 4.68749C17.4633 3.62771 17.4577 2.567 17.4624 1.50722ZM13.8998 1.94763C14.5154 1.83987 15.1245 1.69557 15.7448 1.6103C15.7776 1.75647 15.8095 1.90359 15.8395 2.0507C15.4946 2.13597 15.1479 2.21093 14.7994 2.27558C14.804 2.55013 14.8518 2.82187 14.9259 3.08611C15.2894 3.0327 15.6492 2.95961 16.0156 2.92213C16.0447 3.06737 16.0737 3.21261 16.1018 3.35691C15.7439 3.44218 15.3841 3.51714 15.0252 3.59773C15.0758 3.90414 15.1395 4.20867 15.2079 4.51227C15.5977 4.48509 15.9734 4.36421 16.3632 4.33891C16.3548 4.47759 16.5188 4.74465 16.3117 4.79244C15.7158 4.92268 15.1179 5.0623 14.5107 5.12321C14.3093 4.26021 14.1641 3.38596 13.9766 2.52015C13.9345 2.33181 13.912 2.13972 13.8998 1.94763ZM21.128 2.11723C21.7483 1.73492 22.6957 2.10505 22.8315 2.84436C22.706 2.89496 22.5795 2.94181 22.4502 2.98398C22.348 2.7441 22.2534 2.41145 21.9348 2.40583C21.6059 2.32618 21.4016 2.72817 21.5572 2.9896C21.739 3.30444 22.095 3.46373 22.3115 3.75234C22.6132 4.09529 22.5326 4.66781 22.1906 4.95454C21.8186 5.28437 21.2423 5.27219 20.8188 5.05387C20.533 4.90582 20.3728 4.61346 20.2547 4.32767C20.384 4.3108 20.518 4.24146 20.6492 4.27895C20.8132 4.48134 20.9528 4.79431 21.2648 4.76432C21.5993 4.78213 21.8064 4.34641 21.6172 4.08498C21.351 3.7439 20.9031 3.53682 20.7701 3.10017C20.7017 2.74222 20.7907 2.31213 21.128 2.11723ZM24.6531 2.84904C25.2097 3.13859 25.7738 3.41407 26.3295 3.70455C26.2845 3.85447 26.2264 3.99971 26.1589 4.1412C25.8188 3.98847 25.4936 3.80387 25.1441 3.67082C25.0111 3.90695 24.8921 4.15151 24.7984 4.40638C25.1123 4.57317 25.4299 4.7334 25.7419 4.90582C25.681 5.04731 25.6201 5.1888 25.5602 5.33029C25.2191 5.19348 24.8977 5.01357 24.5641 4.86084C24.387 5.12508 24.2371 5.40712 24.1406 5.71072C24.4704 5.87939 24.7965 6.05367 25.1226 6.22796C25.0654 6.37226 25.0017 6.51375 24.9333 6.65243C24.3505 6.35071 23.7489 6.08178 23.1895 5.73696C23.6552 4.76339 24.1556 3.80668 24.6531 2.84904ZM6.78216 5.85128C7.13261 5.18599 7.93096 4.90019 8.64778 5.04075C8.6356 5.19723 8.62154 5.35371 8.60842 5.5102C8.26735 5.51488 7.87942 5.49239 7.60768 5.7379C7.30315 5.98808 7.20195 6.43785 7.38092 6.79111C7.60206 7.25307 8.00873 7.69253 8.53909 7.76187C8.87829 7.81434 9.23248 7.64287 9.39927 7.34302C9.56607 7.08815 9.51921 6.77143 9.56044 6.4847C9.64946 6.34134 9.86404 6.42099 10.0074 6.38444C10.0271 6.74895 10.0524 7.12938 9.91651 7.47608C9.69163 8.07296 9.06757 8.46839 8.43882 8.48151C7.15041 8.608 6.07471 6.96259 6.78216 5.85128ZM28.2682 5.78193C28.4593 5.67699 28.6598 5.59078 28.865 5.51769C28.5521 6.63182 28.1379 7.71596 27.8006 8.82352C27.5626 8.70452 27.3686 8.5218 27.1896 8.32971C27.2721 8.08796 27.3527 7.84527 27.437 7.60258C27.2487 7.39549 27.0407 7.20715 26.8102 7.04879C26.5684 7.17717 26.321 7.29429 26.069 7.40112C25.9678 7.29711 25.8712 7.18935 25.7813 7.07597C26.6134 6.6515 27.4436 6.22327 28.2682 5.78193ZM27.1597 6.85764C27.289 6.97571 27.4239 7.08721 27.5626 7.19403C27.6525 6.98882 27.7209 6.77612 27.7659 6.55686C27.5541 6.6365 27.3517 6.73864 27.1597 6.85764Z" fill="#FFFFFA"></path>
  <path d="M21.1065 1.89807C21.9245 1.43611 23.1904 2.14451 22.9974 3.13119C22.7528 3.13963 22.5092 3.15368 22.2646 3.16774C22.2037 2.99439 22.141 2.82291 22.0782 2.6505C21.9611 2.64488 21.843 2.63926 21.7259 2.63457C21.6968 3.0047 22.0351 3.18742 22.2731 3.40012C22.4877 3.59127 22.646 3.8527 22.7022 4.13569C22.7678 4.63044 22.4633 5.15142 21.9892 5.32009C21.4241 5.52342 20.7017 5.3913 20.325 4.89749C20.1676 4.70727 20.0982 4.46646 20.0327 4.23314C20.2716 4.11882 20.5265 4.03823 20.7898 4.00075C20.8835 4.19753 20.9819 4.39149 21.0831 4.58358C21.2658 4.58733 21.4298 4.51706 21.5675 4.39899C21.5178 4.30904 21.4691 4.21908 21.4157 4.13194C21.1383 3.86301 20.7841 3.64937 20.6202 3.28487C20.4356 2.78918 20.5921 2.12764 21.1065 1.89807ZM21.128 2.11733C20.7907 2.31223 20.7017 2.74233 20.7701 3.10027C20.9032 3.53693 21.351 3.74401 21.6172 4.08509C21.8064 4.34652 21.5994 4.78223 21.2648 4.76443C20.9528 4.79441 20.8132 4.48145 20.6492 4.27905C20.518 4.24157 20.384 4.31091 20.2547 4.32778C20.3728 4.61357 20.533 4.90592 20.8188 5.05397C21.2424 5.2723 21.8186 5.28448 22.1906 4.95465C22.5326 4.66792 22.6132 4.09539 22.3115 3.75244C22.095 3.46384 21.739 3.30454 21.5572 2.9897C21.4016 2.72827 21.6059 2.32629 21.9348 2.40594C22.2534 2.41156 22.348 2.7442 22.4502 2.98408C22.5795 2.94191 22.706 2.89506 22.8315 2.84446C22.6957 2.10515 21.7483 1.73503 21.128 2.11733Z" fill="#A28C51"></path>
  <path d="M11.1562 2.74603C11.501 2.55675 11.8431 2.34404 12.2357 2.27002C12.7342 3.36165 13.2936 4.42518 13.7602 5.53087C13.4173 5.72483 13.0696 5.92723 12.6808 6.01437C12.4746 5.62832 12.3125 5.22071 12.1195 4.82904C11.9021 4.75126 11.7081 4.90494 11.5188 4.98739C11.5732 5.11483 11.6266 5.24226 11.6847 5.36783C11.8384 5.6733 12.0033 5.97408 12.1213 6.29736C11.7915 6.50256 11.4411 6.6806 11.0663 6.79023C10.8067 6.38918 10.639 5.94035 10.4319 5.51213C10.1199 4.86277 9.80596 4.21435 9.50986 3.55749C9.82563 3.30543 10.2098 3.1705 10.5818 3.02714C10.7505 3.34291 10.8826 3.6765 11.0419 3.99696C11.0803 4.07005 11.1197 4.14313 11.159 4.21622C11.3399 4.12627 11.5198 4.03444 11.6978 3.9398C11.6556 3.84797 11.6144 3.75521 11.5713 3.66338C11.4186 3.36447 11.2509 3.07024 11.1562 2.74603ZM11.4186 2.83317C11.5573 3.24734 11.7812 3.6259 11.9321 4.03538C11.6528 4.19842 11.3605 4.33522 11.0588 4.44954C10.8423 4.07567 10.6821 3.67275 10.4769 3.29325C10.2323 3.38133 9.99711 3.4919 9.76566 3.60903C10.1986 4.60602 10.6905 5.57866 11.1637 6.55879C11.4045 6.45852 11.6388 6.34327 11.8609 6.2074C11.6781 5.76794 11.4532 5.34721 11.2715 4.90681C11.5619 4.75407 11.858 4.60884 12.1673 4.49733C12.3968 4.91805 12.5552 5.3772 12.8232 5.77731C13.0546 5.67423 13.2814 5.56273 13.5006 5.43435C13.0528 4.45423 12.5983 3.4741 12.097 2.52021C11.8646 2.61016 11.6378 2.71417 11.4186 2.83317Z" fill="#A48C49"></path>
  <path d="M11.4186 2.83311C11.6378 2.71411 11.8646 2.6101 12.097 2.52014C12.5983 3.47403 13.0527 4.45416 13.5006 5.43429C13.2814 5.56266 13.0546 5.67417 12.8232 5.77724C12.5552 5.37713 12.3968 4.91799 12.1673 4.49727C11.858 4.60877 11.5619 4.75401 11.2715 4.90675C11.4532 5.34715 11.6781 5.76787 11.8608 6.20734C11.6388 6.34321 11.4045 6.45846 11.1637 6.55872C10.6905 5.57859 10.1986 4.60596 9.76566 3.60897C9.9971 3.49184 10.2323 3.38127 10.4769 3.29319C10.6821 3.67268 10.8423 4.0756 11.0588 4.44948C11.3605 4.33516 11.6528 4.19835 11.9321 4.03531C11.7812 3.62583 11.5572 3.24727 11.4186 2.83311Z" fill="#FFFFFC"></path>
  <path d="M21.7258 2.6344C21.843 2.63908 21.961 2.64471 22.0782 2.65033C22.1409 2.82274 22.2037 2.99422 22.2646 3.16757C22.5092 3.15351 22.7528 3.13946 22.9974 3.13102C22.7688 3.2519 22.5223 3.33436 22.2731 3.39995C22.0351 3.18724 21.6968 3.00452 21.7258 2.6344Z" fill="#03317F"></path>
  <path d="M15.2482 3.75324C15.4375 3.70639 15.6277 3.66423 15.8198 3.63049C15.7158 3.742 15.5677 3.78885 15.429 3.84132C15.4131 3.93315 15.3981 4.02592 15.3822 4.11868C15.6418 4.13461 15.9004 4.14024 16.1599 4.14773C15.8854 4.21426 15.609 4.27517 15.3269 4.29203C15.3007 4.11306 15.2744 3.93315 15.2482 3.75324Z" fill="#374041"></path>
  <path d="M21.4157 4.13196C21.4691 4.2191 21.5178 4.30906 21.5675 4.39901C21.4298 4.51708 21.2658 4.58735 21.0831 4.5836C21.2349 4.46648 21.3539 4.31468 21.4157 4.13196Z" fill="#424740"></path>
  <path d="M17.4577 4.6875C18.1164 4.70905 18.7761 4.68281 19.4339 4.72217C18.7902 4.88615 18.1164 4.81494 17.4615 4.77558L17.4577 4.6875Z" fill="#E1C278"></path>
  <path d="M7.60488 4.90296C8.01155 4.7699 8.44633 4.81019 8.86331 4.85236C8.88205 5.16532 8.8202 5.47454 8.76211 5.78095C8.734 5.7772 8.67684 5.76877 8.64873 5.76502C8.34138 5.71067 8.00218 5.66007 7.73888 5.87278C7.46527 6.1061 7.44652 6.5287 7.62362 6.82386C7.79978 7.15838 8.10432 7.40763 8.45383 7.54537C8.58501 7.62408 8.76586 7.64376 8.88673 7.53506C9.37211 7.31205 9.36555 6.74609 9.30652 6.29444C9.56795 6.20636 9.84063 6.15576 10.1142 6.12484C10.133 6.16794 10.1686 6.25602 10.1864 6.29912C10.2173 6.62708 10.2201 6.95879 10.1864 7.28675C9.97275 8.46459 8.46976 9.02868 7.46433 8.48052C6.97801 8.19473 6.61164 7.71872 6.4261 7.1893C6.12251 6.27382 6.70627 5.20936 7.60395 4.90296M6.78124 5.85123C6.07378 6.96254 7.14949 8.60796 8.4379 8.48146C9.06664 8.46834 9.6907 8.07291 9.91559 7.47603C10.0515 7.12933 10.0262 6.7489 10.0065 6.38439C9.86311 6.42094 9.64854 6.34129 9.55952 6.48465C9.51829 6.77138 9.56514 7.0881 9.39835 7.34297C9.23156 7.64282 8.87736 7.81429 8.53816 7.76182C8.0078 7.69248 7.60113 7.25302 7.38 6.79106C7.20102 6.4378 7.30222 5.98803 7.60676 5.73785C7.87849 5.49235 8.26642 5.51483 8.6075 5.51015C8.62062 5.35367 8.63467 5.19718 8.64686 5.0407C7.93003 4.90014 7.13168 5.18594 6.78124 5.85123ZM19.5782 31.8771C19.8059 31.8321 20.0336 31.7881 20.2604 31.7375C20.2735 31.8443 20.2866 31.9502 20.3006 32.057C20.3494 32.5105 20.4056 32.965 20.5227 33.4063C20.7532 33.3717 20.9837 33.3323 21.2114 33.2798C21.2424 33.4644 21.2695 33.649 21.2948 33.8346C21.1974 33.8608 21.0999 33.8842 21.0015 33.9039C20.6192 33.947 20.2351 33.9723 19.8556 34.0398L19.849 33.9479C19.7946 33.2527 19.6129 32.5743 19.5782 31.8771ZM19.6616 31.9568C19.7562 32.6155 19.8593 33.2723 19.9708 33.9283C20.3803 33.8945 20.7841 33.8168 21.1861 33.7352C21.1599 33.6294 21.1327 33.5235 21.1065 33.4185C20.8844 33.456 20.6633 33.4935 20.4412 33.5272C20.2969 32.98 20.2753 32.4103 20.1432 31.8612C19.9821 31.8921 19.8218 31.923 19.6616 31.9568Z" fill="#A48C4D"></path>
  <path d="M11.5188 4.98732C11.7081 4.90486 11.9021 4.75119 12.1195 4.82896C11.992 4.8908 11.8618 4.95077 11.7325 5.00887C11.7156 5.12881 11.6997 5.24781 11.6847 5.36775C11.6266 5.24219 11.5732 5.11475 11.5188 4.98732Z" fill="#323C41"></path>
  <path d="M24.3757 5.60947C24.4601 5.43987 24.5472 5.27027 24.6353 5.10254C24.8424 5.2028 25.0466 5.30775 25.25 5.41644C25.0448 5.37709 24.8396 5.33398 24.6353 5.29088C24.624 5.43799 24.6147 5.58511 24.6091 5.73316C24.5303 5.69193 24.4526 5.6507 24.3757 5.60947Z" fill="#2B3B48"></path>
  <path d="M17.6479 5.46331C20.1376 5.37523 22.6469 6.06581 24.7431 7.41138C27.2402 9.00339 29.1602 11.4959 30.0073 14.3388C31.0061 17.5997 30.6154 21.2691 28.9044 24.2263C27.5279 26.6317 25.3399 28.5666 22.7734 29.617C20.7476 30.4585 18.4997 30.718 16.3286 30.4425C13.5128 30.0743 10.8292 28.7175 8.89045 26.6373C7.03514 24.707 5.84418 22.1555 5.53215 19.4981C5.32132 17.5978 5.50404 15.645 6.14965 13.8403C7.13353 11.0133 9.17437 8.57611 11.7737 7.09654C13.5568 6.07987 15.5939 5.4961 17.6479 5.46331ZM16.7146 5.93275C15.2257 6.07893 13.7705 6.52121 12.4408 7.20524C9.82279 8.54237 7.73135 10.8681 6.67626 13.6117C5.73549 16.0348 5.60524 18.7588 6.30145 21.2625C7.01734 23.8665 8.64027 26.2081 10.8226 27.7973C12.9318 29.3537 15.5621 30.1914 18.1829 30.1352C20.7017 30.1118 23.2045 29.2656 25.2237 27.7598C27.3798 26.1697 28.9878 23.8477 29.6952 21.2625C30.4027 18.7128 30.2565 15.9308 29.2661 13.4758C28.2813 11.0011 26.4475 8.8797 24.1518 7.5332C21.931 6.21855 19.2793 5.65165 16.7146 5.93275ZM26.9432 28.6547C27.2693 28.9536 27.5298 29.3144 27.8034 29.6601C27.8905 29.7754 27.9749 29.9 28.0048 30.0452C28.0058 30.227 28.0048 30.4079 28.0002 30.5906C27.8521 31.1341 27.1137 31.2596 26.6996 30.9598C26.9629 30.9898 27.2412 31.0956 27.5007 30.986C27.8896 30.8483 28.1107 30.3189 27.8708 29.9647C27.6178 29.5477 27.303 29.1729 26.9938 28.7981C26.9066 28.8796 26.8204 28.963 26.7352 29.0464C26.9985 29.453 27.3442 29.8044 27.586 30.2261C27.7078 30.4716 27.3236 30.7368 27.139 30.5241C26.8026 30.1745 26.5646 29.7445 26.2395 29.3846C26.1027 29.4886 25.9668 29.5927 25.8319 29.6985C26.0952 30.078 26.4035 30.4294 26.6302 30.8342C26.2498 30.5016 25.9752 30.0677 25.6979 29.6498C25.8825 29.4961 26.0689 29.3368 26.2985 29.2553C26.603 29.6329 26.8504 30.0593 27.1896 30.4079C27.2496 30.4144 27.3686 30.4285 27.4276 30.436C27.4379 29.8353 26.8017 29.5139 26.6059 28.9836C26.7192 28.8749 26.8326 28.7662 26.9432 28.6547ZM16.8055 31.67C17.0117 32.027 17.0932 32.4337 17.2159 32.8226C17.348 33.277 17.5214 33.7203 17.616 34.185C17.393 34.1756 17.1719 34.1616 16.9507 34.14C16.8449 33.9227 16.784 33.605 16.4944 33.575C16.3773 33.7184 16.262 33.8636 16.1449 34.007C15.9978 33.992 15.8488 33.9976 15.7017 34.0192C15.7373 33.7156 15.9041 33.4541 16.039 33.1871C16.3033 32.6858 16.5319 32.1667 16.8055 31.67ZM16.7971 31.9437C16.4476 32.5977 16.0803 33.2499 15.8216 33.9461C15.8947 33.9479 16.04 33.9508 16.1121 33.9526C16.1908 33.8018 16.2695 33.6509 16.3464 33.5001C16.5066 33.5216 16.6659 33.5469 16.8252 33.5759C16.8777 33.7259 16.932 33.8758 16.9864 34.0257C17.1503 34.0435 17.3152 34.0576 17.4811 34.0679C17.2937 33.3492 17.0894 32.6267 16.7971 31.9437Z" fill="#BA8A1D"></path>
  <path d="M7.73886 5.87286C8.00217 5.66016 8.34137 5.71076 8.64871 5.76511C8.35261 5.84663 8.04527 5.8738 7.73886 5.87286Z" fill="#2A3843"></path>
  <path d="M10.1864 6.29919C10.474 6.51565 10.3129 6.98978 10.2913 7.3065L10.1873 7.28682C10.2201 6.95886 10.2173 6.62715 10.1873 6.29919H10.1864Z" fill="#1D2F44"></path>
  <path d="M27.1597 6.85779C27.3518 6.73879 27.5542 6.63665 27.766 6.55701C27.721 6.77627 27.6526 6.98898 27.5626 7.19418C27.4239 7.08736 27.289 6.97586 27.1597 6.85779Z" fill="#B3944A"></path>
  <path d="M8.45383 7.54548C8.55877 7.43678 8.77804 7.42741 8.88673 7.53517C8.76586 7.64386 8.58501 7.62419 8.45383 7.54548Z" fill="#514E34"></path>
  <path d="M18.7349 9.4475C18.5999 8.89934 19.0759 8.51891 19.5032 8.2959C19.3308 8.65197 19.2587 9.04364 19.254 9.4372C19.0806 9.44094 18.9073 9.44469 18.7349 9.4475ZM17.5111 9.88135H17.5758C17.8775 9.89072 18.2935 9.81482 18.4538 10.1475C18.7395 10.6591 18.3769 11.3291 17.8269 11.4612C18.0021 11.1557 18.2073 10.7978 18.0621 10.4379C17.9937 10.2037 17.7201 10.1812 17.528 10.1072C17.5233 10.0509 17.5149 9.93757 17.5111 9.88135Z" fill="#596DB1"></path>
  <path d="M11.3286 9.91426C11.4607 9.45231 11.814 9.04751 12.2741 8.89197C11.9377 9.23867 11.59 9.63409 11.5423 10.1363C11.456 10.6798 11.665 11.2167 11.9798 11.6506C11.3708 11.3348 11.1618 10.5439 11.3286 9.91426ZM13.8708 26.6598C14.1088 26.642 14.3477 26.642 14.5866 26.6392C14.5651 26.8557 14.5445 27.0731 14.537 27.2914C14.4836 27.2577 14.3758 27.1893 14.3224 27.1546C14.2549 26.91 14.1725 26.6589 13.8708 26.6598Z" fill="#586EB1"></path>
  <path d="M14.3121 9.58533C14.6448 9.61437 14.7956 9.94796 14.9156 10.215C15.1152 10.7604 15.0271 11.4069 14.6748 11.8717C14.4414 12.2043 14.0854 12.417 13.7321 12.6026C13.5663 12.4807 13.3845 12.3814 13.2046 12.2821C13.2926 12.0057 13.6075 11.9288 13.8033 11.747C14.4433 11.2495 14.6354 10.3181 14.3121 9.58533ZM26.0624 16.8716C26.455 17.0075 26.7258 17.3982 26.7258 17.8134C26.7671 18.4009 26.3417 18.9397 25.8085 19.1477C25.7851 18.9087 25.7532 18.6707 25.6698 18.4449C26.1243 18.0645 26.3051 17.4235 26.0624 16.8716ZM17.7491 24.8813C17.9618 24.6077 18.3029 24.4953 18.6112 24.366C18.8651 24.4906 19.1247 24.6012 19.3861 24.7089C18.9982 24.9057 18.5269 25.0144 18.2645 25.3911C17.9609 25.8081 17.9647 26.3609 17.6976 26.7938C17.4933 27.1255 17.0614 27.0374 16.7503 27.1696C16.6275 27.356 16.5928 27.5875 16.5029 27.7908C16.2958 27.6652 16.1047 27.5153 15.9407 27.3382C16.0278 27.1283 16.0419 26.8697 16.2096 26.7048C16.4991 26.5802 16.9021 26.6739 17.1045 26.3853C17.4071 25.9233 17.4024 25.3199 17.7491 24.8813Z" fill="#D3D3D6"></path>
  <path d="M12.6667 9.81202C12.9946 9.5609 13.5091 9.62836 13.7049 10.0107C13.9645 10.557 13.5737 11.2026 13.0687 11.4462C13.0096 11.1379 12.7857 10.9252 12.5486 10.7415C12.8232 10.7228 13.2514 10.7575 13.2767 10.3799C13.3413 10.0107 12.9515 9.8748 12.6667 9.81202Z" fill="#596DB2"></path>
  <path d="M12.6667 9.81213C12.9515 9.87491 13.3414 10.0108 13.2767 10.38C13.2514 10.7576 12.8232 10.7229 12.5486 10.7417C12.4774 10.5636 12.3406 10.3753 12.4174 10.1757C12.483 10.0436 12.5805 9.93114 12.6667 9.81213Z" fill="#D2D3D9"></path>
  <path d="M20.191 10.4165C20.2369 10.1485 20.5545 10.2797 20.7448 10.2544C20.8141 10.4867 20.9949 10.6451 21.1758 10.7932C20.8188 10.9871 20.414 10.6882 20.191 10.4165Z" fill="#CDD3E0"></path>
  <path d="M20.9697 10.2414C21.1158 10.232 21.262 10.2236 21.4082 10.2161C21.3576 10.3472 21.3061 10.4775 21.2545 10.6087C21.0512 10.5862 20.9387 10.4447 20.9697 10.2414Z" fill="#B4C8EB"></path>
  <path d="M22.8512 10.438C23.0321 10.602 23.3104 10.721 23.3685 10.9749C23.2476 11.2832 23.018 11.5324 22.8578 11.8192C22.7022 11.7761 22.5495 11.7255 22.393 11.6908C22.3312 11.7723 22.2862 11.8632 22.259 11.9635C22.0032 11.7451 21.8158 12.1143 21.6884 12.2924C21.4851 12.3055 21.2808 12.3008 21.0774 12.283C21.0062 11.9485 21.1758 11.5849 21.4851 11.4369C21.709 11.33 21.872 11.584 22.0398 11.6927C22.3209 11.2822 22.6666 10.9074 22.8512 10.438ZM19.7956 27.0533C19.9296 26.9709 20.072 26.895 20.2313 26.8772C20.295 26.8884 20.4234 26.9118 20.4871 26.9231C20.5574 27.0571 20.6286 27.192 20.7017 27.3251C20.384 27.4075 20.265 27.7149 20.1357 27.98C19.8865 27.7345 19.8668 27.3747 19.7956 27.0533Z" fill="#D3D3D7"></path>
  <path d="M16.5975 11.8014C16.5572 11.6356 16.6172 11.4735 16.6725 11.3188C16.8177 11.8389 17.3434 12.0497 17.7875 12.2531C17.7219 12.864 17.3752 13.3859 17.0885 13.9125C16.9414 14.1206 17.0707 14.3689 17.0698 14.5975C17.0389 15.006 16.7849 15.4202 16.3558 15.4942C16.3014 15.1738 16.3033 14.8224 16.1084 14.5478C15.8254 14.1477 15.444 13.8329 15.0833 13.5068C15.5246 13.5415 15.9622 13.6183 16.4045 13.6417C16.6931 13.2791 16.9367 12.8837 17.1513 12.4733C16.9377 12.2802 16.6387 12.1153 16.5975 11.8014ZM23.9335 12.7778C24.5276 12.5988 25.1666 13.1713 25.1057 13.7739C25.0579 14.1243 24.8218 14.411 24.5763 14.65C24.0806 15.1213 23.4893 15.5055 23.1005 16.0789C22.8128 16.4884 22.7988 17.0469 23.004 17.4948C23.3544 18.2585 24.0993 18.7738 24.3795 19.5778C24.5182 20.007 24.521 20.5167 24.2652 20.9037C23.9888 21.3019 23.4528 21.4369 22.9955 21.3431C22.3977 21.2316 21.8992 20.7997 21.6434 20.2571C21.7943 20.3864 21.9526 20.5092 22.1175 20.6226C22.5373 20.8596 23.0902 20.9833 23.5324 20.7378C23.8876 20.5411 23.9935 20.0772 23.8773 19.7099C23.7095 19.1336 23.2392 18.727 22.8915 18.2603C22.4352 17.6813 22.1344 16.8717 22.4211 16.1511C22.7997 15.2928 23.673 14.8374 24.2577 14.1459C24.4039 13.9875 24.4526 13.7729 24.4601 13.563C24.3617 13.2538 24.0506 13.043 23.7283 13.1573C23.5971 13.2407 23.4687 13.3288 23.345 13.4215C23.4856 13.1676 23.6224 12.8537 23.9335 12.7778ZM12.4999 14.7043C12.633 14.7203 12.7679 14.7334 12.9019 14.7474C12.9347 15.8934 12.8625 17.0413 12.9337 18.1854C13.0387 18.1704 13.1446 18.1535 13.2505 18.1366C13.4397 18.0907 13.6253 18.0261 13.8005 17.9408C14.2962 17.6625 14.7431 17.3074 15.2182 16.9972C15.6211 16.7414 16.0475 16.5231 16.4513 16.2682C16.8327 16.3938 17.2347 16.4238 17.6329 16.4528C17.066 16.8632 16.4363 17.1706 15.8357 17.5266C15.3325 17.8031 14.849 18.1151 14.344 18.3868C13.7171 18.7242 12.9806 18.5274 12.3134 18.6867C11.9817 18.7982 11.6369 19.0362 11.5816 19.4073L11.5535 19.5122C11.398 19.4344 11.5001 19.2433 11.517 19.1158C11.6228 18.6276 12.1242 18.4253 12.5083 18.1938C12.5083 17.031 12.5186 15.8681 12.4999 14.7043ZM19.0506 18.4655C19.358 18.6023 19.7075 18.7813 19.7815 19.1458C19.894 19.5263 19.6297 19.8833 19.3243 20.08C18.4004 20.6947 17.2487 20.914 16.4064 21.6608C16.159 21.8604 16.0138 22.1734 16.0569 22.4929C16.054 22.8977 16.4748 23.0701 16.7531 23.2715C16.5807 24.024 16.4054 24.916 15.6905 25.3471C15.0158 25.7387 14.1959 25.3189 13.4885 25.5879C13.302 25.6591 13.1774 25.8559 13.1971 26.0564C13.2149 26.4331 13.2739 26.8069 13.3011 27.1827C13.1839 27.0562 13.1118 26.8978 13.123 26.7226C13.1193 26.3084 13.0312 25.8334 13.3095 25.482C13.5063 25.3471 13.7302 25.2562 13.9617 25.1999C14.5005 25.1925 15.1826 25.4389 15.6005 24.9741C15.9219 24.5403 16.0316 23.9771 16.0569 23.4477C15.9463 23.1422 15.5312 23.0148 15.4581 22.6719C15.3297 22.0141 15.7729 21.4322 16.2077 20.9927C16.7849 20.4511 17.4371 19.9657 18.1736 19.6668C18.4847 19.5544 18.897 19.574 19.1031 19.2779C19.1518 19.0071 19.0778 18.7345 19.0506 18.4655ZM19.3814 22.283C19.6222 22.2849 19.8724 22.2764 20.1029 22.3579C20.3391 22.5697 20.3822 22.9398 20.6473 23.1282C20.9463 23.2537 21.2901 23.1891 21.59 23.3072C21.8514 23.5142 21.9489 23.8647 21.9629 24.1851C21.9779 24.753 21.724 25.2824 21.4391 25.7594C20.846 25.8203 20.1854 25.6938 19.6578 26.0348C19.2034 26.3441 19.4798 26.9466 19.4779 27.3907C19.2484 26.9859 19.2296 26.4331 19.4479 26.0217C19.8312 25.557 20.5002 25.63 21.0362 25.5354C21.2067 25.527 21.233 25.3339 21.2705 25.2037C21.3183 24.9301 21.3145 24.6452 21.2677 24.3716C21.2414 24.2517 21.2114 24.1336 21.1814 24.0155C21.0315 23.9678 20.8807 23.9209 20.7317 23.8694C20.2247 23.6707 19.8256 23.2547 19.5838 22.774C19.5089 22.6128 19.4442 22.4479 19.3814 22.283Z" fill="#5A6DB2"></path>
  <path d="M22.8578 11.8193C23.2345 11.9411 23.5428 11.6169 23.836 11.436C23.7658 11.8427 23.5184 12.2344 23.0958 12.3384C22.9787 12.3225 22.8615 12.3056 22.7444 12.2859C22.5757 12.1885 22.4193 12.0742 22.259 11.9636C22.2862 11.8633 22.3312 11.7724 22.393 11.6909C22.5495 11.7256 22.7022 11.7762 22.8578 11.8193Z" fill="#EA0E16"></path>
  <path d="M12.4886 12.1772C12.6311 12.1866 12.7744 12.1941 12.9178 12.2025C12.9178 12.2691 12.9178 12.4031 12.9178 12.4696C12.7744 12.4649 12.6311 12.4593 12.4877 12.4565C12.4877 12.3862 12.4877 12.2466 12.4896 12.1772H12.4886Z" fill="#536EB5"></path>
  <path d="M13.2046 12.2821C13.3845 12.3814 13.5663 12.4808 13.7321 12.6026C13.8539 12.7394 13.9589 12.8902 14.0638 13.0402C13.8127 12.9549 13.5428 12.8977 13.3254 12.7403C13.2355 12.6063 13.2364 12.4348 13.2046 12.2821Z" fill="#5A6EAE"></path>
  <path d="M22.7444 12.2859C22.8615 12.3056 22.9786 12.3224 23.0958 12.3384C23.2382 12.3852 23.375 12.448 23.5146 12.5061C23.4069 12.6251 23.3113 12.7525 23.2232 12.8856C23.0752 12.8134 22.9224 12.7497 22.7912 12.6504C22.7481 12.5342 22.7538 12.4077 22.7444 12.2859Z" fill="#D7D3D5"></path>
  <path d="M3.12684 12.5013C3.81649 12.2914 4.63077 12.5482 5.05056 13.1404C5.53219 13.7822 5.49564 14.7605 4.94467 15.3499C4.47897 15.8812 3.675 16.0798 3.01627 15.8221C2.40346 15.5935 1.94713 15.0004 1.88903 14.3482C1.80001 13.5433 2.34724 12.7234 3.12684 12.5013ZM2.85417 12.8743C2.95818 12.923 3.05657 13.0345 3.18213 13.0036C3.54382 12.9314 3.90926 12.8808 4.27376 12.8265C3.83617 12.5688 3.28239 12.6269 2.85417 12.8743ZM2.38191 13.3222C2.98067 13.6136 3.54944 13.9584 4.13227 14.2798C4.16881 14.1205 4.20348 13.9612 4.23722 13.801C3.7837 13.4346 3.26833 13.1451 2.70799 12.9764C2.59649 13.0888 2.48779 13.2041 2.38191 13.3222ZM3.35267 13.0495C3.49697 13.1685 3.64221 13.3418 3.85116 13.3081C4.17818 13.2922 4.50614 13.2772 4.8341 13.2613C4.75633 13.1666 4.672 13.0813 4.57923 13.0026C4.1735 12.9164 3.75465 12.967 3.35267 13.0495ZM3.91769 13.4093C4.04513 13.5218 4.17163 13.6389 4.32342 13.7185C4.57361 13.7391 4.82473 13.7204 5.07492 13.712C5.03275 13.6136 4.99059 13.5161 4.94748 13.4196C4.60734 13.3587 4.25877 13.3587 3.91769 13.4093ZM2.14859 13.9481C2.69862 14.3192 3.30019 14.6228 3.93737 14.813C3.95424 14.6602 4.13789 14.4475 3.96548 14.3313C3.44918 13.9771 2.89352 13.6764 2.31725 13.4299C2.23854 13.5948 2.18232 13.7682 2.14859 13.9481ZM4.8416 13.8038C4.79475 14.4344 4.53707 15.0079 4.2316 15.5504C4.91281 15.318 5.2389 14.5478 5.13864 13.8694C5.03931 13.8469 4.94092 13.8253 4.8416 13.8038ZM3.74903 15.3789C3.80244 15.4202 3.90832 15.5007 3.96173 15.542C4.48365 15.14 4.66263 14.4607 4.7329 13.8366C4.64576 13.8319 4.47147 13.8235 4.38433 13.8188C4.22035 14.3576 4.01608 14.8832 3.74903 15.3789ZM2.11204 14.0952C2.13734 14.3201 2.09892 14.6134 2.31163 14.7614C2.69862 15.0622 3.16526 15.2506 3.6497 15.319C3.71998 15.185 3.78932 15.05 3.85772 14.9151C3.25334 14.6902 2.68644 14.3848 2.11204 14.0952ZM2.3969 15.0013C2.3538 15.1306 2.3969 15.1803 2.52808 15.1494C2.57306 15.0191 2.52902 14.9695 2.3969 15.0013ZM2.65646 15.1372C2.66864 15.4202 2.91414 15.5467 3.15495 15.6094C3.16057 15.3143 2.91789 15.1756 2.65646 15.1372ZM3.17557 15.3574C3.2421 15.4642 3.29832 15.5823 3.39389 15.6694C3.55975 15.7341 3.74153 15.691 3.91301 15.6797C3.75652 15.422 3.45761 15.3499 3.17557 15.3574Z" fill="#FDF7FB"></path>
  <path d="M31.8935 12.4996C32.9186 12.1613 34.1152 12.9765 34.1339 14.0644C34.2314 14.9686 33.5005 15.8391 32.6 15.9206C31.6283 16.0724 30.6351 15.2488 30.6426 14.2574C30.5723 13.4675 31.1401 12.7104 31.8935 12.4996ZM31.5955 12.8734C31.7023 12.9268 31.8073 13.0365 31.9385 13.0027C32.3011 12.9315 32.6665 12.8791 33.0329 12.8256C32.5878 12.5717 32.0312 12.6317 31.5955 12.8734ZM31.1354 13.3241C31.7333 13.6174 32.3011 13.966 32.8886 14.2771C32.9205 14.1234 33.0151 13.9698 32.9861 13.8095C32.5541 13.4207 32.02 13.1648 31.4737 12.9774C31.3585 13.0899 31.246 13.2051 31.1354 13.3241ZM32.1081 13.0477C32.2355 13.1499 32.3508 13.311 32.5307 13.3073C32.8811 13.3007 33.2316 13.2745 33.583 13.2773C33.5099 13.1836 33.4387 13.0889 33.3515 13.0102C32.942 12.91 32.5147 12.9662 32.1081 13.0477ZM32.6769 13.4094C32.8034 13.5237 32.9261 13.6512 33.0835 13.7243C33.3328 13.7383 33.582 13.7214 33.8313 13.7102C33.791 13.6165 33.7507 13.5219 33.7113 13.4282C33.3712 13.356 33.0198 13.356 32.6769 13.4094ZM31.0305 13.4834C30.9593 13.6324 30.9284 13.7945 30.8956 13.9548C31.4409 14.3127 32.0312 14.5985 32.6459 14.8149C32.7097 14.6875 32.7715 14.5591 32.8324 14.4308C32.3967 14.0869 31.901 13.8254 31.4081 13.5753C31.2854 13.5406 31.1598 13.4178 31.0305 13.4834ZM33.0882 13.9688C32.9355 14.4551 32.7387 14.9255 32.5054 15.379C32.5597 15.4221 32.6665 15.5083 32.7209 15.5515C33.2344 15.1279 33.4499 14.4476 33.4574 13.8011C33.33 13.8376 33.1229 13.7945 33.0882 13.9688ZM33.5905 13.7908C33.5361 14.4486 33.3028 15.0736 32.898 15.5955C33.5895 15.3781 34.0252 14.6116 33.8856 13.9051C33.8181 13.8114 33.687 13.8273 33.5905 13.7908ZM30.8834 14.1094C30.8937 14.3146 30.8515 14.5704 31.0211 14.725C31.3875 15.0417 31.8551 15.2207 32.3255 15.3144C32.4951 15.2666 32.5241 15.0483 32.6131 14.9171C32.0134 14.6969 31.4531 14.3924 30.8834 14.1094ZM31.1504 15.0108C31.113 15.141 31.1589 15.1879 31.2891 15.1523C31.3275 15.0202 31.2807 14.9724 31.1504 15.0108ZM31.4194 15.142C31.4325 15.425 31.663 15.5608 31.9141 15.6114C31.9076 15.3238 31.6817 15.1757 31.4194 15.142ZM31.9338 15.3472C31.9956 15.4549 32.0453 15.5749 32.1353 15.6648C32.2852 15.7229 32.451 15.7051 32.6094 15.7164C32.571 15.395 32.1877 15.3631 31.9338 15.3472Z" fill="#FDF8FD"></path>
  <path d="M2.85413 12.8744C3.28235 12.627 3.83613 12.5689 4.27372 12.8266C3.90922 12.881 3.54378 12.9316 3.18208 13.0037C3.05652 13.0346 2.95814 12.9231 2.85413 12.8744Z" fill="#C6363B"></path>
  <path d="M31.5956 12.8733C32.0313 12.6316 32.5879 12.5716 33.0329 12.8255C32.6666 12.879 32.3011 12.9314 31.9385 13.0026C31.8073 13.0364 31.7024 12.9267 31.5956 12.8733Z" fill="#C63136"></path>
  <path d="M12.0988 12.7534C12.4933 12.6334 12.7988 12.9576 13.0415 13.2172C12.721 13.2678 12.3949 13.2706 12.0735 13.2294C12.0782 13.0701 12.0876 12.9117 12.0988 12.7534Z" fill="#576DB5"></path>
  <path d="M21.6809 12.7552C21.8561 12.7599 22.0323 12.7637 22.2075 12.7684C22.2375 13.1001 22.2656 13.4308 22.2918 13.7626C21.9629 13.5958 21.56 13.2341 21.1946 13.518C20.7776 13.8019 20.9059 14.3632 20.9753 14.783C20.7157 14.6668 20.4702 14.4756 20.4056 14.1842C20.2931 13.7963 20.2781 13.2303 20.6942 13.0186C21.069 12.8471 21.4279 13.1432 21.7362 13.3231C21.7137 13.1338 21.6902 12.9455 21.6809 12.7552ZM21.8636 14.8964C21.8786 14.9357 21.9086 15.0144 21.9236 15.0538C22.0341 15.0107 22.1456 14.9676 22.2571 14.9254C22.437 15.2983 22.5233 15.8025 22.2178 16.1342C21.9376 16.4715 21.4663 16.4696 21.0699 16.5296C21.0137 17.0927 21.3932 17.5613 21.4616 18.1047C21.5881 18.9649 21.7652 19.8232 22.1175 20.6225C21.9526 20.5091 21.7942 20.3864 21.6434 20.2571C21.1702 19.4287 21.0362 18.472 20.8853 17.5453C20.8197 17.0243 20.4065 16.6027 20.4918 16.0536C20.8816 16.0311 21.3314 16.0348 21.62 15.7237C21.8514 15.5157 21.8589 15.184 21.8636 14.8964Z" fill="#D2D3D8"></path>
  <path d="M25.9668 12.8396C26.4335 13.0026 26.6715 13.5002 26.6537 13.9715C26.6808 14.5244 26.3566 15.0182 25.9678 15.3817C25.6539 15.6629 25.3156 15.914 24.9998 16.1913C24.432 16.1539 23.9382 16.4518 23.4968 16.7695C23.614 16.5221 23.7508 16.2775 23.9578 16.093C24.5913 15.5092 25.414 15.1072 25.8769 14.3538C26.1598 13.9013 26.1589 13.3259 25.9668 12.8396ZM23.9185 18.0963C24.0009 17.8611 24.1162 17.595 24.3917 17.5425C24.7403 17.4104 25.0804 17.655 25.2135 17.9708C25.0186 18.0214 24.7805 18.0185 24.6428 18.1881C24.4751 18.3681 24.4798 18.666 24.6597 18.8356C25.0579 19.2966 25.4946 19.7614 25.6595 20.3658C25.8206 20.8783 25.756 21.5015 25.3446 21.8819C24.8452 22.4123 24.0347 22.4357 23.3713 22.2689C22.9496 22.1499 22.4942 21.9934 22.2253 21.6242C22.9327 21.9034 23.7826 22.0524 24.4826 21.6767C25.0729 21.3656 25.31 20.6104 25.1179 19.991C24.9427 19.2367 24.3514 18.7035 23.9185 18.0963ZM15.3747 20.2018C16.2873 19.9957 16.9798 19.3248 17.5486 18.621C17.6854 18.8731 17.8166 19.128 17.974 19.3688C17.3434 19.8589 16.769 20.4932 15.9453 20.6469C15.7317 20.497 15.534 20.2946 15.2735 20.2346C14.8612 20.2318 14.4255 20.4117 14.1715 20.7425C14.0535 21.0198 13.9129 21.2888 13.7911 21.5652C13.7555 22.0955 13.7742 22.6296 13.778 23.1609C13.7658 23.472 14.1472 23.6669 14.0479 23.9911C13.9776 24.3903 13.942 24.7942 13.9617 25.1999C13.7302 25.2561 13.5063 25.347 13.3095 25.4819C13.1052 25.4032 12.9141 25.2814 12.8438 25.0631C13.0565 24.96 13.3376 24.8897 13.4238 24.6396C13.4707 24.3941 13.3844 24.1429 13.435 23.8984C13.48 23.6688 13.5025 23.4355 13.5044 23.2022C13.406 23.0963 13.2205 23.0298 13.2233 22.863C13.1942 22.2108 13.2364 21.5577 13.2102 20.9055C13.2664 20.8905 13.3779 20.8624 13.4341 20.8474C13.4191 20.1559 14.1584 19.7164 14.7862 19.8083C15.0158 19.8795 15.1873 20.0603 15.3747 20.2018ZM17.8578 23.2134C18.1239 22.6381 18.7836 22.3579 19.3814 22.2829C19.4442 22.4479 19.5088 22.6128 19.5838 22.7739C19.2127 22.9417 18.8089 23.0953 18.5456 23.4224C18.3966 23.6042 18.39 23.8515 18.346 24.0736C18.018 23.9405 17.6948 23.5863 17.8578 23.2134ZM13.6665 26.7882C13.718 26.7554 13.8202 26.6916 13.8708 26.6598C14.1725 26.6589 14.2549 26.91 14.3224 27.1545C14.1884 27.3316 14.0628 27.5134 13.9364 27.6952C13.6103 27.5144 13.6843 27.0993 13.6665 26.7882ZM14.7103 27.2586C14.7797 26.9952 14.9596 26.7872 15.1929 26.6523C15.3812 26.7779 15.519 26.9587 15.6549 27.1367C15.4487 27.3523 15.3016 27.6137 15.1723 27.8798C14.9652 27.7168 14.8068 27.5041 14.7103 27.2586ZM21.0006 27.3551C21.1121 27.1339 21.2452 26.8716 21.5366 26.8912C21.6612 27.0205 21.7896 27.147 21.9142 27.2773L21.9592 27.3279C21.7568 27.5162 21.5956 27.7402 21.4447 27.9707C21.2555 27.7973 21.1187 27.58 21.0006 27.3551Z" fill="#D2D3D7"></path>
  <path d="M2.3819 13.3222C2.48778 13.2041 2.59648 13.0889 2.70798 12.9764C3.26832 13.1451 3.78369 13.4346 4.23721 13.801C4.20347 13.9613 4.16881 14.1205 4.13226 14.2798C3.54943 13.9584 2.98066 13.6136 2.3819 13.3222ZM30.8834 14.1093C31.4531 14.3923 32.0135 14.6968 32.6132 14.917C32.5241 15.0482 32.4951 15.2665 32.3255 15.3143C31.8551 15.2206 31.3875 15.0416 31.0212 14.7249C30.8516 14.5703 30.8937 14.3145 30.8834 14.1093Z" fill="#EF0C14"></path>
  <path d="M3.35266 13.0496C3.75465 12.9671 4.1735 12.9165 4.57923 13.0027C4.67199 13.0814 4.75633 13.1667 4.8341 13.2613C4.50614 13.2773 4.17818 13.2922 3.85116 13.3082C3.6422 13.3419 3.49696 13.1686 3.35266 13.0496Z" fill="#E31219"></path>
  <path d="M31.1354 13.324C31.246 13.205 31.3584 13.0897 31.4737 12.9773C32.02 13.1647 32.5541 13.4205 32.9861 13.8094C33.0151 13.9696 32.9205 14.1233 32.8886 14.2769C32.3011 13.9659 31.7333 13.6173 31.1354 13.324Z" fill="#EF0D14"></path>
  <path d="M32.1081 13.0477C32.5148 12.9662 32.9421 12.91 33.3516 13.0103C33.4387 13.089 33.5099 13.1836 33.583 13.2773C33.2316 13.2745 32.8812 13.3007 32.5307 13.3073C32.3508 13.311 32.2356 13.1499 32.1081 13.0477Z" fill="#DC151B"></path>
  <path d="M23.7283 13.1574C24.0506 13.043 24.3617 13.2539 24.4601 13.5631C24.165 13.6905 23.9232 13.9051 23.7189 14.1487C23.7414 13.8189 23.7499 13.4881 23.7283 13.1574Z" fill="#D3D3D8"></path>
  <path d="M3.91769 13.4094C4.25877 13.3588 4.60735 13.3588 4.94749 13.4197C4.99059 13.5163 5.03275 13.6137 5.07492 13.7121C4.82474 13.7205 4.57361 13.7393 4.32343 13.7186C4.17163 13.639 4.04513 13.5219 3.91769 13.4094Z" fill="#E1131A"></path>
  <path d="M12.1991 13.4524C12.5018 13.4486 12.7876 13.5714 13.0509 13.71C12.7651 13.8946 12.3921 13.9958 12.0604 13.8843C12.0913 13.7381 12.008 13.5086 12.1991 13.4524Z" fill="#566DB5"></path>
  <path d="M32.6769 13.4093C33.0198 13.3559 33.3712 13.3559 33.7114 13.4281C33.7507 13.5218 33.791 13.6164 33.8313 13.7101C33.582 13.7213 33.3328 13.7382 33.0835 13.7242C32.9261 13.6511 32.8034 13.5236 32.6769 13.4093Z" fill="#E21219"></path>
  <path d="M2.14856 13.9481C2.18229 13.7682 2.23851 13.5948 2.31722 13.4299C2.8935 13.6764 3.44915 13.9772 3.96545 14.3313C4.13787 14.4475 3.95421 14.6602 3.93734 14.813C3.30016 14.6228 2.69859 14.3192 2.14856 13.9481ZM3.42104 21.4153C3.67591 21.2325 4.08258 21.4321 4.08633 21.747C4.11725 22.0693 3.72464 22.3307 3.44447 22.1555C3.15961 22.0168 3.12775 21.5624 3.42104 21.4153ZM4.11912 22.1696C4.4602 22.1911 4.90529 22.3298 5.02242 22.6877C4.9334 22.9248 4.65136 22.9782 4.46864 23.1244C4.27842 23.2228 4.11631 23.4355 3.88393 23.4083C3.58502 23.1563 3.71901 22.714 3.76399 22.3813C3.93453 22.461 4.07883 22.5809 4.22407 22.6981C4.18846 22.5219 4.15005 22.3467 4.11912 22.1696Z" fill="#F10B13"></path>
  <path d="M31.0305 13.4833C31.1598 13.4177 31.2854 13.5405 31.4081 13.5752C31.901 13.8253 32.3967 14.0868 32.8324 14.4307C32.7715 14.559 32.7097 14.6874 32.6459 14.8148C32.0313 14.5984 31.4409 14.3126 30.8956 13.9547C30.9284 13.7944 30.9593 13.6323 31.0305 13.4833ZM2.1926 22.5931C2.18511 22.1555 2.80542 22.1143 3.13806 22.0899C3.07715 22.2689 3.00594 22.4441 2.94129 22.6221C3.09496 22.5256 3.24301 22.4197 3.392 22.3157C3.50819 22.6025 3.48945 22.9464 3.3592 23.2247C3.28143 23.3971 3.02749 23.3615 2.92255 23.2359C2.69579 23.0026 2.40343 22.8405 2.1926 22.5931Z" fill="#F10C13"></path>
  <path d="M4.8416 13.8038C4.94093 13.8254 5.03931 13.8469 5.13864 13.8694C5.2389 14.5478 4.91282 15.3181 4.2316 15.5504C4.53707 15.0079 4.79475 14.4345 4.8416 13.8038Z" fill="#E11219"></path>
  <path d="M33.0882 13.9688C33.1229 13.7945 33.33 13.8376 33.4574 13.801C33.4499 14.4476 33.2344 15.1279 32.7209 15.5514C32.6665 15.5083 32.5597 15.4221 32.5054 15.379C32.7387 14.9255 32.9355 14.4551 33.0882 13.9688Z" fill="#EB0F16"></path>
  <path d="M33.5904 13.7908C33.687 13.8273 33.8181 13.8114 33.8856 13.9051C34.0252 14.6116 33.5895 15.3781 32.898 15.5955C33.3028 15.0736 33.5361 14.4486 33.5904 13.7908Z" fill="#E41118"></path>
  <path d="M3.74902 15.379C4.01608 14.8833 4.22035 14.3576 4.38433 13.8188C4.47147 13.8235 4.64576 13.832 4.7329 13.8367C4.66262 14.4607 4.48365 15.1401 3.96173 15.542C3.90832 15.5008 3.80243 15.4202 3.74902 15.379Z" fill="#E90F16"></path>
  <path d="M12.186 14.1533C12.4502 14.0268 12.7313 14.1411 12.944 14.3117C12.7032 14.4072 12.4474 14.4532 12.1897 14.4522C12.1897 14.3773 12.1869 14.2273 12.186 14.1533Z" fill="#556DB6"></path>
  <path d="M2.112 14.0953C2.6864 14.3849 3.2533 14.6903 3.85768 14.9152C3.78928 15.0502 3.71994 15.1851 3.64966 15.3191C3.16522 15.2507 2.69858 15.0623 2.31159 14.7616C2.09888 14.6135 2.1373 14.3202 2.112 14.0953ZM33.0713 22.0938C33.3627 22.1041 33.6663 22.1519 33.9081 22.3262C34.0796 22.4058 34.0224 22.6598 33.8819 22.7413C33.6748 22.9062 33.4668 23.0702 33.27 23.2482C33.1641 23.3785 32.8961 23.3831 32.8371 23.2051C32.7303 22.9577 32.7274 22.6804 32.7331 22.4161C32.9355 22.3215 33.0835 22.5482 33.2559 22.6176C33.195 22.4424 33.1275 22.2699 33.0713 22.0938Z" fill="#F00C14"></path>
  <path d="M13.2439 14.8195C13.6824 14.9197 14.1238 15.0181 14.5435 15.184C14.581 15.2702 14.6176 15.3582 14.6532 15.4454C14.3674 15.3873 14.0807 15.3358 13.793 15.2908C13.7639 16.1735 13.7714 17.058 13.8005 17.9407C13.6253 18.026 13.4397 18.0906 13.2504 18.1365C13.2364 17.0308 13.243 15.9251 13.2439 14.8195Z" fill="#D1D3D8"></path>
  <path d="M2.3969 15.0014C2.52902 14.9696 2.57306 15.0192 2.52809 15.1495C2.3969 15.1804 2.3538 15.1307 2.3969 15.0014Z" fill="#BC7D80"></path>
  <path d="M31.1504 15.0107C31.2807 14.9722 31.3275 15.02 31.2891 15.1522C31.1589 15.1878 31.113 15.1409 31.1504 15.0107Z" fill="#C86D70"></path>
  <path d="M2.65643 15.1372C2.91786 15.1756 3.16055 15.3143 3.15493 15.6095C2.91412 15.5467 2.66861 15.4202 2.65643 15.1372Z" fill="#C33539"></path>
  <path d="M14.5435 15.1842C14.789 15.2957 15.0758 15.5112 14.9811 15.8214C14.923 16.1775 14.4658 16.0763 14.2081 16.155C14.3664 16.0406 14.566 15.9647 14.6794 15.798C14.7028 15.6808 14.6728 15.5618 14.6532 15.4456C14.6175 15.3585 14.581 15.2704 14.5435 15.1842Z" fill="#566DAF"></path>
  <path d="M31.4194 15.1418C31.6817 15.1756 31.9076 15.3236 31.9141 15.6113C31.663 15.5607 31.4325 15.4248 31.4194 15.1418Z" fill="#CE3439"></path>
  <path d="M3.17557 15.3575C3.45761 15.35 3.75652 15.4221 3.91301 15.6798C3.74153 15.691 3.55975 15.7341 3.39389 15.6695C3.29832 15.5823 3.2421 15.4643 3.17557 15.3575Z" fill="#CC2B30"></path>
  <path d="M31.9338 15.3472C32.1877 15.3631 32.571 15.395 32.6094 15.7164C32.451 15.7051 32.2852 15.7229 32.1352 15.6648C32.0453 15.5749 31.9956 15.4549 31.9338 15.3472Z" fill="#CA1D23"></path>
  <path d="M15.5649 16.4106C15.8282 16.286 16.0203 16.0611 16.2114 15.8484C16.293 15.9871 16.3736 16.1267 16.4513 16.2682C16.0475 16.523 15.6211 16.7414 15.2182 16.9972C15.0458 16.8435 14.8724 16.6908 14.6888 16.5512C14.9839 16.5418 15.295 16.5483 15.5649 16.4106Z" fill="#CDD3DF"></path>
  <path d="M24.0965 17.358C24.4442 16.9176 25.205 16.9448 25.518 17.4142C25.7916 17.7234 25.6576 18.1545 25.5995 18.5171C25.4936 18.6136 25.3503 18.6492 25.2238 18.7082C25.2228 18.4618 25.2378 18.2154 25.2135 17.9708C25.0804 17.655 24.7403 17.4105 24.3917 17.5426C24.1162 17.5951 24.001 17.8612 23.9185 18.0964C23.9157 17.8434 23.9157 17.5585 24.0965 17.358ZM12.2188 19.8542C12.3425 19.8177 12.468 19.7877 12.5936 19.7586C12.5561 19.9742 12.5215 20.1906 12.4943 20.408C12.7089 20.3077 12.9291 20.2178 13.1558 20.1494C13.1755 20.3743 13.1942 20.5992 13.2064 20.825C13.1118 20.7247 13.0171 20.6245 12.9216 20.5251C12.8803 21.3703 12.9206 22.2174 12.9122 23.0626C12.8944 23.2003 12.9244 23.3906 12.7688 23.4599C12.5777 23.533 12.3697 23.5395 12.1691 23.5677C12.1635 23.4299 12.1569 23.2922 12.1504 23.1544C12.2619 23.1123 12.3743 23.071 12.4868 23.0307C12.5402 22.3551 12.4952 21.6758 12.514 20.9983C12.5514 20.5889 12.2956 20.2431 12.2188 19.8542Z" fill="#5A6DB1"></path>
  <path d="M11.7025 19.3641C11.8777 19.3154 12.0585 19.3032 12.2394 19.2864C12.1091 19.5075 12.0042 19.7436 11.9545 19.9966L11.9255 20.1091C11.8383 19.8636 11.8336 19.5918 11.7025 19.3641Z" fill="#6C81B9"></path>
  <path d="M2.7848 20.4024C2.87101 20.2243 2.94878 19.9563 3.1896 19.9545C3.55316 19.9676 3.91485 20.0116 4.27936 20.0172C4.54079 20.0276 4.62887 20.2984 4.70945 20.5008C4.90998 20.5514 5.19202 20.5776 5.25761 20.8165C5.33445 21.1642 5.43377 21.5062 5.5256 21.851C5.58182 22.0928 5.3635 22.2521 5.18827 22.3654C5.20608 22.5913 5.2726 22.8911 5.04022 23.0326C4.74506 23.2031 4.46114 23.3905 4.17535 23.5751C3.96264 23.7101 3.73776 23.5545 3.55878 23.4402C3.36013 23.502 3.14181 23.6295 2.9366 23.518C2.73139 23.3784 2.56835 23.1863 2.36408 23.0457C2.22821 22.9333 2.0483 22.8471 1.98927 22.669C1.95553 22.4985 2.0155 22.3308 2.04455 22.1649C1.88619 22.0169 1.68192 21.8182 1.79062 21.5811C1.93023 21.2691 2.05111 20.9505 2.1673 20.6301C2.26569 20.3808 2.56273 20.393 2.7848 20.4024ZM3.04061 20.2955C2.98814 20.6198 3.2402 20.8943 3.41448 21.1417C3.64218 21.2129 3.59908 20.8278 3.70402 20.6994C3.77243 20.8578 3.81084 21.0264 3.85395 21.1942C4.12006 21.0986 4.28217 20.8456 4.40398 20.6038C4.48925 20.4848 4.45177 20.289 4.30091 20.2468C4.03948 20.1728 3.76118 20.214 3.49319 20.1859C3.33858 20.1887 3.12963 20.1241 3.04061 20.2955ZM2.12514 21.345C2.06704 21.5127 1.91899 21.6964 2.02862 21.8754C2.32847 22.0768 2.69578 21.8716 3.01344 21.8163C2.97033 21.6299 2.81666 21.5137 2.69204 21.3825C2.84946 21.3656 3.04811 21.4762 3.1746 21.345C3.07903 21.0114 2.84852 20.7116 2.5318 20.5626C2.28162 20.7528 2.25351 21.0798 2.12514 21.345ZM4.18003 21.4846C4.35432 21.4921 4.52954 21.4949 4.70383 21.5015C4.58483 21.6346 4.25218 21.6814 4.34214 21.9054C4.56421 22.0281 4.8069 22.1227 5.06084 22.1462C5.21263 22.1471 5.356 22.0141 5.3054 21.8576C5.22107 21.5399 5.14236 21.2204 5.05615 20.9027C5.02617 20.7659 4.81534 20.7041 4.70758 20.7931C4.46864 20.9599 4.24562 21.1904 4.18003 21.4846ZM3.42104 21.4153C3.12775 21.5624 3.15961 22.0169 3.44447 22.1555C3.72464 22.3308 4.11725 22.0693 4.08633 21.747C4.08258 21.4322 3.67591 21.2326 3.42104 21.4153ZM2.1926 22.5931C2.40343 22.8405 2.69578 23.0026 2.92254 23.2359C3.02749 23.3615 3.28142 23.3971 3.3592 23.2247C3.48944 22.9464 3.50819 22.6025 3.39199 22.3158C3.24301 22.4198 3.09496 22.5257 2.94128 22.6222C3.00594 22.4441 3.07715 22.2689 3.13806 22.09C2.80542 22.1143 2.1851 22.1555 2.1926 22.5931ZM4.11913 22.1696C4.15005 22.3467 4.18847 22.5219 4.22407 22.6981C4.07883 22.581 3.93453 22.461 3.76399 22.3814C3.71902 22.714 3.58502 23.1563 3.88393 23.4083C4.11631 23.4355 4.27842 23.2228 4.46864 23.1244C4.65136 22.9782 4.9334 22.9248 5.02242 22.6878C4.90529 22.3298 4.4602 22.1911 4.11913 22.1696Z" fill="#FFF3F9"></path>
  <path d="M31.7717 20.0661C31.9422 19.9752 32.1418 20.0155 32.3273 20.0042C32.5756 20.0061 32.823 19.9358 33.0722 19.9639C33.2803 20.0005 33.3449 20.2291 33.4161 20.3968C33.6354 20.395 33.9174 20.3771 34.0271 20.6152C34.1554 20.9347 34.2688 21.2598 34.4103 21.5737C34.5228 21.8136 34.3297 22.0282 34.1508 22.1622C34.2004 22.3871 34.3072 22.6822 34.088 22.8537C33.8247 23.0589 33.5679 23.2735 33.3149 23.4909C33.1022 23.6595 32.8408 23.5256 32.645 23.4037C32.54 23.4825 32.4435 23.578 32.3189 23.6239C32.0631 23.668 31.8691 23.4675 31.6733 23.3419C31.4905 23.2098 31.2769 23.1264 31.1026 22.9821C30.9377 22.8303 31.0052 22.5913 31.0183 22.3974C30.8534 22.2624 30.6407 22.1041 30.6819 21.8614C30.7681 21.5156 30.8693 21.1736 30.9461 20.826C31.008 20.5636 31.3153 20.5524 31.5299 20.5008C31.5871 20.3472 31.603 20.1429 31.7717 20.0661ZM32.2392 20.2085C32.0799 20.2188 31.856 20.1897 31.7773 20.3687C31.7604 20.7379 32.0631 21.0209 32.3357 21.2242C32.391 21.0499 32.4351 20.8719 32.4838 20.6957C32.5484 20.8466 32.6019 21.0021 32.6684 21.1521C32.853 21.1821 32.9083 20.9478 33.0057 20.8344C33.12 20.6508 33.2896 20.3378 33.0432 20.186C32.7752 20.1654 32.5072 20.2122 32.2392 20.2085ZM33.4967 20.6554C33.2653 20.8438 33.0975 21.109 33.0235 21.3994C33.2062 21.3994 33.389 21.3891 33.5717 21.3863C33.4517 21.5241 33.18 21.5906 33.2044 21.808C33.5342 21.9017 34.0224 22.1313 34.252 21.7527C34.1067 21.4351 33.9887 21.1071 33.8631 20.7819C33.8275 20.6198 33.6251 20.5514 33.4967 20.6554ZM31.1195 21.0181C31.0773 21.3863 30.8365 21.7358 30.9349 22.1106C31.3003 22.1997 31.6498 22.0254 31.9525 21.838C31.8063 21.7143 31.647 21.6093 31.4868 21.5053C31.6761 21.4988 31.8663 21.4941 32.0556 21.4791C31.9422 21.1961 31.7454 20.9356 31.4774 20.7857C31.3059 20.677 31.1232 20.841 31.1195 21.0181ZM32.3639 21.3919C32.0884 21.5072 32.0321 21.9157 32.272 22.1003C32.5082 22.3374 32.9635 22.1678 32.9804 21.8324C33.0479 21.4997 32.6534 21.2345 32.3639 21.3919ZM31.8326 22.1959C31.5618 22.2981 31.1935 22.4171 31.1907 22.7675C31.4915 22.9746 31.8016 23.1676 32.1062 23.37C32.2364 23.4703 32.4079 23.3841 32.4613 23.2407C32.5297 22.9568 32.4866 22.6616 32.4388 22.3777C32.2692 22.4695 32.1193 22.5904 31.9647 22.7038C32.0097 22.5342 32.0631 22.3674 32.1146 22.2006C32.0218 22.1819 31.9235 22.1509 31.8326 22.1959ZM33.0713 22.0938C33.1275 22.2699 33.195 22.4424 33.2559 22.6176C33.0835 22.5482 32.9354 22.3215 32.733 22.4161C32.7274 22.6804 32.7302 22.9577 32.8371 23.2051C32.8961 23.3831 33.1641 23.3784 33.27 23.2482C33.4667 23.0702 33.6748 22.9062 33.8818 22.7413C34.0224 22.6597 34.0795 22.4058 33.9081 22.3262C33.6663 22.1519 33.3627 22.1041 33.0713 22.0938Z" fill="#FFF2F4"></path>
  <path d="M3.04061 20.2956C3.12963 20.1241 3.33859 20.1887 3.4932 20.1859C3.76119 20.214 4.03948 20.1728 4.30091 20.2468C4.45177 20.289 4.48926 20.4849 4.40399 20.6039C4.28217 20.8456 4.12007 21.0986 3.85395 21.1942C3.81085 21.0265 3.77243 20.8578 3.70403 20.6994C3.59908 20.8278 3.64218 21.2129 3.41449 21.1417C3.2402 20.8943 2.98814 20.6198 3.04061 20.2956ZM2.12514 21.345C2.25351 21.0799 2.28162 20.7528 2.53181 20.5626C2.84852 20.7116 3.07903 21.0115 3.17461 21.345C3.04811 21.4762 2.84946 21.3657 2.69204 21.3825C2.81666 21.5137 2.97034 21.6299 3.01344 21.8164C2.69579 21.8716 2.32847 22.0769 2.02863 21.8754C1.91899 21.6964 2.06704 21.5128 2.12514 21.345ZM33.4968 20.6554C33.6251 20.5514 33.8275 20.6198 33.8631 20.7819C33.9887 21.107 34.1068 21.435 34.252 21.7526C34.0224 22.1312 33.5342 21.9016 33.2044 21.8079C33.18 21.5905 33.4518 21.524 33.5717 21.3863C33.389 21.3891 33.2063 21.3984 33.0236 21.3994C33.0976 21.1089 33.2653 20.8437 33.4968 20.6554ZM4.18004 21.4847C4.24563 21.1904 4.46864 20.9599 4.70758 20.7931C4.81534 20.7041 5.02617 20.766 5.05616 20.9028C5.14236 21.2204 5.22107 21.5399 5.3054 21.8576C5.356 22.0141 5.21264 22.1471 5.06084 22.1462C4.80691 22.1228 4.56422 22.0281 4.34214 21.9054C4.25219 21.6814 4.58483 21.6346 4.70383 21.5015C4.52955 21.495 4.35432 21.4922 4.18004 21.4847ZM31.1195 21.018C31.1233 20.8409 31.306 20.6769 31.4775 20.7856C31.7455 20.9356 31.9422 21.1961 32.0556 21.479C31.8663 21.494 31.6761 21.4987 31.4868 21.5053C31.6471 21.6093 31.8064 21.7142 31.9525 21.8379C31.6499 22.0253 31.3004 22.1996 30.9349 22.1106C30.8365 21.7358 31.0774 21.3863 31.1195 21.018ZM32.3639 21.3919C32.6534 21.2345 33.0479 21.4996 32.9805 21.8323C32.9636 22.1677 32.5082 22.3374 32.2721 22.1003C32.0322 21.9157 32.0884 21.5071 32.3639 21.3919ZM31.8326 22.1959C31.9235 22.1509 32.0219 22.1818 32.1146 22.2005C32.0631 22.3673 32.0097 22.5341 31.9647 22.7037C32.1193 22.5903 32.2693 22.4695 32.4389 22.3776C32.4866 22.6616 32.5297 22.9567 32.4613 23.2406C32.4079 23.384 32.2365 23.4702 32.1062 23.37C31.8017 23.1676 31.4915 22.9745 31.1907 22.7674C31.1935 22.417 31.5618 22.298 31.8326 22.1959Z" fill="#F20B13"></path>
  <path d="M32.2392 20.2085C32.5072 20.2123 32.7752 20.1654 33.0432 20.186C33.2896 20.3378 33.12 20.6508 33.0057 20.8345C32.9083 20.9479 32.853 21.1821 32.6684 21.1521C32.6019 21.0022 32.5485 20.8467 32.4838 20.6958C32.4351 20.872 32.391 21.05 32.3358 21.2243C32.0631 21.0209 31.7604 20.738 31.7773 20.3688C31.856 20.1898 32.0799 20.2188 32.2392 20.2085Z" fill="#F30B12"></path>
  <path d="M12.9216 20.5251C13.0171 20.6245 13.1118 20.7247 13.2064 20.825L13.2102 20.9056C13.2364 21.5578 13.1942 22.2109 13.2233 22.863C13.2205 23.0298 13.406 23.0963 13.5044 23.2022C13.5025 23.4355 13.48 23.6689 13.4351 23.8984C13.3845 24.143 13.4707 24.3941 13.4238 24.6396C13.3376 24.8898 13.0565 24.9601 12.8438 25.0632C12.5655 24.976 12.3378 24.8008 12.2057 24.5375C12.4109 24.589 12.6152 24.6724 12.8288 24.6649C13.108 24.59 13.1905 24.1552 12.9572 23.9846C12.7117 23.8581 12.4259 23.8563 12.157 23.8272C12.1607 23.7616 12.1663 23.6323 12.1691 23.5677C12.3697 23.5396 12.5777 23.533 12.7688 23.4599C12.9244 23.3906 12.8944 23.2004 12.9122 23.0626C12.9206 22.2174 12.8803 21.3703 12.9216 20.5251Z" fill="#043083"></path>
  <path d="M21.4138 21.1379C21.62 21.2523 21.8177 21.3788 22.0154 21.5053C21.9723 21.8941 22.17 22.2427 22.304 22.5931C21.8083 22.268 21.5085 21.7151 21.4138 21.1379Z" fill="#CFD3DE"></path>
  <path d="M23.4893 23.3212C23.806 23.3128 24.1228 23.2931 24.4385 23.265C23.6786 24.0549 23.3778 25.1756 23.4425 26.2523C23.4425 26.5624 23.5324 26.8819 23.449 27.1874C23.3254 27.4095 23.0218 27.3926 22.809 27.4816C22.735 27.6063 22.6601 27.7299 22.5851 27.8536C22.393 27.7018 22.2047 27.5463 22.0163 27.3907C22.1213 27.2352 22.1887 27.0047 22.4089 26.985C22.6516 26.9391 22.9599 26.8445 22.9234 26.5343C22.855 25.4455 22.8184 24.2508 23.4893 23.3212Z" fill="#D2D3D6"></path>
  <path d="M12.157 23.8271C12.4259 23.8562 12.7117 23.8581 12.9572 23.9846C13.1905 24.1551 13.108 24.5899 12.8288 24.6648C12.6152 24.6723 12.4109 24.5889 12.2057 24.5374C12.1944 24.3153 12.2938 24.1158 12.4146 23.9368C12.3284 23.9002 12.2422 23.8637 12.157 23.8271Z" fill="#586DB3"></path>
  <path d="M20.7317 23.8694C20.8806 23.9209 21.0315 23.9678 21.1814 24.0156C21.2114 24.1336 21.2414 24.2517 21.2676 24.3716C21.0634 24.2339 20.8525 24.0915 20.7317 23.8694Z" fill="#C8CDE1"></path>
  <path d="M15.1929 26.6523C15.385 26.6458 15.5771 26.6505 15.7701 26.6542C15.8254 26.8819 15.8826 27.1105 15.9407 27.3382C15.8395 27.2792 15.7439 27.2117 15.6549 27.1368C15.519 26.9587 15.3813 26.7779 15.1929 26.6523Z" fill="#586EAF"></path>
  <path d="M20.2313 26.8772C20.4093 26.8491 20.5902 26.835 20.7701 26.8219C20.7804 27.0515 20.7916 27.281 20.8048 27.5115C20.7785 27.4647 20.727 27.3719 20.7017 27.3251C20.6286 27.192 20.5574 27.0571 20.4871 26.9231C20.4234 26.9119 20.295 26.8884 20.2313 26.8772Z" fill="#4C68A4"></path>
  <path d="M21.5366 26.8914C21.6012 26.8979 21.7296 26.911 21.7942 26.9176C21.8327 27.0375 21.8711 27.1584 21.9142 27.2774C21.7896 27.1472 21.6612 27.0207 21.5366 26.8914Z" fill="#5A72AE"></path>
  <path d="M28.1876 27.4806C28.2223 27.2857 28.6833 27.2847 28.7058 27.4909C28.5324 27.489 28.36 27.4937 28.1876 27.4806Z" fill="#2A3A46"></path>
  <path d="M28.1782 27.6221C28.3469 27.4713 28.613 27.5097 28.7845 27.6381C28.9363 27.7702 29.0122 27.9642 29.1471 28.1122C29.327 28.2546 29.6325 28.3202 29.6559 28.5901C29.7449 29.1729 29.1274 29.4915 28.7835 29.8579C28.3019 29.3875 27.8025 28.9302 27.3621 28.4196C27.63 28.1497 27.8784 27.8573 28.1782 27.6221ZM27.9065 28.2228C28.0442 28.3952 28.2026 28.5498 28.3825 28.6782C28.4959 28.517 28.6842 28.2902 28.5071 28.1038C28.3225 27.8836 28.0733 28.101 27.9065 28.2228ZM28.7667 28.636C28.7273 28.6791 28.6486 28.7663 28.6092 28.8103L28.5408 28.7606C28.6214 28.9696 28.777 29.1317 28.9522 29.2657C29.0777 29.1176 29.2886 28.9218 29.1274 28.7194C29.0468 28.5863 28.8922 28.6304 28.7667 28.636ZM6.56102 28.5957C6.91521 28.2809 7.24224 27.936 7.59643 27.6221C7.91315 27.8742 8.2055 28.1572 8.45381 28.4776C8.38072 28.5489 8.30763 28.621 8.23548 28.6932C8.06775 28.5442 7.9019 28.3933 7.73698 28.2406C7.63579 28.3427 7.53365 28.4449 7.43245 28.547C7.57301 28.6978 7.71356 28.8487 7.85505 28.9986C7.8007 29.0905 7.74636 29.1814 7.69201 29.2732C7.51023 29.1242 7.33219 28.9724 7.15322 28.8206C6.93583 29.0342 6.71469 29.2441 6.51229 29.4718C6.3783 29.3341 6.2443 29.1963 6.11218 29.0577C6.25742 28.8993 6.4036 28.7419 6.56102 28.5957ZM14.2737 31.5904C14.6654 31.6523 15.0851 31.686 15.4243 31.9109C15.6642 32.0946 15.5996 32.4328 15.5302 32.6849C15.5209 32.7139 15.5031 32.7739 15.4937 32.8039C15.3588 33.1169 15.4384 33.5854 15.0636 33.7419C14.6494 33.8431 14.2399 33.6369 13.8426 33.5441C13.9251 32.8807 14.1341 32.2426 14.2737 31.5904ZM14.6944 31.999C14.6775 32.1714 14.6616 32.3448 14.6485 32.519C14.7872 32.4806 15.0767 32.549 15.058 32.3251C15.1076 32.1133 14.8659 32.0112 14.6944 31.999ZM14.5257 32.7833C14.4564 32.9782 14.417 33.1815 14.403 33.3886C14.5717 33.3745 14.7993 33.4308 14.8931 33.2434C14.909 33.1169 14.8715 32.9932 14.8546 32.8704C14.745 32.8414 14.6354 32.8123 14.5257 32.7833Z" fill="#FFFFF8"></path>
  <path d="M27.9065 28.2228C28.0733 28.101 28.3225 27.8836 28.5071 28.1038C28.6842 28.2903 28.4959 28.517 28.3825 28.6782C28.2026 28.5498 28.0442 28.3952 27.9065 28.2228ZM28.0779 28.2219C28.1688 28.3306 28.2672 28.4317 28.374 28.5245C28.4059 28.4711 28.4706 28.3624 28.5024 28.309C28.4724 28.2537 28.4125 28.1431 28.3834 28.0879C28.2803 28.131 28.1791 28.1759 28.0779 28.2219Z" fill="#A69A77"></path>
  <path d="M28.0779 28.2219C28.1791 28.176 28.2803 28.131 28.3834 28.0879C28.4125 28.1432 28.4724 28.2537 28.5024 28.309C28.4706 28.3624 28.4059 28.4711 28.374 28.5245C28.2672 28.4318 28.1688 28.3306 28.0779 28.2219Z" fill="#323B38"></path>
  <path d="M26.9432 28.6548C27.0266 28.5733 27.1109 28.4936 27.1962 28.4149C27.3508 28.5761 27.5035 28.7391 27.6572 28.9012C27.6085 29.1655 27.7294 29.4138 27.8034 29.6602C27.5298 29.3145 27.2693 28.9537 26.9432 28.6548Z" fill="#143362"></path>
  <path d="M28.7667 28.636C28.8922 28.6303 29.0468 28.5863 29.1274 28.7194C29.2886 28.9218 29.0777 29.1176 28.9522 29.2656C28.777 29.1316 28.6214 28.9695 28.5408 28.7606L28.6092 28.8102C28.7329 28.8993 28.8538 28.9911 28.9756 29.0839C29.0093 28.9902 29.0431 28.8955 29.0777 28.8027C28.9747 28.7456 28.8707 28.6894 28.7667 28.636Z" fill="#9B916E"></path>
  <path d="M28.6093 28.8103C28.6486 28.7662 28.7273 28.6791 28.7667 28.636C28.8707 28.6894 28.9747 28.7456 29.0778 28.8028C29.0431 28.8955 29.0094 28.9902 28.9756 29.0839C28.8538 28.9911 28.7329 28.8993 28.6093 28.8103Z" fill="#3B4342"></path>
  <path d="M26.7352 29.0464C26.8205 28.963 26.9067 28.8796 26.9938 28.7981C27.303 29.1729 27.6179 29.5477 27.8709 29.9647C28.1108 30.3189 27.8896 30.8483 27.5008 30.9861C27.2412 31.0957 26.9629 30.9898 26.6996 30.9598C26.6818 30.928 26.6471 30.8661 26.6303 30.8343C26.4035 30.4295 26.0952 30.0781 25.8319 29.6986C25.9668 29.5927 26.1027 29.4887 26.2395 29.3847C26.5647 29.7445 26.8027 30.1746 27.1391 30.5241C27.3237 30.7368 27.7078 30.4716 27.586 30.2261C27.3443 29.8045 26.9985 29.4531 26.7352 29.0464Z" fill="#FFFFF4"></path>
  <path d="M8.3873 29.141C8.64873 28.9611 8.99731 28.9892 9.29059 29.0529C9.62511 29.1363 9.82657 29.4305 9.96525 29.7247C10.0636 30.2307 9.82564 30.7302 9.4274 31.0385C8.85769 31.3748 8.06684 31.0638 7.82509 30.4566C7.76793 29.9478 7.9544 29.4315 8.3873 29.141ZM8.9439 29.4717C8.50912 29.6423 8.09401 30.3704 8.57658 30.6983C9.10132 30.777 9.58014 30.1642 9.43021 29.6638C9.33182 29.4924 9.1313 29.4174 8.9439 29.4717Z" fill="#FFFFF6"></path>
  <path d="M9.02725 29.5627C9.25682 29.4999 9.47609 29.7669 9.37864 29.9806C9.27931 30.2467 9.07598 30.4931 8.80518 30.5925C8.57467 30.6721 8.34978 30.4135 8.44067 30.1989C8.55218 29.9356 8.72366 29.6245 9.02725 29.5627Z" fill="#023185"></path>
  <path d="M9.96522 29.7249C9.97928 29.6837 10.0093 29.6022 10.0243 29.5619C10.1508 29.8008 10.1573 30.0735 10.1629 30.3377C10.2941 30.2937 10.4244 30.2234 10.5659 30.2234L10.6352 30.2291C10.3663 30.4324 10.0702 30.6423 9.95398 30.9749C9.78906 31.3413 9.92493 31.7461 10.1123 32.0741C9.75626 31.8698 9.71035 31.4491 9.69442 31.0799C9.62789 31.0696 9.49483 31.049 9.42737 31.0386C9.8256 30.7304 10.0636 30.2309 9.96522 29.7249Z" fill="#28334A"></path>
  <path d="M28.0049 30.0453C28.2026 30.0884 28.2007 30.5532 28.0002 30.5906C28.0039 30.4079 28.0058 30.2271 28.0049 30.0453Z" fill="#2F3C42"></path>
  <path d="M24.4667 30.3845C24.6147 30.3143 24.7628 30.244 24.9108 30.1765C25.1441 30.5523 25.3587 30.9383 25.5761 31.3225C25.6398 31.4012 25.6651 31.5361 25.7747 31.5652C25.9828 31.4827 26.1711 31.3609 26.3669 31.256C26.4204 31.359 26.4728 31.464 26.5244 31.5689C26.1823 31.776 25.8394 31.9831 25.4815 32.163C25.1123 31.5905 24.744 31.0077 24.4667 30.3845ZM12.4662 30.987C12.9038 31.1135 13.3329 31.2691 13.7555 31.4378C13.7358 31.539 13.7152 31.6401 13.6955 31.7423C13.5409 31.7114 13.3863 31.6814 13.2317 31.6495C13.0378 32.163 12.8681 32.6868 12.6573 33.1947C12.4999 33.1319 12.3425 33.0691 12.1851 33.0063C12.3087 32.6278 12.4399 32.2511 12.573 31.8753C12.6095 31.7854 12.6461 31.6964 12.6807 31.6074C12.6911 31.5792 12.7098 31.523 12.7201 31.4949C12.5899 31.3975 12.454 31.3075 12.32 31.2166C12.3565 31.1585 12.4296 31.0442 12.4662 30.987Z" fill="#FFFFF7"></path>
  <path d="M10.6352 30.2289C11.0466 30.2673 11.5357 30.2945 11.7868 30.6777C12.1045 31.0938 11.9311 31.6429 11.7147 32.0617C11.3127 32.5227 10.5293 32.5059 10.1124 32.0739C9.92497 31.7459 9.7891 31.3411 9.95401 30.9748C10.0702 30.6421 10.3663 30.4322 10.6352 30.2289ZM10.8254 30.7817C10.5153 31.0244 10.2604 31.5857 10.6052 31.893C11.0953 32.0626 11.4804 31.4611 11.4064 31.0263C11.4579 30.7246 11.0129 30.569 10.8254 30.7817ZM23.4631 30.8492C23.7545 30.7517 24.0384 30.9232 24.3083 31.0141C24.2577 31.105 24.208 31.1959 24.1584 31.2877C23.8829 31.2943 23.5296 31.1472 23.3226 31.3927C23.0724 31.6672 23.2504 32.0758 23.4322 32.3372C23.5793 32.5639 23.8745 32.4787 24.0994 32.4787C24.1218 32.4459 24.1668 32.3794 24.1893 32.3466C24.2652 32.2351 24.3392 32.1235 24.4133 32.0111C24.5107 32.0186 24.6091 32.028 24.7065 32.0373C24.6419 32.3531 24.5032 32.6764 24.2062 32.8376C23.851 33.0587 23.42 32.9378 23.0555 32.8104C22.9862 32.7542 22.9215 32.6942 22.8606 32.6305C22.7547 32.3887 22.6348 32.1395 22.6348 31.8696C22.5823 31.3777 23.004 30.9466 23.4631 30.8492Z" fill="#FFFFF3"></path>
  <path d="M10.8254 30.7818C11.0128 30.5691 11.4579 30.7247 11.4064 31.0264C11.4804 31.4612 11.0953 32.0627 10.6052 31.8931C10.2604 31.5858 10.5153 31.0245 10.8254 30.7818Z" fill="#06317B"></path>
  <path d="M11.9611 30.7959C12.096 30.8353 12.2328 30.869 12.3724 30.8943C12.3265 31.0386 12.2806 31.1829 12.2338 31.3272C12.3837 31.419 12.5327 31.5118 12.6807 31.6074C12.6461 31.6964 12.6095 31.7854 12.573 31.8754C12.5205 31.9503 12.469 32.0262 12.4174 32.103C12.4193 31.9259 12.4296 31.7489 12.4455 31.5727C12.2441 31.4443 12.0763 31.5774 11.9545 31.7442C12.0492 31.4359 12.0585 31.1051 11.9611 30.7959Z" fill="#374654"></path>
  <path d="M12.5298 30.8906C12.8981 30.8859 13.3422 30.944 13.5756 31.2636C13.2186 31.1633 12.8765 31.0199 12.5298 30.8906Z" fill="#253C58"></path>
  <path d="M13.3264 31.8097C13.4641 31.8041 13.6009 31.8303 13.7377 31.8519L13.7939 31.8613C13.5063 31.9325 13.2589 32.0908 13.0734 32.3213C13.1436 32.1461 13.1774 31.9372 13.3264 31.8097Z" fill="#2A3E55"></path>
  <path d="M19.6625 31.9569C19.8227 31.9232 19.983 31.8922 20.1441 31.8613C20.2762 32.4104 20.2978 32.9801 20.4421 33.5274C20.6642 33.4936 20.8853 33.4561 21.1074 33.4187C21.1336 33.5236 21.1608 33.6295 21.187 33.7354C20.785 33.8169 20.3812 33.8947 19.9717 33.9284C19.8602 33.2725 19.7571 32.6156 19.6625 31.9569ZM16.7971 31.9438C17.0894 32.6269 17.2937 33.3493 17.4811 34.068C17.3152 34.0577 17.1503 34.0437 16.9863 34.0259C16.932 33.8759 16.8777 33.726 16.8252 33.5761C16.6659 33.547 16.5066 33.5217 16.3464 33.5002C16.2695 33.651 16.1908 33.8019 16.1121 33.9528C16.04 33.9509 15.8947 33.9481 15.8216 33.9462C16.0802 33.25 16.4476 32.5978 16.7971 31.9438ZM16.5984 33.0167C16.4401 33.056 16.4897 33.3334 16.6565 33.2969C16.8102 33.2612 16.7483 32.9923 16.5984 33.0167Z" fill="#FFFFF5"></path>
  <path d="M18.0068 31.953C18.2148 31.9474 18.4219 31.9465 18.6299 31.9493C18.6974 32.4974 18.6974 33.0503 18.703 33.6013C18.9457 33.6031 19.1893 33.605 19.4329 33.6097C19.4423 33.7606 19.4526 33.9124 19.4639 34.0651L19.3542 34.0604C19.3327 33.9826 19.2905 33.8261 19.269 33.7484C19.045 33.7315 18.8211 33.7165 18.5971 33.7025C18.5784 33.1534 18.5709 32.6052 18.5475 32.057C18.3957 32.0589 18.2448 32.0608 18.0949 32.0636C18.0949 32.4965 18.1117 32.9294 18.1127 33.3623L18.0274 33.4064C18.0143 33.2143 18.0077 33.0212 18.0049 32.8292C18.0049 32.5368 18.0049 32.2445 18.0068 31.953Z" fill="#C2B388"></path>
  <path d="M13.8914 32.7449C13.8258 32.4901 13.898 32.2436 14.0563 32.0403C14.0114 32.2774 13.9598 32.5135 13.8914 32.7449Z" fill="#3E4B53"></path>
  <path d="M18.0949 32.0637C18.2448 32.0609 18.3956 32.059 18.5474 32.0571C18.5709 32.6053 18.5784 33.1534 18.5971 33.7025C18.821 33.7166 19.045 33.7316 19.2689 33.7485C19.2905 33.8262 19.3327 33.9827 19.3542 34.0605C19.1481 34.0586 18.9438 34.0652 18.7386 34.0727C18.5371 34.0399 18.3338 33.9968 18.1286 34.0146C18.1183 33.7972 18.1155 33.5798 18.1127 33.3624C18.1127 32.9295 18.0939 32.4966 18.0949 32.0637Z" fill="#FFFFF9"></path>
  <path d="M20.3015 32.0571C20.4711 32.0787 20.4346 32.2904 20.4665 32.4113C20.4927 32.6868 20.518 32.9642 20.5723 33.2368C20.786 33.234 21.0015 33.2331 21.2123 33.2799C20.9846 33.3324 20.7541 33.3718 20.5236 33.4064C20.4065 32.9651 20.3503 32.5106 20.3015 32.0571Z" fill="#293E58"></path>
  <path d="M14.5257 32.7833C14.6354 32.8124 14.745 32.8414 14.8546 32.8705C14.8715 32.9932 14.909 33.1169 14.893 33.2434C14.7993 33.4308 14.5716 33.3746 14.403 33.3886C14.417 33.1816 14.4564 32.9782 14.5257 32.7833ZM14.6091 32.8892C14.5745 33.0232 14.5407 33.1572 14.5089 33.2931C14.7075 33.3352 14.819 33.1909 14.849 33.0148C14.789 32.9838 14.6691 32.9211 14.6091 32.8892Z" fill="#A0936B"></path>
  <path d="M14.6091 32.889C14.6691 32.9209 14.789 32.9837 14.849 33.0146C14.819 33.1908 14.7075 33.3351 14.5089 33.2929C14.5407 33.157 14.5744 33.023 14.6091 32.889Z" fill="#363A31"></path>
  <path d="M16.5985 33.0167C16.7484 32.9923 16.8102 33.2613 16.6566 33.2969C16.4898 33.3334 16.4401 33.056 16.5985 33.0167Z" fill="#AB955C"></path>
  <path d="M13.7199 33.6425C13.8361 33.605 13.9485 33.665 14.0516 33.7137C13.9832 33.843 13.704 33.8027 13.7199 33.6425Z" fill="#464B44"></path>
  <path d="M14.4274 33.8206C14.6841 33.8262 14.9409 33.8224 15.1976 33.8355C14.9961 34.0117 14.6073 34.0389 14.4274 33.8206Z" fill="#3B4544"></path>
  <path d="M19.8565 34.0398C20.236 33.9723 20.6202 33.947 21.0025 33.9039C20.6623 34.0426 20.2782 34.1841 19.9099 34.1101L19.8565 34.0398Z" fill="#2C3F56"></path>
  <path d="M15.7017 34.0191C15.8488 33.9976 15.9978 33.992 16.1449 34.007C16.1449 34.2009 15.7251 34.2028 15.7017 34.0191Z" fill="#2F3D49"></path>
  <path d="M18.1286 34.0145C18.3338 33.9967 18.5371 34.0398 18.7386 34.0726C18.5578 34.1307 18.1942 34.2816 18.1286 34.0145Z" fill="#B0A789"></path>
</svg>
