<?xml version="1.0" encoding="UTF-8"?>
<svg xmlns="http://www.w3.org/2000/svg" width="24" height="24" viewBox="0 0 24 24" fill="none">
  <g clip-path="url(#clip0_413_467)">
    <path d="M23.3486 12.0001C23.3486 15.0086 22.1486 17.8972 20.0229 20.0229C17.8971 22.1486 15.0086 23.3486 12 23.3486C8.99143 23.3486 6.10286 22.1486 3.97714 20.0229C1.85143 17.8972 0.651428 15.0086 0.651428 12.0001C0.651428 8.99149 1.85143 6.10292 3.97714 3.9772C6.10286 1.85149 8.99143 0.651489 12 0.651489C15.0086 0.651489 17.8971 1.85149 20.0229 3.9772C22.1486 6.10292 23.3486 8.99149 23.3486 12.0001Z" fill="white"></path>
    <mask id="mask0_413_467" style="mask-type:luminance" maskUnits="userSpaceOnUse" x="0" y="0" width="24" height="24">
      <path d="M24 0H0V24H24V0Z" fill="white"></path>
    </mask>
    <g mask="url(#mask0_413_467)">
      <path d="M12 23.5398C8.96487 23.5398 5.99144 22.3072 3.84173 20.1583C1.69287 18.0095 0.460297 15.036 0.460297 12C0.460297 8.96404 1.69287 5.99147 3.84173 3.84176C5.99144 1.6929 8.96487 0.460327 12 0.460327C15.0352 0.460327 18.0086 1.6929 20.1583 3.84176C22.3072 5.99061 23.5397 8.96404 23.5397 12C23.5397 15.036 22.3072 18.0086 20.1583 20.1583C18.0094 22.3072 15.036 23.5398 12 23.5398ZM12 0.842613C9.06515 0.842613 6.1903 2.03404 4.11258 4.11261C2.03487 6.19033 0.842582 9.06518 0.842582 12C0.842582 14.9349 2.03401 17.8098 4.11258 19.8875C6.1903 21.9652 9.06515 23.1575 12 23.1575C14.9349 23.1575 17.8097 21.966 19.8874 19.8875C21.9652 17.8098 23.1574 14.9349 23.1574 12C23.1574 9.06518 21.966 6.19033 19.8874 4.11261C17.8097 2.0349 14.9349 0.842613 12 0.842613Z" fill="#FF0000"></path>
    </g>
    <path d="M12 0.462891C8.94 0.462891 6 1.68003 3.84 3.84003C1.67143 6.0086 0.46286 8.94003 0.46286 12C0.46286 15.06 1.68 18 3.84 20.16C6.00857 22.32 8.94 23.5372 12 23.5372C15.06 23.5372 18 22.32 20.16 20.16C22.3286 17.9915 23.5371 15.06 23.5371 12C23.5371 8.94003 22.32 6.00003 20.16 3.84003C18 1.68003 15.06 0.462891 12 0.462891ZM12 0.840033C14.9571 0.840033 17.7943 2.01432 19.8943 4.10575C21.9857 6.19718 23.16 9.03432 23.16 12C23.16 14.9657 21.9857 17.7943 19.8943 19.8943C17.8029 21.9857 14.9657 23.16 12 23.16C9.03429 23.16 6.20572 21.9857 4.10572 19.8943C2.01429 17.8029 0.840003 14.9657 0.840003 12C0.840003 9.03432 2.01429 6.20575 4.10572 4.10575C6.20572 2.01432 9.04286 0.840033 12 0.840033Z" fill="#002E60"></path>
    <mask id="mask1_413_467" style="mask-type:luminance" maskUnits="userSpaceOnUse" x="0" y="0" width="24" height="24">
      <path d="M24 0H0V24H24V0Z" fill="white"></path>
    </mask>
    <g mask="url(#mask1_413_467)">
      <path d="M12 23.9957C8.80199 23.9957 5.78913 22.7486 3.51599 20.4848C1.28399 18.2528 0.00427246 15.1603 0.00427246 12C0.00427246 8.8397 1.25142 5.7797 3.51599 3.51513C5.74713 1.28399 8.8397 0.00427246 12 0.00427246C15.1603 0.00427246 18.2528 1.28399 20.4848 3.51599C22.7168 5.74799 23.9966 8.8397 23.9966 12.0008C23.9966 15.162 22.7494 18.2211 20.4848 20.4857C18.2528 22.7177 15.1603 23.9974 12 23.9974V23.9957ZM12 1.29856C9.1457 1.29856 6.4577 2.41113 4.4297 4.43056C2.41113 6.45684 1.29942 9.1457 1.29942 12C1.29942 14.8543 2.41113 17.5508 4.43056 19.5694C6.4577 21.5888 9.14656 22.7006 12 22.7006C14.8534 22.7006 17.5508 21.5888 19.5703 19.5694C21.5888 17.5423 22.7014 14.8534 22.7014 12C22.7014 9.14656 21.5897 6.44913 19.5703 4.43056C17.5431 2.41113 14.8543 1.29942 12 1.29942V1.29856Z" fill="#002E60"></path>
    </g>
    <path d="M12 0.462891C8.94 0.462891 6 1.68003 3.84 3.84003C1.67143 6.0086 0.46286 8.94003 0.46286 12C0.46286 15.06 1.68 18 3.84 20.16C6.00857 22.32 8.94 23.5372 12 23.5372C15.06 23.5372 18 22.32 20.16 20.16C22.3286 17.9915 23.5371 15.06 23.5371 12C23.5371 8.94003 22.32 6.00003 20.16 3.84003C18 1.68003 15.06 0.462891 12 0.462891ZM12 0.840033C14.9571 0.840033 17.7943 2.01432 19.8943 4.10575C21.9857 6.19718 23.16 9.03432 23.16 12C23.16 14.9657 21.9857 17.7943 19.8943 19.8943C17.8029 21.9857 14.9657 23.16 12 23.16C9.03429 23.16 6.20572 21.9857 4.10572 19.8943C2.01429 17.8029 0.840003 14.9657 0.840003 12C0.840003 9.03432 2.01429 6.20575 4.10572 4.10575C6.20572 2.01432 9.04286 0.840033 12 0.840033Z" fill="#7BB1DD"></path>
    <path d="M12.0343 19.3955C10.0988 19.3955 8.20456 18.6103 6.8357 17.2415C5.46684 15.8726 4.68256 13.9783 4.68256 12.0429C4.68256 10.1075 5.4677 8.21316 6.8357 6.84431C8.20456 5.47545 10.0997 4.69031 12.0343 4.69031C13.9688 4.69031 15.864 5.47545 17.2328 6.84431C18.6017 8.21316 19.386 10.1075 19.386 12.0429C19.386 13.9783 18.6008 15.8726 17.2328 17.2415C15.8648 18.6103 13.9688 19.3955 12.0343 19.3955ZM12.0343 5.11545C10.2111 5.11545 8.4257 5.85516 7.1357 7.14431C5.84656 8.43431 5.10684 10.2197 5.10684 12.0429C5.10684 13.866 5.84656 15.6515 7.1357 16.9415C8.42484 18.2315 10.2111 18.9703 12.0343 18.9703C13.8574 18.9703 15.6428 18.2306 16.9328 16.9415C18.2228 15.6523 18.9617 13.8669 18.9617 12.0429C18.9617 10.2189 18.222 8.43431 16.9328 7.14431C15.6428 5.85431 13.8574 5.11545 12.0343 5.11545Z" fill="#002E60"></path>
    <path d="M18.6771 12.0343C18.6771 13.8 17.9743 15.4971 16.7229 16.7486C15.4714 18 13.7743 18.7029 12.0086 18.7029C10.2429 18.7029 8.54571 18 7.29428 16.7486C6.04285 15.4971 5.34 13.8 5.34 12.0343C5.34 10.2686 6.04285 8.57144 7.29428 7.32001C8.54571 6.06858 10.2429 5.36572 12.0086 5.36572C13.7743 5.36572 15.4714 6.06858 16.7229 7.32001C17.9743 8.57144 18.6771 10.2686 18.6771 12.0343Z" fill="#7BB1DD"></path>
    <path fill-rule="evenodd" clip-rule="evenodd" d="M6.49714 6.52286C6.01714 8.55429 6.01714 10.38 6.03428 11.6314C6 17.3143 10.2086 19.08 11.9914 19.62C13.7743 19.08 17.9829 17.3143 17.9486 11.6314C17.9657 10.38 17.9657 8.55429 17.4857 6.52286C14.7257 6.04286 13.0457 6.08572 11.9914 6.07715C10.9371 6.08572 9.26571 6.04286 6.49714 6.52286Z" fill="#002E60"></path>
    <path fill-rule="evenodd" clip-rule="evenodd" d="M7.07144 6.92574C6.77144 8.27145 6.61715 9.48002 6.55715 10.4915C6.53144 11.5886 6.52287 12.7029 6.6943 13.6886C6.78858 14.2029 6.9343 14.7429 7.20858 15.3C7.78287 16.38 8.60573 17.3315 9.35144 17.8372C10.3372 18.5915 11.3572 19.0029 12 19.2086C12.6429 19.0029 13.6543 18.5915 14.6486 17.8372C15.3943 17.3315 16.2172 16.3715 16.7914 15.3C17.0657 14.7429 17.22 14.2029 17.3057 13.6886C17.4772 12.7029 17.4686 11.5886 17.4429 10.4915C17.3829 9.48002 17.2286 8.27145 16.9286 6.92574C14.4514 6.47145 12.9514 6.51431 12 6.50574C11.0486 6.51431 9.54858 6.47145 7.07144 6.92574Z" fill="#FFBB59"></path>
    <path d="M10.3457 20.5457C10.32 20.5286 10.2686 20.4686 10.2257 20.4428C9.82286 20.1857 9.35143 20.4343 9.32572 20.9228C9.30857 21.2228 9.53143 21.4714 9.77143 21.5228C10.02 21.5657 10.2 21.4543 10.3714 21.3086L10.6286 21.5743C10.5 21.7114 10.3371 21.84 10.0543 21.9C10.0029 21.9086 9.92572 21.9171 9.84 21.9171C9.30857 21.8657 9.00857 21.5828 8.92286 21.1371C8.87143 20.8971 8.91429 20.6486 9.04286 20.4343C9.19714 20.1857 9.42 20.04 9.71143 19.98C10.0543 19.9114 10.4057 20.0228 10.62 20.2543L10.3457 20.5457Z" fill="#002E60"></path>
    <path d="M11.4514 19.98H11.0229V21.8657H11.4514V19.98Z" fill="#002E60"></path>
    <path d="M13.3972 20.3743H12.8229V21.8657H12.3943V20.3743H11.82V19.98H13.3972V20.3743Z" fill="#002E60"></path>
    <path d="M15.4371 19.98L14.7 21.1114V21.8657H14.2886V21.1114L13.5686 19.98H14.0571L14.5029 20.7514L14.9571 19.98H15.4371Z" fill="#002E60"></path>
    <path fill-rule="evenodd" clip-rule="evenodd" d="M4.73142 8.72574L4.54285 9.07717L2.91428 8.2286L3.11999 7.84289L4.0457 7.78289L3.57428 6.9686L3.77142 6.58289L5.40856 7.4486L5.21999 7.80003L4.13999 7.23431L4.61142 8.08289L3.65999 8.17717L4.73142 8.72574Z" fill="#002E60"></path>
    <path d="M6.94286 5.7429L6.64286 6.05147L6.22286 5.88861L5.68286 6.4629L5.87143 6.87432L5.58858 7.16575L4.77429 5.31432L5.03143 5.04004L6.94286 5.7429ZM5.87143 5.75147L5.25429 5.51147L5.52858 6.11147L5.87143 5.75147Z" fill="#002E60"></path>
    <path fill-rule="evenodd" clip-rule="evenodd" d="M7.20857 5.54571L6.24857 3.97714L6.56571 3.77142L7.90285 4.30285L7.31142 3.32571L7.65428 3.12L8.60571 4.69714L8.31428 4.87714L6.93428 4.33714L7.55142 5.33999L7.20857 5.54571Z" fill="#002E60"></path>
    <path d="M9.9943 2.88856C9.96858 2.87999 9.90001 2.83713 9.84858 2.81999C9.40287 2.69142 9.01715 3.05142 9.12858 3.51428C9.19715 3.79713 9.47144 3.97713 9.71144 3.95142C9.96001 3.92571 10.0972 3.77142 10.2172 3.59142L10.5257 3.77142C10.44 3.93428 10.3286 4.10571 10.0714 4.23428C10.02 4.25999 9.96001 4.28571 9.86572 4.30285C9.35144 4.39713 8.99144 4.21713 8.78572 3.81428C8.6743 3.59999 8.64001 3.35142 8.70858 3.11999C8.78572 2.84571 8.95715 2.64856 9.2143 2.51142C9.52287 2.35713 9.88287 2.36571 10.1486 2.51999L9.9943 2.88856Z" fill="#002E60"></path>
    <path d="M18.3686 4.92005L17.9229 4.57719L17.0314 5.75148L16.6971 5.50291L17.5971 4.33719L17.1514 3.99434L17.3829 3.69434L18.6 4.62862L18.3686 4.92005Z" fill="#002E60"></path>
    <path fill-rule="evenodd" clip-rule="evenodd" d="M10.9543 2.16859L10.9971 4.01145L11.3914 4.00288L11.3743 3.25716L12.1371 3.24002L12.1543 3.98573L12.5486 3.97716L12.5143 2.12573L12.1029 2.1343L12.12 2.87145L11.3657 2.88859L11.3486 2.16002L10.9543 2.16859Z" fill="#002E60"></path>
    <path fill-rule="evenodd" clip-rule="evenodd" d="M13.5086 2.24573L14.8714 2.54573L14.7857 2.89716L13.8257 2.68287L13.74 3.06001L14.5371 3.22287L14.3486 3.54858L13.6629 3.40287L13.5771 3.78858L14.5629 4.00287L14.4857 4.34573L13.1143 4.0543L13.5086 2.24573Z" fill="#002E60"></path>
    <path fill-rule="evenodd" clip-rule="evenodd" d="M15.9857 3.78857C15.7457 3.60857 15.7457 3.50571 15.8057 3.42C15.8657 3.35142 15.9429 3.35142 16.02 3.37714C16.1486 3.42 16.2514 3.50571 16.3286 3.60857C16.3714 3.66 16.4057 3.72 16.44 3.77142L16.7572 3.57428C16.7057 3.48 16.5772 3.22285 16.2 3.06C16.02 2.98285 15.5914 2.90571 15.4029 3.35142C15.3257 3.54 15.36 3.66 15.4029 3.74571C15.5057 3.91714 15.6772 4.03714 15.8229 4.16571C15.8829 4.21714 15.9514 4.27714 15.9772 4.35428C15.9943 4.41428 15.9772 4.46571 15.9343 4.50857C15.7114 4.69714 15.3172 4.29428 15.24 4.07142L14.8972 4.23428C15.0772 4.58571 15.3857 4.90285 15.8657 4.92C16.0372 4.91142 16.2429 4.81714 16.3372 4.60285C16.3972 4.43142 16.4143 4.27714 16.3286 4.14C16.2429 4.00285 16.0972 3.86571 15.9857 3.78857Z" fill="#002E60"></path>
    <path fill-rule="evenodd" clip-rule="evenodd" d="M19.1657 5.16858L20.0486 6.24001L19.7743 6.47144L19.14 5.70858L18.84 5.94858L19.3886 6.60001L19.02 6.72001L18.5743 6.18001L18.2657 6.42858L18.9171 7.20001L18.6429 7.43144L17.7429 6.35144L19.1657 5.16858Z" fill="#002E60"></path>
    <path d="M20.5629 7.85996L20.3743 7.48282L19.9029 7.72282L20.0829 8.08282C20.1772 8.27996 20.3314 8.30568 20.4514 8.26282C20.5886 8.21996 20.6657 8.04853 20.5629 7.85996ZM19.5857 9.21425L19.3714 8.79425L19.7229 8.1771L19.5686 7.88568L19.0457 8.15139L18.8657 7.79139L20.5114 6.95996L20.8629 7.66282C20.9143 7.7571 20.9314 7.8171 20.9572 7.89425C21.0086 8.03996 21.0086 8.1771 20.9657 8.28853C20.8114 8.6571 20.3229 8.84568 19.9714 8.51996L19.5857 9.21425Z" fill="#002E60"></path>
    <path d="M20.5714 12.1885C20.4171 12.3257 20.1771 12.2914 20.0486 12.1542C19.9886 12.0942 19.9543 12.0085 19.9543 11.9142C19.9629 11.8457 19.98 11.7857 20.0057 11.7257C20.04 11.6571 20.0914 11.6057 20.1514 11.58C20.2886 11.5028 20.4771 11.5028 20.6057 11.58C20.7 11.64 20.76 11.7342 20.7857 11.8457C20.8029 11.9142 20.8114 11.9914 20.8114 12.0771C20.8114 12.3 20.7429 12.5057 20.58 12.6085C20.5371 12.6342 20.4771 12.6514 20.4086 12.66C20.2286 12.6771 20.0914 12.6257 19.98 12.54L20.1 12.3514C20.4171 12.6 20.5714 12.36 20.5714 12.1885ZM20.5886 11.9057C20.5886 11.8114 20.5114 11.7514 20.4343 11.7342C20.4 11.7257 20.3571 11.7257 20.3229 11.7342C20.2886 11.7428 20.2543 11.7685 20.2371 11.7942C20.1514 11.8971 20.2114 12.0342 20.2886 12.06C20.3143 12.0685 20.3571 12.0771 20.4 12.0857C20.5543 12.0771 20.5886 11.9485 20.5886 11.9057Z" fill="#7BB1DD"></path>
    <path d="M21.9772 12.4029H21.8314V12.6514H21.6086V12.4029H21.06L21.0257 12.2314L21.6257 11.52H21.8314V12.2057H21.9772V12.4029ZM21.6172 12.2143V11.8629L21.3 12.2143H21.6172Z" fill="#7BB1DD"></path>
    <path d="M2.29716 11.82L2.24573 11.6314L2.54573 11.5371H2.72573V12.6514H2.4943V11.76L2.29716 11.82Z" fill="#7BB1DD"></path>
    <path d="M3.66 12.0686C3.78857 12.12 3.85714 12.2229 3.85714 12.3514C3.85714 12.5057 3.74571 12.6086 3.60857 12.6429C3.55714 12.66 3.49714 12.66 3.42857 12.66C3.24857 12.6514 3.00857 12.5743 3 12.3514C3.00857 12.1971 3.04286 12.1371 3.17143 12.0686C3.03429 11.9829 2.98286 11.8371 3.06857 11.6829C3.08571 11.6486 3.12 11.6143 3.15429 11.5971C3.18857 11.5714 3.23143 11.5543 3.27429 11.5457C3.31714 11.5371 3.36857 11.5286 3.42 11.5286C3.61714 11.5286 3.78857 11.6228 3.80571 11.82C3.81429 11.8714 3.80571 11.9314 3.77143 11.9743C3.76286 12.0086 3.72 12.0429 3.66 12.0686ZM3.54857 11.9571C3.57429 11.9314 3.59143 11.8971 3.59143 11.8628C3.59143 11.82 3.57429 11.7943 3.54857 11.7686C3.52286 11.7429 3.48 11.7343 3.43714 11.7343C3.38571 11.7343 3.35143 11.7429 3.32571 11.7686C3.3 11.7943 3.28286 11.82 3.28286 11.8628C3.28286 11.8971 3.3 11.9314 3.32571 11.9571C3.37714 12 3.47143 12.0086 3.54857 11.9571ZM3.61714 12.3171C3.61714 12.2057 3.48857 12.1714 3.40286 12.18C3.31714 12.1886 3.23143 12.24 3.23143 12.3171C3.23143 12.42 3.34286 12.4714 3.42857 12.4714C3.53143 12.4714 3.61714 12.4028 3.61714 12.3171Z" fill="#7BB1DD"></path>
    <path fill-rule="evenodd" clip-rule="evenodd" d="M12 19.2001C12.6429 18.9943 13.6543 18.5829 14.6486 17.8286C15.3943 17.3229 16.2171 16.3629 16.7914 15.2915C17.0657 14.7343 17.22 14.1943 17.3057 13.6801C17.4771 12.6943 17.4686 11.5801 17.4429 10.4829C17.3829 9.47148 17.2286 8.26291 16.9286 6.91719C14.4514 6.46291 12.9514 6.50576 12 6.49719" fill="#E9AB00"></path>
    <path fill-rule="evenodd" clip-rule="evenodd" d="M17.0314 12.6686C16.8 15.5057 15.4714 17.4686 12 18.7029C8.52857 17.46 7.2 15.5057 6.96857 12.6686H17.0314Z" fill="#7BB1DD"></path>
    <path fill-rule="evenodd" clip-rule="evenodd" d="M6.93429 12.2486C6.90857 11.7001 6.92571 11.1258 6.96 10.5086C7.01143 9.5572 7.07143 8.45148 7.35429 7.19148C9.55714 6.7972 11.0486 6.80577 11.9914 6.77148C12.9343 6.7972 14.4257 6.78863 16.6286 7.19148C16.9114 8.46006 16.9714 9.56577 17.0229 10.5086C17.0657 11.1258 17.0743 11.7001 17.0486 12.2572L6.93429 12.2486Z" fill="white"></path>
    <path fill-rule="evenodd" clip-rule="evenodd" d="M15.3514 16.7143C15.0857 16.9886 14.7771 17.2457 14.4343 17.4943L10.44 12.6771H12L15.3514 16.7143ZM16.7743 14.1943C16.6457 14.6743 16.4657 15.1286 16.2257 15.5486L13.8428 12.6686H15.5143L16.7743 14.1943ZM13.1743 18.2229C12.8143 18.3943 12.42 18.5572 11.9914 18.7114L6.95999 12.6771H8.59713L13.1743 18.2229Z" fill="#A8C9E8"></path>
    <path fill-rule="evenodd" clip-rule="evenodd" d="M13.2343 11.4857C13.9371 11.4514 14.6571 11.34 14.9914 11.2543C14.9229 11.8029 14.3657 11.7429 14.6829 12.2572H13.9714C13.7057 12.1629 13.4229 12.0514 13.1829 12.0343C13.1143 12.0257 13.0543 12.0257 12.9943 12.0514C12.2486 12.3343 11.6486 12.0086 11.0914 12C11.0743 12.0686 10.9543 12.1457 10.7143 12.1714C10.3114 12.2229 10.0286 12.0514 9.71144 12.0429C9.60001 12.0429 9.48858 12.0772 9.39429 12.2572C9.23144 12.0343 9.13715 11.8629 8.91429 11.5886C8.58001 11.4257 8.27144 11.2972 7.97144 11.1857L7.98858 11.1257C8.94858 11.4172 9.66858 11.5286 10.32 11.5886C11.1172 11.6229 11.9829 11.6743 12.7629 11.6143C12.9857 11.5286 13.0714 11.4943 13.2343 11.4857Z" fill="#FBC24E"></path>
    <path fill-rule="evenodd" clip-rule="evenodd" d="M14.8886 11.3314C14.8028 11.6828 14.28 11.82 14.6314 12.2571H14.2114C13.9457 12.1628 13.4828 11.9571 12.9686 11.9571C12.78 12.1028 12.4371 12.1714 11.9143 12.0514C11.6743 12 11.34 11.9143 10.9971 11.9229C10.92 12.2486 9.83999 12.12 9.45428 11.6143L8.96571 11.4943L8.85428 11.4086C9.63428 11.5714 10.4228 11.6657 10.8343 11.6829C11.5714 11.7086 12.2657 11.7086 12.7628 11.6914C12.9257 11.64 12.96 11.6228 13.0457 11.5886C13.1657 11.5286 13.3028 11.5371 13.4228 11.5371C14.1 11.4857 14.5371 11.3914 14.8886 11.3314Z" fill="#EAAA00"></path>
    <path fill-rule="evenodd" clip-rule="evenodd" d="M11.58 11.4771C11.6743 11.34 11.8286 11.2629 12.0086 11.2286L12 11.6314H12.1372L12.1286 11.2029C12.6343 11.1343 13.1743 11.22 13.6114 11.3229V11.4686C13.6629 11.4686 13.7057 11.46 13.7486 11.46V11.2886L15.1714 10.7914C14.7686 10.26 14.8029 9.63428 14.9057 9C14.8286 9.31714 14.64 9.90857 14.16 10.4486C13.7743 10.8771 13.8171 10.9714 13.7486 11.0914L13.7229 8.21143L13.3971 8.32285C13.3286 8.34 13.3714 8.37428 13.3114 8.4L12.9857 8.52857L13.3629 8.51143C13.4143 8.51143 13.38 8.43428 13.4314 8.42571L13.6372 8.40857L13.6114 11.2543C13.3886 10.9029 12.9943 10.4829 13.1571 9.6C12.7629 11.1 11.4857 10.9371 11.58 11.4771ZM11.0229 9.88285C10.68 11.0571 9.66001 10.9114 9.72001 11.3829C9.87429 11.2457 10.0286 11.2371 10.1743 11.1943V11.5543C10.2171 11.5629 10.26 11.5629 10.3029 11.5629L10.3114 11.1771C10.68 11.1343 11.0057 11.1771 11.34 11.2114C11.0743 10.7743 10.9029 10.3371 11.0229 9.88285Z" fill="#EAAA00"></path>
    <path fill-rule="evenodd" clip-rule="evenodd" d="M14.9143 8.99146C14.8371 9.3086 14.6486 9.90003 14.1686 10.44C13.7829 10.8686 13.8257 10.9629 13.7571 11.0829L13.74 9.40288L14.9143 8.99146ZM11.3743 10.1915L13.1657 9.57431C12.7629 11.1 11.4857 10.9286 11.5886 11.4686C11.28 11.1943 10.9886 10.6543 11.3743 10.1915ZM9.54001 10.3972L11.0229 9.88288C10.68 11.0572 9.66001 10.9115 9.72001 11.3829C9.37715 11.04 9.36858 10.6286 9.54001 10.3972Z" fill="#FFBB59"></path>
    <path fill-rule="evenodd" clip-rule="evenodd" d="M12.1371 7.85144V7.33716L11.8114 7.44859C11.7429 7.46573 11.7857 7.50002 11.7257 7.52573L11.4 7.6543L11.7771 7.63716C11.8286 7.63716 11.7943 7.56002 11.8457 7.55144L12.0514 7.5343V7.8943L12.1371 7.85144Z" fill="#EAAA00"></path>
    <path fill-rule="evenodd" clip-rule="evenodd" d="M10.2943 9.11998V8.49426L9.96856 8.60569C9.89999 8.62283 9.94285 8.65712 9.88285 8.68283L9.5657 8.80283L9.93428 8.79426C9.9857 8.79426 9.95142 8.71712 10.0028 8.70855L10.2086 8.69141V9.15426L10.2943 9.11998Z" fill="#EAAA00"></path>
    <path fill-rule="evenodd" clip-rule="evenodd" d="M11.7686 7.62851C11.82 7.62851 11.7857 7.55137 11.8371 7.5428L11.8028 7.43994C11.7343 7.45708 11.7771 7.49137 11.7171 7.51708L11.7686 7.62851Z" fill="#FFBB59"></path>
    <path fill-rule="evenodd" clip-rule="evenodd" d="M12.7028 7.6543C12.18 8.66573 11.4686 8.4943 11.3828 8.98287C11.1086 8.76001 11.2286 8.30573 11.4 8.10858L12.7028 7.6543Z" fill="#FFBB59"></path>
    <path fill-rule="evenodd" clip-rule="evenodd" d="M12.8572 8.52858C12.6772 8.3143 12.5572 8.05715 12.7029 7.6543C12.18 8.66573 11.4686 8.4943 11.3829 8.98287C11.6829 8.58001 12.5829 8.54573 12.8572 8.52858Z" fill="#EAAA00"></path>
    <path fill-rule="evenodd" clip-rule="evenodd" d="M11.3914 10.1057C11.0829 9.6514 11.1086 9.18854 11.3829 9.05997C11.8714 8.88854 12.4971 8.6914 12.8486 8.53711C12.6086 9.47997 11.5029 9.56568 11.3914 10.1057Z" fill="#FFBB59"></path>
    <path fill-rule="evenodd" clip-rule="evenodd" d="M12.8571 8.52856C12.6086 9.47999 11.5114 9.56571 11.4 10.1057C11.6314 9.79714 12.1629 9.59142 13.1657 9.55714C12.9429 9.27428 12.7886 8.95714 12.8571 8.52856Z" fill="#EAAA00"></path>
    <path fill-rule="evenodd" clip-rule="evenodd" d="M10.7743 8.94861C10.3457 9.11147 9.96857 9.24004 9.63428 9.35147C9.48 9.50575 9.29143 9.93432 9.57428 10.2943C9.52285 9.87432 10.4143 9.72004 10.7743 8.94861Z" fill="#FFBB59"></path>
    <path fill-rule="evenodd" clip-rule="evenodd" d="M9.57429 10.2943C9.52286 9.87432 10.4229 9.72004 10.7743 8.94861C10.7571 9.13718 10.6886 9.54004 11.0229 9.87432C10.5 9.90004 9.82286 9.97718 9.57429 10.2943Z" fill="#EAAA00"></path>
    <path fill-rule="evenodd" clip-rule="evenodd" d="M9.92573 8.79428C9.97716 8.79428 9.94287 8.71714 9.9943 8.70857L9.96001 8.60571C9.89144 8.62286 9.9343 8.65714 9.8743 8.68286L9.92573 8.79428Z" fill="#FFBB59"></path>
    <path fill-rule="evenodd" clip-rule="evenodd" d="M9.42858 9.40283C9.06001 9.66855 8.39144 10.1657 8.04001 11.0057C8.27144 10.98 8.50287 10.98 8.83715 11.0485C8.57144 10.8685 8.52001 10.6628 9.42858 9.40283Z" fill="#FFBB59"></path>
    <path fill-rule="evenodd" clip-rule="evenodd" d="M9.10285 11.1085L8.82856 11.0571C8.56285 10.8771 8.51142 10.6714 9.41999 9.41138C9.23999 9.73709 8.94856 10.3371 9.10285 11.1085Z" fill="#EAAA00"></path>
    <path fill-rule="evenodd" clip-rule="evenodd" d="M13.3629 8.49424C13.4143 8.49424 13.38 8.41709 13.4314 8.40852L13.3971 8.30566C13.3286 8.32281 13.3714 8.35709 13.3114 8.38281L13.3629 8.49424Z" fill="#FFBB59"></path>
    <path fill-rule="evenodd" clip-rule="evenodd" d="M12.0943 13.3628L12.3086 13.6285C12.3343 13.6628 12.3257 13.6971 12.3257 13.7228C12.4714 13.7143 12.6429 13.7657 12.7372 13.9028C12.84 14.0571 12.9172 14.1343 13.0029 14.1943C13.1143 14.28 13.2257 14.3143 13.3286 14.3485C13.4743 14.3914 13.5857 14.4857 13.6543 14.6828C13.68 14.6828 13.6972 14.6657 13.7743 14.6914L14.0572 14.7857C14.0743 14.7943 14.1 14.8028 14.1172 14.82C14.1343 14.8457 14.1429 14.8628 14.1429 14.8885C14.1429 14.9143 14.1429 14.94 14.1343 14.9657L13.92 15.2657C13.9029 15.2914 13.86 15.3 13.8514 15.3C13.9114 15.4371 13.92 15.6171 13.8 15.7714C13.6543 15.96 13.6286 16.02 13.5943 16.1228C13.5686 16.2 13.56 16.3457 13.56 16.5085C13.56 16.6371 13.4914 16.7571 13.3543 16.8428C13.3543 16.8514 13.3629 16.8685 13.3629 16.8943V17.2028C13.3629 17.2457 13.3629 17.28 13.3457 17.3143C13.32 17.3571 13.2857 17.3743 13.2343 17.3743C13.1914 17.3828 13.1572 17.3743 13.1486 17.3657L12.84 17.2628C12.8057 17.2457 12.8057 17.2285 12.8057 17.2285C12.4972 17.4771 12.24 17.2543 11.9914 17.2457C11.7429 17.2543 11.4857 17.4771 11.1772 17.2285C11.1772 17.2285 11.1686 17.2457 11.1429 17.2628L10.8343 17.3657C10.8257 17.3657 10.7914 17.3743 10.7486 17.3743C10.7057 17.3657 10.6714 17.3485 10.6372 17.3143C10.62 17.2885 10.6114 17.2457 10.62 17.2028V16.8943C10.62 16.8685 10.6286 16.8514 10.6286 16.8428C10.4829 16.7571 10.4229 16.6371 10.4229 16.5085C10.4229 16.3457 10.4143 16.2 10.3886 16.1228C10.3543 16.0114 10.3286 15.96 10.1829 15.7714C10.0629 15.6171 10.08 15.4371 10.1314 15.3C10.1229 15.3 10.0886 15.2914 10.0629 15.2657L9.84858 14.9657C9.83144 14.94 9.83144 14.9057 9.84001 14.8885C9.84001 14.8628 9.84858 14.8371 9.86573 14.82C9.88287 14.8028 9.90858 14.7943 9.92573 14.7857L10.2086 14.6914C10.2857 14.6657 10.3029 14.6828 10.3286 14.6828C10.3972 14.4771 10.5086 14.3828 10.6543 14.3485C10.7572 14.3228 10.8686 14.28 10.98 14.1943C11.0657 14.1343 11.1343 14.0485 11.2457 13.9028C11.3486 13.7657 11.5114 13.7143 11.6572 13.7228C11.6572 13.6971 11.64 13.6628 11.6743 13.6285L11.8886 13.3628C11.9229 13.32 11.9657 13.32 11.9829 13.3114C12.0257 13.32 12.06 13.32 12.0943 13.3628Z" fill="#002E60"></path>
    <path fill-rule="evenodd" clip-rule="evenodd" d="M11.9143 14.4C11.8457 14.3315 11.7257 14.28 11.5971 14.3829C11.58 14.3915 11.5628 14.4086 11.5457 14.4257C11.4343 14.5286 11.4171 14.6229 11.2971 14.6829C11.1343 14.76 10.8428 14.76 10.9371 15.0772C10.9714 15.1715 10.9714 15.1543 10.8857 15.1372C10.7314 15.1029 10.6028 15.0172 10.5857 14.8543C10.5771 14.7 10.6543 14.58 10.7828 14.5372C10.8686 14.5115 10.9628 14.5029 11.1343 14.3829C11.34 14.2457 11.3657 14.0657 11.52 13.9886C11.6143 13.9543 11.7 13.9543 11.7943 13.9886C11.94 14.0572 11.9743 14.2115 11.9571 14.3915C11.9571 14.4429 11.9314 14.4172 11.9143 14.4Z" fill="#E41819"></path>
    <path fill-rule="evenodd" clip-rule="evenodd" d="M11.9486 15.24V14.7086C11.9571 14.5886 11.9057 14.5029 11.8029 14.4772C11.76 14.4686 11.7086 14.4686 11.6657 14.4943C11.6057 14.5286 11.5714 14.5886 11.52 14.6486C11.4686 14.7086 11.4086 14.7686 11.34 14.7943C11.28 14.82 11.2114 14.8286 11.1514 14.8629C11.0829 14.8972 11.0314 14.9486 11.04 15.0429C11.04 15.0943 11.0657 15.1457 11.1086 15.18C11.1514 15.2143 11.2029 15.2315 11.2629 15.2486L11.7171 15.3943C11.7514 15.4029 11.7686 15.3943 11.7857 15.3686C11.8371 15.2915 11.88 15.2829 11.9229 15.2743C11.9486 15.2829 11.9486 15.2572 11.9486 15.24Z" fill="#E41819"></path>
    <path fill-rule="evenodd" clip-rule="evenodd" d="M12.1114 14.4C12.18 14.3315 12.3 14.28 12.4286 14.3829C12.4457 14.3915 12.4629 14.4086 12.48 14.4257C12.5914 14.5286 12.6086 14.6229 12.7286 14.6829C12.8914 14.76 13.1829 14.76 13.0886 15.0772C13.0543 15.1715 13.0543 15.1543 13.14 15.1372C13.2943 15.1029 13.4229 15.0172 13.44 14.8543C13.4486 14.7 13.3714 14.58 13.2429 14.5372C13.1572 14.5115 13.0629 14.5029 12.8914 14.3829C12.6857 14.2457 12.66 14.0657 12.5057 13.9886C12.4114 13.9543 12.3257 13.9543 12.2314 13.9886C12.0857 14.0572 12.0514 14.2115 12.0686 14.3915C12.0686 14.4429 12.0943 14.4172 12.1114 14.4Z" fill="#E41819"></path>
    <path fill-rule="evenodd" clip-rule="evenodd" d="M12.0772 15.24V14.7086C12.0686 14.5886 12.12 14.5029 12.2229 14.4772C12.2657 14.4686 12.3172 14.4686 12.36 14.4943C12.42 14.5286 12.4543 14.5886 12.5057 14.6486C12.5572 14.7086 12.6172 14.7686 12.6857 14.7943C12.7457 14.82 12.8143 14.8286 12.8743 14.8629C12.9429 14.8972 12.9943 14.9486 12.9857 15.0429C12.9857 15.0943 12.96 15.1457 12.9172 15.18C12.8743 15.2143 12.8229 15.2315 12.7629 15.2486L12.3086 15.3943C12.3 15.4029 12.2829 15.4029 12.2743 15.4029C12.2657 15.4029 12.2657 15.4029 12.2572 15.3943C12.1886 15.2915 12.1543 15.2915 12.0943 15.2743C12.0772 15.2743 12.0686 15.2572 12.0772 15.24Z" fill="#E41819"></path>
    <path fill-rule="evenodd" clip-rule="evenodd" d="M12.7714 16.4401C12.8657 16.4572 12.9943 16.4229 13.0372 16.2686C13.0457 16.2515 13.0457 16.2258 13.0543 16.2001C13.08 16.0543 13.0372 15.9601 13.1057 15.8401C13.1914 15.6772 13.4314 15.5058 13.1657 15.3086C13.0886 15.2572 13.0886 15.2658 13.1743 15.2315C13.32 15.1715 13.4743 15.1629 13.5857 15.2829C13.68 15.4029 13.6972 15.5401 13.6114 15.6601C13.56 15.7372 13.4914 15.7972 13.4229 15.9943C13.3457 16.2258 13.4229 16.3886 13.3372 16.5429C13.2857 16.6286 13.2086 16.6801 13.1143 16.6972C12.9514 16.7315 12.84 16.6201 12.7457 16.4658C12.72 16.4229 12.7543 16.4315 12.7714 16.4401Z" fill="#E41819"></path>
    <path fill-rule="evenodd" clip-rule="evenodd" d="M12.2486 15.7885L12.5657 16.2171C12.6257 16.3199 12.72 16.3628 12.8229 16.3199C12.8657 16.3028 12.9 16.2771 12.9171 16.2257C12.9429 16.1657 12.9429 16.0885 12.9429 16.0114C12.9514 15.9342 12.96 15.8485 13.0029 15.7885C13.0371 15.7371 13.08 15.6771 13.1143 15.6257C13.1486 15.5571 13.1571 15.4885 13.0971 15.4114C13.0629 15.3685 13.02 15.3428 12.96 15.3342C12.9 15.3342 12.8571 15.3514 12.7971 15.3685L12.3429 15.5228C12.3171 15.5314 12.3 15.5485 12.3086 15.5742C12.3171 15.6771 12.2743 15.7199 12.24 15.7457C12.2314 15.7542 12.24 15.7714 12.2486 15.7885Z" fill="#E41819"></path>
    <path fill-rule="evenodd" clip-rule="evenodd" d="M11.2457 16.4401C11.1514 16.4572 11.0229 16.4229 10.98 16.2686C10.9714 16.2515 10.9714 16.2258 10.9629 16.2001C10.9372 16.0543 10.98 15.9601 10.9114 15.8401C10.8257 15.6772 10.5857 15.5058 10.8514 15.3086C10.9286 15.2572 10.9286 15.2658 10.8429 15.2315C10.6972 15.1715 10.5429 15.1629 10.4314 15.2829C10.3372 15.4029 10.32 15.5401 10.4057 15.6601C10.4572 15.7372 10.5257 15.7972 10.5943 15.9943C10.6714 16.2258 10.5943 16.3886 10.68 16.5429C10.7314 16.6286 10.8086 16.6801 10.9029 16.6972C11.0657 16.7315 11.1772 16.6201 11.2714 16.4658C11.3057 16.4229 11.2714 16.4315 11.2457 16.4401Z" fill="#E41819"></path>
    <path fill-rule="evenodd" clip-rule="evenodd" d="M11.7686 15.7885L11.4514 16.2171C11.3914 16.3199 11.2972 16.3628 11.1943 16.3199C11.1514 16.3028 11.1172 16.2771 11.1 16.2257C11.0743 16.1657 11.0743 16.0885 11.0743 16.0114C11.0657 15.9342 11.0572 15.8485 11.0143 15.7885C10.98 15.7371 10.9286 15.6771 10.9029 15.6257C10.8686 15.5571 10.86 15.4885 10.92 15.4114C10.9543 15.3685 10.9972 15.3428 11.0572 15.3342C11.1172 15.3342 11.16 15.3514 11.22 15.3685L11.6743 15.5228C11.7 15.5314 11.7086 15.5399 11.7172 15.5571C11.7 15.6342 11.7343 15.6857 11.7772 15.7371C11.7857 15.7542 11.7857 15.7714 11.7686 15.7885Z" fill="#E41819"></path>
    <path fill-rule="evenodd" clip-rule="evenodd" d="M12.6171 16.5428C12.6 16.6371 12.54 16.7485 12.3686 16.7485C12.3428 16.7485 12.3257 16.7485 12.3 16.74C12.1543 16.7228 12.0771 16.6543 11.9486 16.68C11.7686 16.7143 11.5286 16.8857 11.4257 16.5771C11.4 16.4828 11.4086 16.4914 11.3486 16.56C11.2457 16.68 11.1857 16.8257 11.28 16.9628C11.3657 17.0914 11.4943 17.1428 11.6314 17.1C11.7171 17.0743 11.7943 17.0228 12.0086 17.0143C12.2571 17.0057 12.3857 17.1343 12.5486 17.1C12.6428 17.0743 12.72 17.0228 12.7628 16.9371C12.84 16.7914 12.7714 16.6543 12.6514 16.5171C12.6171 16.4828 12.6171 16.5171 12.6171 16.5428Z" fill="#E41819"></path>
    <path fill-rule="evenodd" clip-rule="evenodd" d="M12.1543 15.84L12.4714 16.2686C12.5486 16.3543 12.5657 16.4571 12.4886 16.5429C12.4543 16.5771 12.42 16.6029 12.3686 16.6114C12.3 16.62 12.2314 16.5943 12.1543 16.5686C12.0772 16.5514 12 16.5343 11.9229 16.5514C11.8629 16.5686 11.7943 16.5943 11.7343 16.6029C11.6572 16.6114 11.5886 16.6029 11.5372 16.5257C11.5029 16.4829 11.4943 16.4314 11.5114 16.3714C11.5286 16.3114 11.5629 16.2771 11.5972 16.2257L11.88 15.84C11.8972 15.8229 11.9057 15.8057 11.9314 15.8143C12.0172 15.8571 12.0857 15.8314 12.12 15.8143C12.1286 15.8143 12.1457 15.8314 12.1543 15.84Z" fill="#E41819"></path>
    <path d="M12.1972 15.5572C12.1972 15.6515 12.12 15.7372 12.0172 15.7372C11.9229 15.7372 11.8372 15.6601 11.8372 15.5572C11.8372 15.4629 11.9143 15.3772 12.0172 15.3772C12.1114 15.3772 12.1972 15.4629 12.1972 15.5572Z" fill="#FEBE53"></path>
    <path fill-rule="evenodd" clip-rule="evenodd" d="M11.8457 13.8172C11.8286 13.8001 11.8286 13.7915 11.8543 13.7743C11.9057 13.7143 11.9486 13.6458 12 13.5601C12.0514 13.6372 12.1029 13.7058 12.1457 13.7743C12.1629 13.8001 12.1714 13.8001 12.1543 13.8172C12.0943 13.8686 12.0343 13.9286 12 14.0401C11.9743 13.9286 11.9057 13.8686 11.8457 13.8172Z" fill="#E41819"></path>
    <path fill-rule="evenodd" clip-rule="evenodd" d="M13.6114 14.8801C13.62 14.8543 13.6286 14.8629 13.6543 14.8715C13.7314 14.8972 13.8086 14.9229 13.9029 14.9486C13.8429 15.0172 13.7914 15.0858 13.74 15.1543C13.7229 15.1801 13.7229 15.1886 13.6971 15.1715C13.6286 15.1286 13.5514 15.0858 13.44 15.0943C13.5429 15.0258 13.5771 14.9486 13.6114 14.8801Z" fill="#E41819"></path>
    <path fill-rule="evenodd" clip-rule="evenodd" d="M10.3114 15.1628C10.2857 15.18 10.2857 15.1714 10.2686 15.1457C10.2257 15.0771 10.1743 15.0171 10.1143 14.94C10.2086 14.9142 10.2857 14.8885 10.3629 14.8628C10.3886 14.8542 10.3971 14.8457 10.4057 14.8714C10.4314 14.94 10.4743 15.0257 10.5686 15.0857C10.4571 15.0771 10.3714 15.1285 10.3114 15.1628Z" fill="#E41819"></path>
    <path fill-rule="evenodd" clip-rule="evenodd" d="M13.1486 16.8514C13.1743 16.8514 13.1743 16.86 13.1743 16.8943C13.1743 16.9714 13.1743 17.0571 13.1828 17.1514C13.0971 17.1171 13.0114 17.0914 12.9343 17.0743C12.9086 17.0657 12.9 17.0657 12.9 17.04C12.9171 16.9629 12.9343 16.8771 12.8914 16.7743C12.9857 16.8343 13.0714 16.8429 13.1486 16.8514Z" fill="#E41819"></path>
    <path fill-rule="evenodd" clip-rule="evenodd" d="M11.1172 17.0228C11.1257 17.0485 11.1172 17.0485 11.0829 17.0571C11.0057 17.0828 10.9286 17.1085 10.8429 17.1428C10.8514 17.0485 10.8514 16.9628 10.8429 16.8857C10.8429 16.86 10.8429 16.8514 10.8686 16.8428C10.9457 16.8342 11.0314 16.8257 11.1172 16.7485C11.0829 16.86 11.1 16.9543 11.1172 17.0228Z" fill="#E41819"></path>
  </g>
  <defs>
    <clipPath id="clip0_413_467">
      <rect width="24" height="24" fill="white"></rect>
    </clipPath>
  </defs>
</svg>
