<?xml version="1.0" encoding="UTF-8"?>
<svg xmlns="http://www.w3.org/2000/svg" width="22" height="22" viewBox="0 0 22 22" fill="none">
  <g clip-path="url(#clip0_433_1935)">
    <path fill-rule="evenodd" clip-rule="evenodd" d="M16.6267 8.2257L17.6687 7.8866L10.4967 21.6465L3.33188 7.89343L4.58507 8.2257H16.6267Z" fill="#6F3579"></path>
    <path d="M10.4968 22L3.01443 7.63768L4.60593 8.05954H16.6014L18 7.60437L17.8123 7.96435L10.4967 22H10.4968ZM3.64936 8.14904L10.4969 21.2927L17.3375 8.16859L16.6521 8.39162H4.56425L3.64936 8.14904Z" fill="#EDCD86"></path>
    <path fill-rule="evenodd" clip-rule="evenodd" d="M10.4968 14.9955L3.23065 7.61488L10.4968 0.234253L17.7632 7.61488L10.4968 14.9955Z" fill="white"></path>
    <path d="M10.4968 15.2297L3 7.61486L10.4968 0L17.9939 7.61486L10.4968 15.2297ZM3.46121 7.61486L10.4967 14.7612L17.5326 7.61486L10.4968 0.468461L3.46121 7.61486Z" fill="#EDCD86"></path>
    <path fill-rule="evenodd" clip-rule="evenodd" d="M9.64047 16.4925L9.82404 15.809L10.0085 16.4925H9.64056H9.64047ZM10.2037 17.2188H10.7485L10.1158 15.3164H9.54398L8.91296 17.2188H9.44535L9.52984 16.9041H10.1192L10.2037 17.2188ZM11.8709 16.4405L12.3272 16.5948C12.2966 16.7391 12.2485 16.8597 12.1828 16.9566C12.1171 17.0535 12.0354 17.1266 11.9382 17.1758C11.8409 17.2251 11.7171 17.2499 11.5667 17.2499C11.3833 17.2499 11.2336 17.22 11.1185 17.1599C11.0027 17.1001 10.9031 16.9945 10.8189 16.8433C10.7348 16.6923 10.6929 16.4989 10.6929 16.2631C10.6929 15.9489 10.7668 15.7072 10.9147 15.5385C11.0627 15.3697 11.2723 15.2853 11.5436 15.2853C11.7552 15.2853 11.9216 15.3337 12.043 15.4305C12.1642 15.5276 12.2544 15.6764 12.3141 15.8772L11.8541 15.9907C11.838 15.934 11.8212 15.8921 11.8032 15.8656C11.7745 15.8214 11.739 15.7874 11.6969 15.7637C11.6548 15.74 11.608 15.7279 11.5564 15.7279C11.4382 15.7279 11.348 15.7814 11.2851 15.8876C11.2375 15.9667 11.2139 16.0907 11.2139 16.2597C11.2139 16.4693 11.2421 16.6128 11.2988 16.6905C11.3556 16.7681 11.4345 16.807 11.5361 16.807C11.6377 16.807 11.71 16.7758 11.7607 16.7132C11.8114 16.6507 11.8481 16.5598 11.871 16.4405H11.8709Z" fill="white"></path>
    <path fill-rule="evenodd" clip-rule="evenodd" d="M10.0491 17.5302H11.3364V17.9418H10.5737V18.2738H11.2239V18.6577H10.5737V19.4325H10.0491V17.5301V17.5302ZM8.32661 6.72703C8.50488 6.72703 8.64928 6.5803 8.64928 6.39922C8.64928 6.21814 8.50488 6.07141 8.32661 6.07141C8.14834 6.07141 8.00394 6.21814 8.00394 6.39922C8.00394 6.5803 8.14834 6.72703 8.32661 6.72703Z" fill="#CC2229"></path>
    <path d="M8.22408 6.74594L7.97491 6.5324L8.09568 6.38567L7.97761 6.26988L8.20324 6.03053L8.3055 6.13085L8.39268 6.02502L8.64185 6.23857L8.22408 6.74594Z" fill="#EDCD86"></path>
    <path fill-rule="evenodd" clip-rule="evenodd" d="M10.5019 2.80188C10.5019 2.80188 12.6722 4.17632 11.1468 8.27175C11.1468 8.27175 12.0639 6.68519 12.3637 6.41774L12.5723 6.72211C12.5723 6.72211 11.3828 7.68133 11.2738 8.48377C11.2738 8.48377 12.2727 7.38617 13.2353 7.38617C14.1979 7.38617 14.7519 7.77358 14.7519 8.64986C14.7519 8.64986 14.8152 9.71974 13.4532 9.71974C13.4532 9.71974 12.6995 9.70124 12.4724 9.93186C12.4724 9.93186 12.418 9.33243 12.5721 9.15713C12.7266 8.98184 12.6449 8.83426 12.4632 8.83426C12.4632 8.83426 11.1467 9.12022 11.1556 10.8174C11.1556 10.8174 11.2645 11.0482 11.5913 11.0482C11.5913 11.0482 11.437 11.2696 11.0464 11.2696C11.0464 11.2696 11.0919 11.8966 11.3735 12.026C11.3735 12.026 11.1465 11.989 11.0555 11.9152C11.0555 11.9152 11.001 12.8101 10.5016 12.8101H10.4966C9.99721 12.8101 9.94268 11.9152 9.94268 11.9152C9.85178 11.9891 9.62485 12.026 9.62485 12.026C9.9064 11.8966 9.9518 11.2696 9.9518 11.2696C9.5613 11.2696 9.40694 11.0482 9.40694 11.0482C9.73371 11.0482 9.84285 10.8174 9.84285 10.8174C9.85187 9.12022 8.53522 8.83426 8.53522 8.83426C8.3536 8.83426 8.27182 8.98184 8.42627 9.15713C8.58072 9.33243 8.5262 9.93186 8.5262 9.93186C8.29908 9.70133 7.54543 9.71974 7.54543 9.71974C6.1831 9.71974 6.24683 8.64986 6.24683 8.64986C6.24683 7.77358 6.80072 7.38617 7.76334 7.38617C8.72596 7.38617 9.72487 8.48377 9.72487 8.48377C9.61601 7.68133 8.42627 6.72211 8.42627 6.72211L8.63506 6.41774C8.93484 6.68519 9.85197 8.27175 9.85197 8.27175C8.32644 4.17632 10.4968 2.80188 10.4968 2.80188H10.5018H10.5019Z" fill="#CC2229"></path>
    <path fill-rule="evenodd" clip-rule="evenodd" d="M12.6722 6.72703C12.4939 6.72703 12.3495 6.5803 12.3495 6.39922C12.3495 6.21814 12.4939 6.07141 12.6722 6.07141C12.8505 6.07141 12.9951 6.21814 12.9951 6.39922C12.9951 6.5803 12.8505 6.72703 12.6722 6.72703Z" fill="#CC2229"></path>
    <path d="M12.7748 6.74594L12.3569 6.23857L12.6061 6.02502L12.6934 6.13094L12.7956 6.03053L13.0213 6.26988L12.9032 6.38567L13.024 6.5324L12.7748 6.74594Z" fill="#EDCD86"></path>
  </g>
  <defs>
    <clipPath id="clip0_433_1935">
      <rect width="15" height="22" fill="white" transform="translate(3)"></rect>
    </clipPath>
  </defs>
</svg>
