<?xml version="1.0" encoding="UTF-8"?>
<svg xmlns="http://www.w3.org/2000/svg" width="40" height="40" viewBox="0 0 40 40" fill="none">
  <circle cx="20" cy="20" r="20" fill="white"></circle>
  <path d="M20 11C20 11 12.8074 11 11.0134 11.4807C10.0232 11.7452 9.24516 12.5244 8.98066 13.5134C8.49996 15.3074 8.5 20.2 8.5 20.2C8.5 20.2 8.49996 25.0926 8.98066 26.8866C9.24516 27.8768 10.0244 28.6548 11.0134 28.9193C12.8074 29.4 20 29.4 20 29.4C20 29.4 27.1926 29.4 28.9866 28.9193C29.9756 28.6548 30.7548 27.8756 31.0193 26.8866C31.5 25.0926 31.5 20.2 31.5 20.2C31.5 20.2 31.5 15.3074 31.0193 13.5134C30.7548 12.5244 29.9756 11.7452 28.9866 11.4807C27.1926 11 20 11 20 11ZM20 13.3C23.3143 13.3 27.4645 13.4537 28.3914 13.7021C28.5858 13.7538 28.745 13.9131 28.7979 14.1086C29.0751 15.1413 29.2 18.2933 29.2 20.2C29.2 22.1067 29.0751 25.2576 28.7979 26.2914C28.7462 26.4858 28.5869 26.6451 28.3914 26.698C27.4657 26.9464 23.3143 27.1 20 27.1C16.6868 27.1 12.5366 26.9464 11.6086 26.698C11.4142 26.6462 11.255 26.4869 11.2021 26.2914C10.9249 25.2587 10.8 22.1067 10.8 20.2C10.8 18.2933 10.9249 15.1413 11.2021 14.1063C11.2538 13.9131 11.4131 13.7538 11.6086 13.7021C12.5343 13.4537 16.6857 13.3 20 13.3ZM17.7 16.2154V24.1846L24.6 20.2L17.7 16.2154Z" fill="black"></path>
</svg>
