<?xml version="1.0" encoding="UTF-8"?>
<svg xmlns="http://www.w3.org/2000/svg" width="40" height="40" viewBox="0 0 40 40" fill="none">
  <circle cx="20" cy="20" r="20" fill="white"></circle>
  <path d="M20.1573 8C16.7658 8.02313 14.1525 9.17193 12.3869 11.4146C10.8313 13.3933 10.0279 16.1322 10 19.5748C10.027 22.9972 10.8304 25.7346 12.3869 27.7123C14.1515 29.955 16.7663 31.1038 20.1762 31.127C23.1909 31.1067 25.3218 30.3099 27.0845 28.5481C29.4265 26.208 29.353 23.2726 28.5791 21.4685C28.0201 20.1654 26.9631 19.111 25.5184 18.419C25.4846 18.4016 25.4495 18.3864 25.4148 18.3701C25.1604 15.1125 23.2811 13.2401 20.1912 13.2198C18.3176 13.2198 16.7559 14.0251 15.7921 15.4881C15.6842 15.652 15.7271 15.8723 15.89 15.9851L17.4975 17.0881C17.5775 17.1431 17.676 17.1629 17.7705 17.1446C17.8649 17.1263 17.9509 17.0693 18.0039 16.9884C18.586 16.1065 19.515 15.923 20.2176 15.923C21.0715 15.9278 21.7057 16.1643 22.1037 16.627C22.3186 16.8766 22.4832 17.2031 22.5969 17.6002C21.8673 17.5125 21.0912 17.4918 20.2797 17.538C17.2862 17.7106 15.3608 19.484 15.4928 21.9522C15.5593 23.2109 16.1858 24.2952 17.2566 25.0036C18.1413 25.5867 19.2779 25.8757 20.4585 25.8092C22.0208 25.7235 23.2496 25.1225 24.1122 24.0228C24.6645 23.3203 25.0372 22.4571 25.2473 21.3969C25.654 21.7256 25.9526 22.1105 26.1396 22.5471C26.5781 23.5667 26.6011 25.2461 25.221 26.6243C23.9738 27.8705 22.4614 28.4112 20.1705 28.4276C17.6242 28.4083 15.7063 27.6005 14.4688 26.0276C13.2939 24.5337 12.6857 22.3593 12.6636 19.5672C12.6857 16.7694 13.2939 14.5932 14.4688 13.0994C15.7063 11.5265 17.6243 10.7176 20.1649 10.6993C22.7333 10.7186 24.6873 11.5319 25.9739 13.1163C26.6033 13.8912 27.0855 14.8726 27.4064 16.0359C27.4594 16.2267 27.6579 16.3392 27.8488 16.29L29.733 15.7874C29.8265 15.7633 29.9051 15.7009 29.9533 15.618C30.0005 15.5332 30.0122 15.4348 29.9871 15.3413C29.5718 13.8137 28.9124 12.4877 28.0257 11.3977C26.2119 9.16655 23.572 8.02313 20.1573 8ZM21.0835 20.2129C21.6588 20.2129 22.2075 20.2578 22.7193 20.3484C22.4456 22.675 21.3545 23.0558 20.3117 23.1137C19.5966 23.1416 18.9337 22.9629 18.5366 22.6073C18.2947 22.3904 18.1633 22.1206 18.147 21.8054C18.1103 21.1105 18.6897 20.3329 20.4284 20.2317C20.6501 20.2192 20.8685 20.2129 21.0835 20.2129Z" fill="black"></path>
</svg>
