<?xml version="1.0" encoding="UTF-8"?>
<svg xmlns="http://www.w3.org/2000/svg" width="40" height="40" viewBox="0 0 40 40" fill="none">
  <circle cx="20" cy="20" r="20" fill="white"></circle>
  <path d="M20 11V25C20 26.1301 19.1301 27 18 27C16.8699 27 16 26.1301 16 25C16 23.8699 16.8699 23 18 23V19C14.7101 19 12 21.7101 12 25C12 28.2899 14.7101 31 18 31C21.2899 31 24 28.2899 24 25V17.4648C25.2323 18.3427 26.5182 19 28 19V15C27.9053 15 26.5253 14.5619 25.5625 13.7227C24.5997 12.8834 24 11.83 24 11H20Z" fill="black"></path>
</svg>
