<?xml version="1.0" encoding="UTF-8"?>
<svg xmlns="http://www.w3.org/2000/svg" width="40" height="40" viewBox="0 0 40 40" fill="none">
  <circle cx="20" cy="20" r="20" fill="white"></circle>
  <path d="M31 13.2123C30.1535 13.5883 29.2441 13.8413 28.2896 13.9554C29.2645 13.3716 30.0119 12.4472 30.364 11.345C29.4529 11.8855 28.4427 12.2782 27.367 12.4905C26.5063 11.5732 25.2803 11 23.9233 11C21.3174 11 19.205 13.1133 19.205 15.7184C19.205 16.0881 19.2475 16.449 19.3271 16.7931C15.4057 16.5967 11.9293 14.7179 9.60109 11.8625C9.19595 12.5595 8.96331 13.3698 8.96331 14.2358C8.96331 15.8723 9.7957 17.3168 11.0615 18.1625C10.2884 18.1377 9.5604 17.9254 8.92439 17.5724C8.92439 17.5928 8.92439 17.6114 8.92439 17.6317C8.92439 19.9183 10.5502 21.8255 12.7095 22.2581C12.3141 22.366 11.8966 22.4235 11.4658 22.4235C11.1624 22.4235 10.866 22.3934 10.5786 22.3394C11.1792 24.2139 12.9218 25.5788 14.9864 25.6168C13.3721 26.8827 11.3375 27.6372 9.12607 27.6372C8.7457 27.6372 8.36976 27.6151 8 27.5709C10.0885 28.9092 12.568 29.6903 15.2332 29.6903C23.9127 29.6903 28.6576 22.5004 28.6576 16.265C28.6576 16.0607 28.6532 15.8572 28.6444 15.6547C29.567 14.9886 30.3675 14.158 31 13.2123Z" fill="black"></path>
</svg>
