<?xml version="1.0" encoding="UTF-8"?>
<svg xmlns="http://www.w3.org/2000/svg" width="40" height="40" viewBox="0 0 40 40" fill="none">
  <circle cx="20" cy="20" r="20" fill="white"></circle>
  <path d="M15.1111 9C11.7414 9 9 11.7414 9 15.1111V24.8889C9 28.2586 11.7414 31 15.1111 31H24.8889C28.2586 31 31 28.2586 31 24.8889V15.1111C31 11.7414 28.2586 9 24.8889 9H15.1111ZM15.1111 11.4444H24.8889C26.9104 11.4444 28.5556 13.0896 28.5556 15.1111V24.8889C28.5556 26.9104 26.9104 28.5556 24.8889 28.5556H15.1111C13.0896 28.5556 11.4444 26.9104 11.4444 24.8889V15.1111C11.4444 13.0896 13.0896 11.4444 15.1111 11.4444ZM26.1111 12.6667C25.787 12.6667 25.4761 12.7954 25.2469 13.0246C25.0177 13.2539 24.8889 13.5647 24.8889 13.8889C24.8889 14.213 25.0177 14.5239 25.2469 14.7531C25.4761 14.9823 25.787 15.1111 26.1111 15.1111C26.4353 15.1111 26.7461 14.9823 26.9754 14.7531C27.2046 14.5239 27.3333 14.213 27.3333 13.8889C27.3333 13.5647 27.2046 13.2539 26.9754 13.0246C26.7461 12.7954 26.4353 12.6667 26.1111 12.6667ZM20 13.8889C16.6303 13.8889 13.8889 16.6303 13.8889 20C13.8889 23.3697 16.6303 26.1111 20 26.1111C23.3697 26.1111 26.1111 23.3697 26.1111 20C26.1111 16.6303 23.3697 13.8889 20 13.8889ZM20 16.3333C22.0216 16.3333 23.6667 17.9784 23.6667 20C23.6667 22.0216 22.0216 23.6667 20 23.6667C17.9784 23.6667 16.3333 22.0216 16.3333 20C16.3333 17.9784 17.9784 16.3333 20 16.3333Z" fill="black"></path>
</svg>
