<?xml version="1.0" encoding="UTF-8"?>
<svg xmlns="http://www.w3.org/2000/svg" width="24" height="24" viewBox="0 0 24 24" fill="none">
  <g clip-path="url(#clip0_428_1887)">
    <path d="M24 11.3848V12.6113C23.9917 12.6536 23.98 12.6956 23.9757 12.7382C23.9368 13.1179 23.9173 13.5005 23.8575 13.877C23.6402 15.2461 23.2059 16.5432 22.534 17.759C21.2902 20.0077 19.5138 21.7027 17.2015 22.8183C15.0587 23.8514 12.798 24.1927 10.4364 23.8946C9.05096 23.7238 7.70775 23.3038 6.47177 22.6548C4.11669 21.4177 2.34391 19.6015 1.18566 17.2063C0.122433 15.0082 -0.209482 12.687 0.124851 10.2707C0.262938 9.28601 0.526673 8.32297 0.909492 7.40531C2.60903 3.28782 6.45345 0.453993 10.8893 0.0488313C11.0559 0.0338594 11.222 0.0163539 11.3886 0H12.6151C12.6572 0.00829211 12.6994 0.0188876 12.7417 0.0245308C13.3001 0.0967412 13.8645 0.140275 14.4154 0.245538C15.7962 0.508928 17.0837 1.02592 18.2793 1.7653C20.2059 2.95625 21.6843 4.56112 22.7146 6.58002C23.3987 7.92299 23.8185 9.3847 23.9512 10.886C23.9664 11.0521 23.9834 11.2185 24 11.3849V11.3848ZM12.8958 18.788V5.18591C13.2472 5.26595 13.589 5.32457 13.9189 5.4205C14.2487 5.51644 14.5761 5.65061 14.9121 5.77061L15.6352 4.22126C13.207 3.14628 10.7962 3.14628 8.36835 4.22126C8.61712 4.75449 8.85816 5.26963 9.10025 5.78766C9.75003 5.48845 10.4116 5.28933 11.1127 5.20744V18.788C10.4479 18.7111 9.82201 18.5163 9.21139 18.2483C9.20367 18.2835 9.19803 18.3016 9.19641 18.3174C9.15138 18.848 9.11084 19.3788 9.05856 19.9085C9.04704 20.0259 9.07007 20.0766 9.18709 20.1157C10.0168 20.3922 10.8818 20.5482 11.7558 20.5786C12.3547 20.6017 12.9544 20.5544 13.5422 20.4375C13.9797 20.3501 14.4085 20.2178 14.8409 20.105C14.921 20.0839 14.9587 20.0517 14.9476 19.9475C14.906 19.5505 14.8815 19.1515 14.8489 18.7537C14.8353 18.5889 14.8174 18.4247 14.7998 18.2429C14.1784 18.519 13.5568 18.7035 12.8958 18.7878V18.788ZM15.0429 11.5843L15.0672 11.5928C15.3042 14.2911 15.5421 16.9898 15.7807 19.7035C15.8318 19.6832 15.8816 19.6597 15.9297 19.6332C16.3889 19.3398 16.8461 19.0432 17.3068 18.7517C17.4089 18.6872 17.427 18.6055 17.4167 18.4938C17.3583 17.8758 17.3068 17.2569 17.2506 16.6387C17.176 15.8172 17.0975 14.996 17.0242 14.1745C16.9575 13.428 16.8962 12.6814 16.8314 11.9349C16.7869 11.4226 16.7413 10.9105 16.6945 10.3983C16.6449 9.85517 16.5879 9.31238 16.5463 8.76867C16.5344 8.614 16.5037 8.46048 16.5804 8.29994C16.9804 7.45978 17.3677 6.61295 17.764 5.77073C17.8032 5.68723 17.7848 5.64381 17.7198 5.59337C17.4422 5.38008 17.1697 5.1585 16.8892 4.94843C16.7308 4.82981 16.5604 4.72708 16.3925 4.6149C16.3736 4.64611 16.3631 4.66051 16.3557 4.67617C15.4791 6.55111 14.6031 8.42639 13.7278 10.3019C13.6943 10.3737 13.6761 10.4515 13.6745 10.5306C13.6713 11.7969 13.6707 13.0632 13.6727 14.3294C13.6727 14.3706 13.6771 14.4116 13.6799 14.4527L13.7044 14.4556C14.1507 13.4982 14.5969 12.541 15.0429 11.584V11.5843ZM7.61861 4.61502C7.13272 4.91146 6.67458 5.25121 6.24972 5.63011C6.22542 5.65176 6.22577 5.72743 6.24281 5.76497C6.63692 6.61814 7.03517 7.46923 7.42985 8.32216C7.45922 8.38124 7.47373 8.44655 7.472 8.51254C7.43653 8.98576 7.39553 9.45853 7.35338 9.93129C7.29476 10.5896 7.23211 11.2473 7.17337 11.9044C7.12488 12.4477 7.08112 12.9917 7.03264 13.535C6.97424 14.1888 6.91182 14.8415 6.85378 15.496C6.81243 15.9599 6.77696 16.4246 6.73619 16.8886C6.68713 17.4453 6.633 18.0018 6.5882 18.5588C6.5882 18.6175 6.61342 18.6734 6.65753 18.7121C6.86875 18.8739 7.08147 19.0354 7.30547 19.1789C7.59558 19.3656 7.89686 19.5336 8.22082 19.7258C8.46083 16.9875 8.69946 14.2866 8.93694 11.5871L8.96089 11.583C9.40648 12.5397 9.85218 13.4962 10.2978 14.4527L10.3263 14.447V14.3073C10.3263 13.0542 10.3263 11.801 10.3237 10.5479C10.3224 10.4514 10.301 10.3563 10.2608 10.2685C9.6595 8.97471 9.05579 7.68171 8.44966 6.38964C8.17556 5.80355 7.901 5.21781 7.61884 4.61502H7.61861ZM5.57921 6.31559C4.1456 7.89213 3.12383 10.3477 3.49686 13.146C3.74055 14.9751 4.50999 16.5588 5.80103 17.9321C5.82775 17.6605 5.85113 17.429 5.87197 17.197C5.91573 16.7021 5.9618 16.2076 5.99866 15.7122C6.01144 15.541 6.04772 15.3772 5.95409 15.1986C5.26596 13.8826 5.01846 12.4868 5.23048 11.0126C5.37352 9.99463 5.7484 9.02296 6.32631 8.17279C6.37456 8.10139 6.38309 8.04588 6.34554 7.96699C6.18742 7.63507 6.03597 7.30039 5.88165 6.96583C5.78352 6.75357 5.68482 6.54213 5.57933 6.31547L5.57921 6.31559ZM18.1967 17.9119C21.1701 14.9654 21.4831 9.68495 18.427 6.32227C18.4031 6.36845 18.3793 6.40922 18.3595 6.45183C18.1294 6.95097 17.9031 7.45172 17.6663 7.9481C17.6218 8.04196 17.6301 8.10403 17.6864 8.18811C18.5967 9.554 18.9646 11.061 18.8134 12.689C18.7281 13.607 18.446 14.4733 18.0136 15.2891C17.9869 15.3434 17.9751 15.4037 17.9797 15.4641C18.0168 15.9056 18.0598 16.3468 18.0999 16.7882C18.1336 17.1537 18.1634 17.519 18.1967 17.912V17.9119Z" fill="black"></path>
    <path d="M12.0001 22.2626C17.6684 22.2626 22.2635 17.6675 22.2635 11.9992C22.2635 6.33082 17.6684 1.73572 12.0001 1.73572C6.33173 1.73572 1.73663 6.33082 1.73663 11.9992C1.73663 17.6675 6.33173 22.2626 12.0001 22.2626Z" fill="#00259A"></path>
    <path d="M12.8972 18.7877C13.5582 18.7034 14.1799 18.5186 14.8025 18.2427C14.8202 18.4243 14.838 18.5894 14.8516 18.7532C14.8841 19.1513 14.9086 19.5502 14.9503 19.9472C14.961 20.0498 14.9236 20.0837 14.8437 20.1045C14.4112 20.2176 13.9824 20.3496 13.5449 20.4372C12.957 20.554 12.3574 20.6012 11.7585 20.578C10.8846 20.5476 10.0195 20.3917 9.18983 20.1153C9.07247 20.0762 9.0499 20.0252 9.0613 19.9081C9.11462 19.3784 9.15412 18.8472 9.19916 18.317C9.20077 18.2997 9.20641 18.2829 9.21378 18.2476C9.82463 18.5159 10.4507 18.7107 11.1153 18.7873V5.20739C10.4141 5.28893 9.75265 5.48817 9.10253 5.78761C8.86068 5.26958 8.61963 4.75386 8.37064 4.22098C10.7983 3.14623 13.2085 3.14623 15.6367 4.22098C15.3893 4.75052 15.1501 5.26371 14.9136 5.7701C14.5776 5.6501 14.2542 5.51708 13.9204 5.42034C13.5865 5.3236 13.2487 5.26463 12.8971 5.1854V18.7878L12.8972 18.7877Z" fill="white"></path>
    <path d="M15.0443 11.5837C14.5985 12.5408 14.1527 13.498 13.7066 14.4549L13.6821 14.4521C13.6797 14.4109 13.6752 14.3699 13.6748 14.3288C13.6748 13.0627 13.6755 11.7965 13.677 10.5302C13.6784 10.4511 13.6966 10.3731 13.7303 10.3015C14.6044 8.42531 15.4803 6.55014 16.3583 4.67578C16.3655 4.66 16.3761 4.64595 16.3948 4.61474C16.563 4.72668 16.7334 4.82964 16.8915 4.94804C17.1723 5.15845 17.4448 5.37923 17.7223 5.59332C17.7874 5.64342 17.8058 5.68718 17.7665 5.77034C17.3704 6.61291 16.9835 7.45939 16.5827 8.29954C16.5062 8.45951 16.5369 8.61384 16.5489 8.76851C16.5912 9.3121 16.6476 9.85477 16.6969 10.3981C16.7436 10.9101 16.7892 11.4222 16.8337 11.9347C16.8987 12.6812 16.96 13.4279 17.0267 14.1744C17.1001 14.9961 17.1784 15.817 17.2531 16.6385C17.3091 17.2571 17.3598 17.8757 17.419 18.494C17.4297 18.6055 17.4112 18.6872 17.3094 18.7519C16.8488 19.043 16.3914 19.3398 15.932 19.6334C15.8839 19.6597 15.8341 19.6832 15.7832 19.7037C15.5444 16.9894 15.3062 14.2913 15.0689 11.5924L15.0444 11.5839L15.0443 11.5837ZM7.62022 4.61474C7.90227 5.21753 8.17694 5.80339 8.45081 6.38913C9.05521 7.68224 9.65893 8.9757 10.2623 10.2694C10.3025 10.3571 10.3239 10.4523 10.3249 10.5488C10.329 11.8019 10.3276 13.0551 10.3276 14.3082V14.4481L10.299 14.4534C9.85356 13.497 9.40797 12.5405 8.96216 11.584L8.93843 11.5877C8.70084 14.2881 8.46337 16.9882 8.22232 19.7266C7.89835 19.5342 7.59707 19.3654 7.30696 19.1795C7.08296 19.036 6.87024 18.8747 6.65903 18.7126C6.61503 18.6739 6.58969 18.6181 6.58946 18.5595C6.6345 18.0022 6.68862 17.4461 6.73769 16.8894C6.77846 16.4251 6.81393 15.9608 6.85527 15.4965C6.91343 14.8427 6.97574 14.19 7.03413 13.5358C7.08261 12.9924 7.12638 12.4485 7.17486 11.9049C7.23348 11.2468 7.29591 10.5891 7.35487 9.93182C7.39702 9.45906 7.43802 8.98606 7.4735 8.51283C7.47522 8.44696 7.46083 8.38166 7.43134 8.32269C7.03678 7.46953 6.63818 6.61843 6.24431 5.76527C6.22703 5.72795 6.22669 5.65194 6.25099 5.63041C6.67584 5.25127 7.1341 4.9113 7.6201 4.61462L7.62022 4.61474Z" fill="white"></path>
    <path d="M5.58082 6.3153C5.68608 6.54195 5.78501 6.7534 5.8829 6.96531C6.03723 7.29907 6.18868 7.63432 6.34715 7.96647C6.38446 8.04513 6.37617 8.09983 6.32791 8.17227C5.75 9.02233 5.37501 9.99366 5.23186 11.0115C5.02018 12.4862 5.26733 13.882 5.95569 15.1975C6.04932 15.3764 6.0127 15.5402 6.00026 15.7111C5.96318 16.2064 5.91734 16.701 5.87335 17.1959C5.85285 17.4279 5.82912 17.6596 5.80275 17.931C4.51229 16.5574 3.74227 14.9744 3.49858 13.1445C3.12555 10.3471 4.14698 7.89207 5.58093 6.31519L5.58082 6.3153ZM18.1983 17.9113C18.1647 17.5186 18.1351 17.1531 18.1024 16.7881C18.0629 16.3466 18.0192 15.9056 17.9824 15.4638C17.9776 15.4036 17.9894 15.3432 18.0162 15.2892C18.4489 14.4731 18.7311 13.6071 18.8161 12.6891C18.9673 11.0608 18.5993 9.55383 17.689 8.18793C17.6328 8.10363 17.6245 8.04179 17.669 7.94792C17.9044 7.45143 18.1308 6.9508 18.3609 6.45189C18.3804 6.40928 18.4041 6.36839 18.4284 6.32233C21.4845 9.68443 21.1717 14.9652 18.1983 17.9115V17.9113Z" fill="white"></path>
  </g>
  <defs>
    <clipPath id="clip0_428_1887">
      <rect width="24" height="23.9982" fill="white"></rect>
    </clipPath>
  </defs>
</svg>
