<?xml version="1.0" encoding="UTF-8"?>
<svg xmlns="http://www.w3.org/2000/svg" width="30" height="30" viewBox="0 0 30 30" fill="none">
  <g clip-path="url(#clip0_404_562)">
    <path d="M15 20.485C18.5081 20.485 21.352 17.7765 21.352 14.4354C21.352 11.0944 18.5081 8.38593 15 8.38593C11.4919 8.38593 8.64801 11.0944 8.64801 14.4354C8.64801 17.7765 11.4919 20.485 15 20.485Z" fill="white"></path>
    <path fill-rule="evenodd" clip-rule="evenodd" d="M6.22384 21.938L6.11282 19.916L6.54406 19.8944L6.63622 21.5725L7.70856 21.5191L7.72742 21.8628L6.22384 21.9381V21.938Z" fill="black"></path>
    <path fill-rule="evenodd" clip-rule="evenodd" d="M8.62892 21.5022L9.02632 21.6143C8.95572 21.7501 8.8598 21.8486 8.73746 21.9094C8.61567 21.9708 8.47016 21.991 8.30105 21.9713C8.03364 21.9399 7.84663 21.8337 7.73949 21.6517C7.65532 21.5064 7.62611 21.3314 7.6523 21.128C7.68366 20.8846 7.77485 20.7018 7.92596 20.5799C8.07664 20.4576 8.25405 20.4085 8.45776 20.4325C8.68659 20.4592 8.85775 20.5526 8.97167 20.7126C9.08506 20.8725 9.11998 21.1005 9.07622 21.3976L8.05659 21.2783C8.04474 21.3935 8.06565 21.4871 8.12029 21.5581C8.17494 21.6296 8.24931 21.671 8.34265 21.6819C8.40635 21.6895 8.46186 21.6792 8.50971 21.6513C8.55757 21.6225 8.59767 21.573 8.62882 21.5021L8.62892 21.5022ZM8.70265 21.1123C8.71429 20.9992 8.6951 20.9102 8.64477 20.845C8.59443 20.7798 8.5275 20.742 8.4444 20.7324C8.36043 20.7207 8.27539 20.7453 8.21245 20.7995C8.1467 20.8541 8.10736 20.9348 8.09464 21.0411L8.70265 21.1124V21.1123ZM9.76334 22.1871L9.53226 20.6082L9.9497 20.7076L10.0415 21.5072L10.0599 21.7713C10.0979 21.714 10.1226 21.6764 10.1331 21.6579C10.1572 21.6205 10.182 21.5832 10.2072 21.5466L10.6846 20.8826L11.0939 20.9798L10.1214 22.2722L9.76334 22.1873V22.1871ZM11.9388 22.2802L12.3131 22.4505C12.2209 22.5741 12.1101 22.657 11.9794 22.6988C11.849 22.7411 11.7019 22.7394 11.5382 22.6947C11.2793 22.6237 11.112 22.4911 11.036 22.2953C10.9768 22.1389 10.9767 21.9618 11.0357 21.7651C11.1064 21.5294 11.2265 21.3626 11.3959 21.2644C11.5648 21.1662 11.7481 21.1443 11.9452 21.1981C12.1669 21.2587 12.3207 21.3765 12.4069 21.5514C12.4926 21.7262 12.4897 21.9568 12.398 22.2436L11.4104 21.9732C11.3798 22.0856 11.3853 22.1811 11.4276 22.2592C11.4699 22.3381 11.5365 22.39 11.6269 22.4147C11.6886 22.4317 11.7452 22.4298 11.7969 22.4093C11.8487 22.3886 11.8963 22.3457 11.9387 22.2802H11.9388ZM12.0755 21.9062C12.1055 21.7963 12.1011 21.7054 12.062 21.6337C12.0263 21.5643 11.9609 21.5129 11.8827 21.4924C11.8017 21.4682 11.7137 21.4799 11.6427 21.5241C11.5688 21.5681 11.5165 21.642 11.4867 21.7448L12.0755 21.9062ZM13.1561 23.0471L12.7538 22.9722L13.0494 21.5211L13.423 21.5903L13.3811 21.7965C13.4649 21.7109 13.5357 21.6574 13.5929 21.6358C13.6514 21.6145 13.7151 21.6095 13.7764 21.6216C13.8683 21.6387 13.9514 21.6794 14.0265 21.7435L13.8337 22.0551C13.7747 22.001 13.7159 21.9682 13.6577 21.9576C13.6009 21.947 13.5506 21.9527 13.5055 21.9753C13.4599 21.9974 13.4187 22.0452 13.3803 22.1186C13.3422 22.192 13.2979 22.3521 13.2475 22.5988L13.1561 23.0471ZM14.1437 23.2018L14.1812 21.1606L14.5915 21.1674L14.5717 22.2505L15.0607 21.7381L15.5658 21.7466L15.0264 22.2775L15.5763 23.2256L15.1346 23.2181L14.7569 22.5478L14.5629 22.7352L14.5541 23.2085L14.1438 23.2018H14.1437ZM17.1403 22.962L17.0961 22.7446C17.0562 22.8324 16.9938 22.9094 16.9148 22.9685C16.8334 23.0296 16.7429 23.0698 16.6426 23.0883C16.5403 23.1073 16.4446 23.1026 16.3548 23.0753C16.2686 23.0499 16.1936 22.998 16.1416 22.9277C16.0895 22.8568 16.0497 22.753 16.0218 22.6161L15.8348 21.698L16.2369 21.6233L16.3729 22.29C16.4144 22.4944 16.4474 22.6179 16.4721 22.6613C16.4958 22.7044 16.5303 22.7357 16.5747 22.7557C16.6194 22.7755 16.6718 22.7792 16.7323 22.768C16.7984 22.7567 16.8592 22.726 16.9059 22.6801C16.9529 22.6338 16.981 22.5827 16.9903 22.5257C16.9993 22.4682 16.9829 22.3359 16.9407 22.1281L16.8159 21.5159L17.2184 21.4412L17.514 22.8927L17.1404 22.9619L17.1403 22.962ZM17.7854 22.3756L18.1635 22.2101C18.2022 22.2785 18.2531 22.3249 18.3162 22.3486C18.3787 22.3726 18.4563 22.372 18.5491 22.3468C18.6512 22.3187 18.7224 22.28 18.7628 22.2301C18.7896 22.1977 18.7977 22.1549 18.7849 22.1157C18.7779 22.0891 18.76 22.0662 18.7353 22.0522C18.7102 22.0397 18.6614 22.0352 18.5886 22.0388C18.251 22.0589 18.0309 22.0528 17.929 22.0209C17.7881 21.9764 17.6973 21.8856 17.6563 21.7488C17.6191 21.6261 17.6389 21.5085 17.7156 21.397C17.7923 21.2849 17.9379 21.1997 18.1516 21.1411C18.3558 21.0851 18.5172 21.0758 18.6351 21.1116C18.7533 21.1479 18.8494 21.2232 18.924 21.337L18.5723 21.5039C18.5398 21.4529 18.4969 21.4188 18.4434 21.4017C18.3898 21.3842 18.3224 21.3869 18.2402 21.4096C18.1362 21.4379 18.066 21.472 18.0294 21.5121C18.0056 21.54 17.9984 21.5696 18.0078 21.6008C18.0161 21.6276 18.0356 21.6466 18.0676 21.6581C18.1105 21.6734 18.2437 21.6752 18.4676 21.6633C18.691 21.6513 18.8542 21.6669 18.9575 21.7105C19.0598 21.7549 19.129 21.837 19.165 21.9562C19.204 22.0866 19.1808 22.2144 19.0945 22.3395C19.0088 22.4644 18.8541 22.5569 18.6307 22.618C18.4278 22.6736 18.2555 22.6784 18.1133 22.632C17.9717 22.5866 17.8625 22.5005 17.7856 22.3756H17.7854ZM20.4267 21.6332L20.8404 21.6089C20.8226 21.7595 20.7677 21.8833 20.6746 21.9805C20.5823 22.0779 20.4525 22.1446 20.2867 22.181C20.0243 22.239 19.8105 22.2003 19.6445 22.064C19.5133 21.9548 19.4233 21.8001 19.3749 21.6007C19.317 21.3617 19.3372 21.1601 19.4356 20.9961C19.5334 20.8321 19.6828 20.728 19.8825 20.6837C20.1071 20.6344 20.3013 20.6663 20.4657 20.7792C20.6295 20.8923 20.7442 21.0954 20.8094 21.3887L19.8085 21.6094C19.8388 21.7218 19.8922 21.8026 19.9687 21.8515C20.0425 21.9003 20.1349 21.9163 20.222 21.8951C20.2845 21.8813 20.3331 21.8536 20.368 21.8119C20.4029 21.7697 20.4226 21.7101 20.4266 21.6331L20.4267 21.6332ZM20.3562 21.243C20.3264 21.133 20.2765 21.0557 20.206 21.0108C20.1394 20.9666 20.056 20.952 19.9772 20.9704C19.8941 20.9869 19.823 21.0378 19.7833 21.1093C19.7413 21.1819 19.7331 21.2706 19.7593 21.3746L20.3562 21.2431V21.243Z" fill="black"></path>
    <path fill-rule="evenodd" clip-rule="evenodd" d="M15.0059 8.2483C13.2935 8.2483 11.8854 9.01725 11.8854 9.00196C11.8854 8.98666 10.7527 6.19733 10.6849 6.00363C10.6849 6.00363 12.7409 5.0653 15.0152 5.04754L14.9986 5.0459C17.2731 5.06355 19.3273 6.00353 19.3273 6.00353C19.2594 6.19723 18.1265 8.98656 18.1265 9.00186C18.1265 9.01715 16.7182 8.24819 15.006 8.24819L15.0059 8.2483ZM15.0036 20.7769C13.7198 20.7354 13.0097 20.4845 11.8572 20.077C10.2609 19.519 6.78002 18.8989 4.95546 19.435C4.7705 19.4893 4.75628 19.6115 4.8203 19.7881C4.90685 20.0263 5.49621 22.0151 5.62425 22.4227C5.68828 22.6398 5.74195 22.8021 6.0583 22.7348C9.12474 22.0831 10.4483 23.9368 15.0035 23.9368C19.5586 23.9368 20.882 22.0831 23.949 22.7348C24.2653 22.8021 24.319 22.6398 24.383 22.4227C24.511 22.0151 25.1005 20.0263 25.1871 19.7881C25.251 19.6115 25.2366 19.4894 25.0516 19.435C23.2271 18.8991 19.7466 19.519 18.1502 20.077C16.9975 20.4845 16.2873 20.7354 15.0036 20.7769Z" fill="#FFF22D"></path>
    <path d="M15.0033 23.9827C12.7993 23.9827 11.363 23.5542 10.0956 23.1762C8.78003 22.7837 7.64378 22.4448 6.06863 22.7795C6.01592 22.7907 5.96947 22.796 5.9284 22.796C5.68395 22.796 5.62995 22.6129 5.57757 22.435C5.5296 22.2823 5.41805 21.9114 5.28882 21.4821C5.08349 20.7997 4.82804 19.9505 4.77447 19.8031C4.72921 19.6781 4.72543 19.5874 4.76273 19.5173C4.7942 19.4583 4.85251 19.417 4.941 19.3909C5.98229 19.085 7.44998 19.1727 8.49785 19.3C9.70524 19.4468 10.9989 19.7278 11.8736 20.0336C13.03 20.4425 13.7281 20.6894 15.0034 20.7308C16.2791 20.6893 16.9771 20.4425 18.1333 20.0337C19.0082 19.7279 20.3018 19.4468 21.5091 19.3001C22.5569 19.1727 24.0245 19.0851 25.0657 19.3909C25.1543 19.4169 25.2126 19.4583 25.2441 19.5173C25.2813 19.5873 25.2777 19.678 25.2325 19.803C25.179 19.9506 24.9233 20.8001 24.7179 21.4828C24.5887 21.9118 24.4773 22.2823 24.4291 22.4358C24.3768 22.6129 24.3228 22.7959 24.0786 22.796C24.0375 22.796 23.9911 22.7908 23.9384 22.7795C22.363 22.4448 21.2267 22.7837 19.911 23.1762C18.6437 23.5542 17.2074 23.9827 15.0032 23.9827H15.0033ZM7.3311 22.5497C7.61209 22.5497 7.89383 22.5702 8.18269 22.6111C8.83295 22.7031 9.46036 22.8902 10.1245 23.0884C11.3852 23.4645 12.8141 23.8907 15.0033 23.8907C17.1925 23.8907 18.6215 23.4645 19.8823 23.0884C20.5464 22.8903 21.1738 22.7032 21.8241 22.6111C22.5471 22.5088 23.2256 22.5338 23.9595 22.6897C24.2247 22.7462 24.2689 22.6388 24.3364 22.4101C24.3847 22.2564 24.4961 21.8862 24.6252 21.4574C24.8416 20.738 25.0869 19.9228 25.1414 19.7729C25.1775 19.6732 25.1828 19.6052 25.1581 19.5589C25.1392 19.5232 25.0996 19.4971 25.0374 19.4788C23.2755 18.9613 19.8566 19.5294 18.1669 20.1201C17.0012 20.5321 16.2976 20.7809 15.0053 20.8229C15.0042 20.8229 15.0031 20.8229 15.002 20.8229C13.7101 20.7811 13.0063 20.5323 11.8404 20.1201C10.9721 19.8165 9.68659 19.5373 8.48589 19.3913C7.4475 19.2651 5.99458 19.1778 4.96978 19.4789C4.90759 19.4972 4.86814 19.5234 4.84917 19.559C4.82449 19.6053 4.82987 19.6733 4.86598 19.773C4.92041 19.9228 5.16562 20.7378 5.38194 21.4568C5.51107 21.8859 5.62251 22.2564 5.67059 22.4095C5.73827 22.6389 5.78236 22.7464 6.04783 22.6898C6.48834 22.5962 6.90912 22.5498 7.33131 22.5498L7.3311 22.5497ZM11.8848 9.04834C11.8769 9.04834 11.8686 9.04639 11.8598 9.04126C11.8492 9.0349 11.8415 9.02484 11.8385 9.01334C11.8254 8.97505 11.607 8.43347 11.3759 7.86016C11.0485 7.0484 10.6776 6.12834 10.639 6.01819C10.6313 5.99623 10.642 5.97221 10.6639 5.96215C10.669 5.95979 11.1902 5.72338 11.9826 5.48831C12.7079 5.27315 13.815 5.01519 14.9847 5.00185C14.9892 5.00062 14.9937 5 14.9988 5C16.1796 5.00924 17.299 5.27018 18.03 5.48759C18.8221 5.72307 19.3428 5.95989 19.348 5.96225C19.37 5.97231 19.3806 5.99633 19.3729 6.0183C19.3343 6.12813 18.9646 7.04501 18.6383 7.8539C18.4059 8.43018 18.1863 8.97474 18.173 9.01344C18.17 9.02484 18.1624 9.035 18.1517 9.04136C18.1283 9.05522 18.1075 9.04588 18.0892 9.03767C18.0788 9.03305 18.064 9.02607 18.0446 9.01704C17.0332 8.54433 15.9824 8.29437 15.0058 8.29437C14.029 8.29437 12.9781 8.54423 11.9669 9.01704C11.9476 9.02607 11.9326 9.03305 11.9222 9.03767C11.9107 9.0428 11.8982 9.04845 11.8847 9.04845L11.8848 9.04834ZM15.0058 8.2025C15.9972 8.2025 17.0626 8.45564 18.0871 8.9345C18.091 8.93635 18.0949 8.9382 18.0987 8.93995C18.1367 8.84161 18.2442 8.57482 18.5481 7.82095C18.8344 7.11112 19.1853 6.24084 19.2668 6.02784C19.1323 5.96923 18.6618 5.77173 17.9994 5.57495C17.2809 5.36143 16.1842 5.10542 15.0265 5.09239C15.023 5.09321 15.0192 5.09372 15.0154 5.09372C13.8471 5.10286 12.7378 5.36092 12.0131 5.57577C11.3503 5.77224 10.8795 5.96943 10.7449 6.02784C10.8264 6.24125 11.1786 7.11481 11.466 7.82731C11.768 8.57615 11.8749 8.84181 11.9129 8.93984C11.9166 8.9381 11.9205 8.93625 11.9244 8.9344C12.9488 8.45554 14.0143 8.2024 15.0059 8.2024L15.0058 8.2025Z" fill="black"></path>
    <path fill-rule="evenodd" clip-rule="evenodd" d="M5.31113 11.2729C5.31113 11.3343 5.26964 11.662 5.15388 11.8218C5.0379 11.9817 4.54156 12.8736 4.36824 13.1052C3.97818 13.6263 3.76444 14.0148 3.85972 14.478C3.85972 14.478 2.89193 14.6046 2.52892 13.6573C2.23316 12.8859 2.86132 12.0155 3.17627 11.57C3.82157 10.6573 3.47644 9.45764 3.45952 9.44697C3.45952 9.44697 3.73814 9.3438 3.76455 8.94049C3.77813 8.73478 3.70494 8.50617 3.48981 8.29235C3.27834 8.08243 2.97094 8.03429 2.66225 8.04794C2.40465 8.05923 2.20794 8.19709 2.05262 8.2828C1.89742 8.36841 1.90324 8.45095 1.96004 8.47969C2.01695 8.50833 2.13454 8.67206 2.21624 8.77152C2.29805 8.8714 2.30365 8.9487 2.34612 9.12854C2.4012 9.36177 2.73403 9.4869 2.98678 9.47448C2.98678 9.47448 3.37847 10.476 2.72045 11.4276C2.4677 11.7928 1.74857 12.6525 2.01264 13.6624C2.4151 15.202 4.09221 15.0007 4.09221 15.0007C4.22597 15.1318 4.35671 15.2655 4.48443 15.4019C4.47172 15.4882 4.78935 16.0982 3.99714 16.664C3.73868 16.8487 3.66873 17.0939 3.96858 17.3024C6.01765 18.7285 5.49415 19.1791 5.84692 19.213C5.93962 19.2218 6.14096 19.1904 6.34014 19.0725C6.63902 19.2853 7.05906 19.2368 7.19389 19.1043C7.83423 19.3987 8.01466 18.9504 7.91399 18.7639C7.91399 18.7639 8.59324 18.5337 8.01272 17.913C7.83283 17.7206 7.4793 17.6623 7.2992 17.6974C7.09452 17.7369 5.93929 16.9327 6.08847 16.7194C6.20013 16.5594 6.8326 16.3118 7.04386 16.1608C7.22612 16.0304 7.6524 15.6583 7.65801 15.2859C7.66448 14.8758 7.51207 14.351 6.611 14.304C6.65842 13.9874 6.7093 13.3741 7.44611 12.8664C7.85374 12.5854 8.21072 11.9958 8.22366 11.8974C8.68863 11.8974 9.47481 10.371 9.64133 10.0929C9.69964 9.99574 10.0594 9.3516 10.0594 9.3516C10.3192 9.35335 10.7094 9.16324 10.7094 9.16324C10.7094 9.16324 11.3289 9.55311 11.4019 8.96389C11.8768 9.13871 11.7629 8.51408 11.5347 8.3754C11.5347 8.3754 11.5725 7.97721 11.2975 7.8684C11.0493 7.77037 10.9416 7.83217 10.7099 7.90597C10.4779 7.97978 10.0242 8.25201 9.8182 8.39952C9.95088 7.8759 10.3331 7.40042 10.3331 7.40042C10.3331 7.40042 10.5386 7.56055 10.7469 7.41417C10.8099 7.36983 10.9474 7.28996 11.0795 7.26184C11.1417 7.2487 11.4684 6.89055 11.3005 6.77548C11.0736 6.61945 10.9376 6.59522 10.9376 6.59522C10.9218 6.45849 10.834 6.3115 10.8803 6.19345C10.9268 6.07561 11.165 5.92183 11.1629 5.7928C11.1591 5.53135 10.7949 5.55065 10.5766 5.68646C10.3108 5.39678 10.0546 5.65925 10.0546 5.65925C9.62764 5.55968 9.41736 6.05682 9.3819 6.21747C9.16019 6.153 8.84761 6.06924 8.72086 6.06924C8.51499 6.06924 8.39891 5.99543 8.39891 5.99543L8.10283 5.79876L7.60056 5.74959C7.60056 5.74959 7.6219 5.59582 7.5748 5.51606C7.5084 5.40406 7.39448 5.43003 7.26568 5.36855C7.13709 5.30716 6.99536 5.22104 7.04688 5.1228C7.09818 5.02456 6.93899 5.05905 6.79736 5.09591C6.65562 5.13265 6.62178 5.15965 6.57037 5.22104C6.51874 5.28242 6.63062 5.47109 6.63062 5.47109C6.63062 5.47109 6.44146 5.46668 6.37722 5.46668C6.31298 5.46668 6.17103 5.51595 6.08103 5.52817C5.99071 5.54059 5.84423 5.48608 5.84423 5.43671C5.84423 5.38733 5.85124 5.29802 5.85598 5.28909C5.88788 5.23028 5.68169 5.29464 5.54017 5.4053C5.39833 5.51595 5.35974 5.6881 5.41126 5.74948C5.46289 5.81097 5.54017 5.93384 5.54017 5.93384C5.54017 5.93384 5.5142 5.9707 5.43702 6.0445C5.35974 6.11831 5.35974 6.21654 5.35974 6.21654C5.35974 6.21654 5.16498 6.21028 5.11734 6.14202C5.08878 6.10106 5.12046 6.02274 5.08166 5.94873C5.05795 5.90315 4.81953 6.10794 4.76004 6.24447C4.7249 6.32464 4.76758 6.4625 4.80617 6.54852C4.84486 6.63454 4.99931 6.67139 4.99931 6.67139C4.99931 6.67139 4.96073 6.75741 4.93497 6.8925C4.90921 7.02759 4.89627 7.12603 4.92193 7.22437C4.94779 7.32261 4.87903 7.37024 4.7416 7.37178C4.63555 7.37311 4.50815 7.20559 4.47376 7.19963C4.42871 7.19163 4.33073 7.38656 4.33073 7.47258C4.33073 7.5586 4.38527 7.72644 4.49672 7.80199C4.56721 7.84962 4.73428 7.79162 4.77178 7.82519C4.80671 7.8566 4.78202 8.0465 4.74937 8.18303C4.72673 8.27798 4.7803 8.41656 4.71584 8.47805C4.65139 8.53943 4.59998 8.57639 4.50976 8.55185C4.41944 8.52722 4.36037 8.45238 4.31899 8.45064C4.28924 8.44941 4.22155 8.61293 4.24731 8.72359C4.27318 8.83424 4.30885 8.92622 4.46342 8.96307C4.61776 8.99992 4.7208 8.93556 4.75368 8.98206C4.77663 9.0145 4.79754 9.26281 4.89617 9.39995C4.97118 9.50425 4.91061 9.58596 4.80735 9.6107C4.70442 9.63523 4.57627 9.56892 4.52259 9.572C4.49543 9.57364 4.49122 9.84782 4.55568 9.92163C4.62013 9.99543 4.68383 10.1117 4.84745 10.1117C5.01106 10.1117 5.10322 9.97398 5.12133 10.1118C5.12758 10.1595 5.16379 10.5575 5.10106 10.7363C5.06323 10.8449 4.93249 10.9083 4.78332 10.8858C4.64859 10.8657 5.02529 11.2974 5.31135 11.2726L5.31113 11.2729Z" fill="#CF4037"></path>
    <path d="M6.81689 19.2641C6.64239 19.2641 6.47403 19.216 6.33801 19.1276C6.14907 19.232 5.95096 19.2692 5.84231 19.2589C5.69832 19.2452 5.6662 19.1659 5.61759 19.0461C5.51875 18.8024 5.3131 18.2952 3.94026 17.3398C3.79745 17.2405 3.72459 17.128 3.72372 17.0054C3.72286 16.8731 3.80736 16.7424 3.96828 16.6275C4.6097 16.1693 4.49826 15.6936 4.45061 15.4906C4.4435 15.4603 4.43833 15.4379 4.4365 15.42C4.3188 15.2945 4.19689 15.1699 4.07402 15.049C3.97626 15.0575 3.6043 15.0787 3.1889 14.9529C2.9091 14.8682 2.66852 14.7341 2.47387 14.5542C2.23082 14.3296 2.05998 14.0334 1.96588 13.6737C1.85983 13.2682 1.89841 12.8381 2.08046 12.3952C2.23232 12.0258 2.45382 11.7182 2.6003 11.5145C2.62951 11.4739 2.6571 11.4356 2.68006 11.4024C3.01203 10.9223 3.06571 10.429 3.05213 10.0996C3.04048 9.81401 2.97775 9.59865 2.95221 9.52156C2.95146 9.52156 2.95059 9.52156 2.94984 9.52156C2.67305 9.52156 2.35606 9.38124 2.29883 9.13888C2.29182 9.10911 2.28579 9.08222 2.28029 9.05748C2.25313 8.93604 2.23955 8.87517 2.178 8.80003C2.15774 8.77539 2.13575 8.74737 2.11236 8.7177C2.05588 8.64585 1.97063 8.53735 1.93721 8.52061C1.89884 8.50121 1.87556 8.46611 1.87481 8.42658C1.87394 8.38203 1.89981 8.31408 2.02818 8.24325C2.05071 8.23083 2.07421 8.21718 2.0991 8.20281C2.24569 8.11802 2.42806 8.01239 2.6599 8.00223C3.04921 7.98519 3.33204 8.06967 3.52454 8.2608C3.7829 8.51753 3.82375 8.77385 3.81264 8.94364C3.79066 9.279 3.60441 9.42158 3.51894 9.46972C3.52777 9.49805 3.53855 9.54055 3.55213 9.60491C3.60969 9.8792 3.75541 10.8334 3.21628 11.5959L3.20227 11.6157C2.88388 12.0659 2.29117 12.9037 2.57421 13.6418C2.7194 14.0205 2.97872 14.2687 3.34497 14.3792C3.54351 14.4392 3.71995 14.4404 3.80294 14.4364C3.76867 14.2238 3.79572 14.0192 3.88691 13.7968C3.96807 13.5989 4.10021 13.3841 4.32882 13.0787C4.42529 12.9499 4.62555 12.6094 4.80231 12.309C4.94178 12.0719 5.06229 11.8672 5.11402 11.7959C5.20445 11.6709 5.24767 11.4271 5.25931 11.3191C5.04245 11.3022 4.80662 11.0948 4.73214 10.9743C4.72169 10.9573 4.68979 10.9057 4.71781 10.8665C4.72492 10.8566 4.74616 10.8344 4.79046 10.8409C4.91527 10.8597 5.02402 10.811 5.05485 10.7224C5.11284 10.5574 5.07996 10.1708 5.07306 10.1182C5.07188 10.1093 5.07058 10.1032 5.0694 10.099C5.05884 10.1022 5.0431 10.1087 5.03081 10.1139C4.98576 10.1326 4.92411 10.1583 4.84715 10.1583C4.68472 10.1583 4.60507 10.0589 4.54687 9.98636C4.53684 9.97394 4.52746 9.96214 4.5183 9.95167C4.44576 9.86862 4.44512 9.61877 4.47088 9.5619C4.48446 9.53193 4.50925 9.52731 4.51938 9.5268C4.54762 9.52515 4.57963 9.53408 4.62027 9.54538C4.67491 9.56047 4.74303 9.57935 4.79531 9.56683C4.83648 9.55698 4.86709 9.53604 4.87701 9.51089C4.88865 9.48163 4.87194 9.44899 4.85588 9.42671C4.78377 9.32642 4.75165 9.17861 4.73042 9.08078C4.72492 9.05542 4.71824 9.02473 4.71382 9.01128C4.70315 9.01026 4.68009 9.01293 4.66262 9.01498C4.61035 9.02104 4.53878 9.02935 4.45137 9.00841C4.26825 8.96468 4.22664 8.84899 4.19991 8.73423C4.1748 8.62614 4.22319 8.48058 4.2662 8.43161C4.28625 8.40883 4.30672 8.40472 4.32084 8.40534C4.35458 8.40677 4.38325 8.4271 4.41656 8.45061C4.44738 8.47237 4.4822 8.49711 4.52294 8.50819C4.58459 8.52503 4.61811 8.50655 4.68149 8.44609C4.7052 8.42351 4.70143 8.36653 4.69787 8.31151C4.69485 8.26512 4.69173 8.21728 4.70218 8.17345C4.73807 8.02296 4.74605 7.89721 4.737 7.86118C4.72126 7.85944 4.68871 7.86211 4.66607 7.86406C4.59839 7.8696 4.52164 7.87597 4.46861 7.84014C4.34154 7.75402 4.28236 7.57037 4.28236 7.47327C4.28236 7.38766 4.35814 7.22259 4.41968 7.17383C4.44512 7.15371 4.46786 7.15258 4.48252 7.15515C4.50828 7.15967 4.53005 7.17958 4.56939 7.21582C4.61445 7.25729 4.68979 7.32658 4.74023 7.32658C4.74044 7.32658 4.74066 7.32658 4.74088 7.32658C4.82969 7.32565 4.85987 7.30461 4.86989 7.29219C4.87356 7.28767 4.88477 7.27382 4.87496 7.23635C4.84575 7.12446 4.86246 7.01565 4.88725 6.88508C4.90255 6.8047 4.92217 6.74116 4.93639 6.70113C4.87981 6.6806 4.79369 6.63882 4.76157 6.56737C4.7384 6.51564 4.66661 6.33856 4.71522 6.2275C4.76761 6.10739 4.97574 5.89994 5.06638 5.89706C5.09171 5.89624 5.11381 5.90815 5.12469 5.92899C5.15045 5.97816 5.15099 6.02661 5.15153 6.06551C5.15175 6.08625 5.15207 6.10975 5.15735 6.11735C5.17513 6.14291 5.25123 6.16098 5.3173 6.16816C5.32625 6.12618 5.34834 6.06459 5.40256 6.01285C5.44104 5.9761 5.46626 5.9489 5.48124 5.93155C5.45591 5.89255 5.40795 5.82038 5.37324 5.77901C5.30372 5.69628 5.34888 5.49559 5.50926 5.37057C5.60465 5.29594 5.81796 5.18395 5.88564 5.23599C5.90224 5.24872 5.91561 5.27438 5.90116 5.306C5.89793 5.32324 5.89265 5.38997 5.89222 5.43318C5.90957 5.45546 6.00701 5.49282 6.07383 5.48358C6.11123 5.47845 6.1606 5.46593 6.20835 5.45382C6.27345 5.43729 6.33499 5.42158 6.37692 5.42158C6.41421 5.42158 6.4916 5.42302 6.55131 5.42425C6.51768 5.35137 6.48524 5.24934 6.53245 5.19319C6.59303 5.12092 6.63797 5.09033 6.78445 5.05245C6.95216 5.00872 7.04518 4.99558 7.08775 5.04496C7.10306 5.06272 7.11588 5.09433 7.08991 5.14422C7.06479 5.19206 7.13119 5.25395 7.28704 5.32838C7.32865 5.34829 7.3695 5.35825 7.40895 5.36779C7.48515 5.38637 7.56394 5.40557 7.61654 5.49436C7.65394 5.5578 7.65566 5.65234 7.65243 5.70942L8.10738 5.75397C8.11557 5.75479 8.12333 5.75756 8.13012 5.76197L8.42545 5.95814C8.43192 5.96204 8.53852 6.02414 8.72045 6.02414C8.84257 6.02414 9.11936 6.09528 9.34732 6.16036C9.38699 6.03215 9.49574 5.79072 9.69568 5.67082C9.8012 5.60759 9.91685 5.58706 10.0395 5.60985C10.0807 5.57515 10.1798 5.50494 10.3073 5.50494C10.3091 5.50494 10.3107 5.50494 10.3124 5.50494C10.4096 5.50637 10.5011 5.54784 10.5848 5.62842C10.7309 5.55051 10.9427 5.50935 11.0823 5.58008C11.1399 5.60933 11.209 5.6699 11.2107 5.79287C11.2121 5.88577 11.1265 5.97518 11.0438 6.06171C10.9934 6.11448 10.9412 6.16898 10.9249 6.21025C10.9006 6.27235 10.924 6.35181 10.9488 6.43588C10.9606 6.47622 10.9729 6.51769 10.9803 6.55947C11.0365 6.5763 11.1585 6.62229 11.3282 6.7389C11.3683 6.76631 11.4116 6.8201 11.39 6.92018C11.3572 7.07272 11.1647 7.29147 11.0894 7.30748C10.966 7.33376 10.8338 7.41065 10.775 7.45191C10.6133 7.56565 10.4409 7.51977 10.3438 7.46454C10.2637 7.57161 10.0261 7.9082 9.9009 8.28698C10.1252 8.13978 10.4866 7.92904 10.6941 7.86313C10.7227 7.854 10.7496 7.84507 10.7749 7.83655C10.9593 7.77496 11.0812 7.7342 11.3156 7.82669C11.5791 7.93088 11.5875 8.2566 11.5838 8.3535C11.7428 8.47247 11.8311 8.7719 11.7471 8.93019C11.7151 8.99055 11.6338 9.0776 11.4404 9.02566C11.4119 9.16772 11.346 9.26237 11.2439 9.30753C11.048 9.39417 10.7864 9.26206 10.7061 9.21659C10.6183 9.25713 10.3182 9.38832 10.0882 9.39787C10.0216 9.51694 9.73502 10.0294 9.68274 10.1165C9.6613 10.1522 9.62918 10.2096 9.58854 10.2821C9.14243 11.0774 8.63865 11.8899 8.26065 11.9416C8.1949 12.119 7.84482 12.6489 7.47405 12.9044C6.79275 13.3737 6.71353 13.9275 6.6661 14.2585C6.66589 14.2597 6.66578 14.261 6.66556 14.2622C7.05596 14.2914 7.34093 14.4156 7.51296 14.6318C7.64521 14.798 7.7102 15.0185 7.706 15.2874C7.69921 15.7371 7.13669 16.1525 7.07266 16.1984C6.98557 16.2607 6.83403 16.3364 6.67354 16.4167C6.44644 16.5304 6.18895 16.6591 6.12848 16.7456C6.11371 16.7668 6.13063 16.8157 6.17375 16.8768C6.27075 17.0143 6.49742 17.2118 6.76548 17.3922C7.06997 17.5972 7.24856 17.6612 7.28952 17.6532C7.48235 17.6155 7.85355 17.6745 8.04864 17.8832C8.25052 18.099 8.3292 18.2962 8.28264 18.4693C8.2336 18.6519 8.05953 18.7512 7.97556 18.7894C8.00617 18.8907 7.98473 19.0322 7.87877 19.1357C7.79373 19.2188 7.59379 19.33 7.20222 19.1597C7.11912 19.2231 6.9804 19.2627 6.82907 19.2647C6.82487 19.2647 6.82077 19.2647 6.81657 19.2647L6.81689 19.2641ZM6.34038 19.0266C6.35062 19.0266 6.36075 19.0297 6.36927 19.0358C6.64314 19.2307 7.03742 19.1923 7.15932 19.0723C7.17376 19.058 7.19629 19.0542 7.21504 19.0629C7.47944 19.1844 7.69069 19.1872 7.8099 19.0707C7.8971 18.9856 7.9096 18.856 7.87112 18.7849C7.86476 18.7731 7.86401 18.7592 7.86918 18.7469C7.87435 18.7346 7.88481 18.7249 7.89785 18.7205C7.90011 18.7197 8.13853 18.636 8.18941 18.4452C8.22713 18.3037 8.15556 18.1349 7.97664 17.9436C7.80785 17.7631 7.47469 17.7101 7.30892 17.7425C7.17613 17.7682 6.84567 17.5581 6.70986 17.4665C6.49279 17.3204 6.21697 17.1019 6.09377 16.9273C6.02425 16.8288 6.00895 16.7502 6.04829 16.6939C6.12244 16.5878 6.37983 16.459 6.62881 16.3345C6.78574 16.256 6.93394 16.1819 7.01478 16.1241C7.23337 15.9676 7.60468 15.6149 7.60953 15.2852C7.61869 14.6997 7.28176 14.3851 6.60812 14.3499C6.59464 14.3492 6.58203 14.3432 6.57341 14.3332C6.56479 14.3233 6.56101 14.3103 6.56295 14.2975C6.56543 14.2809 6.56791 14.2635 6.5705 14.2452C6.61674 13.9224 6.70275 13.3215 7.41757 12.8291C7.82671 12.5472 8.16559 11.9675 8.1755 11.8917C8.17852 11.8687 8.19911 11.8513 8.22347 11.8513C8.33093 11.8513 8.53464 11.7443 8.89452 11.2344C9.13941 10.8874 9.36737 10.4808 9.50361 10.238C9.54467 10.1648 9.57712 10.107 9.5991 10.0701C9.65645 9.97456 10.013 9.33648 10.0165 9.33002C10.025 9.31503 10.0413 9.30558 10.0592 9.30558C10.0604 9.30558 10.0616 9.30558 10.0628 9.30558C10.3077 9.30558 10.6833 9.1241 10.6871 9.12225C10.7026 9.11465 10.7211 9.11568 10.7357 9.12482C10.7385 9.12656 11.0235 9.30312 11.2037 9.22326C11.2859 9.18682 11.3365 9.09772 11.3537 8.95852C11.3554 8.94436 11.364 8.93183 11.3768 8.92454C11.3896 8.91715 11.4052 8.91592 11.4191 8.92105C11.5438 8.96694 11.6252 8.95575 11.6613 8.888C11.7271 8.7642 11.64 8.49413 11.5086 8.41437C11.4934 8.40513 11.4848 8.3886 11.4865 8.37146C11.4868 8.36787 11.5175 8.00551 11.279 7.91107C11.0789 7.83203 10.9824 7.86426 10.8074 7.92277C10.7816 7.9314 10.7543 7.94053 10.7251 7.94977C10.5074 8.01906 10.0597 8.28431 9.84711 8.43644C9.83084 8.44814 9.80853 8.44876 9.79161 8.43808C9.77458 8.42741 9.76638 8.4077 9.77113 8.38881C9.90467 7.8618 10.2787 7.39227 10.2946 7.37257C10.3026 7.36271 10.3144 7.35624 10.3274 7.35481C10.3404 7.35337 10.3535 7.35696 10.3636 7.36487C10.3707 7.37031 10.5434 7.50006 10.7181 7.37718C10.7981 7.32093 10.9372 7.24548 11.0667 7.21746C11.1066 7.19888 11.2845 7.01288 11.2987 6.88343C11.3035 6.83981 11.2859 6.82225 11.2722 6.81281C11.059 6.66633 10.9297 6.64067 10.9284 6.64036C10.9077 6.63646 10.8919 6.62013 10.8895 6.60022C10.8843 6.55546 10.87 6.50701 10.8562 6.4601C10.8283 6.36546 10.7995 6.26763 10.8349 6.1773C10.8578 6.1194 10.9136 6.06089 10.9728 5.9991C11.0396 5.92919 11.1154 5.85005 11.1145 5.79349C11.1137 5.72995 11.0883 5.68653 11.0373 5.66066C10.935 5.60882 10.7443 5.63705 10.6029 5.72502C10.5827 5.73754 10.5559 5.73405 10.5401 5.71681C10.4681 5.63828 10.3913 5.59783 10.312 5.5964C10.1864 5.59404 10.0906 5.68981 10.0897 5.69084C10.0778 5.70285 10.06 5.70808 10.043 5.70408C9.9369 5.67934 9.83741 5.69412 9.74741 5.74812C9.54748 5.86791 9.4481 6.14096 9.42902 6.22708C9.42622 6.23971 9.41803 6.25069 9.40628 6.25726C9.39464 6.26383 9.38052 6.26537 9.36759 6.26168C9.04327 6.16744 8.81347 6.1155 8.72056 6.1155C8.50252 6.1155 8.37706 6.03739 8.37178 6.034L8.08518 5.84368L7.5953 5.79575C7.58226 5.79451 7.57041 5.78825 7.56232 5.7785C7.55424 5.76875 7.55068 5.75633 7.5523 5.74391C7.55758 5.70531 7.56437 5.59311 7.53236 5.53902C7.50002 5.48441 7.45422 5.47332 7.38491 5.45638C7.34255 5.44612 7.29459 5.43441 7.24371 5.41009C7.15619 5.36831 6.92446 5.25765 7.00239 5.1046C6.97663 5.10388 6.92273 5.11127 6.80978 5.14073C6.67429 5.17584 6.65123 5.19832 6.60779 5.25026C6.5913 5.26987 6.63021 5.37765 6.67235 5.44899C6.68087 5.46336 6.68065 5.48112 6.67171 5.49529C6.66276 5.50945 6.64649 5.51777 6.62913 5.51756C6.6273 5.51756 6.43987 5.51315 6.37681 5.51315C6.3476 5.51315 6.2894 5.52793 6.23314 5.5422C6.18269 5.55503 6.13042 5.56827 6.08741 5.57412C6.00755 5.585 5.89146 5.55421 5.83401 5.50678C5.80222 5.48051 5.79554 5.45443 5.79554 5.43708C5.79554 5.43616 5.7964 5.37016 5.8019 5.31986C5.7479 5.33556 5.65132 5.37796 5.57048 5.44119C5.43845 5.54415 5.42077 5.68786 5.44869 5.72102C5.50172 5.78425 5.57803 5.90538 5.58126 5.91051C5.59086 5.9258 5.59032 5.945 5.57997 5.95978C5.57706 5.96389 5.54914 6.00248 5.47089 6.07721C5.40935 6.13593 5.40762 6.2162 5.40762 6.21702C5.40752 6.22945 5.40213 6.24135 5.39275 6.24987C5.38337 6.25839 5.37087 6.26322 5.35772 6.2627C5.32107 6.26158 5.13515 6.25141 5.07673 6.16765C5.0556 6.13727 5.05517 6.10103 5.05474 6.06603C5.05442 6.04365 5.0542 6.02086 5.04892 5.99889C4.98651 6.03687 4.84672 6.16488 4.80425 6.26229C4.77882 6.32029 4.80899 6.43885 4.85017 6.53062C4.87388 6.58328 4.9766 6.6187 5.01077 6.62701C5.02445 6.6303 5.03599 6.63913 5.04224 6.65124C5.04849 6.66325 5.04892 6.67731 5.04342 6.68973C5.0431 6.69055 5.00656 6.77329 4.9822 6.90099C4.95558 7.041 4.9461 7.12785 4.96851 7.21356C4.98608 7.28018 4.96604 7.32329 4.9462 7.34783C4.90934 7.3934 4.84058 7.41701 4.74185 7.41804C4.7412 7.41804 4.74055 7.41804 4.73991 7.41804C4.65055 7.41804 4.56476 7.3392 4.50203 7.28151C4.49233 7.27258 4.48047 7.2617 4.47099 7.25359C4.43693 7.2925 4.37862 7.41363 4.37862 7.47275C4.37862 7.55169 4.43046 7.70115 4.52423 7.76469C4.54827 7.78091 4.61132 7.77578 4.65745 7.77198C4.71878 7.76695 4.77159 7.76254 4.80436 7.79179C4.82484 7.81017 4.84424 7.84548 4.83357 7.96856C4.82786 8.03456 4.81384 8.11853 4.79606 8.19336C4.78862 8.22426 4.79143 8.26553 4.79401 8.30535C4.79897 8.3808 4.80404 8.45871 4.74961 8.51066C4.6831 8.57399 4.61369 8.62829 4.4961 8.59616C4.43854 8.58046 4.39424 8.54915 4.35868 8.5239C4.34995 8.51774 4.33927 8.51014 4.33044 8.5046C4.30899 8.54402 4.27751 8.64256 4.29411 8.7138C4.3175 8.81409 4.34423 8.88749 4.47487 8.91859C4.54493 8.93532 4.60377 8.92855 4.65098 8.92311C4.70498 8.91685 4.76082 8.91038 4.79347 8.95667C4.80565 8.97402 4.81169 8.99979 4.82505 9.06158C4.84478 9.15222 4.87453 9.28916 4.93564 9.37426C4.98824 9.44724 4.98188 9.50627 4.96744 9.54291C4.94599 9.59701 4.89177 9.63807 4.81891 9.65562C4.74109 9.6741 4.65918 9.65152 4.59332 9.63325C4.58082 9.62976 4.56691 9.62596 4.55452 9.62298C4.54697 9.69032 4.55527 9.84984 4.59257 9.89244C4.60302 9.90445 4.61304 9.91697 4.62371 9.93021C4.67718 9.99694 4.73258 10.066 4.84715 10.066C4.90384 10.066 4.95073 10.0465 4.99212 10.0293C5.03685 10.0107 5.07921 9.99304 5.11909 10.0147C5.15563 10.0345 5.16511 10.0766 5.16899 10.1065C5.16953 10.1107 5.21771 10.5488 5.14657 10.7511C5.10454 10.8717 4.97369 10.9441 4.8202 10.936C4.88541 11.0316 5.12167 11.2429 5.30674 11.227C5.32021 11.2258 5.33368 11.2301 5.34371 11.2388C5.35373 11.2475 5.35944 11.2599 5.35944 11.2728C5.35944 11.3432 5.31612 11.6786 5.19367 11.8478C5.14442 11.9157 5.01928 12.1285 4.88671 12.3537C4.70876 12.6561 4.50709 12.9989 4.40761 13.1318C4.01312 13.6589 3.81653 14.0281 3.90706 14.469C3.90965 14.4814 3.90663 14.4943 3.89898 14.5046C3.89122 14.5149 3.87947 14.5218 3.86621 14.5234C3.85587 14.5248 3.61012 14.5555 3.31576 14.4666C3.04329 14.3843 2.67769 14.1799 2.48346 13.673C2.1835 12.8908 2.79409 12.0277 3.12218 11.564L3.1362 11.5442C3.45707 11.0904 3.52109 10.5648 3.51829 10.2038C3.51516 9.79892 3.43217 9.50586 3.41794 9.47054C3.41266 9.46213 3.41018 9.45217 3.41137 9.44201C3.41331 9.42486 3.42506 9.41029 3.44187 9.40403C3.45179 9.40023 3.69225 9.30394 3.71618 8.93758C3.73051 8.72047 3.64008 8.50829 3.4548 8.32414C3.28278 8.15333 3.02421 8.07798 2.66432 8.09379C2.45716 8.10293 2.28643 8.20168 2.14922 8.28113C2.12389 8.29581 2.10007 8.30956 2.07658 8.3225C1.99833 8.36571 1.97106 8.40441 1.97138 8.42453C1.97138 8.427 1.9716 8.43346 1.98248 8.43901C2.03131 8.46354 2.0963 8.5434 2.18975 8.66227C2.21271 8.69153 2.23448 8.71914 2.2541 8.74306C2.32933 8.83493 2.34647 8.9114 2.37471 9.03797C2.3802 9.0624 2.38613 9.08899 2.39303 9.11835C2.44045 9.31893 2.73697 9.44067 2.98411 9.42835C3.00492 9.42733 3.02453 9.43944 3.03186 9.45823C3.03596 9.4687 3.13264 9.71978 3.14848 10.0922C3.16303 10.436 3.10763 10.951 2.76068 11.4527C2.73718 11.4866 2.70937 11.5253 2.67984 11.5663C2.38107 11.9814 1.8248 12.754 2.05944 13.6511C2.22176 14.2719 2.61043 14.68 3.21466 14.8639C3.66908 15.0023 4.082 14.9554 4.08609 14.9549C4.10107 14.953 4.11616 14.9582 4.12673 14.9684C4.26038 15.0994 4.39284 15.2349 4.52035 15.3711C4.52984 15.3812 4.53415 15.3947 4.5321 15.4082C4.53178 15.4157 4.53857 15.4446 4.5446 15.4702C4.59181 15.6717 4.71738 16.2069 4.02595 16.7008C3.89251 16.7961 3.81933 16.904 3.81997 17.0045C3.82062 17.0963 3.88012 17.184 3.99685 17.2651C5.39264 18.2365 5.60519 18.7608 5.70737 19.0127C5.7563 19.1334 5.76956 19.1591 5.85158 19.167C5.93361 19.1748 6.12449 19.1456 6.31441 19.0333C6.32227 19.0287 6.33111 19.0264 6.33984 19.0264L6.34038 19.0266ZM3.43271 9.48533C3.43271 9.48533 3.43271 9.48533 3.43282 9.48533C3.43282 9.48533 3.43282 9.48533 3.43271 9.48533ZM11.0689 7.21736C11.0689 7.21736 11.0686 7.21736 11.0684 7.21746C11.0686 7.21746 11.0687 7.21746 11.0689 7.21736ZM5.81267 5.26863C5.81267 5.26863 5.81267 5.26863 5.81267 5.26874C5.81267 5.26874 5.81267 5.26874 5.81267 5.26863Z" fill="black"></path>
    <path d="M11.3793 8.98643C11.3566 8.98643 11.3363 8.97104 11.3319 8.94907C11.3162 8.87054 11.2117 8.81839 11.1279 8.77651C11.0852 8.75516 11.0483 8.73679 11.0214 8.71544C11.0009 8.69911 10.9982 8.67017 11.0152 8.65066C11.0324 8.63116 11.0628 8.62859 11.0833 8.64481C11.1022 8.6599 11.1364 8.67694 11.1726 8.69511C11.2695 8.74356 11.4023 8.80987 11.4267 8.93193C11.4316 8.95687 11.4145 8.98099 11.3883 8.98571C11.3853 8.98623 11.3821 8.98654 11.3792 8.98654L11.3793 8.98643Z" fill="black"></path>
    <path fill-rule="evenodd" clip-rule="evenodd" d="M7.96077 6.34246C7.96077 6.34246 7.79177 6.17401 7.71945 6.17401C7.69444 6.17401 7.60617 6.30746 7.55152 6.40313C7.49677 6.49911 7.96067 6.34246 7.96067 6.34246H7.96077Z" fill="black"></path>
    <path d="M7.587 6.47949C7.53526 6.47949 7.5219 6.4645 7.5136 6.45536C7.50691 6.44787 7.48676 6.42046 7.50918 6.38125C7.65371 6.12811 7.69985 6.12811 7.71946 6.12811C7.80332 6.12811 7.94053 6.25581 7.9956 6.31073C8.00692 6.32202 8.01145 6.33793 8.00767 6.35312C8.0039 6.36832 7.99226 6.38063 7.97685 6.38587C7.75967 6.45926 7.64725 6.47949 7.58689 6.47949H7.587ZM7.73035 6.22255C7.70836 6.24555 7.66266 6.31011 7.61685 6.38628C7.67387 6.37848 7.77368 6.35292 7.87111 6.32284C7.8141 6.27254 7.75859 6.23271 7.73035 6.22255Z" fill="black"></path>
    <path d="M7.1941 19.1322C7.18601 19.1322 7.17782 19.1303 7.17017 19.1262C7.147 19.1136 7.13891 19.0855 7.15217 19.0635C7.18321 19.0116 7.08028 18.7611 6.86385 18.568C6.84434 18.5506 6.84337 18.5215 6.86159 18.503C6.8798 18.4845 6.91041 18.4835 6.92981 18.5008C7.1318 18.6811 7.30953 18.9861 7.23592 19.109C7.22697 19.1239 7.2107 19.1322 7.19388 19.1322H7.1941ZM6.34045 19.1187C6.32579 19.1187 6.31124 19.1123 6.30176 19.1002C6.1901 18.9579 6.05192 18.727 5.95103 18.5583C5.909 18.4881 5.87278 18.4275 5.84627 18.3862C5.63264 18.0535 5.14104 17.6606 4.75226 17.4039C4.527 17.2552 4.38602 17.1357 4.37912 17.0001C4.37211 16.862 4.49574 16.737 4.75809 16.5252C4.84399 16.456 4.95641 16.2412 4.92526 16C4.90392 15.8349 4.80637 15.6043 4.46308 15.4435C4.43915 15.4323 4.42935 15.4047 4.44109 15.3819C4.45284 15.3591 4.48184 15.3498 4.50576 15.3609C4.88775 15.5401 4.99683 15.8012 5.02108 15.9888C5.05374 16.241 4.94466 16.4953 4.82049 16.5954C4.59296 16.7791 4.47052 16.8973 4.47558 16.9957C4.47979 17.0792 4.57593 17.1756 4.80734 17.3284C4.99995 17.4555 5.64999 17.9042 5.92872 18.3382C5.95599 18.3807 5.99264 18.4419 6.03499 18.5128C6.13459 18.6793 6.27104 18.9074 6.37915 19.0452C6.3951 19.0655 6.39079 19.0944 6.36934 19.1096C6.36072 19.1157 6.35048 19.1187 6.34045 19.1187ZM7.91441 18.8101C7.89523 18.8101 7.87701 18.7991 7.86947 18.7811C7.86817 18.7779 7.73474 18.4633 7.51723 18.3416C7.49427 18.3288 7.48651 18.3006 7.49999 18.2787C7.51346 18.2568 7.5431 18.2494 7.56606 18.2623C7.81245 18.3999 7.95332 18.7329 7.95914 18.7471C7.96895 18.7707 7.95688 18.7974 7.93209 18.8068C7.92627 18.809 7.92023 18.8101 7.91431 18.8101H7.91441ZM4.09241 15.0469C4.07441 15.0469 4.05717 15.0373 4.04887 15.0209C4.04046 15.0041 3.84193 14.6098 3.81272 14.4883C3.80679 14.4636 3.82296 14.4388 3.84904 14.4332C3.87502 14.4275 3.90099 14.4429 3.90692 14.4678C3.92923 14.5603 4.0798 14.8697 4.13596 14.9811C4.14749 15.004 4.13736 15.0315 4.11332 15.0425C4.10664 15.0456 4.09942 15.047 4.09241 15.047V15.0469ZM6.10678 14.3874C6.08479 14.3874 6.06485 14.3729 6.05968 14.3517C6.05375 14.3269 6.06992 14.3023 6.096 14.2966C6.10527 14.2945 6.32687 14.247 6.61293 14.2583C6.63955 14.2593 6.66025 14.2808 6.65917 14.3061C6.65809 14.3315 6.63578 14.3514 6.60894 14.3501C6.33646 14.3394 6.11982 14.3857 6.11766 14.3862C6.114 14.387 6.11044 14.3873 6.10689 14.3873L6.10678 14.3874ZM8.06951 11.958C7.86182 11.958 7.73151 11.8786 7.64711 11.8273C7.61122 11.8054 7.57738 11.7848 7.56002 11.7848C7.54871 11.7848 7.53825 11.7811 7.52995 11.7748C7.40632 11.7673 7.30253 11.7204 7.21522 11.6333C7.1401 11.5581 7.11542 11.4389 7.09149 11.3235C7.08287 11.282 7.07478 11.2428 7.06465 11.2071C7.04309 11.1319 7.04762 11.0235 7.05193 10.9186C7.05538 10.8352 7.05926 10.7406 7.04439 10.7077C7.01442 10.641 6.93574 10.5822 6.9075 10.571C6.88972 10.5843 6.84218 10.6461 6.78086 10.8183C6.73246 10.9542 6.69614 11.1039 6.69043 11.1909C6.68083 11.3383 6.73731 11.3972 6.79713 11.4595C6.80823 11.471 6.81966 11.483 6.83044 11.4952C6.8479 11.5152 6.84919 11.5423 6.83378 11.566C6.79002 11.6336 6.54772 11.7185 6.38637 11.6829C6.17113 11.6352 6.03704 11.4302 6.0087 11.1056C5.99587 10.9568 6.05332 10.807 6.10387 10.6749L6.11314 10.6507C6.12532 10.6187 6.12004 10.5842 6.09762 10.5483C6.06323 10.4933 6.00244 10.4568 5.98143 10.4505C5.93195 10.474 5.79194 10.6916 5.77211 10.7929C5.74064 10.9534 5.675 11.2875 5.31576 11.3187C5.28913 11.3208 5.26564 11.3023 5.26327 11.277C5.26089 11.2516 5.2804 11.2294 5.30703 11.227C5.57131 11.2041 5.63663 10.9822 5.67715 10.776C5.6902 10.7095 5.74506 10.6034 5.79378 10.5277C5.90673 10.3522 5.96429 10.3564 5.98595 10.3581C6.03618 10.362 6.12402 10.417 6.17522 10.4927C6.21736 10.5552 6.22739 10.6207 6.20411 10.6821L6.19473 10.7066C6.14752 10.8298 6.09395 10.9695 6.10505 11.0981C6.11928 11.2611 6.17748 11.5422 6.40825 11.5933C6.52142 11.6182 6.67986 11.5652 6.73483 11.5308C6.73192 11.5278 6.7289 11.5247 6.72589 11.5215C6.66176 11.4547 6.58189 11.3714 6.59407 11.1851C6.60064 11.0846 6.64203 10.9169 6.697 10.7678C6.80306 10.4804 6.87581 10.4784 6.9033 10.4775C6.90394 10.4775 6.90459 10.4775 6.90513 10.4775C6.97142 10.4775 7.09203 10.5798 7.13331 10.6714C7.1567 10.7235 7.15292 10.8156 7.14861 10.9222C7.14473 11.0156 7.14042 11.1215 7.1581 11.183C7.1692 11.222 7.17804 11.2645 7.18655 11.3057C7.20779 11.4082 7.22977 11.5141 7.2855 11.5698C7.38919 11.6734 7.51885 11.7053 7.69335 11.6702C7.85923 11.6368 7.92153 11.5869 7.9392 11.4727C7.93241 11.4673 7.91366 11.4589 7.89954 11.4526C7.8394 11.4258 7.74843 11.3853 7.70499 11.2608C7.63698 11.0662 7.64108 10.972 7.65422 10.8602C7.65886 10.82 7.65703 10.7519 7.6553 10.686C7.65379 10.6312 7.65239 10.5796 7.65433 10.5386C7.65606 10.502 7.65918 10.4337 7.71598 10.4282C7.76492 10.4232 7.80814 10.4164 7.84619 10.4104C7.99633 10.3867 8.10476 10.3696 8.1801 10.5611C8.21912 10.6601 8.21793 10.7263 8.21696 10.7847C8.21588 10.8485 8.21502 10.8989 8.26633 10.9881L8.27732 11.0073C8.3532 11.1404 8.38467 11.1955 8.59323 11.1357C8.7714 11.0846 8.83348 10.9468 8.85364 10.8783C8.76752 10.8508 8.65381 10.7797 8.6384 10.6393C8.62956 10.5597 8.66933 10.4895 8.70781 10.4217C8.73842 10.3678 8.7673 10.3168 8.77237 10.2631C8.77388 10.2471 8.7756 10.2319 8.77722 10.217C8.78908 10.1109 8.79694 10.0408 8.70759 9.92158C8.69541 9.90526 8.66998 9.87139 8.69897 9.84162C8.72775 9.81205 8.7617 9.83156 8.79156 9.8487C8.84976 9.88216 8.97101 9.95186 9.08893 9.92343C9.15716 9.90701 9.21676 9.85835 9.26591 9.7789C9.32368 9.68579 9.36421 9.39303 9.33662 9.34068C9.33457 9.33678 9.33284 9.33401 9.33133 9.33185C9.32314 9.33596 9.31096 9.34397 9.30137 9.35023C9.24457 9.38739 9.1495 9.44959 8.99979 9.39396C8.76008 9.30506 8.65057 9.16227 8.62169 8.90113C8.59647 8.67181 8.5208 8.46107 8.46519 8.39732C8.41744 8.34271 8.32755 8.28584 8.29575 8.26665C8.17417 8.2686 7.5667 8.27486 7.41484 8.2145C7.3368 8.1834 7.23958 8.10692 7.1456 8.03301C7.06799 7.97193 6.95083 7.87975 6.91246 7.87975C6.82817 7.87975 6.34304 7.67137 6.26856 7.50056C6.23116 7.41495 6.11637 7.12589 6.20939 7.00137C6.24927 6.94809 6.30984 6.72278 6.34347 6.57393C6.28645 6.53482 6.15808 6.43813 6.11389 6.33219C6.0572 6.197 6.07412 6.01223 6.21747 5.93616C6.33959 5.87149 6.58609 5.87519 6.67641 5.88617C6.73914 5.84953 6.94975 5.7285 7.03415 5.70561C7.1291 5.67964 7.52661 5.69658 7.57166 5.69853C7.59829 5.69976 7.61887 5.72121 7.61769 5.74667C7.61639 5.77202 7.59343 5.79173 7.56714 5.7905C7.4032 5.78321 7.1208 5.77767 7.06077 5.79409C6.992 5.81278 6.78581 5.9298 6.71209 5.97332C6.70164 5.97948 6.68913 5.98164 6.67706 5.97928C6.6125 5.96686 6.36255 5.96449 6.26447 6.01644C6.1694 6.06694 6.16218 6.19915 6.20368 6.29801C6.24097 6.38742 6.37516 6.48483 6.42377 6.51481C6.44048 6.52507 6.44888 6.54416 6.44479 6.56274C6.43595 6.6035 6.35662 6.96339 6.28818 7.05465C6.24808 7.10833 6.2774 7.28099 6.35791 7.46515C6.41245 7.59018 6.84919 7.78398 6.91311 7.78768C6.9822 7.78768 7.06993 7.85389 7.20736 7.96198C7.29595 8.03168 7.38757 8.10374 7.45224 8.1295C7.56196 8.17303 8.02845 8.17744 8.25587 8.17498C8.26115 8.17251 8.26697 8.17087 8.27312 8.17046C8.50162 8.15168 8.8642 8.1176 8.92704 8.10035C8.97748 8.0866 9.12827 7.88951 9.16179 7.80307L8.32248 7.80585H8.32227C8.30944 7.80585 8.29715 7.80102 8.2881 7.7924C8.27905 7.78378 8.27387 7.77197 8.27398 7.75976L8.27549 7.36824C8.27549 7.34289 8.29715 7.32246 8.32378 7.32246C8.32475 7.32246 8.32572 7.32246 8.32679 7.32246C8.37562 7.32174 8.8947 7.31425 9.03946 7.30265C9.10068 7.29772 9.16061 7.30357 9.21342 7.30871C9.29113 7.3163 9.35806 7.32277 9.39072 7.29167C9.42845 7.25574 9.45324 7.01595 9.45281 6.81465C9.45281 6.80459 9.45626 6.79484 9.46251 6.78683C9.51769 6.71693 9.60532 6.58368 9.60532 6.52333C9.60532 6.45588 9.59055 6.36853 9.58258 6.32572C9.54313 6.31351 9.46391 6.28928 9.36852 6.26146C9.34298 6.25407 9.32864 6.22831 9.3364 6.20408C9.34416 6.17975 9.37121 6.1661 9.39665 6.17349C9.5344 6.21353 9.63884 6.24648 9.63992 6.24678C9.6563 6.25192 9.66859 6.26506 9.67204 6.28117C9.67322 6.28682 9.702 6.42139 9.702 6.52322C9.702 6.62505 9.58646 6.78108 9.54949 6.82953C9.54917 6.95128 9.54043 7.27904 9.45917 7.35654C9.39406 7.41854 9.30159 7.40961 9.20372 7.40007C9.15274 7.39514 9.10003 7.3899 9.04776 7.39411C8.91798 7.40448 8.51229 7.41146 8.37217 7.41351L8.37098 7.71346L9.21094 7.71069C9.21094 7.71069 9.2118 7.71069 9.21234 7.71069C9.22916 7.71089 9.24392 7.71921 9.25244 7.73173C9.27507 7.76273 9.26203 7.80389 9.25761 7.81796C9.2228 7.9281 9.05325 8.16153 8.95409 8.18863C8.88996 8.20629 8.61748 8.23257 8.43803 8.24858C8.47392 8.27486 8.51207 8.30627 8.53999 8.3383C8.61651 8.42616 8.69315 8.6639 8.71826 8.89138C8.73249 9.01969 8.76601 9.11156 8.82971 9.18106C8.98492 9.04053 9.59519 8.50182 9.78995 8.36262C9.81129 8.34733 9.84158 8.35154 9.85753 8.37176C9.87359 8.39208 9.86917 8.42093 9.84794 8.43612C9.6646 8.56721 9.06414 9.09586 8.90214 9.24234C8.93965 9.26739 8.98384 9.28884 9.03547 9.30804C9.13754 9.34602 9.19585 9.30783 9.24726 9.27427C9.28078 9.2523 9.31549 9.22961 9.35666 9.23967C9.39719 9.24963 9.41702 9.28689 9.42349 9.29921C9.47447 9.39611 9.41077 9.72696 9.34966 9.8255C9.28682 9.92692 9.20728 9.98985 9.11307 10.0125C9.01855 10.0352 8.92672 10.0131 8.8545 9.98389C8.89082 10.0728 8.88274 10.1458 8.87369 10.2266C8.87207 10.2409 8.87045 10.2557 8.86894 10.2712C8.86205 10.3437 8.82702 10.4055 8.79317 10.4652C8.7603 10.5232 8.72915 10.578 8.73486 10.6295C8.75049 10.7709 8.91184 10.7979 8.91874 10.7989C8.94428 10.8029 8.96218 10.8254 8.95905 10.8499C8.95754 10.8616 8.91896 11.1381 8.62158 11.2235C8.33779 11.3048 8.27064 11.1872 8.19293 11.0509L8.18215 11.0321C8.11856 10.9215 8.11974 10.8511 8.12093 10.7829C8.1219 10.7278 8.12276 10.6758 8.09021 10.5931C8.04268 10.4724 8.01163 10.4773 7.86257 10.5008C7.83002 10.506 7.79402 10.5117 7.75317 10.5164C7.74886 10.5523 7.75091 10.6294 7.75242 10.6834C7.75425 10.7523 7.75619 10.8236 7.7508 10.8701C7.7383 10.9764 7.73517 11.0538 7.79725 11.2314C7.82754 11.3184 7.8879 11.3452 7.94104 11.3689C7.98523 11.3886 8.04569 11.4155 8.03556 11.4837C8.0084 11.6637 7.88844 11.7242 7.71642 11.7592C7.81946 11.8214 7.96119 11.8974 8.21556 11.8519C8.24175 11.8472 8.26697 11.8636 8.27193 11.8887C8.27689 11.9136 8.25964 11.9376 8.23334 11.9424C8.17428 11.9529 8.12006 11.9575 8.07038 11.9575L8.06951 11.958ZM7.72601 10.5197C7.72601 10.5197 7.7259 10.5197 7.72579 10.5197C7.72579 10.5197 7.7259 10.5197 7.72601 10.5197ZM11.5345 8.42165C11.5293 8.42165 11.524 8.42083 11.5187 8.41908C11.5163 8.41826 11.2788 8.34014 11.1646 8.34014C11.138 8.34014 11.1163 8.31951 11.1163 8.29416C11.1163 8.2688 11.138 8.24817 11.1646 8.24817C11.2949 8.24817 11.54 8.32875 11.5504 8.33224C11.5756 8.34055 11.5889 8.36683 11.5801 8.39075C11.5732 8.40974 11.5545 8.42165 11.5345 8.42165ZM10.4142 6.0926C10.4102 6.0926 10.4062 6.09209 10.4021 6.09117C10.3762 6.0848 10.3608 6.05965 10.3675 6.03512C10.4124 5.86975 10.4383 5.84029 10.515 5.75314C10.54 5.7247 10.5712 5.68929 10.611 5.63971C10.6272 5.61948 10.6576 5.61569 10.6787 5.63119C10.6999 5.64658 10.704 5.67553 10.6877 5.69565C10.6465 5.74687 10.6146 5.78311 10.589 5.81226C10.5174 5.89367 10.5004 5.91296 10.4608 6.05821C10.4552 6.07895 10.4356 6.09271 10.4141 6.09271L10.4142 6.0926ZM9.96866 5.99632C9.94376 5.99632 9.92263 5.97815 9.92059 5.95413C9.92005 5.94715 9.90798 5.78239 10.0417 5.61815C10.0581 5.59803 10.0884 5.59444 10.1095 5.61004C10.1307 5.62564 10.1344 5.65449 10.118 5.67461C10.0082 5.80949 10.0168 5.94571 10.0169 5.94704C10.0188 5.9723 9.99884 5.99437 9.97243 5.99621C9.97124 5.99621 9.96995 5.99632 9.96877 5.99632H9.96866Z" fill="black"></path>
    <path fill-rule="evenodd" clip-rule="evenodd" d="M24.689 11.2729C24.689 11.3343 24.7305 11.662 24.8466 11.8218C24.9623 11.9817 25.4587 12.8736 25.6318 13.1052C26.0219 13.6263 26.2353 14.0148 26.1405 14.478C26.1405 14.478 27.1082 14.6046 27.4715 13.6573C27.7669 12.8859 27.1387 12.0155 26.8236 11.57C26.1784 10.6573 26.5238 9.45764 26.5408 9.44697C26.5408 9.44697 26.2621 9.3438 26.2354 8.94049C26.222 8.73478 26.2951 8.50617 26.5104 8.29235C26.7218 8.08243 27.0292 8.03429 27.338 8.04794C27.5955 8.05923 27.7923 8.19709 27.9476 8.2828C28.1029 8.36841 28.0967 8.45095 28.0402 8.47969C27.9832 8.50833 27.8655 8.67206 27.7838 8.77152C27.7022 8.8714 27.6967 8.9487 27.654 9.12854C27.5988 9.36177 27.2658 9.4869 27.0129 9.47448C27.0129 9.47448 26.6213 10.476 27.2793 11.4276C27.532 11.7928 28.2513 12.6525 27.9873 13.6624C27.5845 15.202 25.9076 15.0007 25.9076 15.0007C25.7738 15.1318 25.643 15.2655 25.5151 15.4019C25.528 15.4882 25.2106 16.0982 26.0027 16.664C26.2608 16.8487 26.3307 17.0939 26.0311 17.3024C23.9817 18.7285 24.5054 19.1791 24.1525 19.213C24.0597 19.2218 23.8584 19.1904 23.6592 19.0725C23.3602 19.2853 22.9403 19.2368 22.8052 19.1043C22.1652 19.3987 21.9848 18.9504 22.0856 18.7639C22.0856 18.7639 21.4063 18.5337 21.9871 17.913C22.167 17.7206 22.5205 17.6623 22.7006 17.6974C22.9054 17.7369 24.0606 16.9327 23.9114 16.7194C23.7994 16.5594 23.1672 16.3118 22.956 16.1608C22.7736 16.0304 22.3474 15.6583 22.3417 15.2859C22.3351 14.8758 22.4875 14.351 23.3887 14.304C23.3415 13.9874 23.2907 13.3741 22.5537 12.8664C22.146 12.5854 21.7888 11.9958 21.7761 11.8974C21.3112 11.8974 20.5251 10.371 20.3582 10.0929C20.3004 9.99574 19.9406 9.3516 19.9406 9.3516C19.681 9.35335 19.2905 9.16324 19.2905 9.16324C19.2905 9.16324 18.671 9.55311 18.5981 8.96389C18.1233 9.13871 18.2372 8.51408 18.4652 8.3754C18.4652 8.3754 18.4274 7.97721 18.7025 7.8684C18.9509 7.77037 19.0583 7.83217 19.2903 7.90597C19.5221 7.97978 19.9758 8.25201 20.1818 8.39952C20.0491 7.8759 19.6668 7.40042 19.6668 7.40042C19.6668 7.40042 19.4615 7.56055 19.2531 7.41417C19.1901 7.36983 19.0524 7.28996 18.9205 7.26184C18.8585 7.2487 18.5315 6.89055 18.6997 6.77548C18.9266 6.61945 19.0622 6.59522 19.0622 6.59522C19.0783 6.45849 19.1663 6.3115 19.1198 6.19345C19.0734 6.07561 18.8354 5.92183 18.837 5.7928C18.8408 5.53135 19.2051 5.55065 19.4234 5.68646C19.689 5.39678 19.9451 5.65925 19.9451 5.65925C20.3719 5.55968 20.5824 6.05682 20.6178 6.21747C20.8395 6.153 21.1517 6.06924 21.2786 6.06924C21.4848 6.06924 21.6009 5.99543 21.6009 5.99543L21.8968 5.79876L22.3992 5.74959C22.3992 5.74959 22.3777 5.59582 22.425 5.51606C22.4914 5.40406 22.6052 5.43003 22.7341 5.36855C22.8627 5.30716 23.0044 5.22104 22.953 5.1228C22.9016 5.02456 23.0607 5.05905 23.2023 5.09591C23.3441 5.13265 23.3779 5.15965 23.4295 5.22104C23.4812 5.28242 23.3692 5.47109 23.3692 5.47109C23.3692 5.47109 23.5582 5.46668 23.6228 5.46668C23.6873 5.46668 23.8286 5.51595 23.9188 5.52817C24.009 5.54059 24.1557 5.48608 24.1557 5.43671C24.1557 5.38733 24.1482 5.29802 24.1436 5.28909C24.1119 5.23028 24.3178 5.29464 24.4595 5.4053C24.6012 5.51595 24.6397 5.6881 24.5884 5.74948C24.5368 5.81097 24.4595 5.93384 24.4595 5.93384C24.4595 5.93384 24.4853 5.9707 24.5624 6.0445C24.6397 6.11831 24.6397 6.21654 24.6397 6.21654C24.6397 6.21654 24.8347 6.21028 24.8821 6.14202C24.911 6.10106 24.8793 6.02274 24.9179 5.94873C24.9419 5.90315 25.1803 6.10794 25.2399 6.24447C25.2751 6.32464 25.2322 6.4625 25.1937 6.54852C25.155 6.63454 25.0004 6.67139 25.0004 6.67139C25.0004 6.67139 25.0391 6.75741 25.0648 6.8925C25.0908 7.02759 25.1033 7.12603 25.0776 7.22437C25.052 7.32271 25.1205 7.37024 25.2581 7.37178C25.3643 7.37311 25.4915 7.20559 25.5259 7.19963C25.5706 7.19163 25.6686 7.38656 25.6686 7.47258C25.6686 7.5586 25.6142 7.72644 25.5025 7.80199C25.432 7.84962 25.265 7.79162 25.2276 7.82519C25.1926 7.8566 25.2175 8.0465 25.25 8.18303C25.2726 8.27798 25.2191 8.41656 25.2833 8.47805C25.3477 8.53943 25.3993 8.57639 25.4898 8.55185C25.58 8.52722 25.6389 8.45238 25.6804 8.45064C25.7101 8.44941 25.7778 8.61293 25.7519 8.72359C25.7262 8.83424 25.6907 8.92622 25.5363 8.96307C25.3818 8.99992 25.2788 8.93556 25.2458 8.98206C25.2228 9.0145 25.2019 9.26281 25.1032 9.39995C25.0282 9.50425 25.089 9.58596 25.192 9.6107C25.2951 9.63523 25.4232 9.56892 25.4768 9.572C25.504 9.57364 25.5082 9.84782 25.4438 9.92163C25.3796 9.99543 25.3157 10.1117 25.1519 10.1117C24.9881 10.1117 24.8961 9.97398 24.878 10.1118C24.872 10.1595 24.8357 10.5575 24.8984 10.7363C24.9361 10.8449 25.0669 10.9083 25.2161 10.8858C25.3517 10.8657 24.9748 11.2974 24.6891 11.2726L24.689 11.2729Z" fill="#CF4037"></path>
    <path d="M23.1827 19.2641C23.1785 19.2641 23.1744 19.2641 23.1702 19.2641C23.0189 19.2621 22.88 19.2225 22.7969 19.159C22.4055 19.3293 22.2058 19.2182 22.1207 19.135C22.0148 19.0315 21.9933 18.8901 22.024 18.7887C21.9401 18.7505 21.7661 18.6512 21.7171 18.4686C21.6705 18.2954 21.7493 18.0983 21.9512 17.8825C22.1464 17.6738 22.5176 17.6148 22.7104 17.6524C22.7512 17.6602 22.9301 17.5965 23.2344 17.3915C23.5025 17.211 23.7292 17.0135 23.8262 16.8761C23.8692 16.8151 23.8861 16.7661 23.8713 16.745C23.8108 16.6585 23.5535 16.5299 23.3265 16.4162C23.1659 16.3359 23.0142 16.2601 22.9271 16.1978C22.863 16.1519 22.3004 15.7367 22.2935 15.2868C22.2892 15.018 22.3541 14.7974 22.4864 14.6312C22.6584 14.415 22.9434 14.2908 23.3339 14.2616C23.3337 14.2604 23.3336 14.2592 23.3334 14.2581C23.2862 13.9271 23.2071 13.3732 22.5255 12.9038C22.1544 12.6481 21.8046 12.1184 21.7388 11.9409C21.3615 11.8893 20.858 11.0781 20.4122 10.284C20.3708 10.2103 20.3382 10.1521 20.3164 10.1158C20.2645 10.0286 19.9779 9.51623 19.9114 9.39716C19.6814 9.38761 19.3811 9.25642 19.2932 9.21588C19.2129 9.26135 18.9513 9.39346 18.7555 9.30683C18.6534 9.26166 18.5876 9.16702 18.5591 9.02495C18.3659 9.07689 18.2846 8.98994 18.2525 8.92958C18.1684 8.7714 18.2566 8.47186 18.4154 8.35279C18.4119 8.25599 18.4203 7.93028 18.6838 7.82598C18.9181 7.7335 19.0399 7.77415 19.2242 7.83574C19.2497 7.84426 19.2766 7.85319 19.3055 7.86243C19.5131 7.92853 19.8743 8.13907 20.0984 8.28627C19.9731 7.90749 19.7355 7.571 19.6554 7.46383C19.5584 7.51906 19.386 7.56494 19.2244 7.45121C19.1657 7.40994 19.0335 7.33306 18.91 7.30678C18.8346 7.29076 18.6421 7.07181 18.6093 6.91927C18.5879 6.81939 18.6312 6.7656 18.6714 6.73819C18.841 6.62158 18.9629 6.5757 19.0189 6.55886C19.0265 6.51729 19.0386 6.47592 19.0506 6.43568C19.0755 6.3514 19.099 6.27185 19.0745 6.20964C19.0583 6.16828 19.0061 6.11377 18.9557 6.06101C18.873 5.97457 18.7875 5.88516 18.7887 5.79237C18.7905 5.66939 18.8595 5.60873 18.9172 5.57957C19.0568 5.50885 19.2687 5.55001 19.4148 5.62792C19.4983 5.54734 19.5898 5.50587 19.687 5.50443C19.8171 5.50248 19.918 5.57403 19.9599 5.60924C20.0825 5.58645 20.1982 5.60698 20.3038 5.67032C20.504 5.79032 20.6125 6.03154 20.6521 6.15965C20.9681 6.06922 21.1787 6.02344 21.2786 6.02344C21.4608 6.02344 21.5674 5.96143 21.5739 5.95743L21.8691 5.76127C21.8758 5.75675 21.8837 5.75408 21.8919 5.75326L22.3469 5.70881C22.3437 5.65174 22.3453 5.5572 22.3828 5.49386C22.4355 5.40507 22.5143 5.38587 22.5904 5.36729C22.6299 5.35764 22.6706 5.34779 22.7123 5.32787C22.8683 5.25345 22.9347 5.19155 22.9097 5.14372C22.8836 5.09393 22.8964 5.06221 22.9117 5.04445C22.9543 4.99518 23.0472 5.00832 23.2149 5.05195C23.3613 5.08993 23.4062 5.12042 23.467 5.19268C23.5142 5.24883 23.4818 5.35087 23.4481 5.42375C23.5078 5.42252 23.5852 5.42108 23.6226 5.42108C23.6644 5.42108 23.7258 5.43668 23.7908 5.45321C23.8386 5.46532 23.8879 5.47795 23.9253 5.48298C23.9906 5.49201 24.0899 5.45434 24.1072 5.43258C24.1067 5.38792 24.101 5.32233 24.098 5.3055C24.0834 5.27419 24.0969 5.24832 24.1136 5.23549C24.181 5.18365 24.3945 5.29554 24.4901 5.37017C24.6502 5.49509 24.6954 5.69577 24.6261 5.77851C24.5914 5.81998 24.5432 5.89225 24.518 5.93125C24.533 5.9485 24.5581 5.9757 24.5966 6.01245C24.6508 6.06419 24.6729 6.12578 24.6819 6.16776C24.748 6.16058 24.8241 6.14251 24.8418 6.11705C24.8474 6.10905 24.8477 6.08554 24.848 6.0647C24.8484 6.0259 24.849 5.97765 24.8746 5.92869C24.8857 5.90765 24.9078 5.89584 24.9332 5.89666C25.0239 5.89974 25.2321 6.1072 25.2844 6.22709C25.3316 6.33457 25.2678 6.50045 25.2381 6.56687C25.2059 6.63842 25.1198 6.6802 25.0631 6.70073C25.0773 6.74066 25.0969 6.8043 25.1122 6.88468C25.1408 7.03301 25.1511 7.13299 25.1244 7.23584C25.1146 7.27341 25.1259 7.28738 25.1296 7.29189C25.1396 7.30431 25.1698 7.32525 25.2585 7.32618C25.2587 7.32618 25.2589 7.32618 25.2591 7.32618C25.3098 7.32618 25.385 7.25689 25.4301 7.21542C25.4694 7.17918 25.4911 7.15927 25.5171 7.15475C25.5314 7.15218 25.554 7.15331 25.5795 7.17333C25.6411 7.22199 25.7168 7.38725 25.7168 7.47287C25.7168 7.56997 25.6575 7.75382 25.5303 7.83974C25.4773 7.87556 25.4006 7.8693 25.3329 7.86366C25.3103 7.86181 25.2778 7.85914 25.2621 7.86078C25.253 7.89671 25.2611 8.02236 25.2969 8.17305C25.3073 8.21688 25.3042 8.26492 25.3011 8.31132C25.2974 8.36634 25.2937 8.42321 25.3172 8.44579C25.3806 8.50615 25.4142 8.52463 25.4762 8.50769C25.5167 8.4966 25.5516 8.47197 25.5822 8.4502C25.6154 8.42659 25.6441 8.40627 25.6779 8.40483C25.6918 8.40422 25.7126 8.40843 25.7326 8.43121C25.7756 8.48018 25.8239 8.62584 25.7987 8.73373C25.7721 8.84849 25.7307 8.96418 25.5476 9.00791C25.4601 9.02885 25.3885 9.02053 25.3362 9.01448C25.3188 9.01242 25.2956 9.00975 25.2849 9.01078C25.2805 9.02423 25.2738 9.05492 25.2683 9.08017C25.2471 9.178 25.2148 9.32592 25.1426 9.42621C25.1266 9.44848 25.11 9.48102 25.1216 9.51028C25.1316 9.53543 25.1621 9.55647 25.2034 9.56633C25.2559 9.57875 25.3239 9.55996 25.3787 9.54477C25.4192 9.53358 25.4514 9.52465 25.4793 9.52629C25.4895 9.52691 25.5144 9.53153 25.528 9.5615C25.5537 9.61837 25.5531 9.86822 25.4806 9.95127C25.4717 9.96164 25.4624 9.97324 25.4525 9.98545C25.3943 10.0582 25.3147 10.1579 25.1516 10.1579C25.0747 10.1579 25.0131 10.1322 24.968 10.1136C24.9556 10.1084 24.9398 10.1019 24.9293 10.0987C24.9281 10.1029 24.9269 10.109 24.9257 10.1178C24.9173 10.1844 24.8865 10.5584 24.944 10.7219C24.9748 10.8107 25.0836 10.8593 25.2084 10.8405C25.2531 10.8339 25.2743 10.8562 25.2815 10.8662C25.3095 10.9056 25.2775 10.9573 25.2669 10.9744C25.1925 11.0946 24.957 11.3016 24.7406 11.3186C24.7523 11.4266 24.7956 11.6705 24.8862 11.7955C24.9378 11.8667 25.058 12.0711 25.1972 12.3077C25.3742 12.6085 25.5746 12.9494 25.671 13.0784C26.0571 13.594 26.2689 13.9861 26.197 14.4361C26.2807 14.44 26.4594 14.4387 26.6586 14.3779C27.023 14.2667 27.2812 14.0189 27.4259 13.6415C27.7086 12.9032 27.1156 12.0652 26.797 11.615L26.7833 11.5956C26.2427 10.8309 26.3904 9.8752 26.4486 9.60061C26.4618 9.53841 26.4724 9.49714 26.481 9.46942C26.3955 9.42118 26.2093 9.2787 26.1872 8.94334C26.1761 8.77335 26.2171 8.51693 26.4755 8.26051C26.6679 8.06937 26.9507 7.98489 27.3401 8.00193C27.5719 8.01209 27.7543 8.11772 27.9009 8.20251C27.9257 8.21688 27.9492 8.23043 27.9717 8.24285C28.0998 8.31337 28.1256 8.38133 28.1249 8.42588C28.1242 8.4654 28.101 8.50071 28.0628 8.52011C28.0289 8.53715 27.9431 8.64637 27.8863 8.71864C27.8633 8.74779 27.8416 8.7754 27.8217 8.79973C27.7606 8.87456 27.747 8.93523 27.72 9.05605C27.7143 9.0811 27.7082 9.1084 27.7011 9.13858C27.6437 9.38094 27.3266 9.52126 27.0498 9.52126C27.049 9.52126 27.0481 9.52126 27.0474 9.52126C27.0218 9.59835 26.9592 9.81372 26.9475 10.0993C26.934 10.4286 26.9877 10.922 27.3196 11.4021C27.3427 11.4355 27.3704 11.474 27.3997 11.5147C27.5463 11.7184 27.7677 12.026 27.9195 12.3953C28.1014 12.838 28.14 13.268 28.034 13.6733C27.9399 14.0329 27.769 14.3291 27.5259 14.5538C27.3313 14.7337 27.0907 14.8678 26.8109 14.9525C26.3955 15.0783 26.0234 15.0571 25.9258 15.0486C25.8029 15.1695 25.681 15.2941 25.5631 15.4196C25.5614 15.4376 25.5562 15.4599 25.5491 15.4903C25.5016 15.6935 25.3904 16.169 26.0316 16.6271C26.1923 16.742 26.2767 16.8728 26.2759 17.005C26.275 17.1276 26.2023 17.24 26.0595 17.3394C24.6864 18.2948 24.4808 18.802 24.382 19.0457C24.3334 19.1655 24.3014 19.2447 24.1574 19.2585C24.0486 19.2689 23.8504 19.2316 23.6615 19.1272C23.5255 19.2156 23.357 19.2637 23.1826 19.2637L23.1827 19.2641ZM22.8054 19.0583C22.8182 19.0583 22.8307 19.0632 22.8401 19.0723C22.9622 19.1923 23.3567 19.2306 23.6304 19.0358C23.6464 19.0245 23.6679 19.0236 23.6849 19.0335C23.8748 19.1458 24.0658 19.1751 24.1479 19.1673C24.2299 19.1594 24.2431 19.1336 24.292 19.0129C24.3942 18.761 24.6066 18.2367 26.0026 17.2653C26.1193 17.1842 26.1788 17.0965 26.1794 17.0047C26.18 16.9042 26.1071 16.7963 25.9738 16.7009C25.2826 16.2072 25.4078 15.672 25.4549 15.4705C25.4608 15.4449 25.4676 15.4159 25.4673 15.4076C25.4652 15.3941 25.4696 15.3815 25.4791 15.3713C25.6069 15.235 25.7393 15.0995 25.873 14.9686C25.8835 14.9583 25.8986 14.9532 25.9136 14.9551C25.9177 14.9556 26.3306 15.0024 26.7849 14.8641C27.3892 14.6802 27.7779 14.2722 27.9404 13.6513C28.1748 12.7547 27.6188 11.982 27.3201 11.567C27.2904 11.5258 27.2625 11.4869 27.2389 11.4529C26.892 10.9512 26.8364 10.4362 26.851 10.0924C26.8667 9.72 26.9634 9.46901 26.9675 9.45844C26.9748 9.43966 26.9942 9.42754 27.0153 9.42857C27.2625 9.44079 27.5592 9.31914 27.6068 9.11846C27.6139 9.08869 27.6198 9.0617 27.6254 9.03696C27.6537 8.9109 27.6707 8.83473 27.7455 8.74317C27.7649 8.71946 27.7862 8.69236 27.8089 8.66351C27.9029 8.54382 27.9682 8.46355 28.0174 8.43891C28.0281 8.43347 28.0282 8.4269 28.0282 8.42434C28.0285 8.40422 28.0013 8.36552 27.9232 8.32251C27.8998 8.30957 27.8759 8.29571 27.8507 8.28114C27.7135 8.20169 27.5426 8.10294 27.3356 8.0938C26.9757 8.07789 26.717 8.15334 26.5451 8.32415C26.3597 8.5081 26.2693 8.72018 26.2835 8.93759C26.3077 9.30395 26.5481 9.40024 26.5584 9.40414C26.5751 9.4105 26.5867 9.42528 26.5885 9.44232C26.5896 9.45228 26.5873 9.46203 26.5821 9.47035C26.5682 9.50433 26.4846 9.7976 26.4815 10.2039C26.4787 10.5649 26.5426 11.0904 26.8635 11.5442L26.8772 11.5636C27.2054 12.0274 27.8163 12.8906 27.5168 13.673C27.3223 14.1799 26.9567 14.3843 26.6843 14.4666C26.3899 14.5555 26.1442 14.5248 26.1338 14.5234C26.1207 14.5217 26.1088 14.5149 26.101 14.5047C26.0933 14.4944 26.0904 14.4816 26.093 14.4691C26.1834 14.0278 25.9868 13.6587 25.5923 13.1319C25.4928 12.9988 25.2909 12.6556 25.1129 12.3528C24.9806 12.128 24.8557 11.9156 24.8067 11.8478C24.6839 11.6787 24.6406 11.3433 24.6406 11.2728C24.6406 11.2599 24.6463 11.2475 24.6563 11.2388C24.6663 11.2301 24.6797 11.2258 24.6933 11.227C24.8785 11.243 25.1147 11.0315 25.1794 10.936C25.0254 10.9443 24.8944 10.8718 24.8524 10.751C24.7817 10.5499 24.8293 10.111 24.8298 10.1067C24.8338 10.0766 24.8432 10.0345 24.8798 10.0147C24.9196 9.99305 24.962 10.0107 25.0068 10.0293C25.0482 10.0465 25.095 10.066 25.1517 10.066C25.2668 10.066 25.3222 9.99674 25.3758 9.92981C25.3862 9.91678 25.396 9.90446 25.4064 9.89255C25.4438 9.84975 25.4521 9.69023 25.4444 9.62299C25.4321 9.62597 25.4182 9.62977 25.4058 9.63326C25.34 9.65153 25.2581 9.67421 25.1801 9.65574C25.1071 9.63818 25.053 9.59712 25.0315 9.54292C25.017 9.50628 25.0107 9.44725 25.0633 9.37427C25.1245 9.28927 25.1543 9.15223 25.174 9.06159C25.1875 8.9998 25.1934 8.97403 25.2056 8.95668C25.2383 8.91049 25.2942 8.91696 25.3482 8.92322C25.3955 8.92866 25.4543 8.93554 25.5244 8.9187C25.6548 8.8876 25.6813 8.8142 25.7047 8.71391C25.7214 8.64267 25.69 8.54413 25.6685 8.50471C25.6596 8.51036 25.649 8.51785 25.6402 8.52411C25.6047 8.54926 25.5606 8.58057 25.5031 8.59628C25.3851 8.62841 25.3156 8.57421 25.2491 8.51087C25.1948 8.45883 25.2 8.38102 25.2049 8.30567C25.2075 8.26574 25.2103 8.22448 25.2029 8.19347C25.1848 8.11741 25.1712 8.03549 25.1654 7.96867C25.1547 7.84549 25.1741 7.81028 25.1945 7.79201C25.2272 7.76265 25.2802 7.76706 25.3414 7.77209C25.3874 7.77589 25.4505 7.78113 25.4746 7.7648C25.5685 7.70137 25.6203 7.55201 25.6203 7.47297C25.6203 7.41394 25.5622 7.29292 25.5282 7.25381C25.5187 7.26192 25.5069 7.2727 25.4973 7.28152C25.4342 7.33962 25.3476 7.41908 25.2574 7.41805C25.1588 7.41702 25.0901 7.39341 25.0533 7.34804C25.0334 7.32361 25.0134 7.2804 25.0308 7.21357C25.0533 7.12693 25.0434 7.0368 25.0173 6.901C24.9929 6.7733 24.9563 6.69046 24.956 6.68964C24.9505 6.67722 24.9508 6.66316 24.9571 6.65115C24.9635 6.63914 24.9749 6.6302 24.9886 6.62702C25.0227 6.61881 25.1256 6.58329 25.1493 6.53063C25.1874 6.44543 25.2223 6.324 25.1952 6.26241C25.1527 6.16479 25.0126 6.03668 24.9502 5.9989C24.9451 6.02066 24.9447 6.04345 24.9445 6.06562C24.9441 6.10094 24.9437 6.13748 24.9221 6.16797C24.8641 6.25153 24.678 6.26169 24.6412 6.26282C24.6281 6.26333 24.6155 6.25861 24.606 6.24988C24.5966 6.24126 24.5912 6.22925 24.5912 6.21683C24.5912 6.21632 24.5895 6.13594 24.5281 6.07733C24.4498 6.00249 24.422 5.9638 24.4191 5.95969C24.4087 5.94491 24.4083 5.92581 24.4179 5.91062C24.4211 5.90549 24.4974 5.78436 24.5505 5.72113C24.5782 5.68797 24.5604 5.54406 24.4287 5.4413C24.3476 5.37807 24.2509 5.33557 24.1969 5.31997C24.2025 5.37037 24.2036 5.43627 24.2036 5.4372C24.2036 5.45444 24.1969 5.48051 24.1651 5.50679C24.1076 5.55432 23.9915 5.58512 23.9115 5.57413C23.8685 5.56828 23.8164 5.55504 23.7658 5.54211C23.7097 5.52784 23.6517 5.51306 23.6225 5.51306C23.5592 5.51306 23.372 5.51737 23.37 5.51747C23.353 5.51788 23.3364 5.50936 23.3275 5.49519C23.3185 5.48103 23.3183 5.46327 23.3268 5.4489C23.3691 5.37766 23.408 5.26977 23.3916 5.25027C23.3479 5.19833 23.3249 5.17585 23.1895 5.14074C23.0767 5.11138 23.0224 5.10389 22.9971 5.10461C23.0749 5.25776 22.8431 5.36842 22.7557 5.4101C22.7047 5.43442 22.6567 5.44613 22.6145 5.45639C22.5452 5.47323 22.4995 5.48442 22.467 5.53913C22.4349 5.59323 22.4418 5.70532 22.4472 5.74402C22.4489 5.75634 22.4452 5.76886 22.4372 5.77861C22.4291 5.78836 22.4172 5.79463 22.4042 5.79586L21.9142 5.8438L21.6285 6.0336C21.6224 6.0375 21.497 6.11562 21.2786 6.11562C21.1859 6.11562 20.9562 6.16756 20.6319 6.26179C20.619 6.26559 20.6048 6.26395 20.5932 6.25738C20.5816 6.25081 20.5733 6.23982 20.5705 6.2272C20.5515 6.14107 20.4523 5.86833 20.2522 5.74833C20.1621 5.69434 20.0626 5.67945 19.9565 5.70419C19.9395 5.70819 19.9216 5.70306 19.9096 5.69085C19.9088 5.69003 19.815 5.59651 19.6919 5.59651C19.6905 5.59651 19.6891 5.59651 19.6876 5.59651C19.6084 5.59795 19.5316 5.63839 19.4598 5.71692C19.4439 5.73417 19.4171 5.73776 19.3969 5.72513C19.2555 5.63716 19.0646 5.60893 18.9624 5.66077C18.9114 5.68664 18.8861 5.73006 18.8852 5.7936C18.8844 5.85006 18.9602 5.9292 19.0269 5.99911C19.0861 6.06101 19.142 6.11952 19.1649 6.17741C19.2004 6.26785 19.1714 6.36588 19.1434 6.46063C19.1296 6.50743 19.1153 6.55578 19.11 6.60044C19.1076 6.62056 19.0918 6.63677 19.0709 6.64057C19.0699 6.64078 18.9406 6.66644 18.7276 6.81292C18.7138 6.82237 18.6961 6.83982 18.7009 6.88344C18.7149 7.01258 18.8929 7.19889 18.9329 7.21757C19.0625 7.2457 19.2015 7.32104 19.2815 7.3773C19.4575 7.50109 19.634 7.36642 19.6359 7.36498C19.646 7.35708 19.6589 7.35348 19.6721 7.35492C19.6851 7.35636 19.6969 7.36272 19.7049 7.37268C19.7207 7.39239 20.0949 7.86191 20.2285 8.38892C20.2332 8.40781 20.225 8.42752 20.208 8.43819C20.191 8.44887 20.1688 8.44815 20.1525 8.43655C19.9401 8.28442 19.4926 8.01928 19.2747 7.94988C19.2454 7.94054 19.218 7.93141 19.1921 7.92278C19.0172 7.86438 18.9209 7.83225 18.7207 7.91118C18.4819 8.00552 18.5128 8.36788 18.5131 8.37157C18.5147 8.38861 18.5062 8.40524 18.491 8.41448C18.3596 8.49434 18.2727 8.76442 18.3385 8.88822C18.3745 8.95597 18.456 8.96715 18.5806 8.92127C18.5945 8.91614 18.6101 8.91747 18.6229 8.92476C18.6357 8.93205 18.6443 8.94467 18.646 8.95874C18.6632 9.09803 18.7137 9.18713 18.796 9.22347C18.9458 9.28979 19.1845 9.17492 19.2638 9.12503C19.2784 9.1159 19.2969 9.11487 19.3124 9.12246C19.3162 9.12431 19.6921 9.3058 19.9369 9.3058C19.9381 9.3058 19.9394 9.3058 19.9405 9.3058C19.9584 9.3058 19.9747 9.31514 19.9832 9.33023C19.9867 9.3367 20.3434 9.97488 20.4003 10.0704C20.4226 10.1076 20.4556 10.1663 20.4973 10.2407C20.6336 10.4837 20.8619 10.8903 21.1064 11.2365C21.4655 11.7449 21.6688 11.8516 21.7761 11.8516C21.8005 11.8516 21.8211 11.869 21.8241 11.892C21.8339 11.9677 22.1724 12.5471 22.582 12.8293C23.2971 13.3218 23.3829 13.9228 23.429 14.2457C23.4316 14.2637 23.4341 14.2812 23.4365 14.2977C23.4385 14.3104 23.4346 14.3234 23.4261 14.3333C23.4175 14.3433 23.4049 14.3493 23.3914 14.3501C22.7175 14.3852 22.3806 14.6999 22.39 15.2853C22.395 15.6151 22.7664 15.9678 22.985 16.1242C23.066 16.1821 23.2143 16.2562 23.3712 16.3348C23.62 16.4592 23.8773 16.588 23.9515 16.694C23.991 16.7503 23.9757 16.8289 23.9061 16.9274C23.7829 17.102 23.5071 17.3205 23.2901 17.4666C23.1541 17.5582 22.8237 17.7681 22.6909 17.7426C22.5251 17.7102 22.1918 17.7632 22.0231 17.9437C21.8438 18.1352 21.7722 18.3042 21.8104 18.4458C21.8618 18.6373 22.0994 18.7198 22.1017 18.7206C22.1149 18.725 22.1253 18.7347 22.1305 18.747C22.1357 18.7593 22.1349 18.7732 22.1286 18.785C22.0901 18.8561 22.1026 18.9857 22.1897 19.0708C22.3089 19.1872 22.52 19.1844 22.7842 19.063C22.7909 19.0599 22.7981 19.0583 22.8052 19.0583H22.8054ZM26.5674 9.48544C26.5674 9.48544 26.5674 9.48544 26.5673 9.48544C26.5673 9.48544 26.5673 9.48544 26.5674 9.48544ZM26.5677 9.48534C26.5677 9.48534 26.5677 9.48534 26.5676 9.48534C26.5676 9.48534 26.5676 9.48534 26.5677 9.48534ZM18.9311 7.21778C18.9311 7.21778 18.9314 7.21778 18.9315 7.21778C18.9314 7.21778 18.9312 7.21778 18.9311 7.21778ZM24.1864 5.26905C24.1864 5.26905 24.1864 5.26926 24.1865 5.26936C24.1865 5.26926 24.1865 5.26916 24.1864 5.26905Z" fill="black"></path>
    <path d="M18.6209 8.98647C18.6179 8.98647 18.6149 8.98617 18.6119 8.98565C18.5857 8.98093 18.5685 8.95691 18.5733 8.93197C18.5975 8.80971 18.7303 8.7434 18.8274 8.69495C18.8636 8.67688 18.8978 8.65974 18.9167 8.64475C18.9372 8.62853 18.9677 8.6311 18.9847 8.6506C19.0018 8.67011 18.9991 8.69916 18.9786 8.71537C18.9518 8.73673 18.9149 8.7551 18.8722 8.77635C18.7882 8.81823 18.6837 8.87048 18.6683 8.9489C18.664 8.97097 18.6436 8.98647 18.6209 8.98647Z" fill="black"></path>
    <path fill-rule="evenodd" clip-rule="evenodd" d="M22.0394 6.34246C22.0394 6.34246 22.2081 6.17401 22.2805 6.17401C22.3054 6.17401 22.3936 6.30746 22.4481 6.40313C22.5033 6.49911 22.0394 6.34246 22.0394 6.34246Z" fill="black"></path>
    <path d="M22.413 6.47951C22.3528 6.47951 22.2404 6.45918 22.0233 6.38589C22.0079 6.38065 21.9962 6.36834 21.9925 6.35325C21.9887 6.33805 21.9932 6.32214 22.0045 6.31085C22.0596 6.25593 22.1966 6.12823 22.2806 6.12823C22.3003 6.12823 22.3464 6.12823 22.4906 6.38147C22.5132 6.42058 22.4931 6.44799 22.4863 6.45549C22.4781 6.46472 22.4647 6.47971 22.413 6.47971V6.47951ZM22.1291 6.32296C22.2263 6.35294 22.3259 6.3786 22.383 6.3864C22.3373 6.31023 22.2917 6.24567 22.2697 6.22267C22.2414 6.23284 22.186 6.27266 22.1291 6.32296Z" fill="black"></path>
    <path d="M22.8057 19.1323C22.7889 19.1323 22.7725 19.1238 22.7636 19.1089C22.6905 18.9857 22.8684 18.6808 23.0703 18.5007C23.0898 18.4834 23.1203 18.4843 23.1385 18.5029C23.1567 18.5215 23.1558 18.5505 23.1362 18.5679C22.9199 18.7608 22.8168 19.0115 22.8477 19.0635C22.8609 19.0856 22.8527 19.1137 22.8295 19.1262C22.8219 19.1302 22.8138 19.1322 22.8058 19.1322L22.8057 19.1323ZM23.6596 19.1187C23.6496 19.1187 23.6395 19.1157 23.6308 19.1096C23.6094 19.0944 23.605 19.0655 23.6209 19.0452C23.7284 18.9082 23.8643 18.6812 23.9636 18.5155C24.0067 18.4436 24.0439 18.3814 24.0716 18.3384C24.3499 17.9045 25 17.4557 25.1926 17.3285C25.4239 17.1756 25.52 17.0792 25.5243 16.9957C25.5292 16.8972 25.407 16.7791 25.1797 16.5954C25.0573 16.4969 24.9452 16.251 24.9789 15.9893C25.0031 15.8016 25.112 15.5402 25.4941 15.361C25.518 15.3497 25.547 15.3591 25.5588 15.3819C25.5705 15.4047 25.5607 15.4323 25.5368 15.4435C25.1934 15.6046 25.0961 15.8353 25.0748 16.0005C25.0438 16.2417 25.1563 16.4563 25.2422 16.5252C25.5044 16.737 25.6279 16.862 25.6209 17.0001C25.614 17.1358 25.473 17.2552 25.2478 17.404C24.8589 17.6609 24.3675 18.0537 24.154 18.3863C24.1271 18.4282 24.0902 18.4898 24.0476 18.561C23.9471 18.7288 23.8095 18.9587 23.6983 19.1002C23.6888 19.1123 23.6743 19.1187 23.6596 19.1187ZM22.0859 18.8101C22.08 18.8101 22.0739 18.8091 22.0681 18.8069C22.0433 18.7975 22.0311 18.7708 22.0411 18.7472C22.0469 18.733 22.1875 18.4 22.4342 18.2624C22.4572 18.2496 22.4868 18.2569 22.5003 18.2788C22.5138 18.3007 22.5061 18.3289 22.4831 18.3417C22.2654 18.4633 22.1321 18.778 22.1308 18.7811C22.1233 18.7992 22.1052 18.8101 22.0859 18.8101ZM23.8932 14.3874C23.8896 14.3874 23.886 14.387 23.8823 14.3863C23.879 14.3856 23.6629 14.3396 23.3912 14.3503C23.3905 14.3503 23.3897 14.3503 23.3891 14.3503C23.3633 14.3503 23.342 14.3309 23.3409 14.3062C23.3398 14.2809 23.3605 14.2594 23.3872 14.2584C23.6731 14.2471 23.8946 14.2946 23.9039 14.2967C23.9299 14.3023 23.9461 14.3271 23.9402 14.3518C23.935 14.3731 23.9152 14.3875 23.8932 14.3875V14.3874ZM21.9309 11.958C21.8811 11.958 21.8269 11.9535 21.7678 11.9429C21.7416 11.9382 21.7244 11.9142 21.7292 11.8892C21.7341 11.8643 21.7594 11.8478 21.7856 11.8525C22.04 11.8979 22.1817 11.822 22.2848 11.7598C22.1125 11.7248 21.9924 11.6641 21.9657 11.4842C21.9554 11.4159 22.0159 11.389 22.0601 11.3693C22.1133 11.3456 22.1736 11.3187 22.2041 11.2317C22.266 11.0547 22.263 10.9771 22.2506 10.8705C22.2451 10.8239 22.2469 10.752 22.2488 10.6827C22.2502 10.6291 22.2522 10.5525 22.248 10.5168C22.2072 10.5119 22.171 10.5063 22.1386 10.5012C21.9895 10.4776 21.9585 10.4727 21.9111 10.5935C21.8786 10.676 21.8795 10.728 21.8805 10.7832C21.8816 10.8513 21.8828 10.9217 21.8191 11.0324L21.808 11.0518C21.7305 11.1877 21.6635 11.305 21.3798 11.2238C21.082 11.1385 21.0436 10.8619 21.0421 10.8502C21.039 10.8255 21.0569 10.8031 21.0825 10.7993C21.0892 10.7982 21.2505 10.7712 21.2662 10.6298C21.2718 10.5785 21.2408 10.5236 21.2079 10.4657C21.174 10.4059 21.139 10.3441 21.1321 10.2716C21.1306 10.2562 21.129 10.2415 21.1274 10.2272C21.1183 10.1463 21.1102 10.0732 21.1466 9.98432C21.0745 10.0136 20.9825 10.0357 20.8879 10.013C20.7937 9.99028 20.7141 9.92735 20.6514 9.82593C20.5901 9.72728 20.5264 9.39623 20.5778 9.29964C20.5841 9.28753 20.6039 9.25016 20.6444 9.24021C20.6855 9.23015 20.7202 9.25283 20.7537 9.2748C20.8051 9.30847 20.8633 9.34655 20.9654 9.30867C21.0171 9.28948 21.0614 9.26792 21.0989 9.24287C20.9372 9.0966 20.3389 8.56969 20.1531 8.43686C20.1318 8.42156 20.1275 8.39282 20.1435 8.3725C20.1596 8.35217 20.1899 8.34807 20.2111 8.36336C20.401 8.49917 21.0143 9.03942 21.1711 9.18159C21.2347 9.1122 21.2682 9.02033 21.2826 8.89201C21.3078 8.66423 21.3844 8.42649 21.4609 8.33903C21.4888 8.30701 21.5269 8.2756 21.5628 8.24932C21.3835 8.2333 21.111 8.20692 21.0469 8.18937C20.9507 8.16309 20.7777 7.92812 20.7432 7.81859C20.7386 7.80381 20.7244 7.75885 20.7526 7.72754C20.7622 7.71697 20.7757 7.71153 20.7893 7.71153H20.7897L21.6301 7.7143L21.6288 7.41435C21.4887 7.4122 21.0829 7.40532 20.9532 7.39495C20.9008 7.39074 20.848 7.39588 20.797 7.40091C20.6992 7.41045 20.6068 7.41949 20.5419 7.35738C20.4607 7.27998 20.4518 6.95222 20.4514 6.83048C20.4143 6.78203 20.2986 6.62261 20.2986 6.52417C20.2986 6.42572 20.3273 6.28776 20.3286 6.28212C20.332 6.266 20.3443 6.25286 20.3607 6.24773C20.3618 6.24742 20.466 6.21447 20.6043 6.17443C20.6298 6.16704 20.6568 6.1808 20.6646 6.20502C20.6723 6.22935 20.6579 6.25502 20.6324 6.26241C20.5367 6.29012 20.4576 6.31435 20.4182 6.32656C20.4101 6.36937 20.3953 6.45672 20.3953 6.52417C20.3953 6.58452 20.4829 6.71777 20.5382 6.78767C20.5446 6.79568 20.5479 6.80543 20.5479 6.81549C20.5476 7.01679 20.5725 7.25658 20.6102 7.29261C20.6412 7.32217 20.6976 7.31827 20.7872 7.30955C20.8401 7.30442 20.9001 7.29856 20.9614 7.30349C21.106 7.31509 21.6252 7.32258 21.6741 7.3233C21.675 7.3233 21.6762 7.3233 21.677 7.3233C21.7036 7.3233 21.7251 7.34373 21.7253 7.36909L21.7269 7.7606C21.7269 7.77281 21.7218 7.78462 21.7127 7.79334C21.7037 7.80196 21.6914 7.80679 21.6786 7.80679H21.6784L20.8386 7.80402C20.872 7.89035 21.0229 8.08754 21.0734 8.10129C21.1362 8.11844 21.4989 8.15262 21.7274 8.1714C21.754 8.17356 21.7736 8.19584 21.7714 8.22119C21.7691 8.24644 21.7458 8.26523 21.7191 8.26307C21.7174 8.26297 21.7152 8.26276 21.7126 8.26256C21.6929 8.27426 21.588 8.3376 21.535 8.39816C21.4796 8.4616 21.4041 8.67224 21.3786 8.90197C21.3495 9.16311 21.2399 9.3059 21.0003 9.3948C20.8506 9.45043 20.7555 9.38823 20.6987 9.35107C20.6892 9.34491 20.6772 9.3369 20.669 9.3328C20.6676 9.33485 20.6658 9.33772 20.6638 9.34152C20.636 9.39387 20.6764 9.68643 20.7343 9.77974C20.7835 9.85929 20.843 9.90795 20.9113 9.92437C21.0294 9.95281 21.1504 9.88311 21.2086 9.84964C21.2385 9.8324 21.2725 9.813 21.3012 9.84256C21.3301 9.87233 21.3048 9.9062 21.2926 9.92253C21.2035 10.0418 21.2113 10.1119 21.2232 10.2182C21.2248 10.2329 21.2265 10.2481 21.228 10.264C21.2331 10.3177 21.262 10.3687 21.2926 10.4226C21.331 10.4904 21.3708 10.5605 21.362 10.6401C21.3464 10.7805 21.2327 10.8515 21.1467 10.879C21.1668 10.9474 21.2288 11.0854 21.4073 11.1365C21.6159 11.1961 21.6471 11.1412 21.7228 11.0086L21.734 10.9889C21.7854 10.8996 21.7845 10.8492 21.7835 10.7853C21.7825 10.7269 21.7813 10.6608 21.8202 10.5618C21.8955 10.3702 22.004 10.3873 22.154 10.4111C22.1921 10.4172 22.2353 10.424 22.2844 10.4289C22.3516 10.4356 22.3495 10.5139 22.345 10.6856C22.3433 10.7519 22.3414 10.8204 22.3462 10.8609C22.3592 10.9731 22.3632 11.0674 22.2954 11.2615C22.2518 11.3859 22.1609 11.4265 22.1008 11.4533C22.0868 11.4595 22.0681 11.4678 22.0613 11.4733C22.079 11.5878 22.1413 11.6376 22.3068 11.6709C22.4817 11.7061 22.6112 11.6742 22.7145 11.5705C22.7701 11.5148 22.7921 11.4091 22.8134 11.307C22.8221 11.2655 22.831 11.2227 22.8422 11.1836C22.8597 11.1222 22.8554 11.0166 22.8515 10.9233C22.8471 10.8164 22.8433 10.7241 22.8668 10.672C22.9082 10.5803 23.0289 10.4781 23.0951 10.4781C23.0957 10.4781 23.0963 10.4781 23.0969 10.4781C23.1243 10.4789 23.1969 10.481 23.303 10.7684C23.3581 10.9175 23.3994 11.0853 23.406 11.1856C23.4182 11.3718 23.3386 11.4549 23.2745 11.5217C23.2714 11.525 23.2683 11.5282 23.2653 11.5314C23.3202 11.5658 23.4787 11.6188 23.5918 11.5938C23.8229 11.5428 23.8812 11.2616 23.8955 11.0985C23.9064 10.9705 23.8531 10.8313 23.8061 10.7084L23.7963 10.6827C23.773 10.6213 23.7831 10.5558 23.8252 10.4934C23.8764 10.4176 23.9645 10.3625 24.0146 10.3586C24.0363 10.357 24.0938 10.3527 24.2067 10.5283C24.2554 10.6038 24.3103 10.7099 24.3235 10.7765C24.364 10.9827 24.4293 11.2046 24.6935 11.2275C24.72 11.2298 24.7396 11.2522 24.7373 11.2775C24.7348 11.3029 24.7113 11.3215 24.6848 11.3192C24.3256 11.288 24.2601 10.954 24.2286 10.7935C24.2086 10.6922 24.0682 10.4744 24.0191 10.4511C23.9988 10.457 23.9375 10.4936 23.9029 10.5489C23.8804 10.5848 23.8752 10.6193 23.8874 10.6514L23.8972 10.677C23.9475 10.8087 24.0047 10.958 23.992 11.1061C23.9638 11.4308 23.8295 11.6358 23.614 11.6834C23.453 11.7189 23.2107 11.6342 23.1669 11.5666C23.1514 11.5429 23.1526 11.5158 23.17 11.4958C23.1809 11.4833 23.1924 11.4712 23.2035 11.4596C23.2632 11.3973 23.3196 11.3384 23.31 11.1913C23.3043 11.1044 23.268 10.9548 23.2196 10.8189C23.1582 10.6467 23.1107 10.5848 23.0929 10.5714C23.0647 10.5826 22.9861 10.6413 22.9559 10.7081C22.941 10.7411 22.9449 10.8359 22.9484 10.9195C22.9527 11.0242 22.9571 11.1325 22.9358 11.2075C22.9254 11.2435 22.9172 11.283 22.9085 11.3246C22.8846 11.4397 22.8598 11.5587 22.7849 11.6336C22.6979 11.7209 22.594 11.7679 22.4701 11.7753C22.462 11.7814 22.4515 11.7851 22.4402 11.7851C22.4229 11.7851 22.3891 11.8058 22.3534 11.8275C22.269 11.8789 22.1388 11.9583 21.9309 11.9583V11.958ZM18.4657 8.42167C18.4457 8.42167 18.427 8.40976 18.4201 8.39077C18.4113 8.36675 18.4246 8.34057 18.4498 8.33226C18.4602 8.32887 18.7052 8.24819 18.8359 8.24819C18.8625 8.24819 18.8842 8.26882 18.8842 8.29418C18.8842 8.31953 18.8625 8.34016 18.8359 8.34016C18.7215 8.34016 18.484 8.41828 18.4816 8.4191C18.4763 8.42085 18.4711 8.42167 18.4658 8.42167H18.4657ZM19.5862 6.09262C19.5647 6.09262 19.5451 6.07887 19.5395 6.05813C19.5 5.91268 19.4829 5.89327 19.4114 5.81177C19.3858 5.78272 19.354 5.74659 19.3131 5.69547C19.2969 5.67524 19.3009 5.6464 19.3221 5.631C19.3433 5.6156 19.3736 5.6194 19.3898 5.63962C19.4296 5.6891 19.4606 5.72441 19.4855 5.75275C19.5623 5.8401 19.588 5.86946 19.6331 6.03503C19.6397 6.05967 19.6242 6.08472 19.5985 6.09108C19.5944 6.09211 19.5904 6.09252 19.5863 6.09252L19.5862 6.09262ZM20.0315 5.99654C20.0302 5.99654 20.029 5.99654 20.0276 5.99644C20.0009 5.99439 19.9812 5.97221 19.9833 5.94686C19.9833 5.94573 19.9921 5.80951 19.8822 5.67473C19.8658 5.65471 19.8697 5.62577 19.8907 5.61016C19.9117 5.59456 19.9421 5.59815 19.9585 5.61827C20.0924 5.78251 20.0802 5.94737 20.0796 5.95425C20.0776 5.97827 20.0564 5.99654 20.0315 5.99654Z" fill="black"></path>
    <path d="M25.9077 15.0677C25.8975 15.0677 25.8872 15.0655 25.8774 15.0611C25.8424 15.0451 25.8276 15.0051 25.8444 14.9719C25.9002 14.861 26.0498 14.5535 26.0719 14.4627C26.0807 14.4267 26.1184 14.4043 26.1562 14.4126C26.1941 14.421 26.2175 14.4569 26.2088 14.4929C26.1793 14.6144 25.9923 14.9876 25.9712 15.0297C25.9591 15.0537 25.934 15.0677 25.9078 15.0677H25.9077ZM21.8571 8.2887C21.7728 8.2887 21.7099 8.28767 21.6897 8.28737C21.6509 8.28665 21.62 8.25616 21.6208 8.21921C21.6216 8.18266 21.6528 8.15361 21.691 8.15361C21.6914 8.15361 21.6918 8.15361 21.6924 8.15361C21.9656 8.15854 22.4373 8.15115 22.54 8.1104C22.6016 8.08586 22.696 8.01154 22.7794 7.94605C22.9195 7.83581 23.0097 7.76795 23.0863 7.76693C23.1597 7.7581 23.5739 7.56881 23.6224 7.45733C23.7065 7.26486 23.7252 7.1077 23.6946 7.06685C23.625 6.97405 23.549 6.63418 23.5345 6.56704C23.5287 6.54004 23.5409 6.51233 23.5651 6.49734C23.612 6.46829 23.7415 6.37457 23.7766 6.2905C23.8149 6.19852 23.8063 6.0777 23.7255 6.0348C23.6335 5.98604 23.3885 5.98819 23.3278 5.9999C23.3103 6.00328 23.292 6.0001 23.2768 5.99117C23.1755 5.93122 22.9929 5.83021 22.9341 5.8143C22.8795 5.79942 22.6093 5.80373 22.4348 5.81153C22.396 5.81317 22.3631 5.78474 22.3613 5.74789C22.3594 5.71104 22.3894 5.67962 22.4281 5.67788C22.5021 5.67459 22.8763 5.6594 22.9727 5.68568C23.0567 5.70857 23.2589 5.82395 23.3291 5.86481C23.4284 5.85434 23.6712 5.853 23.7938 5.91808C23.9495 6.00061 23.9686 6.19278 23.9071 6.34008C23.8632 6.44519 23.7452 6.5385 23.6816 6.58316C23.7169 6.73703 23.7738 6.94254 23.8089 6.98935C23.9059 7.119 23.8015 7.39584 23.7521 7.50886C23.6747 7.68665 23.1843 7.90089 23.0879 7.90089C23.0528 7.90458 22.9376 7.99522 22.8687 8.04932C22.7734 8.12425 22.6749 8.20176 22.594 8.23399C22.4743 8.28152 22.0863 8.2888 21.857 8.2888L21.8571 8.2887ZM23.0878 7.76693H23.0873H23.0879H23.0878Z" fill="black"></path>
    <path fill-rule="evenodd" clip-rule="evenodd" d="M13.1916 7.68678L12.8447 7.79086L12.4954 6.73243L12.0656 6.86157L11.9832 6.61202C12.2267 6.54417 12.4228 6.3981 12.3773 6.13757L12.6532 6.05463L13.1916 7.68678ZM13.6855 7.12291C13.7264 7.23326 13.8331 7.31662 13.9572 7.29855C14.2179 7.26047 14.2339 6.92418 14.2138 6.73428L14.208 6.73027C14.1307 6.87748 14.0103 6.9521 13.8381 6.97715C13.6861 6.99922 13.5209 6.95416 13.4025 6.86269C13.2923 6.77257 13.2266 6.6385 13.2054 6.50578C13.1502 6.16015 13.3571 5.85066 13.7266 5.79667C14.2634 5.71834 14.4793 6.14424 14.5477 6.57188C14.6138 6.98516 14.497 7.48435 13.9932 7.55785C13.6869 7.6024 13.4315 7.46423 13.3435 7.1728L13.6854 7.12291H13.6855ZM14.1187 6.35006C14.0933 6.193 13.9619 6.05144 13.7822 6.07762C13.61 6.10277 13.5364 6.2743 13.5609 6.42643C13.5864 6.58605 13.698 6.73274 13.8829 6.70584C14.0753 6.67761 14.1453 6.51666 14.1187 6.34995V6.35006ZM15.5864 5.72635C15.9439 5.75294 16.2275 5.98985 16.1734 6.65524C16.118 7.33499 15.7991 7.52726 15.4418 7.50067C15.0893 7.47439 14.8056 7.23758 14.8611 6.55772C14.9152 5.89244 15.2338 5.70048 15.5864 5.72645V5.72635ZM15.465 7.21561C15.7612 7.23758 15.7953 6.82081 15.811 6.62834C15.8255 6.45045 15.8594 6.03379 15.5634 6.01182C15.272 5.99026 15.238 6.40682 15.2234 6.58482C15.2078 6.77719 15.174 7.19395 15.465 7.21561ZM17.0549 7.35172L16.3239 7.15997L16.4121 6.85346L17.4398 6.08881L17.7534 6.17114L17.4676 7.16326L17.6973 7.22372L17.6178 7.49933L17.3882 7.43918L17.2784 7.82104L16.9451 7.73358L17.0548 7.35172H17.0549ZM17.2996 6.50321L17.2919 6.50106L16.68 6.95652L17.1343 7.0758L17.2996 6.50321ZM6.38864 19.8709L6.8575 19.8556L6.91635 21.5147L7.80987 21.4877L7.82335 21.8642L6.46096 21.906L6.38864 19.871V19.8709ZM8.35914 21.2805C8.33435 21.5366 8.44817 21.6696 8.68206 21.6998C8.85095 21.7219 9.0012 21.6406 9.04087 21.5537L9.41089 21.602C9.24296 21.9312 8.97038 22.0454 8.62396 22.0001C8.14131 21.9372 7.88759 21.5817 7.95226 21.1295C8.01499 20.6916 8.37962 20.3994 8.84438 20.4602C9.36551 20.5284 9.55715 20.9792 9.46327 21.4244L8.35903 21.2805H8.35914ZM9.07945 21.1157C9.07008 20.9072 8.99366 20.7875 8.78941 20.7612C8.52297 20.7263 8.41756 20.9141 8.39557 21.0265L9.07945 21.1157ZM10.4339 22.335L9.97772 22.219L9.8639 20.6642L10.2942 20.7734L10.3376 21.8264L10.3433 21.8279L10.9294 20.9349L11.3367 21.0382L10.4338 22.335H10.4339ZM11.7297 22.028C11.6692 22.2782 11.7632 22.4247 11.9907 22.4849C12.1546 22.5283 12.3151 22.4673 12.3667 22.3862L12.7265 22.4816C12.5139 22.7864 12.2275 22.8644 11.8906 22.7752C11.4214 22.6506 11.2201 22.2659 11.348 21.8263C11.4719 21.4001 11.8744 21.1579 12.3265 21.2776C12.8333 21.4121 12.9595 21.8836 12.8037 22.3125L11.7296 22.0279L11.7297 22.028ZM12.4668 21.9571C12.487 21.7491 12.4282 21.6212 12.2295 21.5684C11.9703 21.4997 11.8395 21.6723 11.8016 21.7808L12.4668 21.9571ZM13.394 21.5777L13.7923 21.6383L13.7472 21.9086L13.753 21.9095C13.8604 21.7381 14.088 21.6427 14.2916 21.6737C14.3212 21.6781 14.3557 21.689 14.3808 21.7018L14.3188 22.0736C14.2708 22.0567 14.2212 22.0442 14.1706 22.0368C13.8636 21.9901 13.7221 22.185 13.6793 22.4414L13.5698 23.0981L13.1508 23.0341L13.3937 21.5777H13.394ZM14.6613 21.1968L15.085 21.1754L15.1447 22.2662L15.6498 21.7098L16.1514 21.6846L15.5992 22.2551L16.2978 23.154L15.7846 23.1796L15.3247 22.5429L15.1689 22.7021L15.1967 23.2091L14.773 23.2303L14.6614 21.1968H14.6613ZM18.2431 22.7032L17.8518 22.797L17.7995 22.5978L17.7908 22.6C17.7289 22.7857 17.5694 22.9061 17.3958 22.9474C16.9581 23.0524 16.7859 22.8439 16.6931 22.4896L16.4613 21.61L16.8731 21.5115L17.0857 22.319C17.1474 22.5541 17.2504 22.653 17.442 22.6072C17.6652 22.5539 17.7293 22.4118 17.6529 22.1215L17.4557 21.3721L17.8671 21.2733L18.2433 22.7033L18.2431 22.7032ZM18.8864 22.0146C18.9397 22.1836 19.1099 22.2119 19.2706 22.1682C19.3886 22.1365 19.5247 22.052 19.484 21.915C19.4491 21.797 19.2671 21.8019 18.956 21.8206C18.7056 21.8348 18.4463 21.8192 18.3722 21.5696C18.2644 21.2073 18.5644 21.0253 18.8835 20.9391C19.2084 20.8512 19.5386 20.8746 19.6734 21.2144L19.2855 21.3192C19.2293 21.1716 19.0961 21.1629 18.9494 21.2027C18.8575 21.2278 18.7274 21.2807 18.7615 21.3959C18.803 21.5361 19.0389 21.493 19.2872 21.4819C19.541 21.4694 19.7985 21.489 19.877 21.7521C19.9879 22.1252 19.6845 22.3376 19.3451 22.4298C18.9999 22.5231 18.6272 22.4907 18.4981 22.1193L18.8864 22.0147V22.0146ZM20.5467 21.439C20.6043 21.69 20.7548 21.7838 20.9877 21.7453C21.1553 21.7175 21.273 21.5969 21.2831 21.5025L21.6512 21.4416C21.5958 21.8038 21.3719 21.9916 21.0276 22.0486C20.5473 22.1282 20.1929 21.8624 20.1112 21.4128C20.0321 20.9774 20.2868 20.5938 20.7489 20.517C21.2672 20.4311 21.5929 20.8059 21.6451 21.2575L20.5469 21.439H20.5467ZM21.1807 21.0737C21.1057 20.8776 20.9951 20.7858 20.7923 20.8199C20.5269 20.8636 20.4864 21.0729 20.5009 21.1863L21.1807 21.0737ZM22.0682 20.3908L22.4715 20.4002L22.4664 20.6054L22.4753 20.6057C22.587 20.4429 22.7743 20.3675 22.9537 20.3713C23.4045 20.382 23.512 20.6269 23.5028 20.9918L23.4796 21.8986L23.0554 21.8887L23.0766 21.0561C23.0829 20.8138 23.0111 20.6926 22.814 20.6879C22.5839 20.6825 22.4822 20.8026 22.4746 21.1021L22.4548 21.8747L22.0308 21.8648L22.0683 20.3909L22.0682 20.3908ZM8.36032 14.4848C8.36032 10.9832 11.3347 8.1445 15.0036 8.1445C18.6724 8.1445 21.6469 10.9832 21.6469 14.4848C21.6469 17.9865 18.6725 20.8248 15.0036 20.8248C11.3346 20.8248 8.36032 17.9862 8.36032 14.4848ZM15.0036 20.4114C18.4337 20.4114 21.2138 17.758 21.2138 14.4848C21.2138 11.2117 18.4334 8.55808 15.0036 8.55808C11.5737 8.55808 8.7935 11.2116 8.7935 14.4848C8.7935 17.7581 11.574 20.4114 15.0036 20.4114Z" fill="black"></path>
    <path fill-rule="evenodd" clip-rule="evenodd" d="M13.302 13.2433L14.0549 11.2608H14.4989L15.2738 13.2454H14.8803L14.7534 12.9147H13.8205L13.6797 13.2433H13.302ZM13.9791 12.4764H14.5854L14.2811 11.7017L13.9791 12.4764ZM13.7981 16.1905H15.0341V15.7538H13.4491V17.7355H15.0326V17.3H13.7927V16.9638H15.0332V16.527H13.7981V16.1905ZM15.1206 10.3955C15.1206 10.7214 14.9051 10.9891 14.6837 10.9891H13.4461V9.00452H14.6392C14.8566 9.00452 15.0742 9.1703 15.0742 9.60297C15.0742 9.70521 15.0293 9.89532 14.9437 9.99263C15.0449 10.0851 15.1206 10.2447 15.1206 10.3955ZM14.5937 9.44468H13.7957V9.77255H14.6006C14.7712 9.77265 14.767 9.44468 14.5937 9.44468L14.652 10.2099H13.7977V10.5519H14.6488C14.8352 10.5519 14.8408 10.2099 14.652 10.2099L14.5937 9.44468ZM11.5936 14.8786C11.5936 15.2044 11.3781 15.472 11.1567 15.472H9.875V13.4875H11.1122C11.3297 13.4875 11.547 13.6533 11.547 14.086C11.547 14.1882 11.5022 14.3784 11.4167 14.4756C11.5177 14.5681 11.5936 14.7277 11.5936 14.8786ZM11.0667 13.9279H10.2245V14.2557H11.0735C11.2442 14.2557 11.2399 13.9279 11.0667 13.9279L11.1248 14.6932H10.2264V15.0348H11.1217C11.3081 15.0348 11.3137 14.6932 11.1248 14.6932L11.0667 13.9279ZM11.6445 15.4701L12.3973 13.4876H12.8414L13.6163 15.4723H13.2227L13.0958 15.1416H12.163L12.022 15.4701H11.6445ZM12.3217 14.7034H12.9281L12.6238 13.9287L12.3217 14.7034ZM18.6762 14.1153C18.6769 14.4435 18.5088 14.7425 18.2587 14.743L18.682 15.4711L18.2498 15.4733L17.8345 14.7543H17.4405V15.4707H17.094V13.4886H18.2564C18.5066 13.4883 18.676 13.7629 18.6762 14.1153ZM18.1657 13.9233H17.4405V14.3129H18.1713C18.3814 14.3129 18.3813 13.9233 18.1657 13.9233ZM13.1877 13.4892H13.6731L14.238 14.2958L14.804 13.4892H15.2923L14.4127 14.7037V15.4715H14.0634V14.7018L13.1877 13.4892ZM15.6924 13.9247H16.7486V13.488H15.3435V15.47H16.7469V15.0343H15.6872V14.6979H16.7477V14.2614H15.6924V13.9247ZM15.0759 18.641C15.0763 18.9691 14.9083 19.2685 14.6584 19.2687L15.0815 19.9971L14.6494 19.9989L14.2342 19.2803H13.7963V19.9967H13.4497V18.0143H14.6558C14.9063 18.014 15.0757 18.2886 15.0759 18.641ZM14.5654 18.449H13.7963V18.8386H14.5709C14.781 18.8386 14.7809 18.449 14.5654 18.449Z" fill="black"></path>
  </g>
  <defs>
    <clipPath id="clip0_404_562">
      <rect width="26.25" height="18.9827" fill="white" transform="translate(1.875 5)"></rect>
    </clipPath>
  </defs>
</svg>
