<?xml version="1.0" encoding="UTF-8"?>
<svg xmlns="http://www.w3.org/2000/svg" width="23" height="23" viewBox="0 0 23 23" fill="none">
  <g clip-path="url(#clip0_937_195711)">
    <path d="M6.83452 2.58069C6.77487 2.83474 6.72959 3.04351 6.66994 3.31303C6.78923 3.25338 6.87871 3.2081 6.95382 3.16391C12.4668 0.146162 19.3694 3.26885 20.7137 9.39382C21.2362 11.7842 21.0727 14.1447 19.9814 16.3715C19.1596 18.0594 17.9048 19.3451 16.3208 20.3459C16.2755 20.3757 16.2158 20.3912 16.112 20.4353C16.1716 20.1515 16.2313 19.9272 16.2909 19.6433C16.2015 19.6886 16.1418 19.7185 16.0965 19.7483C10.6586 22.7517 3.93496 19.8974 2.32115 13.8917C1.96216 12.5618 1.9478 11.2175 2.0671 9.87321C2.23168 7.93134 2.94856 6.21259 4.21884 4.73354C4.9059 3.91172 5.72772 3.23902 6.63901 2.67126C6.6854 2.64033 6.74505 2.62487 6.83452 2.58069Z" fill="white"></path>
    <path d="M13.5576 17.0277C13.4825 16.7736 13.4229 16.5648 13.3787 16.3848C12.8706 16.5936 12.4077 16.8333 11.914 16.9824C11.0171 17.2508 10.1356 17.1912 9.28395 16.8034C9.105 16.7283 9.05971 16.6245 9.08954 16.4301C9.26848 15.563 9.34359 14.7124 9.11936 13.8453C9.1039 13.8 9.08954 13.7404 9.07407 13.6962C9.07407 13.6808 9.04425 13.6664 9.01443 13.6067C8.56596 14.264 8.08767 14.877 7.4459 15.3851C6.93779 14.2794 6.93779 13.1439 7.08691 11.9488C6.77321 12.0382 6.48933 12.1277 6.16016 12.2172C6.27945 11.1711 6.66827 10.2897 7.28021 9.45347C7.08581 9.40819 6.92122 9.37836 6.72792 9.34854C7.11673 8.55654 7.65467 7.91478 8.38591 7.36137C8.26662 7.92913 8.29644 8.40742 8.78909 8.75095C8.7438 8.58637 8.69962 8.42178 8.66979 8.24284C8.65433 8.10808 8.65433 7.97442 8.66979 7.85402C8.75926 7.37573 9.10279 7.18133 9.56672 7.31609C9.65619 7.34591 9.74567 7.37573 9.86607 7.43538C9.73131 7.10621 9.50707 6.97256 9.23866 6.85216C9.23866 6.82233 9.23866 6.80687 9.22319 6.77704C9.65619 6.64228 10.0748 6.4777 10.5233 6.37387C10.9121 6.2844 11.3297 6.2844 11.7339 6.23911C12.1228 6.19382 12.421 6.34404 12.675 6.62792C12.7645 6.7174 12.854 6.80687 12.9589 6.89634C12.9744 6.88088 13.0042 6.88088 13.0186 6.86652C12.9888 6.7174 12.9589 6.58264 12.9291 6.41805C12.9744 6.41805 13.0186 6.41805 13.0639 6.43352C13.5267 6.56828 13.9752 6.74722 14.3485 7.06092C14.4082 7.10621 14.4976 7.16586 14.5131 7.23987C14.6026 7.53921 14.6777 7.85292 14.7671 8.1368C14.3341 7.83745 13.8857 7.52375 13.4074 7.19568C13.3323 7.41992 13.2881 7.5845 13.2285 7.76345C12.8849 7.55468 12.5856 7.36027 12.2719 7.19568C12.1526 7.13604 11.988 7.10621 11.8532 7.13604C11.3308 7.22551 10.837 7.41992 10.3885 7.79327C10.4637 7.85292 10.5377 7.89821 10.657 7.98768C10.3278 8.15226 10.0439 8.30138 9.82078 8.63055C10.2096 8.5709 10.2538 8.82496 10.3731 9.04919C10.5675 9.43801 10.911 9.63242 11.344 9.64678C11.8665 9.66224 12.3901 9.64678 12.928 9.64678C12.7789 9.48219 12.5988 9.31761 12.4354 9.13866C12.2564 8.9299 12.0322 8.85478 11.7627 8.88461C11.3893 8.91443 11.0303 8.82496 10.7321 8.58526C11.1507 8.09261 11.5384 8.07715 12.3757 8.52562C12.5105 8.4505 12.6441 8.39086 12.7789 8.31685C12.7943 8.36214 12.8087 8.3765 12.8087 8.3765C12.6894 8.6254 12.7292 8.84963 12.928 9.04919C13.1069 9.22814 13.2715 9.42254 13.4361 9.60149C13.6603 9.5562 13.8846 9.49655 14.1088 9.49655C14.333 9.48109 14.5573 9.52638 14.8113 9.54184C14.4822 9.18285 14.1541 8.85478 13.8249 8.51126C13.8404 8.48143 13.8702 8.45161 13.8846 8.42178C14.0039 8.4969 14.1232 8.55654 14.2579 8.63055C14.4071 8.60073 14.4965 8.30138 14.7064 8.51126C14.8555 8.66038 14.8412 8.8106 14.6909 9.0039C14.8102 9.13866 14.945 9.25796 15.0797 9.42254C15.1096 9.31761 15.125 9.27343 15.1549 9.21378H15.2001C16.276 10.7381 16.5897 12.3818 15.9767 14.2187C15.8276 14.0541 15.6928 13.9193 15.5282 13.7559C15.4233 14.4584 15.2443 15.0703 14.9008 15.6237C14.5738 16.1915 14.1254 16.6543 13.5576 17.0277ZM11.8985 10.8872C12.0775 11.2308 12.2575 11.5445 12.4066 11.8582C12.4817 12.0228 12.5856 12.0526 12.7358 12.0073C13.2583 11.8725 13.6626 11.5445 14.0801 11.2153C14.0956 11.1998 14.1254 11.17 14.1254 11.1402C14.1254 10.916 14.1552 10.6917 14.1099 10.483C14.0945 10.3935 13.9011 10.3482 13.7962 10.2742C13.7211 10.2289 13.6614 10.1693 13.5874 10.1549C13.4825 10.1251 13.3632 10.0798 13.2583 10.1096C12.7502 10.2598 12.3326 10.5592 11.8985 10.8872ZM12.8407 12.68C12.9004 12.8148 13.0053 12.9793 13.0793 13.1583C13.139 13.293 13.2141 13.3229 13.3334 13.2632C13.5576 13.1439 13.7819 13.039 14.0359 12.9197L14.1254 13.6366C14.1552 13.6366 14.185 13.6366 14.2005 13.6211C14.544 13.3527 14.7683 12.9937 14.7981 12.5751C14.8135 12.3806 14.6788 12.0968 14.5142 11.9918C14.3794 11.9024 14.0812 11.9465 13.9166 12.0371C13.5576 12.1873 13.2141 12.4414 12.8407 12.68ZM15.0665 10.1107C14.9019 10.2156 14.7826 10.3051 14.6479 10.3946C14.6026 10.4244 14.5584 10.4841 14.5584 10.5293C14.4236 11.1126 14.7671 11.4859 15.1261 11.8891C15.3658 11.2904 15.2907 10.7083 15.0665 10.1107Z" fill="#3B2050"></path>
    <path d="M12.648 4.19452C12.6779 4.64298 12.7077 5.0307 12.753 5.4648C13.007 5.18092 13.2158 4.95669 13.44 4.7181L13.4853 4.76338C13.3958 5.19639 13.2909 5.64485 13.186 6.09332C11.6915 5.71996 10.2577 5.88455 8.88358 6.61579C8.68917 6.18279 8.4804 5.77961 8.25617 5.28586C8.56987 5.48027 8.83939 5.65921 9.1531 5.85362C9.09345 5.43498 9.0338 5.04727 8.95869 4.61316C9.43698 4.94233 9.85562 5.22621 10.303 5.53991C10.4521 5.09145 10.6023 4.67281 10.7658 4.19562C11.0342 4.61426 11.2739 4.98762 11.528 5.40626C11.9157 5.00087 12.2592 4.62752 12.648 4.19452ZM3.42909 14.264C3.39927 14.1745 3.36945 14.1149 3.33962 14.0398C3.6235 13.9205 3.89192 13.8155 4.19126 13.6962C4.28074 13.9348 4.37021 14.1745 4.47514 14.4429C4.52043 14.5324 4.6099 14.6517 4.62426 14.7865C4.63973 14.9809 4.45968 15.0405 4.31056 15.1002C4.16144 15.1598 4.02668 15.2195 3.86209 15.2791C3.83227 15.204 3.80245 15.1444 3.75716 15.0549C3.92174 14.9798 4.08633 14.9356 4.23545 14.8461C4.2951 14.8163 4.32492 14.7114 4.35474 14.6517C4.27963 14.6219 4.19016 14.5622 4.11615 14.5766C3.96703 14.6064 3.81681 14.6815 3.63786 14.7555C3.60804 14.6959 3.57821 14.6208 3.53293 14.5468C3.69751 14.4717 3.8621 14.4275 3.99575 14.338C4.0554 14.2927 4.08522 14.2032 4.11505 14.1292C4.03993 14.1138 3.95046 14.0541 3.87645 14.0696C3.75826 14.1292 3.60914 14.2043 3.42909 14.264ZM6.64125 16.6543C6.71636 16.714 6.77601 16.7593 6.85002 16.8189C6.61143 17.1183 6.3872 17.4021 6.13314 17.7158C6.28226 17.8351 6.41702 17.9544 6.5816 18.0892C6.53632 18.1488 6.49213 18.2085 6.43248 18.2836L5.75979 17.7457C6.05913 17.3867 6.34301 17.0277 6.64125 16.6543ZM10.631 18.9707C10.81 18.9408 10.8851 19.0005 10.8398 19.1651L10.7945 19.4788C10.7492 19.7472 10.5559 19.9118 10.3019 19.8676C10.0335 19.8378 9.88323 19.6588 9.8987 19.3749C9.91416 19.2104 9.94399 19.0458 9.95835 18.8525C10.0478 18.8679 10.1075 18.8823 10.1969 18.8978C10.1671 19.0623 10.1373 19.2269 10.1373 19.3761C10.1373 19.4655 10.2124 19.5848 10.2864 19.6146C10.4057 19.6743 10.4952 19.5694 10.525 19.4501C10.5714 19.2987 10.6012 19.1353 10.631 18.9707ZM3.77262 12.6502C3.63786 12.1575 3.29433 12.4856 3.02592 12.3961C3.02592 12.3508 3.01045 12.2768 2.99609 12.1874C3.3098 12.1575 3.60914 12.1122 3.89302 12.0824C3.92285 12.2768 3.93831 12.426 3.95267 12.6049C3.90738 12.6204 3.84774 12.6204 3.77262 12.6502ZM5.01308 16.968C4.96779 16.9227 4.93797 16.8631 4.87832 16.8035L5.55102 16.2202C5.67031 16.355 5.78961 16.4886 5.92437 16.6389C5.89455 16.6687 5.8349 16.714 5.78961 16.7582C5.4019 16.4157 5.2815 16.894 5.01308 16.968ZM4.11615 15.7132C4.07086 15.6381 4.04104 15.5785 3.99686 15.5045C4.26527 15.3553 4.51933 15.2051 4.80321 15.056C4.8485 15.1311 4.87832 15.1907 4.93797 15.2648C4.65409 15.415 4.38567 15.5486 4.11615 15.7132ZM5.11802 14.7865C5.19313 14.8914 5.26714 14.9511 5.25278 15.0107C5.23731 15.0703 5.16331 15.1156 5.11802 15.1598C5.07273 15.1145 4.98326 15.0549 4.9689 15.0107C4.95343 14.9511 5.04291 14.8914 5.11802 14.7865Z" fill="#3B2050"></path>
    <path d="M11.8984 10.8872C12.3314 10.5581 12.7501 10.2598 13.2582 10.1251C13.3631 10.0953 13.4824 10.1405 13.5874 10.1704C13.6625 10.2002 13.7221 10.2455 13.7961 10.2897C13.9011 10.3493 14.0955 10.409 14.1098 10.4984C14.1551 10.7072 14.1253 10.9314 14.1253 11.1557C14.1253 11.1855 14.0955 11.2153 14.08 11.2308C13.6768 11.5599 13.2737 11.888 12.7357 12.0228C12.5711 12.0681 12.4817 12.0228 12.4066 11.8736C12.2574 11.5445 12.0785 11.2308 11.8984 10.8872ZM12.8407 12.68C13.214 12.4414 13.5575 12.2017 13.9165 12.0073C14.0955 11.9178 14.3794 11.8725 14.5141 11.962C14.6787 12.067 14.8135 12.3508 14.798 12.5452C14.7682 12.9639 14.5439 13.3218 14.2004 13.5913C14.1849 13.6068 14.1551 13.6068 14.1253 13.6068L14.0358 12.8899C13.7818 13.0092 13.5575 13.1285 13.3333 13.2334C13.214 13.2931 13.1389 13.2632 13.0792 13.1285C13.0041 12.9793 12.9147 12.8004 12.8407 12.68ZM15.0664 10.1107C15.2906 10.7083 15.3801 11.2761 15.1261 11.9035C14.7671 11.5003 14.4235 11.1115 14.5583 10.5437C14.5738 10.4984 14.6179 10.4388 14.6478 10.409C14.7671 10.3051 14.9018 10.23 15.0664 10.1107Z" fill="white"></path>
    <path d="M9.50972 18.7763C9.33078 18.6271 9.15073 18.6271 8.95742 18.7464C8.77848 18.8514 8.70337 19.09 8.76301 19.3142C8.82266 19.5086 8.98725 19.6279 9.21148 19.6279H9.33078C9.21148 19.882 9.06236 19.882 8.73319 19.6279C8.6879 19.6732 8.64372 19.703 8.58407 19.7627C8.86795 20.1515 9.37606 20.1813 9.52518 19.8223C9.65994 19.5086 9.71959 19.1794 9.82453 18.8514C9.70413 18.8204 9.58483 18.8359 9.50972 18.7763ZM9.53954 19.2093C9.43461 19.2689 9.34514 19.3738 9.2402 19.3882C9.09108 19.4037 9.00161 19.2833 9.01597 19.1341C9.03143 18.985 9.1209 18.8801 9.25456 18.9099C9.35949 18.9397 9.44897 19.0447 9.53844 19.1043V19.2093H9.53954ZM4.37005 10.9922H2.98047V11.2308C3.12959 11.2308 3.27981 11.2462 3.42893 11.2462C3.42893 11.3512 3.42893 11.4407 3.4444 11.5147C3.47422 11.7687 3.65317 11.9333 3.90722 11.9333C4.14581 11.9333 4.34022 11.7842 4.37005 11.5445C4.38551 11.3655 4.37005 11.1866 4.37005 10.9922ZM4.02652 11.6196C3.99669 11.6494 3.83211 11.6649 3.81775 11.6196C3.74264 11.5301 3.71281 11.3954 3.65317 11.2462H4.16128C4.10163 11.3954 4.08617 11.5301 4.02652 11.6196ZM8.46477 18.4029C8.31565 18.2681 8.15107 18.2383 7.97213 18.298C7.77772 18.3731 7.67278 18.5366 7.65842 18.7464C7.65842 18.9254 7.73353 19.1054 7.91248 19.1794C8.07706 19.2545 8.24165 19.2987 8.43495 19.3584C8.55425 19.1043 8.67354 18.8359 8.79394 18.5664C8.67354 18.4924 8.55425 18.4769 8.46477 18.4029ZM8.18089 18.985C8.09142 18.985 7.95666 18.8657 7.9423 18.7763C7.91248 18.6415 8.01741 18.5078 8.16653 18.5222C8.27147 18.5377 8.36094 18.6271 8.46588 18.6868V18.7917C8.35984 18.8657 8.27037 18.985 8.18089 18.985ZM7.53802 18.5366C7.71696 18.3123 7.71696 18.0881 7.55348 17.9092C7.3889 17.7302 7.10502 17.7004 6.91061 17.8495C6.7162 17.9986 6.65655 18.2825 6.77585 18.4769C6.91061 18.6857 7.16467 18.7906 7.43308 18.6559C7.34361 18.5962 7.28396 18.5366 7.20885 18.5067C7.05973 18.4614 6.94044 18.3874 6.97026 18.1776C7.16467 18.3278 7.34361 18.4327 7.53802 18.5366ZM7.44855 18.2836C7.29943 18.1941 7.19449 18.119 7.0752 18.045C7.29832 17.939 7.40326 17.9997 7.44855 18.2836ZM11.5864 19.6875C11.4218 19.777 11.3179 19.7174 11.2428 19.5384H11.9001C11.9001 19.2093 11.7808 19.0303 11.5267 18.9861C11.3179 18.9408 11.0937 19.0612 11.0042 19.27C10.9148 19.4942 10.9888 19.7483 11.1688 19.8831C11.3632 20.0178 11.6471 19.9725 11.8261 19.7936C11.7664 19.6577 11.7068 19.6279 11.5864 19.6875ZM11.6471 19.344H11.2439C11.3776 19.1353 11.4671 19.1353 11.6471 19.344ZM5.2968 15.8182C5.19186 15.5939 4.96763 15.489 4.72904 15.5497C4.50481 15.6094 4.34022 15.8182 4.37005 16.0579C4.38551 16.2964 4.56446 16.4909 4.89252 16.5063C4.83287 16.4014 4.81741 16.3274 4.75776 16.2821C4.59318 16.1473 4.56335 16.0733 4.66829 15.8933C4.80305 16.0722 4.92234 16.2368 5.0571 16.4157C5.32663 16.2512 5.40174 16.0424 5.2968 15.8182ZM5.02838 16.102C4.95327 15.9971 4.89362 15.8933 4.81962 15.8027C4.83508 15.7872 4.84944 15.7729 4.8649 15.743C4.94002 15.7883 5.02949 15.8182 5.07367 15.8778C5.11896 15.9375 5.1035 16.0269 5.11896 16.102H5.02838ZM4.11599 13.2334C4.10053 13.0092 3.95141 12.8302 3.72717 12.7849C3.48858 12.7397 3.26435 12.8601 3.17488 13.0534C3.06994 13.292 3.15941 13.546 3.41347 13.7106C3.44329 13.6653 3.48858 13.6057 3.51841 13.5615C3.39911 13.3969 3.27981 13.2478 3.48858 13.0534C3.54823 13.292 3.60788 13.4864 3.66753 13.7106C3.99669 13.6366 4.13145 13.4875 4.11599 13.2334ZM3.77246 13.4278C3.74264 13.2787 3.71281 13.1594 3.68299 13.0092C3.93705 13.1285 3.95251 13.2478 3.77246 13.4278Z" fill="#3B2050"></path>
  </g>
  <defs>
    <clipPath id="clip0_937_195711">
      <rect width="19" height="18.9534" fill="white" transform="translate(2 2)"></rect>
    </clipPath>
  </defs>
</svg>
