<?xml version="1.0" encoding="UTF-8"?>
<svg xmlns="http://www.w3.org/2000/svg" width="23" height="23" viewBox="0 0 23 23" fill="none">
  <g clip-path="url(#clip0_910_179191)">
    <path d="M8.13023 3H12.4868C10.5666 5.67892 8.64334 8.35567 6.72271 11.0342C7.97719 11.0344 9.23146 11.0339 10.4859 11.0346C8.57527 11.9962 6.66461 12.9578 4.75351 13.9188C4.6241 13.7139 4.46433 13.5303 4.32191 13.3346C4.02905 12.9489 3.73597 12.5635 3.4431 12.1779C3.15652 11.7979 2.99871 11.3231 3.00001 10.8471C2.99849 10.3819 3.14872 9.91776 3.42272 9.54165C4.99218 7.36132 6.55947 5.17947 8.13023 3ZM16.268 3H21C17.8717 7.45605 14.7417 11.911 11.6132 16.3668C13.0805 16.3673 14.5481 16.3664 16.0155 16.3673C13.777 17.4945 11.538 18.6211 9.29909 19.7475C8.81156 19.0997 8.31406 18.4594 7.82241 17.8147C7.70774 17.671 7.60585 17.5166 7.52846 17.3497C7.2692 16.8028 7.25944 16.1473 7.49508 15.5908C7.62406 15.2706 7.85124 15.0064 8.04136 14.7224C10.784 10.8152 13.5236 6.90587 16.268 3Z" fill="#FF4B44"></path>
  </g>
  <defs>
    <clipPath id="clip0_910_179191">
      <rect width="18" height="16.7475" fill="white" transform="translate(3 3)"></rect>
    </clipPath>
  </defs>
</svg>
