<?xml version="1.0" encoding="UTF-8"?>
<svg xmlns="http://www.w3.org/2000/svg" width="28" height="28" viewBox="0 0 28 28" fill="none">
  <g clip-path="url(#clip0_405_660)">
    <path d="M14 25.6666C20.4433 25.6666 25.6667 20.4433 25.6667 14C25.6667 7.55666 20.4433 2.33331 14 2.33331C7.55669 2.33331 2.33334 7.55666 2.33334 14C2.33334 20.4433 7.55669 25.6666 14 25.6666Z" fill="#FDE100"></path>
    <path d="M14.0163 25.1396C12.5159 25.1396 11.0603 24.8457 9.68971 24.2661C9.03104 23.9875 8.39578 23.6426 7.8015 23.2412C7.21302 22.8437 6.65963 22.3871 6.15669 21.8841C5.65374 21.3812 5.19716 20.8278 4.79958 20.2393C4.39809 19.6451 4.05333 19.0098 3.77468 18.3511C3.19501 16.9806 2.90109 15.5249 2.90109 14.0245C2.90109 12.5241 3.19501 11.0684 3.77468 9.69786C4.05325 9.03918 4.39809 8.40393 4.79958 7.80965C5.19716 7.22117 5.65374 6.66778 6.15669 6.16484C6.65963 5.66189 7.21302 5.20531 7.8015 4.80773C8.3957 4.40624 9.03104 4.06148 9.68971 3.78282C11.0602 3.20316 12.5159 2.90924 14.0163 2.90924C15.5168 2.90924 16.9724 3.20316 18.343 3.78282C19.0016 4.0614 19.6369 4.40624 20.2312 4.80773C20.8196 5.20531 21.373 5.66189 21.876 6.16484C22.3789 6.66778 22.8355 7.22117 23.2331 7.80965C23.6345 8.40385 23.9793 9.03918 24.2579 9.69786C24.8376 11.0683 25.1315 12.5241 25.1315 14.0245C25.1315 15.5249 24.8376 16.9805 24.2579 18.3511C23.9793 19.0098 23.6345 19.645 23.2331 20.2393C22.8355 20.8278 22.3789 21.3812 21.876 21.8841C21.373 22.3871 20.8196 22.8437 20.2312 23.2412C19.637 23.6426 19.0016 23.9875 18.343 24.2661C16.9725 24.8457 15.5168 25.1396 14.0163 25.1396ZM14.0163 3.50327C8.21491 3.50327 3.49513 8.22306 3.49513 14.0245C3.49513 19.8259 8.21491 24.5457 14.0163 24.5457C19.8178 24.5457 24.5375 19.8259 24.5375 14.0245C24.5375 8.22306 19.8178 3.50327 14.0163 3.50327Z" fill="black"></path>
    <path d="M10.5206 5.21338L13.3843 14.0712H14.6188L17.4442 5.21338H15.7175L13.9951 11.1269L12.2854 5.21338H10.5205H10.5206ZM6.09359 9.5742V18.3136H8.83628C11.0593 18.3136 12.1835 15.6239 10.6393 13.9651V13.9482C10.6393 13.9397 10.652 13.9354 10.652 13.9354C11.9374 12.4888 11.3944 9.9348 9.01021 9.5742H6.09351H6.09359ZM17.4442 9.5742V18.3136H20.2018C22.4205 18.3136 23.5448 15.6239 22.0048 13.9651V13.9482C22.0048 13.9397 22.0175 13.9354 22.0175 13.9354C23.2987 12.4888 22.7599 9.9348 20.3715 9.5742H17.4441H17.4442ZM7.69939 11.2075H9.04849C9.92665 11.2075 10.1048 12.8875 9.10367 13.1548H7.69939V11.2075ZM19.0734 11.2075H20.414C21.2879 11.2075 21.4703 12.8875 20.4649 13.1548H19.0734V11.2075ZM7.69939 14.7202H8.89154C9.88004 14.7202 10.2449 16.519 8.95945 16.7735H7.69947V14.7202H7.69939ZM19.0734 14.7202H20.2528C21.2413 14.7202 21.6061 16.519 20.3207 16.7735H19.0734V14.7202H19.0734ZM12.2855 18.496C11.577 18.496 11 19.0772 11 19.7857V21.7202C11 22.4287 11.577 23.0057 12.2855 23.0057H12.3109C13.0194 23.0057 13.5964 22.4287 13.5964 21.7202V19.7857C13.5964 19.0772 13.0194 18.496 12.3109 18.496H12.2855ZM15.6922 18.496C14.9837 18.496 14.3812 19.0475 14.3812 19.7559V20.0741C14.3812 20.7826 15.0261 21.3553 15.6922 21.3765C15.6922 21.3765 15.9637 21.3723 16.1037 21.2959L16.1164 21.7329C16.1164 21.9535 15.9382 22.1486 15.7176 22.1444C15.5394 22.1359 15.2934 22.0469 15.2934 21.8262C15.2934 21.8262 15.3358 21.5336 15.1237 21.5336H14.3812C14.3728 21.6057 14.3812 21.6481 14.3812 21.7457C14.3812 22.416 14.954 23.0057 15.7304 23.0057C16.4643 22.9972 16.9776 22.4372 16.9776 21.7075V19.7687C16.9776 19.0602 16.4261 18.496 15.7176 18.496H15.6922ZM15.7049 19.4123C15.9382 19.4123 16.1164 19.5905 16.1164 19.8111V20.0614C16.1164 20.2821 15.9382 20.4602 15.7176 20.4602C15.4843 20.4602 15.2934 20.2821 15.2934 20.0614V19.8111C15.2934 19.5905 15.4843 19.4123 15.7049 19.4123ZM12.2855 19.4251C12.5188 19.4251 12.7097 19.6032 12.7097 19.8239V21.7457C12.7097 21.9663 12.5188 22.1445 12.2982 22.1445C12.0649 22.1445 11.8867 21.9663 11.8867 21.7457V19.8239C11.8867 19.6032 12.0649 19.4251 12.2855 19.4251Z" fill="black"></path>
  </g>
  <defs>
    <clipPath id="clip0_405_660">
      <rect width="23.3333" height="23.3333" fill="white" transform="translate(2.33334 2.33331)"></rect>
    </clipPath>
  </defs>
</svg>
