<?xml version="1.0" encoding="UTF-8"?>
<svg xmlns="http://www.w3.org/2000/svg" width="24" height="24" viewBox="0 0 24 24" fill="none">
  <g clip-path="url(#clip0_417_506)">
    <path fill-rule="evenodd" clip-rule="evenodd" d="M13.1896 23.0279C13.0944 23.3097 12.7843 24 12.0356 24C11.1853 24 10.8886 23.0907 10.8741 23.0534L10.8497 22.9662C10.8497 22.9662 11.5825 23.0263 11.986 23.0263C12.3895 23.0263 13.0787 22.9876 13.1917 22.9662L13.1894 23.0279H13.1896Z" fill="black"></path>
    <path fill-rule="evenodd" clip-rule="evenodd" d="M15.4215 22.5795L15.5972 22.6025C15.3887 23.1389 15.0144 23.7401 14.2792 23.7401C13.544 23.7401 13.2148 23.3329 13.0642 23.0592L12.9413 22.9847C12.9413 22.9847 14.1722 22.9446 15.4216 22.5793L15.4215 22.5795ZM8.67489 22.5795L8.49948 22.6025C8.70763 23.1389 9.08207 23.7401 9.81762 23.7401C10.5532 23.7401 10.9135 23.3102 11.0712 23.0592L11.1551 22.9847C11.1551 22.9847 9.9245 22.9446 8.67479 22.5793L8.67489 22.5795Z" fill="black"></path>
    <path fill-rule="evenodd" clip-rule="evenodd" d="M12.6321 23.0838C12.5169 23.2486 12.44 23.2409 12.3009 23.2409C12.2314 23.2409 12.127 23.2979 12.1303 23.4008C12.1325 23.4817 12.1992 23.5492 12.3127 23.5492C12.5638 23.5492 12.7552 23.2027 12.8091 23.0562C12.8091 23.0562 12.9577 23.0498 13.0011 23.0456C13.0011 23.0456 12.7347 23.8283 12.0445 23.8283C11.3543 23.8283 11.0711 23.0541 11.0711 23.0541C11.0711 23.0541 11.6531 23.0897 11.9867 23.0897C12.3202 23.0897 12.5321 23.0882 12.632 23.0838H12.6321ZM15.3295 22.7395C14.8781 22.8595 14.5578 22.9565 13.8002 23.0474C13.8002 23.0474 13.8238 23.1247 13.9885 23.116C14.0519 23.1129 14.0599 23.0974 14.0835 23.0932C14.1302 23.0849 14.202 23.1333 14.1935 23.2146C14.1874 23.2713 14.138 23.343 13.9702 23.343C13.8024 23.343 13.6065 23.2074 13.508 23.0818C13.508 23.0818 13.4071 23.1046 13.303 23.1105C13.303 23.1105 13.6253 23.5562 14.2612 23.5562C14.961 23.5563 15.2193 22.9392 15.3293 22.7394L15.3295 22.7395Z" fill="#FFF22D"></path>
    <path fill-rule="evenodd" clip-rule="evenodd" d="M14.8602 23.1752C14.8602 23.067 14.8264 22.967 14.769 22.8842C14.524 22.9411 14.2439 22.9933 13.8336 23.0436C13.8306 23.0556 13.828 23.0678 13.8254 23.08C13.8501 23.0998 13.8981 23.1211 13.9886 23.1164C14.052 23.1133 14.06 23.0978 14.0835 23.0936C14.1303 23.0852 14.2021 23.1336 14.1936 23.215C14.1875 23.2717 14.1381 23.3434 13.9703 23.3434C13.9272 23.3434 13.8817 23.3344 13.837 23.3187C13.859 23.394 13.8979 23.4621 13.9493 23.5187C14.0512 23.5442 14.156 23.5569 14.2612 23.5566C14.4855 23.5566 14.6642 23.4932 14.8076 23.4004C14.8423 23.3303 14.8603 23.2533 14.8602 23.1753V23.1752Z" fill="#FADE2F"></path>
    <path fill-rule="evenodd" clip-rule="evenodd" d="M14.853 23.1752C14.8532 23.0718 14.8212 22.9709 14.7615 22.886C14.5197 22.9416 14.2434 22.993 13.8414 23.0425C13.8376 23.0564 13.8344 23.0705 13.8321 23.0847C13.8584 23.103 13.9056 23.1207 13.9889 23.1161C14.0522 23.113 14.0603 23.0975 14.0838 23.0933C14.1305 23.085 14.2023 23.1334 14.1938 23.2147C14.1877 23.2714 14.1383 23.3431 13.9705 23.3431C13.93 23.3431 13.8876 23.3351 13.8455 23.3214C13.8686 23.3972 13.9089 23.4653 13.9623 23.5217C14.0526 23.5435 14.1525 23.5564 14.2615 23.5564C14.4797 23.5564 14.6548 23.4966 14.7961 23.4079C14.8335 23.3359 14.853 23.2561 14.853 23.1753V23.1752Z" fill="#FBE02F"></path>
    <path fill-rule="evenodd" clip-rule="evenodd" d="M14.8458 23.1752C14.8458 23.0683 14.812 22.9689 14.7541 22.8876C14.5158 22.9424 14.2425 22.993 13.8492 23.0418C13.845 23.0572 13.8411 23.073 13.8385 23.089C13.8659 23.1057 13.9121 23.1201 13.9889 23.1163C14.0522 23.1131 14.0602 23.0976 14.0838 23.0935C14.1305 23.0851 14.2023 23.1335 14.1938 23.2149C14.1877 23.2715 14.1383 23.3433 13.9705 23.3433C13.9308 23.3427 13.8915 23.3363 13.8538 23.3241C13.8777 23.4002 13.9196 23.4687 13.9749 23.5247C14.0622 23.5444 14.1576 23.5564 14.2614 23.5564C14.4734 23.5564 14.6449 23.4997 14.7838 23.4152C14.8247 23.3416 14.846 23.2591 14.8458 23.1751V23.1752Z" fill="#FCE22F"></path>
    <path fill-rule="evenodd" clip-rule="evenodd" d="M8.76736 22.7394C9.21839 22.8595 9.53892 22.9564 10.2964 23.0474C10.2964 23.0474 10.2728 23.1246 10.1081 23.116C10.0446 23.1128 10.0365 23.0973 10.0129 23.0932C9.96633 23.0848 9.89441 23.1332 9.9032 23.2146C9.90924 23.2712 9.95838 23.343 10.1262 23.343C10.294 23.343 10.4899 23.2073 10.5883 23.0818C10.5883 23.0818 10.6896 23.1046 10.7937 23.1104C10.7937 23.1104 10.4713 23.5562 9.8353 23.5562C9.13545 23.5563 8.8771 22.9391 8.76725 22.7393L8.76736 22.7394ZM11.9779 19.0675C14.389 19.0675 17.0608 17.6065 18.934 15.5001C19.1366 15.2726 19.4807 14.8408 20.296 14.8408C21.1113 14.8408 22.1951 15.5742 22.0676 16.9098C21.9747 17.8835 20.5647 20.078 18.1535 21.4307C15.7424 22.7835 13.5219 23.0746 11.9781 23.0746C10.4342 23.0746 8.21379 22.7836 5.80239 21.4307C3.39121 20.078 1.98134 17.8835 1.88823 16.9098C1.76059 15.5742 2.84452 14.8408 3.65994 14.8408C4.47536 14.8408 4.8194 15.2727 5.02193 15.5001C6.89512 17.6065 9.56667 19.0675 11.978 19.0675H11.9779Z" fill="#FFF22D"></path>
    <path d="M11.9779 18.9819C13.1461 18.9819 14.3778 18.6339 15.5487 18.0334C16.7688 17.4078 17.9218 16.5091 18.869 15.444C18.9734 15.327 19.1136 15.1572 19.338 15.0139C19.5637 14.8696 19.8687 14.7554 20.296 14.7554C20.3403 14.7554 20.3875 14.7578 20.4371 14.7623C20.8302 14.799 21.2622 14.9866 21.5955 15.3131C21.929 15.64 22.1646 16.1054 22.1646 16.6968C22.1646 16.7665 22.1612 16.8402 22.1536 16.9179C22.1001 17.477 21.6296 18.4217 20.7981 19.3824C20.1455 20.136 19.2691 20.9031 18.1963 21.5048C16.9824 22.1857 15.8166 22.5998 14.7601 22.8432C12.9299 23.2655 11.0258 23.2655 9.19572 22.8432C8.13943 22.5998 6.9735 22.1857 5.7596 21.5048C4.68678 20.903 3.81035 20.1359 3.15785 19.3824C2.32623 18.4217 1.8556 17.4772 1.80211 16.9179C1.79491 16.8444 1.7913 16.7706 1.79109 16.6968C1.79109 16.1054 2.02667 15.64 2.36044 15.3131C2.69358 14.9866 3.12554 14.799 3.51842 14.7623C3.56831 14.7578 3.61556 14.7554 3.65983 14.7554C4.08682 14.7554 4.3922 14.8696 4.61772 15.0139C4.84217 15.1572 4.98263 15.327 5.08686 15.444C6.03416 16.5091 7.18726 17.4077 8.4071 18.0334C9.578 18.6339 10.8094 18.9819 11.9779 18.9819ZM11.9779 19.1531C10.781 19.1531 9.52218 18.7982 8.32702 18.1855C7.08907 17.5506 5.91859 16.6378 4.95657 15.5565C4.85838 15.4461 4.72544 15.2861 4.52344 15.1569C4.3225 15.0285 4.04805 14.9268 3.65973 14.9268C3.61799 14.9268 3.57626 14.9285 3.53473 14.9323C3.17861 14.9653 2.78626 15.1365 2.48236 15.4342C2.17889 15.7316 1.9646 16.156 1.9646 16.6969C1.9646 16.7655 1.96778 16.8339 1.97424 16.902C2.02476 17.4311 2.4812 18.3381 3.2893 19.2716C3.93037 20.0119 4.79133 20.7656 5.84508 21.3567C7.04246 22.0284 8.19271 22.4366 9.23512 22.6768C10.1343 22.8842 11.0546 22.989 11.978 22.9891C12.9013 22.9891 13.8217 22.8842 14.7208 22.6768C15.7635 22.4366 16.9136 22.0284 18.1108 21.3567C19.1646 20.7655 20.0257 20.0119 20.6667 19.2713C21.4749 18.3378 21.9314 17.4313 21.9818 16.902C21.9883 16.8342 21.9914 16.7655 21.9914 16.6969C21.9914 16.1561 21.7769 15.7317 21.4735 15.4342C21.1697 15.1365 20.7772 14.9653 20.4211 14.9323C20.3796 14.9285 20.3378 14.9268 20.2961 14.9268C19.9079 14.9268 19.6333 15.0285 19.4324 15.1569C19.2303 15.2861 19.0973 15.4461 18.9994 15.5565C18.0374 16.6378 16.8671 17.5505 15.6289 18.1852C14.434 18.7981 13.1749 19.1531 11.978 19.1531H11.9779Z" fill="black"></path>
    <path fill-rule="evenodd" clip-rule="evenodd" d="M4.75097 15.7094L4.72279 15.6779C4.53086 15.4604 4.26795 15.1622 3.63992 15.1622C3.27363 15.1622 2.85893 15.3556 2.58331 15.6546C2.37728 15.8779 2.1435 16.2705 2.20102 16.8707C2.2793 17.6908 3.5985 19.8176 5.94761 21.1357C7.84103 22.1979 9.86316 22.7367 11.9582 22.7367C14.0532 22.7367 16.0751 22.1979 17.9687 21.1357C20.3177 19.8177 21.637 17.6908 21.7153 16.8707C21.7725 16.2705 21.539 15.878 21.3327 15.6546C21.0574 15.3556 20.6424 15.1622 20.2764 15.1622C19.6486 15.1622 19.3856 15.4604 19.1934 15.6779L19.1655 15.7094C17.1467 17.9791 14.385 19.3888 11.9583 19.3888C9.5315 19.3888 6.76981 17.9792 4.75118 15.7094H4.75097Z" fill="#C23227"></path>
    <path fill-rule="evenodd" clip-rule="evenodd" d="M19.724 13.0323C19.724 11.8903 20.6615 10.9645 21.8186 10.9645C22.9756 10.9645 23.9134 11.8903 23.9134 13.0323C23.9134 14.1744 22.9756 15.1 21.8186 15.1C20.6615 15.1 19.724 14.1743 19.724 13.0323Z" fill="#FFF22D"></path>
    <path d="M19.637 13.0324C19.637 12.4377 19.8812 11.8993 20.2762 11.5095C20.6706 11.1197 21.2162 10.8788 21.8186 10.8788C22.421 10.8788 22.9664 11.1198 23.3613 11.5095C23.7562 11.8992 24.0001 12.4377 24.0001 13.0324C24.0001 13.627 23.7559 14.1653 23.3613 14.5549C22.9666 14.9445 22.4211 15.1855 21.8186 15.1855C21.2161 15.1855 20.6709 14.9445 20.2762 14.5549C19.8662 14.1516 19.6363 13.6036 19.637 13.0324ZM19.8105 13.0324C19.8105 13.5795 20.0354 14.0751 20.3986 14.4338C20.7619 14.7926 21.264 15.0144 21.8184 15.0144C22.3727 15.0144 22.8746 14.7924 23.2384 14.4338C23.6155 14.0625 23.8272 13.5581 23.8265 13.0324C23.8272 12.5065 23.6155 12.0021 23.2384 11.6308C22.8749 11.2722 22.3728 11.0503 21.8184 11.0503C21.2639 11.0503 20.7621 11.2722 20.3986 11.6308C20.0213 12.0021 19.8097 12.5065 19.8105 13.0324Z" fill="black"></path>
    <path fill-rule="evenodd" clip-rule="evenodd" d="M0.0866547 13.0357C0.0866547 11.8939 1.02452 10.968 2.18144 10.968C3.33836 10.968 4.27612 11.8938 4.27612 13.0357C4.27612 14.1775 3.33825 15.1035 2.18144 15.1035C1.02463 15.1035 0.0866547 14.1778 0.0866547 13.0357Z" fill="#FFF22D"></path>
    <path d="M0 13.0356C0 12.4412 0.244159 11.9028 0.638944 11.5131C1.0476 11.1086 1.60276 10.8817 2.18143 10.8824C2.78373 10.8824 3.32914 11.1236 3.72382 11.5131C4.13354 11.9165 4.3634 12.4644 4.36265 13.0356C4.36265 13.6303 4.1185 14.1687 3.72382 14.5585C3.31516 14.9629 2.7601 15.19 2.18143 15.1894C1.57903 15.1894 1.03373 14.9482 0.638944 14.5585C0.244159 14.1688 0 13.6302 0 13.0356ZM0.1734 13.0356C0.172659 13.5615 0.384298 14.066 0.7615 14.4374C1.13764 14.8097 1.64863 15.0187 2.18133 15.0179C2.73585 15.0179 3.23762 14.7959 3.60105 14.4374C3.97825 14.066 4.18989 13.5616 4.18915 13.0356C4.18915 12.4884 3.96437 11.9929 3.60105 11.6342C3.23772 11.2754 2.73585 11.0536 2.18133 11.0536C1.64863 11.0529 1.13764 11.2619 0.7615 11.6342C0.384404 12.0055 0.172765 12.5099 0.1734 13.0356Z" fill="black"></path>
    <path fill-rule="evenodd" clip-rule="evenodd" d="M22.3919 7.4707L22.4035 6.91693C22.5747 7.0445 22.9007 7.04952 23.0915 6.84834C23.1793 6.75643 23.2283 6.616 23.2205 6.4693C23.2097 6.29771 23.1357 6.13595 23.0123 6.01455C22.3068 5.33594 21.6832 4.65753 21.6832 4.65753C21.6202 4.55715 21.5163 4.48301 21.4597 4.45802C21.3714 4.41923 21.0664 4.28142 20.8337 4.63076C20.6228 4.94738 20.6541 5.39554 20.6921 5.55824L21.354 6.44598C21.5797 6.72851 22.2159 7.33059 22.3921 7.4706L22.3919 7.4707ZM8.28773 1.7125C9.11946 1.43729 9.87853 1.21018 10.9019 1.12036L8.28773 1.7125Z" fill="black"></path>
    <path fill-rule="evenodd" clip-rule="evenodd" d="M8.28774 1.71487C9.11946 1.43935 9.87853 1.21255 10.9019 1.12262L11.0578 1.03573C10.4856 0.591756 9.91793 0.289673 9.35293 0.289673C8.99807 0.289673 8.27683 0.527241 8.11465 1.78305L8.28774 1.71487ZM15.6703 1.71487C14.8385 1.43935 14.0798 1.21255 13.0563 1.12262L12.9004 1.03573C13.4725 0.591756 14.0399 0.289673 14.605 0.289673C14.96 0.289673 15.6816 0.527241 15.8434 1.78305L15.6703 1.71487ZM11.2964 0.996416C11.4656 0.987842 11.8558 0.979373 12.0121 0.979373C12.1683 0.979373 12.5992 0.999762 12.6936 1.00677L11.2964 0.996416Z" fill="black"></path>
    <path fill-rule="evenodd" clip-rule="evenodd" d="M11.0387 1.07993C11.457 0.288281 11.8404 0 12.0523 0C12.3175 0 12.6279 0.41658 12.8712 0.952676L12.9227 1.07334L12.711 1.05609C12.5668 1.03058 12.1679 1.02629 12.012 1.02629C11.856 1.02629 11.5175 1.02629 11.3136 1.04333L11.0385 1.07983L11.0387 1.07993Z" fill="black"></path>
    <path fill-rule="evenodd" clip-rule="evenodd" d="M10.2202 19.8238L9.84569 21.2029L9.14753 19.5402L8.71302 19.4252L8.1835 21.3755L8.65487 21.5002L9.03228 20.1098L9.74156 21.7876L10.1649 21.8995L10.6943 19.949L10.2201 19.8238H10.2202ZM11.8477 20.0702L11.3106 20.0424L11.2038 22.0586L11.7407 22.0864L11.8477 20.0702ZM12.3299 20.053L12.3675 20.3187L12.9403 20.2389L13.1872 21.9727L13.7197 21.8988L13.4727 20.1653L14.037 20.0868L13.9995 19.8215L12.3299 20.053ZM17.8708 19.231C18.1309 19.6809 18.0785 20.0083 17.6774 20.237L17.4872 20.3453L16.735 19.0598L16.9405 18.9425C17.4206 18.669 17.6914 18.9124 17.8708 19.231ZM16.8247 18.6979L16.1316 19.0929L17.1577 20.8474L17.8457 20.4553C18.5617 20.0471 18.6279 19.4313 18.3472 18.9394C18.0082 18.3542 17.4519 18.3405 16.8247 18.6978V18.6979ZM15.5263 21.1821L15.3221 20.5621L15.9283 20.3676L15.8432 20.1096L15.2372 20.304L15.0628 19.7746L15.6856 19.5751L15.6017 19.3199L14.465 19.6846L15.0969 21.6047L16.3506 21.2028L16.2655 20.9449L15.5263 21.1822V21.1821ZM7.74465 18.9575L7.13897 20.036C6.95625 20.3612 6.76791 20.5671 6.45977 20.3914C6.15396 20.2243 6.22472 19.9749 6.41179 19.6413L7.01874 18.56L6.52968 18.2924L5.88851 19.434C5.53493 20.0639 5.98088 20.452 6.32652 20.641C6.69874 20.8447 7.23917 20.9962 7.58979 20.3717L8.23371 19.2247L7.74476 18.9572L7.74465 18.9575ZM7.39817 7.09767V16.5514L11.9779 19.4575L16.5573 16.5514L16.5633 7.11252C16.4181 6.98422 16.1131 6.70336 15.873 6.55823H8.06179C7.86212 6.69625 7.46596 7.02489 7.39827 7.09757L7.39817 7.09767Z" fill="#FFF22D"></path>
    <path d="M7.48482 7.09766V16.5049L11.9778 19.3559L16.4707 16.5049L16.4763 7.1125H16.6499L16.644 16.5514V16.5979L16.6041 16.6234L12.0244 19.5295L11.9777 19.5592L11.9308 19.5295L7.35135 16.6234L7.3112 16.5979V7.09766H7.48471H7.48482Z" fill="black"></path>
    <path d="M16.5053 7.17653C16.464 7.13994 16.4952 7.16723 16.4513 7.12812H16.4508C16.2945 6.98874 16.0327 6.75514 15.8275 6.63123L15.9179 6.48547C16.1395 6.61963 16.4075 6.85856 16.5675 7.00108H16.567L16.6212 7.04886L16.5052 7.17664L16.5053 7.17653Z" fill="black"></path>
    <path d="M15.8728 6.64383H8.06168V6.47266H15.8728V6.64383Z" fill="black"></path>
    <path d="M8.11136 6.62847C8.01783 6.69329 7.88574 6.79577 7.76498 6.89385C7.62357 7.00887 7.49604 7.11845 7.46161 7.15546L7.33429 7.03982C7.37253 6.99841 7.50737 6.88224 7.65524 6.7621C7.78373 6.65764 7.92069 6.55098 8.01158 6.48804L8.11136 6.62857V6.62847Z" fill="black"></path>
    <path fill-rule="evenodd" clip-rule="evenodd" d="M12.3015 11.1414C12.2696 11.1276 12.1556 11.2182 12.1035 11.2997C12.0514 11.3811 12.0361 11.4859 12.11 11.5244C12.1837 11.5629 12.2766 11.513 12.2988 11.3854C12.3116 11.3105 12.3363 11.1563 12.3015 11.1415V11.1414ZM11.4248 11.3852C11.4439 11.5135 11.5397 11.5629 11.6135 11.5242C11.6872 11.4857 11.6722 11.3808 11.6201 11.2995C11.5678 11.2181 11.4605 11.1274 11.4285 11.1412C11.3938 11.1562 11.414 11.3124 11.4248 11.3851V11.3852ZM11.8845 12.6428C12.0385 12.3935 12.1024 12.1345 12.1024 12.1345H11.6622C11.6622 12.1345 11.7327 12.3999 11.8845 12.6428ZM11.9604 10.7702L12.316 10.1593L12.5935 10.7702H13.0534C12.7758 11.0272 12.663 11.4151 12.663 11.6721V11.9547C12.663 12.0747 12.6024 12.2715 12.6024 12.2715C12.6024 12.2715 13.0006 12.5719 13.0621 12.6225C13.0881 12.6439 13.1156 12.6564 13.0968 12.7084C13.0652 12.7968 12.796 12.9152 12.7673 12.9393C12.7067 12.9908 12.6902 13.0243 12.708 13.0766C12.7255 13.1278 12.7759 13.1364 12.88 13.1021C12.9842 13.068 13.201 12.9568 13.3834 12.8796C13.5653 12.8026 13.8082 12.8195 13.8082 12.8195V12.4774H13.1231V11.3813L13.0015 11.19L13.3053 10.659L13.6085 11.1929L13.4872 11.3811V11.9548H13.8385V11.3811L13.7172 11.1929L14.0206 10.6618L14.3241 11.1929L14.2028 11.3811V11.9548H14.5541V11.3811L14.4328 11.1929L14.7363 10.6618L15.0398 11.1929L14.9182 11.3811L14.9219 12.4763L14.233 12.4766V12.9799C14.3893 13.1253 14.5368 13.4532 14.5368 13.65C14.5368 13.8467 14.4067 13.9326 14.4067 13.9326C14.4499 14.0868 14.4414 14.1508 14.4239 14.2923C14.4062 14.4366 14.2242 14.6602 14.2242 14.6602V17.2709C14.2242 17.4486 13.8081 17.4317 13.8081 17.2796V14.7204C13.5739 14.4637 12.9319 14.2666 12.9319 14.2666C12.6977 14.4975 12.5504 14.9001 12.5504 14.9001C12.6545 14.9687 12.8108 14.9001 12.8714 14.8315C12.9319 14.7631 13.0535 14.746 13.123 14.7886C13.1923 14.8315 13.2097 14.8488 13.1836 14.9516C13.1577 15.0541 13.1141 15.2247 13.1141 15.3443C13.1141 15.4639 13.2532 15.4383 13.357 15.4471C13.5653 15.4643 13.5999 15.6952 13.5827 15.8237C13.5653 15.9521 13.5047 16.2264 13.5047 16.3974C13.5047 16.5683 13.5132 16.7398 13.5306 16.8342C13.5478 16.9282 13.5827 17.031 13.5737 17.151C13.5619 17.3133 13.461 17.3395 13.3569 17.2366C13.253 17.1338 11.8044 15.6097 11.8044 15.6097C11.709 15.9176 12.1078 16.4489 12.2381 16.6115C12.3682 16.7744 12.3594 16.8941 12.2469 17.0053C12.134 17.1165 11.9172 17.1765 11.874 17.2793C11.8305 17.3821 11.9781 17.6902 12.2816 18.0753C12.585 18.4607 11.9345 18.7175 11.5442 18.7947C11.1539 18.8717 11.1539 18.606 11.18 18.4607C11.2059 18.315 11.2059 18.2295 11.1973 18.101C11.1886 17.9728 11.0672 17.7931 10.9023 17.5786C10.7375 17.3649 10.7375 17.1678 10.807 16.6712C10.8763 16.1748 10.8591 15.8578 10.8591 15.8578C10.8591 15.8578 10.6856 15.8665 10.434 15.8578C10.1824 15.8494 9.97428 15.7047 9.95702 15.1053C9.93975 14.5058 9.92524 13.0763 9.88478 12.9276C9.84442 12.7793 9.68246 12.7506 9.61308 12.7337C9.5437 12.7164 9.53861 12.6136 9.60799 12.5794C9.7887 12.4902 10.0063 12.2712 9.92535 12.1342C9.84442 11.9971 9.52643 12.0256 9.31246 12.1283C9.09849 12.2311 8.87298 12.4535 8.81514 12.5166C8.7573 12.5793 8.71102 12.5793 8.71673 12.5107C8.72245 12.4421 8.67638 12.1169 8.64746 12.0028C8.61854 11.8886 8.51431 11.6718 8.47967 11.6147C8.44504 11.5576 8.47967 11.5348 8.53751 11.5576C8.59534 11.5805 8.72256 11.632 8.84406 11.6662C8.96555 11.7004 9.08101 11.6434 9.13885 11.5292C9.19668 11.415 9.30642 11.1697 9.36426 11.0612C9.42209 10.9526 9.51467 10.9754 9.58988 10.9927C9.66519 11.0097 9.73458 11.0554 9.80374 11.084C9.87313 11.1126 9.93096 11.1069 9.95405 11.0726C9.97725 11.0384 10.0063 11.0269 10.0466 10.9411C10.087 10.8556 10.1391 10.8955 10.1448 10.9297C10.3521 12.1577 10.8909 12.2142 10.8909 12.2142C10.8099 12.4196 10.6192 12.745 10.573 12.8251C10.5267 12.9048 10.5094 13.0132 10.4979 13.099C10.4863 13.1845 10.5267 13.9948 10.5845 14.292C10.6425 14.5887 10.8275 14.4747 10.8852 14.3834C10.943 14.292 11.1224 13.9153 11.1224 13.9153C11.1224 13.9153 11.1687 13.8125 11.1687 13.7267C11.1687 13.6409 11.0183 13.4527 10.9835 13.3957C10.9489 13.3387 10.8217 13.2245 10.8217 12.939C10.8217 12.6536 11.0818 12.4537 11.1745 12.3796C11.267 12.3055 11.267 12.2029 11.2555 12.1402C11.2148 11.9192 10.9778 11.4551 10.8623 11.278C10.7466 11.1012 10.5212 10.7643 10.5212 10.7643H10.9895L11.2902 10.1478L11.6197 10.7671L11.9603 10.7702H11.9604ZM13.8079 13.881V13.53C13.8079 13.53 13.7125 13.3844 13.4782 13.3844C13.2439 13.3844 13.1054 13.453 13.1054 13.5128C13.1054 13.6072 13.3136 13.8809 13.8078 13.8809L13.8079 13.881ZM7.75694 9.45571H16.206V10.0246H7.75694V9.45571ZM7.75694 9.16335V6.89746H16.206V9.16335H7.75694Z" fill="#C23227"></path>
    <path fill-rule="evenodd" clip-rule="evenodd" d="M14.5428 9.23076V8.84398H13.9291V8.5946H14.43V7.49867H13.9702L13.814 7.1991L13.6577 7.49867H13.1982V8.5946H13.6988V8.84398H12.4967V8.5946H12.9974V7.49867H12.5377L12.3814 7.1991L12.2254 7.49867H11.7657V8.5946H12.2663V8.84398H11.0407V8.5946H11.5414V7.49867H11.0816L10.9256 7.1991L10.7696 7.49867H10.3097V8.5946H10.8103V8.84398L9.84134 8.8466L8.87582 8.62388L9.07052 9.23076H14.5426H14.5428Z" fill="#FFF22D"></path>
    <path fill-rule="evenodd" clip-rule="evenodd" d="M9.20949 8.57466L9.85702 8.73171L10.2043 7.76942V7.52683L9.2096 8.57476L9.20949 8.57466ZM10.7719 1.05938C9.76889 1.14742 9.15155 1.35791 8.33635 1.62758C8.39694 1.28137 8.4785 1.07611 8.62023 0.872314C8.60879 1.05133 8.75687 1.24205 9.05167 1.24205C9.34646 1.24205 9.51043 1.07433 9.51043 0.973532C9.51043 0.872733 9.44846 0.72739 9.28979 0.72739C9.13111 0.72739 9.09721 0.839272 9.10844 0.884025C9.11988 0.928883 9.08577 0.940071 9.04054 0.95126C8.9951 0.962343 8.87043 0.895109 8.91576 0.738578C8.96555 0.566467 9.17634 0.472883 9.42558 0.472883C9.42548 0.472569 10.0187 0.449251 10.7719 1.05927V1.05938ZM15.6289 1.63448C14.8137 1.36449 14.1686 1.15411 13.1656 1.06597C13.6273 0.748302 14.0586 0.478634 14.5325 0.478634C14.7817 0.478634 14.9927 0.572218 15.0423 0.744329C15.0876 0.900965 14.9628 0.96799 14.9175 0.956697C14.8725 0.945404 14.8384 0.93432 14.8496 0.889567C14.8608 0.844919 14.8268 0.732931 14.6683 0.732931C14.5097 0.732931 14.4477 0.878274 14.4477 0.979073C14.4477 1.07987 14.6116 1.24759 14.9063 1.24759C15.201 1.24759 15.3491 1.05676 15.3378 0.877856C15.4793 1.08186 15.5682 1.28827 15.6288 1.63448H15.6289ZM11.39 0.875347C11.3631 0.917799 11.3394 0.949378 11.3105 0.996745C11.5441 0.98702 11.7779 0.981374 12.0118 0.979805C12.1649 0.979805 12.5873 0.999986 12.6798 1.00668C12.5304 0.66507 12.2483 0.193385 12.0513 0.193385C12.0124 0.193385 11.9264 0.173413 11.7645 0.35734C11.7645 0.35734 11.7394 0.438586 11.8422 0.423006C11.9725 0.403348 12.0217 0.536143 12.0121 0.602123C11.9893 0.755726 11.8081 0.904102 11.6266 0.904102C11.4452 0.904102 11.3899 0.875347 11.3899 0.875347H11.39Z" fill="#FFF22D"></path>
    <path fill-rule="evenodd" clip-rule="evenodd" d="M2.65343 6.44612L3.31536 5.55838C3.35339 5.39568 3.38474 4.94752 3.17374 4.6309C2.94102 4.28156 2.63574 4.41937 2.5474 4.45817C2.49084 4.48316 2.38724 4.55729 2.3239 4.65767C2.3239 4.65767 1.68887 5.35041 0.986376 6.03216C0.888712 6.12679 0.77855 6.30611 0.769546 6.46923C0.761284 6.61593 0.819649 6.76232 0.907037 6.85423C1.09813 7.05521 1.43285 7.04464 1.60371 6.91708L1.61526 7.47084C1.79194 7.33094 2.42792 6.72876 2.65343 6.44623V6.44612Z" fill="black"></path>
    <path fill-rule="evenodd" clip-rule="evenodd" d="M11.9779 5.15245C15.7481 5.15245 17.895 8.64727 18.3617 9.26116C19.1945 10.3571 20.2116 11.2458 21.3917 10.9507C23.1261 10.517 23.0338 7.97984 23.0338 7.97984C22.6177 7.68288 21.9036 7.30896 20.6052 5.49102C19.333 3.7102 16.4533 1.06799 11.978 1.06799C7.5026 1.06799 4.62259 3.7102 3.35053 5.49102C2.05209 7.30885 1.33826 7.68288 0.92197 7.97984C0.92197 7.97984 0.829497 10.517 2.56424 10.9507C3.74425 11.2458 4.76156 10.3571 5.59425 9.26116C6.06064 8.64727 8.20786 5.15245 11.9779 5.15245Z" fill="#FFF22D"></path>
    <path d="M11.9779 5.06689C15.4836 5.06689 17.5962 8.0391 18.2835 9.0061C18.3458 9.09373 18.3964 9.16494 18.4307 9.2099C18.8412 9.75049 19.2967 10.2395 19.7931 10.5556C20.2796 10.8657 20.8068 11.0087 21.3705 10.8679C22.9107 10.4827 22.9504 8.34987 22.9475 8.02415C22.9146 8.00094 22.878 7.97616 22.8397 7.95012C22.4034 7.65285 21.702 7.1752 20.5342 5.54025C19.8042 4.51793 18.5394 3.20943 16.743 2.28844C15.4362 1.6185 13.8479 1.15371 11.9778 1.15371C10.1076 1.15371 8.51896 1.6185 7.21237 2.28844C5.41598 3.20943 4.15144 4.51783 3.42129 5.54025C2.25325 7.17551 1.55202 7.65306 1.1155 7.95033C1.07726 7.97637 1.04103 8.00104 1.00788 8.02415C1.00502 8.34976 1.04474 10.4826 2.58501 10.8679C3.14885 11.0089 3.67583 10.8657 4.16245 10.5556C4.65871 10.2395 5.11409 9.75049 5.52487 9.2099C5.55908 9.16483 5.60982 9.09362 5.672 9.00621C6.35956 8.03931 8.47225 5.067 11.9779 5.067V5.06689ZM11.9779 5.23817C8.56207 5.23817 6.48826 8.15538 5.81373 9.1046C5.76458 9.17456 5.71437 9.24378 5.66331 9.31237C5.24141 9.86771 4.77174 10.3711 4.2562 10.6996C3.73102 11.0342 3.15934 11.1879 2.54317 11.0338C0.739888 10.5829 0.834903 7.98515 0.835221 7.97752L0.836492 7.93559L0.871553 7.91049C0.918902 7.87672 0.966251 7.84441 1.01741 7.80969C1.44398 7.51911 2.12942 7.05255 3.27988 5.44186C4.02221 4.40281 5.30751 3.07266 7.13335 2.13661C8.4625 1.45517 10.0779 0.982544 11.9781 0.982544C13.8783 0.982544 15.4934 1.45517 16.8228 2.13661C18.6485 3.07266 19.9339 4.4026 20.6763 5.44186C21.8266 7.05213 22.5118 7.51911 22.9383 7.80948C22.9896 7.8443 23.0371 7.87672 23.0845 7.91049L23.1196 7.93559L23.1207 7.97752C23.121 7.98494 23.2159 10.5828 21.4128 11.0338C20.7967 11.1878 20.2251 11.0341 19.7001 10.6996C19.1843 10.3712 18.7147 9.86771 18.2927 9.31237C18.2502 9.25664 18.2021 9.18825 18.1422 9.1046C17.4676 8.15538 15.3939 5.23817 11.9781 5.23817H11.9779Z" fill="black"></path>
    <path fill-rule="evenodd" clip-rule="evenodd" d="M11.9779 4.82282C15.6124 4.82282 17.7753 7.86613 18.4867 8.86618C18.5331 8.93257 18.5803 8.99824 18.6286 9.06338C19.5903 10.3289 20.4675 10.8419 21.3095 10.6312C22.5274 10.3266 22.6771 8.67211 22.694 8.17219L22.6946 8.15337L22.679 8.14281C22.2507 7.85107 21.5332 7.36297 20.3322 5.68107C19.6144 4.67632 16.8906 1.39795 11.9779 1.39795C7.06513 1.39795 4.34147 4.67632 3.62361 5.68118C2.43057 7.35116 1.68199 7.86132 1.27968 8.13559L1.26401 8.14615L1.26454 8.16497C1.28201 8.66677 1.43328 10.3278 2.64602 10.6313C3.48834 10.8421 4.36519 10.329 5.32668 9.06349C5.36185 9.01737 5.41142 8.94753 5.46904 8.86638C6.18002 7.86624 8.34313 4.82282 11.9779 4.82282Z" fill="#C23227"></path>
    <path fill-rule="evenodd" clip-rule="evenodd" d="M4.15801 6.22468L3.77858 6.67096L4.49008 8.12272L2.96338 7.63012L2.63649 8.01449L4.20345 9.31233L4.44019 9.03388L3.33401 8.11404L4.81771 8.5899L4.97363 8.4065L4.26669 7.00765L5.37933 7.92906L5.72486 7.52252L4.15801 6.22468ZM6.13892 5.92072L5.78407 6.2962L5.42053 5.60264L6.13892 5.92061V5.92072ZM5.31228 5.00422L4.96346 5.37333L5.94328 7.29687L6.18246 7.04383L5.91637 6.53461L6.3906 6.0326L6.92574 6.25689L7.32042 5.83916L5.31228 5.00422ZM7.70482 3.17666L8.4714 4.38761L6.76314 3.75751L6.38139 3.99299L7.46543 5.70532L7.87917 5.45018L7.10655 4.22941L8.83335 4.8617L9.20494 4.63229L8.12111 2.92017L7.70471 3.17687L7.70482 3.17666ZM14.1784 4.16813L14.3934 3.55173L14.9958 3.75667L15.0854 3.50008L14.483 3.29545L14.6663 2.76897L15.2853 2.97946L15.3739 2.72568L14.2437 2.34172L13.578 4.25063L14.8242 4.67411L14.9135 4.41783L14.1785 4.16803L14.1784 4.16813ZM17.6771 4.04056L17.4927 4.23787L17.9228 4.62005L16.7361 5.92145L17.1357 6.27644L18.3224 4.97536L18.7461 5.35158L18.9279 5.15239L17.6771 4.04056ZM18.2642 7.07227L18.7699 6.6536L19.1794 7.13522L19.3898 6.96081L18.9805 6.47908L19.4123 6.12137L19.8332 6.61648L20.0412 6.44395L19.2733 5.54011L17.7063 6.83805L18.5534 7.83454L18.7638 7.66023L18.2642 7.07217V7.07227ZM20.6343 7.58651C20.7768 7.74284 20.7773 7.92896 20.6144 8.07368C20.4515 8.21839 20.2465 8.18734 20.0902 8.01575L19.9981 7.91495L20.5149 7.45571L20.6343 7.58641V7.58651ZM20.3619 8.58144C20.3659 8.58583 20.6786 8.7387 21.0238 8.4317C21.3126 8.175 21.2154 7.82283 20.9143 7.49251L20.3569 6.88186L18.8369 8.23282L19.1967 8.62723L19.8003 8.09061L19.9784 8.28563L19.5936 9.13583L20.0506 9.49856L20.3619 8.58144ZM12.669 2.17264L12.6543 2.99734L11.8508 2.98364L11.8655 2.15863L11.3279 2.14954L11.2923 4.16813L11.8298 4.17744L11.8461 3.25446L12.6493 3.26847L12.633 4.19124L13.171 4.20055L13.2065 2.18164L12.669 2.17254V2.17264ZM15.5806 5.1733C15.9618 5.39936 16.3786 5.36319 16.5726 5.04448C16.7154 4.82176 16.7164 4.63772 16.5466 4.30846C16.501 4.21299 16.445 4.14575 16.4065 4.06127C16.3321 3.92157 16.2627 3.80864 16.3284 3.70084C16.3988 3.58529 16.563 3.57703 16.713 3.66602C16.8704 3.7595 16.9354 3.91415 16.9671 4.02174L17.2147 3.91592C17.1388 3.71694 17.0264 3.53751 16.7722 3.38683C16.3347 3.12741 15.9782 3.1959 15.8302 3.43943C15.6804 3.68526 15.7229 3.88832 15.8342 4.09776C15.8342 4.09776 15.9058 4.21884 15.9474 4.29821C16.0451 4.46206 16.1594 4.66638 16.08 4.79687C15.9824 4.95748 15.8121 4.99314 15.648 4.89244C15.4376 4.76059 15.3885 4.60855 15.3442 4.45955L15.0728 4.5752C15.1326 4.77784 15.273 4.99084 15.5804 5.1733H15.5806ZM10.0047 2.27836C9.33491 2.4191 8.89627 2.90427 9.04097 3.56187C9.12338 3.91676 9.44571 4.573 10.462 4.35969C10.7431 4.30668 10.8969 4.19406 11.0452 4.05562L10.8581 3.84482C10.7901 3.92157 10.6843 4.03324 10.4506 4.08218C9.95987 4.18528 9.66667 3.79097 9.59379 3.45187C9.48586 2.95049 9.78192 2.6024 10.1197 2.53161C10.3566 2.48184 10.5026 2.54364 10.5949 2.58076L10.5978 2.58023L10.66 2.3228C10.4983 2.25839 10.3052 2.21562 10.0049 2.27846L10.0047 2.27836ZM20.8479 5.6361C20.8197 5.51637 20.78 5.00495 20.9768 4.73507C21.1584 4.48632 21.3239 4.5706 21.4129 4.60949C21.4528 4.62695 21.5728 4.7037 21.5964 4.85511C21.609 4.93636 21.5832 5.0565 21.5196 5.14465C21.3952 5.30432 21.112 5.41013 21.112 5.41013C21.112 5.41013 21.4748 6.11186 22.2439 6.80856L22.2411 7.28213C21.1883 6.27989 20.8481 5.63599 20.8481 5.63599L20.8479 5.6361Z" fill="#FFF22D"></path>
    <path fill-rule="evenodd" clip-rule="evenodd" d="M21.376 5.49119C21.4801 5.66832 21.7444 6.10163 22.4061 6.71364C22.5159 6.81517 22.7896 6.89987 22.9441 6.7286C23.0035 6.66272 23.0413 6.56872 23.0353 6.45945C23.0283 6.33387 22.9501 6.18727 22.8747 6.12338C22.7427 6.01161 22.1737 5.44445 21.7659 4.99901C21.7571 5.08026 21.6851 5.21598 21.6851 5.21598C21.6304 5.29221 21.562 5.40169 21.376 5.4913V5.49119ZM1.76579 7.25361L1.76303 6.80639C2.53226 6.10948 2.89548 5.41005 2.89548 5.41005C2.89548 5.41005 2.61234 5.30413 2.48788 5.14457C2.42411 5.05642 2.39816 4.93617 2.41098 4.85503C2.43492 4.70373 2.55451 4.62708 2.59434 4.60941C2.68321 4.57051 2.84877 4.48613 3.03011 4.73499C3.22703 5.00487 3.17544 5.51273 3.14748 5.63246C3.1478 5.63246 2.78913 6.24896 1.76579 7.25361Z" fill="#FFF22D"></path>
    <path fill-rule="evenodd" clip-rule="evenodd" d="M2.61826 5.4912C2.51435 5.66833 2.24996 6.10164 1.58835 6.71365C1.47861 6.81518 1.2049 6.89988 1.05067 6.72861C0.99114 6.66273 0.953219 6.56873 0.959151 6.45946C0.966036 6.33388 1.04442 6.18728 1.11984 6.12339C1.25182 6.01161 1.82075 5.44446 2.22825 4.99902C2.23714 5.08027 2.30917 5.21599 2.30917 5.21599C2.36394 5.29222 2.43258 5.4017 2.61826 5.49131V5.4912Z" fill="#FFF22D"></path>
    <path fill-rule="evenodd" clip-rule="evenodd" d="M0.481003 13.0527C0.481003 12.1238 1.24388 11.3707 2.18482 11.3707C3.12575 11.3707 3.88874 12.1238 3.88874 13.0527C3.88874 13.9817 3.12586 14.7346 2.18482 14.7346C1.24377 14.7346 0.481003 13.9818 0.481003 13.0527Z" fill="#C23227"></path>
    <path fill-rule="evenodd" clip-rule="evenodd" d="M3.1014 11.8347C3.13064 11.8577 3.20458 11.9177 3.20458 11.9177C3.35224 12.0482 3.48528 12.2008 3.56229 12.3833C3.65984 12.613 3.35933 12.9581 3.27142 13.0392C2.87398 13.4052 2.62696 13.3991 2.48502 13.4192C2.34298 13.439 2.25358 13.3525 2.25654 13.2476C2.26565 12.9388 2.48735 12.4124 2.54985 12.3152C2.59074 12.2516 2.66128 12.211 2.66128 12.211C2.80788 12.1704 2.95004 12.1082 3.02387 12.0257C3.09791 11.9434 3.1013 11.8347 3.1013 11.8347H3.1014ZM1.67565 11.6127C1.83718 11.559 2.00645 11.5312 2.17699 11.5305C2.44329 11.5305 2.69687 11.5797 2.91254 11.7144C2.9672 11.7485 2.98372 11.7917 2.98372 11.8528C2.98372 12.0506 2.66764 12.1181 2.45716 12.1181C2.24669 12.1181 1.98887 12.0355 1.80615 11.9793C1.62332 11.9227 1.58264 11.8173 1.58264 11.7709C1.58232 11.7247 1.61749 11.632 1.67575 11.6128L1.67565 11.6127ZM1.00164 14.0363C0.787035 13.827 0.633972 13.4509 0.633972 13.0539C0.633972 12.9 0.656958 12.7516 0.699752 12.6115C0.699752 12.6115 0.735873 12.5476 0.77104 12.6023C0.796038 12.641 0.829935 12.6807 0.860441 12.7337C0.891266 12.7867 1.05789 12.9117 1.04232 13.0103C0.983633 13.3821 1.0366 13.8785 1.05418 13.9598C1.07187 14.0408 1.04602 14.0798 1.00153 14.0363H1.00164ZM1.04253 12.7608C0.966579 12.7194 0.876012 12.5285 0.846459 12.4716C0.825486 12.4308 0.826651 12.3168 0.855357 12.2669C0.980773 12.0478 1.15958 11.8484 1.39113 11.7425C1.41761 11.7304 1.45871 11.7292 1.45871 11.794C1.45871 11.8301 1.47682 11.8871 1.47756 11.9222C1.47841 11.9566 1.49419 12.0314 1.44706 12.0894C1.40024 12.1472 1.19262 12.506 1.1421 12.7089C1.13066 12.7552 1.11848 12.8026 1.04253 12.761V12.7608ZM2.20983 14.5766C2.19881 14.576 2.1878 14.5769 2.17689 14.5769C1.8929 14.5769 1.58211 14.4706 1.39791 14.369C1.20767 14.2639 1.13638 13.7831 1.13638 13.5373C1.13638 12.744 1.46761 12.267 1.52036 12.1742C1.57311 12.0817 1.69047 12.0701 1.7785 12.0931C1.86652 12.1164 1.90053 12.1338 2.00147 12.164C2.05613 12.1804 2.16566 12.2029 2.24775 12.2204C2.32984 12.238 2.41765 12.2551 2.36512 12.4058C2.31236 12.5562 2.13536 12.9208 2.11608 13.3517C2.0985 13.7408 2.15125 14.1288 2.24065 14.3667C2.29881 14.521 2.29785 14.5795 2.20983 14.5767V14.5766ZM2.61446 14.5149C2.52623 14.5429 2.48555 14.481 2.44456 14.4343C2.2862 14.2559 2.24521 13.7754 2.24521 13.7118C2.24521 13.6482 2.26851 13.5784 2.31364 13.5772C2.69868 13.5677 2.97249 13.4567 3.22354 13.253C3.47458 13.0493 3.58315 12.8192 3.60614 12.7741C3.62891 12.729 3.67838 12.7371 3.69035 12.8021C3.7001 12.8551 3.72001 12.9513 3.72001 13.0537C3.7199 13.7448 3.24822 14.3119 2.61446 14.5149Z" fill="#FFF22D"></path>
    <path fill-rule="evenodd" clip-rule="evenodd" d="M23.5414 13.0527C23.5414 12.1238 22.7786 11.3707 21.8376 11.3707C20.8967 11.3707 20.1338 12.1238 20.1338 13.0527C20.1338 13.9817 20.8965 14.7346 21.8376 14.7346C22.7788 14.7346 23.5414 13.9818 23.5414 13.0527Z" fill="#C23227"></path>
    <path fill-rule="evenodd" clip-rule="evenodd" d="M20.9982 12.0256C21.0719 12.1081 21.2142 12.1703 21.3608 12.2109C21.3608 12.2109 21.4314 12.2515 21.4722 12.315C21.5347 12.4123 21.7563 12.9386 21.7658 13.2474C21.7687 13.3523 21.6794 13.4389 21.5372 13.4191C21.3953 13.399 21.1482 13.405 20.7509 13.039C20.6629 12.9579 20.3624 12.6128 20.4601 12.3832C20.5369 12.2006 20.6701 12.0481 20.818 11.9176C20.818 11.9176 20.8915 11.8577 20.9211 11.8346C20.921 11.8347 20.9245 11.9434 20.9983 12.0256H20.9982ZM22.4401 11.7708C22.4401 11.8173 22.3994 11.9227 22.2166 11.9792C22.0336 12.0353 21.7758 12.1179 21.5654 12.1179C21.355 12.1179 21.0386 12.0507 21.0386 11.8527C21.0386 11.7916 21.0553 11.7484 21.1098 11.7143C21.3255 11.5795 21.5791 11.5304 21.8454 11.5304C22.0211 11.5304 22.1891 11.561 22.3468 11.6126C22.4047 11.6318 22.4401 11.7245 22.4401 11.7707V11.7708ZM22.968 13.9596C22.9855 13.8783 23.0383 13.3819 22.9798 13.0101C22.9643 12.9115 23.131 12.7866 23.1617 12.7335C23.1923 12.6805 23.2261 12.6408 23.251 12.6021C23.2862 12.5476 23.3224 12.6113 23.3224 12.6113C23.3663 12.7547 23.3885 12.9038 23.3884 13.0537C23.3884 13.4508 23.2352 13.8268 23.0205 14.036C22.9762 14.0795 22.9503 14.0406 22.9681 13.9596H22.968ZM22.8799 12.7088C22.8295 12.506 22.6218 12.147 22.5748 12.0893C22.5277 12.0313 22.5436 11.9565 22.5442 11.9221C22.5452 11.887 22.5632 11.83 22.5632 11.7939C22.5632 11.7291 22.6043 11.7303 22.6306 11.7423C22.8625 11.8482 23.0414 12.0476 23.1667 12.2667C23.1954 12.3168 23.1968 12.4307 23.1755 12.4715C23.1462 12.5285 23.0556 12.7194 22.9796 12.7607C22.9039 12.8022 22.8916 12.7547 22.8801 12.7086L22.8799 12.7088ZM21.7817 14.3668C21.871 14.1289 21.9239 13.7409 21.9062 13.3518C21.8868 12.9208 21.71 12.5564 21.6572 12.4059C21.6044 12.2552 21.6924 12.238 21.7746 12.2205C21.8568 12.2031 21.9662 12.1805 22.0212 12.164C22.1217 12.1338 22.1557 12.1163 22.2439 12.0932C22.3317 12.0702 22.4491 12.0818 22.502 12.1743C22.5549 12.267 22.886 12.7441 22.886 13.5374C22.886 13.7831 22.8148 14.2639 22.6245 14.3691C22.4404 14.4708 22.1296 14.577 21.8455 14.577C21.8345 14.577 21.8234 14.5761 21.8127 14.5766C21.7245 14.5794 21.7235 14.5209 21.7817 14.3667V14.3668ZM20.3025 13.0538C20.3025 12.9512 20.3224 12.8551 20.3322 12.8022C20.3441 12.7371 20.3933 12.7291 20.4161 12.7742C20.4392 12.8192 20.5479 13.0494 20.7987 13.2531C21.0499 13.4568 21.3235 13.5677 21.7086 13.5773C21.7534 13.5784 21.777 13.6478 21.777 13.7119C21.777 13.776 21.7363 14.2559 21.5777 14.4344C21.5366 14.4811 21.4961 14.5431 21.4076 14.5149C20.7737 14.3121 20.3024 13.7449 20.3024 13.0538H20.3025Z" fill="#FFF22D"></path>
    <path d="M20.1409 13.044C20.1404 12.5955 20.321 12.1652 20.6427 11.8485C20.9526 11.5425 21.3809 11.3534 21.8536 11.3534C22.3264 11.3534 22.7547 11.5425 23.0646 11.8485C23.3745 12.1543 23.566 12.577 23.566 13.044C23.566 13.511 23.3744 13.9335 23.0646 14.2393C22.7547 14.5452 22.3267 14.7343 21.8536 14.7343C21.3993 14.7349 20.9634 14.5567 20.6425 14.2393C20.3209 13.9226 20.1405 13.4924 20.141 13.044H20.1409ZM20.1584 13.044C20.1584 13.5061 20.3481 13.9244 20.6548 14.2272C20.9616 14.5301 21.3853 14.7175 21.8537 14.7175C22.3221 14.7175 22.7456 14.5302 23.0527 14.2275C23.3594 13.9246 23.5491 13.5064 23.5491 13.044C23.5491 12.5816 23.3594 12.1636 23.0524 11.8606C22.7348 11.5463 22.3034 11.3699 21.8537 11.3705C21.404 11.37 20.9726 11.5465 20.6551 11.8608C20.3367 12.1743 20.1579 12.6001 20.1584 13.0441V13.044Z" fill="#FDE62F"></path>
  </g>
  <defs>
    <clipPath id="clip0_417_506">
      <rect width="24" height="24" fill="white"></rect>
    </clipPath>
  </defs>
</svg>
