<?xml version="1.0" encoding="UTF-8"?>
<svg xmlns="http://www.w3.org/2000/svg" width="32" height="32" viewBox="0 0 32 32" fill="none">
  <g clip-path="url(#clip0_413_467)">
    <path d="M31.1314 16C31.1314 20.0114 29.5314 23.8628 26.6971 26.6971C23.8628 29.5314 20.0114 31.1314 16 31.1314C11.9886 31.1314 8.13713 29.5314 5.30285 26.6971C2.46856 23.8628 0.868561 20.0114 0.868561 16C0.868561 11.9885 2.46856 8.1371 5.30285 5.30282C8.13713 2.46853 11.9886 0.86853 16 0.86853C20.0114 0.86853 23.8628 2.46853 26.6971 5.30282C29.5314 8.1371 31.1314 11.9885 31.1314 16Z" fill="white"></path>
    <mask id="mask0_413_467" style="mask-type:luminance" maskUnits="userSpaceOnUse" x="0" y="0" width="32" height="32">
      <path d="M32 0H0V32H32V0Z" fill="white"></path>
    </mask>
    <g mask="url(#mask0_413_467)">
      <path d="M16 31.3863C11.9531 31.3863 7.98857 29.7429 5.12228 26.8778C2.25714 24.0126 0.613708 20.0481 0.613708 16.0001C0.613708 11.9521 2.25714 7.98863 5.12228 5.12234C7.98857 2.2572 11.9531 0.61377 16 0.61377C20.0469 0.61377 24.0114 2.2572 26.8777 5.12234C29.7428 7.98748 31.3863 11.9521 31.3863 16.0001C31.3863 20.0481 29.7428 24.0115 26.8777 26.8778C24.0126 29.7429 20.048 31.3863 16 31.3863ZM16 1.12348C12.0869 1.12348 8.25371 2.71206 5.48342 5.48348C2.71314 8.25377 1.12342 12.0869 1.12342 16.0001C1.12342 19.9132 2.71199 23.7463 5.48342 26.5166C8.25371 29.2869 12.0869 30.8766 16 30.8766C19.9131 30.8766 23.7463 29.2881 26.5166 26.5166C29.2869 23.7463 30.8766 19.9132 30.8766 16.0001C30.8766 12.0869 29.288 8.25377 26.5166 5.48348C23.7463 2.7132 19.9131 1.12348 16 1.12348Z" fill="#FF0000"></path>
    </g>
    <path d="M16 0.617188C11.92 0.617188 8.00001 2.24004 5.12001 5.12004C2.22859 8.01147 0.617157 11.92 0.617157 16C0.617157 20.08 2.24001 24 5.12001 26.88C8.01144 29.76 11.92 31.3829 16 31.3829C20.08 31.3829 24 29.76 26.88 26.88C29.7714 23.9886 31.3829 20.08 31.3829 16C31.3829 11.92 29.76 8.00004 26.88 5.12004C24 2.24004 20.08 0.617188 16 0.617188ZM16 1.12004C19.9429 1.12004 23.7257 2.68576 26.5257 5.47433C29.3143 8.2629 30.88 12.0458 30.88 16C30.88 19.9543 29.3143 23.7258 26.5257 26.5258C23.7372 29.3143 19.9543 30.88 16 30.88C12.0457 30.88 8.2743 29.3143 5.4743 26.5258C2.68573 23.7372 1.12001 19.9543 1.12001 16C1.12001 12.0458 2.68573 8.27433 5.4743 5.47433C8.2743 2.68576 12.0572 1.12004 16 1.12004Z" fill="#002E60"></path>
    <mask id="mask1_413_467" style="mask-type:luminance" maskUnits="userSpaceOnUse" x="0" y="0" width="32" height="32">
      <path d="M32 0H0V32H32V0Z" fill="white"></path>
    </mask>
    <g mask="url(#mask1_413_467)">
      <path d="M16 31.9943C11.736 31.9943 7.71885 30.3315 4.68799 27.3132C1.71199 24.3372 0.00570679 20.2137 0.00570679 16C0.00570679 11.7863 1.66856 7.70631 4.68799 4.68688C7.66285 1.71202 11.7863 0.0057373 16 0.0057373C20.2137 0.0057373 24.3371 1.71202 27.3131 4.68802C30.2891 7.66402 31.9954 11.7863 31.9954 16.0012C31.9954 20.216 30.3326 24.2949 27.3131 27.3143C24.3371 30.2903 20.2137 31.9966 16 31.9966V31.9943ZM16 1.73145C12.1943 1.73145 8.61028 3.21488 5.90628 5.90745C3.21485 8.60917 1.73256 12.1943 1.73256 16C1.73256 19.8057 3.21485 23.4012 5.90742 26.0926C8.61028 28.7852 12.1954 30.2675 16 30.2675C19.8046 30.2675 23.4011 28.7852 26.0937 26.0926C28.7851 23.3897 30.2686 19.8046 30.2686 16C30.2686 12.1955 28.7863 8.59888 26.0937 5.90745C23.3908 3.21488 19.8057 1.73259 16 1.73259V1.73145Z" fill="#002E60"></path>
    </g>
    <path d="M16 0.617188C11.92 0.617188 8.00001 2.24004 5.12001 5.12004C2.22859 8.01147 0.617157 11.92 0.617157 16C0.617157 20.08 2.24001 24 5.12001 26.88C8.01144 29.76 11.92 31.3829 16 31.3829C20.08 31.3829 24 29.76 26.88 26.88C29.7714 23.9886 31.3829 20.08 31.3829 16C31.3829 11.92 29.76 8.00004 26.88 5.12004C24 2.24004 20.08 0.617188 16 0.617188ZM16 1.12004C19.9429 1.12004 23.7257 2.68576 26.5257 5.47433C29.3143 8.2629 30.88 12.0458 30.88 16C30.88 19.9543 29.3143 23.7258 26.5257 26.5258C23.7372 29.3143 19.9543 30.88 16 30.88C12.0457 30.88 8.2743 29.3143 5.4743 26.5258C2.68573 23.7372 1.12001 19.9543 1.12001 16C1.12001 12.0458 2.68573 8.27433 5.4743 5.47433C8.2743 2.68576 12.0572 1.12004 16 1.12004Z" fill="#7BB1DD"></path>
    <path d="M16.0457 25.8605C13.4652 25.8605 10.9394 24.8137 9.1143 22.9885C7.28915 21.1634 6.24344 18.6377 6.24344 16.0571C6.24344 13.4765 7.2903 10.9508 9.1143 9.12566C10.9394 7.30052 13.4663 6.25366 16.0457 6.25366C18.6252 6.25366 21.152 7.30052 22.9772 9.12566C24.8023 10.9508 25.848 13.4765 25.848 16.0571C25.848 18.6377 24.8012 21.1634 22.9772 22.9885C21.1532 24.8137 18.6252 25.8605 16.0457 25.8605ZM16.0457 6.82052C13.6149 6.82052 11.2343 7.8068 9.5143 9.52566C7.79544 11.2457 6.80915 13.6262 6.80915 16.0571C6.80915 18.4879 7.79544 20.8685 9.5143 22.5885C11.2332 24.3085 13.6149 25.2937 16.0457 25.2937C18.4766 25.2937 20.8572 24.3074 22.5772 22.5885C24.2972 20.8697 25.2823 18.4891 25.2823 16.0571C25.2823 13.6251 24.296 11.2457 22.5772 9.52566C20.8572 7.80566 18.4766 6.82052 16.0457 6.82052Z" fill="#002E60"></path>
    <path d="M24.9029 16.0457C24.9029 18.4 23.9657 20.6629 22.2971 22.3314C20.6286 24 18.3657 24.9372 16.0114 24.9372C13.6571 24.9372 11.3943 24 9.72571 22.3314C8.05714 20.6629 7.12 18.4 7.12 16.0457C7.12 13.6914 8.05714 11.4286 9.72571 9.76001C11.3943 8.09144 13.6571 7.1543 16.0114 7.1543C18.3657 7.1543 20.6286 8.09144 22.2971 9.76001C23.9657 11.4286 24.9029 13.6914 24.9029 16.0457Z" fill="#7BB1DD"></path>
    <path fill-rule="evenodd" clip-rule="evenodd" d="M8.66286 8.69719C8.02286 11.4058 8.02286 13.84 8.04572 15.5086C8.00001 23.0858 13.6114 25.44 15.9886 26.16C18.3657 25.44 23.9771 23.0858 23.9314 15.5086C23.9543 13.84 23.9543 11.4058 23.3143 8.69719C19.6343 8.05719 17.3943 8.11433 15.9886 8.10291C14.5829 8.11433 12.3543 8.05719 8.66286 8.69719Z" fill="#002E60"></path>
    <path fill-rule="evenodd" clip-rule="evenodd" d="M9.42858 9.23432C9.02858 11.0286 8.82286 12.64 8.74286 13.9886C8.70858 15.4515 8.69715 16.9372 8.92572 18.2515C9.05143 18.9372 9.24572 19.6572 9.61143 20.4C10.3771 21.84 11.4743 23.1086 12.4686 23.7829C13.7829 24.7886 15.1429 25.3372 16 25.6115C16.8571 25.3372 18.2057 24.7886 19.5314 23.7829C20.5257 23.1086 21.6229 21.8286 22.3886 20.4C22.7543 19.6572 22.96 18.9372 23.0743 18.2515C23.3029 16.9372 23.2914 15.4515 23.2571 13.9886C23.1771 12.64 22.9714 11.0286 22.5714 9.23432C19.2686 8.6286 17.2686 8.68574 16 8.67432C14.7314 8.68574 12.7314 8.6286 9.42858 9.23432Z" fill="#FFBB59"></path>
    <path d="M13.7943 27.3943C13.76 27.3714 13.6914 27.2914 13.6343 27.2571C13.0972 26.9143 12.4686 27.2457 12.4343 27.8971C12.4114 28.2971 12.7086 28.6286 13.0286 28.6971C13.36 28.7543 13.6 28.6057 13.8286 28.4114L14.1714 28.7657C14 28.9486 13.7829 29.12 13.4057 29.2C13.3372 29.2114 13.2343 29.2228 13.12 29.2228C12.4114 29.1543 12.0114 28.7771 11.8972 28.1828C11.8286 27.8628 11.8857 27.5314 12.0572 27.2457C12.2629 26.9143 12.56 26.72 12.9486 26.64C13.4057 26.5486 13.8743 26.6971 14.16 27.0057L13.7943 27.3943Z" fill="#002E60"></path>
    <path d="M15.2686 26.64H14.6971V29.1543H15.2686V26.64Z" fill="#002E60"></path>
    <path d="M17.8629 27.1657H17.0972V29.1543H16.5257V27.1657H15.76V26.64H17.8629V27.1657Z" fill="#002E60"></path>
    <path d="M20.5829 26.64L19.6 28.1486V29.1543H19.0514V28.1486L18.0914 26.64H18.7429L19.3371 27.6686L19.9429 26.64H20.5829Z" fill="#002E60"></path>
    <path fill-rule="evenodd" clip-rule="evenodd" d="M6.30857 11.6342L6.05714 12.1028L3.88571 10.9714L4.16 10.4571L5.39428 10.3771L4.76571 9.29139L5.02857 8.7771L7.21143 9.93139L6.96 10.4L5.52 9.64567L6.14857 10.7771L4.88 10.9028L6.30857 11.6342Z" fill="#002E60"></path>
    <path d="M9.25715 7.65711L8.85715 8.06854L8.29715 7.8514L7.57715 8.61711L7.82858 9.16568L7.45144 9.55426L6.36572 7.08569L6.70858 6.71997L9.25715 7.65711ZM7.82858 7.66854L7.00572 7.34854L7.37144 8.14854L7.82858 7.66854Z" fill="#002E60"></path>
    <path fill-rule="evenodd" clip-rule="evenodd" d="M9.61142 7.39432L8.33142 5.30289L8.75428 5.02861L10.5371 5.73718L9.74856 4.43432L10.2057 4.16003L11.4743 6.26289L11.0857 6.50289L9.24571 5.78289L10.0686 7.12003L9.61142 7.39432Z" fill="#002E60"></path>
    <path d="M13.3257 3.85138C13.2914 3.83995 13.2 3.78281 13.1314 3.75995C12.5371 3.58852 12.0229 4.06852 12.1714 4.68566C12.2629 5.06281 12.6286 5.30281 12.9486 5.26852C13.28 5.23423 13.4629 5.02852 13.6229 4.78852L14.0343 5.02852C13.92 5.24566 13.7714 5.47423 13.4286 5.64566C13.36 5.67995 13.28 5.71423 13.1543 5.73709C12.4686 5.86281 11.9886 5.62281 11.7143 5.08566C11.5657 4.79995 11.52 4.46852 11.6114 4.15995C11.7143 3.79423 11.9429 3.53138 12.2857 3.34852C12.6971 3.14281 13.1771 3.15423 13.5314 3.35995L13.3257 3.85138Z" fill="#002E60"></path>
    <path d="M24.4914 6.55995L23.8971 6.1028L22.7086 7.66852L22.2628 7.33709L23.4628 5.7828L22.8686 5.32566L23.1771 4.92566L24.8 6.17137L24.4914 6.55995Z" fill="#002E60"></path>
    <path fill-rule="evenodd" clip-rule="evenodd" d="M14.6057 2.89137L14.6629 5.34851L15.1886 5.33709L15.1657 4.3428L16.1829 4.31994L16.2057 5.31423L16.7314 5.3028L16.6857 2.83423L16.1371 2.84566L16.16 3.82851L15.1543 3.85137L15.1314 2.87994L14.6057 2.89137Z" fill="#002E60"></path>
    <path fill-rule="evenodd" clip-rule="evenodd" d="M18.0114 2.99426L19.8286 3.39426L19.7143 3.86283L18.4343 3.57712L18.32 4.07998L19.3829 4.29712L19.1314 4.73141L18.2171 4.53712L18.1029 5.05141L19.4171 5.33712L19.3143 5.79426L17.4857 5.40569L18.0114 2.99426Z" fill="#002E60"></path>
    <path fill-rule="evenodd" clip-rule="evenodd" d="M21.3143 5.05142C20.9943 4.81142 20.9943 4.67428 21.0743 4.55999C21.1543 4.46857 21.2571 4.46857 21.36 4.50285C21.5314 4.55999 21.6686 4.67428 21.7714 4.81142C21.8286 4.87999 21.8743 4.95999 21.92 5.02856L22.3429 4.76571C22.2743 4.63999 22.1029 4.29714 21.6 4.07999C21.36 3.97714 20.7886 3.87428 20.5371 4.46856C20.4343 4.71999 20.48 4.87999 20.5371 4.99428C20.6743 5.22285 20.9029 5.38285 21.0971 5.55428C21.1771 5.62285 21.2686 5.70285 21.3029 5.80571C21.3257 5.88571 21.3029 5.95428 21.2457 6.01142C20.9486 6.26285 20.4229 5.72571 20.32 5.42856L19.8629 5.64571C20.1029 6.11428 20.5143 6.53714 21.1543 6.55999C21.3829 6.54857 21.6571 6.42285 21.7829 6.13714C21.8629 5.90857 21.8857 5.70285 21.7714 5.51999C21.6571 5.33714 21.4629 5.15428 21.3143 5.05142Z" fill="#002E60"></path>
    <path fill-rule="evenodd" clip-rule="evenodd" d="M25.5543 6.89148L26.7314 8.32005L26.3657 8.62862L25.52 7.61148L25.12 7.93148L25.8514 8.80005L25.36 8.96005L24.7657 8.24005L24.3543 8.57148L25.2228 9.60005L24.8571 9.90862L23.6571 8.46862L25.5543 6.89148Z" fill="#002E60"></path>
    <path d="M27.4172 10.48L27.1657 9.97717L26.5372 10.2972L26.7772 10.7772C26.9029 11.04 27.1086 11.0743 27.2686 11.0172C27.4514 10.96 27.5543 10.7315 27.4172 10.48ZM26.1143 12.2857L25.8286 11.7257L26.2972 10.9029L26.0914 10.5143L25.3943 10.8686L25.1543 10.3886L27.3486 9.28003L27.8172 10.2172C27.8857 10.3429 27.9086 10.4229 27.9429 10.5257C28.0114 10.72 28.0114 10.9029 27.9543 11.0515C27.7486 11.5429 27.0972 11.7943 26.6286 11.36L26.1143 12.2857Z" fill="#002E60"></path>
    <path d="M27.4286 16.2515C27.2229 16.4343 26.9029 16.3886 26.7314 16.2058C26.6514 16.1258 26.6057 16.0115 26.6057 15.8858C26.6171 15.7943 26.64 15.7143 26.6743 15.6343C26.72 15.5429 26.7886 15.4743 26.8686 15.4401C27.0514 15.3372 27.3029 15.3372 27.4743 15.4401C27.6 15.5201 27.68 15.6458 27.7143 15.7943C27.7371 15.8858 27.7486 15.9886 27.7486 16.1029C27.7486 16.4001 27.6571 16.6743 27.44 16.8115C27.3829 16.8458 27.3029 16.8686 27.2114 16.8801C26.9714 16.9029 26.7886 16.8343 26.64 16.7201L26.8 16.4686C27.2229 16.8001 27.4286 16.4801 27.4286 16.2515ZM27.4514 15.8743C27.4514 15.7486 27.3486 15.6686 27.2457 15.6458C27.2 15.6343 27.1429 15.6343 27.0971 15.6458C27.0514 15.6572 27.0057 15.6915 26.9829 15.7258C26.8686 15.8629 26.9486 16.0458 27.0514 16.0801C27.0857 16.0915 27.1429 16.1029 27.2 16.1143C27.4057 16.1029 27.4514 15.9315 27.4514 15.8743Z" fill="#7BB1DD"></path>
    <path d="M29.3029 16.5371H29.1086V16.8686H28.8114V16.5371H28.08L28.0343 16.3086L28.8343 15.36H29.1086V16.2743H29.3029V16.5371ZM28.8229 16.2857V15.8171L28.4 16.2857H28.8229Z" fill="#7BB1DD"></path>
    <path d="M3.06286 15.76L2.99429 15.5085L3.39429 15.3828H3.63429V16.8685H3.32572V15.68L3.06286 15.76Z" fill="#7BB1DD"></path>
    <path d="M4.88 16.0915C5.05143 16.16 5.14286 16.2972 5.14286 16.4686C5.14286 16.6743 4.99429 16.8115 4.81143 16.8572C4.74286 16.88 4.66286 16.88 4.57143 16.88C4.33143 16.8686 4.01143 16.7657 4 16.4686C4.01143 16.2629 4.05714 16.1829 4.22857 16.0915C4.04571 15.9772 3.97714 15.7829 4.09143 15.5772C4.11429 15.5315 4.16 15.4857 4.20571 15.4629C4.25143 15.4286 4.30857 15.4057 4.36571 15.3943C4.42286 15.3829 4.49143 15.3715 4.56 15.3715C4.82286 15.3715 5.05143 15.4972 5.07429 15.76C5.08571 15.8286 5.07429 15.9086 5.02857 15.9657C5.01714 16.0115 4.96 16.0572 4.88 16.0915ZM4.73143 15.9429C4.76571 15.9086 4.78857 15.8629 4.78857 15.8172C4.78857 15.76 4.76571 15.7257 4.73143 15.6915C4.69714 15.6572 4.64 15.6457 4.58286 15.6457C4.51429 15.6457 4.46857 15.6572 4.43429 15.6915C4.4 15.7257 4.37714 15.76 4.37714 15.8172C4.37714 15.8629 4.4 15.9086 4.43429 15.9429C4.50286 16 4.62857 16.0115 4.73143 15.9429ZM4.82286 16.4229C4.82286 16.2743 4.65143 16.2286 4.53714 16.24C4.42286 16.2515 4.30857 16.32 4.30857 16.4229C4.30857 16.56 4.45714 16.6286 4.57143 16.6286C4.70857 16.6286 4.82286 16.5372 4.82286 16.4229Z" fill="#7BB1DD"></path>
    <path fill-rule="evenodd" clip-rule="evenodd" d="M16 25.6C16.8571 25.3257 18.2057 24.7771 19.5314 23.7714C20.5257 23.0971 21.6229 21.8171 22.3886 20.3886C22.7543 19.6457 22.96 18.9257 23.0743 18.24C23.3029 16.9257 23.2914 15.44 23.2571 13.9771C23.1771 12.6286 22.9714 11.0171 22.5714 9.22284C19.2686 8.61713 17.2686 8.67427 16 8.66284" fill="#E9AB00"></path>
    <path fill-rule="evenodd" clip-rule="evenodd" d="M22.7086 16.8915C22.4 20.6743 20.6286 23.2915 16 24.9372C11.3714 23.2801 9.60001 20.6743 9.29144 16.8915H22.7086Z" fill="#7BB1DD"></path>
    <path fill-rule="evenodd" clip-rule="evenodd" d="M9.24573 16.3314C9.21144 15.6 9.2343 14.8343 9.28001 14.0114C9.34858 12.7428 9.42858 11.2686 9.80573 9.58856C12.7429 9.06285 14.7314 9.07428 15.9886 9.02856C17.2457 9.06285 19.2343 9.05142 22.1714 9.58856C22.5486 11.28 22.6286 12.7543 22.6972 14.0114C22.7543 14.8343 22.7657 15.6 22.7314 16.3429L9.24573 16.3314Z" fill="white"></path>
    <path fill-rule="evenodd" clip-rule="evenodd" d="M20.4686 22.2858C20.1143 22.6515 19.7029 22.9943 19.2457 23.3258L13.92 16.9029H16L20.4686 22.2858ZM22.3657 18.9258C22.1943 19.5658 21.9543 20.1715 21.6343 20.7315L18.4571 16.8915H20.6857L22.3657 18.9258ZM17.5657 24.2972C17.0857 24.5258 16.56 24.7429 15.9886 24.9486L9.28 16.9029H11.4629L17.5657 24.2972Z" fill="#A8C9E8"></path>
    <path fill-rule="evenodd" clip-rule="evenodd" d="M17.6457 15.3142C18.5829 15.2685 19.5429 15.1199 19.9886 15.0057C19.8971 15.7371 19.1543 15.6571 19.5771 16.3428H18.6286C18.2743 16.2171 17.8971 16.0685 17.5771 16.0457C17.4857 16.0342 17.4057 16.0342 17.3257 16.0685C16.3314 16.4457 15.5314 16.0114 14.7886 15.9999C14.7657 16.0914 14.6057 16.1942 14.2857 16.2285C13.7486 16.2971 13.3714 16.0685 12.9486 16.0571C12.8 16.0571 12.6514 16.1028 12.5257 16.3428C12.3086 16.0457 12.1829 15.8171 11.8857 15.4514C11.44 15.2342 11.0286 15.0628 10.6286 14.9142L10.6514 14.8342C11.9314 15.2228 12.8914 15.3714 13.76 15.4514C14.8229 15.4971 15.9771 15.5657 17.0171 15.4857C17.3143 15.3714 17.4286 15.3257 17.6457 15.3142Z" fill="#FBC24E"></path>
    <path fill-rule="evenodd" clip-rule="evenodd" d="M19.8514 15.1085C19.7372 15.5771 19.04 15.7599 19.5086 16.3428H18.9486C18.5943 16.2171 17.9772 15.9428 17.2914 15.9428C17.04 16.1371 16.5829 16.2285 15.8857 16.0685C15.5657 16 15.12 15.8857 14.6629 15.8971C14.56 16.3314 13.12 16.1599 12.6057 15.4857L11.9543 15.3257L11.8057 15.2114C12.8457 15.4285 13.8972 15.5542 14.4457 15.5771C15.4286 15.6114 16.3543 15.6114 17.0172 15.5885C17.2343 15.5199 17.28 15.4971 17.3943 15.4514C17.5543 15.3714 17.7372 15.3828 17.8972 15.3828C18.8 15.3142 19.3829 15.1885 19.8514 15.1085Z" fill="#EAAA00"></path>
    <path fill-rule="evenodd" clip-rule="evenodd" d="M15.44 15.3029C15.5657 15.12 15.7714 15.0172 16.0114 14.9715L16 15.5086H16.1828L16.1714 14.9372C16.8457 14.8458 17.5657 14.96 18.1486 15.0972V15.2915C18.2171 15.2915 18.2743 15.28 18.3314 15.28V15.0515L20.2286 14.3886C19.6914 13.68 19.7371 12.8458 19.8743 12C19.7714 12.4229 19.52 13.2115 18.88 13.9315C18.3657 14.5029 18.4228 14.6286 18.3314 14.7886L18.2971 10.9486L17.8628 11.0972C17.7714 11.12 17.8286 11.1658 17.7486 11.2L17.3143 11.3715L17.8171 11.3486C17.8857 11.3486 17.84 11.2458 17.9086 11.2343L18.1828 11.2115L18.1486 15.0058C17.8514 14.5372 17.3257 13.9772 17.5428 12.8C17.0171 14.8 15.3143 14.5829 15.44 15.3029ZM14.6971 13.1772C14.24 14.7429 12.88 14.5486 12.96 15.1772C13.1657 14.9943 13.3714 14.9829 13.5657 14.9258V15.4058C13.6228 15.4172 13.68 15.4172 13.7371 15.4172L13.7486 14.9029C14.24 14.8458 14.6743 14.9029 15.12 14.9486C14.7657 14.3658 14.5371 13.7829 14.6971 13.1772Z" fill="#EAAA00"></path>
    <path fill-rule="evenodd" clip-rule="evenodd" d="M19.8857 11.9885C19.7828 12.4114 19.5314 13.2 18.8914 13.92C18.3771 14.4914 18.4343 14.6171 18.3428 14.7771L18.32 12.5371L19.8857 11.9885ZM15.1657 13.5885L17.5543 12.7657C17.0171 14.8 15.3143 14.5714 15.4514 15.2914C15.04 14.9257 14.6514 14.2057 15.1657 13.5885ZM12.72 13.8628L14.6971 13.1771C14.24 14.7428 12.88 14.5485 12.96 15.1771C12.5028 14.72 12.4914 14.1714 12.72 13.8628Z" fill="#FFBB59"></path>
    <path fill-rule="evenodd" clip-rule="evenodd" d="M16.1829 10.4686V9.78284L15.7486 9.93141C15.6572 9.95427 15.7143 9.99998 15.6343 10.0343L15.2 10.2057L15.7029 10.1828C15.7714 10.1828 15.7257 10.08 15.7943 10.0686L16.0686 10.0457V10.5257L16.1829 10.4686Z" fill="#EAAA00"></path>
    <path fill-rule="evenodd" clip-rule="evenodd" d="M13.7257 12.16V11.3257L13.2914 11.4743C13.2 11.4971 13.2571 11.5428 13.1771 11.5771L12.7543 11.7371L13.2457 11.7257C13.3143 11.7257 13.2686 11.6228 13.3371 11.6114L13.6114 11.5885V12.2057L13.7257 12.16Z" fill="#EAAA00"></path>
    <path fill-rule="evenodd" clip-rule="evenodd" d="M15.6914 10.1715C15.76 10.1715 15.7143 10.0686 15.7829 10.0572L15.7371 9.92004C15.6457 9.9429 15.7029 9.98861 15.6229 10.0229L15.6914 10.1715Z" fill="#FFBB59"></path>
    <path fill-rule="evenodd" clip-rule="evenodd" d="M16.9371 10.2057C16.24 11.5543 15.2914 11.3257 15.1771 11.9771C14.8114 11.68 14.9714 11.0743 15.2 10.8114L16.9371 10.2057Z" fill="#FFBB59"></path>
    <path fill-rule="evenodd" clip-rule="evenodd" d="M17.1429 11.3714C16.9029 11.0857 16.7429 10.7428 16.9372 10.2057C16.24 11.5543 15.2914 11.3257 15.1772 11.9771C15.5772 11.44 16.7772 11.3943 17.1429 11.3714Z" fill="#EAAA00"></path>
    <path fill-rule="evenodd" clip-rule="evenodd" d="M15.1886 13.4742C14.7771 12.8685 14.8114 12.2514 15.1771 12.08C15.8286 11.8514 16.6628 11.5885 17.1314 11.3828C16.8114 12.64 15.3371 12.7542 15.1886 13.4742Z" fill="#FFBB59"></path>
    <path fill-rule="evenodd" clip-rule="evenodd" d="M17.1429 11.3715C16.8114 12.64 15.3486 12.7543 15.2 13.4743C15.5086 13.0629 16.2172 12.7886 17.5543 12.7429C17.2572 12.3657 17.0514 11.9429 17.1429 11.3715Z" fill="#EAAA00"></path>
    <path fill-rule="evenodd" clip-rule="evenodd" d="M14.3657 11.9314C13.7943 12.1485 13.2914 12.32 12.8457 12.4685C12.64 12.6743 12.3886 13.2457 12.7657 13.7257C12.6971 13.1657 13.8857 12.96 14.3657 11.9314Z" fill="#FFBB59"></path>
    <path fill-rule="evenodd" clip-rule="evenodd" d="M12.7657 13.7257C12.6971 13.1657 13.8971 12.96 14.3657 11.9314C14.3428 12.1828 14.2514 12.72 14.6971 13.1657C14 13.2 13.0971 13.3028 12.7657 13.7257Z" fill="#EAAA00"></path>
    <path fill-rule="evenodd" clip-rule="evenodd" d="M13.2343 11.7257C13.3029 11.7257 13.2571 11.6228 13.3257 11.6114L13.28 11.4742C13.1886 11.4971 13.2457 11.5428 13.1657 11.5771L13.2343 11.7257Z" fill="#FFBB59"></path>
    <path fill-rule="evenodd" clip-rule="evenodd" d="M12.5714 12.5371C12.08 12.8914 11.1886 13.5543 10.72 14.6743C11.0286 14.64 11.3371 14.64 11.7829 14.7314C11.4286 14.4914 11.36 14.2171 12.5714 12.5371Z" fill="#FFBB59"></path>
    <path fill-rule="evenodd" clip-rule="evenodd" d="M12.1372 14.8114L11.7714 14.7429C11.4172 14.5029 11.3486 14.2286 12.56 12.5486C12.32 12.9829 11.9314 13.7829 12.1372 14.8114Z" fill="#EAAA00"></path>
    <path fill-rule="evenodd" clip-rule="evenodd" d="M17.8171 11.3258C17.8857 11.3258 17.84 11.2229 17.9086 11.2115L17.8629 11.0743C17.7714 11.0972 17.8286 11.1429 17.7486 11.1772L17.8171 11.3258Z" fill="#FFBB59"></path>
    <path fill-rule="evenodd" clip-rule="evenodd" d="M16.1257 17.8171L16.4114 18.1714C16.4457 18.2171 16.4343 18.2628 16.4343 18.2971C16.6286 18.2857 16.8571 18.3542 16.9829 18.5371C17.12 18.7428 17.2229 18.8457 17.3371 18.9257C17.4857 19.04 17.6343 19.0857 17.7714 19.1314C17.9657 19.1885 18.1143 19.3142 18.2057 19.5771C18.24 19.5771 18.2629 19.5542 18.3657 19.5885L18.7429 19.7142C18.7657 19.7257 18.8 19.7371 18.8229 19.76C18.8457 19.7942 18.8571 19.8171 18.8571 19.8514C18.8571 19.8857 18.8571 19.92 18.8457 19.9542L18.56 20.3542C18.5371 20.3885 18.48 20.4 18.4686 20.4C18.5486 20.5828 18.56 20.8228 18.4 21.0285C18.2057 21.28 18.1714 21.36 18.1257 21.4971C18.0914 21.6 18.08 21.7942 18.08 22.0114C18.08 22.1828 17.9886 22.3428 17.8057 22.4571C17.8057 22.4685 17.8171 22.4914 17.8171 22.5257V22.9371C17.8171 22.9942 17.8171 23.04 17.7943 23.0857C17.76 23.1428 17.7143 23.1657 17.6457 23.1657C17.5886 23.1771 17.5429 23.1657 17.5314 23.1542L17.12 23.0171C17.0743 22.9942 17.0743 22.9714 17.0743 22.9714C16.6629 23.3028 16.32 23.0057 15.9886 22.9942C15.6571 23.0057 15.3143 23.3028 14.9029 22.9714C14.9029 22.9714 14.8914 22.9942 14.8571 23.0171L14.4457 23.1542C14.4343 23.1542 14.3886 23.1657 14.3314 23.1657C14.2743 23.1542 14.2286 23.1314 14.1829 23.0857C14.16 23.0514 14.1486 22.9942 14.16 22.9371V22.5257C14.16 22.4914 14.1714 22.4685 14.1714 22.4571C13.9771 22.3428 13.8971 22.1828 13.8971 22.0114C13.8971 21.7942 13.8857 21.6 13.8514 21.4971C13.8057 21.3485 13.7714 21.28 13.5771 21.0285C13.4171 20.8228 13.44 20.5828 13.5086 20.4C13.4971 20.4 13.4514 20.3885 13.4171 20.3542L13.1314 19.9542C13.1086 19.92 13.1086 19.8742 13.12 19.8514C13.12 19.8171 13.1314 19.7828 13.1543 19.76C13.1771 19.7371 13.2114 19.7257 13.2343 19.7142L13.6114 19.5885C13.7143 19.5542 13.7371 19.5771 13.7714 19.5771C13.8629 19.3028 14.0114 19.1771 14.2057 19.1314C14.3429 19.0971 14.4914 19.04 14.64 18.9257C14.7543 18.8457 14.8457 18.7314 14.9943 18.5371C15.1314 18.3542 15.3486 18.2857 15.5429 18.2971C15.5429 18.2628 15.52 18.2171 15.5657 18.1714L15.8514 17.8171C15.8971 17.76 15.9543 17.76 15.9771 17.7485C16.0343 17.76 16.08 17.76 16.1257 17.8171Z" fill="#002E60"></path>
    <path fill-rule="evenodd" clip-rule="evenodd" d="M15.8857 19.2C15.7943 19.1086 15.6343 19.04 15.4629 19.1772C15.44 19.1886 15.4172 19.2115 15.3943 19.2343C15.2457 19.3715 15.2229 19.4972 15.0629 19.5772C14.8457 19.68 14.4572 19.68 14.5829 20.1029C14.6286 20.2286 14.6286 20.2058 14.5143 20.1829C14.3086 20.1372 14.1372 20.0229 14.1143 19.8058C14.1029 19.6 14.2057 19.44 14.3772 19.3829C14.4914 19.3486 14.6172 19.3372 14.8457 19.1772C15.12 18.9943 15.1543 18.7543 15.36 18.6515C15.4857 18.6058 15.6 18.6058 15.7257 18.6515C15.92 18.7429 15.9657 18.9486 15.9429 19.1886C15.9429 19.2572 15.9086 19.2229 15.8857 19.2Z" fill="#E41819"></path>
    <path fill-rule="evenodd" clip-rule="evenodd" d="M15.9314 20.32V19.6114C15.9429 19.4514 15.8743 19.3371 15.7371 19.3029C15.68 19.2914 15.6114 19.2914 15.5543 19.3257C15.4743 19.3714 15.4286 19.4514 15.36 19.5314C15.2914 19.6114 15.2114 19.6914 15.12 19.7257C15.04 19.76 14.9486 19.7714 14.8686 19.8171C14.7771 19.8629 14.7086 19.9314 14.72 20.0571C14.72 20.1257 14.7543 20.1943 14.8114 20.24C14.8686 20.2857 14.9371 20.3086 15.0171 20.3314L15.6229 20.5257C15.6686 20.5371 15.6914 20.5257 15.7143 20.4914C15.7829 20.3886 15.84 20.3771 15.8971 20.3657C15.9314 20.3771 15.9314 20.3429 15.9314 20.32Z" fill="#E41819"></path>
    <path fill-rule="evenodd" clip-rule="evenodd" d="M16.1486 19.2C16.24 19.1086 16.4 19.04 16.5714 19.1772C16.5943 19.1886 16.6171 19.2115 16.64 19.2343C16.7886 19.3715 16.8114 19.4972 16.9714 19.5772C17.1886 19.68 17.5771 19.68 17.4514 20.1029C17.4057 20.2286 17.4057 20.2058 17.52 20.1829C17.7257 20.1372 17.8971 20.0229 17.92 19.8058C17.9314 19.6 17.8286 19.44 17.6571 19.3829C17.5428 19.3486 17.4171 19.3372 17.1886 19.1772C16.9143 18.9943 16.88 18.7543 16.6743 18.6515C16.5486 18.6058 16.4343 18.6058 16.3086 18.6515C16.1143 18.7429 16.0686 18.9486 16.0914 19.1886C16.0914 19.2572 16.1257 19.2229 16.1486 19.2Z" fill="#E41819"></path>
    <path fill-rule="evenodd" clip-rule="evenodd" d="M16.1029 20.32V19.6114C16.0914 19.4514 16.16 19.3371 16.2972 19.3029C16.3543 19.2914 16.4229 19.2914 16.48 19.3257C16.56 19.3714 16.6057 19.4514 16.6743 19.5314C16.7429 19.6114 16.8229 19.6914 16.9143 19.7257C16.9943 19.76 17.0857 19.7714 17.1657 19.8171C17.2572 19.8629 17.3257 19.9314 17.3143 20.0571C17.3143 20.1257 17.28 20.1943 17.2229 20.24C17.1657 20.2857 17.0972 20.3086 17.0172 20.3314L16.4114 20.5257C16.4 20.5371 16.3772 20.5371 16.3657 20.5371C16.3543 20.5371 16.3543 20.5371 16.3429 20.5257C16.2514 20.3886 16.2057 20.3886 16.1257 20.3657C16.1029 20.3657 16.0914 20.3429 16.1029 20.32Z" fill="#E41819"></path>
    <path fill-rule="evenodd" clip-rule="evenodd" d="M17.0286 21.92C17.1543 21.9429 17.3257 21.8972 17.3829 21.6915C17.3943 21.6686 17.3943 21.6343 17.4057 21.6C17.44 21.4057 17.3829 21.28 17.4743 21.12C17.5886 20.9029 17.9086 20.6743 17.5543 20.4115C17.4514 20.3429 17.4514 20.3543 17.5657 20.3086C17.76 20.2286 17.9657 20.2172 18.1143 20.3772C18.24 20.5372 18.2629 20.72 18.1486 20.88C18.08 20.9829 17.9886 21.0629 17.8972 21.3257C17.7943 21.6343 17.8972 21.8515 17.7829 22.0572C17.7143 22.1715 17.6114 22.24 17.4857 22.2629C17.2686 22.3086 17.12 22.16 16.9943 21.9543C16.96 21.8972 17.0057 21.9086 17.0286 21.92Z" fill="#E41819"></path>
    <path fill-rule="evenodd" clip-rule="evenodd" d="M16.3314 21.0514L16.7543 21.6228C16.8343 21.76 16.96 21.8171 17.0972 21.76C17.1543 21.7371 17.2 21.7028 17.2229 21.6343C17.2572 21.5543 17.2572 21.4514 17.2572 21.3485C17.2686 21.2457 17.28 21.1314 17.3372 21.0514C17.3829 20.9828 17.44 20.9028 17.4857 20.8343C17.5314 20.7428 17.5429 20.6514 17.4629 20.5485C17.4172 20.4914 17.36 20.4571 17.28 20.4457C17.2 20.4457 17.1429 20.4685 17.0629 20.4914L16.4572 20.6971C16.4229 20.7085 16.4 20.7314 16.4114 20.7657C16.4229 20.9028 16.3657 20.96 16.32 20.9943C16.3086 21.0057 16.32 21.0285 16.3314 21.0514Z" fill="#E41819"></path>
    <path fill-rule="evenodd" clip-rule="evenodd" d="M14.9943 21.92C14.8686 21.9429 14.6972 21.8972 14.64 21.6915C14.6286 21.6686 14.6286 21.6343 14.6172 21.6C14.5829 21.4057 14.64 21.28 14.5486 21.12C14.4343 20.9029 14.1143 20.6743 14.4686 20.4115C14.5714 20.3429 14.5714 20.3543 14.4572 20.3086C14.2629 20.2286 14.0572 20.2172 13.9086 20.3772C13.7829 20.5372 13.76 20.72 13.8743 20.88C13.9429 20.9829 14.0343 21.0629 14.1257 21.3257C14.2286 21.6343 14.1257 21.8515 14.24 22.0572C14.3086 22.1715 14.4114 22.24 14.5372 22.2629C14.7543 22.3086 14.9029 22.16 15.0286 21.9543C15.0743 21.8972 15.0286 21.9086 14.9943 21.92Z" fill="#E41819"></path>
    <path fill-rule="evenodd" clip-rule="evenodd" d="M15.6914 21.0514L15.2686 21.6228C15.1886 21.76 15.0629 21.8171 14.9257 21.76C14.8686 21.7371 14.8229 21.7028 14.8 21.6343C14.7657 21.5543 14.7657 21.4514 14.7657 21.3485C14.7543 21.2457 14.7429 21.1314 14.6857 21.0514C14.64 20.9828 14.5714 20.9028 14.5372 20.8343C14.4914 20.7428 14.48 20.6514 14.56 20.5485C14.6057 20.4914 14.6629 20.4571 14.7429 20.4457C14.8229 20.4457 14.88 20.4685 14.96 20.4914L15.5657 20.6971C15.6 20.7085 15.6114 20.72 15.6229 20.7428C15.6 20.8457 15.6457 20.9143 15.7029 20.9828C15.7143 21.0057 15.7143 21.0285 15.6914 21.0514Z" fill="#E41819"></path>
    <path fill-rule="evenodd" clip-rule="evenodd" d="M16.8229 22.0572C16.8 22.1829 16.72 22.3315 16.4914 22.3315C16.4571 22.3315 16.4343 22.3315 16.4 22.32C16.2057 22.2972 16.1029 22.2058 15.9314 22.24C15.6914 22.2858 15.3714 22.5143 15.2343 22.1029C15.2 21.9772 15.2114 21.9886 15.1314 22.08C14.9943 22.24 14.9143 22.4343 15.04 22.6172C15.1543 22.7886 15.3257 22.8572 15.5086 22.8C15.6229 22.7658 15.7257 22.6972 16.0114 22.6858C16.3429 22.6743 16.5143 22.8458 16.7314 22.8C16.8571 22.7658 16.96 22.6972 17.0171 22.5829C17.12 22.3886 17.0286 22.2058 16.8686 22.0229C16.8229 21.9772 16.8229 22.0229 16.8229 22.0572Z" fill="#E41819"></path>
    <path fill-rule="evenodd" clip-rule="evenodd" d="M16.2057 21.12L16.6286 21.6914C16.7314 21.8057 16.7543 21.9428 16.6514 22.0571C16.6057 22.1028 16.56 22.1371 16.4914 22.1485C16.4 22.16 16.3086 22.1257 16.2057 22.0914C16.1028 22.0685 16 22.0457 15.8971 22.0685C15.8171 22.0914 15.7257 22.1257 15.6457 22.1371C15.5428 22.1485 15.4514 22.1371 15.3828 22.0343C15.3371 21.9771 15.3257 21.9085 15.3486 21.8285C15.3714 21.7485 15.4171 21.7028 15.4628 21.6343L15.84 21.12C15.8628 21.0971 15.8743 21.0743 15.9086 21.0857C16.0228 21.1428 16.1143 21.1085 16.16 21.0857C16.1714 21.0857 16.1943 21.1085 16.2057 21.12Z" fill="#E41819"></path>
    <path d="M16.2629 20.7428C16.2629 20.8685 16.16 20.9828 16.0229 20.9828C15.8972 20.9828 15.7829 20.88 15.7829 20.7428C15.7829 20.6171 15.8857 20.5028 16.0229 20.5028C16.1486 20.5028 16.2629 20.6171 16.2629 20.7428Z" fill="#FEBE53"></path>
    <path fill-rule="evenodd" clip-rule="evenodd" d="M15.7943 18.4228C15.7714 18.4 15.7714 18.3885 15.8057 18.3657C15.8743 18.2857 15.9314 18.1942 16 18.08C16.0686 18.1828 16.1371 18.2742 16.1943 18.3657C16.2171 18.4 16.2286 18.4 16.2057 18.4228C16.1257 18.4914 16.0457 18.5714 16 18.72C15.9657 18.5714 15.8743 18.4914 15.7943 18.4228Z" fill="#E41819"></path>
    <path fill-rule="evenodd" clip-rule="evenodd" d="M18.1486 19.84C18.16 19.8057 18.1714 19.8171 18.2057 19.8286C18.3086 19.8629 18.4114 19.8971 18.5372 19.9314C18.4572 20.0229 18.3886 20.1143 18.32 20.2057C18.2972 20.24 18.2972 20.2514 18.2629 20.2286C18.1714 20.1714 18.0686 20.1143 17.92 20.1257C18.0572 20.0343 18.1029 19.9314 18.1486 19.84Z" fill="#E41819"></path>
    <path fill-rule="evenodd" clip-rule="evenodd" d="M13.7486 20.2171C13.7143 20.2399 13.7143 20.2285 13.6914 20.1942C13.6343 20.1028 13.5657 20.0228 13.4857 19.92C13.6114 19.8857 13.7143 19.8514 13.8171 19.8171C13.8514 19.8057 13.8629 19.7942 13.8743 19.8285C13.9086 19.92 13.9657 20.0342 14.0914 20.1142C13.9429 20.1028 13.8286 20.1714 13.7486 20.2171Z" fill="#E41819"></path>
    <path fill-rule="evenodd" clip-rule="evenodd" d="M17.5314 22.4686C17.5657 22.4686 17.5657 22.48 17.5657 22.5257C17.5657 22.6286 17.5657 22.7429 17.5771 22.8686C17.4629 22.8229 17.3486 22.7886 17.2457 22.7657C17.2114 22.7543 17.2 22.7543 17.2 22.72C17.2229 22.6172 17.2457 22.5029 17.1886 22.3657C17.3143 22.4457 17.4286 22.4572 17.5314 22.4686Z" fill="#E41819"></path>
    <path fill-rule="evenodd" clip-rule="evenodd" d="M14.8229 22.6971C14.8343 22.7314 14.8229 22.7314 14.7772 22.7429C14.6743 22.7771 14.5714 22.8114 14.4572 22.8571C14.4686 22.7314 14.4686 22.6171 14.4572 22.5143C14.4572 22.48 14.4572 22.4686 14.4914 22.4571C14.5943 22.4457 14.7086 22.4343 14.8229 22.3314C14.7772 22.48 14.8 22.6057 14.8229 22.6971Z" fill="#E41819"></path>
  </g>
  <defs>
    <clipPath id="clip0_413_467">
      <rect width="32" height="32" fill="white"></rect>
    </clipPath>
  </defs>
</svg>
