<?xml version="1.0" encoding="UTF-8"?>
<svg xmlns="http://www.w3.org/2000/svg" width="24" height="24" viewBox="0 0 24 24" fill="none">
  <g clip-path="url(#clip0_424_1399)">
    <path d="M8.2012 6.07996C8.22143 6.09993 8.24175 6.09993 8.28221 6.09993C8.30244 6.09993 8.34299 6.07996 8.34299 6.05989C8.38355 6.01986 8.38355 5.97993 8.34299 5.93989C8.32276 5.91993 7.95807 5.55993 7.61361 5.17986C7.20837 4.73989 7.02602 4.35983 7.10713 4.11983C7.16791 3.93983 7.3097 3.7798 7.51238 3.73986C7.43137 3.59989 7.37058 3.45983 7.33003 3.29989C7.20847 3.27993 7.06668 3.27993 6.94511 3.29989C6.76277 3.31986 6.58042 3.37986 6.41831 3.45993C6.21573 3.57993 6.07384 3.75993 6.01306 3.97996C5.76994 4.93996 7.47182 5.73993 8.2012 6.07996ZM10.0044 5.89996C10.0246 5.91993 10.0652 5.91993 10.0854 5.91993C10.1057 5.91993 10.1462 5.91993 10.1664 5.89996C10.207 5.87999 10.207 5.81999 10.1867 5.77996C9.59908 5.09999 8.54557 3.73996 8.93048 2.89996C9.25462 2.31993 10.1461 2.57999 10.369 2.63999C10.4906 2.65996 10.5716 2.69999 10.6324 2.59996C10.6526 2.55993 10.5918 2.47996 10.5918 2.47996C9.984 1.87996 9.41674 1.73999 9.05205 1.73999H8.97104C8.46456 1.73999 7.99853 2.02002 7.7554 2.45999C7.3097 3.28002 8.07954 4.12002 8.58612 4.67999C8.99136 5.11996 9.47762 5.53996 10.0043 5.89996H10.0044Z" fill="#D2AA3A"></path>
    <path d="M8.36321 4.80005L8.34298 4.78008C8.30242 4.72008 8.24164 4.68005 8.20119 4.62005C8.09985 4.78008 8.1404 5.02008 8.2822 5.30001C8.40376 5.52005 8.54555 5.72001 8.68744 5.91998C8.68744 5.91998 8.99135 5.87995 9.51815 5.85998C9.09268 5.51995 8.70776 5.18001 8.3633 4.79995L8.36321 4.80005ZM10.4298 5.70005C10.4298 5.70005 10.4906 5.76005 10.4906 5.78001C10.835 5.76005 11.1997 5.76005 11.5846 5.76005C11.3415 5.06001 11.1794 4.32005 11.1389 3.58008C10.5109 3.64008 9.88275 3.80011 9.29526 4.02005C9.59916 4.62005 9.98408 5.18001 10.4299 5.70005H10.4298Z" fill="#BE2E26"></path>
    <path d="M11.8278 1.21997C11.5441 1.29994 11.3617 1.57997 11.4429 1.86C11.5036 2.1 11.7265 2.28 11.9899 2.26003C12.2938 2.26003 12.5369 2.02003 12.5369 1.74C12.5369 1.5 12.3748 1.27997 12.1317 1.21997V0.759936H12.6179V0.459936H12.1317V0H11.8278V0.460032H11.3415V0.740064H11.8278V1.22006V1.21997ZM18.5543 7.87997C18.4733 7.83994 16.4877 7.14 11.9899 7.14C7.49205 7.14 5.50648 7.84003 5.42547 7.87997C5.34446 7.9199 5 10 5 12.06C5 14.12 5.42547 16.8 6.88423 18.92C8.34299 21.0399 11.4429 23.7 11.9899 24C12.5369 23.7 15.6166 21.04 17.0955 18.92C18.5745 16.7999 19 14.12 19 12.06C19 10 18.6151 7.93997 18.5543 7.87997ZM15.6368 5.94C15.6166 5.98003 15.6166 6.01997 15.6368 6.06C15.657 6.07997 15.6773 6.10003 15.6976 6.10003C15.7178 6.10003 15.7583 6.10003 15.7786 6.08006C16.4877 5.72006 18.2098 4.94006 17.9667 4.00003C17.9059 3.78 17.7641 3.6 17.5615 3.48C17.3994 3.37997 17.217 3.34003 17.0347 3.31997C16.9131 3.3 16.7713 3.3 16.6497 3.31997C16.6092 3.48 16.5484 3.61997 16.4674 3.75994C16.67 3.79997 16.8119 3.9599 16.8726 4.1399C16.9537 4.3799 16.7511 4.75987 16.3662 5.19994C16.0015 5.5799 15.6368 5.91994 15.6368 5.9399V5.94ZM13.6108 2.62003C13.8133 2.56003 14.7251 2.30006 15.0493 2.88C15.4342 3.72 14.3807 5.08003 13.7931 5.76C13.7526 5.80003 13.7729 5.83997 13.7931 5.88C13.8133 5.89997 13.8337 5.89997 13.8539 5.89997C13.8741 5.89997 13.9147 5.89997 13.9349 5.88C14.4617 5.52 14.9276 5.11997 15.3531 4.66003C15.8596 4.10006 16.6295 3.24 16.1635 2.44003C15.9204 2.00006 15.4543 1.72003 14.9479 1.72003H14.9276C14.5629 1.72003 14.0159 1.86 13.4081 2.46C13.4081 2.46 13.3271 2.53997 13.3675 2.58C13.4081 2.68003 13.5093 2.65997 13.6107 2.62003H13.6108Z" fill="#D2AA3A"></path>
    <path d="M15.7786 4.60005L15.6368 4.76008L15.5962 4.80012C15.2518 5.18008 14.8669 5.52012 14.4414 5.82012C14.9682 5.86015 15.2721 5.88012 15.2721 5.88012C15.4139 5.68015 15.5558 5.48008 15.6773 5.26015C15.8395 5.00018 15.8799 4.78015 15.7787 4.60015L15.7786 4.60005ZM13.4689 5.78008C13.4891 5.76012 13.5297 5.72008 13.5297 5.70012C13.9754 5.18008 14.3604 4.60015 14.644 4.00015C14.0564 3.78012 13.4283 3.62018 12.8003 3.56018C12.7597 4.30015 12.6179 5.04021 12.3546 5.74015C12.7801 5.76012 13.1245 5.76012 13.4689 5.78018V5.78008Z" fill="#BE2E26"></path>
    <path d="M11.9899 2.41992C11.7062 2.41992 11.4834 2.85989 11.5036 3.77995C11.5036 4.33992 11.767 5.51995 11.9291 5.79999C11.9493 5.84002 11.9696 5.85999 11.9899 5.85999C12.0101 5.85999 12.0304 5.84002 12.0507 5.79999C12.2128 5.49999 12.4761 4.34002 12.4761 3.77995C12.4964 2.87995 12.2532 2.41992 11.9899 2.41992ZM11.9899 6.15989C10.2272 6.15989 8.86978 6.29986 8.86978 6.29986V6.85983C8.86978 6.85983 10.2272 6.71986 11.9899 6.71986C13.7525 6.71986 15.11 6.85983 15.11 6.85983V6.29986C15.11 6.27989 13.7525 6.15989 11.9899 6.15989Z" fill="#D2AA3A"></path>
    <path d="M17.8655 8.42C17.8047 8.37997 15.961 7.88 11.9899 7.88C8.01875 7.88 6.17507 8.40004 6.09406 8.42C6.01305 8.43997 5.76993 10.52 5.76993 12.34C5.76993 14.1599 6.13462 16.6199 7.45159 18.4799C8.76855 20.3399 11.4632 22.72 11.9697 23.02C12.4965 22.72 15.2113 20.32 16.4877 18.4799C17.7641 16.6399 18.1694 14.1599 18.1694 12.34C18.1694 10.52 17.9263 8.48 17.8655 8.42Z" fill="white"></path>
    <path d="M16.2244 18.04C15.0087 19.76 12.4357 22.1 11.9899 22.36C11.5442 22.12 8.97103 19.76 7.7554 18.04C6.53977 16.32 6.17508 14.06 6.17508 12.38C6.17508 10.7 6.41821 8.82008 6.47899 8.76008C6.53977 8.70008 8.26188 8.30005 11.9899 8.30005C15.7179 8.30005 17.44 8.74002 17.5008 8.76008C17.5616 8.78014 17.7845 10.7 17.7845 12.38C17.7845 14.06 17.44 16.3201 16.2244 18.04Z" fill="#D2AA3A"></path>
    <path d="M17.3994 11.64H6.58032C6.58032 11.88 6.56009 12.14 6.56009 12.38C6.56009 13.38 6.70188 15.92 8.0594 17.84C9.15347 19.4 11.3011 21.38 11.99 21.92C12.6788 21.38 14.8062 19.4199 15.9206 17.84C17.278 15.94 17.4199 13.38 17.4199 12.38C17.3996 12.14 17.3996 11.88 17.3996 11.64H17.3994Z" fill="white"></path>
    <path d="M7.30969 16.08C7.51227 16.68 7.81617 17.24 8.16064 17.76C8.54555 18.28 8.9508 18.76 9.37627 19.22V11.96H7.30969V16.08Z" fill="url(#paint0_linear_424_1399)"></path>
    <path d="M10.7945 11.96V20.66C11.301 21.14 11.7264 21.5199 11.9899 21.74C12.2533 21.5199 12.699 21.14 13.1853 20.66V11.96H10.7946H10.7945Z" fill="url(#paint1_linear_424_1399)"></path>
    <path d="M17.3994 11.6399C17.3792 10.78 17.2981 9.91991 17.1766 9.05994C16.6497 8.93994 15.0086 8.65991 11.9899 8.65991C8.97113 8.65991 7.32993 8.95991 6.80322 9.05994C6.72221 9.47994 6.62088 10.54 6.58032 11.6399H17.3994Z" fill="#BE2E26"></path>
    <path d="M14.5833 19.22C15.0087 18.7599 15.414 18.26 15.7989 17.76C16.1636 17.24 16.4473 16.68 16.6498 16.08V11.96H14.5833V19.22Z" fill="url(#paint2_linear_424_1399)"></path>
    <path d="M8.05932 10.06C8.05932 10 8.09987 9.94004 8.16065 9.94004H8.18088C8.22144 9.94004 8.26189 9.96 8.30245 9.98007L8.36323 9.7801C8.30245 9.74007 8.22144 9.7201 8.14033 9.7201C7.95798 9.7201 7.79587 9.88013 7.79587 10.0601V10.1002C7.79587 10.2602 7.8972 10.4002 8.03899 10.4801C8.12 10.5202 8.18079 10.5601 8.18079 10.6601C8.18079 10.7401 8.12 10.8001 8.03899 10.8001H8.01877C7.97821 10.8001 7.93776 10.8001 7.8972 10.7801L7.81619 10.9801C7.87697 11.0201 7.95798 11.0401 8.03909 11.0401C8.24166 11.0401 8.40378 10.9001 8.40378 10.7001V10.6401C8.46456 10.3 8.05932 10.2801 8.05932 10.06ZM8.58613 11.02H8.95082L8.99137 9.92007V9.94004L9.21427 11.02H9.41684L9.61941 9.92007L9.70042 11.02H10.0449C10.0247 10.98 10.0043 10.92 9.9841 10.86C9.9841 10.76 9.86254 9.55997 9.84231 9.40004L9.43707 9.42L9.31551 10.38L9.17371 9.43997L8.76847 9.48C8.74824 9.70004 8.66714 10.78 8.64691 10.86C8.64691 10.92 8.62668 10.96 8.58613 11.02ZM11.2807 11.02H11.6252V10.2L11.605 10.04L11.9899 11.0199H12.2736V9.51994C12.2736 9.45994 12.2938 9.39994 12.3141 9.35991H11.9697V10.1199C11.9697 10.1999 11.9697 10.28 11.9899 10.3599L11.6252 9.33994H11.3213V10.8599C11.3213 10.9199 11.3213 10.9599 11.2807 11.0199M13.4891 10.1999C13.4891 10.6199 13.7322 11.0199 14.1983 11.0199C14.2793 11.0199 14.3401 11 14.4212 10.9799L14.3604 10.6999C14.3198 10.7198 14.2794 10.7198 14.2388 10.7198C13.9755 10.7198 13.8539 10.4198 13.8539 10.1998C13.8539 9.97978 13.9755 9.69984 14.2388 9.69984C14.2794 9.69984 14.3198 9.69984 14.3604 9.71981L14.4414 9.45984L14.259 9.39984H14.1983C13.7526 9.39984 13.4891 9.79988 13.4891 10.1998M16.2648 9.97978L16.3256 9.73978H15.7178V11.0197H15.9812V10.4797H16.1837V10.2397H15.9812V9.97978H16.2648ZM16.8929 10.7998C16.67 10.7998 16.5484 10.5998 16.5484 10.3798C16.5484 10.1598 16.67 9.95981 16.8523 9.95981H16.9537L17.0144 9.75984C16.9537 9.73988 16.8929 9.71981 16.8321 9.71981C16.508 9.75984 16.2648 10.0598 16.3053 10.3998C16.3255 10.7197 16.5282 11.0398 16.8929 11.0398C16.9537 11.0398 17.0144 11.0198 17.055 10.9998L16.9942 10.7998H16.8929ZM10.6324 10.7398C10.4298 10.7398 10.4095 10.3198 10.4095 10.1998C10.4095 10.0798 10.4297 9.65981 10.6324 9.65981C10.835 9.65981 10.8553 10.0598 10.8553 10.1998C10.8553 10.3398 10.835 10.7398 10.6324 10.7398ZM10.6324 9.35981C10.3487 9.35981 10.0853 9.57984 10.0853 10.1998C10.0853 10.8198 10.3487 11.0398 10.6324 11.0398C10.9161 11.0398 11.1794 10.8198 11.1794 10.2198C11.1794 9.61978 10.8957 9.35981 10.6324 9.35981ZM12.9218 9.99984L12.9624 9.79988L13.003 9.99984L13.084 10.4398H12.8814L12.9219 9.99984H12.9218ZM12.7395 10.9999L12.8003 10.6799H13.1042L13.165 10.9999H13.5094C13.4689 10.9598 13.4487 10.8998 13.4284 10.8398C13.4082 10.7599 13.1447 9.51984 13.084 9.33984H12.7598L12.4154 10.9999H12.7395Z" fill="white"></path>
    <path d="M14.9682 10.76C14.7656 10.76 14.7453 10.38 14.7453 10.26C14.7453 10.14 14.7655 9.76006 14.9682 9.76006C15.1708 9.76006 15.1911 10.1201 15.1911 10.26C15.1911 10.4 15.1911 10.76 14.9682 10.76ZM14.9682 9.45996C14.6845 9.45996 14.4211 9.67999 14.4211 10.24C14.4211 10.7999 14.6845 11.02 14.9682 11.02C15.2519 11.02 15.5354 10.7999 15.5354 10.24C15.5354 9.67999 15.2721 9.45996 14.9682 9.45996ZM7.22868 10.5599L7.28946 10.2199L7.30969 10.0599L7.32992 10.2199L7.3907 10.5599H7.22858H7.22868ZM7.45158 9.75996H7.18822L6.90454 11H7.14767L7.18822 10.76H7.45158L7.49213 11H7.77581C7.75558 10.98 7.73526 10.94 7.73526 10.9C7.73526 10.84 7.4719 9.75996 7.45158 9.75996Z" fill="white"></path>
  </g>
  <defs>
    <linearGradient id="paint0_linear_424_1399" x1="8.23169" y1="9.33901" x2="8.23169" y2="19.0395" gradientUnits="userSpaceOnUse">
      <stop stop-color="#D02D26"></stop>
      <stop offset="0.35" stop-color="#CD2D25"></stop>
      <stop offset="0.57" stop-color="#C52B23"></stop>
      <stop offset="0.76" stop-color="#B6291F"></stop>
      <stop offset="0.92" stop-color="#A2251A"></stop>
      <stop offset="1" stop-color="#952317"></stop>
    </linearGradient>
    <linearGradient id="paint1_linear_424_1399" x1="11.878" y1="11.8466" x2="11.878" y2="21.5471" gradientUnits="userSpaceOnUse">
      <stop stop-color="#D02D26"></stop>
      <stop offset="0.35" stop-color="#CD2D25"></stop>
      <stop offset="0.57" stop-color="#C52B23"></stop>
      <stop offset="0.76" stop-color="#B6291F"></stop>
      <stop offset="0.92" stop-color="#A2251A"></stop>
      <stop offset="1" stop-color="#952317"></stop>
    </linearGradient>
    <linearGradient id="paint2_linear_424_1399" x1="15.5041" y1="-301.629" x2="15.5041" y2="-301.629" gradientUnits="userSpaceOnUse">
      <stop stop-color="#D02D26"></stop>
      <stop offset="0.35" stop-color="#CD2D25"></stop>
      <stop offset="0.57" stop-color="#C52B23"></stop>
      <stop offset="0.76" stop-color="#B6291F"></stop>
      <stop offset="0.92" stop-color="#A2251A"></stop>
      <stop offset="1" stop-color="#952317"></stop>
    </linearGradient>
    <clipPath id="clip0_424_1399">
      <rect width="14" height="24" fill="white" transform="translate(5)"></rect>
    </clipPath>
  </defs>
</svg>
