<?xml version="1.0" encoding="UTF-8"?>
<svg xmlns="http://www.w3.org/2000/svg" width="24" height="24" viewBox="0 0 24 24" fill="none">
  <g clip-path="url(#clip0_434_1936)">
    <path d="M20.4856 20.4853C25.1719 15.799 25.1719 8.20101 20.4856 3.51472C15.7993 -1.17157 8.2013 -1.17157 3.51501 3.51472C-1.17129 8.20101 -1.17129 15.799 3.51501 20.4853C8.2013 25.1716 15.7993 25.1716 20.4856 20.4853Z" fill="#00569F"></path>
    <path d="M3.87693 3.87562C1.70708 6.04548 0.511444 8.93071 0.511444 11.9999C0.511444 15.0692 1.70645 17.9544 3.87693 20.1243C6.04679 22.2941 8.93203 23.4898 12.0013 23.4898C15.0705 23.4898 17.9557 22.2947 20.1256 20.1243C22.2954 17.9544 23.4911 15.0692 23.4911 11.9999C23.4911 8.93071 22.2961 6.04548 20.1256 3.87562C17.9557 1.70577 15.0705 0.510132 12.0013 0.510132C8.93203 0.510132 6.04679 1.70514 3.87693 3.87562Z" fill="url(#paint0_linear_434_1936)"></path>
    <path d="M18.2306 18.2303C21.6716 14.7894 21.6716 9.21058 18.2306 5.76967C14.7897 2.32875 9.21089 2.32875 5.76997 5.76967C2.32906 9.21059 2.32906 14.7894 5.76997 18.2303C9.21089 21.6712 14.7897 21.6712 18.2306 18.2303Z" fill="white"></path>
    <path d="M17.9903 17.99C21.2984 14.6818 21.2984 9.3182 17.9903 6.01003C14.6821 2.70185 9.3185 2.70186 6.01033 6.01003C2.70216 9.3182 2.70216 14.6818 6.01033 17.99C9.3185 21.2981 14.6821 21.2981 17.9903 17.99Z" fill="#1592D1"></path>
    <path d="M12.0006 20.1724C16.5144 20.1724 20.1736 16.5132 20.1736 11.9994C20.1736 7.48558 16.5144 3.82642 12.0006 3.82642C7.4868 3.82642 3.82764 7.48558 3.82764 11.9994C3.82764 16.5132 7.4868 20.1724 12.0006 20.1724Z" fill="url(#paint1_linear_434_1936)"></path>
    <path d="M6.99481 6.9568H10.0896L15.1266 12.9786C15.1591 13.0173 15.222 12.9942 15.222 12.9437V8.42C15.222 7.84495 14.7555 7.37842 14.1805 7.37842H13.8661V6.95618H17.0033V7.37842H16.7956C16.2792 7.37842 15.8601 7.79693 15.8601 8.31397V16.961H15.4503L9.00126 9.2514C8.99003 9.2383 8.9707 9.23705 8.9576 9.24765C8.95074 9.25327 8.94699 9.262 8.94699 9.27135V15.2196C8.94699 15.8302 9.44221 16.3248 10.0522 16.3248H10.3042V16.7065H6.99481V16.3248H7.3341C7.85053 16.3248 8.26966 15.9063 8.26966 15.3892V8.37634L7.80126 7.81626L7.626 7.6067C7.505 7.46262 7.326 7.37905 7.13764 7.37842H6.99606V6.9568H6.99481Z" fill="url(#paint2_linear_434_1936)"></path>
  </g>
  <defs>
    <linearGradient id="paint0_linear_434_1936" x1="3.87693" y1="3.87624" x2="20.1256" y2="20.1249" gradientUnits="userSpaceOnUse">
      <stop offset="0.02" stop-color="#7BA6CB"></stop>
      <stop offset="0.06" stop-color="#6E9EC6"></stop>
      <stop offset="0.12" stop-color="#4C88BA"></stop>
      <stop offset="0.21" stop-color="#1664A7"></stop>
      <stop offset="0.24" stop-color="#00569F"></stop>
    </linearGradient>
    <linearGradient id="paint1_linear_434_1936" x1="6.2214" y1="6.2208" x2="17.7798" y2="17.7792" gradientUnits="userSpaceOnUse">
      <stop offset="0.43" stop-color="#1592D1"></stop>
      <stop offset="0.57" stop-color="#2299D5"></stop>
      <stop offset="0.82" stop-color="#43ACDE"></stop>
      <stop offset="0.96" stop-color="#5AB8E4"></stop>
    </linearGradient>
    <linearGradient id="paint2_linear_434_1936" x1="7.05968" y1="6.89256" x2="16.4944" y2="16.3273" gradientUnits="userSpaceOnUse">
      <stop offset="0.08" stop-color="#C4E7F4"></stop>
      <stop offset="0.25" stop-color="#E9F6FB"></stop>
      <stop offset="0.36" stop-color="#FCFDFF"></stop>
      <stop offset="0.78" stop-color="#C4E7F4"></stop>
      <stop offset="0.83" stop-color="#CAE9F5"></stop>
      <stop offset="0.9" stop-color="#DAF0F8"></stop>
      <stop offset="0.98" stop-color="#F5FAFE"></stop>
      <stop offset="1" stop-color="#FCFDFF"></stop>
    </linearGradient>
    <clipPath id="clip0_434_1936">
      <rect width="24" height="24" fill="white"></rect>
    </clipPath>
  </defs>
</svg>
