<?xml version="1.0" encoding="UTF-8"?>
<svg xmlns="http://www.w3.org/2000/svg" width="24" height="24" viewBox="0 0 24 24" fill="none">
  <g clip-path="url(#clip0_422_872)">
    <path d="M12.3197 1.23155H13.6467L12.5783 1.99269L12.9918 3.22262L11.9138 2.46796L10.8431 3.23298L11.245 1.99852L10.1693 1.23123H11.4963L11.9019 0L12.3197 1.23155Z" fill="#BEA064"></path>
    <path d="M6.09011 21.2368C5.60235 21.1616 4.85528 20.9379 2.66415 21.2374L2.5451 20.9956C3.05741 20.6459 3.97093 19.8763 4.61521 18.5079C5.41765 16.3471 8.05875 9.84459 8.05875 7.21897C8.05875 7.19178 8.05875 7.16393 8.05809 7.13771C8.00736 6.41218 7.68737 5.37456 7.31301 4.7235C7.21188 4.55871 7.09681 4.39975 6.97413 4.25341C6.96882 4.24791 6.93931 4.21812 6.93931 4.21812L6.94196 4.21521C6.75196 3.99571 6.56926 3.83415 6.42336 3.72278L6.54737 3.4408C7.14887 3.6998 8.41819 4.29 9.19809 4.97861C9.57278 4.63803 10.2738 4.28935 10.7924 4.12909L10.8905 4.36122C10.8259 4.42727 10.8192 4.4373 10.7808 4.50076L10.7774 4.50594L10.7735 4.51112C10.2993 5.12948 10.1514 5.7608 10.1514 6.36427C10.1514 6.92274 10.2777 7.45693 10.3911 7.93543C10.3911 7.93543 10.4883 8.36246 10.49 8.37153C10.4903 8.37412 11.7245 13.2158 11.9261 13.9711C12.1283 13.2158 13.3618 8.37412 13.3632 8.37153C13.3652 8.36214 13.4616 7.93543 13.4616 7.93543C13.5747 7.45693 13.7017 6.92242 13.7017 6.36427C13.7017 5.7608 13.5532 5.12948 13.0797 4.51112L13.0757 4.50594L13.0714 4.50076C13.0339 4.43698 13.0273 4.42694 12.9619 4.36122L13.0601 4.12909C13.5787 4.28935 14.2797 4.63803 14.6544 4.97861C15.4346 4.29 16.7036 3.6998 17.3058 3.4408L17.4298 3.72278C17.2839 3.83415 17.1008 3.99571 16.9112 4.21521L16.9138 4.21812C16.9138 4.21812 16.8843 4.24758 16.8787 4.25341C16.756 4.39942 16.6412 4.55871 16.5391 4.7235C16.1651 5.37424 15.8444 6.41186 15.7947 7.13771C15.794 7.16393 15.7937 7.19178 15.7937 7.21897C15.7937 9.84459 18.4832 16.3475 19.2857 18.5079C19.9299 19.8763 20.8431 20.6459 21.3558 20.9956L21.2351 21.2374C19.0439 20.9379 18.2932 21.1623 17.8061 21.2374L14.5287 12.1665C14.3244 12.9286 13.8901 14.5095 13.8911 14.5066L13.7962 14.9184C13.7014 15.3205 13.6255 15.6427 13.6255 15.9421C13.6255 16.3866 13.7929 16.7829 14.3135 17.3168L14.2293 17.5609C13.9607 17.7237 13.4673 17.8668 13.1128 17.883C13.0007 18.4098 12.3691 19.2127 11.9257 19.5834C11.4831 19.2127 10.8521 18.4098 10.7396 17.883C10.3852 17.8668 9.89177 17.7237 9.62352 17.5609L9.53963 17.3168C10.0596 16.7829 10.2273 16.3866 10.2273 15.9421C10.2273 15.6427 10.1514 15.3205 10.0566 14.9184L9.96174 14.5066C9.9624 14.5095 9.52802 12.9286 9.32409 12.1665L6.08978 21.2364" fill="#1CA4DA"></path>
    <path d="M11.9221 5.63428C6.92836 5.63428 2.88 9.07543 2.88 13.3208C2.88 17.5661 6.92836 21.0073 11.9221 21.0073C16.9158 21.0073 20.9642 17.5661 20.9642 13.3208C20.9642 9.07543 16.9158 5.63428 11.9221 5.63428ZM11.9204 20.2384C8.15325 20.2384 5.09932 17.1414 5.09932 13.3208C5.09932 9.50019 8.15325 6.40319 11.9204 6.40319C15.6876 6.40319 18.7419 9.50019 18.7419 13.3208C18.7419 17.1414 15.6876 20.2384 11.9204 20.2384Z" fill="#1CA4DA"></path>
    <path d="M3.52693 23.2349C3.52693 23.6244 3.40225 23.6749 3.24607 23.6749H3.05839V22.8652H3.23016C3.39894 22.8652 3.5266 22.9076 3.5266 23.2349H3.52693ZM4.14169 23.2469C4.14169 22.9604 4.03293 22.7665 3.78623 22.6557C3.61148 22.5771 3.41784 22.569 3.26796 22.569H2.5V23.9757H3.29017C3.58363 23.9757 3.75805 23.9132 3.89565 23.806C4.09195 23.6548 4.14202 23.4648 4.14202 23.2469" fill="#BEA062"></path>
    <path d="M5.1348 22.8655C5.30921 22.8655 5.39377 22.8982 5.39377 22.9989C5.39377 23.0941 5.32812 23.1524 5.13812 23.1524H4.97895V22.8655H5.13513H5.1348ZM6.10867 23.9757C6.03705 23.8708 5.85302 23.6102 5.78106 23.5156C5.72768 23.4431 5.63716 23.3783 5.56255 23.3644C5.8182 23.3359 6.01517 23.2129 6.01517 22.9707C6.01517 22.7286 5.80925 22.569 5.16928 22.569H4.42023V23.9757H4.97895V23.4185C5.10065 23.4185 5.15072 23.4369 5.23461 23.5817L5.46241 23.9757H6.10867Z" fill="#BEA062"></path>
    <path d="M7.16677 23.7154C6.93598 23.7154 6.80169 23.6264 6.80169 23.2674C6.80169 22.999 6.90746 22.8274 7.1608 22.8274C7.41413 22.8274 7.50698 22.9119 7.50698 23.2632C7.50698 23.6144 7.40418 23.7154 7.16677 23.7154ZM7.15748 24C7.93439 24 8.13136 23.6225 8.13136 23.2188C8.13136 22.9099 7.91616 22.5444 7.17605 22.5444C6.60207 22.5444 6.17731 22.807 6.17731 23.3075C6.17731 23.729 6.52713 24 7.15748 24Z" fill="#BEA062"></path>
    <path d="M8.40924 22.569H8.98024V23.9757H8.40924V22.569Z" fill="#BEA062"></path>
    <path d="M10.7814 22.8678H10.2754V23.9757H9.71039V22.8678H9.20505V22.569H10.8467L10.7811 22.8678" fill="#BEA062"></path>
    <path d="M12.4917 23.427H12.2109L12.2984 23.1971C12.3356 23.1019 12.3515 23.0252 12.3575 22.9727C12.3604 23.0252 12.3764 23.1081 12.3982 23.1705L12.4917 23.427ZM13.322 23.976L12.6635 22.5693H12.0829L11.3839 23.976H11.9708L12.0892 23.7057H12.6042L12.7166 23.976H13.322Z" fill="#BEA062"></path>
    <path d="M15.0453 23.5418C15.0453 23.6629 15.0387 23.7173 14.9919 23.774C14.9014 23.8908 14.6583 24.0003 14.2273 24.0003C13.8841 24.0003 13.647 23.9397 13.5157 23.8248C13.4344 23.7481 13.4096 23.7134 13.4096 23.526V22.5693H13.9713V23.4878C13.9713 23.6166 14.034 23.7034 14.2306 23.7034C14.4272 23.7034 14.4862 23.6309 14.4862 23.4936V22.569H15.045V23.5418" fill="#BEA062"></path>
    <path d="M16.8992 22.8656C17.0305 22.8656 17.0862 22.9041 17.0862 22.9769C17.0862 23.0498 17.0395 23.1103 16.9055 23.1103H16.6833V22.8659H16.8989L16.8992 22.8656ZM17.7388 23.5419C17.7388 23.3722 17.5518 23.2615 17.3396 23.2253C17.5796 23.1748 17.6609 23.0414 17.6609 22.9145C17.6609 22.6561 17.4052 22.5693 17.0899 22.5693H16.1253V23.976H17.0086C17.505 23.976 17.7388 23.7986 17.7388 23.5422V23.5419ZM17.0962 23.5296C17.0962 23.6163 17.0371 23.6753 16.8962 23.6753H16.6837V23.3965H16.8899C17.0613 23.3965 17.0958 23.459 17.0958 23.5296" fill="#BEA062"></path>
    <path d="M19.6365 23.5418C19.6365 23.6629 19.6305 23.7173 19.5834 23.774C19.4929 23.8908 19.2495 24.0003 18.8188 24.0003C18.4753 24.0003 18.2382 23.9397 18.1069 23.8248C18.0256 23.7481 18.0008 23.7134 18.0008 23.526V22.5693H18.5631V23.4878C18.5631 23.6166 18.6251 23.7034 18.8221 23.7034C19.0191 23.7034 19.0778 23.6309 19.0778 23.4936V22.569H19.6365V23.5418Z" fill="#BEA062"></path>
    <path d="M21.4347 22.8678H20.9293V23.9757H20.364V22.8678H19.8586V22.569H21.5003L21.4347 22.8678Z" fill="#BEA062"></path>
  </g>
  <defs>
    <clipPath id="clip0_422_872">
      <rect width="19" height="24" fill="white" transform="translate(2.5)"></rect>
    </clipPath>
  </defs>
</svg>
