<?xml version="1.0" encoding="UTF-8"?>
<svg xmlns="http://www.w3.org/2000/svg" width="24" height="25" viewBox="0 0 24 25" fill="none">
  <g clip-path="url(#clip0_425_1618)">
    <path d="M22.5606 0H2.00281L2 17.2751C2 18.3373 2.28979 19.1591 2.86095 19.7174C3.42649 20.271 4.25658 20.5326 5.32504 20.5621C8.40609 20.6478 10.3467 21.3203 11.8695 23.0053L12.2817 23.5L12.6939 23.0053C14.2158 21.3203 16.1573 20.6478 19.2374 20.5621C20.3068 20.5327 21.136 20.271 21.7025 19.7174C22.2736 19.1591 22.5624 18.3373 22.5624 17.2751L22.5606 0L22.5606 0Z" fill="#CA953E"></path>
    <path d="M19.2378 20.0263C16.0203 20.1286 13.8161 20.8471 12.2812 22.5864C10.7472 20.8471 8.54202 20.1285 5.32542 20.0263C3.47736 19.9692 2.5332 19.1235 2.5332 17.2755L2.53506 7.88342H22.0281L22.0291 17.2755C22.0291 19.1235 21.0859 19.9692 19.2378 20.0263" fill="#1D3C85"></path>
    <path d="M2.53587 0.525635H22.0271L22.028 7.35758H2.53491L2.53584 0.525635H2.53587Z" fill="#E31B22"></path>
    <path d="M14.5919 9.23071V18.6559H20.6904V15.6582H17.9637V9.23071H14.5919H14.5919Z" fill="#CA953E"></path>
    <path d="M17.5491 9.63965V16.0672H20.275V18.2477H15.0065V9.63965H17.5491Z" fill="white"></path>
    <path d="M3.49437 13.9434C3.49437 16.6684 5.74347 18.8849 8.50857 18.8849C11.2737 18.8849 13.5228 16.6684 13.5228 13.9434C13.5228 11.2183 11.2737 9.00183 8.50857 9.00183C5.74347 9.00183 3.49437 11.2183 3.49437 13.9434Z" fill="#CA953E"></path>
    <path d="M3.93417 13.9433C3.93417 11.4577 5.98603 9.43469 8.50902 9.43469C11.032 9.43469 13.0829 11.4577 13.0829 13.9433C13.0829 16.4288 11.0311 18.4518 8.50902 18.4518C5.98696 18.4518 3.93417 16.4288 3.93417 13.9433Z" fill="white"></path>
    <path d="M11.1707 11.1413C10.8893 11.2565 10.7528 11.052 10.7145 10.9119C10.5471 11.0769 10.6388 11.2804 10.7051 11.3375C10.6509 11.3652 10.4219 11.4941 10.4116 11.7705C10.6425 11.835 10.8603 11.73 10.9276 11.683C10.9416 11.7576 11.0454 11.8839 11.266 11.8424C11.152 11.7226 11.0987 11.5089 11.2613 11.4195L11.3034 11.3974C11.5418 11.2961 11.6838 11.4721 11.7213 11.5568C11.8007 11.73 11.7325 11.9373 11.5698 12.0192L10.5032 12.5619C9.9573 12.8346 10.0106 13.3403 10.1293 13.5725L10.6191 14.5287C10.7107 14.7194 10.5733 14.8512 10.4761 14.8954C10.319 14.9654 10.1302 14.9046 10.0564 14.7618L9.39736 13.4932C9.43381 13.5218 9.53291 13.5577 9.62076 13.5181C9.33097 13.0566 9.84323 13.0741 9.67592 12.6567L9.89465 12.7148C9.63572 12.1436 10.22 12.1492 9.92363 11.6968L10.1311 11.671C9.76936 11.3164 10.0947 11.0759 9.6544 10.9313L9.81611 10.7922C9.51418 10.8124 9.37021 10.4292 8.93649 10.4836C8.75981 10.5057 8.60369 10.5536 8.44479 10.6024C8.35413 10.6309 8.28589 10.5978 8.20175 10.6392L8.13444 10.7691C8.02226 10.7922 7.83717 10.8438 7.78671 10.8972L7.8082 11.0501L7.84091 11.0915C7.8727 11.2481 7.92412 11.3845 8.0157 11.4656L8.284 11.4002C8.284 11.4002 8.49621 11.5162 8.56445 11.6904C8.60372 11.7917 8.5869 11.8543 8.46161 11.8562C8.3541 11.858 8.14378 11.8129 8.05964 11.8C8.02504 11.8893 8.00822 12.0607 8.08676 12.1187L8.42423 12.1344C8.40648 12.3758 8.2298 12.5241 7.92693 12.4265C7.05757 12.1492 6.50044 12.0681 6.1845 11.3726C6.19572 11.3237 6.25648 10.8475 5.90779 10.7258C5.9508 10.8594 5.98725 11.016 5.94984 11.1459C5.8919 10.9248 5.72363 10.7783 5.45907 10.8051C5.60956 10.9092 5.70211 11.0409 5.70306 11.1754C5.59181 11.0943 5.38804 11.0676 5.2366 11.1321C5.9564 11.4527 5.71147 11.999 5.39364 12.0487C5.5245 12.1556 5.73671 12.1271 5.86478 12.0487L6.29572 12.5923L6.10689 12.7249C6.19383 12.7203 6.33217 12.7341 6.39012 12.7903C6.4219 12.876 6.46491 13.0298 6.40787 13.2519C6.57614 13.1653 6.64438 13.0446 6.66868 12.9368L7.30246 13.3025C6.98277 13.4684 6.02553 13.9428 5.53665 13.7208C5.46281 13.6876 4.98138 13.484 4.7159 13.7493C4.89539 13.7438 5.07018 13.8157 5.10197 13.8866C4.91688 13.9069 4.69252 13.987 4.63646 14.1906C4.70563 14.1464 4.94025 14.1298 5.06084 14.1501C4.95522 14.233 4.87108 14.3804 4.88324 14.5711C4.88324 14.5711 5.27024 14.2183 5.58714 14.3095C5.73485 14.3509 5.66379 14.6061 5.63389 14.6669C5.87415 14.6328 5.93491 14.3998 5.93583 14.3804L6.67338 14.35C6.72292 14.374 6.74444 14.478 6.69861 14.561C6.8248 14.526 6.88089 14.4523 6.91268 14.3353C7.06783 14.3537 7.15386 14.4578 7.1716 14.6126C7.27911 14.5029 7.26508 14.3334 7.22021 14.2477L8.02507 14.0561L8.30364 14.3601C8.30364 14.3601 6.865 15.2464 6.37518 15.2233C6.45091 15.3938 6.80331 15.3744 6.96598 15.3145C6.91645 15.403 6.95197 15.532 6.95197 15.532C6.95197 15.532 7.06041 15.5393 7.17259 15.3984L7.35394 15.8986C7.25299 16.117 6.54908 16.1639 6.54908 16.1639C6.42101 16.0635 6.0686 15.9465 5.87229 16.093C6.02278 16.0995 6.1443 16.2128 6.16301 16.2828C6.08076 16.2837 5.79282 16.3178 5.7274 16.5813C5.88911 16.5085 6.0845 16.5085 6.1443 16.5398C6.05268 16.6043 5.93957 16.7536 5.9695 16.9396C6.17701 16.7232 6.46494 16.6255 6.65752 16.6679C6.7697 16.6928 6.77529 16.8586 6.74351 16.9765C6.90337 16.9351 6.99495 16.7729 7.02863 16.6872L7.79889 16.4505C7.79889 16.4505 7.82412 16.5177 7.82226 16.6264C7.91855 16.6154 8.01295 16.4984 8.02043 16.4145C8.02043 16.4145 8.16533 16.631 8.39247 16.5933C8.25973 16.3731 8.07838 15.8084 8.07931 15.6637C8.08023 15.4804 8.6411 15.3717 8.73553 15.3441L9.00754 15.7347C9.00754 15.7347 8.73083 15.8683 8.68318 16.0424C8.92529 15.9373 9.12068 15.9475 9.18237 15.9622C9.23564 16.0175 9.28799 16.1161 9.31044 16.2321C9.36279 16.199 9.43196 16.1004 9.43851 16C10.0545 16.1925 10.0555 16.2856 9.90498 16.8982C9.62549 16.8706 9.17958 16.8568 9.0833 17.1387C9.25249 17.0926 9.44692 17.1221 9.55162 17.1617C9.42076 17.2059 9.18611 17.3404 9.2422 17.6057C9.2422 17.6057 9.46934 17.3543 9.73108 17.3994C9.59086 17.4841 9.41606 17.6619 9.56937 17.8849C9.70866 17.603 10.033 17.5744 10.1695 17.6011L10.3621 17.1903C10.4406 17.0235 10.6556 17.0438 10.6799 17.2566C10.8837 17.0097 10.6547 16.7398 10.5892 16.7076L10.765 16.3345C10.822 16.34 10.9678 16.3768 11.0539 16.2764C10.9641 16.2497 10.8847 16.1917 10.8501 16.1308C10.9398 16.1373 11.1791 16.1732 11.2922 16.0194C10.908 15.9438 10.0134 15.4058 9.94613 15.0742C10.1209 15.2142 10.3752 15.2547 10.5949 15.158C10.737 15.0954 10.8445 14.9867 10.9006 14.8494C11.0595 14.526 11.4792 14.7886 11.5446 14.1898C11.3764 14.4247 11.0062 14.2681 10.9333 14.5592C10.7846 13.9143 11.7297 14.3353 11.7362 13.3616C11.5025 13.7596 10.6696 13.6177 10.7379 14.1216C10.3808 13.0815 11.9811 13.755 11.8933 12.4044C11.5811 13.0152 10.3397 12.8531 10.4575 13.5744L10.3892 13.4417C10.2958 13.252 10.3172 12.9866 10.6089 12.8319L11.7035 12.2755C12.0017 12.1244 12.1279 11.7623 11.9887 11.439C11.9045 11.2427 11.5942 10.9452 11.1707 11.1414M8.28035 10.8742C8.28035 10.8742 8.25419 10.7904 8.36074 10.7692C8.47945 10.7462 8.59259 10.8171 8.6898 10.8494C8.62904 10.9221 8.39442 10.9654 8.28035 10.8742ZM8.28502 11.5034C7.81388 11.7126 7.42128 11.6996 7.05951 11.5007C7.13802 11.7522 7.82229 12.081 8.28502 11.5034Z" fill="#CA953E"></path>
    <path d="M9.25339 6.40924C9.0739 6.58059 8.85609 6.67548 8.56538 6.67548C8.27466 6.67548 8.05312 6.58059 7.87458 6.40924C7.61658 6.16327 7.62406 5.85927 7.62406 5.43827C7.62406 5.01726 7.61658 4.71418 7.87458 4.46729C8.05312 4.29686 8.27559 4.20105 8.56538 4.20105C8.85516 4.20105 9.0739 4.29686 9.25339 4.46729C9.51139 4.71418 9.50765 5.0182 9.50765 5.43827C9.50765 5.85833 9.51139 6.16327 9.25339 6.40924ZM8.88414 4.75471C8.81308 4.67639 8.70186 4.6248 8.56538 4.6248C8.42889 4.6248 8.31486 4.67639 8.2438 4.75471C8.14659 4.85697 8.12136 4.97027 8.12136 5.43827C8.12136 5.90626 8.14659 6.01956 8.2438 6.12183C8.31486 6.20105 8.42982 6.25173 8.56538 6.25173C8.70093 6.25173 8.81308 6.20105 8.88414 6.12183C8.98135 6.01956 9.00939 5.90718 9.00939 5.43827C9.00939 4.96935 8.98135 4.85697 8.88414 4.75471Z" fill="white"></path>
    <path d="M5.32768 6.23159H4.26014V4.24816L4.23398 4.22144H3.78904L3.76288 4.24816V6.62956L3.78904 6.65534H5.32771L5.35387 6.62956V6.25737L5.32771 6.23159H5.32768Z" fill="white"></path>
    <path d="M7.24367 4.22156H6.74264L6.27339 5.20268L5.79758 4.22156H5.28343L5.26569 4.23905L6.02287 5.65685V6.62877L6.04903 6.65549H6.49023L6.51735 6.62877V5.65685L7.26986 4.24734L7.2437 4.22156H7.24367Z" fill="white"></path>
    <path d="M11.709 4.22156L11.6829 4.24734V5.71212L10.6723 4.22156H10.2545L10.2283 4.24734V6.62874L10.2545 6.65546H10.6994L10.7265 6.62874V5.16121L11.7361 6.65546H12.154L12.1801 6.62874V4.24734L12.154 4.22156H11.709Z" fill="white"></path>
    <path d="M16.7286 4.2477L16.7024 4.22192H16.3444L16.3182 4.24679L15.4078 6.63648L15.4274 6.65583H15.92L16.0743 6.22467H16.9801L17.1306 6.65583H17.6232L17.6428 6.63648L16.7286 4.2477ZM16.2135 5.82487L16.536 4.93955L16.8473 5.82487H16.2135Z" fill="white"></path>
    <path d="M18.1251 4.22156L18.0979 4.24734V6.62874L18.1251 6.65546H18.57L18.5962 6.62874V4.24734L18.57 4.22156H18.1251Z" fill="white"></path>
    <path d="M14.4676 4.22156L14.4405 4.24734V5.71212L13.4309 4.22156H13.0131L12.9869 4.24734V6.62874L13.0131 6.65546H13.458L13.4842 6.62874V5.16121L14.4947 6.65546H14.9126L14.9387 6.62874V4.24734L14.9126 4.22156H14.4676Z" fill="white"></path>
    <path d="M20.8423 5.42151C20.7347 5.3257 20.588 5.26396 20.3552 5.23358L20.0542 5.19214C19.9504 5.17925 19.8682 5.14146 19.8177 5.09725L19.7429 4.92221C19.7429 4.75455 19.8719 4.61453 20.1365 4.61453C20.2982 4.61453 20.4833 4.6348 20.6403 4.76744L20.6777 4.76562L20.9563 4.50215V4.469C20.7413 4.28013 20.4917 4.20093 20.1505 4.20093C19.5989 4.20093 19.2624 4.50495 19.2624 4.93977C19.2624 5.14427 19.3232 5.30181 19.4447 5.41788C19.5597 5.52383 19.7214 5.58923 19.9392 5.61964L20.2477 5.66108C20.3655 5.67766 20.4235 5.70161 20.473 5.74583C20.5272 5.79373 20.5525 5.86558 20.5525 5.95127C20.5525 6.14657 20.3945 6.25252 20.101 6.25252C19.8729 6.25252 19.6625 6.20371 19.5036 6.06274L19.4663 6.06457L19.1821 6.33632V6.37225C19.4289 6.60073 19.7168 6.67627 20.0935 6.67627C20.6273 6.67627 21.0395 6.40912 21.0395 5.93744C21.0395 5.72279 20.9788 5.54498 20.8423 5.42154" fill="white"></path>
    <path d="M5.1735 3.46658C5.00337 3.63424 4.7949 3.72822 4.51915 3.72822C4.2434 3.72822 4.0312 3.63424 3.86107 3.46658C3.61522 3.22429 3.62271 2.92581 3.62271 2.51218C3.62271 2.09855 3.61522 1.80007 3.86107 1.55869C4.0312 1.39012 4.24248 1.29614 4.51915 1.29614C4.79583 1.29614 5.00337 1.39012 5.1735 1.55869C5.41934 1.80007 5.4156 2.09946 5.4156 2.51218C5.4156 2.9249 5.41934 3.22429 5.1735 3.46658ZM4.82202 1.8406C4.75471 1.76323 4.64815 1.71255 4.51915 1.71255C4.39015 1.71255 4.28079 1.76323 4.21255 1.8406C4.12 1.941 4.09663 2.05247 4.09663 2.51218C4.09663 2.97189 4.12 3.08336 4.21255 3.18468C4.28079 3.26205 4.38923 3.31181 4.51915 3.31181C4.64908 3.31181 4.75471 3.26205 4.82202 3.18468C4.91457 3.08333 4.94168 2.9728 4.94168 2.51218C4.94168 2.05156 4.91457 1.941 4.82202 1.8406Z" fill="white"></path>
    <path d="M16.6867 3.54538L16.4979 3.35929C16.6512 3.13726 16.6475 2.87194 16.6475 2.51267C16.6475 2.09903 16.6512 1.80056 16.4054 1.55827C16.2352 1.39061 16.0268 1.29663 15.751 1.29663C15.4753 1.29663 15.2631 1.39061 15.0929 1.55827C14.8471 1.80056 14.8546 2.09903 14.8546 2.51267C14.8546 2.9263 14.8471 3.22478 15.0929 3.46615C15.2631 3.63473 15.4743 3.72871 15.751 3.72871C15.9417 3.72871 16.1053 3.68449 16.2418 3.59789L16.4381 3.79041H16.4755L16.6867 3.58222V3.54538ZM16.1296 2.99633L15.9483 2.81852L15.6968 3.06358L15.9081 3.26808L15.751 3.3123C15.6211 3.3123 15.5126 3.26162 15.4444 3.18425C15.3519 3.08385 15.3285 2.97238 15.3285 2.51267C15.3285 2.05296 15.3519 1.94149 15.4444 1.84017C15.5126 1.7628 15.6211 1.71304 15.751 1.71304C15.8809 1.71304 15.9856 1.7628 16.0539 1.84017C16.1464 1.94152 16.1735 2.05205 16.1735 2.51267C16.1735 2.75404 16.167 2.89223 16.1296 2.99633Z" fill="white"></path>
    <path d="M7.28969 3.29176H6.32126V1.34243L6.29414 1.31665H5.8735L5.84734 1.34243V3.68239L5.8735 3.70817H7.28969L7.31585 3.68239V3.31757L7.28969 3.29179V3.29176Z" fill="white"></path>
    <path d="M8.91689 1.31653H8.44201L7.99611 2.28108L7.54275 1.31653H7.06695L7.04079 1.34231L7.75684 2.72786V3.68227L7.78396 3.70805H8.20086L8.22798 3.68227V2.72786L8.94404 1.34231L8.91692 1.31653H8.91689Z" fill="white"></path>
    <path d="M10.9764 1.31653L10.3454 2.60997L9.71166 1.31653H9.27138L9.24426 1.34231V3.68227L9.27138 3.70805H9.69202L9.71818 3.68227V2.31423L10.1856 3.22164H10.5062L10.9699 2.31423V3.68227L10.996 3.70805H11.4167L11.4438 3.68227V1.34234L11.4167 1.31656H10.9764L10.9764 1.31653Z" fill="white"></path>
    <path d="M14.4174 1.31653H13.9968L13.9697 1.34231V3.68227L13.9968 3.70805H14.4174L14.4436 3.68227V1.34234L14.4174 1.31656V1.31653Z" fill="white"></path>
    <path d="M18.4067 1.31653L18.3805 1.34231V2.87157C18.3805 3.14796 18.2132 3.31193 17.9571 3.31193C17.7009 3.31193 17.5383 3.14796 17.5383 2.87157V1.34234L17.5111 1.31656H17.0905L17.0643 1.34234V2.88909C17.0643 3.39579 17.4598 3.72834 17.9571 3.72834C18.4544 3.72834 18.8507 3.39576 18.8507 2.88909V1.34234L18.8246 1.31656H18.4067L18.4067 1.31653Z" fill="white"></path>
    <path d="M19.7577 3.29176V2.71047H20.6888L20.7159 2.68469V2.31987L20.6888 2.29409H19.7577V1.73306H20.8561L20.8832 1.70633V1.34243L20.8561 1.31665H19.3109L19.2838 1.34243V3.68239L19.3109 3.70817H20.8561L20.8832 3.68239V3.31757L20.8561 3.29179H19.7577V3.29176Z" fill="white"></path>
    <path d="M12.8389 1.31653H11.9247L11.8976 1.34231V3.68227L11.9247 3.70805H12.3454L12.3715 3.68227V2.89184H12.8389C13.3399 2.89184 13.64 2.51044 13.64 2.10418C13.64 1.69792 13.34 1.31653 12.8389 1.31653M12.8146 2.47177H12.3715V1.73294H12.8146C13.0296 1.73294 13.1661 1.90888 13.1661 2.10418C13.1661 2.29948 13.0296 2.47177 12.8146 2.47177Z" fill="white"></path>
  </g>
  <defs>
    <clipPath id="clip0_425_1618">
      <rect width="21" height="24" fill="white" transform="translate(2 0.5)"></rect>
    </clipPath>
  </defs>
</svg>
