<?xml version="1.0" encoding="UTF-8"?>
<svg xmlns="http://www.w3.org/2000/svg" width="24" height="24" viewBox="0 0 24 24" fill="none">
  <g clip-path="url(#clip0_418_852)">
    <path d="M12 0C5.3856 0 0 5.3808 0 12C0 18.6192 5.3856 24 12 24C18.6144 24 24 18.6144 24 12C24 5.3856 18.6192 0 12 0Z" fill="#004071"></path>
    <path d="M11.9904 13.9919C10.56 13.9919 9.39841 15.0959 9.39841 16.4543C9.39841 16.9343 9.54241 17.3807 9.79201 17.7599C10.4736 18.0239 11.2176 18.1679 11.9904 18.1679C12.7632 18.1679 13.5072 18.0239 14.1888 17.7599C14.4384 17.3807 14.5824 16.9343 14.5824 16.4543C14.5872 15.0959 13.4256 13.9919 11.9904 13.9919Z" fill="#004071"></path>
    <path d="M14.256 12.1632C15.0096 13.4112 15.9792 14.4864 17.1168 15.4032C16.6272 16.1472 15.9792 16.7808 15.2208 17.2512C15.2496 17.088 15.264 16.9248 15.264 16.7568C15.264 15.0672 13.8 13.6992 11.9952 13.6992C10.1904 13.6992 8.7264 15.0672 8.7264 16.7568C8.7264 16.9248 8.7408 17.0928 8.7696 17.2512C8.0112 16.7808 7.3632 16.1472 6.8736 15.4032C8.0064 14.4864 8.976 13.4112 9.7296 12.1632H14.256ZM14.1168 11.9232C13.1568 10.2432 12.5904 8.25601 12.5472 5.93281C12.3648 5.91841 12.1776 5.90881 11.9904 5.90881C11.8032 5.90881 11.616 5.91841 11.4288 5.93761C11.3856 8.25601 10.8192 10.2432 9.8592 11.9232H14.1168Z" fill="#EC1C24"></path>
    <path d="M12.2112 17.184L12.2208 17.208C12.1776 17.2944 12.1056 17.4 12.0144 17.472L11.9952 17.4816L11.976 17.472C11.8848 17.4 11.8128 17.2944 11.7696 17.208L11.7792 17.184C11.8512 17.1408 11.904 17.0688 11.9232 16.9872L11.9952 16.9296L12.0672 16.9872C12.0864 17.0736 12.1392 17.1408 12.2112 17.184ZM12.4176 15.8112C12.4176 15.5616 12.0912 14.7792 11.9904 14.7792L11.9664 14.7888C11.8464 14.8848 11.5632 15.576 11.5632 15.8112C11.5632 15.9984 11.9376 16.488 11.9376 16.7568L11.9904 16.8048L12.0384 16.7568C12.0432 16.488 12.4176 15.9984 12.4176 15.8112ZM11.7792 16.7328C11.6016 16.2672 11.2944 16.0128 10.9776 16.0128C10.7376 16.0128 10.5408 16.2048 10.5408 16.4496C10.5408 16.6944 10.7376 16.8816 10.9776 16.8816C11.0496 16.8816 11.1264 16.848 11.16 16.8048C11.2224 16.7328 11.208 16.6608 11.2032 16.6512L11.1744 16.6368H11.1504C11.0688 16.6368 11.0064 16.5696 11.0064 16.4928C11.0064 16.4112 11.0736 16.3488 11.1504 16.3488C11.2944 16.3488 11.544 16.488 11.6832 16.7808L11.7312 16.8096L11.784 16.7568L11.7792 16.7328ZM12.9888 16.0128C12.672 16.0128 12.3648 16.2672 12.1872 16.7328L12.1824 16.7568L12.2352 16.8096L12.2832 16.7808C12.4176 16.488 12.672 16.3488 12.8112 16.3488C12.8928 16.3488 12.9552 16.416 12.9552 16.4928C12.9552 16.5744 12.888 16.6368 12.8112 16.6368H12.7872L12.7584 16.6512C12.7536 16.6656 12.7392 16.7376 12.8016 16.8048C12.84 16.8432 12.912 16.8816 12.984 16.8816C13.224 16.8816 13.4208 16.6896 13.4208 16.4496C13.4256 16.2048 13.2288 16.0128 12.9888 16.0128Z" fill="#C4A361"></path>
    <path d="M11.9856 0.859253C9.00959 0.859253 6.21119 2.01605 4.10879 4.12325C2.00639 6.22565 0.844788 9.02405 0.844788 12.0001C0.844788 14.9761 2.00639 17.7745 4.10879 19.8769C6.21119 21.9793 9.00959 23.1409 11.9856 23.1409C14.9616 23.1409 17.76 21.9841 19.8624 19.8769C21.9648 17.7697 23.1264 14.9761 23.1264 12.0001C23.1264 9.02405 21.9696 6.22565 19.8624 4.12325C17.76 2.01605 14.9616 0.859253 11.9856 0.859253ZM11.9856 1.30085C17.8944 1.30085 22.6848 6.09125 22.6848 12.0001C22.6848 17.9089 17.8944 22.6993 11.9856 22.6993C6.07679 22.6993 1.28159 17.9089 1.28159 12.0001C1.28159 6.09125 6.07199 1.30085 11.9856 1.30085ZM15 5.44325C14.8272 5.36165 14.6496 5.28965 14.472 5.22245L15.528 2.67845C15.7056 2.74565 15.8832 2.81765 16.056 2.89445L15 5.44325ZM11.9472 2.53925V3.45125H12.9696C13.2192 3.45125 13.4256 3.24485 13.4256 2.99525C13.4256 2.74565 13.2192 2.53925 12.9696 2.53925H11.9472ZM11.9472 4.76645C11.76 4.76645 11.5728 4.77605 11.3904 4.79045V2.04965H12.9744C13.4928 2.04965 13.9872 2.47205 13.9872 2.99045C13.9872 3.42245 13.6464 3.78725 13.2336 3.89765L13.9536 5.04965C13.7232 4.98245 13.488 4.92965 13.2528 4.88645L12.648 3.93605H11.952V4.76645M5.30879 5.23685L5.98079 5.85125L6.72959 5.02565C6.89759 4.83845 6.88319 4.55045 6.70079 4.38245C6.51359 4.21445 6.22559 4.22885 6.05759 4.41125L5.30879 5.23685ZM6.96479 6.74885C6.83039 6.87845 6.69599 7.00805 6.57119 7.14725L4.56959 5.32325L5.71679 4.06085C6.06719 3.67685 6.69119 3.62885 7.07519 3.97925C7.45919 4.32965 7.45919 4.94885 7.10879 5.33285L6.33599 6.18725L6.96479 6.74885ZM17.4096 4.43525C17.8224 4.33925 18.5808 5.09285 18.7248 5.60165C18.8448 5.51045 19.1136 5.31365 19.1136 5.31365C18.792 4.40165 17.5152 3.48965 16.9104 4.06085C16.5504 4.40165 16.7568 4.92485 17.0688 5.25125L17.3712 5.57285C17.6832 5.89925 17.952 6.22565 17.7024 6.43205C17.4384 6.65285 16.6944 6.10085 16.2432 5.15525L15.8448 5.45765C15.9408 5.70725 16.1568 6.06725 16.4448 6.37445C16.776 6.72005 17.1312 6.94565 17.4528 7.00805C17.7024 7.05605 17.9568 7.01765 18.12 6.86405C18.5328 6.48005 18.384 5.92325 17.7312 5.23685L17.4624 4.95365C17.1744 4.64165 17.2944 4.46405 17.4096 4.43525ZM8.77439 4.29125C9.04319 4.18085 9.31679 4.08485 9.59519 4.00325L8.81759 3.11525L8.77439 4.29125ZM8.94239 2.50565L11.0544 4.82405C10.8384 4.85285 10.6224 4.88645 10.4112 4.93445L9.93119 4.38245C9.52799 4.48805 9.13439 4.62725 8.75519 4.79045L8.72639 5.52005C8.52959 5.61605 8.34239 5.72165 8.15519 5.83685L8.36159 2.71205C8.55359 2.64005 8.74559 2.56805 8.94239 2.50565ZM12.8592 5.97125C15.8352 6.39365 18.1248 8.94725 18.1248 12.0385C18.1248 13.0273 17.8896 13.9633 17.472 14.7937C14.7696 12.7633 13.128 9.91205 12.8592 5.97125ZM15.2208 17.2513C15.2496 17.0881 15.264 16.9249 15.264 16.7521C15.264 15.0625 13.8 13.6945 11.9952 13.6945C10.1904 13.6945 8.72639 15.0625 8.72639 16.7521C8.72639 16.9201 8.74079 17.0881 8.76959 17.2513C8.01119 16.7809 7.36319 16.1473 6.87359 15.3985C8.00639 14.4817 8.97599 13.4065 9.72959 12.1585H14.2656C15.0192 13.4065 15.9888 14.4817 17.1264 15.3985C16.6272 16.1473 15.9792 16.7761 15.2208 17.2513ZM14.1936 17.7601C13.512 18.0241 12.768 18.1681 11.9952 18.1681C11.2224 18.1681 10.4784 18.0241 9.79679 17.7601C9.54719 17.3809 9.40319 16.9345 9.40319 16.4545C9.40319 15.0961 10.5648 13.9921 11.9952 13.9921C13.4256 13.9921 14.5872 15.0961 14.5872 16.4545C14.5872 16.9345 14.4432 17.3809 14.1936 17.7601ZM5.86079 12.0385C5.86079 8.94725 8.15039 6.38885 11.1264 5.97125C10.8576 9.91205 9.21599 12.7681 6.51359 14.7937C6.10079 13.9633 5.86079 13.0273 5.86079 12.0385ZM11.9904 5.90885C12.1776 5.90885 12.3648 5.91845 12.5472 5.93765C12.5904 8.26085 13.1568 10.2433 14.1168 11.9233H9.86399C10.824 10.2433 11.3904 8.25605 11.4336 5.93765C11.616 5.91845 11.8032 5.90885 11.9904 5.90885ZM11.9904 5.46725C8.36639 5.46725 5.41919 8.41445 5.41919 12.0385C5.41919 15.6625 8.36639 18.6097 11.9904 18.6097C15.6144 18.6097 18.5616 15.6625 18.5616 12.0385C18.5616 8.41445 15.6144 5.46725 11.9904 5.46725ZM6.64799 18.3409L6.29279 18.5089L6.53759 18.7201L6.64799 18.3409ZM6.51839 19.3441L6.38399 19.2433L6.49439 18.8785L6.14399 18.5809L5.79839 18.7489L5.68319 18.6385L6.71039 18.1537L6.83519 18.2593L6.51839 19.3441ZM6.83519 19.5697L7.41119 18.6961L7.53599 18.7777L6.95999 19.6513L6.83519 19.5697ZM7.98239 19.0609L8.15999 20.0353L8.52479 19.3441L8.65439 19.4113L8.17919 20.3233L8.04959 20.2705L7.87199 19.2865L7.49759 19.9825L7.36799 19.9105L7.84799 18.9937L7.98239 19.0609ZM9.75839 19.8241L9.71039 19.9633L9.36959 19.8433L9.07679 20.6833L8.93759 20.6353L9.23039 19.7953L8.88959 19.6801L8.93759 19.5409L9.75839 19.8241ZM12.0192 20.5921L12.4896 20.6017L12.4848 20.8753C12.48 21.0625 12.2784 21.1777 12.0192 21.1729C11.7456 21.1681 11.4624 20.9761 11.4672 20.6257C11.472 20.3329 11.712 20.0977 12.0384 20.1025C12.2832 20.1073 12.4128 20.2369 12.4704 20.2945L12.3648 20.4001C12.3168 20.3521 12.2352 20.2561 12.0528 20.2513C11.7792 20.2465 11.6208 20.4241 11.616 20.6353C11.6112 20.8369 11.7696 21.0193 12.0288 21.0241C12.2064 21.0289 12.336 20.9473 12.336 20.8609V20.7457L12.0144 20.7409L12.0192 20.5921ZM13.6224 19.9681L13.6416 20.1169L12.9552 20.2177L12.9936 20.4865L13.3392 20.4385L13.3584 20.5873L13.0128 20.6353L13.056 20.9473L13.7664 20.8465L13.7856 20.9953L12.9264 21.1201L12.7824 20.1025L13.6224 19.9681ZM14.16 19.9825L14.2464 20.2753L14.6832 20.1409C14.7888 20.1073 14.832 20.0353 14.8032 19.9393C14.7696 19.8289 14.6784 19.8289 14.5968 19.8529L14.16 19.9825ZM14.5536 19.7089C14.712 19.6609 14.8848 19.6945 14.9472 19.8961C15.0096 20.1121 14.8896 20.2177 14.808 20.2513L15.1296 20.5969L14.976 20.6545L14.6592 20.3041L14.2896 20.4145L14.4144 20.8273L14.2704 20.8657L13.9728 19.8817L14.5536 19.7089ZM16.8144 18.7489L16.8912 19.1329L17.1552 18.9457L16.8144 18.7489ZM17.7408 19.1185L17.6112 19.2193L17.2944 19.0273L16.92 19.2913L16.992 19.6657L16.8576 19.7473L16.6416 18.6433L16.776 18.5473L17.7408 19.1185ZM17.4192 18.0385L18.12 18.7921L18.0096 18.8881L17.3136 18.1393L17.4192 18.0385ZM17.8272 17.6353L18.816 17.7025L18.2352 17.1793L18.336 17.0689L19.0992 17.7553L19.0128 17.8657L18.0144 17.7985L18.6 18.3265L18.4944 18.4321L17.7264 17.7409L17.8272 17.6353ZM16.0848 19.0129L16.5696 19.9201L16.44 19.9921L16.0896 19.3537L16.0656 20.0737L15.4704 19.6705L15.7824 20.3281L15.648 20.3857L15.2016 19.4593L15.336 19.3921L15.9408 19.8001L15.96 19.0705L16.0848 19.0129ZM6.12959 17.6881V17.6929L6.02399 17.7553L6.01919 17.7601V17.7553C5.95199 17.5297 5.70239 17.2369 5.52959 17.2369H5.51039L5.42879 17.2993C5.40959 17.3377 5.40959 17.4049 5.48639 17.5105L5.58239 17.6401C5.72639 17.8321 5.79359 17.9953 5.77439 18.1153L5.66879 18.2785L5.52959 18.3169L5.41439 18.2977C5.29439 18.2593 5.15999 18.1537 5.04959 18.0001C4.93919 17.8513 4.87679 17.7025 4.85279 17.6065H4.85759L4.96799 17.5057V17.5105C5.09279 17.8897 5.34239 18.1537 5.49119 18.1537L5.55839 18.1345L5.62079 18.0433C5.63999 17.9521 5.55839 17.8321 5.47199 17.7169L5.36159 17.5681C5.28479 17.4673 5.24639 17.3521 5.26079 17.2609L5.34719 17.1169L5.49119 17.0689C5.72639 17.0689 6.04799 17.3761 6.12959 17.6881ZM10.2816 20.5537L10.3152 20.4049L10.68 20.4865L10.6464 20.6353L10.2816 20.5537Z" fill="white"></path>
  </g>
  <defs>
    <clipPath id="clip0_418_852">
      <rect width="24" height="24" fill="white"></rect>
    </clipPath>
  </defs>
</svg>
