<?xml version="1.0" encoding="UTF-8"?>
<svg xmlns="http://www.w3.org/2000/svg" width="24" height="24" viewBox="0 0 24 24" fill="none">
  <g clip-path="url(#clip0_971_196262)">
    <path fill-rule="evenodd" clip-rule="evenodd" d="M12.0723 0.735235L12.3031 0.739755C12.3166 0.825732 12.3031 0.911613 12.3077 1.00221L12.0814 1.00682C12.0542 1.08828 12.0723 1.1832 12.0723 1.26927C12.1854 1.30543 12.2984 1.35063 12.3843 1.45027C12.5336 1.42757 12.6694 1.50451 12.7419 1.64021C12.8096 1.54067 12.9226 1.47268 13.0494 1.47268C13.1626 1.48181 13.2712 1.53153 13.3346 1.63559C13.3573 1.68531 13.3753 1.73513 13.3889 1.79398C13.4755 1.71772 13.5954 1.69204 13.7056 1.72609C13.7916 1.75773 13.8956 1.83024 13.9273 1.92978C13.9454 1.9795 13.9362 2.02931 13.9497 2.08355C14.0584 2.04287 14.1987 2.03826 14.3073 2.11519C14.4159 2.20579 14.4657 2.35957 14.4249 2.5044L14.4338 2.51354C14.5652 2.49084 14.6871 2.55431 14.7686 2.66279L14.7778 2.66731C14.8455 2.53162 14.9905 2.4593 15.1443 2.4818C15.2347 2.5044 15.3434 2.5497 15.3887 2.64923L15.4294 2.74887C15.5381 2.67193 15.7191 2.67193 15.8368 2.75781C15.9318 2.83927 15.9814 2.95237 15.9679 3.08364C16.0721 3.03834 16.1989 3.02026 16.3119 3.08826C16.4137 3.15384 16.4764 3.26569 16.4793 3.38687L16.4657 3.54064C16.5654 3.50448 16.683 3.5317 16.7737 3.60402C16.8504 3.68548 16.9004 3.79396 16.8867 3.91619C16.8777 3.97043 16.846 4.01573 16.8323 4.06535C16.941 4.06997 17.0404 4.13787 17.1037 4.24183C17.149 4.32781 17.1536 4.45898 17.0994 4.554L17.0134 4.6671C17.0405 4.68527 17.0858 4.69412 17.1264 4.71672C17.2215 4.78462 17.2803 4.88877 17.2939 5.00639C17.2985 5.07429 17.2578 5.12853 17.2532 5.1919C17.3439 5.24624 17.4116 5.35482 17.4206 5.46349C17.4163 5.53139 17.389 5.59024 17.3619 5.64901C17.4388 5.78932 17.4478 6.01099 17.3438 6.14217C17.2031 6.29316 16.9863 6.34644 16.7918 6.27787C16.6197 6.44992 16.38 6.53128 16.1538 6.49502C16.1311 6.55388 16.1085 6.62178 16.0497 6.65803C15.9954 6.68063 15.9367 6.68958 15.8867 6.67611C15.5473 6.52686 15.2124 6.37741 14.8686 6.27796C13.8868 5.91598 12.8098 5.72152 11.7464 5.74864C11.7011 5.75316 11.6469 5.75316 11.5972 5.7621C10.389 5.83462 9.2804 6.15573 8.21271 6.60831C8.06778 6.63995 7.90035 6.80748 7.76484 6.64909C7.73916 6.60976 7.72358 6.56465 7.71955 6.51791C7.50229 6.53599 7.30784 6.4907 7.14492 6.35048C6.96393 6.38673 6.74677 6.34134 6.62464 6.17862C6.53404 6.061 6.5477 5.87087 6.59742 5.73969C6.5024 5.65372 6.45259 5.53148 6.49788 5.40944C6.52539 5.33241 6.58011 5.26797 6.65166 5.22845C6.6155 5.14699 6.5928 5.05197 6.62002 4.96138C6.65618 4.83482 6.76466 4.73528 6.89603 4.71701L6.90055 4.70355C6.81457 4.60401 6.72408 4.49072 6.7738 4.3506C6.80534 4.21942 6.9321 4.11536 7.06327 4.1018V4.07911C6.99557 3.98419 6.99557 3.83493 7.05433 3.73981C7.11319 3.61306 7.23532 3.5543 7.37102 3.56334L7.45248 3.57228C7.41632 3.47275 7.40276 3.35061 7.46161 3.25559C7.52932 3.13798 7.64694 3.07008 7.77831 3.07912C7.8236 3.07479 7.87784 3.09268 7.91862 3.1199C7.914 3.0293 7.92776 2.94342 7.97286 2.87552C8.0498 2.75339 8.20357 2.69905 8.34398 2.72627C8.38466 2.73521 8.42544 2.75348 8.4616 2.78051C8.49786 2.71261 8.52046 2.63587 8.58836 2.58595C8.67895 2.5045 8.81465 2.4819 8.93669 2.52719C9.00458 2.55441 9.07238 2.61317 9.11316 2.68559C9.19914 2.59961 9.29868 2.54075 9.42985 2.56797C9.43437 2.52267 9.41177 2.47295 9.41629 2.42766C9.42091 2.30552 9.49775 2.19242 9.61546 2.13818C9.71038 2.08846 9.84156 2.10202 9.9411 2.14712C9.91408 2.02499 9.94572 1.90275 10.0361 1.8213C10.1193 1.73888 10.238 1.70329 10.3528 1.72628C10.4025 1.73984 10.4478 1.77158 10.493 1.80322C10.5202 1.77167 10.5247 1.71743 10.5565 1.68108C10.6107 1.58154 10.7103 1.52268 10.819 1.50922C10.923 1.49566 11.0135 1.56346 11.086 1.63597C11.1312 1.53644 11.2398 1.45046 11.353 1.4369C11.4118 1.42334 11.4526 1.44584 11.5115 1.4369C11.5794 1.35092 11.6833 1.31476 11.7829 1.27851L11.7963 1.25581V1.00682L11.543 1.00221C11.5385 0.925269 11.5296 0.830348 11.543 0.744275L11.7828 0.739755C11.8098 0.662818 11.7736 0.567897 11.8054 0.5L12.0633 0.50452L12.0723 0.735235H12.0723Z" fill="black"></path>
    <path fill-rule="evenodd" clip-rule="evenodd" d="M12.0136 0.789502C12.077 0.798638 12.1675 0.794118 12.2445 0.794118C12.2535 0.843838 12.2535 0.907215 12.2445 0.947895H12.0227L12.0091 0.975112L12.0137 1.3145C12.0951 1.35066 12.1947 1.3598 12.2716 1.42317L12.3667 1.51357C12.46 1.4902 12.5588 1.51579 12.6291 1.58157C12.6698 1.62677 12.6971 1.6811 12.7105 1.74448C12.724 1.7491 12.7514 1.75804 12.774 1.73996C12.7965 1.63129 12.9008 1.54541 13.0138 1.53175C13.0998 1.52281 13.1812 1.55897 13.2491 1.61321C13.3215 1.6811 13.3305 1.78507 13.3259 1.8848C13.3939 1.94817 13.3939 1.82142 13.4616 1.81228C13.5251 1.7716 13.6111 1.76708 13.6926 1.78064C13.7513 1.80786 13.8283 1.85758 13.86 1.92548C13.9053 2.01145 13.8873 2.12907 13.86 2.21957C13.8963 2.21957 13.919 2.16985 13.9641 2.15167C14.0456 2.08829 14.1767 2.10195 14.2674 2.16081C14.3534 2.21957 14.3895 2.3191 14.385 2.42778C14.3804 2.49567 14.3354 2.54088 14.317 2.59983L14.3306 2.60896C14.4029 2.56819 14.4798 2.55011 14.5703 2.57732C14.679 2.618 14.747 2.72658 14.783 2.83978C14.7919 2.84891 14.7965 2.83083 14.8057 2.82169C14.8103 2.7086 14.869 2.59098 14.9867 2.55472C15.0817 2.51395 15.1993 2.53664 15.2854 2.60906C15.3531 2.67244 15.3713 2.76736 15.3758 2.8669L15.3847 2.87603C15.4527 2.78544 15.5523 2.72677 15.679 2.75389C15.765 2.77197 15.8689 2.83987 15.8961 2.93941C15.9187 3.00731 15.9096 3.0978 15.878 3.16118C15.8734 3.18378 15.8961 3.1882 15.914 3.20186C15.973 3.15214 16.0408 3.10232 16.1313 3.10232C16.227 3.09876 16.3177 3.14502 16.371 3.22446C16.439 3.33756 16.43 3.50951 16.353 3.61366C16.3483 3.63174 16.3665 3.65435 16.3846 3.66339C16.4615 3.59549 16.5883 3.55471 16.6923 3.61809C16.7783 3.67233 16.8237 3.77187 16.828 3.87602C16.81 3.96661 16.7784 4.05701 16.7059 4.11125C16.697 4.1202 16.7059 4.12472 16.7193 4.12472C16.8189 4.10212 16.9411 4.13366 17.0226 4.22426C17.0587 4.28311 17.0906 4.35543 17.0769 4.43689C17.0588 4.53643 16.9593 4.60875 16.9185 4.69934C16.9319 4.75368 17.0045 4.71742 17.0496 4.74906C17.1403 4.77166 17.2081 4.87582 17.2306 4.96612C17.2263 5.04758 17.2173 5.13365 17.1672 5.19703V5.21059C17.2579 5.26483 17.362 5.34628 17.3572 5.47304C17.3482 5.53642 17.3211 5.59518 17.2895 5.64509C17.3482 5.74463 17.3799 5.8758 17.3482 6.00256C17.2939 6.14287 17.1583 6.23779 17.0182 6.25135C16.9229 6.25597 16.8461 6.24241 16.7782 6.21067C16.6062 6.39619 16.3348 6.50476 16.0858 6.42331C16.0631 6.44139 16.0858 6.47755 16.0858 6.5139C16.0769 6.56362 16.027 6.59536 15.9908 6.62238L15.9185 6.627C15.656 6.5139 15.3981 6.40975 15.1448 6.30569C14.4976 6.07959 13.8416 5.88032 13.1583 5.78079C12.009 5.58623 10.7738 5.72203 9.65618 6.03862C9.05886 6.20606 8.48424 6.40975 7.92779 6.66748C7.87345 6.66748 7.82364 6.6268 7.79199 6.58603C7.76497 6.54073 7.78747 6.48649 7.79199 6.45033C7.57484 6.49101 7.33047 6.45033 7.16313 6.2829C7.03638 6.32819 6.87346 6.3055 6.7695 6.2376C6.66083 6.16509 6.61572 6.05661 6.61572 5.93437C6.62025 5.85744 6.64294 5.79406 6.67458 5.73078C6.61111 5.67644 6.55244 5.61316 6.54321 5.53161C6.52975 5.41851 6.59755 5.32801 6.68805 5.27377C6.70161 5.26021 6.73334 5.26464 6.74238 5.23752C6.67449 5.16039 6.65179 5.05652 6.68353 4.9615C6.71978 4.87091 6.79662 4.78503 6.89616 4.77157C6.92318 4.7581 6.96867 4.77618 6.98675 4.74435C6.95954 4.66751 6.8827 4.60865 6.85096 4.54076C6.80134 4.45468 6.82394 4.33706 6.8826 4.26474C6.95511 4.16973 7.07273 4.13799 7.18573 4.16069C7.19487 4.16521 7.19929 4.14713 7.19487 4.14251C7.10889 4.07913 7.05003 3.97498 7.07273 3.86188C7.08629 3.76696 7.14505 3.67194 7.24016 3.63578C7.34884 3.59049 7.47088 3.62222 7.56147 3.69464C7.67015 3.6404 7.51618 3.61318 7.51618 3.55433C7.46194 3.45931 7.4754 3.32804 7.53887 3.24216C7.61119 3.15618 7.71535 3.11098 7.82835 3.14262C7.87364 3.15618 7.9324 3.18791 7.96404 3.23302C7.98222 3.2285 8.00021 3.21494 8.01377 3.20147C7.96405 3.12454 7.96405 3.02048 8.00021 2.93902C8.05916 2.83035 8.17668 2.77611 8.2943 2.78063C8.38027 2.78063 8.45269 2.83949 8.51155 2.90286C8.54319 2.86661 8.51607 2.80785 8.53857 2.76707C8.57021 2.66753 8.65619 2.57713 8.76486 2.56348C8.86921 2.54915 8.97307 2.59242 9.03626 2.67657C9.06809 2.71283 9.07251 2.76255 9.10425 2.79881C9.14051 2.73543 9.19484 2.67205 9.26716 2.64493C9.34853 2.59531 9.4571 2.62233 9.54308 2.66311C9.56126 2.64955 9.54308 2.62695 9.53394 2.61339C9.47066 2.54088 9.46172 2.41422 9.5024 2.32824C9.5477 2.2287 9.65166 2.16533 9.76485 2.16533C9.86891 2.16994 9.9594 2.22409 10.0182 2.31478C10.0409 2.3193 10.0635 2.29208 10.0815 2.274C10.0136 2.19706 9.97287 2.10214 10.0046 1.99799C10.0227 1.89393 10.1131 1.81247 10.2082 1.78997C10.2988 1.75833 10.3981 1.79449 10.4707 1.85787L10.5476 1.95279C10.5837 1.92124 10.543 1.84873 10.5702 1.80353C10.5928 1.70399 10.6608 1.61359 10.7647 1.57743C10.8417 1.54589 10.9414 1.58205 11.0091 1.64533C11.0498 1.67255 11.0634 1.72669 11.0995 1.76295C11.1312 1.70861 11.1403 1.63158 11.1945 1.58195C11.2715 1.50502 11.3981 1.46433 11.5158 1.50944C11.6064 1.41442 11.7241 1.34643 11.8551 1.32392C11.8551 1.20179 11.8643 1.07955 11.8551 0.957416L11.8325 0.94828H11.6154L11.6016 0.934816L11.6108 0.799119L11.8506 0.789982C11.8597 0.717662 11.8506 0.636205 11.8597 0.563692C11.9004 0.550131 11.9548 0.554748 12.009 0.559172L12.0136 0.789598V0.789502Z" fill="#EFC460"></path>
    <path fill-rule="evenodd" clip-rule="evenodd" d="M11.5611 1.60399C11.6334 1.65833 11.6561 1.76238 11.629 1.85278C11.5882 1.92972 11.5114 1.99762 11.4298 2.00666C11.3258 2.00204 11.2308 1.95694 11.1946 1.86634C11.172 1.81201 11.163 1.74873 11.19 1.69429C11.2172 1.61284 11.2941 1.5586 11.3801 1.54946C11.4481 1.54513 11.5024 1.56302 11.5612 1.6038L11.5611 1.60399ZM12.6469 1.70353C12.6696 1.78498 12.6561 1.88 12.6019 1.9479C12.5523 1.98858 12.4932 2.01579 12.4255 2.01579C12.3578 2.01579 12.3079 1.97954 12.267 1.93434C12.2113 1.87288 12.1956 1.78508 12.2263 1.70805C12.258 1.62207 12.3486 1.55427 12.4436 1.55879C12.5249 1.56331 12.62 1.61765 12.6469 1.70362V1.70353ZM13.258 1.72161C13.276 1.78037 13.2807 1.85278 13.2533 1.91154C13.2173 1.97502 13.1583 2.02464 13.0949 2.0383C13.0045 2.05638 12.914 2.02022 12.8642 1.95232C12.8099 1.89808 12.8099 1.82114 12.8235 1.74873C12.8506 1.65813 12.9412 1.59024 13.0362 1.58581C13.1176 1.58581 13.2127 1.63101 13.258 1.72151V1.72161Z" fill="black"></path>
    <path fill-rule="evenodd" clip-rule="evenodd" d="M11.5382 1.66259C11.5789 1.69885 11.5789 1.76222 11.5697 1.81646C11.5543 1.86397 11.5221 1.90417 11.4791 1.92956C11.4294 1.95216 11.3706 1.94312 11.33 1.92504C11.2895 1.90658 11.2583 1.87215 11.244 1.83002C11.2259 1.77569 11.2304 1.71693 11.2712 1.67163C11.33 1.58565 11.4611 1.58565 11.5382 1.66249V1.66259ZM12.5698 1.68077C12.6014 1.71702 12.6105 1.77136 12.6014 1.8256C12.5879 1.87532 12.5471 1.92062 12.5064 1.94322C12.4521 1.95216 12.4024 1.97024 12.3615 1.9386C12.3027 1.916 12.2757 1.86166 12.2757 1.80742C12.2665 1.74405 12.28 1.68981 12.3345 1.65355C12.4025 1.59027 12.5065 1.61297 12.5698 1.68086V1.68077ZM13.1715 1.69885C13.1986 1.73501 13.2168 1.78482 13.2122 1.83906C13.1978 1.89061 13.1659 1.93543 13.1218 1.96582C13.0765 1.99303 13.0222 1.98399 12.9815 1.97495C12.9319 1.95226 12.8955 1.91148 12.8819 1.86628C12.8638 1.79838 12.8776 1.72145 12.9453 1.68067C13.0044 1.62643 13.113 1.63547 13.1716 1.69885H13.1715Z" fill="white"></path>
    <path fill-rule="evenodd" clip-rule="evenodd" d="M11.0134 1.73522C11.0632 1.80293 11.0768 1.90708 11.036 1.98854C10.9863 2.04739 10.9274 2.09702 10.8551 2.10163C10.7691 2.10625 10.6876 2.06538 10.647 1.99296C10.6108 1.94334 10.6063 1.87082 10.6198 1.81197C10.647 1.72156 10.7374 1.65357 10.8325 1.64453C10.9004 1.64463 10.9636 1.68079 11.0134 1.73512V1.73522Z" fill="black"></path>
    <path fill-rule="evenodd" clip-rule="evenodd" d="M10.9456 1.74889C10.9909 1.78966 11.0045 1.84842 10.9953 1.9117C10.9862 1.96142 10.9411 2.01134 10.9003 2.03394C10.855 2.05202 10.7872 2.0475 10.7511 2.01586C10.7058 1.98422 10.6696 1.9344 10.6742 1.87554C10.6742 1.81217 10.7058 1.75331 10.7691 1.72177C10.8191 1.69474 10.9005 1.69917 10.9456 1.74898V1.74889Z" fill="white"></path>
    <path fill-rule="evenodd" clip-rule="evenodd" d="M13.8187 1.96162C13.8414 2.02048 13.8414 2.09732 13.8144 2.15175C13.7691 2.23782 13.6695 2.28745 13.5791 2.2785C13.5064 2.26937 13.4387 2.22397 13.407 2.16089C13.3663 2.08837 13.3707 1.9798 13.4297 1.9119C13.484 1.83506 13.5881 1.80803 13.6828 1.83958C13.7327 1.86218 13.7917 1.90728 13.8188 1.96172L13.8187 1.96162ZM10.4432 1.91171C10.4748 1.96143 10.5066 2.01134 10.4974 2.07924C10.4883 2.14713 10.4521 2.21041 10.3979 2.25109C10.3235 2.2986 10.2282 2.2986 10.1537 2.25109C10.0791 2.20387 10.0399 2.11665 10.0542 2.02942C10.0587 1.96152 10.0992 1.90267 10.1627 1.86651C10.2486 1.81679 10.3752 1.82583 10.4432 1.91171Z" fill="black"></path>
    <path fill-rule="evenodd" clip-rule="evenodd" d="M13.7283 1.93434C13.7645 1.97954 13.7872 2.04744 13.7691 2.11081C13.7375 2.17871 13.6695 2.22381 13.6015 2.22381C13.5384 2.21929 13.4794 2.19227 13.4612 2.13803C13.4298 2.08831 13.4298 2.02041 13.4612 1.97511C13.4751 1.92539 13.5248 1.89366 13.5791 1.88452C13.6334 1.88452 13.683 1.89347 13.7283 1.93424V1.93434ZM10.3846 1.93434C10.4254 1.9705 10.4343 2.02032 10.4389 2.07465C10.4298 2.13341 10.3892 2.18313 10.3439 2.21949C10.2852 2.23766 10.2218 2.23305 10.1721 2.19246C10.1359 2.15621 10.1087 2.11552 10.1132 2.06571C10.1043 2.01147 10.1404 1.97069 10.1721 1.93453C10.2308 1.88462 10.3258 1.87096 10.3846 1.93443V1.93434Z" fill="white"></path>
    <path fill-rule="evenodd" clip-rule="evenodd" d="M12.1584 2.21481C12.1854 2.26453 12.1945 2.33253 12.1765 2.39129C12.1492 2.47726 12.0542 2.54054 11.9683 2.54968C11.8823 2.54516 11.7873 2.509 11.7512 2.42754C11.7194 2.36869 11.7104 2.28271 11.7466 2.22385C11.7782 2.15615 11.8461 2.11085 11.9186 2.0971C12.0153 2.08258 12.1108 2.12941 12.1584 2.21472V2.21481Z" fill="black"></path>
    <path fill-rule="evenodd" clip-rule="evenodd" d="M12.0947 2.22829C12.1221 2.26897 12.1264 2.33696 12.1129 2.3912C12.0947 2.42736 12.0586 2.45006 12.0315 2.47718C11.9794 2.49459 11.9227 2.49141 11.873 2.46824C11.8186 2.4366 11.787 2.38226 11.787 2.32792C11.7825 2.26455 11.8185 2.20579 11.8776 2.17415C11.9499 2.13798 12.0451 2.15155 12.0947 2.22839V2.22829Z" fill="white"></path>
    <path fill-rule="evenodd" clip-rule="evenodd" d="M14.3166 2.29629C14.3482 2.37322 14.3347 2.47728 14.2849 2.54066C14.208 2.60855 14.1175 2.64019 14.0225 2.60855C13.9591 2.58586 13.9095 2.5271 13.8911 2.47276C13.8641 2.3913 13.8775 2.3009 13.941 2.24205C13.9972 2.17482 14.0883 2.14809 14.1717 2.17415C14.2263 2.20146 14.2848 2.2331 14.3166 2.29638V2.29629ZM9.9728 2.35062C9.99088 2.39582 9.99982 2.46372 9.98174 2.51806C9.95905 2.57691 9.90481 2.63115 9.85057 2.65837C9.76459 2.68559 9.66505 2.67193 9.61062 2.61307C9.54291 2.5497 9.51118 2.44554 9.54734 2.35966C9.57898 2.2783 9.6514 2.23291 9.73295 2.21935C9.82797 2.21041 9.92769 2.26013 9.9728 2.35072V2.35062Z" fill="black"></path>
    <path fill-rule="evenodd" clip-rule="evenodd" d="M14.2711 2.34151C14.28 2.38228 14.2711 2.43191 14.2575 2.47268C14.2171 2.52702 14.1625 2.55866 14.1038 2.56328C14.0451 2.56328 13.9998 2.53625 13.9728 2.5C13.9355 2.4598 13.9234 2.40248 13.9411 2.35074C13.9499 2.30102 13.9907 2.25111 14.0452 2.23774C14.1355 2.19667 14.2305 2.25553 14.2712 2.34151H14.2711Z" fill="white"></path>
    <path fill-rule="evenodd" clip-rule="evenodd" d="M13.8597 2.83919C14.2624 3.20118 14.4343 3.69896 14.4163 4.26002L14.2624 4.40024C14.1538 4.39129 14.0587 4.4138 13.9864 4.49083C13.896 4.61758 13.8507 4.77598 13.8777 4.93437C13.9051 5.05651 14.0227 5.13797 14.1448 5.15605C14.1405 5.22394 14.0771 5.28722 14.0318 5.34156C13.9348 5.40657 13.8143 5.42629 13.7016 5.3958C13.5794 5.36878 13.4799 5.24654 13.4572 5.13335C13.4211 5.04276 13.4845 4.97496 13.4888 4.8936C13.4931 4.7879 13.4458 4.68673 13.3621 4.62201C13.2851 4.55411 13.1721 4.55411 13.0861 4.58585C12.982 4.62653 12.887 4.73068 12.887 4.84368C12.8689 4.90706 12.914 4.97044 12.878 5.0292C12.8101 5.14681 12.6833 5.24183 12.5524 5.23279C12.4348 5.24193 12.3352 5.17855 12.2672 5.09709C12.2175 5.03372 12.1902 4.9613 12.1995 4.88446C12.3171 4.88898 12.4572 4.87552 12.5432 4.75771C12.6247 4.65365 12.5931 4.49525 12.5975 4.37312C12.584 4.27358 12.4888 4.17856 12.4031 4.1424L12.3034 4.12423C12.2945 4.02921 12.2221 3.94775 12.1404 3.90255L12.0183 3.85735V3.84821C12.1133 3.821 12.2084 3.73512 12.2311 3.63558C12.2672 3.52248 12.2084 3.42295 12.1588 3.34611L12.1631 3.15597C12.2311 3.06538 12.2672 2.93882 12.2174 2.83467L12.1587 2.72599L12.163 2.53144C12.222 2.4545 12.2446 2.35497 12.24 2.26447C12.8505 2.19676 13.4026 2.432 13.8596 2.83919H13.8597ZM11.6652 2.2737C11.6652 2.35516 11.6878 2.42748 11.7149 2.49999L11.7103 2.80312C11.647 2.89372 11.6697 3.02941 11.7149 3.12443L11.7103 3.42314C11.6606 3.49546 11.6561 3.61769 11.7058 3.69905C11.7375 3.77599 11.8233 3.81667 11.8958 3.84831C11.8596 3.87101 11.8052 3.87553 11.769 3.89361C11.6649 3.92515 11.6061 4.02931 11.5835 4.11971C11.4614 4.19203 11.3164 4.26454 11.2713 4.40485C11.2758 4.52247 11.2305 4.67183 11.3256 4.76232C11.4024 4.87542 11.5472 4.8935 11.6739 4.88908C11.6694 5.01583 11.5833 5.14249 11.4657 5.19221C11.3435 5.24654 11.2032 5.22385 11.0992 5.16518C11.0223 5.11094 10.977 5.03401 10.9543 4.95697C10.9635 4.85292 10.9498 4.74434 10.8818 4.6675C10.805 4.58719 10.6909 4.5543 10.5831 4.58152C10.4836 4.60874 10.3751 4.69914 10.3614 4.80781C10.3388 4.91187 10.3706 5.01141 10.434 5.09286C10.4204 5.22404 10.3389 5.35993 10.2032 5.40061C10.054 5.44129 9.90896 5.40955 9.80961 5.30098C9.76884 5.25578 9.73267 5.20606 9.72806 5.15182C9.83212 5.1246 9.93608 5.02506 9.95877 4.91648C9.96339 4.76271 9.92723 4.60874 9.83202 4.49112C9.7597 4.42774 9.66911 4.39158 9.57409 4.40514L9.41117 4.22867C9.40656 3.55903 9.7823 3.00239 10.3208 2.58154C10.6601 2.32371 11.0945 2.25591 11.5425 2.26033L11.665 2.2738L11.6652 2.2737Z" fill="black"></path>
    <path fill-rule="evenodd" clip-rule="evenodd" d="M9.88699 2.33246C9.92777 2.36862 9.93229 2.4319 9.92777 2.48171C9.91863 2.52701 9.87805 2.56769 9.83717 2.59933C9.78745 2.62193 9.7285 2.61289 9.6834 2.59933C9.61848 2.56413 9.58367 2.49095 9.59742 2.41834C9.60204 2.36862 9.63368 2.3188 9.67878 2.2962C9.74668 2.25994 9.83256 2.27812 9.88699 2.33236V2.33246ZM13.4977 2.63568C13.8553 2.85284 14.1764 3.21483 14.2851 3.61759C13.6832 3.26464 12.9276 3.16059 12.2219 3.28734V3.16963C12.2943 3.08365 12.3169 2.96142 12.2853 2.85284C12.2671 2.80764 12.2491 2.76686 12.2219 2.7306V2.53615C12.2763 2.47277 12.2943 2.39583 12.3033 2.31447C12.7331 2.28264 13.1451 2.40045 13.4978 2.63578L13.4977 2.63568ZM11.611 2.32332C11.6156 2.39122 11.6382 2.4544 11.6563 2.52239C11.6427 2.64001 11.6743 2.78485 11.62 2.89794C11.6065 2.97488 11.6245 3.05634 11.6563 3.13318L11.6516 3.28695C11.0045 3.17828 10.3033 3.24627 9.73764 3.53594C9.6834 3.54941 9.63358 3.58566 9.58838 3.61288C9.69244 3.25089 9.98201 2.96113 10.2716 2.69435C10.6337 2.37756 11.1268 2.30072 11.6111 2.32322L11.611 2.32332Z" fill="white"></path>
    <path fill-rule="evenodd" clip-rule="evenodd" d="M15.2621 2.66296C15.3301 2.72634 15.3301 2.83482 15.3028 2.9208C15.2484 2.99331 15.1717 3.04294 15.0855 3.04294C14.9951 3.03832 14.9091 2.98418 14.8821 2.90724C14.8548 2.84848 14.8505 2.77154 14.8821 2.71711C14.9228 2.64479 14.9908 2.59497 15.0721 2.59055C15.1399 2.5816 15.2078 2.60872 15.2622 2.66306L15.2621 2.66296ZM8.96816 2.68105C9.01346 2.72634 9.04067 2.78972 9.03587 2.85752C9.03135 2.9208 9.00432 2.97062 8.96355 3.01591C8.90921 3.06121 8.83237 3.07477 8.76447 3.06563C8.69657 3.05669 8.63772 3.0113 8.6106 2.95696C8.58348 2.90262 8.5654 2.83021 8.59252 2.77597C8.61521 2.68999 8.70119 2.62671 8.78707 2.61757C8.85054 2.61757 8.91844 2.63575 8.96816 2.68095V2.68105ZM14.6828 2.74894C14.7102 2.79414 14.7055 2.86656 14.6964 2.9208C14.6691 2.98062 14.6231 3.02986 14.5653 3.06111C14.5064 3.07006 14.4386 3.08371 14.3887 3.05198C14.3073 3.00668 14.2573 2.9208 14.2665 2.83934C14.2619 2.74894 14.3253 2.67191 14.4068 2.63575C14.511 2.59507 14.6286 2.64469 14.6827 2.74885L14.6828 2.74894Z" fill="black"></path>
    <path fill-rule="evenodd" clip-rule="evenodd" d="M15.2123 2.69893C15.2443 2.73961 15.267 2.79395 15.2532 2.85271C15.2396 2.89348 15.2123 2.93868 15.1809 2.96119C15.1175 2.99745 15.0406 2.99302 14.9909 2.95225C14.941 2.91156 14.9183 2.86165 14.9229 2.80299C14.9229 2.75327 14.9546 2.70797 14.9999 2.68085C15.0585 2.63565 15.1625 2.63565 15.2123 2.69893Z" fill="white"></path>
    <path fill-rule="evenodd" clip-rule="evenodd" d="M9.54738 2.7487C9.59258 2.79842 9.61066 2.87083 9.60172 2.94325C9.58354 3.02471 9.51574 3.09703 9.4388 3.11972C9.37543 3.13319 9.29849 3.12424 9.24867 3.08808C9.19895 3.04279 9.15365 2.98845 9.14913 2.92517C9.13942 2.83054 9.1901 2.74004 9.27589 2.69888C9.36629 2.65368 9.47044 2.67618 9.54728 2.7486L9.54738 2.7487Z" fill="black"></path>
    <path fill-rule="evenodd" clip-rule="evenodd" d="M8.93643 2.73523C8.97721 2.77601 8.98173 2.84833 8.96807 2.90709C8.94999 2.95239 8.90922 2.97961 8.86401 3.00663C8.78708 3.02933 8.71456 3.00663 8.66927 2.94777C8.62859 2.8844 8.62407 2.78938 8.6784 2.73514C8.70562 2.7035 8.74178 2.68551 8.78246 2.6809C8.84132 2.67205 8.89575 2.69003 8.93634 2.73523H8.93643ZM14.6197 2.74879C14.6467 2.78034 14.6467 2.83477 14.6467 2.88449C14.6331 2.92979 14.5968 2.97047 14.5607 2.99759C14.52 3.01105 14.4747 3.02461 14.4386 3.01105C14.3933 2.99759 14.3526 2.96133 14.3389 2.92046C14.3162 2.87526 14.3209 2.81179 14.3433 2.7712C14.3706 2.71687 14.4202 2.67166 14.4882 2.68061C14.5379 2.6809 14.5832 2.70802 14.6196 2.7487L14.6197 2.74879Z" fill="white"></path>
    <path fill-rule="evenodd" clip-rule="evenodd" d="M12.1628 2.8483C12.1855 2.90264 12.1944 2.984 12.1674 3.04285C12.1357 3.09719 12.0858 3.14701 12.0317 3.16499C11.9457 3.18769 11.8506 3.16961 11.7918 3.11065C11.7421 3.06545 11.7284 3.0066 11.7241 2.94774C11.7241 2.8482 11.7918 2.76223 11.887 2.73511C11.9908 2.69904 12.1084 2.74886 12.1629 2.8484L12.1628 2.8483Z" fill="black"></path>
    <path fill-rule="evenodd" clip-rule="evenodd" d="M9.51132 2.79847C9.53392 2.83463 9.54748 2.88444 9.54286 2.92965C9.5293 2.97927 9.49757 3.02918 9.45227 3.0564C9.39803 3.07457 9.33465 3.079 9.28936 3.04284C9.23714 3.01197 9.20723 2.95398 9.21252 2.89358C9.21704 2.84386 9.2306 2.79404 9.28022 2.76683C9.34379 2.71691 9.45698 2.72163 9.51122 2.79847H9.51132ZM12.0905 2.84376C12.1178 2.88454 12.1358 2.94782 12.1178 3.00216C12.0949 3.05188 12.0544 3.1017 12.0046 3.11526C11.95 3.12882 11.9004 3.11526 11.8597 3.09266C11.81 3.05649 11.7783 2.99764 11.7872 2.93888C11.7827 2.88454 11.8188 2.83934 11.8641 2.8077C11.9319 2.76683 12.0316 2.77125 12.0904 2.84376H12.0905Z" fill="white"></path>
    <path fill-rule="evenodd" clip-rule="evenodd" d="M15.8413 2.94787C15.864 3.00673 15.8549 3.07905 15.8279 3.13781C15.7736 3.21475 15.6787 3.26899 15.5836 3.2511C15.5202 3.23735 15.4613 3.20138 15.4386 3.14704C15.3936 3.09271 15.389 3.01125 15.4162 2.9523C15.4432 2.86632 15.5246 2.80304 15.6153 2.80304C15.7056 2.7941 15.7916 2.8619 15.8413 2.94787ZM8.47055 2.95239C8.49315 3.00673 8.50209 3.07915 8.48401 3.13791C8.44785 3.2285 8.35293 3.28274 8.25791 3.28717C8.1854 3.27822 8.11308 3.24187 8.0724 3.18311C8.03614 3.12435 8.02268 3.05193 8.04518 2.98855C8.0724 2.9071 8.15386 2.84834 8.23974 2.83478C8.33014 2.82122 8.41611 2.87094 8.47045 2.95239H8.47055Z" fill="black"></path>
    <path fill-rule="evenodd" clip-rule="evenodd" d="M15.7512 2.92053C15.7828 2.96121 15.7965 3.02006 15.7828 3.07892C15.7622 3.12749 15.7255 3.1674 15.6788 3.19202C15.6018 3.20558 15.5338 3.18288 15.4888 3.12412C15.4572 3.07882 15.448 3.01102 15.4753 2.96111C15.4888 2.90687 15.5476 2.87975 15.602 2.86157C15.6515 2.85263 15.7059 2.87975 15.7512 2.92043V2.92053ZM8.39841 2.95217C8.43005 2.98833 8.43909 3.04276 8.43457 3.097C8.4164 3.15124 8.36668 3.20567 8.31696 3.22375C8.26262 3.23722 8.20828 3.21923 8.16751 3.19211C8.12221 3.15134 8.08153 3.10614 8.09961 3.04286C8.09961 2.99765 8.13115 2.95688 8.16751 2.92985C8.23098 2.8709 8.34417 2.88446 8.39841 2.95226V2.95217Z" fill="white"></path>
    <path fill-rule="evenodd" clip-rule="evenodd" d="M16.3482 3.29166C16.3709 3.35052 16.3709 3.43198 16.3393 3.49083C16.2897 3.56315 16.2082 3.61759 16.1222 3.60845C16.0589 3.59931 16.0046 3.58123 15.973 3.53594C15.9299 3.48958 15.9084 3.42707 15.914 3.36408C15.9173 3.28916 15.9606 3.22184 16.0273 3.1876C16.0769 3.15596 16.1446 3.14692 16.2083 3.16491C16.2678 3.1903 16.3172 3.23492 16.3484 3.29166H16.3482ZM14.9818 3.29166C15 3.35052 15.0045 3.43198 14.9729 3.49083C14.9413 3.55421 14.8825 3.58585 14.8283 3.60845C14.7693 3.61297 14.6926 3.61739 14.6519 3.58123C14.5659 3.52699 14.5251 3.4364 14.5432 3.346C14.5566 3.2781 14.5928 3.21924 14.6562 3.1876C14.7752 3.13009 14.9183 3.17578 14.9818 3.29166ZM7.91874 3.26002C7.98221 3.33253 7.98221 3.45015 7.94595 3.53603C7.90518 3.60855 7.82381 3.64471 7.74688 3.64009C7.65186 3.63547 7.56588 3.56315 7.54328 3.47718C7.52059 3.38216 7.55223 3.28705 7.63388 3.2328C7.71062 3.16058 7.84632 3.17404 7.91874 3.26002ZM9.28071 3.31426C9.33043 3.38216 9.33505 3.48612 9.28966 3.56306C9.24446 3.63095 9.17213 3.66259 9.0952 3.66711C9.02711 3.66808 8.96219 3.63817 8.91872 3.58575C8.869 3.53151 8.85987 3.459 8.87343 3.3912C8.88237 3.32782 8.93228 3.26445 8.99104 3.23732C9.0952 3.19212 9.21281 3.21492 9.28071 3.31426Z" fill="black"></path>
    <path fill-rule="evenodd" clip-rule="evenodd" d="M16.2987 3.32366C16.3076 3.37328 16.2987 3.41858 16.2853 3.46387C16.2444 3.53177 16.1766 3.55889 16.1177 3.55447C16.0633 3.54533 16.0136 3.50475 15.9955 3.46387C15.9593 3.41415 15.9682 3.3552 15.9955 3.30548C16.0091 3.24662 16.0725 3.22402 16.1266 3.21489C16.1946 3.21056 16.2626 3.25566 16.2987 3.32366ZM14.8962 3.27374C14.9278 3.3099 14.9412 3.36434 14.9369 3.41858C14.9233 3.46387 14.8916 3.50455 14.8553 3.53619C14.7919 3.56322 14.7061 3.56322 14.6562 3.51802C14.6019 3.46378 14.5839 3.4004 14.6112 3.32808C14.6246 3.26922 14.6834 3.22402 14.7469 3.2196C14.8056 3.21065 14.8553 3.23306 14.8962 3.27384V3.27374Z" fill="white"></path>
    <path fill-rule="evenodd" clip-rule="evenodd" d="M15.6019 3.53609C15.8733 3.71256 16.1266 3.9704 16.2626 4.27814C16.4072 4.59945 16.4843 4.9524 16.5476 5.31429C16.5249 5.34593 16.4753 5.33699 16.448 5.36863C16.3123 5.45441 16.2852 5.60386 16.24 5.73975C16.2218 5.86651 16.2943 5.97951 16.4074 6.03836L16.5204 6.08809V6.11078C16.412 6.19224 16.276 6.22388 16.1493 6.18762C16.0363 6.15146 15.9322 6.05644 15.896 5.94787C15.8779 5.87997 15.8643 5.80303 15.8916 5.74427C15.9594 5.6583 15.9867 5.54972 15.9594 5.44105C15.9277 5.34603 15.8372 5.26457 15.7513 5.24197C15.6427 5.20581 15.525 5.23745 15.4573 5.31891C15.3804 5.38219 15.3623 5.47269 15.3577 5.56309C15.2581 5.67176 15.1044 5.70792 14.973 5.68522C14.8509 5.66262 14.7423 5.56761 14.697 5.45913C14.6743 5.4094 14.6609 5.35497 14.6697 5.30064C14.783 5.33228 14.946 5.36863 15.0544 5.27361C15.1677 5.17407 15.1631 5.02462 15.2036 4.89354C15.2036 4.77593 15.1449 4.67177 15.0544 4.62648C14.9867 4.6084 15.0456 4.53607 15.0274 4.49078C15.0089 4.40605 14.9587 4.33161 14.887 4.28276V4.27362C15.0047 4.27814 15.127 4.21938 15.1858 4.10619C15.231 4.01127 15.2128 3.87547 15.1497 3.79863C15.0817 3.7217 14.9913 3.68996 14.8964 3.69458C14.8328 3.62206 14.946 3.63572 14.9687 3.59052C15.0545 3.51358 15.0728 3.37788 15.041 3.27383C15.0321 3.26027 15.0229 3.25123 15.0364 3.24219C15.2174 3.33249 15.4211 3.40481 15.6021 3.53609H15.6019Z" fill="black"></path>
    <path fill-rule="evenodd" clip-rule="evenodd" d="M7.90026 3.33243C7.92296 3.37772 7.92296 3.45014 7.90026 3.49986C7.87093 3.55689 7.81034 3.59074 7.74649 3.58584C7.69225 3.58122 7.63781 3.54054 7.61531 3.49986C7.59348 3.45437 7.59184 3.40186 7.61069 3.35503C7.62425 3.30079 7.67859 3.25549 7.73745 3.24655C7.80544 3.23731 7.8642 3.27357 7.90036 3.33252L7.90026 3.33243ZM9.22156 3.32781C9.24416 3.35945 9.26686 3.39571 9.26686 3.44543C9.25791 3.49409 9.23608 3.53939 9.20348 3.57661C9.1627 3.60382 9.10846 3.61286 9.06317 3.60825C9.00431 3.59911 8.95017 3.54939 8.93641 3.49957C8.91833 3.45428 8.91833 3.39552 8.94555 3.35926C8.97065 3.30704 9.02335 3.27367 9.08125 3.27328C9.12654 3.26896 9.18088 3.28704 9.22156 3.32762V3.32781Z" fill="white"></path>
    <path fill-rule="evenodd" clip-rule="evenodd" d="M14.3118 3.71248C14.3434 3.88453 14.3661 4.06533 14.3571 4.24642L14.2349 4.34144C14.0903 4.32788 13.9679 4.39568 13.8999 4.50887C13.8411 4.66727 13.737 4.88 13.8638 5.04272C13.8999 5.11966 13.9814 5.16947 14.0675 5.19198C14.0448 5.25987 13.9725 5.31883 13.9091 5.34143C13.8004 5.37759 13.6826 5.34595 13.6104 5.27805C13.5334 5.21467 13.4971 5.12427 13.5108 5.03368C13.5514 4.93866 13.5604 4.82085 13.5197 4.72593C13.4654 4.60831 13.3344 4.50426 13.2073 4.50878C13.0672 4.50416 12.9496 4.56754 12.8773 4.68525C12.8183 4.76661 12.8183 4.8798 12.8274 4.97934C12.7867 5.06532 12.7052 5.15582 12.6057 5.1739C12.4927 5.18284 12.3797 5.16014 12.3163 5.06522C12.2847 5.02897 12.2574 4.98377 12.262 4.93847C12.375 4.94299 12.4973 4.90692 12.574 4.81172C12.6827 4.68515 12.642 4.5131 12.6464 4.35471C12.6283 4.23257 12.5242 4.12861 12.4204 4.08774L12.357 4.07427C12.3253 3.97907 12.2483 3.88434 12.1579 3.84356C12.2451 3.77586 12.298 3.67324 12.3026 3.56293C12.2979 3.48148 12.2663 3.40906 12.2302 3.3503C12.9318 3.22354 13.7189 3.30952 14.3117 3.71229L14.3118 3.71248ZM11.6512 3.35049C11.6601 3.41387 11.6104 3.46811 11.615 3.5361C11.6104 3.65372 11.6466 3.7622 11.7461 3.83471C11.7235 3.84827 11.6919 3.86174 11.6693 3.87991C11.5923 3.94339 11.547 4.01128 11.52 4.09255C11.3933 4.16054 11.2576 4.23748 11.2078 4.38221C11.2078 4.53138 11.1762 4.7216 11.3074 4.83008C11.3844 4.90817 11.4921 4.94799 11.6014 4.93876C11.5924 5.01569 11.5291 5.07907 11.4657 5.12889C11.357 5.17861 11.2169 5.17861 11.1218 5.11081C11.0766 5.06109 11.0131 5.00675 11.0131 4.93876C11.0266 4.80768 10.9905 4.68092 10.8863 4.59504C10.7913 4.5181 10.66 4.49089 10.5469 4.53157C10.4201 4.56321 10.3207 4.69448 10.3072 4.81672C10.2845 4.92972 10.3298 5.02473 10.3749 5.11994C10.3523 5.21034 10.2934 5.3144 10.1939 5.34604C10.1033 5.37326 9.98569 5.36874 9.90876 5.3144C9.85913 5.27372 9.81835 5.23756 9.8047 5.18322C9.90876 5.14706 9.98569 5.03839 10.0173 4.93885C10.0355 4.767 9.98117 4.6086 9.89972 4.47733C9.82278 4.38673 9.7142 4.34163 9.59658 4.34615L9.47021 4.20574C9.47473 4.03388 9.49282 3.86645 9.55158 3.71257C9.69189 3.60852 9.8548 3.54052 10.0177 3.47734H10.0313C10.5425 3.28288 11.0991 3.2648 11.6511 3.35078L11.6512 3.35049Z" fill="#CE3829"></path>
    <path fill-rule="evenodd" clip-rule="evenodd" d="M8.80518 3.44119C8.80518 3.51803 8.83682 3.58602 8.89126 3.64479C8.90934 3.70355 9.05417 3.68547 8.99079 3.77135C8.86866 3.75327 8.76008 3.8076 8.70113 3.90704C8.64689 3.99302 8.65583 4.13314 8.71459 4.21922C8.75989 4.27346 8.82336 4.31423 8.89126 4.33222C8.83692 4.40915 8.79162 4.49513 8.8098 4.6038C8.71478 4.64901 8.61986 4.74402 8.61986 4.86164C8.61534 4.97474 8.6514 5.07889 8.68776 5.18295C8.72844 5.25988 8.81451 5.33221 8.90943 5.34134C9.01359 5.35481 9.10851 5.3097 9.20814 5.29162C9.23536 5.43645 9.1538 5.57215 9.03167 5.64909C8.91857 5.71699 8.77373 5.7216 8.6516 5.67179C8.5837 5.62649 8.50676 5.57215 8.47974 5.49531C8.45704 5.39125 8.3576 5.31422 8.26711 5.28268C8.16949 5.25998 8.06678 5.28152 7.98648 5.34153C7.90502 5.40491 7.86886 5.51339 7.88242 5.62206C7.88242 5.70352 7.93214 5.7669 7.9909 5.82566C7.99552 5.9478 7.9457 6.05637 7.8552 6.14245C7.72845 6.24198 7.54746 6.23746 7.41628 6.16505V6.15149C7.52476 6.08811 7.6243 5.97963 7.63343 5.85278C7.61535 5.72603 7.5565 5.61303 7.50668 5.49993C7.47052 5.44559 7.41628 5.42309 7.35742 5.40933C7.38897 5.00205 7.50206 4.61736 7.66959 4.26009C7.78269 4.01572 7.95926 3.77587 8.19892 3.63565C8.38886 3.48187 8.60168 3.38224 8.82346 3.30078C8.82798 3.34627 8.80076 3.39157 8.80528 3.44138L8.80518 3.44119ZM12.1174 3.40041C12.1805 3.45927 12.2032 3.56333 12.1716 3.64921C12.1489 3.71259 12.0812 3.75788 12.0223 3.78039C11.9273 3.80308 11.8231 3.77587 11.769 3.69441C11.7283 3.64171 11.7149 3.57295 11.7328 3.5088C11.7373 3.44542 11.7916 3.3957 11.8459 3.36416C11.9228 3.32348 12.045 3.3279 12.1175 3.40032L12.1174 3.40041Z" fill="black"></path>
    <path fill-rule="evenodd" clip-rule="evenodd" d="M16.2713 4.45453C15.9636 4.24652 15.6196 4.13784 15.2759 4.06091C15.2895 3.92973 15.2397 3.80759 15.1537 3.717C15.1041 3.68536 15.0541 3.65814 15.0044 3.64468C15.0858 3.56774 15.1221 3.46368 15.1221 3.35059C15.6017 3.53158 16.1174 3.93867 16.2713 4.45463V4.45453ZM8.74648 3.40031C8.72831 3.52706 8.7962 3.63554 8.87766 3.717C8.76918 3.73969 8.66051 3.82106 8.62435 3.93415L8.60165 4.05639C8.27149 4.1289 7.94105 4.21478 7.66504 4.41837C7.7465 4.16958 7.90922 3.91617 8.14474 3.75316C8.3216 3.59909 8.52567 3.47936 8.74648 3.40031ZM12.0722 3.43647C12.1083 3.47724 12.1309 3.536 12.1219 3.59938C12.1078 3.65006 12.0734 3.69257 12.0269 3.717C11.9726 3.73969 11.9047 3.73056 11.8594 3.70344C11.8097 3.66718 11.7825 3.61304 11.7869 3.55418C11.7914 3.49532 11.8231 3.43656 11.882 3.41387C11.9437 3.38021 12.02 3.38934 12.0721 3.43656L12.0722 3.43647Z" fill="white"></path>
    <path fill-rule="evenodd" clip-rule="evenodd" d="M16.7466 3.74881C16.7828 3.81219 16.7782 3.9072 16.7512 3.97952C16.7059 4.04742 16.6198 4.09714 16.5385 4.0882C16.4659 4.0882 16.4072 4.05204 16.3709 4.00222C16.3302 3.94798 16.3075 3.88912 16.3302 3.82123C16.3392 3.75794 16.3755 3.69466 16.4389 3.66745C16.5339 3.60859 16.6833 3.63561 16.7467 3.74881H16.7466ZM7.54308 3.77141C7.58376 3.82575 7.58376 3.90259 7.57029 3.975C7.5476 4.02934 7.49778 4.07906 7.43892 4.10618C7.38016 4.12426 7.29871 4.12888 7.24437 4.10166C7.15839 4.06088 7.11319 3.97048 7.12223 3.87989C7.12223 3.81199 7.15839 3.75314 7.21725 3.71246C7.31217 3.64023 7.47056 3.66283 7.54308 3.77131V3.77141Z" fill="black"></path>
    <path fill-rule="evenodd" clip-rule="evenodd" d="M16.679 3.75338C16.715 3.79406 16.724 3.86205 16.7104 3.92091C16.6952 3.95851 16.6683 3.99025 16.6337 4.0115C16.5793 4.04304 16.516 4.0341 16.4706 4.01602C16.3983 3.97524 16.3666 3.8984 16.3893 3.82608C16.3936 3.78078 16.4253 3.7401 16.4706 3.71741C16.534 3.67202 16.6199 3.69471 16.679 3.75347V3.75338ZM7.48884 3.8031C7.525 3.83926 7.52048 3.90263 7.51153 3.95687C7.49797 3.99765 7.46191 4.03381 7.42094 4.05641C7.35304 4.07901 7.26716 4.06536 7.21734 4.01121C7.17205 3.95687 7.16301 3.8709 7.20378 3.80752C7.231 3.7578 7.28515 3.73501 7.33496 3.72616C7.39382 3.72164 7.45258 3.75318 7.48874 3.803L7.48884 3.8031Z" fill="white"></path>
    <path fill-rule="evenodd" clip-rule="evenodd" d="M15.1309 3.87098C15.1583 3.92522 15.1672 3.99311 15.1491 4.05649C15.1129 4.13795 15.0358 4.1968 14.9589 4.21027L14.8416 4.19671C14.7509 4.14699 14.6786 4.06553 14.6966 3.96147C14.6966 3.90262 14.7283 3.84837 14.7782 3.81221C14.8323 3.75336 14.9228 3.74432 15.0089 3.77144C15.0585 3.78057 15.0993 3.82577 15.1308 3.87107L15.1309 3.87098Z" fill="black"></path>
    <path fill-rule="evenodd" clip-rule="evenodd" d="M15.0633 3.87089C15.0814 3.90244 15.0993 3.9386 15.104 3.98399C15.0904 4.03833 15.0723 4.09247 15.027 4.12421C14.9774 4.14238 14.9184 4.16498 14.8778 4.14238C14.819 4.12892 14.7874 4.08362 14.7691 4.04285C14.7467 3.99313 14.751 3.92975 14.7873 3.88907C14.81 3.85291 14.8506 3.82579 14.8959 3.81675C14.959 3.80752 15.0089 3.83012 15.0634 3.87089H15.0633Z" fill="white"></path>
    <path fill-rule="evenodd" clip-rule="evenodd" d="M9.1628 3.95667C9.19002 4.02005 9.18098 4.10593 9.14934 4.1695C9.10404 4.24182 9.02259 4.27798 8.94113 4.27798C8.86429 4.26903 8.78735 4.2373 8.75119 4.16498C8.7059 4.09246 8.70589 3.98831 8.76014 3.92512C8.80534 3.85742 8.87323 3.83011 8.95027 3.82568C9.03605 3.82559 9.12664 3.87088 9.1628 3.95667Z" fill="black"></path>
    <path fill-rule="evenodd" clip-rule="evenodd" d="M9.09508 3.95682C9.12211 4.00212 9.12663 4.07011 9.10855 4.12425C9.07239 4.17397 9.02709 4.21485 8.96823 4.22379C8.89591 4.22831 8.83253 4.18301 8.79637 4.12425C8.77829 4.08357 8.76935 4.02924 8.79637 3.98856C8.81907 3.92085 8.88216 3.87988 8.95929 3.87988C9.00901 3.88902 9.05882 3.9071 9.09508 3.95682Z" fill="white"></path>
    <path fill-rule="evenodd" clip-rule="evenodd" d="M12.267 4.27359C12.3259 4.36861 12.3259 4.52239 12.2716 4.62654C12.2082 4.72156 12.1086 4.79397 11.9956 4.80763C11.8825 4.81215 11.7738 4.78493 11.6969 4.70809C11.6065 4.60403 11.5566 4.46372 11.6109 4.33245C11.6472 4.20137 11.7783 4.10173 11.9141 4.08827C12.0588 4.07452 12.1947 4.13789 12.267 4.27359Z" fill="black"></path>
    <path fill-rule="evenodd" clip-rule="evenodd" d="M16.3119 4.56787C16.3799 4.79416 16.4386 5.02487 16.4749 5.27386L16.4703 5.29646C16.2982 5.34618 16.2532 5.52718 16.1989 5.66739C16.1626 5.75799 16.1762 5.8756 16.235 5.96148C16.2666 6.02486 16.3436 6.07016 16.4116 6.10632C16.3843 6.12901 16.3347 6.13353 16.303 6.14257C16.1989 6.15604 16.0767 6.10632 16.0133 6.02948C15.9499 5.95696 15.9183 5.86656 15.9456 5.77164C16.0177 5.67211 16.0496 5.53641 16.0133 5.41869C15.9772 5.32368 15.8911 5.22876 15.8007 5.19702C15.691 5.1497 15.5647 5.16163 15.4659 5.22866C15.3637 5.29973 15.3029 5.41629 15.3029 5.54074C15.1899 5.63133 15.0358 5.67211 14.9136 5.60411C14.8232 5.56334 14.7464 5.47293 14.7329 5.38234C14.8009 5.39148 14.8865 5.3959 14.9682 5.37782C15.1899 5.3281 15.2169 5.07921 15.2622 4.89822C15.2576 4.76704 15.1942 4.6448 15.0901 4.57239C15.0991 4.47285 15.0631 4.38687 15.0134 4.31907C15.1082 4.29647 15.2031 4.20598 15.2485 4.11548C15.6242 4.20126 16.0041 4.31446 16.3119 4.56777V4.56787ZM8.76909 4.3461C8.78256 4.35062 8.80525 4.36427 8.79169 4.38687C8.75553 4.44111 8.74207 4.51363 8.74207 4.58143C8.64311 4.63028 8.57521 4.72549 8.56107 4.83484C8.54299 4.97054 8.60176 5.08363 8.63792 5.21039C8.70341 5.33541 8.83651 5.40994 8.9773 5.40052L9.14474 5.36888C9.14474 5.45033 9.09502 5.53631 9.0226 5.59055C8.92758 5.65845 8.79169 5.66307 8.68773 5.62219C8.51126 5.57247 8.54751 5.36888 8.4072 5.29194C8.31218 5.21048 8.1811 5.19692 8.06781 5.23308C7.9276 5.27838 7.83258 5.40956 7.82363 5.55439C7.81911 5.66749 7.85527 5.76703 7.93673 5.84848C7.92317 5.93888 7.90509 6.02948 7.82363 6.09266C7.73766 6.15604 7.6337 6.17864 7.53397 6.147C7.6335 6.04746 7.72852 5.91176 7.67428 5.76231C7.60177 5.6221 7.60177 5.42302 7.42529 5.3733C7.42991 5.13345 7.50223 4.9163 7.56109 4.69914L7.61985 4.52728C7.90038 4.28291 8.25333 4.20598 8.60176 4.12C8.6334 4.20136 8.68321 4.29176 8.76919 4.346L8.76909 4.3461Z" fill="#CE3829"></path>
    <path fill-rule="evenodd" clip-rule="evenodd" d="M12.2262 4.319C12.2762 4.42767 12.2536 4.57231 12.1719 4.66733C12.0725 4.75331 11.9322 4.776 11.8145 4.72167C11.715 4.66733 11.6427 4.57683 11.6516 4.45922C11.6471 4.35968 11.6788 4.26466 11.7692 4.2058C11.8416 4.15156 11.9411 4.13329 12.0408 4.15608C12.1133 4.17868 12.19 4.24206 12.2263 4.319H12.2262Z" fill="white"></path>
    <path fill-rule="evenodd" clip-rule="evenodd" d="M17.0179 4.32784C17.0403 4.41382 17.0179 4.50883 16.9544 4.57664C16.9002 4.60828 16.846 4.63088 16.7915 4.63088C16.7235 4.61732 16.6602 4.5901 16.6195 4.53595C16.5651 4.46806 16.5561 4.3641 16.6014 4.2961C16.6467 4.22811 16.7144 4.17397 16.8005 4.17849C16.8866 4.17397 16.977 4.23734 17.0179 4.32774V4.32784ZM7.31675 4.36862C7.34377 4.44113 7.31213 4.52239 7.27145 4.58587C7.20807 4.64463 7.12219 4.68088 7.03622 4.65819C6.96832 4.64011 6.9185 4.57221 6.89138 4.51787C6.85513 4.42728 6.88677 4.33688 6.94562 4.27802C6.99986 4.21926 7.09046 4.20118 7.1673 4.22378C7.22154 4.24186 7.29405 4.30072 7.31675 4.36862Z" fill="black"></path>
    <path fill-rule="evenodd" clip-rule="evenodd" d="M16.9276 4.29186C16.9637 4.32802 16.9683 4.38688 16.9683 4.44564C16.9502 4.49526 16.9049 4.54518 16.8599 4.56326C16.8009 4.58134 16.7556 4.56778 16.7103 4.54518C16.665 4.51354 16.6426 4.47266 16.6426 4.42756C16.6337 4.35966 16.6516 4.30081 16.7103 4.26917C16.7692 4.21502 16.8688 4.2331 16.9276 4.29186ZM7.20824 4.31456C7.2444 4.35072 7.2671 4.40034 7.26258 4.4592C7.25344 4.51354 7.21286 4.57682 7.15852 4.59499C7.10563 4.6124 7.04773 4.60567 7.00013 4.57682C6.94137 4.52248 6.91867 4.4365 6.95041 4.36861C6.96858 4.31437 7.02734 4.28263 7.07697 4.26907C7.12226 4.26474 7.16756 4.28282 7.20814 4.31446L7.20824 4.31456Z" fill="white"></path>
    <path fill-rule="evenodd" clip-rule="evenodd" d="M9.57925 4.57688C9.67869 4.68556 9.6833 4.87559 9.6155 5.00667C9.53395 5.11073 9.41633 5.16959 9.29419 5.16959C9.17581 5.16526 9.06656 5.10477 9.0001 5.00667C8.94125 4.91608 8.91865 4.78952 8.96394 4.68998C9.0001 4.54967 9.1358 4.46369 9.27169 4.45013C9.39383 4.44099 9.49779 4.48629 9.57925 4.57688ZM14.8416 4.58583C14.9184 4.67623 14.959 4.8076 14.923 4.92954C14.8823 5.03822 14.7873 5.14237 14.6786 5.17391C14.57 5.20113 14.4433 5.18747 14.3663 5.11967C14.2668 5.0337 14.1988 4.92512 14.2172 4.78942C14.2261 4.66267 14.3213 4.54957 14.4343 4.49533C14.57 4.44109 14.7374 4.47273 14.8416 4.58592V4.58583Z" fill="black"></path>
    <path fill-rule="evenodd" clip-rule="evenodd" d="M9.56083 4.64921C9.61517 4.72172 9.61517 4.84376 9.58343 4.93435C9.53371 5.02475 9.4386 5.10179 9.34368 5.11083C9.24866 5.11996 9.15355 5.08813 9.09026 5.02485C9.02237 4.95253 8.98178 4.86194 9.00429 4.7624C9.01785 4.65392 9.10382 4.54976 9.2125 4.51803C9.34368 4.47263 9.48851 4.5314 9.56083 4.64911V4.64921ZM14.805 4.63112C14.8774 4.71258 14.8864 4.83482 14.8547 4.93887C14.823 5.02947 14.7325 5.10179 14.6467 5.12448C14.538 5.14708 14.425 5.11554 14.357 5.03389C14.2893 4.95695 14.2574 4.85742 14.2893 4.75336C14.3163 4.63574 14.4114 4.5362 14.538 4.52707C14.642 4.50899 14.7281 4.56323 14.805 4.63112Z" fill="white"></path>
    <path fill-rule="evenodd" clip-rule="evenodd" d="M17.1039 4.83935C17.1356 4.86657 17.1492 4.92081 17.1809 4.94803C17.1719 4.98871 17.1809 5.04756 17.1673 5.09728C17.1266 5.17422 17.0452 5.2376 16.9636 5.24212C16.8915 5.23298 16.8235 5.21952 16.7872 5.16518C16.7387 5.11661 16.7182 5.04679 16.7329 4.97967C16.7329 4.91629 16.7692 4.86195 16.8279 4.82579C16.8959 4.76694 17.027 4.77607 17.1039 4.83935ZM7.14041 4.93879C7.18561 5.01131 7.17657 5.1244 7.12233 5.19211C7.06347 5.26462 6.96394 5.28713 6.87796 5.26462C6.81266 5.23866 6.76159 5.18605 6.73774 5.11998C6.71495 5.06112 6.72418 4.98861 6.75573 4.93447C6.79198 4.87561 6.85526 4.83031 6.92778 4.82579C7.01375 4.81666 7.10425 4.85743 7.14041 4.93879Z" fill="black"></path>
    <path fill-rule="evenodd" clip-rule="evenodd" d="M17.0948 4.91621C17.1221 4.97054 17.1265 5.05652 17.0905 5.11538C17.0496 5.15606 17.0045 5.17875 16.9591 5.18308C16.9004 5.17856 16.8504 5.16038 16.8188 5.1198C16.7781 5.0745 16.7781 4.99766 16.8007 4.94775C16.8188 4.88437 16.8821 4.84821 16.9454 4.84369C16.9997 4.83917 17.0494 4.87072 17.0948 4.91601V4.91621ZM7.08599 4.95246C7.11753 4.99324 7.11753 5.06114 7.10407 5.11086C7.08147 5.16048 7.03155 5.21039 6.97731 5.21491C6.91846 5.21943 6.86883 5.20578 6.83248 5.16962C6.79584 5.13278 6.77901 5.08066 6.78718 5.0293C6.7918 4.95679 6.84604 4.90274 6.91836 4.88447C6.97722 4.86649 7.04059 4.90265 7.08589 4.95246H7.08599Z" fill="white"></path>
    <path fill-rule="evenodd" clip-rule="evenodd" d="M11.9684 4.88447C11.9775 5.08806 12.0817 5.28262 12.267 5.38677L12.2627 5.43207C12.0409 5.43207 11.8056 5.43207 11.5884 5.44101C11.5703 5.42293 11.5658 5.38677 11.6019 5.38215C11.7694 5.2781 11.9006 5.09249 11.9141 4.8936C11.9276 4.88004 11.9459 4.88004 11.9684 4.88447Z" fill="black"></path>
    <path fill-rule="evenodd" clip-rule="evenodd" d="M12.1492 5.37772L12.1402 5.38224C11.991 5.3733 11.8507 5.37772 11.7148 5.38224C11.8144 5.29165 11.8958 5.19211 11.9409 5.07007C11.9909 5.17884 12.0408 5.29646 12.1492 5.37782V5.37772Z" fill="#CE3829"></path>
    <path fill-rule="evenodd" clip-rule="evenodd" d="M10.9002 5.28258C10.9635 5.35048 11.0494 5.39568 11.1399 5.42742V5.47714C10.9092 5.50416 10.6693 5.54042 10.4521 5.58119C10.3752 5.5133 10.502 5.49079 10.5244 5.4455C10.5879 5.36866 10.6194 5.27364 10.6558 5.18766C10.7055 5.18766 10.7553 5.16035 10.805 5.16035L10.9001 5.28258H10.9002ZM13.2439 5.17391C13.2939 5.28701 13.3253 5.4229 13.4433 5.50868C13.4521 5.52686 13.4297 5.54032 13.4297 5.5584C13.2125 5.52676 12.9907 5.48589 12.778 5.47242C12.7284 5.38645 12.8549 5.40905 12.891 5.35933C12.9636 5.30499 13.0224 5.22815 13.0723 5.16016C13.1263 5.17391 13.1807 5.18757 13.244 5.17391H13.2439ZM9.51548 5.20555C9.58799 5.39106 9.74619 5.5811 9.9544 5.62639C9.96354 5.63553 9.95892 5.65803 9.95892 5.67611L9.23052 5.86605C9.16715 5.80268 9.28928 5.78921 9.30304 5.7393C9.41613 5.59447 9.47489 5.41799 9.45229 5.22805C9.46576 5.21459 9.48845 5.20545 9.51557 5.20545L9.51548 5.20555ZM14.4292 5.23257C14.4159 5.43617 14.4701 5.63534 14.6286 5.77556C14.642 5.79373 14.692 5.81633 14.6647 5.84807L14.6466 5.85701C14.4159 5.78931 14.1985 5.72141 13.9725 5.66707C13.9495 5.59023 14.0493 5.60822 14.0901 5.57667C14.2212 5.49974 14.3479 5.36404 14.3887 5.21921L14.4293 5.23267L14.4292 5.23257Z" fill="black"></path>
    <path fill-rule="evenodd" clip-rule="evenodd" d="M10.8821 5.34611L11.0042 5.43651L10.5518 5.50441C10.6106 5.42305 10.6649 5.33697 10.6966 5.24196C10.7238 5.23282 10.7554 5.22388 10.7826 5.22849L10.8822 5.34611H10.8821ZM13.2034 5.24196C13.2304 5.32341 13.2803 5.40487 13.3348 5.48171C13.1988 5.46363 13.0451 5.44103 12.8957 5.42747C12.9681 5.38217 13.0404 5.30072 13.104 5.22388L13.2035 5.24196H13.2034Z" fill="#CE3829"></path>
    <path fill-rule="evenodd" clip-rule="evenodd" d="M17.2127 5.251V5.25552H17.2038C17.1946 5.24657 17.2084 5.24196 17.2127 5.251Z" fill="black"></path>
    <path fill-rule="evenodd" clip-rule="evenodd" d="M9.83715 5.64465C9.67866 5.68534 9.5069 5.73063 9.35303 5.77574C9.45074 5.65293 9.50767 5.50261 9.51594 5.34595C9.59278 5.46818 9.70146 5.59041 9.83715 5.64465ZM14.534 5.76218C14.3801 5.72602 14.2353 5.66716 14.0905 5.64004C14.1946 5.58128 14.3119 5.49982 14.3756 5.3822C14.3847 5.52704 14.4435 5.64917 14.534 5.76218Z" fill="#CE3829"></path>
    <path fill-rule="evenodd" clip-rule="evenodd" d="M17.208 5.58137C17.2848 5.67638 17.303 5.80766 17.2622 5.9296C17.2125 6.04289 17.0994 6.13329 16.9862 6.14685C16.864 6.16032 16.7554 6.11964 16.6787 6.03818C16.5986 5.95018 16.5695 5.82708 16.6018 5.71254C16.6334 5.57685 16.7554 5.47269 16.8914 5.45461C17.0044 5.44105 17.1312 5.47269 17.2081 5.58137H17.208Z" fill="black"></path>
    <path fill-rule="evenodd" clip-rule="evenodd" d="M17.1988 5.66717C17.2123 5.70794 17.2169 5.76219 17.2304 5.81662C17.2123 5.92068 17.1444 6.03377 17.0451 6.07455C16.941 6.11071 16.8325 6.09263 16.7554 6.03377C16.6787 5.96588 16.6514 5.88894 16.6514 5.79854C16.6514 5.6764 16.7283 5.56321 16.8504 5.52695C16.9815 5.47261 17.131 5.54041 17.1987 5.66717H17.1988Z" fill="white"></path>
    <path fill-rule="evenodd" clip-rule="evenodd" d="M7.30315 5.68535C7.36652 5.76681 7.38008 5.89799 7.34392 6.00214C7.2942 6.1062 7.18101 6.20574 7.0633 6.22382C6.95924 6.22382 6.86422 6.20122 6.78276 6.13322C6.69236 6.03821 6.63812 5.91155 6.67871 5.77575C6.71948 5.64467 6.85057 5.53158 6.99088 5.52696C7.11311 5.5134 7.23073 5.57687 7.30305 5.68535H7.30315Z" fill="black"></path>
    <path fill-rule="evenodd" clip-rule="evenodd" d="M7.24002 5.69006C7.3034 5.77151 7.32148 5.89365 7.2807 5.99319C7.24079 6.07099 7.1729 6.13081 7.09077 6.16062C7.01383 6.1788 6.93699 6.1561 6.86909 6.11994C6.7785 6.06108 6.72426 5.96155 6.72878 5.85749C6.72878 5.75343 6.79677 5.66303 6.88265 5.61331C7.00017 5.55436 7.14962 5.57705 7.24002 5.69015V5.69006Z" fill="white"></path>
    <path fill-rule="evenodd" clip-rule="evenodd" d="M15.4613 6.54956L15.8324 6.70795C15.8641 6.73497 15.8914 6.78046 15.8731 6.83009C15.855 6.86634 15.8097 6.87538 15.7871 6.9026L15.8415 7.14236C15.7511 7.19208 15.6605 7.24641 15.5837 7.30979C15.5927 7.34605 15.5971 7.39125 15.5791 7.43193C15.543 7.46357 15.4977 7.48626 15.457 7.46809C15.4163 7.4501 15.3936 7.42741 15.3619 7.41846C14.4389 6.99762 13.4388 6.69006 12.3845 6.69006C11.7103 6.67198 11.0814 6.69006 10.4389 6.82124C9.71497 6.95694 9.03609 7.22853 8.38463 7.54522C8.33664 7.5581 8.28557 7.54224 8.25345 7.50444C8.22181 7.45914 8.23528 7.39596 8.24884 7.35518L8.02274 7.19679C8.03168 7.11533 8.04995 7.02935 8.06342 6.94799C8.02274 6.92982 7.9684 6.92078 7.95494 6.87106C7.95032 6.83942 7.95032 6.79422 7.97754 6.767C8.05899 6.71266 8.15853 6.68554 8.25355 6.64938C9.42549 6.16516 10.6698 5.77605 12.0001 5.77605C13.2172 5.76711 14.371 6.1065 15.4614 6.54985L15.4613 6.54956ZM15.6287 5.84366C15.638 5.98849 15.6831 6.12881 15.7917 6.24643C15.7647 6.3324 15.7058 6.23748 15.665 6.24643C15.4659 6.15141 15.2622 6.07005 15.0677 5.99763C15.0453 5.98417 15.0587 5.96147 15.0677 5.94791C15.2034 5.92973 15.3619 5.89367 15.4794 5.78961C15.5247 5.80298 15.57 5.8302 15.6286 5.84376L15.6287 5.84366ZM8.80096 5.95666C8.80548 5.9658 8.81442 5.98397 8.8099 6.00657C8.57918 6.09255 8.34837 6.16035 8.13112 6.26903L8.07236 6.28259C8.08131 6.24181 8.1266 6.21469 8.1492 6.17853C8.20806 6.09255 8.23518 5.9884 8.24422 5.88444C8.29394 5.85722 8.34376 5.83924 8.38905 5.80298C8.51129 5.88434 8.64708 5.95224 8.80096 5.95666Z" fill="black"></path>
    <path fill-rule="evenodd" clip-rule="evenodd" d="M15.0813 6.45915C15.312 6.54061 15.5473 6.64476 15.7826 6.7443C15.8007 6.75324 15.8187 6.78508 15.8097 6.812L15.76 6.84365L15.3889 6.96126C15.425 7.09244 15.4839 7.21919 15.5382 7.35489C15.5382 7.38653 15.5109 7.40913 15.4885 7.41827C14.5969 7.00656 13.6468 6.67621 12.6468 6.64005C11.7012 6.58571 10.7285 6.64005 9.8507 6.90712C9.33484 7.05638 8.84157 7.25997 8.36187 7.49078C8.32571 7.49992 8.30763 7.47722 8.29398 7.45914C8.30311 7.32344 8.37995 7.21035 8.41611 7.08802L8.45689 6.98848C8.32052 6.94395 8.18146 6.9077 8.04066 6.88C8.01344 6.86644 7.99988 6.83028 8.01806 6.80768L8.09038 6.77142C9.4162 6.22382 10.846 5.75787 12.3527 5.84375C13.2847 5.88001 14.2077 6.13352 15.0811 6.45915H15.0813Z" fill="#EFC460"></path>
    <path fill-rule="evenodd" clip-rule="evenodd" d="M15.5745 5.88439C15.5926 5.98403 15.6107 6.08809 15.6695 6.17849C15.5158 6.11511 15.3574 6.04731 15.2125 5.98836C15.3113 5.96066 15.4048 5.91632 15.4888 5.85718L15.5745 5.88439ZM8.66072 5.99307L8.23535 6.1605C8.25353 6.09261 8.28065 6.0022 8.29873 5.92527L8.39375 5.87555C8.4752 5.92527 8.5656 5.97508 8.66072 5.99316V5.99307Z" fill="#CE3829"></path>
    <path fill-rule="evenodd" clip-rule="evenodd" d="M12.6425 6.25077C12.6514 6.26895 12.6198 6.26895 12.6109 6.27799L11.9456 6.4862L11.2397 6.26904V6.25548C11.4795 6.16489 11.7148 6.06554 11.9592 5.97485C12.1855 6.05641 12.4119 6.16046 12.6425 6.25086V6.25077ZM16.5881 5.99293L16.5746 5.98399L16.5881 5.98832V5.99293Z" fill="black"></path>
    <path fill-rule="evenodd" clip-rule="evenodd" d="M12.484 6.25082L11.9409 6.42729L11.4116 6.25986V6.25072L11.9592 6.03809C12.1357 6.09704 12.3077 6.1784 12.4841 6.25072L12.484 6.25082Z" fill="#CE3829"></path>
    <path fill-rule="evenodd" clip-rule="evenodd" d="M13.2533 6.18776C13.2778 6.2495 13.2842 6.31711 13.2715 6.38232C13.2398 6.47291 13.1401 6.53609 13.0542 6.55417C12.9546 6.55879 12.8732 6.51801 12.8235 6.45012C12.7828 6.4004 12.7692 6.34606 12.7739 6.28268C12.7782 6.18767 12.8552 6.09717 12.9456 6.07005C13.0543 6.02927 13.1856 6.07918 13.2534 6.18767L13.2533 6.18776ZM11.0769 6.21479C11.104 6.29624 11.0995 6.41396 11.0316 6.48637C10.9728 6.53609 10.9005 6.56331 10.828 6.55427C10.7421 6.54071 10.6562 6.47733 10.6379 6.40049C10.6018 6.31 10.6232 6.20671 10.6922 6.13804C10.7511 6.07928 10.846 6.05206 10.9321 6.0838C10.9861 6.1064 11.0496 6.1517 11.0767 6.21488L11.0769 6.21479Z" fill="black"></path>
    <path fill-rule="evenodd" clip-rule="evenodd" d="M13.1767 6.1877C13.2037 6.22396 13.2217 6.2783 13.2174 6.33254C13.1992 6.40043 13.1494 6.46823 13.086 6.49093C13.0155 6.50786 12.9412 6.4893 12.887 6.44121C12.8326 6.37783 12.8146 6.2783 12.8643 6.20588C12.8959 6.15164 12.9502 6.1199 13.0135 6.11548C13.0727 6.11548 13.1357 6.13356 13.1766 6.1878L13.1767 6.1877ZM10.9775 6.17414C11.0183 6.21944 11.0409 6.2782 11.0363 6.34619C11.0183 6.40043 10.9866 6.46381 10.9323 6.48651C10.8779 6.50911 10.8236 6.50007 10.7785 6.48199C10.706 6.43669 10.6654 6.35985 10.6835 6.27378C10.6969 6.20588 10.7514 6.1426 10.8237 6.12913C10.8779 6.11538 10.9324 6.13346 10.9775 6.17414Z" fill="white"></path>
    <path fill-rule="evenodd" clip-rule="evenodd" d="M14.1717 6.26457C14.3708 6.39566 14.5561 6.55857 14.7598 6.69427V6.7034C14.5201 6.71687 14.2575 6.72158 14.0134 6.73504C13.8051 6.59935 13.5971 6.48625 13.4025 6.34584L13.4114 6.3367C13.656 6.30949 13.8868 6.29141 14.1355 6.25977L14.1716 6.26448L14.1717 6.26457ZM10.4614 6.35498C10.2578 6.49981 10.045 6.64012 9.83249 6.75774L9.12659 6.72158L9.12207 6.71244L9.71477 6.26467L10.4568 6.35046L10.4614 6.35498Z" fill="black"></path>
    <path fill-rule="evenodd" clip-rule="evenodd" d="M14.6014 6.65372C14.4024 6.65833 14.217 6.67632 14.0177 6.67632C13.8684 6.56322 13.7099 6.4908 13.5653 6.38222C13.7552 6.36414 13.9364 6.32798 14.1353 6.31885C14.2984 6.40944 14.4388 6.5361 14.6014 6.65372ZM10.312 6.39117C10.1537 6.49994 9.98617 6.59938 9.82326 6.69901L9.28027 6.67632V6.66718L9.73276 6.31885C9.92731 6.33702 10.1173 6.36424 10.3119 6.39117H10.312Z" fill="#1E7E62"></path>
    <path fill-rule="evenodd" clip-rule="evenodd" d="M15.3525 6.75308C15.3934 6.83002 15.3752 6.95225 15.3255 7.02909C15.2575 7.09699 15.1581 7.13315 15.0676 7.11055C14.9816 7.08795 14.9092 7.01101 14.8866 6.93869C14.8596 6.84367 14.8866 6.74413 14.9635 6.68989C15.0225 6.62652 15.1128 6.60844 15.1989 6.62652C15.2531 6.64912 15.3208 6.68528 15.3525 6.75308ZM8.91839 6.72153C8.96369 6.77125 8.98629 6.83906 8.98177 6.91147C8.96821 6.97485 8.93647 7.03832 8.88675 7.07891C8.80981 7.12863 8.7147 7.14228 8.63344 7.11055C8.55188 7.06535 8.49774 6.98379 8.49312 6.89791C8.48399 6.79385 8.54284 6.71692 8.6243 6.6672C8.7147 6.61748 8.84145 6.64017 8.91839 6.72153Z" fill="black"></path>
    <path fill-rule="evenodd" clip-rule="evenodd" d="M15.3121 6.80305C15.3256 6.85739 15.3167 6.92519 15.2897 6.97953C15.2488 7.01569 15.2081 7.04742 15.1537 7.06098C15.0857 7.0655 15.0315 7.03838 14.9909 7.00213C14.9456 6.95241 14.9319 6.89345 14.9456 6.84364C14.9456 6.78035 14.9862 6.72602 15.0406 6.70342C15.0856 6.6762 15.1492 6.66274 15.2034 6.69428C15.2443 6.71265 15.2896 6.74891 15.3121 6.80305ZM8.87773 6.76237C8.91389 6.80305 8.93207 6.86191 8.91851 6.91615C8.90803 6.97549 8.87148 7.02694 8.81897 7.05646C8.76463 7.07454 8.69674 7.07906 8.65144 7.05646C8.57912 7.01117 8.54296 6.92971 8.55652 6.85739C8.56104 6.79401 8.60172 6.74891 8.65144 6.71707C8.72395 6.68091 8.81897 6.69899 8.87773 6.76237Z" fill="white"></path>
    <path fill-rule="evenodd" clip-rule="evenodd" d="M15.6244 7.59473C16.5791 8.07895 17.4568 8.79379 18.1719 9.6627C18.6196 10.26 19.045 10.8844 19.3346 11.5676C19.7509 12.5902 19.9906 13.7033 19.9863 14.907C19.941 16.1965 19.6466 17.3999 19.095 18.4997C18.819 19.0244 18.4613 19.5221 18.0949 20.0154C17.4478 20.7575 16.6878 21.3955 15.8641 21.866C14.4297 22.6623 12.7602 23.0064 11.0723 22.8298C10.0091 22.6897 9.00453 22.3774 8.09042 21.866C7.77363 21.6896 7.47964 21.4679 7.18545 21.2733C6.57467 20.8029 6.04063 20.2371 5.57006 19.6261C5.48832 19.4912 5.4008 19.3598 5.30771 19.2325C4.8733 18.5764 4.57017 17.8707 4.33926 17.1466C3.99997 15.9476 3.90043 14.5494 4.15837 13.3007C4.27598 12.5223 4.55199 11.821 4.88234 11.1423C5.0542 10.8165 5.23981 10.4952 5.45245 10.2012C5.60622 9.92957 5.81895 9.70338 6.01812 9.46362C6.59275 8.78946 7.28499 8.24196 8.0182 7.80303C9.44788 6.97952 11.0813 6.59484 12.8145 6.76689C13.8145 6.86171 14.7465 7.15128 15.6244 7.59473Z" fill="black"></path>
    <path fill-rule="evenodd" clip-rule="evenodd" d="M16.2172 8.00213C17.0722 8.54512 17.837 9.25544 18.4387 10.1152C19.3167 11.3278 19.7919 12.717 19.9049 14.2598C19.9908 15.7939 19.6651 17.2553 19.009 18.5404C18.647 19.1648 18.2397 19.7982 17.7149 20.3456C15.9866 22.1511 13.5837 23.0291 11.1178 22.7801C9.64734 22.608 8.28978 22.056 7.11794 21.1512C6.57034 20.7169 6.07717 20.1874 5.66546 19.6578C5.52063 19.4679 5.42109 19.2644 5.28088 19.0878C4.97774 18.6127 4.76059 18.1104 4.5569 17.6084C4.15875 16.5404 4.00036 15.3322 4.10432 14.1241C4.19029 13.0337 4.489 12.0382 4.96409 11.1197C4.96861 11.1152 4.98678 11.1197 4.98678 11.1108L4.97784 11.0972C5.10459 10.8575 5.23115 10.6267 5.38051 10.405C5.4711 10.2874 5.52534 10.1562 5.62026 10.043C6.03659 9.50904 6.48455 8.98866 7.0185 8.57243C7.28095 8.34171 7.5661 8.16514 7.84643 7.97973C7.98223 7.85759 8.15418 7.8122 8.29892 7.71275C10.0907 6.73537 12.3804 6.50013 14.3666 7.14265C15.0136 7.34163 15.6334 7.64034 16.2172 8.00233V8.00213Z" fill="#EFC460"></path>
    <path fill-rule="evenodd" clip-rule="evenodd" d="M15.7737 7.11506C15.7011 7.16036 15.6288 7.20565 15.5654 7.24624C15.5247 7.16478 15.484 7.08332 15.466 6.99725C15.5473 6.97023 15.6288 6.94763 15.7193 6.92041C15.7463 6.97032 15.7553 7.04716 15.7736 7.11496L15.7737 7.11506ZM8.37113 7.02004C8.34391 7.11064 8.29862 7.20104 8.26707 7.29605L8.09521 7.17844C8.09521 7.10592 8.10877 7.02466 8.14042 6.9658L8.37113 7.02004Z" fill="#CE3829"></path>
    <path fill-rule="evenodd" clip-rule="evenodd" d="M16.4567 9.36395C17.2714 10.0608 17.9908 10.9839 18.3932 11.9612C18.7645 12.839 18.9725 13.7937 18.9772 14.83C18.9679 16.0561 18.6242 17.1556 18.1219 18.1873C17.5202 19.2687 16.5881 20.2507 15.5204 20.8884C14.9411 21.2235 14.3304 21.4722 13.6831 21.6488C12.1677 22.0424 10.4028 21.8614 9.02277 21.2007C8.64722 21.0197 8.29418 20.8027 7.94585 20.5716C7.62002 20.3003 7.27621 20.0513 6.99115 19.7349C6.54309 19.2732 6.19476 18.7708 5.90509 18.2552C5.62908 17.8025 5.47078 17.3094 5.30787 16.8254C5.01378 15.848 4.93665 14.6579 5.12678 13.6171C5.21737 13.0425 5.40279 12.5131 5.59735 11.9927C5.9276 11.2687 6.3394 10.581 6.92297 9.97916C7.2488 9.58996 7.64243 9.29586 8.03605 8.99725C8.16723 8.92493 8.28043 8.82087 8.41612 8.75307C9.8233 7.87974 11.6332 7.54487 13.3255 7.8707C14.475 8.09238 15.5204 8.5991 16.4567 9.36376V9.36395Z" fill="black"></path>
    <path fill-rule="evenodd" clip-rule="evenodd" d="M15.6382 8.84359C15.6742 8.87081 15.6425 8.84359 15.6788 8.87081C16.8916 9.63104 17.8957 10.8391 18.4071 12.1512C18.7104 12.9339 18.9005 13.7847 18.914 14.6987C18.9274 15.8028 18.6741 16.8118 18.2623 17.7529C17.9817 17.4589 17.6923 17.1785 17.4206 16.9112C17.4479 16.7711 17.5021 16.6398 17.5473 16.5132C17.8687 15.504 17.8913 14.2644 17.6017 13.2372C17.4433 12.6534 17.1946 12.1104 16.8779 11.5992C16.3483 10.7893 15.6065 10.0833 14.7784 9.64903C14.5747 9.84358 14.3891 10.0653 14.19 10.2689C13.905 10.563 13.6062 10.8527 13.3394 11.1513C12.7602 10.9296 12.0996 10.8617 11.4842 10.9433L11.4073 10.8754L11.077 10.5496L10.0816 9.54959L9.14496 8.6175L9.02734 8.49536L9.05456 8.47728C10.498 7.77138 12.3079 7.60404 13.9005 8.06557C14.507 8.2508 15.0997 8.48603 15.6382 8.8435L15.6382 8.84359Z" fill="white"></path>
    <path fill-rule="evenodd" clip-rule="evenodd" d="M9.98209 9.53139L10.3983 9.95224L11.3033 10.8573L11.3983 10.9522C11.0951 10.9884 10.8191 11.0834 10.5477 11.1875L10.2264 10.8707C9.83274 10.4951 9.44805 10.1015 9.05904 9.73499C8.51596 10.0472 8.01837 10.4364 7.59743 10.9386C7.15398 11.4047 6.86913 11.9521 6.6111 12.5042L6.59763 12.4996L5.80566 11.6988C6.02282 11.2644 6.27623 10.8436 6.58388 10.4543C6.80556 10.183 7.03637 9.91137 7.28526 9.68065C7.60657 9.40926 7.91412 9.11959 8.27178 8.91147C8.48894 8.76664 8.72417 8.64008 8.95941 8.52246L8.96854 8.52698L9.98228 9.53159L9.98209 9.53139Z" fill="#2B3E8A"></path>
    <path fill-rule="evenodd" clip-rule="evenodd" d="M16.5656 11.2599C17.3439 12.3142 17.76 13.5404 17.7466 14.9341C17.7058 15.9249 17.4389 16.848 16.9773 17.6853C16.9683 17.6671 16.9592 17.6807 16.9546 17.6853L16.9592 17.7167C16.4978 18.5405 15.7647 19.2598 14.9817 19.7802L14.9183 19.8118L14.9137 19.7938L14.9183 18.6581C15.6514 18.0834 16.217 17.2871 16.5157 16.4454C16.7555 15.7939 16.8324 15.0472 16.7828 14.3232C16.6968 13.4001 16.3619 12.581 15.8281 11.8663C15.5702 11.5269 15.2578 11.2102 14.9368 10.9613H14.9232C14.6895 11.1815 14.4645 11.411 14.249 11.6491C13.9822 11.4546 13.6833 11.2962 13.403 11.174C13.7324 10.816 14.0689 10.4645 14.4121 10.1197L14.7968 9.72607C15.4707 10.088 16.0727 10.6309 16.5658 11.2599H16.5656ZM11.3305 12.0519C11.5346 12.2428 11.7352 12.4374 11.9322 12.6356C11.9368 12.6446 11.9277 12.6671 11.9503 12.6806C12.1451 12.4907 12.3397 12.2599 12.543 12.07C12.6064 12.0519 12.6652 12.088 12.7329 12.1016C12.9866 12.1785 13.2353 12.269 13.4613 12.4319L13.448 12.4589L13.172 12.7395L12.0091 13.9203L11.9548 13.9792C11.7558 13.8254 11.6109 13.6309 11.4344 13.4726C10.8145 12.8663 10.2218 12.2373 9.602 11.6401L8.964 10.9975L8.92774 11.0156C8.92322 11.0065 8.9188 10.9975 8.91418 11.0065C8.66087 11.2057 8.41198 11.4499 8.21742 11.7125C7.81927 12.1513 7.57942 12.6763 7.38035 13.2146C6.99576 14.2689 7.0275 15.6354 7.48902 16.6578C7.62472 16.9881 7.80119 17.3096 8.00027 17.6262C8.15414 17.7983 8.29436 17.9974 8.46189 18.1737C8.62932 18.3413 8.80128 18.5039 8.99583 18.658L8.99122 19.8071C8.62009 19.5854 8.27176 19.3051 7.95045 19.02C7.64722 18.6849 7.34871 18.3457 7.1179 17.9927C6.77399 17.4 6.4799 16.7982 6.3442 16.1332C6.02751 14.7576 6.24014 13.2237 6.89622 12.0653C7.15406 11.5134 7.57952 11.0383 8.00027 10.5857C8.24012 10.3686 8.49805 10.1604 8.76964 9.97939L9.05469 9.80753C9.81925 10.5492 10.5704 11.2959 11.3306 12.0516L11.3305 12.0519Z" fill="#EFC460"></path>
    <path fill-rule="evenodd" clip-rule="evenodd" d="M13.9862 11.5406C14.2175 11.6884 14.4329 11.8598 14.6288 12.052V12.0744C14.4025 12.2961 14.1718 12.5135 13.9546 12.7398C13.8958 12.6898 13.8324 12.6357 13.7828 12.5905C13.4162 12.2918 13.0134 12.0882 12.57 11.9978C12.1764 11.9209 11.751 11.9118 11.3663 12.0021C11.0858 11.7442 10.8595 11.4909 10.6016 11.2376C11.674 10.7851 13.018 10.9071 13.9861 11.5407L13.9862 11.5406Z" fill="#EFC460"></path>
    <path fill-rule="evenodd" clip-rule="evenodd" d="M15.1941 11.2508C15.9996 12.0018 16.5019 12.9569 16.683 14.0154C16.7737 14.6308 16.7463 15.3187 16.615 15.9114L16.5653 16.0517C16.0993 15.5674 15.6107 15.1104 15.1672 14.6443C14.9001 14.3729 14.6152 14.1106 14.3708 13.8479L13.4568 12.9295L13.2715 12.7304C13.3438 12.6308 13.4252 12.5537 13.5112 12.4725C13.6687 12.5682 13.8132 12.6837 13.9412 12.8162H13.9636C14.2118 12.5652 14.4623 12.3163 14.7149 12.0698L14.7103 12.0517C14.5789 11.9114 14.4252 11.7984 14.3032 11.6761C14.4977 11.4543 14.7149 11.2372 14.932 11.0381C15.018 11.0923 15.104 11.1739 15.1943 11.2507L15.1941 11.2508Z" fill="white"></path>
    <path fill-rule="evenodd" clip-rule="evenodd" d="M9.61075 11.726L9.6019 11.7487C8.85657 12.3244 8.35187 13.1566 8.18568 14.0836C8.06345 13.9886 7.94131 13.8619 7.84629 13.7533C7.83273 13.7398 7.83273 13.708 7.81013 13.7263L7.4165 13.3235C7.5522 12.8801 7.75128 12.4638 8.00017 12.0745C8.1451 11.8935 8.28079 11.6901 8.44371 11.5315C8.59297 11.3596 8.7605 11.1967 8.93687 11.0654H8.95495L9.61084 11.726H9.61075Z" fill="#2B3E8A"></path>
    <path fill-rule="evenodd" clip-rule="evenodd" d="M5.9138 11.3232V11.3278L5.90918 11.3142C5.90918 11.3142 5.9138 11.3143 5.9138 11.3233V11.3232Z" fill="black"></path>
    <path fill-rule="evenodd" clip-rule="evenodd" d="M6.57924 12.5677C6.02732 13.8571 5.99096 15.6128 6.52048 16.943C6.76928 17.5268 7.06808 18.097 7.51133 18.6128C7.66059 18.7849 7.84149 18.9748 8.00902 19.1512C8.32571 19.4229 8.67424 19.6989 9.04517 19.9069L9.0543 19.8799L9.05882 18.6445L9.04074 18.6172C8.77829 18.4138 8.53392 18.1648 8.31215 17.9205C8.08144 17.6354 7.87784 17.3505 7.72849 17.0427C7.21724 16.0653 7.02711 14.8436 7.2987 13.7079L7.3891 13.3912L7.42988 13.4185C7.68781 13.6537 7.90496 13.9251 8.16741 14.1606C8.09952 14.536 8.09509 14.9841 8.15847 15.3867C8.21733 15.7849 8.3259 16.165 8.5068 16.5223C8.85071 17.2148 9.45697 17.8798 10.1674 18.2372C10.4071 18.3732 10.6696 18.4725 10.9456 18.5585V20.2825C11.3122 20.2825 11.6334 20.2779 11.9819 20.2825L11.9864 20.2552L11.9909 18.6987C12.2126 18.6806 12.4163 18.6671 12.6378 18.6353L13.2262 19.2234C13.715 19.735 14.2307 20.2235 14.7283 20.7485C14.8416 20.8525 14.9456 20.9476 15.0634 21.0741C13.5249 21.8569 11.6108 22.0153 9.95476 21.4995C9.3032 21.2869 8.69232 21.0061 8.12683 20.6217C7.90054 20.4814 7.69704 20.2915 7.49335 20.133C7.01365 19.712 6.57482 19.219 6.24437 18.7075C5.94124 18.2325 5.67437 17.7482 5.50232 17.2325C5.39384 16.8977 5.28516 16.5674 5.22179 16.2233C4.9955 15.1556 5.05435 13.9292 5.34402 12.9157C5.4751 12.5221 5.57012 12.1149 5.77371 11.762C6.05434 12.0156 6.30323 12.287 6.57924 12.5676V12.5677Z" fill="white"></path>
    <path fill-rule="evenodd" clip-rule="evenodd" d="M10.335 12.4544V12.4636C9.37569 13.1286 8.93225 14.2915 9.19931 15.4455C9.34857 16.1287 9.79202 16.7667 10.421 17.183C11.1496 17.6625 12.1494 17.7622 12.9867 17.4455C13.3215 17.3233 13.6201 17.0971 13.9052 16.8709C14.1222 17.0971 14.3576 17.3099 14.5838 17.5679C14.3439 17.8393 14.0182 18.0247 13.7105 18.2102C12.6971 18.7623 11.3215 18.7667 10.2943 18.2419C9.86001 18.0202 9.46186 17.7215 9.13594 17.3506C8.5794 16.7215 8.25357 15.9842 8.19481 15.1471C8.13595 14.3417 8.28982 13.568 8.66537 12.9209C8.90955 12.4956 9.25808 12.0746 9.6517 11.7805C9.87809 12.0022 10.1132 12.2105 10.335 12.4546V12.4544Z" fill="#EFC460"></path>
    <path fill-rule="evenodd" clip-rule="evenodd" d="M12.4752 12.0426C12.4256 12.1016 12.3576 12.1605 12.3078 12.2282C12.1945 12.3369 12.0815 12.4589 11.9683 12.5765C11.7784 12.4181 11.6108 12.2238 11.4299 12.0518C11.7646 11.9749 12.1221 11.9749 12.4752 12.0426ZM11.6561 13.7846C11.7512 13.8753 11.8371 13.9703 11.9458 14.0607L11.9684 14.0471C12.3846 13.6083 12.7874 13.192 13.2217 12.7757C13.3485 12.8933 13.4753 13.0382 13.6153 13.174C13.8643 13.4047 14.0997 13.676 14.362 13.916C14.6153 14.1831 14.8735 14.4407 15.1538 14.7124L16.0405 15.6082L16.5474 16.1197C16.4025 16.622 16.1898 17.0971 15.8913 17.5451C15.5926 17.9432 15.2623 18.3233 14.8597 18.6263L14.8508 18.6625V19.907L14.8641 19.9159C15.8551 19.3232 16.7193 18.3911 17.2125 17.364L17.3889 16.9658C17.6652 17.2375 17.9546 17.5132 18.2352 17.8164C18.0315 18.2554 17.769 18.6671 17.4705 19.0743C16.8325 19.8932 16.0178 20.5766 15.1221 21.047C14.8054 20.7214 14.4933 20.4318 14.19 20.1149L13.3166 19.2325C13.1178 19.0287 12.9157 18.8281 12.7103 18.6308L12.7238 18.6172C13.4479 18.4682 14.1039 18.1198 14.6559 17.5904C14.674 17.5677 14.6516 17.5451 14.6424 17.5405C14.398 17.2734 14.1447 17.0339 13.9095 16.7848C13.5293 17.1242 13.0949 17.3778 12.6198 17.4997C12.4118 17.545 12.2081 17.5631 11.9999 17.5767L11.9907 17.5585L11.9953 16.8211L12.7101 16.8164L12.7236 16.7848L12.7193 15.8074L12.6966 15.7985H11.959C11.9455 15.6401 11.9499 15.4728 11.9545 15.3234L12.959 15.3144L12.9679 15.2917L12.9636 14.3233H11.1268L10.9594 14.3279L10.9504 14.4002L10.9458 16.8617C10.5205 16.4274 10.0771 15.9704 9.63366 15.545L9.21282 15.1196C9.12675 14.5405 9.2535 13.9478 9.51595 13.4681C9.70146 13.0881 10.0317 12.7487 10.3756 12.5043C10.8148 12.916 11.2174 13.3683 11.6563 13.7846H11.6561Z" fill="#2B3E8A"></path>
    <path fill-rule="evenodd" clip-rule="evenodd" d="M4.24427 12.7621L4.23975 12.7532L4.24427 12.7575V12.7621ZM19.9998 14.2733C19.9952 14.2733 19.9862 14.2822 19.9906 14.2822V14.2641C19.9905 14.2596 19.9952 14.2642 19.9998 14.2733Z" fill="black"></path>
    <path fill-rule="evenodd" clip-rule="evenodd" d="M12.9051 14.3957C12.9051 14.6897 12.8961 14.9568 12.9007 15.2555C12.5748 15.2598 12.2447 15.2509 11.9007 15.2598C11.8781 15.4498 11.8872 15.6445 11.8915 15.8436L11.9051 15.8571H12.6607V16.7576L12.6426 16.7622H11.9411L11.9322 16.7756L11.9277 17.572C11.6109 17.563 11.2988 17.5086 11.0137 17.409V14.3865C11.6381 14.3684 12.258 14.3776 12.896 14.3776L12.9052 14.3957H12.9051Z" fill="#EFC460"></path>
    <path fill-rule="evenodd" clip-rule="evenodd" d="M4.00462 15.201L4 15.1918C4.00462 15.1826 4.00462 15.1918 4.00462 15.201Z" fill="black"></path>
    <path fill-rule="evenodd" clip-rule="evenodd" d="M10.5202 16.5176L10.9455 16.943V17.3866C10.2397 17.106 9.58357 16.4636 9.34824 15.7532C9.28938 15.5722 9.23062 15.3912 9.22168 15.2146C9.64243 15.6581 10.104 16.0699 10.5203 16.5177L10.5202 16.5176Z" fill="white"></path>
    <path fill-rule="evenodd" clip-rule="evenodd" d="M16.5292 15.9882L16.5249 15.9839H16.5292V15.9882Z" fill="black"></path>
    <path fill-rule="evenodd" clip-rule="evenodd" d="M11.9228 18.694L11.9273 18.8117L11.9228 20.2325L11.0088 20.2282L11.0133 18.5764C11.2985 18.6397 11.6106 18.6897 11.9229 18.694H11.9228Z" fill="#EFC460"></path>
    <path fill-rule="evenodd" clip-rule="evenodd" d="M17.552 20.4678L17.5473 20.4721V20.4588C17.5473 20.4498 17.5473 20.4588 17.552 20.4677V20.4678ZM12.8732 21.8299H12.8599L12.8642 21.8163C12.8688 21.8074 12.8688 21.8163 12.8731 21.8299H12.8732Z" fill="black"></path>
  </g>
  <defs>
    <clipPath id="clip0_971_196262">
      <rect width="16" height="22.3751" fill="white" transform="translate(4 0.5)"></rect>
    </clipPath>
  </defs>
</svg>
