<?xml version="1.0" encoding="UTF-8"?>
<svg xmlns="http://www.w3.org/2000/svg" width="28" height="28" viewBox="0 0 28 28" fill="none">
  <g clip-path="url(#clip0_405_680)">
    <path d="M14 2.33331C20.4258 2.33331 25.6667 7.57426 25.6667 14C25.6667 20.4257 20.4257 25.6666 14 25.6666C7.57429 25.6666 2.33334 20.4257 2.33334 14C2.33334 7.57426 7.57429 2.33331 14 2.33331Z" fill="#33348E"></path>
    <path d="M14 2.76807C20.1864 2.76807 25.232 7.81367 25.232 14C25.232 20.1863 20.1864 25.2319 14 25.2319C7.81361 25.2319 2.76801 20.1863 2.76801 14C2.76801 7.81367 7.81361 2.76807 14 2.76807Z" fill="white"></path>
    <path d="M14 3.20251C19.947 3.20251 24.7973 8.05286 24.7973 14C24.7973 19.9471 19.9469 24.7972 14 24.7972C8.05311 24.7972 3.20276 19.9469 3.20276 14C3.20276 8.05305 8.05301 3.20251 14 3.20251Z" fill="#33348E"></path>
    <path d="M14 3.63727C19.7076 3.63727 24.3627 8.29236 24.3627 14C24.3627 19.7076 19.7076 24.3627 14 24.3627C8.29239 24.3627 3.6373 19.7076 3.6373 14C3.6373 8.29236 8.29239 3.63727 14 3.63727Z" fill="white"></path>
    <path d="M14 4.07202C19.4682 4.07202 23.928 8.53186 23.928 14C23.928 19.4681 19.4681 23.9279 14 23.9279C8.53189 23.9279 4.07205 19.4681 4.07205 14C4.07205 8.53186 8.5318 4.07202 14 4.07202Z" fill="#33348E"></path>
    <path d="M23.4933 14.0012C23.4932 19.2294 19.2286 23.4933 13.9999 23.4933C8.77121 23.4933 4.50662 19.2288 4.50662 14.0001C4.50662 8.77136 8.77112 4.50677 13.9999 4.50677C18.0858 4.50677 21.5828 7.11077 22.9166 10.7439H18.1296V8.52141C18.1296 6.53705 16.7244 5.2022 13.9999 5.2022C12.5572 5.20071 11.1366 5.55659 9.86508 6.2382L9.86451 21.7615C11.1362 22.4433 12.557 22.7994 13.9999 22.7979C16.6455 22.8109 18.1296 21.3729 18.1296 19.4057V15.5209H16.6009V14.0013H23.4934L23.4933 14.0012Z" fill="white"></path>
    <path d="M12.5604 20.683C12.7346 20.683 12.8481 20.6168 12.9018 20.4843C12.9554 20.3518 12.9822 20.1811 12.9822 19.9706V17.62C12.9822 17.1543 12.8509 16.9211 12.5882 16.9211C12.414 16.9211 12.305 16.9837 12.2602 17.109C12.2164 17.2342 12.1941 17.4049 12.1941 17.62V19.9706C12.1941 20.1875 12.2048 20.3309 12.2254 20.399C12.27 20.5887 12.3809 20.6831 12.5604 20.6831V20.683ZM11.3452 20.1965V17.5028C11.3452 17.157 11.3967 16.8729 11.499 16.6478C11.6014 16.4236 11.7441 16.2612 11.9273 16.1622C12.1103 16.0633 12.327 16.0134 12.5769 16.0134C12.7746 16.0134 12.9466 16.0362 13.0922 16.0824C13.2383 16.1287 13.3658 16.2105 13.4745 16.3293C13.5831 16.4473 13.6674 16.6116 13.7273 16.822C13.7871 17.0317 13.8178 17.2976 13.8199 17.619V19.9697C13.8199 20.3744 13.7712 20.6966 13.6744 20.9381C13.5775 21.1786 13.439 21.3501 13.2587 21.4518C13.0776 21.5534 12.8548 21.6043 12.5882 21.6043C12.3451 21.6043 12.13 21.5544 11.9433 21.4555C11.7568 21.3566 11.6105 21.2004 11.5039 20.9889C11.3981 20.7775 11.3452 20.5134 11.3452 20.1966V20.1965ZM15.2304 16.0162L13.9995 19.4749V20.3284H15.5769V21.459H16.3932V20.3284H16.7602V19.5121H16.3932V17.7279L15.5806 17.7214V19.5121L14.8945 19.5147L16.0191 16.0161H15.2305V16.0162H15.2304ZM11.3978 15.3337V12.381H12.5966C12.6409 12.9584 12.7858 13.4074 13.0296 13.7282C13.2735 14.049 13.5889 14.2085 13.976 14.2085C14.2693 14.2085 14.5047 14.1183 14.6802 13.938C14.8559 13.7578 14.9429 13.515 14.9429 13.2133C14.9429 12.9827 14.8831 12.7625 14.7655 12.5526C14.6479 12.3429 14.4586 12.1192 14.196 11.8799L12.5828 10.4235C12.1974 10.0802 11.9075 9.70233 11.7148 9.28971C11.5221 8.87531 11.425 8.42973 11.425 7.95121C11.425 7.30628 11.6177 6.77045 12.0046 6.34579C12.39 5.92103 12.8795 5.70953 13.4695 5.70953C13.7628 5.70953 14.0407 5.77365 14.3016 5.90199C14.5642 6.03032 14.8098 6.21932 15.0416 6.46731V5.88649H16.1739V8.4526H15.028C14.9614 8.0018 14.8166 7.64461 14.5915 7.38627C14.368 7.12615 14.097 6.99613 13.7815 6.99613C13.5342 6.99613 13.3211 7.08629 13.1456 7.26652C12.9699 7.44684 12.8829 7.66711 12.8829 7.92359C12.8829 8.11781 12.9393 8.31372 13.0501 8.50963C13.161 8.70721 13.3229 8.89976 13.5361 9.08867L15.2549 10.6611C15.6897 11.0495 16.0018 11.438 16.1911 11.828C16.3803 12.2199 16.4742 12.6603 16.4742 13.1526C16.4742 13.8478 16.2628 14.4147 15.8381 14.8552C15.4136 15.2955 14.8713 15.5158 14.2097 15.5158C13.8669 15.5158 13.5567 15.4413 13.2771 15.2922C12.9958 15.143 12.7348 14.9107 12.491 14.5951V15.3338H11.398L11.3978 15.3337Z" fill="white"></path>
  </g>
  <defs>
    <clipPath id="clip0_405_680">
      <rect width="23.3333" height="23.3333" fill="white" transform="translate(2.33334 2.33331)"></rect>
    </clipPath>
  </defs>
</svg>
