<?xml version="1.0" encoding="UTF-8"?>
<svg xmlns="http://www.w3.org/2000/svg" width="24" height="24" viewBox="0 0 24 24" fill="none">
  <g clip-path="url(#clip0_971_196264)">
    <path fill-rule="evenodd" clip-rule="evenodd" d="M16.0798 3.10164C15.0753 3.07114 14.0628 2.85691 13.0501 2.47027C12.6987 2.33343 12.3534 2.18119 12.0153 2.01403V2C12.0101 2 12.0052 2.00199 12.0014 2.00552C11.997 2.0029 11.9923 2.00109 11.9874 2V2.01385C11.623 2.19196 11.2614 2.35053 10.8969 2.48683C9.88984 2.86796 8.88567 3.07377 7.88694 3.10155C6.40707 3.14047 4.94086 2.78433 3.5 2V5.2604C3.73921 10.9659 5.28868 15.3613 7.88694 18.7107C8.77155 19.854 9.77861 20.875 10.8969 21.7847C11.2508 22.0725 11.6145 22.348 11.9874 22.6108V22.6302C11.9917 22.6269 11.9964 22.6241 12.0014 22.622C12.0056 22.6253 12.0103 22.6281 12.0153 22.6302V22.6108C12.3673 22.3587 12.7124 22.0971 13.0501 21.8264C14.174 20.9167 15.1894 19.8958 16.0798 18.7524C18.6945 15.3975 20.258 10.991 20.5 5.2604V2C19.0451 2.79012 17.5707 3.14617 16.0798 3.10164Z" fill="#E09337"></path>
    <path fill-rule="evenodd" clip-rule="evenodd" d="M4.05908 5.45512C5.36382 4.84022 6.63779 4.5287 7.88687 4.53703C8.91059 4.54535 9.91485 4.7651 10.8968 5.20741C11.1723 5.32986 11.4448 5.4716 11.7147 5.62754V8.09511C11.4226 8.12579 11.1472 8.21476 10.8968 8.34545C10.3039 8.66258 9.87846 9.22218 9.73121 9.87826H4.59597C4.3011 8.43994 4.12588 6.95726 4.05908 5.45512Z" fill="white"></path>
    <path fill-rule="evenodd" clip-rule="evenodd" d="M11.9624 8.48169H12.0015C12.3781 8.48884 12.7439 8.61012 13.0502 8.82942C13.5287 9.17162 13.8431 9.73077 13.8431 10.365C13.8431 10.9993 13.5288 11.5585 13.0502 11.9007C12.7432 12.1188 12.3779 12.2399 12.0015 12.2484H11.9624C11.5814 12.2492 11.2094 12.1326 10.8969 11.9145C10.4045 11.5751 10.0791 11.0076 10.0791 10.365C10.0791 9.72244 10.4045 9.15207 10.8969 8.81276C11.2103 8.59681 11.5819 8.48133 11.9624 8.48178V8.48169Z" fill="black"></path>
    <path fill-rule="evenodd" clip-rule="evenodd" d="M19.4012 9.87807H14.1908C14.0489 9.22434 13.6232 8.67081 13.0502 8.35919C12.8044 8.22398 12.5355 8.13618 12.2573 8.10043V5.65522C12.5084 5.47729 12.7736 5.31999 13.0502 5.18513C13.9151 4.75948 14.9474 4.50643 16.0798 4.50081C17.2731 4.49529 18.5778 4.7679 19.9047 5.41321C19.8352 6.91534 19.696 8.43983 19.4012 9.87807Z" fill="white"></path>
    <path fill-rule="evenodd" clip-rule="evenodd" d="M19.9575 5.00992C18.6417 4.37837 17.3369 4.10033 16.0796 4.11698C15.0279 4.13092 14.0126 4.35339 13.05 4.74573C12.6912 4.89317 12.3433 5.06558 12.0012 5.25754C11.9962 5.25963 11.9915 5.26243 11.9873 5.26587V5.277H11.9846C11.6257 5.07943 11.264 4.90701 10.8969 4.76229C9.90935 4.37013 8.89948 4.16975 7.88689 4.16423C6.60161 4.15871 5.3109 4.46742 4.04517 5.1045C4.01729 4.36669 4.01458 3.62816 4.03684 2.89017L4.05349 2.8985C5.33307 3.43257 6.61283 3.6831 7.8868 3.66083C8.89387 3.64137 9.89804 3.45212 10.8968 3.09336C11.2732 2.96022 11.6419 2.806 12.0011 2.63159C12.3427 2.79749 12.6928 2.94511 13.0499 3.0739C14.0346 3.42723 15.0555 3.63033 16.0795 3.66083C17.3898 3.70246 18.7084 3.45773 19.9602 2.89017C19.9796 3.59965 19.9796 4.30614 19.9575 5.01001V5.00992Z" fill="#CD3529"></path>
    <path fill-rule="evenodd" clip-rule="evenodd" d="M6.08442 10.4122H4.71289C5.03944 11.8486 5.49143 13.2396 6.08442 14.564V10.4122ZM8.6854 10.4122H7.38627V16.9942C7.38627 16.9942 7.38989 17.0394 7.88704 17.7449C8.14046 18.1036 8.40673 18.4529 8.68549 18.7923V10.4122H8.6854ZM11.3226 12.5519C11.1752 12.5089 11.0326 12.4509 10.897 12.379C10.518 12.1792 10.2026 11.8768 9.98724 11.5063V20.2149C10.2809 20.5034 10.5843 20.7819 10.897 21.0498C11.0365 21.1686 11.1788 21.2853 11.3226 21.401V12.5519ZM13.9571 11.4693C13.9574 11.4689 13.9576 11.4681 13.958 11.4677C13.7465 11.8474 13.4317 12.1595 13.0502 12.3678C12.9138 12.4415 12.7702 12.5014 12.6217 12.5462V21.4447C13.0858 21.0744 13.5315 20.6815 13.9572 20.2675V11.4693H13.9571ZM19.2869 10.4121H17.8571V14.6878C17.8116 14.7881 18.8327 12.6502 19.2869 10.4121ZM16.5579 10.4121H15.2562V18.8605C15.1063 19.0416 15.6855 18.3451 16.0798 17.7896C16.2447 17.5563 16.4041 17.3193 16.558 17.0786V10.4121H16.5579Z" fill="white"></path>
    <path fill-rule="evenodd" clip-rule="evenodd" d="M7.38641 10.4124V16.9943C6.89496 16.217 6.45989 15.4054 6.08447 14.5658V10.4124H7.38641ZM9.98738 11.5029V20.2156C9.52806 19.7656 9.09345 19.2912 8.68545 18.7942V10.4124H9.68138C9.68943 10.7959 9.79469 11.1712 9.98738 11.5029ZM12.6218 12.5462V21.4453C12.418 21.6086 12.2112 21.7681 12.0015 21.9237C11.7713 21.7554 11.545 21.582 11.3227 21.4035V12.5517C11.5258 12.6129 11.7428 12.6437 11.9626 12.6437C12.186 12.6442 12.4082 12.6113 12.6218 12.5463L12.6218 12.5462ZM15.2562 10.4124V18.8609C14.849 19.3533 14.4154 19.8232 13.9573 20.2685V11.4696C14.1378 11.146 14.2361 10.783 14.2435 10.4125H15.2562V10.4124ZM17.8572 10.4124V14.6881C17.482 15.5157 17.0479 16.3153 16.558 17.0806V10.4124H17.8572Z" fill="#CA2A2F"></path>
    <path fill-rule="evenodd" clip-rule="evenodd" d="M17.9921 8.06946C17.9921 8.07888 17.9921 8.08838 17.9918 8.09788C17.9811 9.02268 17.4882 9.56363 16.5662 9.66265H16.3129C16.009 9.65152 15.3754 9.56725 15.2867 9.42208C15.2747 9.40389 15.2734 9.38072 15.2831 9.36117C15.3413 9.2741 15.602 9.35836 15.7925 9.41982L15.8389 9.43457C15.9734 9.47765 16.1809 9.46543 16.3183 9.4572L16.3255 9.45684V8.59675L16.1396 8.58852L15.9587 8.5467C15.1608 8.32234 14.8784 7.80917 14.8784 7.39247C14.8784 7.38252 14.8787 7.37256 14.8789 7.3627C14.8956 6.84754 15.3161 6.4141 15.9262 6.28178L15.8702 6.23263C15.7699 6.14493 15.6751 6.0623 15.6193 5.93233C15.5629 5.80255 15.5347 5.67883 15.5347 5.56406C15.5347 5.4493 15.5638 5.33997 15.6223 5.24548C15.7509 5.03786 16.0116 4.9088 16.3378 4.8916H16.3383L16.5668 4.92509C16.6941 4.94391 17.1799 5.20321 17.2076 5.39771C17.2151 5.45193 17.1854 5.49501 17.1186 5.52551L17.1159 5.52678L17.1138 5.52442C16.9623 5.34902 16.6267 5.13389 16.3884 5.10583L16.2547 5.11416C16.0974 5.12176 15.9445 5.23716 15.8744 5.40097C15.8389 5.48116 15.823 5.55438 15.823 5.6219C15.823 5.88934 16.0708 6.06547 16.3171 6.21245V5.71494L17.4653 5.71666L17.4749 5.73023C17.493 5.75549 17.5046 5.77178 17.5046 5.79829C17.5046 5.81839 17.4979 5.84445 17.4825 5.88473L17.4813 5.88735H16.6704V6.23797C16.9008 6.23825 17.1459 6.2606 17.4006 6.30567L17.4489 6.34921L17.4656 6.40206C17.4161 6.53447 17.2309 6.48533 17.0818 6.44587L16.9692 6.41872L16.8128 6.4131L16.7135 6.39853L16.7486 6.4274C17.5154 6.81251 17.9918 7.22278 17.9918 8.06928L17.9921 8.06946ZM16.3256 8.39076V6.51013C16.0204 6.43555 15.7199 6.52995 15.5006 6.7697C15.33 6.9575 15.2347 7.2016 15.2328 7.45538C15.2328 7.55149 15.2475 7.64625 15.278 7.73513C15.392 8.06584 15.7045 8.29003 16.1582 8.36641C16.1581 8.3665 16.3167 8.38958 16.3257 8.39085L16.3256 8.39076ZM16.6621 7.52163C16.8226 7.57222 16.8751 7.56842 17.0439 7.52905C17.1415 7.50534 17.178 7.53394 17.1909 7.55321C17.209 7.58 17.2036 7.61874 17.1766 7.65675C17.1143 7.74445 16.9568 7.80772 16.7461 7.75133L16.654 7.72762V8.41619L16.7988 8.41239C17.0221 8.40334 17.3593 8.38958 17.4158 8.44687L17.4245 8.46778C17.4233 8.49846 17.4095 8.52724 17.3864 8.54752C17.2734 8.65187 16.9316 8.63802 16.748 8.63051L16.6623 8.6278V9.45548C17.5152 9.27293 17.726 8.69061 17.726 8.16024C17.726 8.08322 17.7214 8.00738 17.7138 7.93407C17.6534 7.37347 17.2702 6.9127 16.6621 6.66879V7.52163Z" fill="black"></path>
    <path fill-rule="evenodd" clip-rule="evenodd" d="M12.9374 9.75959C12.9351 9.75868 12.9331 9.75787 12.9335 9.75832C12.851 9.70293 12.774 9.68438 12.7043 9.70311C12.6155 9.72719 12.5347 9.81344 12.4633 9.95879C12.64 10.2204 12.7293 10.4864 12.7293 10.7532C12.7293 10.876 12.7104 10.999 12.6729 11.1219C12.5658 11.4779 12.3026 11.8417 11.8921 12.2034L11.9626 12.2055C12.2024 12.2055 12.4333 12.1601 12.6491 12.0708C13.046 11.552 13.2444 11.0717 13.2444 10.6342C13.2444 10.3198 13.1421 10.0278 12.9373 9.7595L12.9374 9.75959Z" fill="#936B3B"></path>
    <path fill-rule="evenodd" clip-rule="evenodd" d="M13.7852 10.4543C13.7852 10.337 13.7713 10.2202 13.7419 10.106C13.6903 9.90554 13.5912 9.72036 13.4532 9.56605C13.3567 9.49247 13.2709 9.46541 13.198 9.48586C13.1166 9.50867 13.0474 9.59194 12.9916 9.73258C13.1995 10.0095 13.3039 10.3099 13.3039 10.6321C13.3039 11.0585 13.1206 11.5233 12.7573 12.0224C13.3806 11.7219 13.7851 11.0828 13.7851 10.4543H13.7852Z" fill="#936B3B"></path>
    <path fill-rule="evenodd" clip-rule="evenodd" d="M12.0406 10.1634C12.13 9.98346 12.2551 9.90454 12.4133 9.92934C12.4911 9.76878 12.5822 9.67203 12.6848 9.64288C12.7642 9.62035 12.851 9.63899 12.9426 9.69574C13.0071 9.54079 13.0877 9.4482 13.1832 9.4225C13.2724 9.39843 13.3756 9.43128 13.4902 9.52025L13.4941 9.52414C13.6038 9.64506 13.6905 9.78489 13.7499 9.93685C13.7327 9.86064 13.7104 9.7857 13.6831 9.71248C13.6761 9.71176 13.6681 9.7085 13.6622 9.69637C13.5498 9.48757 13.384 9.32928 13.1826 9.23877C13.0379 9.17171 12.8793 9.14202 12.7114 9.15062C12.5489 9.15895 12.3904 9.2042 12.2481 9.28303C12.0279 9.40187 11.8552 9.58976 11.7496 9.82381C11.7443 9.86182 11.7417 9.89657 11.7417 9.92771C11.7417 9.99966 11.7556 10.0526 11.7835 10.0862C11.8281 10.1385 11.91 10.1629 12.0408 10.1633L12.0406 10.1634Z" fill="#936B3B"></path>
    <path fill-rule="evenodd" clip-rule="evenodd" d="M13.2069 9.18499C13.3311 9.2402 13.4453 9.32446 13.5436 9.42972C13.4248 9.23197 13.2708 9.05376 13.089 8.91239C12.744 8.6959 12.4212 8.63915 12.1297 8.74386C11.85 8.84234 11.586 9.08815 11.3454 9.47262C11.3316 9.50593 11.3241 9.54159 11.3232 9.5777C11.3232 9.6101 11.3308 9.63924 11.3462 9.66477C11.3918 9.74079 11.5084 9.79093 11.6918 9.81428L11.694 9.80722L11.6912 9.81419L11.6921 9.8046C11.8008 9.56159 11.9859 9.36076 12.2193 9.2326C12.3701 9.14906 12.538 9.10109 12.7102 9.09231C12.8857 9.08372 13.0577 9.11576 13.207 9.18508L13.2069 9.18499Z" fill="#936B3B"></path>
    <path fill-rule="evenodd" clip-rule="evenodd" d="M10.9463 9.2377C10.9819 9.35119 11.0998 9.41989 11.2966 9.44215C11.5413 9.04736 11.8148 8.79322 12.1094 8.68679C12.2878 8.62506 12.4704 8.62044 12.6628 8.66597C12.4379 8.57229 12.2034 8.52197 11.9624 8.52197C11.7983 8.52197 11.6307 8.54523 11.4643 8.59112L11.4685 8.58868C11.4685 8.58868 11.4535 8.597 11.4577 8.59592C11.1964 8.72389 11.0293 8.93387 10.9463 9.2377Z" fill="#936B3B"></path>
    <path fill-rule="evenodd" clip-rule="evenodd" d="M10.5713 9.56988C10.5713 9.69559 10.5938 9.81497 10.6388 9.92747C10.7479 10.1935 10.9784 10.4108 11.3237 10.5732C11.4264 10.6189 11.5126 10.6538 11.6003 10.6757C11.6826 10.6958 11.7675 10.7032 11.852 10.6978C11.852 10.6978 11.8857 10.6875 11.8836 10.689C11.9741 10.6072 12.0156 10.5493 12.031 10.4822C12.0382 10.4553 12.0414 10.4267 12.0414 10.3961C12.0414 10.3443 12.032 10.2863 12.0182 10.2211C11.8802 10.2171 11.7905 10.1872 11.7379 10.1262C11.6992 10.0784 11.6806 10.0133 11.6806 9.92385C11.6806 9.90847 11.6814 9.8919 11.6826 9.87489C11.4845 9.84891 11.3544 9.79198 11.2973 9.70492C11.2739 9.66871 11.2618 9.62636 11.2625 9.58319C11.2625 9.55703 11.2677 9.5287 11.2754 9.49947C11.0579 9.47259 10.9272 9.3876 10.8872 9.24379L10.8876 9.23021C10.9484 8.99743 11.0631 8.81442 11.2238 8.67993C11.0235 8.76953 10.8437 8.88782 10.6909 9.03526C10.6114 9.22378 10.5715 9.40244 10.5715 9.56997L10.5713 9.56988Z" fill="#936B3B"></path>
    <path fill-rule="evenodd" clip-rule="evenodd" d="M11.9284 11.1129C11.9379 11.086 11.9426 11.0567 11.9426 11.0239C11.9426 10.9912 11.9378 10.9549 11.9281 10.9151C11.9148 10.8594 11.8934 10.8058 11.8648 10.7561C11.7667 10.7634 11.6758 10.7561 11.5876 10.7333C11.485 10.7092 11.3884 10.668 11.2992 10.627C10.9442 10.4611 10.6971 10.2266 10.5849 9.94871C10.5362 9.82798 10.5115 9.69892 10.5122 9.56877C10.5122 9.43509 10.5376 9.29408 10.5859 9.14746C10.4023 9.35735 10.2654 9.6028 10.1919 9.86291C10.1931 9.86816 10.1945 9.87522 10.1945 9.87441C10.2587 10.3612 10.4289 10.7242 10.7002 10.9532C10.952 11.1667 11.3045 11.2718 11.7465 11.2654C11.7739 11.26 11.8002 11.25 11.8243 11.2359C11.8732 11.2085 11.9102 11.1648 11.9284 11.1129H11.9284Z" fill="#936B3B"></path>
    <path fill-rule="evenodd" clip-rule="evenodd" d="M10.6598 10.9981C10.4035 10.7805 10.2354 10.4488 10.1577 10.0144C10.1356 10.1341 10.1221 10.2519 10.1221 10.3649C10.1221 10.5361 10.1472 10.71 10.1968 10.8821C10.3312 11.2292 10.5033 11.4897 10.7082 11.6565C10.9278 11.831 11.1884 11.9006 11.483 11.8631C11.5339 11.8581 11.5835 11.8444 11.6296 11.8225C11.6829 11.7944 11.7218 11.7565 11.7451 11.7099C11.7648 11.6706 11.7746 11.6261 11.7746 11.5771C11.7746 11.562 11.7737 11.5469 11.772 11.5319C11.7636 11.4672 11.7409 11.3978 11.7056 11.3259C11.2621 11.3247 10.9199 11.2176 10.6598 10.9981Z" fill="#936B3B"></path>
    <path fill-rule="evenodd" clip-rule="evenodd" d="M11.4907 11.9212C11.2343 11.955 11.0032 11.909 10.8003 11.7884C11.0872 12.0232 11.4399 12.1678 11.8089 12.1991C12.2364 11.83 12.5078 11.4619 12.6151 11.1049C12.6516 10.9864 12.67 10.8679 12.67 10.7497C12.67 10.4932 12.5838 10.238 12.4128 9.98753C12.2716 9.96535 12.1633 10.0381 12.0832 10.2066L12.0782 10.216C12.0921 10.2825 12.1018 10.342 12.1018 10.3967C12.1018 10.4323 12.0979 10.4658 12.0885 10.4982C12.0696 10.5765 12.0204 10.6456 11.9209 10.7346C11.9495 10.7928 11.9715 10.8492 11.9855 10.9023C11.9958 10.9427 12.0011 10.9816 12.0011 11.0186C12.0011 11.059 11.9949 11.0973 11.9825 11.1332C11.9596 11.1991 11.9161 11.2514 11.8525 11.2889C11.8265 11.3019 11.7972 11.3119 11.7666 11.3201C11.7999 11.3941 11.8219 11.4637 11.83 11.5264C11.8327 11.545 11.834 11.5634 11.834 11.5816C11.834 11.6361 11.8221 11.6886 11.7983 11.7385C11.7666 11.7967 11.7176 11.8437 11.658 11.873C11.606 11.9 11.5491 11.9165 11.4907 11.9212Z" fill="#936B3B"></path>
    <path fill-rule="evenodd" clip-rule="evenodd" d="M10.7022 7.89186C10.6549 7.72777 10.5742 7.56921 10.4628 7.40774C10.474 7.35489 10.4712 7.30764 10.4684 7.25479C10.4684 7.23252 10.4656 7.21026 10.4656 7.18519V7.14355C10.4684 7.09903 10.4684 7.05739 10.4573 7.01838C10.5936 6.7847 10.6325 6.57608 10.5992 6.29506C10.5576 6.32004 10.5185 6.3452 10.4879 6.38402C10.4796 6.3395 10.4741 6.29506 10.4657 6.24772C10.4629 6.23107 10.4407 6.22546 10.4296 6.2394C10.3935 6.28392 10.3573 6.32565 10.3183 6.37018C10.207 6.49815 10.1041 6.63174 10.1124 6.818V6.85131L10.1013 6.86796C9.99283 7.00707 9.9455 7.16012 9.89536 7.31579C9.8787 7.37145 9.86205 7.42711 9.8425 7.48268V6.32547L9.83698 6.31995C9.8092 6.29497 9.78693 6.27542 9.76747 6.25596C9.70629 6.2031 9.65615 6.17803 9.65334 6.04444C9.65063 5.98326 9.69235 5.94434 9.71733 5.92769C9.73679 5.91104 9.76467 5.91384 9.8063 5.93882C9.81182 5.96109 9.81743 5.97783 9.81463 5.99177C9.8091 6.06128 9.74231 6.07802 9.85363 6.15866C9.88712 6.18084 9.92595 6.17812 9.97057 6.11703C9.99102 6.08943 10.0036 6.05666 10.0067 6.02245C10.012 5.97014 10.0033 5.91728 9.9817 5.8694C9.95989 5.81963 9.92649 5.77573 9.88432 5.74143C9.85653 5.72197 9.82313 5.70532 9.78702 5.7026H9.78141C9.68131 5.71364 9.61452 5.74423 9.56999 5.79157C9.52265 5.8389 9.50039 5.90289 9.48373 5.98353C9.4698 6.06698 9.48654 6.14491 9.52537 6.21994C9.55885 6.28954 9.61162 6.35633 9.67 6.41199V8.23407C9.66728 8.23678 9.66167 8.23678 9.65886 8.23959C9.6004 8.2786 9.59768 8.40096 9.55876 8.46766C9.51143 8.54278 9.40852 8.55672 9.34734 8.6151C9.26046 8.69456 9.14841 8.8677 9.14977 8.86263V4.65653C9.07121 4.64214 8.99238 4.6292 8.91336 4.61752V4.70088H8.73796C8.70728 4.55073 8.46807 4.55905 8.43748 4.66476H8.32073C8.24561 4.49787 8.04812 4.53679 7.99255 4.66476H7.8424C7.77009 4.52014 7.58084 4.53118 7.51142 4.66476H7.38625C7.38073 4.57019 7.2666 4.55896 7.18596 4.59245C7.1303 4.61743 7.09138 4.65915 7.10251 4.7092H6.94123V4.59245C6.8605 4.60078 6.77985 4.61191 6.69921 4.62313V5.88054C6.58246 5.57734 6.4906 5.26582 6.41267 4.95131C6.40996 4.92913 6.37104 4.94018 6.37366 4.95963L6.69903 6.45625V9.44957H9.01346C9.01401 9.43653 9.01346 9.47726 9.01346 9.51075C9.01346 9.56361 9.18588 9.55528 9.20823 9.55238C9.22443 9.55039 9.24036 9.54858 9.25557 9.5475L9.24996 9.87793H9.73127C9.74104 9.84155 9.74874 9.80716 9.75788 9.77132L9.75625 9.77494C9.75734 9.77086 9.75887 9.76697 9.75987 9.76281L9.75779 9.77114C9.75969 9.76706 9.76087 9.76272 9.76123 9.75819C9.86531 9.38929 10.0577 9.05297 10.3181 8.78453C10.4501 8.64696 10.5986 8.5264 10.7604 8.42567C10.769 8.22836 10.7524 8.05595 10.7023 7.89177L10.7022 7.89186ZM8.93843 7.88906C8.90513 7.84742 8.50445 7.3633 8.34037 7.1603C8.54627 7.02952 8.71868 6.87928 8.83562 6.66785C8.85227 6.63717 8.86892 6.60386 8.88295 6.56757C8.90513 6.56205 8.92196 6.55372 8.93861 6.53979V7.88897H8.93852L8.93843 7.88906ZM8.93843 6.26447C8.90893 6.24202 8.87263 6.23025 8.83562 6.23116C8.77163 6.23116 8.71597 6.26447 8.68538 6.31461L8.53794 6.38411C8.5212 6.32293 8.49061 6.26166 8.45169 6.19767C8.40888 6.13423 8.35838 6.07639 8.30145 6.02526C8.35992 5.92787 8.36544 5.83049 8.33756 5.72758C8.30706 5.62748 8.24018 5.52168 8.15664 5.40755C8.17058 5.38538 8.18162 5.36302 8.19013 5.33804C8.19845 5.31026 8.20117 5.27686 8.19293 5.23224C8.18732 5.19341 8.15392 5.14888 8.11501 5.09874C8.05934 5.02643 7.98984 4.93737 7.97038 4.82885C7.96766 4.80939 7.93707 4.80939 7.93137 4.82605C7.92675 4.85519 7.91734 4.88343 7.90358 4.90949C7.87308 4.97068 7.83127 5.01792 7.79226 5.06245C7.7394 5.12092 7.69768 5.17088 7.69216 5.22934C7.68935 5.26003 7.69497 5.29333 7.7061 5.32673C7.71442 5.35451 7.72556 5.37967 7.7394 5.40737C7.72827 5.42158 7.71804 5.43642 7.70872 5.4519C7.59197 5.62151 7.46951 5.80243 7.58355 6.02499C7.5335 6.06951 7.48617 6.12237 7.44173 6.18075C7.39467 6.24166 7.35186 6.30583 7.31375 6.37271L7.19962 6.31153C7.1941 6.3032 7.1913 6.29768 7.18578 6.28935C7.15084 6.24953 7.09952 6.22799 7.04667 6.23089C6.9882 6.2336 6.92702 6.26419 6.89923 6.32547V4.81501C6.94937 4.85112 7.00214 4.87347 7.04667 4.86786C7.07237 4.86551 7.09617 4.85365 7.11346 4.83455C7.13564 4.86234 7.15799 4.88741 7.18578 4.91248C7.22741 4.95411 7.27474 4.99032 7.32488 5.02923C7.361 4.86786 7.37774 4.78441 7.46399 4.77048C7.55296 4.75663 7.64211 4.89293 7.69487 4.99303C7.74773 4.86506 7.80602 4.77048 7.87299 4.71201H7.97861C8.06206 4.78161 8.1122 4.88171 8.13437 4.99855C8.20949 4.86777 8.27068 4.74269 8.37358 4.75373C8.47386 4.76486 8.50156 4.90117 8.51269 5.02923C8.57387 4.95131 8.64067 4.87899 8.71307 4.81501C8.76041 4.85112 8.79652 4.86786 8.83553 4.86786C8.86883 4.86786 8.89952 4.85121 8.93834 4.82333V6.26437H8.93825L8.93843 6.26447Z" fill="black"></path>
    <path fill-rule="evenodd" clip-rule="evenodd" d="M8.29623 7.16873C8.47462 7.38884 8.65454 7.60769 8.83592 7.82527C8.8637 7.85857 8.89158 7.89197 8.91936 7.92808V8.27309L8.83592 8.21463L7.95131 7.62208C7.94416 7.61936 7.93619 7.61936 7.92904 7.62208L6.88867 8.34541V7.33002L7.01945 7.93921C7.02217 7.95035 7.03611 7.95587 7.04724 7.95315C7.04995 7.95315 7.05557 7.95035 7.05557 7.94483C7.09738 7.88364 7.13901 7.82237 7.18635 7.76128C7.30048 7.60271 7.43669 7.44704 7.58982 7.29119V7.28847C7.59254 7.28847 7.59254 7.28567 7.59254 7.28567C7.59571 7.27734 7.59471 7.26811 7.58982 7.26069C7.46456 7.15778 7.35333 7.03813 7.25314 6.91016H8.59951C8.51326 6.99641 8.41325 7.07153 8.30184 7.14104C8.29071 7.14647 8.29071 7.16041 8.29623 7.16873Z" fill="#936B3B"></path>
    <path fill-rule="evenodd" clip-rule="evenodd" d="M6.54892 5.57202C6.63789 5.85304 6.74649 6.12827 6.8799 6.39264V6.39536C6.8771 6.45383 6.91058 6.52333 6.96615 6.55393C6.99385 6.59845 7.01901 6.64289 7.04679 6.68471C7.09132 6.75422 7.13576 6.82101 7.1859 6.8878C7.29152 7.02963 7.40846 7.16321 7.54757 7.27725C7.54205 7.27997 7.2546 7.59059 7.0496 7.88365L7.04688 7.87532L6.54883 5.57202H6.54892Z" fill="white"></path>
    <path fill-rule="evenodd" clip-rule="evenodd" d="M8.93875 8.60412H6.86914V8.40383C6.88027 8.40111 7.93187 7.66665 7.94019 7.66113C8.01812 7.70829 8.93341 8.32599 8.93893 8.3288V8.60403H8.93884L8.93875 8.60412Z" fill="#936B3B"></path>
    <path fill-rule="evenodd" clip-rule="evenodd" d="M8.83589 6.53732C8.7719 6.53451 8.71072 6.49569 8.7023 6.42319V6.41206C8.69407 6.32028 8.76638 6.27295 8.83589 6.27295C8.9054 6.27295 8.96667 6.31458 8.96667 6.40373C8.96667 6.49288 8.89988 6.53732 8.83589 6.53732Z" fill="black"></path>
    <path fill-rule="evenodd" clip-rule="evenodd" d="M8.83566 6.57613C8.74036 6.57667 8.66271 6.49983 8.66216 6.40453C8.66216 6.39213 8.66334 6.37964 8.66596 6.36751L8.53238 6.4287C8.52921 6.43078 8.52514 6.43096 8.52124 6.43014V6.60129C8.52124 6.60962 8.51011 6.62075 8.50179 6.62075H8.25145C8.24312 6.62075 8.23199 6.60962 8.23199 6.60129V6.48164H7.64505V6.60129C7.64505 6.60962 7.63392 6.62075 7.62559 6.62075H7.37525C7.36693 6.62075 7.35579 6.60962 7.35579 6.60129V6.38037C7.35027 6.39014 7.34466 6.39946 7.33914 6.40933C7.33362 6.41765 7.31968 6.42327 7.31136 6.41765L7.2223 6.3705C7.23343 6.42336 7.21958 6.47612 7.18618 6.51513C7.15107 6.55495 7.1002 6.57731 7.04708 6.57631H7.03314V6.57351H7.0249C7.03323 6.58464 7.03884 6.59849 7.04717 6.60962C7.0917 6.68193 7.13613 6.75153 7.18628 6.82104C7.19741 6.83769 7.20845 6.85435 7.22239 6.87109H8.63836C8.71764 6.78457 8.78408 6.68718 8.83594 6.58183C8.83594 6.58002 8.83687 6.57818 8.83874 6.57631H8.83594V6.57622L8.83566 6.57613ZM7.73954 5.47458C7.63283 5.63595 7.5159 5.80547 7.62324 6.00974L7.6255 6.00866C7.63383 6.00866 7.64496 6.01698 7.64496 6.02811V6.25348H8.24022V6.02811C8.24022 6.01626 8.2528 6.00847 8.26565 6.00685C8.31815 5.92096 8.32539 5.83244 8.2986 5.73877C8.27081 5.63848 8.20411 5.53567 8.11786 5.42172C8.11234 5.41611 8.11234 5.40498 8.11505 5.39946C8.1318 5.37167 8.14573 5.35212 8.15116 5.32714C8.15949 5.30497 8.15949 5.27709 8.15397 5.23817C8.15116 5.21039 8.12066 5.16867 8.08166 5.12124C8.03713 5.06277 7.98156 4.99046 7.95087 4.9043C7.9373 4.93335 7.92155 4.96123 7.90354 4.98774C7.87856 5.02675 7.84788 5.05725 7.82018 5.09056C7.77565 5.1407 7.73674 5.18514 7.73112 5.23238C7.72841 5.26017 7.73393 5.28533 7.74226 5.31311C7.7533 5.3409 7.76443 5.37158 7.77837 5.40208C7.78117 5.40489 7.78117 5.41602 7.77837 5.42172C7.76452 5.43828 7.75339 5.45503 7.73936 5.47458H7.73954Z" fill="#936B3B"></path>
    <path fill-rule="evenodd" clip-rule="evenodd" d="M8.08722 5.49412C8.05111 5.43565 7.99826 5.40234 7.93979 5.40234C7.88132 5.40234 7.82847 5.43583 7.79235 5.49412C7.75624 5.54697 7.73389 5.62209 7.73389 5.70282C7.73389 5.78356 7.75615 5.85859 7.79235 5.91425C7.82856 5.96991 7.88141 6.00602 7.93979 6.00602C7.99817 6.00602 8.05111 5.96973 8.08722 5.91425C8.12352 5.85859 8.14569 5.78347 8.14569 5.70282C8.14569 5.62218 8.12352 5.54697 8.08722 5.49412Z" fill="black"></path>
    <path fill-rule="evenodd" clip-rule="evenodd" d="M8.05411 5.89188C8.02361 5.93641 7.9846 5.9642 7.93998 5.9642C7.89536 5.9642 7.85663 5.93641 7.82603 5.89188C7.79255 5.84455 7.77309 5.77776 7.77309 5.70282C7.77309 5.62788 7.79255 5.56362 7.82603 5.51637C7.85672 5.46904 7.89554 5.44116 7.93998 5.44116C7.98442 5.44116 8.02343 5.46895 8.05411 5.51637C8.08479 5.56353 8.10425 5.6305 8.10425 5.70282C8.10425 5.77513 8.08479 5.84446 8.05411 5.89188ZM7.05266 6.2702C6.98034 6.2702 6.92188 6.32867 6.92188 6.4037C6.92188 6.47873 6.98034 6.53729 7.05266 6.53729C7.12497 6.53729 7.18624 6.47601 7.18624 6.4037C7.18624 6.33138 7.12778 6.2702 7.05266 6.2702ZM8.83581 6.2702C8.76069 6.2702 8.70223 6.32867 8.70223 6.4037C8.70223 6.47873 8.76069 6.53729 8.83581 6.53729C8.91093 6.53729 8.9666 6.47601 8.9666 6.4037C8.9666 6.33138 8.90813 6.2702 8.83581 6.2702Z" fill="white"></path>
    <path fill-rule="evenodd" clip-rule="evenodd" d="M10.3185 6.857C10.2666 6.83166 10.2091 6.82007 10.1516 6.82351V6.81799C10.146 6.66223 10.2239 6.54249 10.3185 6.43135C10.3575 6.38401 10.3963 6.34238 10.4326 6.29785C10.4576 6.47579 10.5327 6.79582 10.4381 6.97384C10.4094 6.92488 10.3681 6.88451 10.3185 6.85691V6.857ZM9.05273 9.4997L9.09174 9.51363C9.11672 9.52477 9.16125 9.51916 9.20587 9.51363C9.25601 9.50811 9.30597 9.4997 9.33946 9.51644C9.38399 9.54142 9.41458 9.56378 9.43675 9.58323C9.48409 9.61935 9.51187 9.6389 9.62582 9.61935C9.63143 9.61935 9.63976 9.62206 9.64528 9.62767C9.67026 9.66378 9.68429 9.68333 9.69814 9.69447C9.70927 9.7056 9.72592 9.71393 9.75099 9.72795C9.82611 9.46087 9.95137 9.21605 10.1127 8.9963C10.2799 8.77193 10.4863 8.5797 10.7219 8.42882C10.7302 8.23406 10.7135 8.06436 10.6662 7.90307C10.6217 7.75283 10.5521 7.61372 10.4548 7.46629C10.427 7.64151 10.3881 7.78342 10.3045 7.89475C10.2156 8.01702 10.0765 8.10617 9.85109 8.16735C9.84829 8.16735 9.84557 8.16735 9.84276 8.17007V8.57907C9.84222 8.58413 9.84032 8.58884 9.83724 8.59291C9.81507 8.61789 9.79561 8.64857 9.77326 8.68749C9.75099 8.72912 9.72873 8.77646 9.70646 8.83493C9.70094 8.85158 9.67035 8.84606 9.67035 8.8266V8.28121H9.66763C9.66211 8.30067 9.6565 8.3175 9.65098 8.33687C9.63704 8.38982 9.6203 8.43978 9.59251 8.48711C9.55921 8.53997 9.50907 8.56504 9.45893 8.59273C9.42825 8.60948 9.39774 8.62341 9.37276 8.64559C9.25547 8.75085 9.16813 8.88516 9.11953 9.03504C9.07219 9.17695 9.05273 9.33271 9.05273 9.49961V9.4997Z" fill="#936B3B"></path>
    <path fill-rule="evenodd" clip-rule="evenodd" d="M10.1318 7.06861C10.1179 7.06581 10.1068 7.07133 10.0957 7.08246C10.0818 7.09359 10.0734 7.11314 10.0707 7.1326C10.068 7.15478 10.0707 7.17423 10.079 7.18826C10.0874 7.20229 10.0985 7.21342 10.1097 7.21342C10.1236 7.21614 10.1347 7.21062 10.1458 7.19949C10.1598 7.18835 10.1681 7.1688 10.1708 7.14935C10.1736 7.12717 10.1708 7.10771 10.1625 7.09368C10.1573 7.08056 10.1457 7.07106 10.1318 7.0687V7.06861ZM9.80083 6.34257C9.77865 6.3204 9.75919 6.30356 9.74236 6.28691C9.67285 6.22573 9.63945 6.19514 9.61158 6.0477L9.61429 6.03937C9.63656 5.96978 9.65882 5.91973 9.69222 5.89475C9.77286 5.83356 9.86183 5.90588 9.8535 5.99503C9.8535 6.01449 9.84517 6.03114 9.83404 6.05621C9.84517 6.08399 9.85902 6.11187 9.87857 6.12572C9.89251 6.13685 9.91206 6.13133 9.93975 6.09504C9.95369 6.07286 9.96473 6.04788 9.96754 6.01992C9.97243 5.97331 9.96482 5.92624 9.94536 5.88361C9.92591 5.84198 9.89803 5.80017 9.86192 5.77519C9.83694 5.75853 9.81178 5.7445 9.78408 5.7417C9.69502 5.75283 9.63665 5.77799 9.59764 5.81963C9.55863 5.85863 9.53646 5.91692 9.52252 5.99204C9.50858 6.06435 9.52523 6.13667 9.55863 6.20346C9.59692 6.2727 9.6457 6.33551 9.70326 6.38973L9.70878 6.39805V8.72923C9.71711 8.70705 9.72824 8.68759 9.73657 8.67085C9.75874 8.63184 9.7811 8.59853 9.80055 8.57346V6.34257H9.80083Z" fill="white"></path>
    <path fill-rule="evenodd" clip-rule="evenodd" d="M6.67131 9.39702C6.65465 9.29411 6.6352 9.19112 6.62126 9.08549C6.60732 8.9463 6.60162 8.80447 6.5961 8.66256C6.59058 8.55413 6.58777 8.44552 6.57664 8.33701C6.576 8.33194 6.5741 8.32714 6.57112 8.32307C6.535 8.28696 6.50152 8.25075 6.46531 8.21175C6.37906 8.11436 6.29009 8.01698 6.18158 7.95588V6.41203C6.23724 6.35636 6.29018 6.28957 6.32621 6.21997C6.3625 6.14485 6.38187 6.06702 6.36521 5.98357C6.35128 5.90284 6.32621 5.83894 6.28177 5.7916C6.24013 5.74997 6.18438 5.722 6.10655 5.70816C6.09379 5.70481 6.08075 5.70291 6.06754 5.70264H6.0593C6.02518 5.70798 5.99278 5.72128 5.96481 5.74146C5.9592 5.74708 5.95088 5.7526 5.94517 5.76092C5.91187 5.78871 5.88671 5.82772 5.86734 5.86935C5.8477 5.91949 5.83666 5.97226 5.84236 6.0224C5.84788 6.05851 5.85901 6.08919 5.87847 6.11698C5.90345 6.15028 5.92581 6.16431 5.94526 6.16983C5.9649 6.17264 5.98138 6.16983 5.99541 6.15879C6.02319 6.13652 6.04274 6.09761 6.05659 6.0614V6.04466C6.04274 6.01968 6.03713 6.00583 6.03441 5.9918C6.03441 5.97787 6.03722 5.96112 6.04555 5.93886C6.05116 5.93614 6.05387 5.93334 6.05948 5.93053C6.05948 5.93053 6.06229 5.93053 6.06229 5.92782H6.065C6.07786 5.92094 6.09207 5.91714 6.10664 5.91668C6.11777 5.91668 6.1261 5.91949 6.13442 5.92782C6.1594 5.94456 6.17895 5.98628 6.19841 6.04457C6.17624 6.15589 6.15108 6.192 6.10664 6.23382C6.09831 6.24215 6.08998 6.25047 6.08166 6.25608C6.07614 6.2616 6.07053 6.26722 6.06491 6.27002C6.06491 6.27274 6.0622 6.27274 6.0622 6.27554C6.0622 6.27554 6.05939 6.27554 6.05939 6.27835C6.04383 6.29147 6.02898 6.30532 6.01486 6.31998C6.01188 6.32405 6.00998 6.32885 6.00934 6.33383V7.39655H5.94536V7.38542C5.93422 7.30478 5.91178 7.22613 5.87856 7.15182C5.83077 7.04412 5.76498 6.94529 5.68397 6.85976L5.67284 6.81813C5.67284 6.78745 5.67284 6.75966 5.67003 6.72907C5.66732 6.66789 5.66732 6.60942 5.66171 6.55095C5.65058 6.45637 5.63392 6.36451 5.58939 6.27274L5.54459 6.17825C5.53907 6.16431 5.51681 6.16431 5.51129 6.17825L5.49463 6.20323C5.4835 6.22269 5.47237 6.24224 5.45852 6.2616L5.43354 6.30324C5.4282 6.28885 5.42169 6.27491 5.41408 6.2616C5.40295 6.23662 5.39191 6.21155 5.37797 6.18648C5.37245 6.17535 5.35851 6.17264 5.35018 6.17816C5.23606 6.2588 5.18329 6.39791 5.16926 6.55086C5.1498 6.74563 5.19144 6.96538 5.24999 7.10449C5.24438 7.16567 5.21651 7.18794 5.1832 7.21581C5.15822 7.23527 5.13025 7.25745 5.10527 7.29655C5.07749 7.34107 5.06627 7.39384 5.05794 7.44398L5.04961 7.47729V7.48281C5.05513 7.53295 5.07188 7.57177 5.09695 7.60807C5.11912 7.63576 5.14428 7.66092 5.17487 7.68319L5.13034 7.78329C5.10799 7.85253 5.08392 7.92113 5.05803 7.9891C4.99965 8.15599 4.94128 8.32008 4.9106 8.4982C4.85493 8.82357 4.83548 9.15473 4.82715 9.48571C4.82715 9.48571 4.82995 9.49685 4.83276 9.49685L4.86326 9.53585L4.86607 9.53857C4.92173 9.5802 4.94399 9.5802 4.91621 9.56925L4.87991 9.87797H6.56007C6.56007 9.87525 6.56007 9.87245 6.55736 9.87245L6.48224 9.6889L6.69927 9.70836C6.71041 9.70836 6.72154 9.69723 6.71873 9.68619C6.70697 9.58916 6.69113 9.49268 6.67131 9.39693V9.39702Z" fill="black"></path>
    <path fill-rule="evenodd" clip-rule="evenodd" d="M6.0485 7.41625V6.34257C6.05131 6.33977 6.05403 6.33696 6.05964 6.33424V6.33153L6.06244 6.32881L6.06516 6.32601C6.0819 6.31207 6.09584 6.29822 6.10679 6.2899C6.10679 6.28803 6.10773 6.28709 6.1096 6.28709C6.17911 6.22591 6.21241 6.19532 6.23757 6.04788V6.03956C6.2154 5.96996 6.19042 5.91991 6.15974 5.89493C6.14426 5.88407 6.12571 5.87818 6.10679 5.87827C6.09294 5.87827 6.08181 5.87827 6.06516 5.88379L6.06244 5.88651H6.05964C6.04516 5.89284 6.03122 5.90036 6.018 5.90877C6.0152 5.91149 6.00968 5.9171 6.00968 5.91991C5.99854 5.95339 5.99293 5.97276 5.99574 5.99503C5.99845 6.01449 6.00407 6.03114 6.01791 6.05621C6.00407 6.08399 5.99013 6.11187 5.97338 6.12572C5.96515 6.13133 5.95673 6.13133 5.9456 6.12572C5.93447 6.123 5.92342 6.11187 5.91229 6.09504C5.89618 6.07313 5.8865 6.04707 5.88451 6.01992C5.87899 5.97539 5.88731 5.92814 5.90397 5.88361C5.9151 5.86135 5.92895 5.83908 5.9456 5.81682C5.95954 5.80017 5.97338 5.78632 5.99013 5.77519C6.00959 5.75853 6.03466 5.7474 6.05964 5.7445V5.7417H6.06787C6.08181 5.7445 6.09303 5.7445 6.10688 5.74731C6.17367 5.76116 6.22101 5.78632 6.25432 5.81963C6.29332 5.85863 6.31278 5.91692 6.32663 5.99204C6.34057 6.06435 6.32392 6.13667 6.29052 6.20346C6.25712 6.27026 6.20427 6.33415 6.1486 6.38972C6.14517 6.39461 6.14326 6.4004 6.14308 6.40638V7.93358C6.12915 7.92806 6.1181 7.92526 6.10697 7.91974H6.10426V7.91702H6.09593V7.91421H6.09041C6.0876 7.9115 6.08208 7.9115 6.07656 7.90869C6.07376 7.90869 6.07095 7.90589 6.06814 7.90589H6.05439V7.90869H6.04887V7.41625H6.04878H6.0485ZM5.66168 7.07975C5.66964 7.08228 5.67716 7.08599 5.68394 7.09088C5.69779 7.0992 5.70892 7.11586 5.71445 7.13541C5.71997 7.15496 5.71725 7.17442 5.71164 7.19107C5.70331 7.20501 5.69218 7.21605 5.67833 7.21885C5.67281 7.22166 5.6672 7.22166 5.66159 7.22166C5.65326 7.21885 5.64494 7.21614 5.63661 7.21053C5.62113 7.1993 5.61109 7.1822 5.60882 7.16319C5.6033 7.14373 5.6033 7.12418 5.61163 7.11034C5.61724 7.0964 5.62828 7.08527 5.64231 7.07966H5.66177L5.66168 7.07975Z" fill="white"></path>
    <path fill-rule="evenodd" clip-rule="evenodd" d="M5.49179 6.28406C5.49366 6.28219 5.49459 6.28035 5.49459 6.27854C5.50564 6.26179 5.51405 6.24785 5.5251 6.2312L5.55288 6.28967C5.61958 6.43149 5.6252 6.57902 5.63081 6.73197L5.63633 6.82936C5.58067 6.80718 5.53342 6.82375 5.4945 6.85434C5.46102 6.88212 5.43052 6.92113 5.40825 6.95462C5.40644 6.95643 5.40554 6.95827 5.40554 6.96014C5.40273 6.96014 5.40273 6.96286 5.40273 6.96286L5.39993 6.96566L5.3944 6.97118C5.30815 6.65405 5.36662 6.49258 5.4917 6.28397L5.49179 6.28406ZM5.6614 9.60003C5.60574 9.59451 4.93536 9.53885 4.89092 9.50826L4.86865 9.47758C4.87698 9.15492 4.89644 8.82665 4.94938 8.50671C4.98007 8.33149 5.03835 8.16731 5.09682 8.00314C5.11899 7.93643 5.14415 7.86964 5.16642 7.79732L5.20805 7.70275H5.21348C5.21348 7.70275 5.21629 7.70275 5.21629 7.69994H5.21909C5.27475 7.66645 5.29973 7.64428 5.31639 7.63043C5.32752 7.6221 5.33313 7.61649 5.34137 7.61369C5.37205 7.60536 5.43875 7.61649 5.49441 7.62762C5.5222 7.63315 5.54446 7.63876 5.56121 7.64156C5.59451 7.6527 5.62791 7.66102 5.66131 7.66654C5.74475 7.68329 5.83101 7.67487 5.8978 7.61088C5.92278 7.58871 5.93681 7.56074 5.94514 7.53305C5.95346 7.50236 5.95346 7.46897 5.95066 7.43566H6.00912V7.92249C5.98686 7.93354 5.96459 7.94195 5.94514 7.95318C5.84069 8.00703 5.74503 8.07636 5.6614 8.15899C5.59931 8.2161 5.54347 8.27945 5.49459 8.34824C5.31105 8.59577 5.18588 8.90449 5.0884 9.21891C5.0884 9.22452 5.0884 9.22724 5.08569 9.23285C5.08569 9.23565 5.08297 9.24117 5.08297 9.24398V9.24669C5.08017 9.24941 5.08017 9.25502 5.08017 9.25783C5.07736 9.26335 5.07736 9.26615 5.07736 9.27176C5.07464 9.28009 5.08297 9.29394 5.0913 9.29394C5.11094 9.29674 5.13031 9.29946 5.15248 9.30226C5.2638 9.31892 5.36671 9.33557 5.48346 9.34127C5.48763 9.34064 5.49152 9.33865 5.49459 9.33575C5.49731 9.33575 5.50012 9.33295 5.50012 9.33295C5.55858 9.25511 5.61144 9.17166 5.6614 9.0855V9.20515C5.6642 9.33874 5.66972 9.46934 5.67534 9.60012H5.66113L5.6614 9.60003Z" fill="#936B3B"></path>
    <path fill-rule="evenodd" clip-rule="evenodd" d="M6.45451 9.64462C6.44057 9.64462 6.42935 9.65856 6.43487 9.67241L6.50999 9.85885H6.38753L6.46265 9.12439C6.46265 9.11607 6.46546 9.10493 6.446 9.10493C6.42654 9.10213 6.42383 9.11045 6.42383 9.12159L6.34871 9.85596V9.85876H6.24589L6.32101 9.26341C6.32101 9.25508 6.32373 9.24395 6.30427 9.24395C6.28481 9.24115 6.28209 9.24947 6.28209 9.2606L6.20697 9.85867H5.72285C5.72285 9.78074 5.72014 9.70291 5.71733 9.62498V9.62218C5.71172 9.48307 5.7034 9.34677 5.70059 9.20766V9.09923L5.76738 8.90446C5.77019 8.90175 5.77019 8.89894 5.7729 8.89614V8.8907H5.77562V8.88518H5.77843V8.87975H5.78123V8.87143H5.78395L5.94532 8.61557L5.98433 8.55158C5.98704 8.54877 5.98704 8.54606 5.98704 8.54316C5.99537 8.49311 5.9731 8.50705 5.94541 8.53483C5.91744 8.56651 5.89138 8.6 5.86757 8.63493C5.86757 8.63493 5.86757 8.63774 5.86477 8.63774C5.86477 8.63955 5.86383 8.64139 5.86196 8.64326C5.86196 8.64326 5.86196 8.64598 5.85916 8.64598C5.85916 8.64785 5.85825 8.64972 5.85644 8.65159C5.85644 8.65159 5.85644 8.6543 5.85373 8.6543C5.85373 8.65702 5.85373 8.65982 5.85092 8.65982C5.85092 8.66169 5.84999 8.66353 5.84811 8.66534L5.8454 8.66815C5.8454 8.67096 5.84268 8.67367 5.84268 8.67367C5.84268 8.67648 5.83988 8.67648 5.83988 8.67919C5.83988 8.67919 5.83716 8.682 5.83716 8.68471C5.83436 8.68471 5.83436 8.68752 5.83436 8.68752C5.83155 8.69023 5.83155 8.69304 5.83155 8.69304C5.82974 8.69485 5.82884 8.69669 5.82884 8.69856L5.82332 8.70408C5.82332 8.70589 5.82238 8.70773 5.82051 8.7096C5.79273 8.75965 5.77046 8.81803 5.73987 8.86817L5.73706 8.87088C5.73154 8.88763 5.72313 8.89867 5.71489 8.91541V8.91822H5.71208C5.69543 8.9489 5.67878 8.97669 5.66194 9.00447C5.60909 9.09624 5.55632 9.18802 5.49514 9.27436C5.48953 9.28332 5.48301 9.29174 5.47568 9.29934C5.36001 9.29328 5.2448 9.28024 5.13067 9.26033H5.12243V9.25753H5.11963C5.20869 8.95994 5.32001 8.68444 5.49523 8.42306C5.49795 8.42025 5.50075 8.41473 5.50356 8.41193C5.55089 8.34233 5.60384 8.27562 5.66212 8.21716C5.74838 8.12538 5.84305 8.04746 5.94586 7.9946C5.97365 7.98066 6.00433 7.96682 6.03483 7.95559L6.057 7.94727H6.07085C6.08479 7.95288 6.09583 7.9584 6.10696 7.9612C6.23775 8.01687 6.33784 8.1281 6.43795 8.23942C6.47143 8.27571 6.50465 8.31174 6.53823 8.34522C6.54655 8.45365 6.55207 8.55945 6.55488 8.66507C6.5604 8.80427 6.56601 8.94609 6.58266 9.09072C6.59651 9.19634 6.61597 9.29934 6.63272 9.40505C6.64946 9.49131 6.6662 9.57765 6.67724 9.66662L6.4546 9.64462H6.45451Z" fill="#936B3B"></path>
    <path fill-rule="evenodd" clip-rule="evenodd" d="M5.83409 9.5388C5.83961 9.52495 5.84241 9.51101 5.84794 9.49716C5.85925 9.47146 5.86676 9.44431 5.8702 9.41643C5.87301 9.38865 5.8702 9.36638 5.86748 9.34412C5.86468 9.30801 5.85907 9.27461 5.87581 9.21895L5.87853 9.21343L6.12054 8.92688C6.12606 8.91304 6.11502 8.88806 6.10389 8.86299C6.09276 8.83792 6.08443 8.81284 6.08443 8.78787C6.08171 8.74886 6.09556 8.69609 6.1066 8.65708C6.11212 8.63771 6.11773 8.62097 6.11773 8.61255C6.12045 8.60423 6.12045 8.5931 6.13991 8.5959C6.15955 8.59862 6.15955 8.60703 6.15665 8.61808C6.15665 8.62921 6.15113 8.64876 6.14552 8.66822C6.13439 8.70433 6.12335 8.75166 6.12335 8.78787C6.12335 8.80461 6.13167 8.82398 6.14 8.84633C6.15674 8.88244 6.17349 8.91865 6.15394 8.94915V8.95195L5.91192 9.23569C5.90079 9.28022 5.9036 9.30801 5.9064 9.3386C5.90912 9.36358 5.91192 9.38865 5.90912 9.41933C5.90604 9.45082 5.89853 9.48169 5.88694 9.5111C5.88142 9.52504 5.87581 9.53889 5.8731 9.55011C5.87029 9.56124 5.86758 9.56957 5.84794 9.56405C5.82848 9.55817 5.83119 9.54984 5.834 9.53871L5.83409 9.5388Z" fill="black"></path>
  </g>
  <defs>
    <clipPath id="clip0_971_196264">
      <rect width="17" height="20.6302" fill="white" transform="translate(3.5 2)"></rect>
    </clipPath>
  </defs>
</svg>
