<?xml version="1.0" encoding="UTF-8"?>
<svg xmlns="http://www.w3.org/2000/svg" width="26" height="26" viewBox="0 0 26 26" fill="none">
  <g clip-path="url(#clip0_407_696)">
    <mask id="mask0_407_696" style="mask-type:luminance" maskUnits="userSpaceOnUse" x="2" y="1" width="22" height="24">
      <path d="M23.4995 1.5H2.50076V24.8957H23.4995V1.5Z" fill="white"></path>
    </mask>
    <g mask="url(#mask0_407_696)">
      <path d="M2.50678 1.5L2.50552 1.91916C2.50552 2.14819 2.50427 2.38538 2.50301 2.62633C2.49799 3.54371 2.49423 4.58283 2.52121 5.68218C2.56702 7.56212 2.68687 9.74263 3.21709 11.6552C3.8772 14.0296 4.84667 16.1223 6.18321 18.0549C7.79082 20.3791 9.99831 22.6167 12.7461 24.7037L13.0002 24.8964L13.2531 24.7037C16.0002 22.6167 18.2083 20.3804 19.8147 18.0549C21.1525 16.1229 22.1219 14.0296 22.7808 11.6552C23.3411 9.63846 23.4478 7.40211 23.4779 5.67967C23.4898 4.9361 23.4886 4.23646 23.4861 3.56003C23.4836 2.984 23.4823 2.43997 23.4911 1.92794L23.4974 1.50188H23.0713L2.92594 1.5H2.50678Z" fill="white"></path>
    </g>
    <path d="M12.9984 24.3699C10.0857 22.1567 8.00806 19.9568 6.52719 17.8164C5.02939 15.6504 4.17476 13.5357 3.62069 11.5429C3.11117 9.7037 2.98756 7.62171 2.9405 5.67149C2.90661 4.29354 2.9223 3.03229 2.92481 1.92102H23.0714C23.0532 3.03355 23.0821 4.29416 23.0583 5.67149C23.0244 7.62171 22.8876 9.70433 22.3768 11.5429C21.8234 13.5357 20.9687 15.6504 19.4703 17.8164C17.9907 19.9568 15.9131 22.1567 12.9991 24.3699" fill="#D40723"></path>
    <path d="M3.34397 2.34021C3.42993 7.67068 2.20571 15.6636 12.9991 23.8635C23.793 15.6648 22.5694 7.67194 22.6548 2.34146L3.34397 2.34021Z" fill="white"></path>
    <path d="M17.0865 13.2157L17.3626 13.1818C17.372 13.2521 17.3952 13.3067 17.4341 13.3444C17.473 13.382 17.5201 13.4002 17.5747 13.4002C17.633 13.4002 17.6839 13.377 17.7234 13.3337C17.7635 13.2891 17.7836 13.2283 17.7836 13.1524C17.7836 13.0808 17.7642 13.0237 17.7253 12.9817C17.6864 12.9403 17.6393 12.9189 17.5835 12.9189C17.5471 12.9189 17.5038 12.9265 17.4529 12.9409L17.4843 12.7087C17.5615 12.71 17.6198 12.6943 17.6613 12.6579C17.7027 12.6228 17.7215 12.5757 17.7215 12.5161C17.7215 12.4665 17.7071 12.4264 17.6782 12.3962C17.6481 12.3674 17.6079 12.3517 17.5584 12.3517C17.5088 12.3517 17.4686 12.3686 17.4335 12.4025C17.3996 12.4364 17.3776 12.486 17.3707 12.5512L17.1078 12.5067C17.126 12.4157 17.1536 12.3442 17.19 12.2902C17.2277 12.2369 17.2785 12.1948 17.345 12.1628C17.4103 12.1327 17.4843 12.117 17.5665 12.117C17.7071 12.117 17.8194 12.1616 17.9028 12.2513C17.9731 12.3253 18.0083 12.4075 18.0083 12.4998C18.0083 12.6303 17.9367 12.7344 17.7937 12.8123C17.8784 12.8305 17.9474 12.8719 17.9982 12.9359C18.049 12.9986 18.0748 13.0764 18.0748 13.1662C18.0748 13.2967 18.0277 13.4084 17.9317 13.5006C17.8363 13.5928 17.7171 13.6387 17.5759 13.6387C17.4347 13.6387 17.3287 13.5997 17.2408 13.5226C17.1511 13.4454 17.1003 13.3431 17.0859 13.2189M16.592 12.646C16.592 12.5537 16.5701 12.4828 16.5293 12.4314C16.486 12.3805 16.437 12.3548 16.3818 12.3548C16.3297 12.3548 16.2852 12.3755 16.2513 12.4163C16.2162 12.459 16.198 12.5268 16.198 12.6209C16.198 12.715 16.2174 12.7878 16.2551 12.833C16.294 12.8788 16.341 12.9007 16.3981 12.9007C16.4552 12.9007 16.4985 12.8788 16.5362 12.8367C16.5738 12.7934 16.5933 12.7288 16.5933 12.6453M15.947 13.2691L16.2243 13.2389C16.2306 13.2948 16.2488 13.3368 16.2764 13.3638C16.3053 13.3902 16.3429 13.404 16.3887 13.404C16.4483 13.404 16.4979 13.3776 16.5387 13.323C16.5814 13.2684 16.6065 13.1574 16.6184 12.9867C16.5456 13.0689 16.4559 13.1116 16.3498 13.1116C16.2325 13.1116 16.1308 13.067 16.0461 12.976C15.9614 12.885 15.9187 12.7677 15.9187 12.6228C15.9187 12.4778 15.9633 12.3504 16.053 12.2582C16.1428 12.1647 16.2576 12.1189 16.3956 12.1189C16.5469 12.1189 16.6705 12.1785 16.7671 12.2946C16.8637 12.4119 16.9127 12.6033 16.9127 12.8706C16.9127 13.1379 16.8618 13.3393 16.7615 13.4604C16.6611 13.5803 16.5299 13.6405 16.3668 13.6405C16.2519 13.6405 16.1572 13.6092 16.0857 13.547C16.0129 13.4855 15.9671 13.3933 15.9463 13.2697M9.28185 13.1605C9.28185 13.2389 9.3013 13.3011 9.34208 13.3444C9.38224 13.3877 9.43181 13.4109 9.49205 13.4109C9.55229 13.4109 9.59998 13.3889 9.63826 13.3469C9.67716 13.3042 9.69661 13.244 9.69661 13.1643C9.69661 13.094 9.67591 13.0382 9.637 12.9961C9.5981 12.9534 9.54853 12.9334 9.48829 12.9334C9.41801 12.9334 9.36593 12.9566 9.33204 13.0049C9.29816 13.0532 9.28122 13.1053 9.28122 13.1611M9.30695 12.523C9.30695 12.5801 9.32389 12.6246 9.35526 12.656C9.38789 12.6874 9.43056 12.7043 9.48452 12.7043C9.53849 12.7043 9.58116 12.6874 9.61378 12.656C9.64641 12.6234 9.6621 12.5788 9.6621 12.523C9.6621 12.4671 9.64641 12.4264 9.61378 12.3937C9.58241 12.3624 9.53849 12.3454 9.48641 12.3454C9.43432 12.3454 9.38852 12.3624 9.35589 12.395C9.32326 12.4276 9.30632 12.4703 9.30632 12.5236M9.24796 12.8116C9.17392 12.7803 9.12058 12.7376 9.0867 12.683C9.05281 12.6271 9.03587 12.5682 9.03587 12.5035C9.03587 12.3918 9.07478 12.3002 9.15196 12.2274C9.22914 12.1547 9.33957 12.1183 9.4839 12.1183C9.62822 12.1183 9.73426 12.1547 9.81332 12.2274C9.89051 12.3002 9.93066 12.3918 9.93066 12.5035C9.93066 12.5713 9.91247 12.6341 9.87607 12.6874C9.84093 12.7407 9.79011 12.7815 9.72485 12.811C9.80705 12.8436 9.87043 12.8919 9.91372 12.9566C9.95639 13.0193 9.97772 13.0934 9.97772 13.1768C9.97772 13.3136 9.93443 13.4259 9.84595 13.5119C9.75873 13.5966 9.64265 13.6405 9.49582 13.6405C9.36154 13.6405 9.24859 13.6054 9.15823 13.5339C9.05156 13.4504 8.99822 13.3356 8.99822 13.1887C8.99822 13.1078 9.01893 13.0338 9.05846 12.966C9.09862 12.8995 9.16137 12.8474 9.24733 12.811M8.5753 13.6136H8.29105V12.5387C8.18689 12.6353 8.06327 12.7081 7.92209 12.7552V12.496C7.99739 12.4703 8.07708 12.4245 8.16555 12.3567C8.25277 12.2889 8.31176 12.2092 8.34501 12.1183H8.57655V13.6136H8.5753Z" fill="#D40723"></path>
    <path d="M18.2549 3.22372C17.4718 2.8968 16.6447 2.915 16.0392 3.26388C15.5052 3.5726 15.1444 4.13922 15.1394 4.9537C15.1306 5.12061 15.0898 5.29254 15.0183 5.45882L15.0133 5.45254C14.7491 5.8899 14.3074 6.32537 13.8135 6.28898C13.7251 5.84849 13.4345 5.24798 13.1547 4.86396C13.4559 4.87965 13.9491 5.1959 14.0564 5.42305C14.3036 5.15574 14.6544 4.48747 14.5747 3.94847C14.0833 3.94847 13.6052 3.83364 13.1133 3.6228C13.1133 3.95474 12.5385 4.75102 12.1388 4.93173C12.3383 5.22728 12.5071 5.87108 12.4983 6.44899C12.2028 6.6912 11.8131 6.73575 11.4981 6.7301C11.2572 6.35612 10.9328 6.08003 10.929 5.61004C10.924 5.12312 11.4046 4.42222 11.9229 3.96855L11.665 3.6479C11.3419 3.75959 11.0645 3.94596 10.8198 4.1913L10.8066 4.17185C10.5111 3.74453 10.0041 2.97712 9.26678 2.80017C9.05595 2.87296 8.76668 3.31596 8.55145 3.76901C7.75706 3.93152 7.12769 4.5063 6.86603 4.99197C6.59245 4.76294 6.39605 4.5245 6.38161 4.22205C6.34271 3.39754 7.41696 3.53307 7.94342 3.76901L7.94844 3.17101C7.16534 2.84409 6.33706 2.86229 5.7328 3.21243C5.19881 3.51989 4.838 4.08651 4.83298 4.90099C4.83173 5.45694 4.48912 5.90433 3.76877 6.13964C4.08251 6.27643 4.51422 6.17227 5.08963 6.00034C4.80851 6.39503 4.47093 6.59708 3.76752 6.74955C4.20676 6.90078 4.88883 6.84054 5.50627 6.63912C5.34627 6.98674 4.8173 7.28668 3.82336 7.40151C4.69117 7.69078 5.11033 7.59791 6.00387 7.33249C7.25444 6.96102 8.06578 7.97754 6.60688 8.33144C6.25361 8.41741 5.82002 8.25865 5.38266 8.07605L4.96852 8.58432C5.5389 8.87986 6.51841 9.11077 6.98337 9.10262C8.41215 9.07501 9.00136 7.94491 8.64558 6.80979C8.4178 6.08568 7.77777 5.66212 7.23625 5.27246C7.71313 4.62238 9.42993 3.87442 10.0398 5.3898C9.76626 6.0361 9.64265 6.72634 9.66963 7.2346C9.71669 8.14382 10.6529 8.99344 10.0568 9.4515C9.91121 9.55441 9.53598 9.70563 9.25047 9.79787C8.00805 9.72508 7.25633 9.08819 6.30883 9.04238C5.59789 9.00849 5.03252 9.07124 4.66858 9.60523C4.15279 10.3632 4.61901 11.6307 5.75601 11.654C5.76794 11.2034 5.87963 10.9625 5.96183 10.7981C5.61295 10.7981 4.84302 10.8577 4.84302 10.3538C4.84428 10.0972 5.06202 10.015 5.3105 10.0087C6.5548 9.98109 7.64725 11.6138 9.11682 11.7123C9.12748 10.9844 10.2042 10.1311 11.0382 10.7121C11.4416 10.121 11.3732 9.60649 11.1191 9.18921C11.5527 8.70981 11.7447 8.1639 11.7535 7.58536C11.756 7.43979 11.7391 7.31178 11.709 7.19569C11.9775 7.15554 12.3176 7.06832 12.4996 6.93905V12.1936C12.7443 12.1597 12.8146 12.1183 13.0386 11.9382V11.0761C13.2858 11.0447 13.5581 11.0334 13.8186 10.8156V6.77214C14.2798 6.75144 14.9712 6.51299 15.4055 6.02418C15.4092 6.02293 15.4117 6.02293 15.4136 6.02167C15.2818 6.4973 14.9097 6.92839 14.2076 7.07961C14.7297 7.24652 15.3603 7.04071 15.8453 6.69371C15.7192 7.04133 15.2059 7.61736 14.2616 7.73219C15.1294 8.02146 15.482 7.71651 16.3755 7.45108C17.6261 7.07961 18.3722 8.03213 16.9133 8.3854C16.56 8.47137 16.1252 8.31262 15.6891 8.13002L15.2737 8.63702C15.8441 8.93382 16.8236 9.16474 17.2892 9.15533C18.6703 9.1296 19.2676 8.07166 18.9815 6.97357C20.2126 7.06204 21.2009 9.12583 20.1718 9.66735C19.7552 9.88634 19.3944 9.82109 18.9827 9.73638C18.0735 9.55252 17.3946 9.13462 16.6146 9.09822C15.9037 9.06434 15.3383 9.12458 14.9744 9.65857C14.4573 10.4166 14.9248 11.6841 16.0606 11.7073C16.0737 11.2555 16.1854 11.0158 16.2676 10.8502C15.9175 10.8502 15.1476 10.9098 15.1488 10.4072C15.1488 10.1505 15.3666 10.0671 15.615 10.062C16.8606 10.0344 17.953 11.6671 19.4226 11.7657C19.432 11.0378 20.5088 10.1844 21.344 10.7654C21.7568 10.1599 21.6759 9.63347 21.4042 9.21117C21.856 8.62008 22.134 8.01393 22.0555 7.50504C21.9972 6.64665 21.2411 6.38185 21.2335 5.66338C21.2285 5.17645 21.7104 4.47555 22.2275 4.02188L21.9708 3.70124C21.6571 3.80916 21.3597 3.98674 21.1049 4.21577C20.8081 3.78595 20.3036 3.0292 19.572 2.85351C19.3599 2.9263 19.0706 3.3693 18.8554 3.82234C18.0622 3.98486 17.4341 4.5452 17.1725 5.03088C16.8543 4.76482 16.4364 4.21138 16.8393 3.82234C17.1505 3.52429 17.8526 3.64539 18.2486 3.82234L18.2524 3.22435L18.2549 3.22372ZM18.7487 6.26514C18.4494 5.79327 17.911 5.4676 17.4956 5.21159C17.7717 4.8351 18.5102 4.37767 19.1628 4.39335C20.0984 4.41531 20.8495 5.51655 19.956 6.18043C19.7502 6.3329 19.4101 6.34043 18.7487 6.26514Z" fill="#D40723"></path>
    <path d="M12.9984 23.3565C9.2191 20.4858 6.98651 17.6414 5.64621 14.8855C9.12561 14.7775 11.4065 13.7823 12.9984 12.5707C14.8991 13.884 17.4209 14.9595 20.3507 14.8842C19.0116 17.6395 16.7784 20.4845 12.9984 23.3565Z" fill="black"></path>
    <path d="M12.9984 22.8482C9.57488 20.2479 7.64725 17.7706 6.37973 15.2996C8.95367 15.0875 11.2634 14.3759 12.9984 13.1009C14.7359 14.3747 17.0444 15.0875 19.6184 15.2996C18.3509 17.7706 16.4232 20.2479 12.9984 22.8482Z" fill="#FFDC00"></path>
    <path d="M11.6995 19.8821C11.8144 19.8665 11.933 19.852 12.0528 19.8388C11.6995 19.1561 12.1727 18.5789 12.8045 18.5651C12.3239 19.0237 12.3371 19.5226 12.6859 19.7767C12.915 19.7585 12.9671 19.751 13.2005 19.7403C12.7901 19.1254 13.2432 18.5902 13.8662 18.5199C13.5651 18.8198 13.4101 19.3758 13.7803 19.7184C13.9911 19.7133 14.0984 19.7108 14.308 19.7121C14.067 19.0777 14.5464 18.6818 15.0698 18.6636C14.783 18.919 14.5646 19.431 14.9016 19.7679C15.0647 19.8006 15.2348 19.7981 15.5096 19.8796C15.6891 19.9706 15.8353 20.1118 15.878 20.226C13.6623 19.9574 13.3341 20.0252 11.6939 20.2963C11.0319 20.6439 10.7207 20.7355 10.3887 20.4268C10.3316 20.3446 10.3806 20.13 10.6077 20.0829C10.6052 19.9317 10.7156 19.8483 10.8368 19.8119C11.1505 19.7165 11.3124 19.9813 11.7002 19.8821M10.6868 17.9702C10.8104 17.952 10.9359 17.9351 11.0645 17.9206C10.6466 17.2354 11.1128 16.5722 11.7899 16.5577C11.3155 17.0842 11.3695 17.5579 11.7428 17.851C11.9876 17.829 12.2354 17.8121 12.4864 17.7989C11.9888 17.2116 12.5711 16.5377 13.2381 16.4561C12.9162 16.8012 12.7117 17.3797 13.1064 17.7744C13.3329 17.7681 13.5594 17.7663 13.7834 17.7663C13.4458 17.1174 14.0375 16.5835 14.5973 16.5615C14.2911 16.8558 14.067 17.3942 14.4266 17.7807C14.6663 17.7889 14.901 17.8039 15.1275 17.8221C14.9167 17.3634 15.2135 16.9832 15.7876 16.8727C15.5416 17.1451 15.3992 17.5303 15.6483 17.8742C15.9633 17.9118 16.3373 18.0543 16.6046 18.1139C16.8688 18.2664 16.9472 18.3134 17.1593 18.4659C14.6945 18.0869 12.0139 18.1729 10.6811 18.4477C9.97271 18.8462 9.64014 18.9528 9.28624 18.5964C9.226 18.5023 9.27683 18.2563 9.52092 18.2005C9.5159 17.8943 9.77881 17.8786 10.0367 17.8786C10.2463 18.0737 10.4534 18.0348 10.688 17.9708M9.84784 16.163C10.0003 16.1436 10.257 16.0664 10.417 16.0495C9.94698 15.1835 10.5757 14.3026 11.4341 14.386C10.796 14.9671 10.7552 15.5895 11.2176 15.9114C11.5201 15.8882 11.7297 15.8499 12.0409 15.8342C11.5822 15.0982 12.1645 14.1432 12.9438 14.2386C12.5046 14.6383 12.3383 15.3938 12.8303 15.8267C13.1101 15.8204 13.3906 15.8186 13.6692 15.8192C13.3486 15.0141 13.9453 14.1858 14.7974 14.44C14.3582 14.5648 14.02 15.4076 14.4667 15.8336C14.7635 15.8443 15.0541 15.8593 15.3358 15.8794C15.1482 15.2632 15.5027 14.6056 16.2934 14.861C15.9275 15.1032 15.6721 15.5569 15.9809 15.9359C16.3718 15.9786 16.8355 16.0664 17.1674 16.1329C17.4956 16.2842 17.7861 16.5289 17.9141 16.6004C14.857 16.1825 11.921 16.2277 9.89992 16.6406C9.01956 17.0798 8.54769 17.1783 8.10845 16.7849C8.03315 16.682 8.09779 16.4096 8.40023 16.3488C8.39396 16.0099 8.72088 15.993 9.03964 15.993C9.30004 16.207 9.55669 16.2352 9.84847 16.1624" fill="black"></path>
  </g>
  <defs>
    <clipPath id="clip0_407_696">
      <rect width="21" height="23.3957" fill="white" transform="translate(2.5 1.5)"></rect>
    </clipPath>
  </defs>
</svg>
