<?xml version="1.0" encoding="UTF-8"?>
<svg xmlns="http://www.w3.org/2000/svg" width="24" height="24" viewBox="0 0 24 24" fill="none">
  <g clip-path="url(#clip0_971_196265)">
    <path fill-rule="evenodd" clip-rule="evenodd" d="M11.9998 22.6529C16.9369 22.6529 20.9396 18.6561 20.9396 13.726C20.9396 8.7958 16.937 4.79907 11.9998 4.79907C7.06247 4.79907 3.06006 8.7958 3.06006 13.7259C3.06006 18.6559 7.06267 22.6529 11.9998 22.6529Z" fill="white"></path>
    <path d="M11.9999 22.7132C10.785 22.7132 9.60638 22.4756 8.49678 22.007C7.42508 21.5543 6.46263 20.9062 5.63609 20.0809C4.80954 19.2555 4.16061 18.2944 3.70727 17.2243C3.23793 16.1161 3 14.9391 3 13.7259C3 12.5127 3.23793 11.3358 3.70727 10.2277C4.16061 9.15759 4.80954 8.19649 5.63599 7.37118C6.46253 6.54587 7.42498 5.89787 8.49668 5.44525C9.60628 4.97663 10.7849 4.73901 11.9998 4.73901C13.2147 4.73901 14.3934 4.97663 15.5029 5.44525C16.5746 5.89787 17.5372 6.54587 18.3637 7.37118C19.1903 8.19649 19.8392 9.15759 20.2925 10.2278C20.7619 11.3359 20.9999 12.5128 20.9999 13.726C20.9999 14.9392 20.762 16.1162 20.2925 17.2243C19.8392 18.2944 19.1903 19.2556 18.3637 20.0809C17.5372 20.9062 16.5747 21.5542 15.5029 22.007C14.3933 22.4756 13.2147 22.7132 11.9998 22.7132H11.9999ZM11.9999 4.85932C7.10371 4.85932 3.12041 8.83684 3.12041 13.7259C3.12041 18.615 7.10371 22.5928 11.9999 22.5928C16.8961 22.5928 20.8796 18.6152 20.8796 13.726C20.8796 8.83684 16.8962 4.85932 11.9999 4.85932Z" fill="black"></path>
    <path fill-rule="evenodd" clip-rule="evenodd" d="M11.9999 1.96791C11.9999 1.96791 7.80191 1.76344 6.51758 3.84726L7.80191 6.67263C9.22657 7.33395 11.3935 7.57425 11.9998 7.33395C12.6059 7.57436 14.7731 7.33395 16.1977 6.67263L17.4818 3.84726C16.1983 1.76426 12.0031 1.9678 11.9999 1.96791Z" fill="white"></path>
    <path d="M12.7296 7.48486C12.415 7.48486 12.1608 7.45595 11.9998 7.39832C11.6807 7.51243 10.9959 7.51388 10.1994 7.40101C9.31099 7.27513 8.42795 7.02956 7.77665 6.72719C7.76364 6.7211 7.7531 6.71057 7.74722 6.69745L6.46289 3.87208C6.45463 3.8538 6.45597 3.83263 6.4664 3.81559C6.76557 3.33023 7.24452 2.92801 7.89014 2.62007C8.40307 2.37543 9.02215 2.18924 9.73015 2.06677C10.9014 1.86416 11.9367 1.90485 11.9999 1.90763C12.0731 1.90433 13.101 1.86302 14.2822 2.06904C14.9878 2.19203 15.6046 2.37843 16.1156 2.62306C16.7582 2.93059 17.2352 3.33189 17.5333 3.81569C17.5438 3.83273 17.5452 3.8539 17.5368 3.87218L16.2527 6.69755C16.2467 6.71067 16.2363 6.7212 16.2232 6.7273C15.5719 7.02966 14.6889 7.27533 13.8004 7.40111C13.4058 7.45698 13.0386 7.48486 12.7297 7.48486H12.7296ZM11.9998 7.27378C12.0074 7.27378 12.0149 7.27523 12.022 7.27802C12.587 7.50211 14.6999 7.29444 16.1522 6.62733L17.4137 3.85183C16.7563 2.8169 15.3393 2.37564 14.2615 2.18769C13.0747 1.98075 12.0461 2.02608 12.0029 2.02804C12.0011 2.02804 11.999 2.02804 11.9971 2.02804C11.9866 2.02753 10.9384 1.97971 9.74853 2.18583C8.66691 2.37326 7.24493 2.81442 6.58588 3.85183L7.84749 6.62733C9.29952 7.29423 11.4125 7.502 11.9776 7.27802C11.9848 7.27523 11.9923 7.27378 11.9998 7.27378Z" fill="black"></path>
    <path fill-rule="evenodd" clip-rule="evenodd" d="M12.9032 5.43018L19.5251 13.4181L11.9999 23.457L4.4751 13.4181L11.0699 5.46291L12.9032 5.43018Z" fill="#FFE771"></path>
    <path fill-rule="evenodd" clip-rule="evenodd" d="M16.1805 16.8765L17.8528 14.6455V12.3433L16.1805 10.326V16.8763V16.8765ZM12.8358 21.3386L14.5081 19.1078V8.30945L12.8358 6.29224V21.3386ZM9.49137 19.1078L11.1637 21.3386V6.29255L9.49137 8.30945V19.1077V19.1078ZM6.14697 14.6461L7.81917 16.8771V10.3269L6.14697 12.3439V14.6461Z" fill="#CD3529"></path>
    <path fill-rule="evenodd" clip-rule="evenodd" d="M4.01532 13.4067L4.19666 13.1877L8.96789 7.43241C8.54181 7.31572 8.1274 7.17094 7.75802 6.99962L7.63658 6.94324L7.58123 6.82159L7.50285 6.64893C5.16045 8.13865 3.60205 10.7531 3.60205 13.7259C3.60205 17.8136 6.5467 21.2254 10.4287 21.9623L4.18582 13.634L4.01532 13.4067ZM20.398 13.7259C20.398 10.8243 18.9142 8.26267 16.6646 6.75663L16.6349 6.8219L16.5798 6.94365L16.4584 6.99993C16.038 7.1951 15.5588 7.35568 15.0713 7.47981L19.8035 13.188L19.9848 13.4067L19.8143 13.6343L13.5715 21.9627C17.4533 21.2256 20.3981 17.8138 20.3981 13.7261L20.398 13.7259Z" fill="#005085"></path>
    <path fill-rule="evenodd" clip-rule="evenodd" d="M8.99409 12.3101H8.35694C7.7552 12.3101 7.28317 12.9639 7.28317 13.5469C7.28317 14.1298 7.7552 14.7836 8.35694 14.7836H8.99409V15.6086H8.30985C7.31859 15.6086 6.36523 14.7953 6.36523 13.5466C6.36523 12.2979 7.31859 11.4846 8.30985 11.4846H8.99409V12.31V12.3101ZM17.3938 12.3098V11.4846H15.038L15.0375 15.6087H15.8638V13.7726H16.9148V12.9476H15.8638L15.8641 12.3098H17.3938Z" fill="black"></path>
    <path fill-rule="evenodd" clip-rule="evenodd" d="M14.1441 8.21111L12.0001 14.8525L9.85619 8.21069L6.49414 8.21111V9.51805H8.88673L12.0003 19.162L15.1135 9.51753H17.5062V8.21111H14.144H14.1441Z" fill="black"></path>
    <path d="M11.9997 2.4808C11.7478 2.4808 11.5427 2.27592 11.5425 2.02395C11.5425 1.90169 11.5902 1.78696 11.6766 1.70062C11.763 1.6144 11.8777 1.56689 11.9996 1.56689H12C12.2518 1.56689 12.4568 1.77188 12.4568 2.02385C12.4568 2.27582 12.2518 2.4807 12 2.4808H11.9997ZM11.9997 1.68741C11.9098 1.68741 11.8253 1.72241 11.7617 1.78592C11.6981 1.84954 11.663 1.93401 11.6629 2.02395C11.6631 2.20942 11.8142 2.3604 11.9997 2.3604H11.9998C12.1854 2.3604 12.3364 2.20942 12.3364 2.02385C12.3364 1.83828 12.1854 1.6873 11.9998 1.6873H11.9996L11.9997 1.68741Z" fill="black"></path>
    <path fill-rule="evenodd" clip-rule="evenodd" d="M11.9997 4.74588C11.4627 4.73607 9.17059 4.74981 7.31055 5.59236L7.80179 6.67304C7.81036 6.67707 7.81934 6.68079 7.82802 6.68482C9.41997 5.91393 11.4631 5.85269 11.988 5.85042C12.6153 5.85218 14.5687 5.90866 16.172 6.68482L16.1984 6.67315L16.6896 5.59226C14.8397 4.75445 12.6701 4.73638 11.9997 4.74578V4.74588Z" fill="#FFE771"></path>
    <path fill-rule="evenodd" clip-rule="evenodd" d="M18.2196 3.60159V3.60108C17.0483 2.84692 16.4977 4.2497 17.2681 4.63746C15.9428 5.1286 15.4394 4.02778 15.4595 3.54686C16.0214 4.6891 17.6066 3.30646 16.1161 2.60332H16.1156C16.7123 1.98 16.4024 1.42618 15.9673 1.28192C15.5469 1.10017 14.9461 1.30732 14.9756 2.16918L14.9753 2.16867C13.4035 1.75106 13.5407 3.86988 14.8952 3.38267C13.8486 5.0464 12.3803 3.52848 12.1355 2.84052C12.1295 2.81894 12.123 2.79746 12.116 2.77608C12.6553 3.35365 13.168 3.20133 13.387 2.85849C13.635 2.46979 13.506 1.83625 12.6105 1.74269L12.61 1.743C12.9454 0.948261 12.458 0.540977 12.0002 0.561011C11.8848 0.555951 11.7698 0.57805 11.6646 0.625553C11.3501 0.768887 11.1389 1.14695 11.3899 1.74279C11.2317 1.75932 11.0976 1.79257 10.9853 1.83842C10.0485 2.2203 10.62 3.47055 11.4639 3.09218C11.5988 3.03167 11.7408 2.92954 11.8847 2.77556L11.8842 2.77742C11.7137 3.42883 10.1849 5.09886 9.10522 3.38236C10.4597 3.86947 10.597 1.75064 9.02488 2.16836V2.16887C9.05431 1.30691 8.45361 1.09986 8.033 1.2814C7.59794 1.42566 7.28804 1.97959 7.88471 2.60311L7.88419 2.6028C6.39364 3.30594 7.97899 4.68858 8.54076 3.54635C8.5609 4.02726 8.05727 5.12798 6.73215 4.63695C7.50283 4.24908 6.95221 2.84641 5.78086 3.60056V3.60108C5.54355 2.77205 4.90815 2.75935 4.56396 3.06141L5.71146 4.82871C7.15637 5.9507 8.44049 5.36983 9.10284 4.42783C10.0859 5.24942 11.6189 4.62848 12.0004 3.84706C12.3817 4.62858 13.9146 5.24963 14.898 4.42804C15.5603 5.36973 16.8444 5.95091 18.2891 4.82882L19.4366 3.06141C19.0924 2.75966 18.4571 2.77226 18.2197 3.60139L18.2196 3.60159Z" fill="#E6A537"></path>
    <path d="M16.7023 5.50446C16.6018 5.50446 16.502 5.49702 16.4031 5.48226C16.0904 5.43537 15.7916 5.316 15.5151 5.12733C15.2775 4.9652 15.0661 4.75939 14.8859 4.51496C14.4645 4.84097 13.9155 4.95188 13.332 4.82724C12.7635 4.7058 12.2444 4.36894 12.0001 3.97178C11.7556 4.36894 11.2364 4.70569 10.6678 4.82703C10.5118 4.86039 10.3581 4.8768 10.2088 4.8768C9.79988 4.8768 9.42285 4.7534 9.11429 4.51465C8.93419 4.75908 8.72281 4.96489 8.48519 5.12702C8.20874 5.31569 7.90999 5.43506 7.5973 5.48195C7.29628 5.52707 6.98658 5.50353 6.67689 5.41183C6.34117 5.31249 6.0039 5.13229 5.67417 4.87629C5.6689 4.87216 5.66425 4.8672 5.66064 4.86152L4.51314 3.09422C4.49682 3.06912 4.50147 3.03587 4.52388 3.01615C4.72081 2.84328 4.99013 2.77905 5.22671 2.84854C5.49046 2.92599 5.6974 3.15917 5.81492 3.50862C6.29583 3.22567 6.62391 3.32429 6.78015 3.41176C7.01023 3.54053 7.15491 3.80149 7.14881 4.07638C7.14386 4.29985 7.04472 4.49245 6.87227 4.62091C7.3126 4.75609 7.69799 4.7155 7.9925 4.50122C8.25738 4.30863 8.39679 4.02248 8.45204 3.7925C8.2865 3.98572 8.06758 4.07246 7.82624 4.03405C7.51097 3.98386 7.25115 3.7292 7.2083 3.42849C7.18568 3.26998 7.22575 3.10991 7.32406 2.96544C7.42288 2.82035 7.57809 2.6922 7.78587 2.58408C7.54422 2.3067 7.44787 2.01126 7.51397 1.74535C7.57303 1.50763 7.76294 1.30884 8.00985 1.2255C8.25057 1.12193 8.52629 1.14382 8.72972 1.28261C8.9566 1.43741 9.08155 1.72273 9.08568 2.09129C9.5447 1.98957 9.91337 2.0949 10.1044 2.3855C10.1875 2.51189 10.2293 2.66814 10.2218 2.82552C10.2145 2.98155 10.1592 3.13242 10.0663 3.25046C9.88363 3.4825 9.59107 3.56511 9.24833 3.48704C9.57155 3.93419 9.95178 4.1274 10.3803 4.06141C10.6931 4.01329 11.0304 3.82049 11.3299 3.51854C11.4884 3.35868 11.6286 3.17321 11.7219 3.00561C11.645 3.06437 11.5671 3.11167 11.4886 3.14688C11.2262 3.2645 10.9555 3.24302 10.746 3.08792C10.5316 2.9292 10.4144 2.65657 10.4476 2.39345C10.4818 2.12082 10.6647 1.90386 10.9626 1.78242C11.0642 1.74101 11.1791 1.71086 11.3054 1.69237C11.21 1.43389 11.1934 1.19421 11.258 0.995527C11.3198 0.805413 11.4553 0.654437 11.6397 0.570378C11.7518 0.519777 11.8758 0.495716 11.9986 0.500467C12.2603 0.489417 12.5102 0.607864 12.6508 0.809957C12.8075 1.03539 12.8224 1.34643 12.6946 1.69227C13.0843 1.74948 13.3651 1.9209 13.4898 2.17948C13.5965 2.40068 13.5765 2.6732 13.4378 2.89057C13.3166 3.08027 13.1243 3.20027 12.9103 3.21999C12.7563 3.23404 12.534 3.20213 12.2784 3.00613C12.383 3.19449 12.5456 3.40226 12.7273 3.5743C12.9398 3.77567 13.2753 4.02465 13.6666 4.06781C14.0763 4.11294 14.4408 3.91787 14.7521 3.48735C14.6682 3.50646 14.5871 3.51596 14.5101 3.51596C14.2726 3.51596 14.0721 3.42601 13.9342 3.25087C13.8412 3.13284 13.786 2.98196 13.7785 2.82593C13.7711 2.66865 13.8128 2.51241 13.8959 2.38591C14.087 2.09532 14.4557 1.98999 14.9146 2.0917C14.9187 1.72314 15.0438 1.43782 15.2706 1.28302C15.4741 1.14423 15.7497 1.12244 15.9902 1.22591C16.2372 1.30925 16.4271 1.50814 16.4862 1.74586C16.5523 2.01177 16.4558 2.30722 16.2142 2.58459C16.4221 2.69282 16.5773 2.82087 16.6761 2.96606C16.7744 3.11043 16.8145 3.27059 16.792 3.42911C16.7491 3.72982 16.4893 3.98448 16.1741 4.03456C15.9328 4.07298 15.7138 3.98623 15.5481 3.79302C15.6034 4.0231 15.7428 4.30925 16.0076 4.50195C16.3022 4.71612 16.6876 4.75671 17.1279 4.62153C16.9555 4.49307 16.8563 4.30058 16.8514 4.07721C16.8453 3.80221 16.9901 3.54126 17.2202 3.41248C17.3764 3.32502 17.7045 3.2264 18.1854 3.50924C18.303 3.15979 18.5098 2.92661 18.7734 2.84906C19.01 2.77946 19.2793 2.84359 19.4764 3.01635C19.4989 3.03608 19.5034 3.06933 19.4872 3.09442L18.3397 4.86183C18.3361 4.86751 18.3315 4.87247 18.3262 4.8766C17.9966 5.1326 17.6593 5.31269 17.3237 5.41214C17.1158 5.47369 16.9079 5.50456 16.7027 5.50456L16.7023 5.50446ZM14.8976 4.36801C14.9002 4.36801 14.9029 4.36822 14.9055 4.36853C14.9222 4.37069 14.9372 4.37978 14.9469 4.39362C15.3264 4.93329 15.85 5.27758 16.4209 5.36319C17.0202 5.45303 17.6335 5.25941 18.2439 4.78769L19.3564 3.07418C19.195 2.95315 18.9889 2.91102 18.8071 2.96462C18.6364 3.0148 18.4059 3.16898 18.2773 3.61819C18.2691 3.647 18.2407 3.66538 18.2112 3.66125C18.1997 3.6596 18.1894 3.65485 18.181 3.64793C17.8389 3.42952 17.5187 3.38316 17.2788 3.51751C17.087 3.6249 16.9665 3.84352 16.9715 4.07453C16.9765 4.29717 17.0944 4.48274 17.2951 4.58373C17.3165 4.59447 17.3295 4.61699 17.3281 4.64084C17.3268 4.6648 17.3114 4.68566 17.289 4.69392C16.6198 4.94197 16.1842 4.77932 15.9366 4.59933C15.5701 4.33269 15.3862 3.85674 15.3992 3.54435C15.4003 3.51689 15.42 3.49365 15.4469 3.48797C15.4739 3.48229 15.5012 3.49561 15.5133 3.52029C15.6576 3.81357 15.8914 3.95773 16.1548 3.91581C16.4149 3.8744 16.6375 3.65795 16.6724 3.41228C16.6962 3.24467 16.6525 2.92414 16.0928 2.65915C16.0808 2.6542 16.0702 2.64542 16.0634 2.63354C16.05 2.61041 16.0533 2.58119 16.0718 2.56188C16.3951 2.22409 16.4118 1.94754 16.369 1.77519C16.3195 1.57589 16.1581 1.4088 15.9481 1.3392C15.9452 1.33827 15.9425 1.33713 15.9398 1.33579C15.7374 1.24967 15.5072 1.26753 15.3382 1.38288C15.1912 1.48315 15.0195 1.70053 15.0355 2.1674C15.0364 2.1958 15.0175 2.22099 14.99 2.22791C14.9773 2.23111 14.9644 2.22998 14.953 2.22543C14.515 2.11081 14.1665 2.19342 13.9961 2.45252C13.8542 2.66834 13.8678 2.97298 14.0283 3.17683C14.2053 3.40164 14.5138 3.45606 14.8745 3.32636C14.8987 3.31768 14.9257 3.32522 14.9418 3.34526C14.9579 3.36529 14.9596 3.39328 14.9459 3.41507C14.7598 3.71082 14.5487 3.92562 14.3186 4.05325C14.111 4.1685 13.887 4.21383 13.6531 4.18802C13.2284 4.14124 12.87 3.87625 12.644 3.66218C12.3831 3.41496 12.1663 3.10795 12.0785 2.86104C12.0779 2.8597 12.0775 2.85835 12.0771 2.85691C12.0714 2.83636 12.0651 2.8156 12.0584 2.79526C12.0495 2.76841 12.0606 2.73898 12.0849 2.72462C12.1091 2.71027 12.1402 2.71471 12.1595 2.73536C12.4675 3.06509 12.7314 3.116 12.8988 3.10072C13.0756 3.08451 13.2348 2.98455 13.3358 2.82644C13.4523 2.64387 13.4696 2.41627 13.381 2.23246C13.2672 1.99649 12.9922 1.84407 12.6065 1.80328C12.5926 1.80245 12.5792 1.79708 12.5687 1.78717C12.5503 1.76992 12.5443 1.74318 12.5541 1.71994C12.7357 1.28953 12.6529 1.02527 12.5514 0.879352C12.4347 0.711544 12.2261 0.612717 12.0062 0.621289C12.0032 0.621598 12.0002 0.621702 11.9971 0.621598C11.8916 0.616951 11.7851 0.637295 11.6889 0.68077C11.4126 0.806756 11.2032 1.14588 11.4449 1.71984C11.4523 1.73739 11.4509 1.75743 11.4412 1.77385C11.4315 1.79027 11.4146 1.80111 11.3957 1.80307C11.2497 1.81825 11.1192 1.84903 11.0076 1.89457C10.7518 1.99876 10.5952 2.18154 10.5665 2.40904C10.5387 2.62983 10.6372 2.85856 10.8172 2.99178C10.9932 3.1221 11.214 3.13841 11.4388 3.03763C11.5742 2.9769 11.7093 2.87498 11.8403 2.73485C11.8593 2.7145 11.8898 2.70986 11.914 2.72359C11.9381 2.73733 11.9499 2.76572 11.9422 2.79247L11.9418 2.79371C11.8812 3.02441 11.6745 3.34226 11.415 3.60394C11.0974 3.92407 10.7364 4.12895 10.3982 4.18099C10.1554 4.21838 9.92297 4.18006 9.70714 4.06709C9.46674 3.94131 9.24688 3.72177 9.05377 3.41486C9.04014 3.39307 9.04169 3.36508 9.0578 3.34505C9.07391 3.32502 9.10097 3.31748 9.12513 3.32615C9.48584 3.45586 9.7943 3.40133 9.9713 3.17662C10.1319 2.97277 10.1454 2.66824 10.0035 2.45241C9.83282 2.1929 9.48336 2.11039 9.04438 2.22585C9.0356 2.22894 9.026 2.23008 9.01619 2.22874C8.98562 2.2245 8.96311 2.19817 8.96414 2.16729C8.98015 1.70053 8.80841 1.48305 8.66157 1.38278C8.49252 1.26743 8.26224 1.24956 8.05973 1.33569C8.05715 1.33703 8.05436 1.33817 8.05147 1.3391C7.84142 1.4087 7.68012 1.57568 7.63055 1.77498C7.5877 1.94744 7.60443 2.22399 7.92776 2.56188C7.948 2.58305 7.95006 2.61568 7.93271 2.63922C7.92507 2.64965 7.91454 2.65688 7.90307 2.6607C7.34678 2.92537 7.3033 3.24488 7.32716 3.41217C7.36216 3.65785 7.5847 3.8744 7.84483 3.91581C8.10827 3.95773 8.34206 3.81357 8.48622 3.52029C8.49841 3.49561 8.52577 3.48229 8.55262 3.48797C8.57957 3.49365 8.5992 3.51689 8.60033 3.54435C8.61334 3.85674 8.42942 4.33269 8.06293 4.59922C7.8154 4.77932 7.37982 4.94186 6.71065 4.69392C6.68814 4.68555 6.67276 4.66469 6.67141 4.64084C6.67007 4.61688 6.68308 4.59447 6.70446 4.58373C6.90521 4.48274 7.02314 4.29707 7.0281 4.07442C7.03316 3.84342 6.91264 3.6248 6.72098 3.51751C6.48047 3.38285 6.15942 3.42973 5.81647 3.64938C5.80852 3.65537 5.79902 3.6595 5.78859 3.66094C5.75885 3.66518 5.73065 3.647 5.72239 3.61819C5.59383 3.16898 5.36323 3.0148 5.19253 2.96462C5.01068 2.91123 4.80466 2.95336 4.64336 3.07449L5.75585 4.78789C6.36657 5.25961 6.97997 5.45324 7.57923 5.3634C8.15019 5.27779 8.67355 4.93339 9.05295 4.39383C9.06266 4.38009 9.07763 4.371 9.09436 4.36873C9.11109 4.36656 9.12792 4.37142 9.14083 4.38226C9.53913 4.71509 10.0724 4.83147 10.6423 4.70982C11.2229 4.5859 11.7467 4.22891 11.9457 3.82132C11.9558 3.80066 11.9767 3.78755 11.9998 3.78755C12.0228 3.78755 12.0438 3.80066 12.0539 3.82132C12.2527 4.22881 12.7763 4.5859 13.3568 4.70993C13.9268 4.83168 14.4602 4.7154 14.8587 4.38247C14.8695 4.37338 14.8833 4.36842 14.8973 4.36842L14.8976 4.36801Z" fill="black"></path>
    <path fill-rule="evenodd" clip-rule="evenodd" d="M8.68846 2.96657C8.89324 2.88881 8.99609 2.65976 8.91833 2.45498C8.91833 2.45488 8.91823 2.45467 8.91812 2.45457C8.83974 2.24979 8.61029 2.14714 8.4053 2.22511C8.20052 2.30308 8.09767 2.53223 8.17564 2.737C8.17564 2.737 8.17564 2.73721 8.17574 2.73731C8.25412 2.94209 8.48358 3.04464 8.68846 2.96657ZM5.77179 4.27144C5.65355 4.1246 5.44857 4.08092 5.28076 4.16683L5.71087 4.82919C5.88167 4.69257 5.90935 4.44328 5.77262 4.27248C5.77231 4.27217 5.7721 4.27175 5.77179 4.27144ZM11.9997 2.4207C11.7806 2.4209 11.6026 2.24339 11.6024 2.02426V2.02395C11.6025 1.80471 11.7805 1.62709 11.9997 1.6272C12.2188 1.63288 12.3918 1.81514 12.3861 2.03417C12.3807 2.24525 12.2108 2.41512 11.9997 2.4206V2.4207ZM15.3113 2.96657C15.1062 2.8885 15.0033 2.65914 15.0816 2.45457C15.1599 2.25 15.3895 2.14715 15.5943 2.22532C15.799 2.30297 15.9019 2.53192 15.8243 2.73669C15.8243 2.7369 15.8241 2.73721 15.824 2.73742C15.7456 2.9422 15.5161 3.04484 15.3113 2.96667V2.96657ZM18.2277 4.27144C18.346 4.1247 18.5509 4.08102 18.7188 4.16683L18.2886 4.82929C18.1178 4.69195 18.0906 4.44225 18.2277 4.27144Z" fill="#CD3529"></path>
    <path d="M18.2888 4.88954C18.2831 4.88954 18.2773 4.88871 18.2716 4.88706C18.2627 4.88437 18.2547 4.87983 18.2481 4.87374C18.0543 4.71553 18.0239 4.42928 18.1809 4.23379C18.3163 4.06578 18.554 4.01508 18.7462 4.11338C18.7613 4.12113 18.7725 4.13497 18.7769 4.15149C18.7814 4.16791 18.7786 4.18557 18.7693 4.19982L18.3392 4.86227C18.3279 4.87973 18.3087 4.88974 18.2887 4.88974L18.2888 4.88954ZM18.2747 4.30928C18.173 4.43599 18.1783 4.61454 18.2784 4.73495L18.6283 4.19589C18.5008 4.16068 18.3603 4.20333 18.2749 4.30928H18.2747ZM5.71102 4.88933C5.70781 4.88933 5.70461 4.88912 5.70141 4.88861C5.68458 4.88592 5.66981 4.87622 5.66052 4.86196L5.23041 4.19961C5.22112 4.18536 5.21833 4.16781 5.22277 4.15128C5.22721 4.13486 5.23836 4.12103 5.25354 4.11318C5.44572 4.01477 5.68344 4.06547 5.81893 4.23359C5.81893 4.23369 5.81914 4.23379 5.81914 4.2339L5.77194 4.27138L5.81934 4.23421C5.97693 4.43114 5.94502 4.71884 5.7486 4.87601C5.73786 4.88458 5.72454 4.88923 5.71102 4.88923V4.88933ZM5.37158 4.19579L5.72165 4.73495C5.82172 4.61495 5.82719 4.43671 5.72578 4.31011L5.77194 4.27149L5.72506 4.30928C5.63966 4.20323 5.49911 4.16058 5.37158 4.19589V4.19579ZM15.4525 3.05294C15.3984 3.05294 15.3434 3.04334 15.29 3.02289C15.1757 2.97931 15.0853 2.89391 15.0353 2.78238C14.9854 2.67106 14.982 2.54704 15.0255 2.43313C15.1154 2.19768 15.3803 2.07924 15.6158 2.16908C15.8512 2.25841 15.9699 2.52256 15.8806 2.75801C15.8806 2.75822 15.8802 2.75915 15.8801 2.75925C15.8106 2.9409 15.6365 3.05284 15.4524 3.05284L15.4525 3.05294ZM15.4533 2.25944C15.3175 2.25944 15.1892 2.34205 15.138 2.47609C15.106 2.55994 15.1086 2.65123 15.1453 2.73323C15.182 2.81543 15.2487 2.87832 15.3329 2.91043C15.5064 2.97663 15.7015 2.88926 15.7679 2.71588C15.8339 2.54198 15.7465 2.34742 15.5731 2.28164C15.5336 2.26656 15.4932 2.25944 15.4533 2.25944ZM8.54785 3.05273C8.36363 3.05273 8.18942 2.94069 8.11971 2.75873C8.11971 2.75873 8.11971 2.75863 8.11971 2.75853C8.11971 2.75853 8.11971 2.75842 8.11971 2.75832C8.03007 2.52287 8.14873 2.25841 8.38428 2.16877C8.61973 2.07913 8.88461 2.19758 8.97476 2.43293C8.97476 2.43324 8.97517 2.43396 8.97527 2.43417C9.0645 2.66899 8.94574 2.93325 8.71029 3.02279C8.6569 3.04313 8.60207 3.05273 8.54806 3.05273H8.54785ZM8.23227 2.71577C8.29867 2.88906 8.49385 2.97632 8.66733 2.91022C8.84072 2.84434 8.92818 2.64968 8.8623 2.4763C8.7958 2.3026 8.60052 2.21524 8.42703 2.28133C8.25365 2.34732 8.16628 2.54208 8.23217 2.71557V2.71577H8.23227ZM11.9995 2.48095C11.8777 2.48095 11.7631 2.43355 11.6767 2.34742C11.5903 2.26119 11.5427 2.14646 11.5425 2.0244C11.5425 1.90193 11.5902 1.7871 11.6766 1.70087C11.763 1.61464 11.8777 1.56714 11.9996 1.56714C12.0003 1.56714 12.0009 1.56714 12.0015 1.56714C12.2535 1.57364 12.4531 1.784 12.4465 2.03587C12.4402 2.27906 12.2447 2.47454 12.0015 2.48084C12.0009 2.48084 12.0002 2.48084 11.9995 2.48084V2.48095ZM11.9991 1.68755C11.9095 1.68765 11.8252 1.72266 11.7617 1.78606C11.6981 1.84968 11.663 1.93415 11.6629 2.02409C11.6629 2.11414 11.6981 2.19872 11.7617 2.26223C11.8252 2.32553 11.9095 2.36054 11.9991 2.36054C12.1779 2.35548 12.3214 2.21163 12.3262 2.03277C12.331 1.8474 12.1843 1.69271 11.9991 1.68755Z" fill="black"></path>
    <path fill-rule="evenodd" clip-rule="evenodd" d="M12.8431 5.31496L12.0001 4.89404L11.1572 5.31496L12.0001 5.73567L12.8431 5.31496Z" fill="#CD3529"></path>
    <path fill-rule="evenodd" clip-rule="evenodd" d="M9.21585 5.58653L8.37639 5.46777L7.77734 6.06724L8.617 6.18599L9.21595 5.58653H9.21585ZM14.8088 5.58663L15.6481 5.46788L16.2472 6.06734L15.4074 6.1861L14.8088 5.58663Z" fill="#3FA0DD"></path>
    <path fill-rule="evenodd" clip-rule="evenodd" d="M14.3865 6.94186L15.6349 6.62968L13.6704 6.11572L14.3865 6.94186Z" fill="black"></path>
    <path fill-rule="evenodd" clip-rule="evenodd" d="M9.61363 6.94186L8.36523 6.62968L10.3296 6.11572L9.61363 6.94186Z" fill="black"></path>
  </g>
  <defs>
    <clipPath id="clip0_971_196265">
      <rect width="18" height="22.9569" fill="white" transform="translate(3 0.5)"></rect>
    </clipPath>
  </defs>
</svg>
