<?xml version="1.0" encoding="UTF-8"?>
<svg xmlns="http://www.w3.org/2000/svg" width="27" height="27" viewBox="0 0 27 27" fill="none">
  <g clip-path="url(#clip0_472_111818)">
    <path d="M17.177 0.219141C15.9651 1.06043 14.7967 1.45238 13.5002 1.45238C12.2037 1.45238 11.0352 1.06043 9.82325 0.219141L9.50754 0L9.1871 0.212191C7.81728 1.11919 6.7043 1.28515 5.00614 1.28515C4.42064 1.28515 3.79112 1.17469 3.18572 0.965549L2.7824 0.826335L2.53704 1.17532C2.40656 1.36097 2.30957 1.47881 2.21585 1.59275C2.10033 1.73312 1.99124 1.86581 1.86318 2.07179L1.65805 2.4016L1.89162 2.71194C2.92951 4.09124 3.32114 5.51013 3.32114 6.84582C3.32114 9.33662 1.95922 11.5377 0.886578 12.6507L0.5 13.0518L0.894265 13.4452C1.10572 13.6563 1.4824 14.0471 1.79389 14.3745L1.78136 14.5461L1.77862 14.5774C1.76588 14.8154 1.75935 15.0538 1.75925 15.2921C1.75925 17.8216 2.50692 19.9247 3.98657 21.5514C5.69968 23.4348 8.37824 24.5591 11.5439 24.7341C12.3301 25.4501 13.129 26.0443 13.1647 26.0709L13.5032 26.3218L13.8412 26.0699C13.8767 26.0434 14.6712 25.4496 15.4565 24.7339C18.6222 24.559 21.3006 23.4346 23.0137 21.5513C24.4933 19.9246 25.2411 17.8215 25.2411 15.2922C25.2411 15.0576 25.2345 14.8193 25.2217 14.5773L25.2213 14.5717L25.2184 14.5406C25.2184 14.5406 25.2073 14.387 25.2064 14.3745C25.4947 14.0714 25.8836 13.6671 26.1059 13.4451L26.5 13.0517L26.1136 12.6507C25.0411 11.5376 23.6792 9.33641 23.6792 6.84551C23.6792 5.50992 24.0707 4.09092 25.1085 2.71183L25.342 2.4016L25.137 2.07179C25.0089 1.8657 24.8998 1.73302 24.7843 1.59254C24.6906 1.4786 24.5936 1.36076 24.4633 1.17521L24.2179 0.826124L23.8146 0.965444C23.2091 1.17458 22.5796 1.28505 21.9941 1.28505C20.2957 1.28505 19.1827 1.11908 17.813 0.212086L17.4925 0L17.1768 0.219141H17.177Z" fill="black"></path>
    <path d="M13.5027 25.6156C13.5027 25.6156 12.5978 24.9444 11.7803 24.1807C6.43227 23.959 2.00679 20.9599 2.34493 14.6075C2.36493 14.4398 2.34798 14.4512 2.37694 14.1652C2.07029 13.8408 1.56282 13.3114 1.29492 13.044C3.21328 11.0533 5.45176 6.49999 2.34472 2.37106C2.54901 2.04261 2.69686 1.93372 3.00098 1.50113C3.62197 1.71553 4.31256 1.8518 5.00642 1.8518C6.7882 1.8518 8.00469 1.67499 9.50035 0.684586C10.6828 1.50544 11.965 2.01902 13.5006 2.01902C15.0362 2.01902 16.3183 1.50544 17.5006 0.684586C18.9962 1.67499 20.2128 1.8518 21.9947 1.8518C22.6883 1.8518 23.3791 1.71563 24.0001 1.50113C24.3041 1.93362 24.452 2.0425 24.6562 2.37106C21.5492 6.49999 23.7879 11.0533 25.7061 13.044C25.4382 13.3114 24.9306 13.8408 24.6241 14.1652C24.6529 14.4511 24.6362 14.4398 24.6561 14.6075C24.9942 20.9599 20.5686 23.959 15.2208 24.1807C14.4032 24.9444 13.5028 25.6156 13.5028 25.6156H13.5027Z" fill="#E2B900"></path>
    <path d="M3.35871 14.2286H3.28321L3.25099 14.5019L3.22782 14.6778C3.10303 17.1248 3.71307 19.1017 5.04076 20.5579C6.56359 22.2284 9.0308 23.1801 12.1757 23.3104C12.1787 23.3104 12.2285 23.3108 12.2285 23.3108C13.1721 23.316 14.0633 23.3208 14.8215 23.3105C17.9686 23.1801 20.4358 22.2284 21.9587 20.5579C23.2864 19.1017 23.8964 17.1249 23.772 14.6823C23.7717 14.6778 23.7483 14.501 23.7483 14.501L23.7164 14.2318L23.6406 14.2286H3.35871Z" fill="black"></path>
    <path d="M3.43438 14.3985L3.41911 14.5282C3.41911 14.5282 3.39763 14.6912 3.39742 14.6912C3.3871 14.8916 3.38184 15.0922 3.38184 15.2929C3.38184 17.4124 3.98103 19.143 5.16666 20.4435C5.45004 20.7544 5.76733 21.0397 6.11631 21.2991V14.3986H3.43438V14.3985ZM23.6029 14.6955L23.5808 14.5274L23.5655 14.3985H20.8837V21.2989C21.2327 21.0397 21.55 20.7544 21.8334 20.4434C23.0193 19.1427 23.6185 17.4118 23.6185 15.295C23.6185 15.0986 23.6133 14.8987 23.6029 14.6954V14.6955Z" fill="#004B95"></path>
    <path d="M9.06962 14.3985H6.11621V21.2989C6.93349 21.9063 7.92589 22.3702 9.06962 22.6827V14.3985ZM17.93 14.3985V22.6826C19.0741 22.37 20.0664 21.9062 20.8835 21.2991V14.3986H17.93V14.3985Z" fill="#A4234B"></path>
    <path d="M10.6695 18.6487C10.6695 17.6264 11.2115 16.7308 12.0238 16.2331V14.3984H9.07031V22.6826C9.96573 22.9272 10.9538 23.0786 12.0238 23.1327V21.0643C11.2116 20.5668 10.6695 19.671 10.6695 18.6486V18.6487ZM14.9772 14.3985V16.2331C15.7895 16.7307 16.3316 17.6263 16.3316 18.6487C16.3316 19.6711 15.7895 20.5668 14.9772 21.0644V23.1327C16.0473 23.0784 17.0355 22.927 17.9307 22.6825V14.3985H14.9772Z" fill="#004B95"></path>
    <path d="M14.9768 16.2332V14.3985H12.0234V16.2331C12.4533 15.9696 12.9589 15.8177 13.5 15.8177C14.0413 15.8177 14.5469 15.9697 14.9768 16.2332ZM12.0234 21.0644V23.1328C12.0756 23.1356 12.1275 23.1384 12.18 23.1406L12.2298 23.141C13.1726 23.146 14.063 23.1509 14.8172 23.1407C14.8707 23.1385 14.9237 23.1355 14.9769 23.1327V21.0644C14.547 21.3278 14.0413 21.4799 13.5001 21.4799C12.959 21.4799 12.4534 21.3278 12.0235 21.0644H12.0234Z" fill="#A4234B"></path>
    <path d="M12.0554 19.1625C11.5432 18.696 11.5416 17.7479 11.6791 17.1182C11.7173 16.9429 11.7655 16.7712 11.8152 16.5749C11.2129 17.0648 10.8281 17.8118 10.8281 18.6487C10.8277 18.992 10.8935 19.3321 11.0222 19.6505C11.0677 19.6565 11.114 19.6596 11.161 19.6596C11.5566 19.6596 11.8797 19.4768 12.0554 19.1625ZM14.8062 19.367C14.7185 19.8148 14.2396 20.1504 13.7883 20.4194C13.3232 20.6968 12.5733 20.8401 12.0089 20.8663C12.4348 21.1532 12.9479 21.3208 13.5001 21.3208C14.5077 21.3208 15.3852 20.7629 15.8401 19.9393C15.7603 19.2801 15.1338 19.2027 14.8061 19.367H14.8062Z" fill="#E2B900"></path>
    <path d="M11.802 20.7115C12.3594 20.7159 13.2161 20.5757 13.7071 20.2828C14.3418 19.9041 14.8349 19.5 14.6006 18.9398C14.4823 18.6567 14.0886 18.3291 13.5783 18.6904C13.5457 19.1086 13.0295 19.4775 12.6589 19.4299C12.4711 19.4057 12.3137 19.3466 12.1826 19.2607C11.9743 19.6167 11.6014 19.8186 11.1613 19.8186C11.1396 19.8186 11.1181 19.818 11.0967 19.8169C11.2649 20.1622 11.5054 20.4673 11.8019 20.7114L11.802 20.7115ZM13.4934 16.9836C13.9354 16.8004 14.548 17.0386 15.0147 17.2991C15.4553 17.5453 15.9154 18.0048 16.1676 18.4873C16.0845 17.0941 14.9344 15.9888 13.5235 15.9769C13.1018 16.2537 13.1594 16.7757 13.4935 16.9837L13.4934 16.9836Z" fill="#E2B900"></path>
    <path d="M13.4186 18.6885C12.8715 18.2894 12.9052 17.6616 13.1405 17.2885C13.1982 17.197 13.2655 17.125 13.3402 17.07C13.022 16.8161 12.9584 16.3233 13.2666 15.9868C12.8188 16.0254 12.3881 16.1771 12.0149 16.4274C11.8982 16.9292 11.7496 17.3875 11.7571 17.9116C11.7671 18.6179 12.0594 19.1929 12.679 19.2723C12.968 19.3094 13.3851 19.0018 13.4186 18.6885Z" fill="#E2B900"></path>
    <path d="M16.1613 18.8945C16.0088 18.3416 15.4607 17.7305 14.9372 17.4381C14.2918 17.0775 13.5857 16.8815 13.2752 17.3735C13.0759 17.6894 13.0481 18.2109 13.5002 18.5509C14.1148 18.1264 14.6056 18.5392 14.7473 18.8786C14.7928 18.9873 14.8159 19.0907 14.82 19.189C15.1827 19.0614 15.7722 19.1436 15.9537 19.7097C16.0658 19.4507 16.1358 19.1755 16.1613 18.8946V18.8945Z" fill="#E2B900"></path>
    <path d="M11.0643 11.1482H9.19659V13.7743H9.76566V12.6908H10.5406V12.1364H9.76566V11.7063H11.0917V11.1483H11.0643V11.1482ZM12.1504 12.4613C12.1504 13.2835 12.6024 13.8148 13.3018 13.8148C13.7578 13.8148 14.0863 13.6142 14.2779 13.2189L14.2889 13.1962L13.8102 12.9123L13.7962 12.9358C13.6597 13.1644 13.5298 13.2493 13.3166 13.2493C12.9683 13.2493 12.7342 12.9325 12.7342 12.4612C12.7342 11.9898 12.956 11.6731 13.313 11.6731C13.5203 11.6731 13.6661 11.7596 13.7586 11.9377L13.7708 11.9608L14.2976 11.7178L14.2854 11.6927C14.1004 11.3101 13.7666 11.1079 13.3203 11.1079C12.6316 11.1079 12.1505 11.6644 12.1505 12.4613H12.1504ZM17.4631 12.3521C17.6221 12.2393 17.7155 12.0623 17.7155 11.8551C17.7155 11.4125 17.4003 11.1482 16.8725 11.1482H15.666V13.7743H16.8615C17.4514 13.7743 17.8035 13.4537 17.8035 12.9168C17.8035 12.6653 17.6779 12.4639 17.4632 12.3521H17.4631ZM16.224 11.6769H16.8504C17.106 11.6769 17.1388 11.7937 17.1388 11.8956C17.1388 12.0402 17.0528 12.1106 16.8761 12.1106H16.224V11.6768V11.6769ZM16.8797 13.2309H16.224V12.6209H16.8797C17.1117 12.6209 17.2197 12.7173 17.2197 12.9241C17.2197 13.1309 17.1022 13.2309 16.8797 13.2309ZM17.4708 1.75976C16.1985 2.52944 14.8995 2.90412 13.4998 2.90507C12.1002 2.90412 10.8014 2.52944 9.52904 1.75976L9.4865 1.73407L9.44332 1.7585C7.99389 2.57757 6.71864 2.73784 5.00563 2.73784C4.59399 2.73784 4.16929 2.69646 3.74322 2.61495L3.55957 2.57978L3.65392 2.74121C5.41379 5.75275 4.78902 8.66435 3.9551 10.5767L3.90329 10.6956H23.0966L23.0447 10.5767C22.2108 8.66446 21.5861 5.75285 23.3458 2.74121L23.4401 2.57978L23.2566 2.61495C22.8305 2.69656 22.4058 2.73784 21.9942 2.73784C20.2812 2.73784 19.0059 2.57767 17.5565 1.7585L17.5132 1.73407L17.4707 1.75976H17.4708Z" fill="black"></path>
    <path d="M7.61282 2.66539C6.80892 2.8561 5.97595 2.9077 5.00534 2.9077C4.63825 2.9077 4.26083 2.86968 3.88184 2.80639C4.33149 3.6104 4.61761 4.40599 4.77988 5.17714H7.61282V2.66528V2.66539ZM13.4147 5.17725V3.07355C12.3983 3.06197 11.4338 2.85568 10.4938 2.44867V5.17735H13.4147V5.17725ZM4.86034 8.0582C4.72649 8.98037 4.45954 9.81628 4.15974 10.5256H7.61293V8.0582H4.86034ZM10.4939 10.5256H13.4149V8.0582H10.4939V10.5256Z" fill="white"></path>
    <path d="M10.4941 5.17725V2.44867C10.1543 2.30166 9.81779 2.12907 9.48334 1.92899C8.84371 2.28555 8.23725 2.51743 7.61321 2.66539V5.17725H4.78027C4.89421 5.71863 4.95161 6.27032 4.9515 6.82349C4.9515 7.24903 4.91822 7.66152 4.86062 8.0582H7.61321V10.5256H10.4942V8.0582H13.4151V5.17725H10.4942H10.4941Z" fill="#DB2F36"></path>
    <path d="M17.5166 1.92899L17.5124 1.93141V10.5257H18.5252V2.40033C18.1934 2.27449 17.8597 2.12033 17.5166 1.92899ZM15.4869 2.80808V10.5258H16.4996V2.4512C16.1707 2.59368 15.8324 2.71288 15.4869 2.80797V2.80808ZM13.585 3.07366V10.5258H14.4742V3.01111C14.1792 3.04923 13.8823 3.07008 13.585 3.07366ZM19.5381 2.69846V10.5257H20.5508V2.85062C20.2025 2.81829 19.8673 2.76912 19.5381 2.69846ZM22.0485 6.8236C22.0485 5.56625 22.3392 4.19864 23.1179 2.8065C22.7389 2.86979 22.3614 2.9078 21.9944 2.9078C21.8474 2.9078 21.7047 2.90612 21.5637 2.90338V10.5257H22.8401C22.4112 9.51111 22.0485 8.23838 22.0485 6.8236Z" fill="#FFDF00"></path>
    <path d="M20.5513 2.85062V10.5257H21.564V2.90338C21.2111 2.89664 20.8752 2.88064 20.5513 2.85062ZM14.4746 3.01111V10.5257H15.4873V2.80798C15.1549 2.89928 14.8165 2.96709 14.4746 3.01111ZM16.5002 2.4513V10.5257H17.5129V1.9313C17.1778 2.1316 16.8405 2.30419 16.5002 2.4512V2.4513ZM18.5257 2.40034V10.5257H19.5386V2.69835C19.1939 2.62474 18.8553 2.52512 18.5257 2.40034Z" fill="#DB2F36"></path>
  </g>
  <defs>
    <clipPath id="clip0_472_111818">
      <rect width="26" height="26.3218" fill="white" transform="translate(0.5)"></rect>
    </clipPath>
  </defs>
</svg>
