<?xml version="1.0" encoding="UTF-8"?>
<svg xmlns="http://www.w3.org/2000/svg" width="32" height="32" viewBox="0 0 32 32" fill="none">
  <g clip-path="url(#clip0_32_22795)">
    <mask id="mask0_32_22795" style="mask-type:luminance" maskUnits="userSpaceOnUse" x="0" y="0" width="32" height="32">
      <path d="M32 0H0V32H32V0Z" fill="white"></path>
    </mask>
    <g mask="url(#mask0_32_22795)">
      <path d="M23.3 7.47C25.5 6.33 27.86 6.22 27.86 10.49C27.86 18.21 20.14 24.28 20.14 24.28L14.07 25.38L7.45 24.28C5.24 20.24 4.76 14.23 4.68 10.68L23.31 7.47H23.3Z" fill="#C03A2B"></path>
      <path d="M15.03 20.14L17.14 18.66C17.31 18.55 17.4 18.36 17.39 18.16C17.37 17.96 17.25 17.78 17.07 17.7C16.89 17.62 16.67 17.64 16.51 17.76L14.07 19.47L11.63 17.76C11.38 17.6 11.05 17.66 10.88 17.91C10.71 18.15 10.76 18.49 11 18.67L13.11 20.15L11 21.63C10.83 21.74 10.74 21.93 10.75 22.13C10.77 22.33 10.89 22.51 11.07 22.59C11.25 22.67 11.47 22.65 11.63 22.53L14.07 20.82L16.51 22.53C16.67 22.65 16.89 22.67 17.07 22.59C17.25 22.51 17.38 22.33 17.39 22.13C17.41 21.93 17.31 21.74 17.14 21.63L15.03 20.15V20.14Z" fill="white"></path>
      <path d="M20.14 24.28V30.9C20.14 31.51 19.65 32 19.04 32H8.56C7.95 32 7.46 31.51 7.46 30.9V24.28H20.15H20.14Z" fill="#E64C3C"></path>
      <path d="M11.86 26.48H20.14V29.79H11.86C11.56 29.79 11.31 29.54 11.31 29.24V27.03C11.31 26.73 11.56 26.48 11.86 26.48Z" fill="#F9EAB0"></path>
      <path d="M23.3 7.47C23.25 8.31 23.11 9.14 22.88 9.94C20.33 19.35 7.48 17.21 4.67 10.68C4.34 9.92 4.15 9.11 4.13 8.29C3.83 -0.54 13.76 2.23517e-08 13.76 2.23517e-08C13.76 2.23517e-08 23.75 -0.45 23.3 7.47Z" fill="#E64C3C"></path>
      <path d="M12.42 2.24C12.4 2.09 12.32 1.96 12.21 1.88C12.09 1.79 11.95 1.75 11.8 1.77C9.55 2.08 6.72 3.16 5.97 6.54C5.9 6.84 6.09 7.13 6.39 7.2C6.43 7.2 6.47 7.21 6.51 7.21C6.77 7.21 6.99 7.03 7.05 6.78C7.66 4.02 10.05 3.12 11.95 2.86C12.1 2.84 12.23 2.76 12.31 2.65C12.4 2.53 12.44 2.39 12.42 2.24Z" fill="white"></path>
    </g>
  </g>
  <defs>
    <clipPath id="clip0_32_22795">
      <rect width="32" height="32" fill="white"></rect>
    </clipPath>
  </defs>
</svg>
