<?xml version="1.0" encoding="UTF-8"?>
<svg xmlns="http://www.w3.org/2000/svg" width="22" height="22" viewBox="0 0 22 22" fill="none">
  <g clip-path="url(#clip0_413_137158)">
    <path d="M8.03732 9.17888C8.47752 8.54616 9.14698 8.11219 9.87013 7.86438C9.73308 7.96564 9.61561 8.08829 9.50003 8.21219C9.89792 8.17634 10.3078 8.2015 10.676 8.36817C10.7202 8.72101 10.7499 9.07511 10.8036 9.42669C10.8731 9.07574 10.892 8.71849 10.9413 8.36502C11.3095 8.20275 11.7168 8.17634 12.1135 8.21219C12.0061 8.10087 11.9006 7.98891 11.7895 7.88199C12.4949 8.12791 13.1429 8.56063 13.573 9.177C13.4454 9.11599 13.321 9.05309 13.1953 8.98957C13.3494 9.35373 13.4473 9.74808 13.4132 10.1462C13.0924 10.2965 12.7558 10.4192 12.4513 10.6016C12.8006 10.5475 13.1435 10.4651 13.4903 10.3978C13.7581 10.7003 13.8976 11.0783 14.0183 11.4569C14.0827 11.3255 14.1452 11.194 14.2109 11.0638C14.197 11.8161 13.9665 12.5626 13.513 13.1689C13.5433 13.0236 13.5717 12.8777 13.6002 12.7324C13.2926 12.9884 12.9471 13.2123 12.5492 13.2947C12.3105 13.0381 12.0901 12.7626 11.828 12.5287C11.9751 12.8463 12.1678 13.1413 12.3351 13.4482C12.1343 13.8017 11.8135 14.0589 11.4749 14.2734C11.6196 14.2948 11.7655 14.3149 11.9101 14.3363C11.5577 14.4243 11.1996 14.508 10.8339 14.508C10.4493 14.5155 10.0716 14.43 9.7015 14.335C9.84739 14.3136 9.99391 14.2941 10.1398 14.2727C9.79939 14.0595 9.47603 13.8017 9.27772 13.4463C9.44698 13.14 9.63771 12.8457 9.78423 12.5274C9.52276 12.762 9.30235 13.0369 9.06425 13.2941C8.6651 13.2136 8.31963 12.9891 8.01269 12.7324C8.04111 12.8796 8.06953 13.0274 8.10174 13.174C7.64827 12.5639 7.40828 11.8142 7.40386 11.0563C7.46323 11.194 7.5308 11.3286 7.59901 11.4613C7.70638 11.077 7.85795 10.7016 8.12258 10.3965C8.46805 10.4626 8.80973 10.5443 9.15709 10.5997C8.85583 10.4148 8.5192 10.2959 8.20026 10.1443C8.16363 9.74682 8.26405 9.3531 8.41689 8.98894C8.29058 9.05309 8.16426 9.11725 8.03669 9.17825M9.31056 10.6292C9.47792 11.2255 9.69392 11.8079 9.87518 12.3991C10.4973 12.401 11.1187 12.4041 11.7402 12.3978C11.9234 11.8117 12.1191 11.2299 12.3099 10.6468C11.8179 10.2707 11.3069 9.9223 10.8112 9.55185C10.3072 9.90595 9.81581 10.2764 9.31119 10.6292H9.31056Z" fill="white"></path>
    <path d="M9.07435 0.13397C9.37814 0.0421432 9.69202 -0.0157201 10.011 0.00377729C10.2857 1.44407 10.5503 2.88499 10.8213 4.32591C10.8453 4.42843 10.8636 4.59133 10.7107 4.58756C9.37877 4.83285 8.15163 5.6184 7.40386 6.74737C7.30849 6.88196 7.24344 7.03983 7.12028 7.15241C6.96555 7.12033 6.83671 7.02159 6.70092 6.94737C5.65315 6.33792 4.60349 5.73224 3.55446 5.12468C3.39657 5.03096 3.22794 4.95235 3.0871 4.83347C3.0852 4.76492 3.10415 4.70077 3.14394 4.6429C4.42286 2.44032 6.60493 0.783045 9.07435 0.13397Z" fill="#7C227C"></path>
    <path d="M11.0884 1.15915C13.9027 0.701905 16.895 1.57174 19.031 3.44915C19.1036 3.50261 19.1137 3.60136 19.0398 3.65859C18.1007 4.74856 17.1515 5.8291 16.2104 6.91781C16.1403 7.01152 16.0077 7.11781 15.9123 6.98951C15.0022 6.20206 13.8073 5.75111 12.601 5.75362C12.2821 5.74293 11.9682 5.81211 11.6505 5.80771C11.4244 4.33597 11.2128 2.86234 10.9912 1.38998C10.9709 1.30507 10.9672 1.16041 11.0884 1.15915Z" fill="#C32B26"></path>
    <path d="M1.47976 4.85989C1.56629 4.85045 1.64018 4.9146 1.7166 4.94605C2.97026 5.62217 4.23087 6.28634 5.4839 6.96372C5.60452 7.0002 5.60579 7.1285 5.5401 7.2153C4.89085 8.41722 4.76012 9.88644 5.20348 11.1789C5.24327 11.3016 5.30074 11.4204 5.314 11.5506C5.28306 11.6381 5.17822 11.6481 5.10685 11.6865C3.78245 12.1897 2.46122 12.7004 1.13872 13.2073C1.05724 13.2318 0.929667 13.2897 0.901246 13.1689C-0.167997 10.5569 0.0265259 7.4826 1.36166 5.00077C1.38818 4.94479 1.4286 4.89636 1.47976 4.86051V4.85989Z" fill="#3C5399"></path>
    <path d="M18.7146 5.14794C18.7834 5.07058 18.8807 5.10832 18.9369 5.17813C21.0091 7.11215 22.1636 9.98267 21.9817 12.8067C21.9924 12.9412 21.8251 12.9111 21.7411 12.9148C20.2916 12.8406 18.8415 12.7777 17.3927 12.7016C17.2456 12.7111 17.2626 12.5299 17.2645 12.4318C17.2961 11.6576 17.1338 10.8789 16.8123 10.1732C16.5268 9.52354 16.0715 8.96944 15.5681 8.47508C15.6521 8.37068 15.7355 8.26753 15.8277 8.17067C16.794 7.16687 17.747 6.14986 18.7146 5.14794Z" fill="#D57C2C"></path>
    <path d="M10.1108 7.51154C10.8604 7.37128 11.6556 7.46059 12.349 7.78199C13.2509 8.19206 13.9722 8.97888 14.2961 9.91224C14.6277 10.8456 14.5589 11.9136 14.1029 12.7935C13.6917 13.6054 12.9654 14.2551 12.109 14.5727C11.3827 14.8476 10.5686 14.8828 9.82023 14.6759C8.85773 14.4149 8.019 13.7432 7.54912 12.8677C7.11397 12.072 6.99902 11.1123 7.21944 10.2336C7.54849 8.8707 8.72446 7.76123 10.1101 7.51154M8.03732 9.17888C8.1649 9.11724 8.29121 9.05309 8.41752 8.98957C8.26468 9.35373 8.16427 9.74745 8.2009 10.1449C8.52047 10.2965 8.85709 10.4154 9.15772 10.6003C8.81036 10.545 8.46868 10.4632 8.12321 10.3972C7.85859 10.7022 7.70701 11.0777 7.59964 11.462C7.5308 11.3286 7.46386 11.1947 7.40449 11.0569C7.40891 11.8148 7.64891 12.5645 8.10237 13.1746C8.07016 13.028 8.04174 12.8802 8.01332 12.7331C8.32026 12.9897 8.66636 13.2142 9.06488 13.2947C9.30298 13.0375 9.5234 12.7626 9.78486 12.528C9.63834 12.8463 9.44761 13.1406 9.27835 13.4469C9.47666 13.8023 9.80002 14.0602 10.1404 14.2734C9.99455 14.2948 9.84802 14.3142 9.70213 14.3356C10.0722 14.4312 10.4499 14.5161 10.8345 14.5086C11.2002 14.5086 11.5583 14.4243 11.9107 14.3369C11.7661 14.3155 11.6202 14.2954 11.4756 14.274C11.8141 14.0595 12.1349 13.8023 12.3358 13.4488C12.1684 13.1419 11.9758 12.8469 11.8286 12.5293C12.0907 12.7633 12.3111 13.0387 12.5499 13.2954C12.9484 13.213 13.2932 12.9891 13.6008 12.7331C13.5724 12.8784 13.544 13.0243 13.5136 13.1696C13.9671 12.5633 14.1976 11.8167 14.2115 11.0645C14.1452 11.1947 14.0827 11.3261 14.0189 11.4576C13.8983 11.0789 13.7587 10.7009 13.4909 10.3984C13.1442 10.4657 12.8012 10.5481 12.452 10.6022C12.757 10.4198 13.0936 10.2972 13.4138 10.1468C13.448 9.74871 13.3501 9.35436 13.196 8.9902C13.3216 9.05435 13.4461 9.11724 13.5736 9.17762C13.1435 8.56125 12.4955 8.12854 11.7901 7.88262C11.9012 7.98954 12.0067 8.10149 12.1141 8.21282C11.7175 8.17697 11.3101 8.20338 10.9419 8.36565C10.892 8.71912 10.8731 9.07636 10.8042 9.42732C10.7505 9.07573 10.7208 8.72164 10.6766 8.3688C10.3084 8.20212 9.89855 8.17697 9.50066 8.21282C9.61624 8.08891 9.73308 7.96627 9.87076 7.86501C9.14761 8.11281 8.47815 8.54679 8.03795 9.17951L8.03732 9.17888Z" fill="#010000"></path>
    <path d="M9.31182 10.6299C9.81644 10.277 10.3078 9.90657 10.8118 9.55247C11.3076 9.92293 11.8185 10.2714 12.3105 10.6475C12.1198 11.2311 11.924 11.8129 11.7408 12.3985C11.1194 12.4048 10.4979 12.4016 9.87581 12.3997C9.69455 11.8079 9.47855 11.2255 9.31119 10.6299H9.31182Z" fill="#020001"></path>
    <path d="M3.84814 12.8054C3.99024 12.7419 4.13424 12.6777 4.28771 12.6456C4.40518 12.7815 4.46455 12.9551 4.54728 13.1123C5.17885 14.3495 6.35798 15.2665 7.68996 15.6501C7.66217 15.7822 7.63438 15.9143 7.59649 16.0439C7.23081 17.1929 6.87524 18.3439 6.51398 19.4943C6.45272 19.6855 6.40851 19.8842 6.32198 20.066C6.25757 20.1559 6.15209 20.0924 6.06809 20.0767C3.36183 19.2339 1.0724 17.1558 -0.000631332 14.5407V14.4841C1.26819 13.896 2.56795 13.3733 3.84751 12.806L3.84814 12.8054Z" fill="#5B82BD"></path>
    <path d="M15.8864 13.2494C15.9799 13.2023 16.0866 13.2281 16.1871 13.2299C17.6409 13.352 19.0961 13.4476 20.5493 13.5752C20.5569 13.6513 20.5613 13.7274 20.5632 13.8048C20.356 16.6005 18.846 19.2672 16.5609 20.9019C16.4593 21.0006 16.3551 20.8805 16.2995 20.7987C15.45 19.6345 14.5867 18.4798 13.7397 17.3137C13.6355 17.2112 13.7486 17.1074 13.8338 17.0483C14.8614 16.2954 15.5732 15.1344 15.7904 13.8834C15.8315 13.6734 15.8207 13.4545 15.8871 13.2494H15.8864Z" fill="#F8E437"></path>
    <path d="M12.296 16.4011C12.3781 16.3451 12.4343 16.4558 12.4791 16.5061C13.2736 17.6798 14.0618 18.8578 14.8563 20.0314C14.8942 20.0867 14.9271 20.1452 14.9568 20.205C14.9606 20.2993 14.862 20.3402 14.8014 20.3911C13.5736 21.2006 12.1621 21.7321 10.7025 21.927C10.4556 21.9767 10.2042 21.9943 9.95286 21.9654C9.44824 21.9698 8.94172 21.9415 8.44026 21.9994C7.85669 21.8805 7.25481 21.8314 6.68956 21.634C6.58598 21.6057 6.63966 21.4755 6.65166 21.4019C7.03755 20.0245 7.4146 18.6439 7.79985 17.2659C7.80301 17.1231 7.94574 17.0734 8.06195 17.1313C8.98846 17.3841 9.98634 17.3602 10.9015 17.0722C11.401 16.9269 11.8532 16.6671 12.296 16.4005V16.4011Z" fill="#61A244"></path>
  </g>
  <defs>
    <clipPath id="clip0_413_137158">
      <rect width="22" height="22" fill="white"></rect>
    </clipPath>
  </defs>
</svg>
