<?xml version="1.0" encoding="UTF-8"?>
<svg xmlns="http://www.w3.org/2000/svg" width="25" height="26" viewBox="0 0 25 26" fill="none">
  <g clip-path="url(#clip0_472_111333)">
    <path d="M24.9921 16.0034C24.9869 15.9933 24.9767 15.9831 24.9665 15.978L23.4108 15.3838C23.4518 15.2365 23.5183 15.0994 23.6053 14.9724L24.4087 15.3228C24.5059 15.3635 24.6134 15.3279 24.6646 15.2365C24.7208 15.1552 24.7669 15.0638 24.8027 14.9724C24.8795 14.7997 24.9 14.6067 24.8539 14.4239C24.8027 14.2563 24.6748 14.1242 24.511 14.0582L22.3669 13.0831L22.3515 13.078C22.2185 13.0221 22.065 13.012 21.9268 13.0628V12.8647C21.9268 12.6971 21.9217 12.5244 21.9115 12.3517C21.9012 12.179 21.8859 11.9911 21.8654 11.8083C21.7886 11.0719 21.63 10.3507 21.3895 9.64979L21.3537 9.55329C20.9341 8.39024 20.6014 7.46589 20.6117 6.36886C20.6168 5.54101 21.6658 4.37288 22.065 3.99704L22.4437 3.64152L18.4726 0.0507884L18.1605 0.253942C17.4338 0.726273 16.4923 0.990373 15.5148 0.990373C14.4863 0.990373 13.514 0.705958 12.7771 0.192996L12.5008 0L12.2295 0.192996C11.4927 0.705958 10.5204 0.990373 9.4918 0.990373C8.46323 0.990373 7.57282 0.731352 6.84616 0.253942L6.53401 0.0507884L2.94679 3.29109L2.56299 3.63645L2.94167 3.99196C3.34594 4.37288 4.38986 5.53593 4.39498 6.36378C4.40522 7.46589 4.07259 8.38516 3.65298 9.54821L3.61715 9.64471C3.37664 10.3456 3.21801 11.0668 3.14125 11.8032C3.12078 11.9861 3.10543 12.1689 3.09519 12.3466C3.08496 12.5244 3.07984 12.692 3.07984 12.8596V13.0577C2.94167 13.012 2.79327 13.0171 2.6551 13.0729L2.63975 13.078L0.490492 14.0582C0.326739 14.1192 0.198807 14.2563 0.147634 14.4239C0.101578 14.6067 0.122047 14.7997 0.198807 14.9724C0.234628 15.0638 0.280683 15.1552 0.336973 15.2365C0.388146 15.3228 0.500727 15.3584 0.597955 15.3178L1.39113 14.9673C1.47813 15.0943 1.54465 15.2314 1.58559 15.3787L0.0294244 15.9729C0.0191898 15.978 0.00895525 15.9882 0.00383797 15.9983C-0.00127932 16.0085 -0.00127932 16.0237 0.00383797 16.039L0.0959491 16.2726C2.0047 21.0315 6.50791 24.2718 11.661 24.5917L12.4644 25.3789C12.4849 25.3942 12.5156 25.3942 12.531 25.3789L13.3344 24.5917C18.4875 24.2718 22.9907 21.0315 24.9046 16.2726L24.9967 16.039C25.0018 16.0288 25.0018 16.0136 24.9916 16.0034H24.9921ZM6.621 19.8024C5.26492 18.8679 4.15959 17.6236 3.38688 16.1812L3.77067 16.044C3.78091 16.0694 3.79626 16.0898 3.80649 16.1101C3.89349 16.2624 3.9856 16.4148 4.08794 16.5621L4.12888 16.623L4.134 16.6332C5.85853 19.198 8.3967 20.8029 11.2829 21.1432L11.7434 21.6003C9.9063 21.4733 8.13572 20.8486 6.621 19.8024ZM18.3754 19.8024C16.8607 20.8486 15.0901 21.4733 13.2479 21.6003L13.7084 21.1432C16.5946 20.8029 19.1328 19.198 20.8573 16.6332L20.8624 16.623L20.9034 16.5621C21.0057 16.4148 21.0978 16.2675 21.1848 16.1151C21.2002 16.0898 21.2104 16.0694 21.2206 16.0491L21.6044 16.1862C20.8368 17.6286 19.7264 18.8679 18.3754 19.8024Z" fill="#003399"></path>
    <path d="M21.9214 13.1694C21.9828 13.144 22.0493 13.1288 22.1158 13.1288C22.1823 13.1288 22.2489 13.144 22.3103 13.1694L22.3256 13.1745L24.4698 14.1547C24.6079 14.2055 24.7103 14.3172 24.7563 14.4543C24.7922 14.6169 24.7768 14.7845 24.7052 14.9368C24.6694 15.0232 24.6284 15.1044 24.5824 15.1806C24.5568 15.2263 24.5005 15.2466 24.4493 15.2263L23.5691 14.8403L23.5435 14.8708C23.4412 15.013 23.3644 15.1705 23.3133 15.3381L23.17 15.2822C23.216 15.1197 23.2928 14.9622 23.39 14.8251L23.4259 14.7743L22.4075 14.3274C22.3563 14.3071 22.3359 14.2512 22.3512 14.2004L22.3666 14.1598C22.4484 13.9871 22.4792 13.7941 22.4536 13.6011C22.4382 13.4741 22.3717 13.3624 22.2591 13.2964L22.2438 13.2913C22.2028 13.2761 22.1619 13.2659 22.1158 13.2659C22.0442 13.2659 21.9725 13.2862 21.9111 13.3268C21.9214 13.2862 21.9214 13.2253 21.9214 13.1694Z" fill="white"></path>
    <path d="M3.23278 12.3619C3.24302 12.1841 3.25837 12.0064 3.27884 11.8236C3.3556 11.1024 3.51423 10.3862 3.74963 9.7006L3.78545 9.6041C4.21018 8.42581 4.54793 7.4913 4.53769 6.3638C4.53257 5.48009 3.45283 4.27132 3.03321 3.88025L2.77734 3.63647L3.03833 3.39776L6.53343 0.238726L6.74836 0.375855C7.5006 0.863423 8.46777 1.1326 9.48099 1.1326C10.4942 1.1326 11.5433 0.838029 12.3057 0.30983L12.49 0.17778L12.6793 0.30983C13.4469 0.843108 14.4499 1.1326 15.5092 1.1326C16.5684 1.1326 17.4895 0.863423 18.2418 0.375855L18.4567 0.238726L22.2128 3.63647L21.9569 3.88025C21.5424 4.27132 20.4627 5.48009 20.4525 6.3638C20.4422 7.4913 20.78 8.42073 21.2047 9.6041L21.2405 9.7006C21.4759 10.3862 21.6397 11.0973 21.7164 11.8236C21.7369 12.0013 21.7523 12.1841 21.7625 12.3619C21.7727 12.5397 21.7778 12.7022 21.7778 12.8698C21.783 14.0989 21.5424 15.1705 21.0563 16.0441C20.9744 16.1964 20.8823 16.3386 20.7851 16.4808L20.7441 16.5469L20.739 16.557C19.035 19.0914 16.5275 20.6709 13.6721 21.0061H13.6465L12.4951 22.1336L11.3539 21.001H11.3283C8.47289 20.6709 5.96541 19.0914 4.26136 16.5519L4.25624 16.5418L4.2153 16.4808C4.11807 16.3386 4.02596 16.1964 3.94409 16.0441C3.46306 15.1705 3.21743 14.0989 3.22255 12.8698C3.21743 12.7022 3.22255 12.5295 3.23278 12.3619Z" fill="white"></path>
    <path d="M1.45168 14.881L1.43121 14.8505L0.551041 15.2365C0.499868 15.2568 0.443578 15.2365 0.423109 15.1908C0.371936 15.1146 0.330998 15.0282 0.295177 14.9419C0.228652 14.7895 0.208183 14.6219 0.244004 14.4594C0.290059 14.3223 0.392405 14.2105 0.530572 14.1598L2.67472 13.1846L2.69007 13.1795C2.75147 13.1542 2.818 13.1389 2.88452 13.1389C2.95105 13.1389 3.01757 13.1542 3.07386 13.1795C3.07386 13.2354 3.07386 13.2964 3.07898 13.3522C3.01757 13.3116 2.94593 13.2913 2.87429 13.2913C2.82823 13.2913 2.7873 13.3014 2.74636 13.3167L2.73101 13.3218C2.62354 13.3878 2.5519 13.4995 2.53655 13.6265C2.51096 13.8144 2.53655 14.0125 2.62354 14.1852L2.63889 14.2258C2.65936 14.2766 2.63378 14.3324 2.5826 14.3528L1.56426 14.7997L1.60008 14.8505C1.69731 14.9927 1.76896 15.1451 1.82013 15.3076L1.67684 15.3634C1.63079 15.1755 1.55403 15.0181 1.45168 14.881Z" fill="white"></path>
    <path d="M24.8074 16.237C22.9088 20.9654 18.4312 24.1803 13.3088 24.4952C13.2986 24.4952 13.2832 24.5003 13.2781 24.5105L12.4952 25.2774L11.7173 24.5105C11.7071 24.5003 11.6969 24.4952 11.6866 24.4952C6.56934 24.1803 2.09172 20.9654 0.188087 16.237L0.111328 16.0491L3.064 14.9216C3.14076 14.8911 3.22264 14.9165 3.26869 14.9826V14.9876C3.2994 15.0384 3.34034 15.0841 3.38127 15.1248L3.45803 15.3533C3.3301 15.2974 3.22264 15.2009 3.151 15.0841L3.14076 15.0689C3.13564 15.0587 3.12029 15.0537 3.10494 15.0587L2.89513 15.14L2.80302 15.1806L2.81837 15.2263L2.83884 15.272C2.92584 15.4854 3.01795 15.6936 3.12029 15.8967L3.16635 15.9882L3.26358 15.9526L3.65249 15.8155C3.67296 15.8612 3.69855 15.9069 3.71902 15.9526L3.33522 16.0897L3.23799 16.1253C3.25334 16.1558 3.26869 16.1862 3.28405 16.2116C4.06187 17.6794 5.18768 18.9339 6.55911 19.8836C8.11988 20.9654 9.95187 21.5952 11.8504 21.7069L12.009 21.8644C10.0235 21.778 8.09941 21.133 6.467 20.0055C4.76294 18.8323 3.4478 17.1868 2.67509 15.2771L2.65974 15.2314L0.305785 16.1253L0.321137 16.171C2.20942 20.874 6.67169 24.0584 11.7634 24.3378L12.4542 25.0133L12.49 25.0437L13.2167 24.3276C18.3033 24.0483 22.7707 20.8638 24.659 16.1659L24.6743 16.1202L22.3204 15.2213L22.305 15.267C21.5323 17.1766 20.2171 18.8222 18.5131 19.9954C16.8807 21.1229 14.9566 21.7679 12.966 21.8542L13.1297 21.6917C15.0282 21.58 16.8602 20.9502 18.421 19.8684C19.7924 18.9237 20.9131 17.6642 21.696 16.1964L21.7421 16.1101L21.6449 16.0745L21.2611 15.9374C21.2815 15.8917 21.3071 15.846 21.3276 15.8002L21.7165 15.9374L21.8137 15.9729L21.8598 15.8815C21.9621 15.6784 22.0543 15.465 22.1413 15.2568L22.1617 15.2111L22.1771 15.1654L22.085 15.1298L21.8752 15.0486C21.8649 15.0435 21.8496 15.0486 21.8393 15.0587L21.8291 15.074C21.7575 15.1908 21.65 15.2873 21.5221 15.3432C21.5476 15.267 21.5732 15.1959 21.5988 15.1146C21.6449 15.074 21.6807 15.0232 21.7165 14.9724V14.9673C21.7626 14.9013 21.8444 14.8708 21.9212 14.9064L24.8739 16.0339L24.8074 16.237Z" fill="white"></path>
    <path d="M12.5572 23.5607C12.5776 23.5607 12.5981 23.5759 12.5981 23.6013V23.6978C12.5981 23.7181 12.5827 23.7385 12.5623 23.7385L12.1017 23.7334C12.0813 23.7334 12.0608 23.7181 12.0557 23.6927V23.6013C12.0557 23.581 12.071 23.5607 12.0915 23.5556H12.1836L12.1989 22.6973H12.1068C12.0864 22.6973 12.0659 22.6821 12.0659 22.6567V22.5602C12.0659 22.5398 12.0813 22.5195 12.1017 22.5195H12.1068L12.5827 22.5246C12.6032 22.5246 12.6237 22.5398 12.6288 22.5652V22.6617C12.6288 22.6821 12.6134 22.7024 12.593 22.7074H12.4855L12.4702 23.5658H12.5572V23.5607Z" fill="white"></path>
    <path d="M11.6664 22.5602L11.5282 23.6623C11.5231 23.708 11.5026 23.7131 11.4719 23.708L11.3235 23.6877C11.2928 23.6826 11.2672 23.6674 11.2519 23.642L10.8118 22.8852H10.8067L10.7197 23.5607C10.7145 23.6013 10.6941 23.6115 10.6583 23.6064L10.4945 23.5861C10.4536 23.581 10.4382 23.5709 10.4433 23.5302L10.5815 22.4231C10.5866 22.3773 10.6071 22.3723 10.648 22.3773L10.7964 22.3977C10.8271 22.3977 10.8527 22.418 10.863 22.4434L11.303 23.2052H11.3082L11.3951 22.5196C11.4003 22.484 11.4207 22.4738 11.4566 22.4738L11.6305 22.4942C11.6715 22.5043 11.6715 22.5297 11.6664 22.5602Z" fill="white"></path>
    <path d="M9.1532 22.4688L9.32207 22.616C9.43977 22.7176 9.49606 22.8344 9.45 22.9868C9.37836 23.2306 9.13785 23.3118 8.90245 23.2407C8.77964 23.2052 8.66706 23.1493 8.5596 23.0731C8.53401 23.0579 8.52889 23.0427 8.53401 23.0274C8.53913 23.0173 8.54424 23.0071 8.54936 23.002L8.63636 22.8801C8.64659 22.8649 8.66194 22.8547 8.68241 22.8598C8.69265 22.8649 8.70288 22.87 8.708 22.8751C8.78476 22.9309 8.86663 22.9766 8.95874 23.0071C9.03039 23.0274 9.13273 23.0173 9.15832 22.936C9.17879 22.87 9.13785 22.8243 9.09179 22.7836L8.89222 22.611C8.77964 22.5246 8.73358 22.3824 8.77452 22.2453C8.84105 22.032 9.09691 21.9761 9.29649 22.032C9.41418 22.0624 9.52165 22.1234 9.61376 22.1996C9.63934 22.2199 9.64446 22.2351 9.63934 22.2504C9.63423 22.2605 9.62911 22.2656 9.62399 22.2758L9.53188 22.3926C9.51653 22.4129 9.50629 22.418 9.49094 22.4129C9.48071 22.4078 9.47047 22.4027 9.46536 22.3977C9.40395 22.3418 9.32719 22.3012 9.25043 22.2758C9.18391 22.2554 9.09691 22.2605 9.07133 22.3367C9.06109 22.3824 9.11738 22.4383 9.1532 22.4688Z" fill="white"></path>
    <path d="M8.15073 22.7735C8.1712 22.7836 8.18143 22.804 8.17632 22.8243V22.8294L8.14049 22.9157C8.13538 22.936 8.10979 22.9462 8.08932 22.9411L7.66459 22.7735C7.64412 22.7684 7.62877 22.743 7.639 22.7227L7.67482 22.6364C7.67994 22.616 7.70041 22.6008 7.72599 22.6059C7.72941 22.6059 7.73282 22.6076 7.73623 22.611L7.81299 22.6414L8.14049 21.8441L8.0535 21.8085C8.03303 21.7984 8.0228 21.778 8.02791 21.7577V21.7526L8.06373 21.6663C8.06885 21.646 8.09444 21.6358 8.11491 21.6409L8.56011 21.8187C8.58058 21.8238 8.59593 21.8491 8.5857 21.8695L8.54988 21.9558C8.54476 21.9761 8.52429 21.9914 8.4987 21.9863C8.49529 21.9863 8.49188 21.9846 8.48847 21.9812L8.40148 21.9456L8.07397 22.743L8.15073 22.7735Z" fill="white"></path>
    <path d="M6.82458 21.2651C6.79387 21.2498 6.78875 21.2244 6.80411 21.199L6.86551 21.0822C6.87575 21.0619 6.89622 21.0518 6.91669 21.0568C6.9218 21.0568 6.9218 21.0619 6.92692 21.0619L7.69451 21.4581L7.77639 21.4987C7.8071 21.5139 7.8071 21.5292 7.79686 21.5495V21.5546L7.7201 21.6714C7.69963 21.7018 7.67405 21.6968 7.64334 21.6815L7.36701 21.5393L6.9218 22.3773C6.90134 22.4129 6.89622 22.4129 6.86551 22.3976L6.68641 22.3062C6.65059 22.291 6.65059 22.2808 6.67106 22.2504L7.11626 21.4073L6.82458 21.2651Z" fill="white"></path>
    <path d="M6.50302 20.7927L6.34951 20.6962C6.32904 20.681 6.29322 20.681 6.27275 20.7013L5.29534 21.4174C5.29023 21.4225 5.28511 21.4275 5.27999 21.4326C5.26976 21.4428 5.27488 21.458 5.28511 21.4682H5.29023L5.4591 21.5748C5.47957 21.5901 5.51027 21.585 5.52562 21.5698L5.70473 21.4326L5.7559 21.4682L6.01688 21.6358L6.07317 21.6713L6.022 21.8796C6.01176 21.91 6.022 21.9456 6.0527 21.9557L6.22157 22.0624C6.23693 22.0726 6.25739 22.0726 6.26763 22.0573C6.26763 22.0573 6.26763 22.0522 6.27275 22.0522C6.27786 22.0421 6.28298 22.037 6.28298 22.0268L6.53885 20.8587C6.53885 20.8333 6.52861 20.8079 6.50302 20.7927ZM6.22157 21.1025L6.12435 21.4529L5.87872 21.2955L6.16528 21.0669C6.19599 21.0416 6.22669 21.0212 6.24716 21.0009C6.24204 21.0314 6.23181 21.0619 6.22157 21.1025Z" fill="white"></path>
    <path d="M5.03968 20.681L4.92199 20.4474C4.85034 20.3255 4.8657 20.1732 4.95269 20.0665C5.09597 19.8938 5.35184 19.9344 5.51559 20.0665C5.6077 20.1376 5.68958 20.2341 5.74587 20.3357C5.76122 20.3611 5.76122 20.3814 5.75099 20.3915C5.74587 20.3966 5.73564 20.4017 5.73052 20.4068L5.60259 20.4779C5.58212 20.488 5.56676 20.488 5.55653 20.4779C5.5463 20.4728 5.54118 20.4626 5.53606 20.4525C5.50024 20.3814 5.44395 20.3154 5.38254 20.2595C5.32625 20.2138 5.24438 20.1884 5.1932 20.2493C5.15738 20.295 5.1932 20.3661 5.21367 20.4068L5.31602 20.5998C5.38254 20.7369 5.39278 20.8639 5.29555 20.9908C5.1318 21.1889 4.88105 21.1737 4.69171 21.0264C4.59448 20.9502 4.50749 20.8537 4.44096 20.7471C4.42561 20.7217 4.42561 20.7064 4.43584 20.6963C4.44096 20.6912 4.4512 20.681 4.46143 20.676L4.58936 20.5947C4.60471 20.5845 4.62518 20.5845 4.64054 20.5947C4.65077 20.5998 4.65589 20.6099 4.661 20.6201C4.70706 20.7014 4.76847 20.7725 4.84523 20.8334C4.90152 20.8791 5.00386 20.9096 5.05504 20.8436C5.08062 20.7979 5.08062 20.7318 5.03968 20.681Z" fill="white"></path>
    <path d="M3.82097 19.9192C3.83632 19.9344 3.84144 19.9649 3.82097 19.9801L3.81585 19.9852L3.71862 20.0766C3.70327 20.097 3.67257 20.097 3.6521 20.0817C3.64869 20.0783 3.64528 20.0749 3.64186 20.0716L3.18131 19.5789C3.15572 19.5535 3.1506 19.5332 3.18131 19.4976L4.01543 18.746C4.03078 18.7257 4.06148 18.7257 4.07683 18.7409L4.08195 18.746L4.20477 18.878C4.23035 18.9085 4.23035 18.9237 4.20477 18.9542L3.51393 19.5891L3.82097 19.9192Z" fill="white"></path>
    <path d="M2.93568 19.0151C2.95103 19.0355 2.94591 19.0609 2.93056 19.071C2.93056 19.071 2.92544 19.071 2.92544 19.0761L2.84868 19.132C2.83333 19.1472 2.80775 19.1421 2.79239 19.1269L2.51094 18.7714C2.49559 18.7561 2.49559 18.7257 2.51606 18.7155L2.59282 18.6596C2.60817 18.6444 2.63376 18.6444 2.64911 18.6596C2.64911 18.6596 2.65423 18.6647 2.65423 18.6698L2.7054 18.7358L3.39623 18.2127L3.33483 18.1365C3.31947 18.1162 3.32459 18.0908 3.33994 18.0806C3.33994 18.0806 3.34506 18.0806 3.34506 18.0756L3.42182 18.0197C3.43717 18.0045 3.46276 18.0095 3.47811 18.0248L3.7698 18.4006C3.78515 18.4158 3.78515 18.4463 3.76468 18.4565L3.68792 18.5123C3.67257 18.5276 3.64698 18.5276 3.63163 18.5123C3.63163 18.5123 3.62651 18.5073 3.62651 18.5022L3.57022 18.426L2.87939 18.9491L2.93568 19.0151Z" fill="white"></path>
    <path d="M2.41326 17.2883L1.82477 17.6439C1.80431 17.6591 1.7736 17.6591 1.75825 17.6388C1.75313 17.6337 1.75313 17.6286 1.74802 17.6236L1.66102 17.4864C1.64055 17.4509 1.63544 17.4306 1.67637 17.4102L2.63842 16.8262C2.67936 16.8008 2.69471 16.816 2.71518 16.8465L2.79194 16.9684C2.80729 16.9938 2.81241 17.0243 2.79706 17.0496L2.46955 17.8623L3.06828 17.5067C3.1041 17.4864 3.12457 17.4966 3.13992 17.5271L3.23203 17.6743C3.25762 17.715 3.23715 17.7302 3.21156 17.7404L2.24951 18.3244C2.20857 18.3498 2.19322 18.3346 2.17275 18.3092L2.09599 18.1822C2.08064 18.1568 2.07552 18.1264 2.09087 18.0959L2.41326 17.2883Z" fill="white"></path>
    <path d="M13.283 22.8193C13.2881 22.8751 13.3597 22.9056 13.4058 22.9209L13.6156 22.997C13.7589 23.0478 13.8612 23.1342 13.8715 23.2967C13.8919 23.5506 13.6975 23.7132 13.457 23.7284C13.329 23.7385 13.2011 23.7233 13.0783 23.6928C13.0476 23.6878 13.0373 23.6725 13.0373 23.6573C13.0373 23.6471 13.0373 23.637 13.0425 23.6268L13.0783 23.4795C13.0834 23.4643 13.0885 23.444 13.1141 23.444C13.1243 23.444 13.1346 23.444 13.1448 23.4491C13.2369 23.4744 13.3341 23.4897 13.4263 23.4795C13.503 23.4744 13.59 23.4287 13.5849 23.3424C13.5798 23.2764 13.5235 23.2459 13.4672 23.2256L13.2216 23.1342C13.0885 23.0935 12.9913 22.9767 12.9759 22.8345C12.9555 22.611 13.1755 22.4688 13.3853 22.4485C13.5081 22.4384 13.6258 22.4536 13.7435 22.4892C13.7742 22.4993 13.7845 22.5095 13.7845 22.5247C13.7845 22.5349 13.7845 22.545 13.7793 22.5501L13.7333 22.6923C13.7282 22.7177 13.7179 22.7279 13.7026 22.7279C13.6924 22.7279 13.6821 22.7279 13.6719 22.7228C13.5951 22.6974 13.5081 22.6822 13.4263 22.6872C13.3546 22.7025 13.2779 22.738 13.283 22.8193Z" fill="white"></path>
    <path d="M14.7262 23.3576L14.8132 23.3423C14.8337 23.3372 14.8592 23.3525 14.8644 23.3728V23.3779L14.8797 23.4693C14.8848 23.4896 14.8695 23.5099 14.849 23.515L14.3987 23.5912C14.3782 23.5963 14.3526 23.581 14.3475 23.5607L14.3322 23.4693C14.327 23.449 14.3373 23.4236 14.3578 23.4185H14.368L14.4499 23.4033L14.3015 22.5551L14.2094 22.5703C14.1889 22.5754 14.1633 22.5602 14.1582 22.5348V22.5297L14.1377 22.4383C14.1326 22.418 14.1479 22.3977 14.1684 22.3926H14.1735L14.6443 22.3113C14.6648 22.3062 14.6904 22.3215 14.6955 22.3418L14.7108 22.4332C14.716 22.4535 14.7057 22.4789 14.6853 22.484H14.675L14.5778 22.4992L14.7262 23.3576Z" fill="white"></path>
    <path d="M16.7885 22.3418C16.6708 22.0015 16.4099 21.8034 16.0568 21.9203C15.719 22.032 15.6013 22.3469 15.7241 22.7075C15.847 23.063 16.1182 23.2408 16.4559 23.129C16.7732 23.0173 16.9165 22.7126 16.7885 22.3418ZM16.3894 22.8954C16.2308 22.9513 16.0977 22.8649 16.0107 22.6008C15.9288 22.357 15.98 22.1945 16.1284 22.1437C16.287 22.0929 16.415 22.1691 16.5071 22.4383C16.5992 22.7075 16.5327 22.8446 16.3894 22.8954Z" fill="white"></path>
    <path d="M18.9377 21.905C18.9581 21.9406 18.9581 21.9456 18.9274 21.966L18.7534 22.0675C18.7227 22.0879 18.7176 22.0828 18.6971 22.0523L18.2008 21.2397L17.9193 21.4022C17.8886 21.4225 17.8681 21.4124 17.8528 21.3819L17.7863 21.2702C17.7709 21.2549 17.776 21.2295 17.7965 21.2143C17.8016 21.2143 17.8016 21.2092 17.8067 21.2092L18.5539 20.7724L18.6306 20.7267C18.6562 20.7115 18.6767 20.7166 18.6869 20.7369L18.692 20.742L18.7534 20.8689C18.7688 20.8994 18.7534 20.9197 18.7227 20.935L18.4515 21.0924L18.9377 21.905Z" fill="white"></path>
    <path d="M19.8437 21.1331L19.9102 21.0823C19.9307 21.067 19.9562 21.0721 19.9716 21.0873C19.9716 21.0873 19.9716 21.0924 19.9767 21.0924L20.033 21.1686C20.0484 21.1838 20.0432 21.2092 20.0279 21.2245H20.0228L19.6543 21.4937C19.639 21.5089 19.6134 21.5038 19.598 21.4886L19.5417 21.4124C19.5264 21.3972 19.5264 21.3718 19.5417 21.3565C19.5417 21.3565 19.5469 21.3514 19.552 21.3514L19.6185 21.3057L19.0965 20.6099L19.0198 20.6658C18.9993 20.681 18.9737 20.676 18.9584 20.6607C18.9584 20.6607 18.9584 20.6556 18.9533 20.6556L18.897 20.5795C18.8816 20.5642 18.8867 20.5388 18.9021 20.5236H18.9072L19.291 20.2443C19.3063 20.229 19.3371 20.229 19.3524 20.2493L19.4087 20.3255C19.424 20.3408 19.424 20.3662 19.4087 20.3814C19.4087 20.3814 19.4036 20.3865 19.3985 20.3865L19.3217 20.4423L19.8437 21.1331Z" fill="white"></path>
    <path d="M20.3752 19.3859C20.3599 19.3554 20.3701 19.3199 20.3957 19.3046L20.4878 19.2234C20.5134 19.198 20.5339 19.198 20.5543 19.2234L21.368 20.0055L21.3731 20.0106C21.3936 20.0258 21.3936 20.0512 21.3833 20.0715C21.3833 20.0766 21.3782 20.0766 21.3731 20.0817L21.24 20.2036C21.2042 20.234 21.1838 20.2239 21.1479 20.1883L20.7181 19.7617L20.9586 20.4067C20.9688 20.4321 20.9637 20.4575 20.9432 20.4728L20.8972 20.5185C20.8767 20.5439 20.846 20.5489 20.8153 20.5388L20.1501 20.2848L20.5697 20.747C20.6055 20.7826 20.5901 20.8029 20.5646 20.8283L20.4571 20.9248C20.4264 20.9502 20.4008 20.9552 20.3752 20.9248L20.3701 20.9197L19.6383 20.0817C19.6127 20.0512 19.6127 20.0258 19.6383 20.0055L19.7304 19.9192C19.7509 19.8938 19.7867 19.8887 19.8174 19.9039L20.6567 20.2239L20.3752 19.3859Z" fill="white"></path>
    <path d="M21.7628 18.7612L21.2869 18.3752C21.2613 18.3549 21.2664 18.3295 21.2869 18.3092L21.3994 18.1721C21.4199 18.1467 21.4404 18.1365 21.466 18.1619L21.9521 18.5632C22.2592 18.8171 22.2694 19.0812 22.0493 19.3402C21.8139 19.6196 21.553 19.6196 21.2664 19.3808L20.7751 18.9796C20.7495 18.9593 20.7547 18.9339 20.7751 18.9136L20.8877 18.7765C20.9082 18.7511 20.9287 18.7409 20.9542 18.7663L21.425 19.1523C21.64 19.3301 21.7679 19.3047 21.8702 19.1828C21.9828 19.0507 21.9777 18.9339 21.7628 18.7612Z" fill="white"></path>
    <path d="M22.2175 17.0395C22.197 17.0141 22.197 16.9786 22.2175 16.9532L22.284 16.8465C22.3044 16.816 22.3198 16.811 22.3505 16.8262L23.3484 17.3696H23.3535C23.374 17.3798 23.3893 17.4001 23.3791 17.4255C23.3791 17.4306 23.374 17.4357 23.3688 17.4407L23.2716 17.588C23.246 17.6286 23.2204 17.6236 23.1795 17.5982L22.6524 17.2934L23.0567 17.8572C23.072 17.8775 23.072 17.9029 23.0567 17.9232L23.0209 17.9791C23.0106 18.0146 22.9799 18.035 22.9441 18.0299L22.2328 17.9537L22.7599 18.294C22.8008 18.3194 22.7957 18.3397 22.7752 18.3752L22.6985 18.4971C22.678 18.5327 22.6524 18.5428 22.6217 18.5225H22.6166L21.6904 17.8978C21.6545 17.8724 21.6545 17.8521 21.6699 17.8216L21.7364 17.715C21.7518 17.6845 21.7825 17.6693 21.8183 17.6794L22.7087 17.7709L22.2175 17.0395Z" fill="white"></path>
    <path d="M17.7767 21.6663C17.7358 21.58 17.6642 21.5089 17.5772 21.4682C17.4544 21.4175 17.3059 21.4429 17.1217 21.5292L16.871 21.646C16.8352 21.6612 16.8249 21.6765 16.8454 21.7171L17.3213 22.7227C17.3367 22.7583 17.3622 22.7634 17.3878 22.7481L17.5516 22.6719C17.5874 22.6567 17.5925 22.6364 17.5772 22.6059L17.4236 22.2758C17.4441 22.2707 17.4902 22.2504 17.5158 22.2402C17.7665 22.1336 17.8996 21.9203 17.7767 21.6663ZM17.4236 22.0523C17.4083 22.0574 17.3571 22.0828 17.3367 22.0929L17.1729 21.7476L17.2497 21.712C17.3725 21.6562 17.4646 21.6765 17.5209 21.7984C17.5823 21.9152 17.5465 21.9964 17.4236 22.0523Z" fill="white"></path>
    <path d="M2.46456 14.1801C2.3878 13.9922 2.36733 13.789 2.39803 13.591C2.39803 13.5757 2.40315 13.5656 2.40315 13.5503L2.42362 13.4538L0.586512 14.2919C0.489283 14.3274 0.417641 14.3985 0.386938 14.495C0.330647 14.688 0.448345 14.9369 0.504635 15.0384L0.525104 15.0791L2.47991 14.2258L2.46456 14.1801Z" fill="#003399"></path>
    <path d="M22.5298 14.1801C22.6065 13.9922 22.627 13.789 22.5963 13.591C22.5963 13.5757 22.5912 13.5656 22.5912 13.5503L22.5707 13.4538L24.4078 14.2868C24.505 14.3223 24.5767 14.3934 24.6074 14.4899C24.6637 14.6829 24.546 14.9318 24.4897 15.0334L24.4692 15.074L22.5195 14.2207L22.5298 14.1801Z" fill="#014593"></path>
    <path d="M21.7312 3.6466L18.4255 0.655164C17.6476 1.16305 16.6293 1.46778 15.5137 1.46778C14.3981 1.46778 13.2877 1.13257 12.4996 0.584061C11.7116 1.13257 10.6523 1.46778 9.48555 1.46778C8.31881 1.46778 7.35164 1.16305 6.57381 0.655164L3.26855 3.6466C3.26855 3.6466 4.86515 5.14993 4.87538 6.36378C4.88562 7.5827 4.51717 8.56799 4.06685 9.8123C3.84169 10.4776 3.68817 11.1633 3.61141 11.8591C3.59094 12.0267 3.57559 12.1994 3.56536 12.3771C3.55512 12.5396 3.55001 12.7022 3.55001 12.8647C3.54489 13.8754 3.71888 14.9521 4.2306 15.8815C4.30736 16.0237 4.39436 16.1558 4.48647 16.2878C4.75257 16.6687 6.91718 20.2188 11.5125 20.6861L11.5279 20.7013L12.5001 21.6663L13.4724 20.7013L13.4878 20.6861C18.0831 20.2239 20.2426 16.6687 20.5138 16.2878C20.6059 16.1558 20.6878 16.0186 20.7697 15.8815C21.2814 14.9521 21.4503 13.8754 21.4503 12.8647C21.4503 12.7022 21.4452 12.5396 21.4349 12.3771C21.4247 12.1994 21.4093 12.0267 21.3889 11.8591C21.3121 11.1633 21.1637 10.4726 20.9334 9.8123C20.4882 8.56799 20.1198 7.5827 20.13 6.36378C20.1403 5.14486 21.7317 3.6466 21.7317 3.6466H21.7312Z" fill="#003399"></path>
    <path d="M10.2841 6.56697L12.2645 2.38709C12.1929 2.22965 12.3157 2.03157 12.4692 2.03157C12.6227 2.03157 12.766 2.22965 12.6944 2.38709L14.6952 6.55173C15.033 6.71426 15.1814 6.92249 15.166 7.05962C15.1456 7.19675 15.0483 7.30848 14.9204 7.34911C14.9255 8.10586 14.8948 10.7824 14.905 12.3061C15.0739 12.3416 15.0739 12.5194 15.0586 13.0984C15.0483 13.6519 15.0944 13.8348 14.7259 13.8348C14.6748 13.8348 14.5775 13.8297 14.5775 13.8297V13.6418C14.5724 13.5504 14.5724 13.5199 14.5212 13.4996C14.3677 13.4386 14.204 13.3828 14.0249 13.3167C13.9021 13.271 10.1101 11.9302 10.1101 11.9302C10.0129 11.8997 9.94639 11.8134 9.93616 11.7118V10.9703C9.93616 10.8332 10.0283 10.7824 10.1101 10.7926C10.1153 10.7926 10.1153 10.7773 10.1101 10.7722C10.1101 10.2745 10.105 7.68431 10.105 7.41514C10.0078 7.38974 9.92593 7.3288 9.87987 7.23738C9.80311 7.0393 9.8901 6.7752 10.2841 6.56697Z" fill="white"></path>
    <path d="M11.7591 11.3207C10.9096 11.0312 10.5309 10.8738 10.5207 10.63C10.5156 10.4776 10.4951 9.85293 10.5105 9.69041L10.4951 7.35414C10.4951 7.28812 10.6077 7.24241 10.7152 7.21701C10.8226 7.19162 11.4367 7.05449 12.4806 7.05449C13.5246 7.05449 14.2563 7.17638 14.4405 7.25256C14.4815 7.2678 14.5224 7.28812 14.5634 7.31351V7.51666C14.3843 7.49127 13.7139 7.39985 13.4222 7.37954C13.2892 7.36938 13.1152 7.3643 12.9463 7.35922C12.9463 7.31859 12.9156 7.28812 12.8747 7.28812C12.583 7.27288 12.2913 7.27288 12.0047 7.28812C11.9842 7.28812 11.9638 7.29827 11.9535 7.31351C11.9382 7.32875 11.9331 7.34906 11.9331 7.36938L11.9842 8.26325H11.9433C11.7591 8.27849 11.0222 8.38007 10.9761 8.3953C10.9096 8.41054 10.8943 8.43085 10.8994 8.45625C10.9096 8.49688 10.9608 8.48164 11.0171 8.47656C11.3804 8.43593 11.713 8.41562 11.9945 8.40038L11.9996 8.54259C11.9996 8.58322 12.0354 8.61369 12.0764 8.61369C12.322 8.59846 12.5625 8.59846 12.8081 8.61369C12.8491 8.61369 12.8849 8.58322 12.89 8.54259L12.8951 8.40038C13.0128 8.40546 13.0742 8.41054 13.0742 8.41054C13.6013 8.45625 14.2819 8.55275 14.5787 8.73051V8.93874C14.4047 8.90319 13.9646 8.81177 13.8009 8.79653C13.6883 8.78637 13.5808 8.78637 13.4683 8.79653C13.4324 8.80161 13.4069 8.82192 13.412 8.84732C13.4171 8.87271 13.4478 8.88795 13.4887 8.89303C13.5297 8.89811 14.1847 8.9235 14.5838 9.19268V9.40599C14.3536 9.36028 13.5911 9.21299 13.064 9.1876C12.5216 9.17236 11.9791 9.19268 11.4418 9.24855C11.3753 9.2587 11.3395 9.27902 11.3446 9.31457C11.3497 9.35012 11.3599 9.36536 11.4572 9.36028C11.5237 9.3552 12.7825 9.30949 13.4427 9.40599C13.98 9.48217 14.3484 9.57359 14.5889 9.68533V9.9545C14.374 9.9088 13.9083 9.81738 13.6678 9.80214C13.1715 9.76151 12.8593 9.76659 12.8081 9.76659C12.757 9.76659 12.7416 9.7869 12.7416 9.81738C12.7416 9.84785 12.7774 9.85293 12.8081 9.85293C13.0896 9.86309 13.3659 9.8834 13.6422 9.92911C13.9083 9.96974 14.3177 10.0307 14.5889 10.1729V10.4421C14.4457 10.4268 14.1693 10.3964 14.0516 10.3913C13.9391 10.3862 13.8214 10.3862 13.7088 10.4014C13.6781 10.4065 13.6576 10.4319 13.6627 10.4522C13.6678 10.4776 13.6934 10.4929 13.719 10.4878C13.8725 10.4929 14.0209 10.5081 14.1693 10.5335C14.3177 10.5589 14.461 10.5995 14.5941 10.6605V11.016C14.5941 11.0261 14.287 10.9195 13.9902 10.9042C13.7446 10.889 13.499 10.889 13.2533 10.9042C13.2329 10.9042 13.1766 10.9144 13.1766 10.9652C13.1766 11.016 13.238 11.0109 13.2687 11.0109C13.4222 11.016 13.5501 11.0109 13.8265 11.0363C14.0926 11.0617 14.3484 11.1176 14.5992 11.209V11.5493C14.5992 11.5543 14.4303 11.5036 14.1642 11.468C14.0414 11.4477 13.9186 11.4375 13.7907 11.4375C13.7446 11.4426 13.6985 11.4528 13.6934 11.4934C13.6934 11.5543 13.8009 11.5594 13.8418 11.5594C13.8828 11.5594 14.0005 11.5747 14.2052 11.6051C14.3382 11.6254 14.4713 11.661 14.5992 11.7016V12.2044C13.7599 11.9911 12.6444 11.6508 11.7591 11.3207Z" fill="#003399"></path>
    <path d="M12.5 2.83907L12.7201 3.30632C12.6228 3.3114 12.5256 3.32156 12.4284 3.34187C12.3772 3.35203 12.367 3.37234 12.367 3.38758C12.367 3.40282 12.3875 3.42821 12.4386 3.42821C12.5461 3.42821 12.7047 3.43837 12.7815 3.44345C12.8071 3.49424 12.8275 3.54502 12.848 3.59581C12.7917 3.61105 12.7098 3.63644 12.6843 3.6466C12.6484 3.66184 12.6126 3.67199 12.6177 3.70247C12.6228 3.73294 12.6587 3.72786 12.6894 3.73294C12.7661 3.7431 12.8429 3.74818 12.9197 3.74818L13.0271 3.9818C13.0527 4.03767 12.9759 4.04783 12.9094 4.04783C12.8327 4.05291 12.6382 4.05291 12.5461 4.06306C12.5103 4.06814 12.4949 4.08846 12.4949 4.10877C12.4949 4.12909 12.5205 4.14433 12.5563 4.14941C12.6843 4.15448 12.8122 4.16972 12.9401 4.18496C13.0118 4.19511 13.0783 4.21543 13.1448 4.23575C13.1704 4.29161 13.196 4.3424 13.2216 4.39319C13.2369 4.42366 13.196 4.4389 13.1653 4.4389C13.1141 4.44398 12.8941 4.42874 12.7764 4.4389C12.7252 4.44398 12.715 4.45414 12.715 4.48461C12.715 4.51508 12.7252 4.51508 12.7764 4.52524C12.8685 4.54048 13.0629 4.55063 13.1243 4.55571C13.196 4.56587 13.2676 4.58619 13.3393 4.61666L13.4467 4.84521C13.4621 4.88076 13.4416 4.89092 13.416 4.89599C13.3802 4.89599 12.9759 4.90107 12.9452 4.90615C12.9094 4.90615 12.8582 4.92139 12.8531 4.95186C12.848 4.98233 12.8838 5.01281 12.9759 5.01789C13.0681 5.02296 13.4211 5.04328 13.6054 5.17533L13.7487 5.48006C13.6105 5.46482 13.1346 5.42927 12.9145 5.43435C12.7252 5.43943 12.6484 5.43435 12.6433 5.4699C12.6382 5.50545 12.674 5.52577 12.7917 5.53593C12.9094 5.54608 13.5286 5.58164 13.8561 5.70861L14.0301 6.06921C13.7589 6.01842 13.4877 5.98286 13.2113 5.96763C13.1192 5.96763 13.0834 5.98286 13.0834 6.0235C13.0834 6.06413 13.1704 6.06921 13.2267 6.07428C13.5337 6.10984 13.8356 6.17586 14.1324 6.27236L14.1734 6.36378C13.6156 6.2622 13.0476 6.20633 12.4796 6.19618C11.9269 6.20125 11.3742 6.2622 10.8369 6.37394C10.9904 6.04889 11.973 3.96657 12.5 2.83907Z" fill="#003399"></path>
    <path d="M13.8619 12.2044L13.4321 12.0774C13.4218 12.0724 13.4065 12.0774 13.4014 12.0876V12.8291C13.4014 12.8494 13.4167 12.8647 13.4321 12.8697L13.8619 13.017C13.8722 13.0221 13.8875 13.017 13.8926 13.0069V12.245C13.8926 12.2247 13.8773 12.2095 13.8619 12.2044Z" fill="#014593"></path>
    <path d="M13.1451 11.9861C12.9711 11.9353 12.8893 11.9048 12.7153 11.8489C12.705 11.8439 12.6897 11.8489 12.6846 11.8591V12.5752C12.6846 12.5955 12.6999 12.6108 12.7153 12.6158L13.1451 12.7631C13.1605 12.7682 13.1758 12.7631 13.1758 12.7428V12.0165C13.1758 12.0064 13.1605 11.9962 13.1451 11.9861Z" fill="#014593"></path>
    <path d="M11.7125 11.5188C11.5385 11.4579 11.4566 11.4274 11.2827 11.3665C11.2673 11.3614 11.252 11.3665 11.252 11.3817V12.0775C11.252 12.0978 11.2673 12.1131 11.2827 12.1182L11.7125 12.2705C11.7279 12.2756 11.7432 12.2705 11.7432 12.2502V11.5544C11.7381 11.5392 11.7279 11.5239 11.7125 11.5188Z" fill="#014593"></path>
    <path d="M10.9908 11.2598C10.8168 11.1988 10.735 11.1633 10.561 11.1023C10.5456 11.0972 10.5303 11.1023 10.5303 11.1226V11.8286C10.5303 11.8489 10.5456 11.8642 10.561 11.8692C10.735 11.9251 10.8168 11.9556 10.9908 12.0165C11.0062 12.0216 11.0215 12.0165 11.0215 11.9962V11.3004C11.0215 11.2852 11.0113 11.2699 10.9908 11.2598Z" fill="#014593"></path>
    <path d="M12.4293 11.7626C12.2553 11.7067 12.1734 11.6762 11.9995 11.6204C11.9841 11.6153 11.9688 11.6204 11.9688 11.6407V12.3365C11.9688 12.3568 11.9841 12.372 11.9995 12.3771L12.4293 12.5295C12.4447 12.5346 12.46 12.5295 12.46 12.5092V11.8083C12.4549 11.7829 12.4447 11.7677 12.4293 11.7626Z" fill="#014593"></path>
    <path d="M13.5954 7.83665C13.7438 7.83157 13.8922 7.84173 14.0355 7.86204C14.2043 7.88236 14.45 7.93822 14.5625 7.96362V7.77062C14.3323 7.67412 13.8001 7.5827 13.5135 7.54207C13.3344 7.51668 13.1348 7.50144 12.9404 7.48621L12.8994 8.24295L13.0683 8.24803C13.1962 8.25311 13.3293 8.26327 13.4623 8.27343C13.8359 8.30898 14.2043 8.375 14.5728 8.46134L14.5677 8.19216C14.276 7.95346 13.621 7.93822 13.5851 7.93822C13.5493 7.93822 13.5084 7.92806 13.5084 7.89251C13.5084 7.85188 13.5595 7.84173 13.5954 7.83665Z" fill="#014593"></path>
    <path d="M10.505 7.04941C10.592 7.02909 11.2573 6.79038 12.4752 6.79038C13.6931 6.79038 14.4197 7.04941 14.5067 7.09004C14.5937 7.13067 14.691 7.15606 14.7319 7.09004C14.7626 7.01385 14.7319 6.92751 14.6551 6.88688C14.389 6.71928 13.4526 6.50597 12.4752 6.51613C11.4926 6.52628 10.5101 6.7396 10.3771 6.79546C10.2389 6.85133 10.1826 6.93259 10.2287 7.01385C10.2952 7.1459 10.418 7.0748 10.505 7.04941Z" fill="#003399"></path>
    <path d="M14.5726 12.4127L14.1479 12.2857C14.1377 12.2806 14.1223 12.2857 14.1172 12.3009V13.0729C14.1172 13.0932 14.1325 13.1085 14.1479 13.1136L14.5777 13.2608C14.588 13.2659 14.6033 13.2608 14.6084 13.2507V12.4584C14.6084 12.4381 14.5931 12.4228 14.5726 12.4127Z" fill="#014593"></path>
    <path d="M12.2284 8.46637C12.4536 8.46129 12.7299 8.46637 12.7299 8.46637L12.7811 7.49123C12.5457 7.476 12.167 7.49631 12.167 7.49631L12.2284 8.46637Z" fill="#014593"></path>
    <path d="M9.32189 5.16518C9.19907 5.14994 9.07114 5.18042 8.97391 5.25152C8.86133 5.31754 8.77434 5.41912 8.7334 5.54101C8.85621 5.55625 8.97903 5.52578 9.08137 5.45467C9.19395 5.38865 9.27583 5.28707 9.32189 5.16518Z" fill="white"></path>
    <path d="M8.81029 3.39261C8.81541 3.26056 8.77959 3.12851 8.70283 3.01678C8.64142 2.90504 8.53908 2.8187 8.42138 2.77299C8.41626 2.90504 8.45208 3.03709 8.52884 3.14883C8.59025 3.26056 8.68748 3.3469 8.81029 3.39261Z" fill="white"></path>
    <path d="M8.81567 3.85478C8.80544 3.97667 8.83102 4.09857 8.89243 4.20014C8.9436 4.30172 9.0306 4.38806 9.13806 4.43377C9.14829 4.31188 9.12271 4.19506 9.0613 4.08841C9.01013 3.98683 8.92313 3.90049 8.81567 3.85478Z" fill="white"></path>
    <path d="M9.00509 3.55524C9.07673 3.43843 9.10743 3.30638 9.09208 3.16925C9.09208 3.0372 9.04602 2.90515 8.96415 2.79849C8.8925 2.91531 8.8618 3.04736 8.87204 3.18448C8.87715 3.32161 8.92321 3.44858 9.00509 3.55524Z" fill="white"></path>
    <path d="M9.18956 4.29669C9.30725 4.23574 9.39425 4.13925 9.44542 4.02243C9.50683 3.90562 9.53241 3.76849 9.51195 3.63136C9.39425 3.69231 9.30725 3.78881 9.25608 3.90562C9.19467 4.02751 9.16909 4.16464 9.18956 4.29669Z" fill="white"></path>
    <path d="M8.71426 3.68729C8.79614 3.76855 8.9036 3.81426 9.01618 3.81934C8.99059 3.70252 8.92919 3.60095 8.83708 3.52477C8.7552 3.4435 8.64774 3.39779 8.53516 3.39272C8.56586 3.50953 8.62727 3.61111 8.71426 3.68729Z" fill="white"></path>
    <path d="M9.12293 4.00207C9.21504 3.90557 9.27133 3.78368 9.28668 3.65163C9.31227 3.51958 9.29692 3.38245 9.24063 3.26056C9.14852 3.35706 9.09223 3.47895 9.07688 3.611C9.04617 3.74305 9.06152 3.88018 9.12293 4.00207Z" fill="white"></path>
    <path d="M9.56822 4.71315C9.4454 4.69792 9.31747 4.72839 9.21512 4.79949C9.10254 4.86552 9.01555 4.96709 8.97461 5.08899C9.09742 5.10422 9.22536 5.07375 9.32259 5.00265C9.43517 4.93662 9.52216 4.83505 9.56822 4.71315Z" fill="white"></path>
    <path d="M9.37907 4.58617C9.46094 4.47951 9.51212 4.35254 9.51723 4.22049C9.39442 4.25096 9.28696 4.32715 9.21532 4.4338C9.13344 4.54046 9.08227 4.66743 9.07715 4.79948C9.20508 4.76393 9.31254 4.68774 9.37907 4.58617Z" fill="white"></path>
    <path d="M8.82083 5.17022C8.91294 5.07372 8.96923 4.95183 8.98458 4.8147C9.01017 4.68265 8.99482 4.54552 8.93341 4.42363C8.8413 4.52013 8.78501 4.64202 8.76965 4.77407C8.74407 4.9112 8.75942 5.04833 8.82083 5.17022Z" fill="white"></path>
    <path d="M8.80067 5.6172C8.67786 5.63751 8.56016 5.70354 8.4834 5.80003C8.59086 5.86098 8.71879 5.88129 8.84161 5.85082C8.96442 5.83051 9.08212 5.76448 9.15888 5.66798C9.05142 5.60704 8.92349 5.58672 8.80067 5.6172Z" fill="white"></path>
    <path d="M6.21642 5.08899C6.17036 4.96709 6.08849 4.86552 5.97591 4.79949C5.87356 4.72839 5.75074 4.69792 5.62793 4.71315C5.67399 4.83505 5.76098 4.93662 5.87356 5.00265C5.97079 5.07375 6.0936 5.10422 6.21642 5.08899Z" fill="white"></path>
    <path d="M6.46177 5.54101C6.41571 5.41912 6.33384 5.31754 6.22126 5.25152C6.11891 5.18042 5.9961 5.14994 5.86816 5.16518C5.91422 5.28707 5.9961 5.38865 6.10868 5.45467C6.21102 5.53086 6.33895 5.56133 6.46177 5.54101Z" fill="white"></path>
    <path d="M6.70771 5.80003C6.62583 5.70354 6.51325 5.63751 6.39044 5.6172C6.26762 5.58672 6.13969 5.60704 6.03223 5.66798C6.1141 5.76448 6.22668 5.83051 6.3495 5.85082C6.47231 5.88129 6.60025 5.86606 6.70771 5.80003Z" fill="white"></path>
    <path d="M8.67249 5.45467C8.73389 5.33278 8.75436 5.19565 8.73389 5.0636C8.62131 5.12454 8.5292 5.22612 8.48315 5.34801C8.42174 5.46991 8.40127 5.60703 8.42174 5.73908C8.53944 5.67306 8.62643 5.57148 8.67249 5.45467Z" fill="white"></path>
    <path d="M6.39551 6.06413C6.49785 6.13523 6.62579 6.16063 6.7486 6.14031C6.87653 6.13016 6.98911 6.06921 7.07611 5.97779C6.97376 5.90669 6.84583 5.88129 6.72301 5.90161C6.6002 5.91684 6.4825 5.97271 6.39551 6.06413Z" fill="white"></path>
    <path d="M7.08649 5.91685C7.18372 5.99303 7.30653 6.03366 7.42935 6.02858C7.39353 5.90161 7.31165 5.79495 7.20419 5.71877C7.10696 5.64259 6.98414 5.60196 6.86133 5.60704C6.89715 5.73401 6.97391 5.84574 7.08649 5.91685Z" fill="white"></path>
    <path d="M6.45592 5.06363C6.43545 5.19568 6.45592 5.33281 6.51733 5.4547C6.56338 5.57659 6.65549 5.67309 6.76807 5.73404C6.78854 5.60199 6.76807 5.46486 6.70667 5.34297C6.66061 5.22615 6.57362 5.12458 6.45592 5.06363Z" fill="white"></path>
    <path d="M6.6667 3.14887C6.74346 3.03714 6.77928 2.90509 6.77416 2.77304C6.65134 2.81875 6.55412 2.90509 6.49271 3.01683C6.41595 3.12856 6.38013 3.26061 6.38525 3.39266C6.50294 3.34695 6.60529 3.26061 6.6667 3.14887Z" fill="white"></path>
    <path d="M6.47649 3.68724C6.5686 3.61106 6.63001 3.5044 6.6556 3.39267C6.54302 3.39775 6.43555 3.44346 6.35879 3.52472C6.26668 3.6009 6.20527 3.70248 6.17969 3.81929C6.29227 3.81421 6.39461 3.7685 6.47649 3.68724Z" fill="white"></path>
    <path d="M8.44274 6.14028C8.56556 6.1606 8.69349 6.1352 8.79583 6.0641C8.70884 5.97268 8.59114 5.91681 8.46833 5.90158C8.34551 5.88126 8.21758 5.90666 8.11523 5.97776C8.20223 6.06918 8.31993 6.13013 8.44274 6.14028Z" fill="white"></path>
    <path d="M7.16274 6.08444C7.03993 6.10983 6.92735 6.18094 6.85059 6.28251C6.96317 6.33838 7.0911 6.34854 7.2088 6.31299C7.33161 6.28759 7.43907 6.22157 7.51072 6.12507C7.52607 6.14031 7.54654 6.15554 7.56189 6.17078C7.40325 6.2622 7.26509 6.38409 7.15251 6.53138L7.2702 6.71421C7.35208 6.5263 7.45954 6.3587 7.60283 6.20633C7.73588 6.35362 7.83822 6.5263 7.91498 6.70914L8.03268 6.5263C7.92522 6.38409 7.79728 6.2622 7.64377 6.1657C7.65912 6.15046 7.67959 6.13523 7.69494 6.11999C7.7717 6.21649 7.87916 6.28251 7.99686 6.30791C8.11456 6.34346 8.24249 6.3333 8.35507 6.27743C8.20667 6.0946 7.96104 6.01841 7.73588 6.08952C7.68982 6.10475 7.64888 6.12507 7.60794 6.15046C7.57212 6.13015 7.5363 6.11491 7.49536 6.0946H7.48001C7.37767 6.06412 7.26509 6.05904 7.16274 6.08444Z" fill="white"></path>
    <path d="M6.00609 4.29669C6.02656 4.16464 6.00097 4.02751 5.93956 3.9107C5.88839 3.79389 5.79628 3.69231 5.6837 3.63644C5.66323 3.76849 5.68881 3.90562 5.75022 4.02751C5.8014 4.13925 5.88839 4.23575 6.00609 4.29669Z" fill="white"></path>
    <path d="M8.10946 5.91684C8.21692 5.84066 8.2988 5.734 8.33462 5.61211C8.21181 5.60703 8.08899 5.64258 7.99176 5.72384C7.8843 5.80003 7.80242 5.90668 7.7666 6.03365C7.88942 6.03365 8.01223 5.9981 8.10946 5.91684Z" fill="white"></path>
    <path d="M6.37484 5.17022C6.43113 5.04833 6.4516 4.9112 6.42601 4.77915C6.41066 4.6471 6.35437 4.52521 6.26226 4.42871C6.20597 4.5506 6.1855 4.68773 6.21109 4.81978C6.22644 4.95183 6.28273 5.07372 6.37484 5.17022Z" fill="white"></path>
    <path d="M5.67871 4.21544C5.68383 4.34749 5.72988 4.47954 5.81688 4.58111C5.88852 4.68777 5.99598 4.76395 6.1188 4.79443C6.11368 4.66238 6.06762 4.53033 5.98063 4.42875C5.90899 4.32717 5.80153 4.25099 5.67871 4.21544Z" fill="white"></path>
    <path d="M6.29837 4.20521C6.35978 4.10363 6.39048 3.98174 6.37513 3.85985C6.26767 3.90556 6.18067 3.98682 6.1295 4.09347C6.06809 4.19505 6.03739 4.31694 6.05274 4.43884C6.1602 4.38805 6.2472 4.30679 6.29837 4.20521Z" fill="white"></path>
    <path d="M6.31351 3.18442C6.32375 3.05237 6.29816 2.91524 6.22652 2.79843C6.14464 2.90509 6.09859 3.03714 6.09859 3.16919C6.08324 3.30124 6.11394 3.43836 6.18558 3.55518C6.26746 3.44852 6.31351 3.32155 6.31351 3.18442Z" fill="white"></path>
    <path d="M6.07223 4.00207C6.12852 3.88018 6.14387 3.74305 6.11829 3.611C6.10293 3.47895 6.04664 3.35706 5.95453 3.26056C5.89824 3.38245 5.88289 3.51958 5.90848 3.65163C5.92383 3.7786 5.98012 3.90557 6.07223 4.00207Z" fill="white"></path>
    <path d="M9.07649 5.45467C8.97414 5.52578 8.85133 5.55625 8.72852 5.54101C8.77457 5.41912 8.85645 5.31754 8.96903 5.25152C9.07137 5.18042 9.19419 5.14994 9.317 5.16518C9.27607 5.28707 9.18907 5.38865 9.07649 5.45467Z" fill="white"></path>
    <path d="M9.15888 5.66798C9.077 5.76448 8.96442 5.83051 8.84161 5.85082C8.71879 5.88129 8.59086 5.86098 8.4834 5.80003C8.56528 5.70354 8.67786 5.63751 8.80067 5.6172C8.92349 5.58672 9.05142 5.60704 9.15888 5.66798Z" fill="white"></path>
    <path d="M9.13782 4.43376C9.03036 4.38805 8.94849 4.30679 8.89219 4.20521C8.83079 4.10363 8.80008 3.98174 8.81544 3.85985C8.9229 3.90556 9.00989 3.98682 9.06107 4.09347C9.12247 4.19505 9.14806 4.31186 9.13782 4.43376Z" fill="white"></path>
    <path d="M9.21434 4.4338C9.28598 4.32715 9.39344 4.25096 9.51626 4.22049C9.51114 4.35254 9.46509 4.48459 9.37809 4.58617C9.30645 4.69282 9.19899 4.769 9.07617 4.79948C9.08129 4.66235 9.13246 4.53538 9.21434 4.4338Z" fill="white"></path>
    <path d="M8.93343 4.42363C8.98972 4.54552 9.01019 4.68265 8.98461 4.8147C8.96926 4.94675 8.91296 5.06864 8.82085 5.17022C8.76456 5.04833 8.74409 4.9112 8.76968 4.77915C8.78503 4.6471 8.84132 4.52521 8.93343 4.42363Z" fill="white"></path>
    <path d="M8.97461 5.08899C9.02066 4.96709 9.10254 4.86552 9.21512 4.79949C9.31747 4.72839 9.44028 4.69792 9.5631 4.71315C9.51704 4.83505 9.43517 4.93662 9.32259 5.00265C9.22536 5.07375 9.09742 5.10422 8.97461 5.08899Z" fill="white"></path>
    <path d="M9.51195 3.63135C9.53242 3.7634 9.50683 3.90053 9.44542 4.02242C9.39425 4.13923 9.30214 4.24081 9.18956 4.29668C9.16909 4.16463 9.19467 4.0275 9.25608 3.91068C9.30725 3.78879 9.39425 3.69229 9.51195 3.63135Z" fill="white"></path>
    <path d="M9.23532 3.26056C9.29161 3.38245 9.30696 3.51958 9.28137 3.65163C9.26602 3.78368 9.20973 3.90557 9.11762 3.99699C9.06133 3.8751 9.04598 3.73797 9.07156 3.60592C9.08692 3.47895 9.14832 3.35706 9.23532 3.26056Z" fill="white"></path>
    <path d="M8.9639 2.79843C9.04578 2.90509 9.09183 3.03714 9.09183 3.16919C9.10719 3.30124 9.07648 3.43836 9.00484 3.55518C8.92296 3.44852 8.87691 3.32155 8.87691 3.1895C8.86156 3.05237 8.89226 2.91524 8.9639 2.79843Z" fill="white"></path>
    <path d="M9.0152 3.81929C8.90262 3.81421 8.79516 3.7685 8.71328 3.68724C8.62117 3.61106 8.55977 3.5044 8.53418 3.39267C8.64676 3.39775 8.75422 3.44346 8.8361 3.52472C8.92821 3.6009 8.98962 3.70248 9.0152 3.81929Z" fill="white"></path>
    <path d="M8.42138 2.77299C8.54419 2.8187 8.64142 2.90504 8.70283 3.01678C8.77959 3.12851 8.81541 3.26056 8.81029 3.39261C8.68748 3.3469 8.59025 3.26056 8.52884 3.14883C8.45208 3.03709 8.41626 2.90504 8.42138 2.77299Z" fill="white"></path>
    <path d="M8.48308 5.34293C8.53425 5.22104 8.62125 5.12454 8.73894 5.0636C8.75941 5.19565 8.73894 5.33278 8.67754 5.45467C8.63148 5.57656 8.53937 5.67306 8.42679 5.73401C8.4012 5.60196 8.42167 5.46483 8.48308 5.34293Z" fill="white"></path>
    <path d="M8.46247 5.90159C8.5904 5.91175 8.70298 5.9727 8.78997 6.06412C8.68763 6.13522 8.5597 6.16061 8.43688 6.1403C8.30895 6.13014 8.19637 6.06919 8.10938 5.97778C8.21684 5.91175 8.33965 5.88128 8.46247 5.90159Z" fill="white"></path>
    <path d="M7.99176 5.71877C8.08899 5.64259 8.21181 5.60196 8.33462 5.60704C8.2988 5.73401 8.21692 5.84066 8.10946 5.91177C8.01223 5.98795 7.88942 6.02858 7.7666 6.0235C7.80242 5.90161 7.87918 5.79495 7.99176 5.71877Z" fill="white"></path>
    <path d="M7.4795 6.09962H7.48462C7.52556 6.11486 7.56138 6.13517 7.5972 6.15549C7.63814 6.13517 7.67908 6.11486 7.72513 6.09454C7.9503 6.02344 8.20104 6.09962 8.34433 6.28246C8.23175 6.33833 8.10381 6.34848 7.98612 6.31293C7.86842 6.28754 7.76096 6.22151 7.6842 6.12502C7.66884 6.14025 7.64838 6.15549 7.63302 6.17073C7.78654 6.26214 7.91959 6.38404 8.02194 6.53132L7.90424 6.71416C7.82748 6.53132 7.72513 6.35864 7.59208 6.21136C7.45392 6.35864 7.34134 6.53132 7.25946 6.71924L7.14176 6.5364C7.25434 6.38911 7.39251 6.26722 7.55115 6.1758C7.5358 6.16057 7.51533 6.14533 7.49997 6.13009C7.42321 6.22659 7.31575 6.29262 7.19805 6.31801C7.08036 6.35356 6.95242 6.34341 6.83984 6.28754C6.9166 6.18596 7.02407 6.11486 7.152 6.08946C7.26458 6.05391 7.37716 6.05899 7.4795 6.09962Z" fill="white"></path>
    <path d="M7.20419 5.71878C7.31165 5.79496 7.39353 5.90161 7.42935 6.02858C7.30653 6.03874 7.18372 5.99811 7.08649 5.91685C6.97903 5.84067 6.89715 5.73401 6.86133 5.61212C6.98414 5.60196 7.10696 5.64259 7.20419 5.71878Z" fill="white"></path>
    <path d="M7.07611 5.97779C6.98911 6.06921 6.87653 6.13016 6.7486 6.14031C6.62579 6.16063 6.49785 6.13523 6.39551 6.06413C6.4825 5.97271 6.6002 5.91684 6.72301 5.90161C6.85095 5.88129 6.97376 5.91177 7.07611 5.97779Z" fill="white"></path>
    <path d="M6.76905 5.73401C6.65647 5.67306 6.56436 5.57148 6.5183 5.45467C6.45689 5.33278 6.43643 5.19565 6.45689 5.0636C6.56948 5.12454 6.66159 5.22612 6.70764 5.34801C6.76905 5.46483 6.78952 5.60196 6.76905 5.73401Z" fill="white"></path>
    <path d="M6.48777 3.01683C6.54918 2.90509 6.65153 2.81875 6.76923 2.77304C6.77434 2.90509 6.73852 3.03714 6.66176 3.14887C6.60035 3.26061 6.49801 3.34695 6.38031 3.39266C6.37519 3.26061 6.41613 3.12856 6.48777 3.01683Z" fill="white"></path>
    <path d="M6.35414 3.52472C6.43602 3.44346 6.53837 3.39775 6.65095 3.39267C6.62536 3.50948 6.56395 3.61106 6.47184 3.68724C6.38997 3.7685 6.2825 3.81421 6.16992 3.81929C6.20063 3.70756 6.26203 3.6009 6.35414 3.52472Z" fill="white"></path>
    <path d="M6.05297 4.43377C6.04274 4.31188 6.06833 4.19506 6.12973 4.08841C6.18091 3.98683 6.2679 3.90049 6.37536 3.85478C6.3856 3.97667 6.36001 4.09857 6.2986 4.20014C6.24743 4.3068 6.16044 4.38806 6.05297 4.43377Z" fill="white"></path>
    <path d="M6.11392 4.79951C5.9911 4.76903 5.88364 4.69285 5.812 4.5862C5.73012 4.47954 5.67895 4.35257 5.67383 4.22052C5.79664 4.25099 5.90411 4.32718 5.97575 4.43383C6.06274 4.53541 6.1088 4.66238 6.11392 4.79951Z" fill="white"></path>
    <path d="M6.26223 4.42363C6.35434 4.52013 6.41063 4.64202 6.42599 4.77407C6.45157 4.90612 6.43622 5.04325 6.37481 5.16514C6.2827 5.06864 6.22641 4.94675 6.21106 4.8147C6.18547 4.68265 6.20083 4.54552 6.26223 4.42363Z" fill="white"></path>
    <path d="M6.10445 3.16925C6.10445 3.0372 6.1505 2.90515 6.23238 2.79849C6.30402 2.91531 6.33473 3.05243 6.31937 3.18448C6.31937 3.31653 6.27332 3.44858 6.19144 3.55524C6.1198 3.43843 6.0891 3.30638 6.10445 3.16925Z" fill="white"></path>
    <path d="M5.95453 3.26056C6.04664 3.35706 6.10293 3.47895 6.11829 3.611C6.14387 3.74305 6.12852 3.88018 6.07223 3.99699C5.98012 3.90049 5.92383 3.7786 5.90848 3.64655C5.88289 3.5145 5.89824 3.38245 5.95453 3.26056Z" fill="white"></path>
    <path d="M5.68338 3.63135C5.80108 3.69229 5.88807 3.78879 5.93924 3.91068C6.00065 4.0275 6.02624 4.16463 6.00577 4.29668C5.88807 4.23573 5.80108 4.13923 5.7499 4.02242C5.68338 3.90053 5.66291 3.7634 5.68338 3.63135Z" fill="white"></path>
    <path d="M5.62207 4.71315C5.74489 4.69792 5.87282 4.72839 5.97005 4.79949C6.08263 4.86552 6.16962 4.96709 6.21056 5.08899C6.08774 5.10422 5.96493 5.07375 5.86258 5.00265C5.75512 4.93662 5.66813 4.83505 5.62207 4.71315Z" fill="white"></path>
    <path d="M5.86816 5.16524C5.99098 5.15 6.11891 5.18048 6.21614 5.25158C6.32872 5.31761 6.41571 5.41918 6.45665 5.54107C6.33384 5.55631 6.20591 5.52584 6.10868 5.45473C6.00121 5.38871 5.91422 5.28713 5.86816 5.16524Z" fill="white"></path>
    <path d="M6.03711 5.66798C6.14457 5.60704 6.2725 5.58672 6.39532 5.6172C6.51813 5.63751 6.63583 5.70354 6.71259 5.80003C6.60513 5.86098 6.4772 5.88129 6.35438 5.85082C6.22645 5.83051 6.11387 5.76448 6.03711 5.66798Z" fill="white"></path>
    <path d="M15.6673 5.00265C15.7696 5.07375 15.8924 5.10422 16.0152 5.08899C15.9692 4.96709 15.8873 4.86552 15.7747 4.79949C15.6724 4.72839 15.5496 4.69792 15.4268 4.71315C15.4677 4.83505 15.5547 4.93662 15.6673 5.00265Z" fill="white"></path>
    <path d="M16.2616 5.0636C16.2411 5.19565 16.2616 5.33278 16.323 5.45467C16.369 5.57656 16.4612 5.67306 16.5737 5.73401C16.5942 5.60196 16.5737 5.46483 16.5123 5.34293C16.4612 5.22612 16.3742 5.12454 16.2616 5.0636Z" fill="white"></path>
    <path d="M15.8059 4.29668C15.8264 4.16463 15.8008 4.0275 15.7394 3.91069C15.6882 3.79387 15.5961 3.6923 15.4835 3.63643C15.463 3.76848 15.4886 3.90561 15.55 4.0275C15.6012 4.13923 15.6933 4.23573 15.8059 4.29668Z" fill="white"></path>
    <path d="M16.4665 3.14887C16.5433 3.03714 16.5791 2.90509 16.574 2.77304C16.4511 2.81875 16.3539 2.90509 16.2925 3.01683C16.2158 3.12856 16.1799 3.26061 16.1851 3.39266C16.3027 3.34695 16.4051 3.26061 16.4665 3.14887Z" fill="white"></path>
    <path d="M16.2763 3.68729C16.3684 3.61111 16.4298 3.50953 16.4554 3.39272C16.3428 3.39779 16.2354 3.4435 16.1586 3.52477C16.0665 3.60095 16.0051 3.70252 15.9795 3.81934C16.0921 3.81426 16.1995 3.76855 16.2763 3.68729Z" fill="white"></path>
    <path d="M15.872 4.00213C15.9283 3.88024 15.9437 3.74311 15.9181 3.61106C15.9027 3.47901 15.8464 3.35712 15.7543 3.26062C15.698 3.38251 15.6827 3.51964 15.7083 3.65169C15.7236 3.77866 15.7799 3.90563 15.872 4.00213Z" fill="white"></path>
    <path d="M16.1133 3.18448C16.1236 3.05243 16.098 2.91531 16.0263 2.79849C15.9444 2.90515 15.8984 3.0372 15.8984 3.16925C15.883 3.3013 15.9137 3.43843 15.9854 3.55524C16.0673 3.44858 16.1133 3.32161 16.1133 3.18448Z" fill="white"></path>
    <path d="M18.5187 3.68729C18.6006 3.76855 18.7081 3.81426 18.8206 3.81934C18.795 3.70252 18.7336 3.60095 18.6466 3.52477C18.5648 3.4435 18.4573 3.39779 18.3447 3.39272C18.3652 3.50953 18.4266 3.61111 18.5187 3.68729Z" fill="white"></path>
    <path d="M18.2465 6.14028C18.3693 6.1606 18.4972 6.1352 18.5995 6.0641C18.5126 5.97268 18.3949 5.91681 18.272 5.90158C18.1492 5.88126 18.0213 5.90666 17.9189 5.97776C18.0008 6.06918 18.1185 6.13013 18.2465 6.14028Z" fill="white"></path>
    <path d="M18.6101 3.39261C18.6152 3.26056 18.5794 3.12851 18.5026 3.01678C18.4412 2.90504 18.3389 2.8187 18.2212 2.77299C18.2161 2.90504 18.2519 3.03709 18.3286 3.14883C18.3901 3.26056 18.4924 3.3469 18.6101 3.39261Z" fill="white"></path>
    <path d="M18.4772 5.45467C18.5386 5.33278 18.559 5.19565 18.5386 5.0636C18.426 5.12454 18.3339 5.22612 18.2878 5.34801C18.2264 5.46991 18.206 5.60703 18.2264 5.73908C18.339 5.67306 18.426 5.57656 18.4772 5.45467Z" fill="white"></path>
    <path d="M18.8046 3.55524C18.8763 3.43843 18.907 3.30638 18.8916 3.16925C18.8916 3.0372 18.8456 2.90515 18.7637 2.79849C18.6921 2.91531 18.6614 3.05243 18.6767 3.18448C18.6818 3.31653 18.7228 3.44858 18.8046 3.55524Z" fill="white"></path>
    <path d="M18.9223 4.00213C19.0144 3.90563 19.0707 3.78374 19.0861 3.65169C19.1116 3.51964 19.0963 3.38251 19.04 3.26062C18.9479 3.35712 18.8916 3.47901 18.8763 3.61106C18.8507 3.73803 18.866 3.87516 18.9223 4.00213Z" fill="white"></path>
    <path d="M18.9427 4.43377C18.953 4.31188 18.9274 4.19506 18.866 4.08841C18.8148 3.98683 18.7278 3.90049 18.6204 3.85478C18.6101 3.97667 18.6357 4.09857 18.6971 4.20014C18.7483 4.3068 18.8353 4.38806 18.9427 4.43377Z" fill="white"></path>
    <path d="M18.9884 4.29668C19.1061 4.23573 19.1931 4.13923 19.2442 4.02242C19.3057 3.9056 19.3312 3.76848 19.3108 3.63135C19.1931 3.69229 19.1061 3.78879 19.0549 3.9056C18.9935 4.0275 18.9679 4.16463 18.9884 4.29668Z" fill="white"></path>
    <path d="M18.5743 4.77918C18.5488 4.91123 18.5641 5.04836 18.6255 5.17025C18.7176 5.07375 18.7739 4.94678 18.7893 4.81473C18.8149 4.68268 18.7995 4.54555 18.7381 4.42366C18.646 4.52016 18.5846 4.64713 18.5743 4.77918Z" fill="white"></path>
    <path d="M15.4785 4.21544C15.4836 4.34749 15.5297 4.47954 15.6167 4.58111C15.6883 4.68777 15.7958 4.76395 15.9186 4.79443C15.9135 4.66238 15.8674 4.53033 15.7804 4.42875C15.7088 4.32717 15.6013 4.25099 15.4785 4.21544Z" fill="white"></path>
    <path d="M16.1542 5.85082C16.277 5.88129 16.4049 5.86098 16.5124 5.80003C16.4305 5.70354 16.3179 5.63751 16.1951 5.6172C16.0723 5.58672 15.9444 5.60704 15.8369 5.66798C15.9188 5.76448 16.0314 5.83051 16.1542 5.85082Z" fill="white"></path>
    <path d="M17.9093 5.91684C18.0167 5.84066 18.0986 5.734 18.1344 5.61211C18.0116 5.60703 17.8888 5.64258 17.7916 5.72384C17.6841 5.80003 17.6022 5.90668 17.5664 6.03365C17.6943 6.03365 17.8172 5.9981 17.9093 5.91684Z" fill="white"></path>
    <path d="M15.6729 5.16518C15.7189 5.28707 15.8008 5.38865 15.9134 5.45467C16.0157 5.52578 16.1385 5.55625 16.2613 5.54101C16.2153 5.41912 16.1334 5.31754 16.0208 5.25152C15.9185 5.18042 15.7957 5.14994 15.6729 5.16518Z" fill="white"></path>
    <path d="M16.0972 4.20527C16.1586 4.10369 16.1893 3.9818 16.174 3.85991C16.0665 3.90562 15.9795 3.98688 15.9283 4.09354C15.8669 4.19511 15.8362 4.317 15.8516 4.4389C15.959 4.38811 16.046 4.30685 16.0972 4.20527Z" fill="white"></path>
    <path d="M16.1737 5.17022C16.23 5.04833 16.2504 4.9112 16.2248 4.77915C16.2095 4.6471 16.1532 4.52521 16.0611 4.42871C16.0048 4.5506 15.9843 4.68773 16.0099 4.81978C16.0253 4.95183 16.0816 5.07372 16.1737 5.17022Z" fill="white"></path>
    <path d="M16.2002 6.06413C16.3025 6.13523 16.4305 6.16063 16.5533 6.14031C16.6812 6.13016 16.7938 6.06921 16.8808 5.97779C16.7784 5.90669 16.6505 5.88129 16.5277 5.90161C16.3998 5.91684 16.2872 5.97271 16.2002 6.06413Z" fill="white"></path>
    <path d="M16.9577 6.08444C16.8348 6.10984 16.7223 6.18094 16.6455 6.28252C16.7581 6.33839 16.886 6.34854 17.0037 6.31299C17.1214 6.2876 17.2289 6.22157 17.3056 6.12508C17.321 6.14031 17.3415 6.15555 17.3568 6.17078C17.2033 6.2622 17.0702 6.3841 16.9679 6.53138L17.0856 6.71422C17.1624 6.53138 17.2647 6.3587 17.3977 6.21142C17.5359 6.3587 17.6485 6.53138 17.7304 6.7193L17.8481 6.53646C17.7355 6.38917 17.5973 6.26728 17.4387 6.17586C17.454 6.16063 17.4745 6.14539 17.4899 6.13015C17.5666 6.22665 17.6741 6.29268 17.7918 6.31807C17.9095 6.35362 18.0374 6.34347 18.15 6.2876C18.0016 6.09968 17.7508 6.02858 17.5206 6.10476H17.5103C17.4694 6.12 17.4336 6.14031 17.3977 6.16063C17.3568 6.14031 17.3159 6.12 17.2698 6.09968C17.1675 6.05905 17.06 6.05905 16.9577 6.08444Z" fill="white"></path>
    <path d="M16.8853 5.91685C16.9825 5.99303 17.1054 6.03366 17.2282 6.02858C17.1924 5.90161 17.1105 5.79495 17.003 5.71877C16.9058 5.64259 16.783 5.60196 16.6602 5.60704C16.696 5.73401 16.7779 5.84574 16.8853 5.91685Z" fill="white"></path>
    <path d="M19.1838 4.5862C19.2656 4.47954 19.3168 4.35257 19.3219 4.22052C19.1991 4.25099 19.0916 4.32718 19.02 4.43383C18.9381 4.54049 18.887 4.66746 18.8818 4.79951C19.0047 4.76396 19.1121 4.68777 19.1838 4.5862Z" fill="white"></path>
    <path d="M18.7737 5.25158C18.6611 5.31761 18.5741 5.41918 18.5332 5.54107C18.656 5.55631 18.784 5.52584 18.8812 5.45473C18.9938 5.38871 19.0808 5.28713 19.1217 5.16524C18.9989 5.15 18.8761 5.18048 18.7737 5.25158Z" fill="white"></path>
    <path d="M19.0198 4.79951C18.9072 4.86553 18.8202 4.96711 18.7793 5.089C18.9021 5.10424 19.03 5.07376 19.1273 5.00266C19.2399 4.93664 19.3268 4.83506 19.3678 4.71317C19.245 4.69285 19.1222 4.72332 19.0198 4.79951Z" fill="white"></path>
    <path d="M18.6044 5.6172C18.4816 5.63751 18.3639 5.70354 18.2871 5.80003C18.3946 5.86098 18.5225 5.88129 18.6453 5.85082C18.7681 5.83051 18.8858 5.76448 18.9626 5.66798C18.85 5.60704 18.7221 5.58672 18.6044 5.6172Z" fill="white"></path>
    <path d="M19.3118 3.63135C19.3322 3.7634 19.3066 3.90053 19.2452 4.02242C19.1941 4.13923 19.1019 4.24081 18.9894 4.29668C18.9689 4.16463 18.9945 4.0275 19.0559 3.91068C19.1071 3.78879 19.1992 3.69229 19.3118 3.63135Z" fill="white"></path>
    <path d="M18.6979 4.20527C18.6365 4.10369 18.6057 3.9818 18.6211 3.85991C18.7286 3.90562 18.8156 3.98688 18.8667 4.09354C18.9281 4.19511 18.9588 4.317 18.9435 4.4389C18.836 4.38811 18.749 4.30685 18.6979 4.20527Z" fill="white"></path>
    <path d="M18.7834 4.81977C18.7681 4.95182 18.7118 5.07371 18.6197 5.17529C18.5634 5.05339 18.5429 4.91627 18.5685 4.78422C18.5839 4.65217 18.6402 4.53027 18.7323 4.43378C18.7886 4.55059 18.809 4.68772 18.7834 4.81977Z" fill="white"></path>
    <path d="M19.0141 4.4338C19.0858 4.32715 19.1932 4.25096 19.3161 4.22049C19.3109 4.35254 19.2649 4.48459 19.1779 4.58617C19.1063 4.69282 18.9988 4.769 18.876 4.79948C18.8862 4.66743 18.9323 4.53538 19.0141 4.4338Z" fill="white"></path>
    <path d="M19.04 3.26062C19.0963 3.38251 19.1116 3.51964 19.0861 3.65169C19.0707 3.78374 19.0144 3.90563 18.9223 3.99705C18.866 3.87516 18.8507 3.73803 18.8763 3.60598C18.8916 3.47901 18.9479 3.35204 19.04 3.26062Z" fill="white"></path>
    <path d="M18.7696 2.79849C18.8514 2.90515 18.8975 3.0372 18.8975 3.16925C18.9077 3.3013 18.8821 3.43843 18.8105 3.55524C18.7286 3.44858 18.6826 3.32161 18.6826 3.18956C18.6672 3.05243 18.6979 2.91531 18.7696 2.79849Z" fill="white"></path>
    <path d="M18.815 3.81934C18.7024 3.81426 18.595 3.76855 18.5131 3.68729C18.421 3.61111 18.3596 3.50445 18.334 3.39272C18.4466 3.39779 18.554 3.4435 18.6359 3.52477C18.7331 3.60095 18.7945 3.70252 18.815 3.81934Z" fill="white"></path>
    <path d="M18.2212 2.77299C18.3389 2.8187 18.4412 2.90504 18.5026 3.01678C18.5794 3.12851 18.6152 3.26056 18.6101 3.39261C18.4873 3.3469 18.3901 3.26056 18.3286 3.14883C18.2519 3.03709 18.2161 2.90504 18.2212 2.77299Z" fill="white"></path>
    <path d="M18.2833 5.34293C18.3293 5.22104 18.4214 5.12454 18.534 5.05852C18.5545 5.19057 18.534 5.3277 18.4726 5.44959C18.4265 5.57148 18.3344 5.66798 18.2218 5.72892C18.2014 5.60195 18.227 5.46482 18.2833 5.34293Z" fill="white"></path>
    <path d="M18.2672 5.90159C18.3951 5.91175 18.5077 5.9727 18.5947 6.06412C18.4923 6.13522 18.3644 6.16061 18.2416 6.1403C18.1136 6.13014 18.0011 6.06919 17.9141 5.97778C18.0215 5.91175 18.1443 5.88128 18.2672 5.90159Z" fill="white"></path>
    <path d="M17.7916 5.71873C17.8888 5.64254 18.0116 5.60191 18.1344 5.60699C18.0986 5.73396 18.0167 5.84062 17.9093 5.91172C17.812 5.98791 17.6892 6.02854 17.5664 6.02346C17.6022 5.90156 17.6841 5.79491 17.7916 5.71873Z" fill="white"></path>
    <path d="M17.3931 6.15555C17.4289 6.13524 17.4647 6.12 17.5057 6.09969H17.5108C17.7411 6.0235 17.9918 6.09969 18.1402 6.2876C18.0276 6.34347 17.8997 6.35363 17.782 6.31808C17.6592 6.29268 17.5517 6.22158 17.4801 6.12508C17.4647 6.14032 17.4443 6.15555 17.4289 6.17079C17.5876 6.26221 17.7257 6.3841 17.8383 6.53139L17.7206 6.71423C17.6387 6.52631 17.5313 6.35871 17.388 6.20634C17.2549 6.35363 17.1526 6.52631 17.0758 6.70915L16.9581 6.52631C17.0656 6.3841 17.1935 6.26221 17.347 6.16571C17.3317 6.15047 17.3112 6.13524 17.2959 6.12C17.2191 6.2165 17.1117 6.28252 16.994 6.30792C16.8763 6.34347 16.7483 6.33331 16.6357 6.27745C16.7841 6.08953 17.0298 6.01843 17.2601 6.08953C17.3112 6.11492 17.3522 6.13524 17.3931 6.15555Z" fill="white"></path>
    <path d="M17.004 5.71878C17.1115 5.79496 17.1933 5.90161 17.2292 6.02858C17.1063 6.03874 16.9835 5.99811 16.8863 5.91685C16.7788 5.84067 16.697 5.73401 16.6611 5.61212C16.7839 5.60196 16.9068 5.64259 17.004 5.71878Z" fill="white"></path>
    <path d="M16.8808 5.97778C16.7938 6.06919 16.6812 6.13014 16.5533 6.1403C16.4305 6.16061 16.3025 6.13522 16.2002 6.06412C16.2872 5.9727 16.4049 5.91683 16.5277 5.90159C16.6505 5.88128 16.7784 5.91175 16.8808 5.97778Z" fill="white"></path>
    <path d="M15.8577 4.43383C15.8474 4.31194 15.873 4.19513 15.9344 4.08847C15.9856 3.98689 16.0726 3.90055 16.1801 3.85484C16.1903 3.97674 16.1647 4.09863 16.1033 4.2002C16.047 4.30686 15.96 4.38812 15.8577 4.43383Z" fill="white"></path>
    <path d="M15.9127 4.79951C15.7899 4.76903 15.6825 4.68777 15.6108 4.5862C15.5289 4.47954 15.4778 4.35257 15.4727 4.22052C15.5955 4.25099 15.7029 4.32718 15.7746 4.43383C15.8616 4.53541 15.9127 4.66238 15.9127 4.79951Z" fill="white"></path>
    <path d="M16.0621 4.42366C16.1542 4.52016 16.2105 4.64205 16.2258 4.7741C16.2514 4.90615 16.2361 5.04328 16.1746 5.16517C16.0825 5.06867 16.0262 4.9417 16.0109 4.80965C15.9853 4.68268 16.0058 4.54555 16.0621 4.42366Z" fill="white"></path>
    <path d="M16.2672 5.54101C16.1444 5.55625 16.0165 5.52578 15.9192 5.45467C15.8066 5.38865 15.7196 5.28707 15.6787 5.16518C15.8015 5.14994 15.9295 5.18042 16.0267 5.25152C16.1341 5.31754 16.2211 5.41912 16.2672 5.54101Z" fill="white"></path>
    <path d="M16.1951 5.6172C16.3179 5.63751 16.4356 5.70354 16.5124 5.80003C16.4049 5.86098 16.277 5.88129 16.1542 5.85082C16.0314 5.83051 15.9137 5.76448 15.8369 5.66798C15.9444 5.60704 16.0723 5.58672 16.1951 5.6172Z" fill="white"></path>
    <path d="M16.5737 5.734C16.4612 5.67306 16.369 5.57148 16.323 5.44959C16.2616 5.3277 16.2411 5.19057 16.2616 5.05852C16.3742 5.11946 16.4663 5.22104 16.5123 5.34293C16.5737 5.46482 16.5942 5.60195 16.5737 5.734Z" fill="white"></path>
    <path d="M16.2927 3.01683C16.3541 2.90509 16.4564 2.81875 16.5741 2.77304C16.5793 2.90509 16.5434 3.03714 16.4667 3.14887C16.4053 3.26061 16.3029 3.34695 16.1801 3.39266C16.175 3.26061 16.2159 3.12856 16.2927 3.01683Z" fill="white"></path>
    <path d="M16.1588 3.52477C16.2407 3.4435 16.3431 3.39779 16.4556 3.39272C16.43 3.50953 16.3686 3.61111 16.2765 3.68729C16.1947 3.76855 16.0872 3.81426 15.9746 3.81426C16.0053 3.70252 16.0667 3.60095 16.1588 3.52477Z" fill="white"></path>
    <path d="M15.9033 3.16925C15.9033 3.0372 15.9494 2.90515 16.0312 2.79849C16.0978 2.91531 16.1285 3.05243 16.1131 3.18448C16.1131 3.31653 16.0671 3.44858 15.9852 3.55524C15.9187 3.43843 15.8879 3.30638 15.9033 3.16925Z" fill="white"></path>
    <path d="M15.7553 3.26062C15.8474 3.35712 15.9037 3.47901 15.9191 3.61106C15.9447 3.74311 15.9293 3.88024 15.873 4.00213C15.7809 3.90563 15.7246 3.78374 15.7093 3.65169C15.6837 3.51964 15.699 3.38251 15.7553 3.26062Z" fill="white"></path>
    <path d="M15.4835 3.63135C15.6012 3.69229 15.6882 3.78879 15.7394 3.9056C15.8008 4.02242 15.8264 4.15955 15.8059 4.2916C15.6882 4.23065 15.6012 4.13415 15.55 4.01734C15.4886 3.90053 15.463 3.7634 15.4835 3.63135Z" fill="white"></path>
    <path d="M15.7757 4.79955C15.8883 4.86558 15.9753 4.96715 16.0162 5.08905C15.8934 5.10428 15.7655 5.07381 15.6682 5.00271C15.5557 4.93668 15.4687 4.83511 15.4277 4.71321C15.5454 4.6929 15.6734 4.72337 15.7757 4.79955Z" fill="white"></path>
    <path d="M18.6414 5.85082C18.5186 5.88129 18.3907 5.86098 18.2832 5.80003C18.3651 5.70354 18.4777 5.63751 18.6005 5.6172C18.7233 5.58672 18.8512 5.60704 18.9587 5.66798C18.8819 5.76448 18.7693 5.83051 18.6414 5.85082Z" fill="white"></path>
    <path d="M18.8812 5.45473C18.7788 5.52584 18.656 5.55631 18.5332 5.54107C18.5793 5.41918 18.6611 5.31761 18.7737 5.25158C18.8761 5.18048 18.9989 5.15 19.1217 5.16524C19.0808 5.28713 18.9938 5.38871 18.8812 5.45473Z" fill="white"></path>
    <path d="M19.1273 5.00266C19.0249 5.07377 18.9021 5.10424 18.7793 5.089C18.8254 4.96711 18.9072 4.86553 19.0198 4.79951C19.1222 4.7284 19.245 4.69793 19.3678 4.71317C19.3268 4.83506 19.2399 4.93664 19.1273 5.00266Z" fill="white"></path>
    <path d="M11.1031 19.3859C11.0775 19.3859 11.0366 19.3808 10.9854 19.3808C10.9496 19.3808 10.9086 19.3808 10.8575 19.3859H10.8421V19.3707C10.8626 19.2488 10.8677 19.1269 10.8677 18.9999V18.3194C10.8677 18.1315 10.8524 18.1111 10.7909 18.1111C10.7654 18.1111 10.7398 18.1162 10.7142 18.1213L10.6067 18.1467C10.5811 18.1518 10.5555 18.1619 10.53 18.1721H10.5248L10.4941 18.1467L10.4993 18.1365C10.5197 18.0959 10.5351 18.0553 10.5453 18.0146V18.0045H10.5555C10.6067 17.9994 10.663 17.9943 10.7142 17.9791L10.9445 17.9283C10.9854 17.9181 11.0315 17.908 11.0724 17.8978H11.0775L11.1031 17.9232V17.9283C11.0877 18.0451 11.0775 18.167 11.0775 18.2838V19.0304C11.0724 19.1472 11.0877 19.264 11.1184 19.3758L11.1236 19.391L11.1031 19.3859Z" fill="white"></path>
    <path d="M12.7206 19.4011V19.4113H12.7104C12.7104 19.4113 12.5364 19.4113 12.4391 19.4214H12.4289L12.4084 19.3859L13.1556 18.1263H12.6899C12.6029 18.1212 12.5159 18.1466 12.4443 18.1923L12.4391 18.1974L12.4033 18.1822L12.4084 18.172C12.434 18.0958 12.4494 18.0247 12.4596 17.9435V17.9333H12.4698C12.5261 17.9384 12.5824 17.9384 12.6438 17.9384H13.1811C13.2374 17.9384 13.2886 17.9384 13.3449 17.9333H13.3551V17.9435C13.3603 17.9892 13.3705 18.0349 13.3807 18.0806V18.0857L13.3756 18.0908C13.2323 18.2736 13.1095 18.4666 13.002 18.6748C12.8127 19.0151 12.7411 19.2081 12.7206 19.4011Z" fill="white"></path>
    <path d="M11.9578 18.5733C12.096 18.4971 12.229 18.4006 12.229 18.2127C12.229 18.0096 12.0601 17.8623 11.8247 17.8623C11.5893 17.8623 11.3949 18.035 11.3949 18.2533C11.3949 18.4362 11.5177 18.5378 11.6456 18.6139C11.4461 18.7308 11.3232 18.8425 11.3232 19.0355C11.3232 19.264 11.5075 19.4266 11.7736 19.4266C12.0652 19.4266 12.2802 19.2437 12.2802 18.9898C12.2751 18.7815 12.1215 18.6647 11.9578 18.5733ZM11.5791 18.2127C11.5791 18.0807 11.6815 17.974 11.8094 17.974H11.8196C11.9527 17.9689 12.0601 18.0705 12.0652 18.2026V18.2178C12.0652 18.3752 11.9527 18.4565 11.835 18.5225C11.707 18.4463 11.5791 18.3651 11.5791 18.2127ZM11.7838 19.3199C11.6303 19.325 11.4972 19.2082 11.4921 19.0507V19.0304C11.4921 18.8526 11.6303 18.746 11.7736 18.6749C11.968 18.7815 12.0908 18.8679 12.0908 19.0304C12.0857 19.1929 11.9527 19.3199 11.794 19.3148C11.7906 19.3182 11.7872 19.3199 11.7838 19.3199Z" fill="white"></path>
    <path d="M14.0098 18.6038C14.1479 18.5276 14.2759 18.4311 14.2759 18.2432C14.2759 18.04 14.107 17.8927 13.8716 17.8927C13.6362 17.8927 13.4418 18.0654 13.4418 18.2838C13.4418 18.4666 13.5646 18.5682 13.6925 18.6444C13.4929 18.7612 13.3701 18.8729 13.3701 19.0659C13.3701 19.2945 13.5543 19.457 13.8204 19.457C14.1121 19.457 14.3271 19.2742 14.3271 19.0202C14.3322 18.812 14.1786 18.6952 14.0098 18.6038ZM13.6516 18.2432C13.6516 18.1111 13.7539 18.0045 13.887 18.0045H13.8972C14.0302 17.9994 14.1377 18.106 14.1428 18.233V18.2482C14.1428 18.4057 14.0251 18.487 13.9125 18.553C13.7795 18.4768 13.6516 18.3955 13.6516 18.2432ZM13.8563 19.3504C13.6976 19.3554 13.5697 19.2335 13.5646 19.0812V19.0659C13.5646 18.8882 13.7027 18.7815 13.846 18.7104C14.0405 18.8171 14.1633 18.9034 14.1633 19.0659C14.1582 19.2285 14.0251 19.3554 13.8665 19.3504C13.8631 19.3504 13.8597 19.3504 13.8563 19.3504Z" fill="white"></path>
    <path d="M8.00722 16.3386L7.88953 16.7652C7.4392 16.75 7.14752 16.75 6.88654 16.75C6.55903 16.75 6.33899 16.75 6.165 16.7551C6.20082 16.5062 6.22129 16.2573 6.22129 16.0085V14.7642C6.22129 14.561 6.21617 14.1801 6.14453 14.0074C6.2827 14.0176 6.36969 14.0176 6.47204 14.0176H7.21916C7.48526 14.0176 7.59272 14.0074 7.87929 14.0074L7.75136 14.4696C7.73089 14.5458 7.68995 14.4899 7.68483 14.4797C7.56202 14.302 7.32151 14.2817 7.09635 14.2817C7.02982 14.2817 6.94283 14.2868 6.84048 14.2918C6.83536 14.3579 6.82513 14.5458 6.82513 14.7185V15.1197H7.15264C7.34709 15.1197 7.54155 15.1095 7.73089 15.0892C7.77183 15.0841 7.76159 15.1146 7.76159 15.1146L7.66437 15.4549C7.47503 15.4346 7.28569 15.4244 7.09635 15.4244H6.8149V15.9831C6.8149 16.3437 6.85583 16.4656 7.28569 16.4656C7.53132 16.4656 7.66437 16.4656 7.93046 16.2675C7.97652 16.2218 8.03281 16.2421 8.00722 16.3386Z" fill="white"></path>
    <path d="M9.1994 16.3386C9.14823 16.4707 9.10729 16.6078 9.0817 16.7449C9.04076 16.7398 8.94865 16.7398 8.85654 16.7398C8.77978 16.7398 8.67744 16.7449 8.60068 16.75C8.57509 16.5925 8.53415 16.4402 8.48298 16.2929L8.222 15.4955C8.14524 15.2568 8.04801 14.9978 7.87402 14.7997C8.11454 14.8048 8.35505 14.7997 8.59556 14.7743C8.61603 14.9673 8.65185 15.1552 8.71326 15.3381L8.86166 15.8409C8.89748 15.9577 8.97424 16.2218 8.97424 16.2218C8.99983 16.1355 9.03565 16.0542 9.06123 15.978L9.29151 15.3889C9.3478 15.2517 9.38362 15.1095 9.39897 14.9673C9.39897 14.9115 9.40409 14.8607 9.39897 14.7946C9.45526 14.7997 9.55761 14.7997 9.63949 14.7997C9.7316 14.7997 9.81859 14.7946 9.9107 14.7845C9.96699 14.7794 9.95676 14.8099 9.94141 14.8353C9.79812 15.0333 9.68043 15.2517 9.59343 15.4803L9.1994 16.3386Z" fill="white"></path>
    <path d="M12.3927 16.7449C12.3262 16.7398 12.1983 16.7348 12.0755 16.7348C11.9527 16.7348 11.8247 16.7398 11.748 16.7449C11.7838 16.5113 11.7991 16.2726 11.794 16.0339V15.5565C11.794 15.3635 11.7787 15.0232 11.707 14.8099C11.8605 14.8099 12.0959 14.7997 12.2597 14.7946L12.2546 15.2467L12.3979 15.0587C12.577 14.8251 12.7049 14.7489 12.8942 14.7489C12.9556 14.7489 13.0119 14.7591 13.0682 14.7845C13.0119 14.9876 12.9505 15.2009 12.9198 15.3228C12.9147 15.3482 12.8891 15.3838 12.8533 15.3432C12.7765 15.2568 12.7612 15.2263 12.6691 15.2263C12.5514 15.2314 12.449 15.2974 12.3979 15.399C12.3416 15.4904 12.316 15.5666 12.316 15.7596V16.0847C12.3109 16.43 12.3365 16.5722 12.3927 16.7449Z" fill="white"></path>
    <path d="M14.6133 14.8302L14.5366 15.1196C14.4189 15.1044 14.3012 15.0993 14.1783 15.0993H13.9992C13.989 15.2365 13.989 15.3939 13.989 15.5056V15.9577C13.989 16.2624 14.0197 16.4859 14.2858 16.4859C14.3779 16.4859 14.4649 16.4605 14.5468 16.4147C14.5621 16.4046 14.6031 16.4097 14.5928 16.4605C14.5673 16.5468 14.5468 16.6281 14.5161 16.7296C14.3626 16.7804 14.2039 16.8058 14.0453 16.8109C13.7024 16.8109 13.4773 16.6636 13.4773 16.171V15.5615C13.4773 15.3634 13.4773 15.2212 13.467 15.0943C13.3749 15.0943 13.2828 15.1044 13.1958 15.1146C13.1856 15.1146 13.1549 15.1146 13.1702 15.0689L13.2368 14.8149C13.2879 14.82 13.3852 14.82 13.4824 14.82C13.4824 14.6625 13.4722 14.5813 13.467 14.4594C13.6461 14.4035 13.8201 14.3273 13.9788 14.2308C14.0197 14.2055 14.0402 14.241 14.0351 14.2867C14.0095 14.4645 13.9992 14.6422 13.9992 14.82H14.2807C14.383 14.8251 14.4854 14.8149 14.5877 14.7946C14.598 14.7895 14.6235 14.7946 14.6133 14.8302Z" fill="white"></path>
    <path d="M18.5278 16.7398C18.3999 16.7398 18.2668 16.7449 18.2003 16.75C18.2361 16.4961 18.2515 16.2421 18.2464 15.9882V15.6377C18.2464 15.4041 18.231 15.1349 17.8984 15.1349C17.7756 15.1349 17.6579 15.1857 17.5709 15.2721C17.4685 15.3736 17.4429 15.46 17.4429 15.7088V15.9933C17.4429 16.3589 17.4685 16.5824 17.5248 16.7551C17.4634 16.75 17.3304 16.7449 17.2024 16.7449C17.0745 16.7449 16.9414 16.75 16.8749 16.7551C16.9107 16.5011 16.9261 16.2472 16.921 15.9933V15.5006C16.9261 15.2619 16.8954 15.0283 16.834 14.7997C17.0131 14.7997 17.2587 14.7997 17.4327 14.7845L17.4225 15.1298L17.5862 14.9927C17.7858 14.8251 17.9496 14.7591 18.1491 14.7591C18.6148 14.7591 18.7683 15.0181 18.7683 15.4701V15.9882C18.7683 16.3538 18.7939 16.5773 18.8502 16.75C18.7888 16.7449 18.6557 16.7398 18.5278 16.7398Z" fill="white"></path>
    <path d="M11.4827 15.7292C11.5492 15.7292 11.5492 15.5616 11.5492 15.5209C11.5492 15.0486 11.2421 14.7591 10.756 14.7591C10.188 14.7591 9.79395 15.1857 9.79395 15.7952C9.79395 16.4046 10.1829 16.8109 10.7918 16.8109C11.0016 16.8008 11.2114 16.7652 11.411 16.6941C11.4417 16.5773 11.4519 16.5418 11.4929 16.4046C11.5082 16.3386 11.4724 16.3183 11.4417 16.3437C11.324 16.4351 11.1807 16.4808 11.0323 16.4707C10.6076 16.4707 10.3517 16.2015 10.3466 15.7342C10.4797 15.7241 10.7662 15.7241 10.976 15.7241L11.4827 15.7292ZM10.3466 15.4955C10.3671 15.1705 10.4745 14.9826 10.7253 14.9826C10.8942 14.9775 11.0374 15.1146 11.0374 15.2822V15.2975C11.0374 15.4244 10.9709 15.4752 10.7969 15.4803L10.3466 15.4955Z" fill="white"></path>
    <path d="M15.7392 14.754C15.0279 14.754 14.6543 15.206 14.6543 15.8257C14.6543 16.4453 15.0227 16.816 15.6471 16.816C16.3021 16.816 16.7268 16.3945 16.7268 15.7292C16.7217 15.1095 16.3686 14.754 15.7392 14.754ZM15.688 16.5875C15.3861 16.5875 15.2172 16.2929 15.2172 15.7444C15.2172 15.2771 15.3451 14.9775 15.6726 14.9775C16.0001 14.9775 16.1537 15.2721 16.1537 15.8206C16.1588 16.3285 15.995 16.5875 15.688 16.5875Z" fill="white"></path>
  </g>
  <defs>
    <clipPath id="clip0_472_111333">
      <rect width="25" height="25.3906" fill="white"></rect>
    </clipPath>
  </defs>
</svg>
