<?xml version="1.0" encoding="UTF-8"?>
<svg xmlns="http://www.w3.org/2000/svg" width="22" height="22" viewBox="0 0 22 22" fill="none">
  <g clip-path="url(#clip0_413_137171)">
    <path d="M10.9917 0C17.0432 0 21.9833 4.94018 21.9833 11.0083C22 17.0919 17.0432 22 10.9274 22C4.81168 22 0 17.0432 0 10.9917C0 4.94018 4.92472 0.0166577 10.9917 0ZM5.98724 1.40043C5.89086 1.44922 5.82661 1.46468 5.77783 1.49681C4.79621 2.10838 3.91098 2.83299 3.1709 3.71823C1.81806 5.31141 1.03039 7.1616 0.85311 9.25333C0.724608 10.7014 0.740076 12.166 1.12677 13.5819C2.86512 20.0511 10.1064 23.1256 15.9652 19.8904C16.0294 19.8583 16.0782 19.8262 16.1746 19.7774C16.1103 20.0832 16.0461 20.3402 15.9818 20.6305C16.0949 20.5817 16.1425 20.5663 16.2067 20.5341C17.9129 19.4716 19.2646 18.0724 20.1498 16.2531C21.3242 13.8389 21.486 11.2963 20.9387 8.73694C19.5061 2.12266 12.0554 -1.22553 6.11693 2.02628C6.03602 2.07507 5.93964 2.12266 5.81114 2.18691C5.8742 1.89897 5.92299 1.67409 5.98724 1.40043Z" fill="#3B2050"></path>
    <path d="M6.0027 1.40043C5.93845 1.67409 5.88967 1.89897 5.82542 2.18929C5.95392 2.12504 6.0503 2.07625 6.13121 2.02866C12.0697 -1.22196 19.5049 2.1417 20.9529 8.73932C21.5157 11.3141 21.3396 13.8568 20.1641 16.2555C19.2789 18.0735 17.9272 19.4585 16.221 20.5365C16.1722 20.5686 16.1079 20.5853 15.9961 20.6329C16.0604 20.3271 16.1246 20.0856 16.1889 19.7798C16.0925 19.8286 16.0282 19.8607 15.9794 19.8928C10.1219 23.128 2.87939 20.0534 1.14105 13.5843C0.754353 12.1518 0.738885 10.7037 0.867387 9.2557C1.04467 7.16398 1.81687 5.3126 3.18518 3.71941C3.92526 2.83418 4.81049 2.10957 5.7921 1.498C5.84208 1.46468 5.90633 1.44802 6.0027 1.40043Z" fill="white"></path>
    <path d="M13.2452 16.9623C13.1643 16.6886 13.1001 16.4637 13.0525 16.2698C12.5051 16.4947 12.0066 16.7528 11.4747 16.9135C10.5086 17.2026 9.55911 17.1384 8.64175 16.7207C8.449 16.6398 8.40021 16.528 8.43234 16.3186C8.62509 15.3845 8.706 14.4684 8.46447 13.5343C8.44781 13.4856 8.43234 13.4213 8.41568 13.3737C8.41568 13.3571 8.38356 13.3416 8.35143 13.2773C7.86836 13.9853 7.35316 14.6457 6.66187 15.193C6.11455 14.002 6.11455 12.7788 6.27517 11.4914C5.93726 11.5878 5.63148 11.6842 5.27691 11.7805C5.40541 10.6538 5.82423 9.70428 6.4834 8.80357C6.27398 8.75479 6.0967 8.72267 5.88848 8.69054C6.3073 7.83743 6.88675 7.14614 7.67442 6.55003C7.54592 7.16161 7.57804 7.6768 8.10871 8.04684C8.05992 7.86956 8.01233 7.69227 7.9802 7.49952C7.96355 7.35436 7.96355 7.21039 7.9802 7.0807C8.07658 6.5655 8.44662 6.35609 8.94635 6.50125C9.04272 6.53337 9.1391 6.5655 9.26879 6.62975C9.12363 6.27518 8.8821 6.13121 8.59297 6.00152C8.59297 5.96939 8.59297 5.95274 8.57631 5.92061C9.04272 5.77545 9.49367 5.59817 9.97674 5.48632C10.3956 5.38995 10.8453 5.38995 11.2808 5.34116C11.6996 5.29238 12.0209 5.4542 12.2945 5.75998C12.3909 5.85636 12.4873 5.95274 12.6003 6.04911C12.617 6.03245 12.6491 6.03245 12.6646 6.01699C12.6324 5.85636 12.6003 5.7112 12.5682 5.53392C12.617 5.53392 12.6646 5.53391 12.7134 5.55057C13.2119 5.69573 13.695 5.88848 14.0971 6.2264C14.1614 6.27518 14.2578 6.33943 14.2744 6.41915C14.3708 6.74159 14.4517 7.07951 14.5481 7.38529C14.0817 7.06285 13.5986 6.72494 13.0834 6.37156C13.0025 6.61309 12.9549 6.79038 12.8906 6.98313C12.5206 6.75825 12.1982 6.54884 11.8602 6.37156C11.7317 6.30731 11.5545 6.27518 11.4093 6.30731C10.8465 6.40368 10.3147 6.61309 9.83158 7.01526C9.91249 7.07951 9.99221 7.12829 10.1207 7.22467C9.76614 7.40195 9.46036 7.56258 9.22001 7.91715C9.63883 7.8529 9.68642 8.12656 9.81493 8.3681C10.0243 8.78692 10.3944 8.99633 10.8608 9.0118C11.4236 9.02845 11.9876 9.0118 12.567 9.0118C12.4064 8.83451 12.2124 8.65723 12.0363 8.46447C11.8436 8.23959 11.6021 8.15869 11.3117 8.19081C10.9096 8.22294 10.5229 8.12656 10.2016 7.86837C10.6526 7.3377 11.0702 7.32104 11.9721 7.80412C12.1173 7.72321 12.2612 7.65896 12.4064 7.57924C12.423 7.62802 12.4385 7.64349 12.4385 7.64349C12.31 7.9116 12.3528 8.15313 12.567 8.3681C12.7598 8.56085 12.937 8.77026 13.1143 8.96301C13.3559 8.91423 13.5974 8.84998 13.8389 8.84998C14.0805 8.83332 14.322 8.8821 14.5957 8.89876C14.2411 8.51207 13.8877 8.15868 13.5332 7.78865C13.5498 7.75652 13.5819 7.7244 13.5974 7.69227C13.7259 7.77318 13.8544 7.83743 13.9996 7.91715C14.1602 7.88502 14.2566 7.56258 14.4826 7.78865C14.6433 7.94927 14.6278 8.11109 14.466 8.31931C14.5945 8.46447 14.7396 8.59297 14.8848 8.77026C14.9169 8.65722 14.9336 8.60963 14.9657 8.54538H15.0145C16.1734 10.1873 16.5113 11.9578 15.8509 13.9365C15.6903 13.7592 15.5452 13.6141 15.3679 13.438C15.2548 14.1947 15.0621 14.8539 14.692 15.45C14.3399 16.0616 13.8568 16.5601 13.2452 16.9623ZM11.4581 10.348C11.6508 10.718 11.8448 11.0559 12.0054 11.3938C12.0863 11.5711 12.1982 11.6032 12.36 11.5545C12.9228 11.4093 13.3582 11.0559 13.808 10.7014C13.8247 10.6847 13.8568 10.6526 13.8568 10.6204C13.8568 10.3789 13.8889 10.1374 13.8401 9.9125C13.8235 9.81612 13.6153 9.76734 13.5022 9.68762C13.4213 9.63884 13.3571 9.57459 13.2773 9.55912C13.1643 9.52699 13.0358 9.47821 12.9228 9.51033C12.3754 9.67215 11.9257 9.9946 11.4581 10.348ZM12.473 12.2791C12.5373 12.4242 12.6503 12.6015 12.73 12.7943C12.7943 12.9394 12.8752 12.9716 13.0037 12.9073C13.2452 12.7788 13.4867 12.6658 13.7604 12.5373L13.8568 13.3095C13.8889 13.3095 13.921 13.3095 13.9377 13.2928C14.3077 13.0037 14.5493 12.617 14.5814 12.166C14.5981 11.9566 14.4529 11.6508 14.2756 11.5378C14.1304 11.4414 13.8092 11.489 13.6319 11.5866C13.2452 11.7484 12.8752 12.0221 12.473 12.2791ZM14.8705 9.51152C14.6932 9.62456 14.5647 9.72093 14.4196 9.81731C14.3708 9.84944 14.3232 9.91369 14.3232 9.96247C14.178 10.5907 14.5481 10.9929 14.9348 11.4272C15.193 10.7823 15.1121 10.1552 14.8705 9.51152Z" fill="#3B2050"></path>
    <path d="M12.2636 3.13878C12.2957 3.62185 12.3279 4.03948 12.3766 4.50709C12.6503 4.2013 12.8752 3.95976 13.1167 3.70276L13.1655 3.75154C13.0691 4.21796 12.9561 4.70103 12.8431 5.1841C11.2332 4.78194 9.68881 4.95922 8.20865 5.74689C7.99924 5.28048 7.77436 4.84619 7.53283 4.31433C7.87074 4.52374 8.16106 4.7165 8.49897 4.92591C8.43472 4.47496 8.37047 4.05733 8.28956 3.58973C8.80476 3.9443 9.25571 4.25008 9.73759 4.58799C9.89822 4.10492 10.06 3.65398 10.2361 3.13997C10.5253 3.59092 10.7835 3.99308 11.0571 4.44402C11.4747 4.00736 11.8448 3.60519 12.2636 3.13878ZM2.33326 13.9853C2.30114 13.8889 2.26901 13.8247 2.23689 13.7438C2.54267 13.6153 2.8318 13.5022 3.15425 13.3737C3.25062 13.6307 3.347 13.8889 3.46003 14.178C3.50882 14.2744 3.60519 14.4029 3.62066 14.5481C3.63732 14.7575 3.44338 14.8217 3.28275 14.886C3.12212 14.9502 2.97696 15.0145 2.79968 15.0787C2.76755 14.9978 2.73543 14.9336 2.68664 14.8372C2.86393 14.7563 3.04121 14.7087 3.20184 14.6123C3.26609 14.5802 3.29822 14.4672 3.33034 14.4029C3.24943 14.3708 3.15306 14.3065 3.07334 14.322C2.91271 14.3541 2.75089 14.435 2.55814 14.5148C2.52602 14.4505 2.49389 14.3696 2.44511 14.2899C2.62239 14.209 2.79968 14.1614 2.94365 14.065C3.0079 14.0162 3.04002 13.9198 3.07215 13.8401C2.99124 13.8235 2.89486 13.7592 2.81514 13.7759C2.68783 13.8401 2.52721 13.921 2.33326 13.9853ZM5.79329 16.5601C5.8742 16.6243 5.93845 16.6731 6.01817 16.7374C5.76117 17.0598 5.51963 17.3656 5.24597 17.7035C5.4066 17.832 5.55176 17.9605 5.72904 18.1057C5.68026 18.1699 5.63267 18.2342 5.56842 18.3151L4.84381 17.7356C5.16625 17.3489 5.47204 16.9623 5.79329 16.5601ZM10.091 19.0552C10.2837 19.023 10.3646 19.0873 10.3158 19.2646L10.2671 19.6025C10.2183 19.8916 10.0101 20.0689 9.7364 20.0213C9.44727 19.9892 9.28545 19.7964 9.30211 19.4906C9.31877 19.3134 9.35089 19.1361 9.36636 18.9279C9.46274 18.9445 9.52699 18.96 9.62336 18.9766C9.59124 19.1539 9.55911 19.3312 9.55911 19.4918C9.55911 19.5882 9.64002 19.7167 9.71974 19.7488C9.84824 19.8131 9.94462 19.7001 9.97674 19.5716C10.0267 19.4085 10.0588 19.2325 10.091 19.0552ZM2.7033 12.2469C2.55814 11.7163 2.1881 12.0697 1.89897 11.9733C1.89897 11.9245 1.88232 11.8448 1.86685 11.7484C2.20476 11.7163 2.52721 11.6675 2.83299 11.6354C2.86512 11.8448 2.88178 12.0054 2.89724 12.1982C2.84846 12.2148 2.78421 12.2148 2.7033 12.2469ZM4.03948 16.898C3.9907 16.8492 3.95857 16.785 3.89432 16.7207L4.61893 16.0925C4.74743 16.2376 4.87593 16.3816 5.02109 16.5434C4.98897 16.5756 4.92472 16.6243 4.87593 16.6719C4.4583 16.3031 4.32861 16.8183 4.03948 16.898ZM3.07334 15.5464C3.02455 15.4654 2.99243 15.4012 2.94484 15.3215C3.23397 15.1608 3.50763 14.999 3.81341 14.8384C3.8622 14.9193 3.89432 14.9836 3.95857 15.0633C3.65279 15.2251 3.36366 15.3691 3.07334 15.5464ZM4.15252 14.5481C4.23342 14.6611 4.31314 14.7254 4.29768 14.7896C4.28102 14.8539 4.2013 14.9027 4.15252 14.9502C4.10373 14.9015 4.00736 14.8372 3.99189 14.7896C3.97523 14.7254 4.07161 14.6611 4.15252 14.5481Z" fill="#3B2050"></path>
    <path d="M11.4581 10.348C11.9245 9.9934 12.3754 9.67215 12.9228 9.52699C13.0358 9.49486 13.1643 9.54365 13.2773 9.57577C13.3582 9.6079 13.4225 9.65668 13.5022 9.70427C13.6153 9.76852 13.8247 9.83277 13.8401 9.92915C13.8889 10.154 13.8568 10.3956 13.8568 10.6371C13.8568 10.6692 13.8247 10.7014 13.808 10.718C13.3737 11.0726 12.9394 11.426 12.36 11.5711C12.1827 11.6199 12.0863 11.5711 12.0054 11.4105C11.8448 11.0559 11.652 10.718 11.4581 10.348ZM12.473 12.2791C12.8752 12.0221 13.2452 11.7639 13.6319 11.5545C13.8247 11.4581 14.1304 11.4093 14.2756 11.5057C14.4529 11.6187 14.5981 11.9245 14.5814 12.1339C14.5493 12.5849 14.3077 12.9704 13.9377 13.2607C13.921 13.2773 13.8889 13.2773 13.8568 13.2773L13.7604 12.5051C13.4867 12.6336 13.2452 12.7621 13.0037 12.8752C12.8752 12.9394 12.7943 12.9073 12.73 12.7621C12.6491 12.6015 12.5527 12.4088 12.473 12.2791ZM14.8705 9.51152C15.1121 10.1552 15.2084 10.7668 14.9348 11.4426C14.5481 11.0083 14.178 10.5895 14.3232 9.97793C14.3399 9.92915 14.3875 9.8649 14.4196 9.83278C14.5481 9.72093 14.6932 9.64002 14.8705 9.51152Z" fill="white"></path>
    <path d="M8.88329 18.8457C8.69053 18.6851 8.49659 18.6851 8.28837 18.8136C8.09562 18.9267 8.01471 19.1837 8.07896 19.4252C8.14321 19.6346 8.3205 19.7631 8.56203 19.7631H8.69054C8.56203 20.0368 8.40141 20.0368 8.04684 19.7631C7.99805 19.8119 7.95046 19.844 7.88621 19.9083C8.192 20.3271 8.73932 20.3592 8.89995 19.9725C9.0451 19.6346 9.10936 19.28 9.22239 18.9267C9.0927 18.8933 8.9642 18.91 8.88329 18.8457ZM8.91541 19.3122C8.80238 19.3764 8.706 19.4894 8.59297 19.5049C8.43234 19.5216 8.33597 19.3919 8.35143 19.2313C8.36809 19.0706 8.46447 18.9576 8.60844 18.9897C8.72147 19.0218 8.81785 19.1349 8.91422 19.1991V19.3122H8.91541ZM3.347 10.461H1.85019V10.718C2.01082 10.718 2.17263 10.7347 2.33326 10.7347C2.33326 10.8477 2.33326 10.9441 2.34992 11.0238C2.38204 11.2975 2.5748 11.4747 2.84846 11.4747C3.10546 11.4747 3.31487 11.3141 3.347 11.0559C3.36366 10.8632 3.347 10.6704 3.347 10.461ZM2.97696 11.1368C2.94483 11.1689 2.76755 11.1856 2.75208 11.1368C2.67117 11.0404 2.63905 10.8953 2.5748 10.7347H3.12212C3.05787 10.8953 3.04121 11.0404 2.97696 11.1368ZM7.75771 18.4436C7.59708 18.2984 7.41979 18.2663 7.22704 18.3305C7.01763 18.4115 6.9046 18.5876 6.88913 18.8136C6.88913 19.0064 6.97004 19.2003 7.16279 19.28C7.34008 19.3609 7.51736 19.4085 7.72558 19.4728C7.85408 19.1991 7.98258 18.91 8.11228 18.6197C7.98258 18.54 7.85408 18.5233 7.75771 18.4436ZM7.45192 19.0706C7.35554 19.0706 7.21038 18.9421 7.19492 18.8457C7.16279 18.7006 7.27582 18.5566 7.43645 18.5721C7.54949 18.5887 7.64586 18.6851 7.7589 18.7494V18.8624C7.64467 18.9421 7.5483 19.0706 7.45192 19.0706ZM6.75944 18.5876C6.95219 18.346 6.95219 18.1045 6.77609 17.9117C6.59881 17.719 6.29302 17.6869 6.08361 17.8475C5.8742 18.0081 5.80995 18.3139 5.93845 18.5233C6.08361 18.7482 6.35727 18.8612 6.6464 18.7161C6.55003 18.6518 6.48578 18.5876 6.40487 18.5554C6.24424 18.5066 6.11574 18.4269 6.14786 18.2009C6.35727 18.3627 6.55003 18.4757 6.75944 18.5876ZM6.66306 18.3151C6.50243 18.2187 6.3894 18.1378 6.2609 18.0581C6.50124 17.9439 6.61428 18.0093 6.66306 18.3151ZM11.1202 19.8274C10.9429 19.9237 10.831 19.8595 10.7501 19.6667H11.4581C11.4581 19.3122 11.3296 19.1194 11.0559 19.0718C10.831 19.023 10.5895 19.1527 10.4931 19.3776C10.3968 19.6191 10.4765 19.8928 10.6704 20.038C10.8798 20.1831 11.1856 20.1343 11.3784 19.9416C11.3141 19.7952 11.2499 19.7631 11.1202 19.8274ZM11.1856 19.4573H10.7513C10.8953 19.2324 10.9917 19.2324 11.1856 19.4573ZM4.34527 15.6594C4.23223 15.4178 3.9907 15.3048 3.73369 15.3702C3.49216 15.4345 3.31487 15.6594 3.347 15.9176C3.36366 16.1746 3.55641 16.384 3.90979 16.4006C3.84554 16.2876 3.82888 16.2079 3.76463 16.1591C3.58734 16.0139 3.55522 15.9342 3.66825 15.7403C3.81341 15.933 3.94191 16.1103 4.08707 16.3031C4.37739 16.1258 4.4583 15.9009 4.34527 15.6594ZM4.05614 15.9652C3.97523 15.8521 3.91098 15.7403 3.83126 15.6427C3.84792 15.6261 3.86339 15.6106 3.88004 15.5785C3.96095 15.6273 4.05733 15.6594 4.10492 15.7236C4.1537 15.7879 4.13705 15.8843 4.1537 15.9652H4.05614ZM3.07334 12.8752C3.05668 12.6336 2.89605 12.4409 2.65452 12.3921C2.39751 12.3433 2.15598 12.473 2.0596 12.6812C1.94657 12.9382 2.04294 13.2119 2.3166 13.3892C2.34873 13.3404 2.39751 13.2761 2.42964 13.2285C2.30114 13.0513 2.17263 12.8906 2.39751 12.6812C2.46176 12.9382 2.52601 13.1476 2.59026 13.3892C2.94483 13.3095 3.08999 13.1488 3.07334 12.8752ZM2.7033 13.0846C2.67117 12.924 2.63905 12.7954 2.60692 12.6336C2.88058 12.7621 2.89724 12.8906 2.7033 13.0846Z" fill="#3B2050"></path>
  </g>
  <defs>
    <clipPath id="clip0_413_137171">
      <rect width="21.9833" height="22" fill="white"></rect>
    </clipPath>
  </defs>
</svg>
