<?xml version="1.0" encoding="UTF-8"?>
<svg xmlns="http://www.w3.org/2000/svg" width="23" height="22" viewBox="0 0 23 22" fill="none">
  <g clip-path="url(#clip0_476_129198)">
    <path d="M8.53776 9.17888C8.97796 8.54616 9.64742 8.11219 10.3706 7.86438C10.2335 7.96564 10.116 8.08829 10.0005 8.21219C10.3984 8.17634 10.8082 8.2015 11.1764 8.36817C11.2207 8.72101 11.2503 9.07511 11.304 9.42669C11.3735 9.07574 11.3924 8.71849 11.4417 8.36502C11.8099 8.20275 12.2173 8.17634 12.6139 8.21219C12.5065 8.10087 12.4011 7.98891 12.2899 7.88199C12.9954 8.12791 13.6433 8.56063 14.0734 9.177C13.9459 9.11599 13.8214 9.05309 13.6958 8.98957C13.8499 9.35373 13.9478 9.74808 13.9137 10.1462C13.5928 10.2965 13.2562 10.4192 12.9518 10.6016C13.301 10.5475 13.644 10.4651 13.9907 10.3978C14.2585 10.7003 14.3981 11.0783 14.5187 11.4569C14.5831 11.3255 14.6456 11.194 14.7113 11.0638C14.6974 11.8161 14.4669 12.5626 14.0134 13.1689C14.0438 13.0236 14.0722 12.8777 14.1006 12.7324C13.793 12.9884 13.4476 13.2123 13.0497 13.2947C12.8109 13.0381 12.5905 12.7626 12.3284 12.5287C12.4756 12.8463 12.6682 13.1413 12.8356 13.4482C12.6347 13.8017 12.3139 14.0589 11.9754 14.2734C12.12 14.2948 12.2659 14.3149 12.4105 14.3363C12.0581 14.4243 11.7 14.508 11.3343 14.508C10.9497 14.5155 10.572 14.43 10.2019 14.335C10.3478 14.3136 10.4944 14.2941 10.6402 14.2727C10.2998 14.0595 9.97647 13.8017 9.77816 13.4463C9.94742 13.14 10.1381 12.8457 10.2847 12.5274C10.0232 12.762 9.80279 13.0369 9.56469 13.2941C9.16554 13.2136 8.82007 12.9891 8.51313 12.7324C8.54155 12.8796 8.56997 13.0274 8.60218 13.174C8.14871 12.5639 7.90872 11.8142 7.9043 11.0563C7.96366 11.194 8.03124 11.3286 8.09945 11.4613C8.20682 11.077 8.35839 10.7016 8.62302 10.3965C8.96849 10.4626 9.31016 10.5443 9.65753 10.5997C9.35627 10.4148 9.01964 10.2959 8.7007 10.1443C8.66407 9.74682 8.76449 9.3531 8.91733 8.98894C8.79102 9.05309 8.6647 9.11725 8.53713 9.17825M9.811 10.6292C9.97836 11.2255 10.1944 11.8079 10.3756 12.3991C10.9977 12.401 11.6192 12.4041 12.2406 12.3978C12.4238 11.8117 12.6196 11.2299 12.8103 10.6468C12.3183 10.2707 11.8074 9.9223 11.3116 9.55185C10.8076 9.90595 10.3163 10.2764 9.81163 10.6292H9.811Z" fill="white"></path>
    <path d="M9.5743 0.13397C9.87808 0.0421432 10.192 -0.0157201 10.5109 0.00377729C10.7856 1.44407 11.0503 2.88499 11.3212 4.32591C11.3452 4.42843 11.3635 4.59133 11.2107 4.58756C9.87871 4.83285 8.65158 5.6184 7.9038 6.74737C7.80844 6.88196 7.74338 7.03983 7.62023 7.15241C7.4655 7.12033 7.33666 7.02159 7.20087 6.94737C6.1531 6.33792 5.10344 5.73224 4.0544 5.12468C3.89651 5.03096 3.72788 4.95235 3.58704 4.83347C3.58515 4.76492 3.6041 4.70077 3.64388 4.6429C4.92281 2.44032 7.10487 0.783045 9.5743 0.13397Z" fill="#7C227C"></path>
    <path d="M11.5886 1.15915C14.4028 0.701905 17.3952 1.57174 19.5311 3.44915C19.6038 3.50261 19.6139 3.60136 19.54 3.65859C18.6008 4.74856 17.6516 5.8291 16.7106 6.91781C16.6405 7.01152 16.5078 7.11781 16.4125 6.98951C15.5024 6.20206 14.3075 5.75111 13.1012 5.75362C12.7822 5.74293 12.4683 5.81211 12.1507 5.80771C11.9246 4.33597 11.713 2.86234 11.4913 1.38998C11.4711 1.30507 11.4673 1.16041 11.5886 1.15915Z" fill="#C32B26"></path>
    <path d="M1.97953 4.85989C2.06605 4.85045 2.13994 4.9146 2.21636 4.94605C3.47002 5.62217 4.73063 6.28634 5.98366 6.96372C6.10429 7.0002 6.10555 7.1285 6.03987 7.2153C5.39062 8.41722 5.25989 9.88644 5.70325 11.1789C5.74303 11.3016 5.80051 11.4204 5.81377 11.5506C5.78282 11.6381 5.67798 11.6481 5.60662 11.6865C4.28222 12.1897 2.96098 12.7004 1.63848 13.2073C1.55701 13.2318 1.42943 13.2897 1.40101 13.1689C0.331769 10.5569 0.526291 7.4826 1.86142 5.00077C1.88795 4.94479 1.92837 4.89636 1.97953 4.86051V4.85989Z" fill="#3C5399"></path>
    <path d="M19.2148 5.14796C19.2837 5.0706 19.3809 5.10834 19.4371 5.17815C21.5093 7.11217 22.6638 9.98269 22.4819 12.8067C22.4927 12.9413 22.3253 12.9111 22.2413 12.9148C20.7918 12.8406 19.3418 12.7777 17.893 12.7016C17.7458 12.7111 17.7629 12.5299 17.7647 12.4318C17.7963 11.6576 17.634 10.8789 17.3125 10.1733C17.0271 9.52356 16.5717 8.96945 16.0684 8.4751C16.1524 8.37069 16.2357 8.26755 16.3279 8.17069C17.2942 7.16689 18.2473 6.14988 19.2148 5.14796Z" fill="#D57C2C"></path>
    <path d="M10.6109 7.51152C11.3605 7.37127 12.1557 7.46058 12.8491 7.78197C13.751 8.19205 14.4723 8.97886 14.7963 9.91222C15.1278 10.8456 15.059 11.9135 14.603 12.7934C14.1918 13.6054 13.4655 14.2551 12.6091 14.5727C11.8828 14.8476 11.0687 14.8828 10.3203 14.6759C9.35783 14.4149 8.51911 13.7431 8.04923 12.8677C7.61408 12.072 7.49913 11.1123 7.71955 10.2336C8.04859 8.87068 9.22457 7.76122 10.6102 7.51152M8.53743 9.17887C8.665 9.11723 8.79132 9.05308 8.91763 8.98955C8.76479 9.35371 8.66437 9.74744 8.701 10.1449C9.02058 10.2965 9.3572 10.4154 9.65783 10.6003C9.31046 10.5449 8.96879 10.4632 8.62332 10.3971C8.35869 10.7022 8.20712 11.0777 8.09975 11.462C8.03091 11.3286 7.96396 11.1946 7.9046 11.0569C7.90902 11.8148 8.14901 12.5645 8.60248 13.1746C8.57027 13.028 8.54185 12.8802 8.51343 12.7331C8.82037 12.9897 9.16647 13.2142 9.56499 13.2947C9.80309 13.0375 10.0235 12.7626 10.285 12.528C10.1384 12.8463 9.94772 13.1406 9.77846 13.4469C9.97677 13.8023 10.3001 14.0601 10.6405 14.2734C10.4947 14.2947 10.3481 14.3142 10.2022 14.3356C10.5723 14.4312 10.95 14.5161 11.3346 14.5086C11.7003 14.5086 12.0584 14.4243 12.4108 14.3369C12.2662 14.3155 12.1203 14.2954 11.9757 14.274C12.3142 14.0595 12.635 13.8023 12.8359 13.4488C12.6685 13.1419 12.4759 12.8469 12.3287 12.5293C12.5908 12.7632 12.8112 13.0387 13.05 13.2953C13.4485 13.2129 13.7933 12.989 14.1009 12.7331C14.0725 12.8783 14.0441 13.0243 14.0137 13.1695C14.4672 12.5632 14.6977 11.8167 14.7116 11.0645C14.6453 11.1946 14.5828 11.3261 14.519 11.4575C14.3984 11.0789 14.2588 10.7009 13.991 10.3984C13.6443 10.4657 13.3013 10.5481 12.9521 10.6022C13.2571 10.4198 13.5938 10.2971 13.914 10.1468C13.9481 9.74869 13.8502 9.35434 13.6961 8.99018C13.8217 9.05433 13.9462 9.11723 14.0737 9.17761C13.6436 8.56124 12.9957 8.12852 12.2902 7.8826C12.4014 7.98952 12.5068 8.10148 12.6142 8.2128C12.2176 8.17695 11.8102 8.20337 11.442 8.36564C11.3921 8.7191 11.3732 9.07635 11.3043 9.4273C11.2506 9.07572 11.221 8.72162 11.1767 8.36878C10.8085 8.20211 10.3987 8.17695 10.0008 8.2128C10.1163 8.0889 10.2332 7.96625 10.3709 7.86499C9.64772 8.1128 8.97826 8.54677 8.53806 9.17949L8.53743 9.17887Z" fill="#010000"></path>
    <path d="M9.81216 10.6299C10.3168 10.277 10.8081 9.90659 11.3121 9.55249C11.8079 9.92294 12.3188 10.2714 12.8108 10.6475C12.6201 11.2312 12.4243 11.8129 12.2412 12.3985C11.6197 12.4048 10.9982 12.4016 10.3761 12.3997C10.1949 11.8079 9.97889 11.2255 9.81152 10.6299H9.81216Z" fill="#020001"></path>
    <path d="M4.34779 12.8054C4.48989 12.7419 4.63389 12.6777 4.78736 12.6456C4.90483 12.7815 4.9642 12.9551 5.04694 13.1123C5.6785 14.3495 6.85764 15.2665 8.18961 15.6501C8.16182 15.7822 8.13404 15.9143 8.09614 16.0438C7.73046 17.1929 7.37489 18.3439 7.01364 19.4943C6.95237 19.6855 6.90816 19.8842 6.82164 20.066C6.75722 20.1559 6.65175 20.0924 6.56775 20.0767C3.86149 19.2339 1.57206 17.1558 0.499023 14.5407V14.484C1.76784 13.896 3.06761 13.3733 4.34716 12.806L4.34779 12.8054Z" fill="#5B82BD"></path>
    <path d="M16.3868 13.2494C16.4802 13.2023 16.587 13.2281 16.6874 13.2299C18.1413 13.352 19.5964 13.4476 21.0496 13.5752C21.0572 13.6513 21.0616 13.7274 21.0635 13.8048C20.8564 16.6005 19.3463 19.2672 17.0613 20.9019C16.9596 21.0006 16.8554 20.8805 16.7998 20.7987C15.9504 19.6345 15.087 18.4798 14.2401 17.3137C14.1359 17.2112 14.2489 17.1074 14.3342 17.0483C15.3617 16.2954 16.0735 15.1344 16.2908 13.8834C16.3318 13.6734 16.3211 13.4545 16.3874 13.2494H16.3868Z" fill="#F8E437"></path>
    <path d="M12.7959 16.4011C12.878 16.3451 12.9342 16.4558 12.979 16.5061C13.7735 17.6798 14.5617 18.8578 15.3562 20.0314C15.3941 20.0867 15.427 20.1452 15.4566 20.205C15.4604 20.2993 15.3619 20.3402 15.3013 20.3911C14.0735 21.2006 12.662 21.7321 11.2024 21.927C10.9555 21.9767 10.7041 21.9943 10.4527 21.9654C9.94812 21.9698 9.4416 21.9415 8.94014 21.9994C8.35657 21.8805 7.75469 21.8314 7.18944 21.634C7.08586 21.6057 7.13954 21.4755 7.15154 21.4019C7.53743 20.0245 7.91448 18.6439 8.29973 17.2659C8.30289 17.1231 8.44562 17.0734 8.56183 17.1313C9.48834 17.3841 10.4862 17.3602 11.4014 17.0722C11.9009 16.9269 12.3531 16.6671 12.7959 16.4005V16.4011Z" fill="#61A244"></path>
  </g>
  <defs>
    <clipPath id="clip0_476_129198">
      <rect width="22" height="22" fill="white" transform="translate(0.5)"></rect>
    </clipPath>
  </defs>
</svg>
