<?xml version="1.0" encoding="UTF-8"?>
<svg xmlns="http://www.w3.org/2000/svg" width="32" height="32" viewBox="0 0 32 32" fill="none">
  <g clip-path="url(#clip0_32_22840)">
    <mask id="mask0_32_22840" style="mask-type:luminance" maskUnits="userSpaceOnUse" x="0" y="0" width="32" height="32">
      <path d="M32 0H0V32H32V0Z" fill="white"></path>
    </mask>
    <g mask="url(#mask0_32_22840)">
      <path d="M0.629997 26.28L6.43 20.47L13.01 27.05L8.69 31.37L0.629997 26.28Z" fill="#FFCDAC"></path>
      <path d="M17.12 3.72L19.64 1.2C20.4 0.44 21.64 0.44 22.41 1.2L23.03 1.82C23.56 2.35 23.56 3.21 23.03 3.74L21.43 5.34L22.12 4.65L23.53 3.24C24.06 2.71 24.92 2.71 25.45 3.24L26.49 4.28C27.02 4.81 27.02 5.67 26.49 6.21L24.21 8.49L25.08 7.62L26.12 6.58C26.65 6.05 27.51 6.05 28.04 6.58L29.08 7.62C29.61 8.15 29.61 9.01 29.08 9.54L27.09 11.53L27.94 10.68L28.25 10.37C28.78 9.84 29.64 9.84 30.18 10.37L30.82 11.01C31.57 11.76 31.57 12.98 30.82 13.73L27.15 17.37L17.12 3.72Z" fill="#FF8C8C"></path>
      <path d="M6.48999 20.54L12.52 26.57C13.45 27.49 14.94 27.49 15.86 26.57L18.13 24.29C18.64 23.78 18.64 22.97 18.13 22.47L10.59 14.93C10.08 14.42 9.26999 14.42 8.75999 14.93L6.47999 17.21C5.55999 18.13 5.55999 19.63 6.47999 20.55L6.48999 20.54Z" fill="#878791"></path>
      <path d="M14.1 6.74L15.27 5.56C15.89 4.94 16.7 4.54 17.56 4.42C18.8 4.25 20.04 4.68 20.92 5.56L27.07 11.71C27.74 12.38 28.15 13.26 28.24 14.2C28.36 15.41 27.93 16.61 27.07 17.47L25.94 18.6C23.92 20.62 21.44 22.15 18.72 23.04L10.01 14.34L9.73 10.88C9.62 9.6 9.98 8.33 10.72 7.29L13.55 3.34C14.06 2.63 15.03 2.43 15.78 2.9L18.05 4.29" fill="#FF5A5A"></path>
      <path d="M20.07 5.36L17.1 8.33C16.34 9.09 16.34 10.31 17.1 11.07L21.46 15.43C22.22 16.19 23.44 16.19 24.2 15.43L27.17 12.46L20.08 5.37L20.07 5.36Z" fill="#D7D7E6"></path>
      <path d="M12.72 26.04L13.62 25.14C14.31 24.45 14.31 23.32 13.62 22.62L10.26 19.26C9.57 18.57 8.44 18.57 7.74 19.26L6.84 20.16L12.72 26.04Z" fill="#FF5A5A"></path>
      <path d="M21.24 27.81C21.08 27.81 20.92 27.88 20.8 27.99C20.68 28.11 20.62 28.26 20.62 28.43C20.62 28.6 20.69 28.76 20.8 28.87C20.92 28.99 21.08 29.05 21.24 29.05C21.4 29.05 21.57 28.98 21.68 28.87C21.8 28.75 21.86 28.6 21.86 28.43C21.86 28.26 21.79 28.1 21.68 27.99C21.56 27.88 21.4 27.81 21.24 27.81Z" fill="#878791"></path>
      <path d="M28.71 20.09L22.42 26.38C22.18 26.62 22.18 27.02 22.42 27.26C22.54 27.38 22.7 27.44 22.86 27.44C23.02 27.44 23.18 27.38 23.3 27.26L29.59 20.97C29.83 20.73 29.83 20.33 29.59 20.09C29.35 19.85 28.95 19.85 28.7 20.09H28.71Z" fill="#878791"></path>
      <path d="M2.4 13.47C2.56 13.47 2.72 13.41 2.84 13.29L6.25 9.88C6.49 9.64 6.49 9.24 6.25 9C6.01 8.76 5.61 8.76 5.37 9L1.96 12.41C1.72 12.65 1.72 13.05 1.96 13.29C2.08 13.41 2.23 13.47 2.4 13.47Z" fill="#878791"></path>
      <path d="M7.51 8.36C7.67 8.36 7.84 8.29 7.95 8.18C8.07 8.06 8.13 7.91 8.13 7.74C8.13 7.57 8.06 7.41 7.95 7.3C7.83 7.18 7.68 7.12 7.51 7.12C7.34 7.12 7.19 7.19 7.07 7.3C6.95 7.42 6.89 7.58 6.89 7.74C6.89 7.9 6.96 8.06 7.07 8.18C7.19 8.3 7.35 8.36 7.51 8.36Z" fill="#878791"></path>
      <path d="M18.08 27.53L14.81 30.81C14.57 31.05 14.57 31.45 14.81 31.69C14.93 31.81 15.09 31.87 15.25 31.87C15.41 31.87 15.57 31.81 15.69 31.69L18.97 28.41C19.21 28.17 19.21 27.77 18.97 27.53C18.72 27.28 18.33 27.28 18.08 27.53Z" fill="#878791"></path>
    </g>
  </g>
  <defs>
    <clipPath id="clip0_32_22840">
      <rect width="32" height="32" fill="white"></rect>
    </clipPath>
  </defs>
</svg>
