<?xml version="1.0" encoding="UTF-8"?>
<svg xmlns="http://www.w3.org/2000/svg" width="23" height="21" viewBox="0 0 23 21" fill="none">
  <g clip-path="url(#clip0_472_129372)">
    <path d="M22.4996 0H0.506836V17.5873H22.4996V0Z" fill="#D20515"></path>
    <path d="M18.6254 9.26861C18.6254 9.30603 18.588 9.34489 18.5117 9.38231L18.4743 9.41973V9.45715C18.4743 9.4821 18.4618 9.50752 18.4369 9.53343L18.3606 9.57085H18.2843V9.53343L18.208 9.57085V9.60827C18.208 9.63321 18.1955 9.65864 18.1706 9.68455L18.0943 9.72197H18.018V9.68455C17.7518 9.8371 17.4107 9.9508 17.107 10.1019V10.1393C17.107 10.1643 17.0945 10.1897 17.0696 10.2156L16.9933 10.253H16.917L16.8796 10.2156L16.7659 10.253L16.8033 10.2905C16.8033 10.3154 16.7909 10.3408 16.7659 10.3667L16.6896 10.4042H16.6134L16.5759 10.3667C16.4234 10.443 16.2723 10.443 16.1586 10.2142C16.1211 10.1005 16.1211 9.87165 16.0823 9.75795C16.0449 9.68167 15.9686 9.68167 15.9686 9.68167C14.525 9.41541 14.0688 9.71909 13.1204 9.49169C12.8167 9.41541 12.6641 9.14915 12.323 9.14915C11.5631 9.11173 11.3357 9.14916 10.4621 9.11174C10.4247 9.22543 10.4247 9.26429 10.4247 9.26429H7.46132L7.91755 9.49169L8.07011 10.7827C8.07011 10.7827 7.95641 10.8201 7.91755 10.8201C7.95497 11.0864 7.95497 11.4274 7.99383 11.7311C7.99383 11.9974 8.03125 12.3011 8.03125 12.491C8.03125 12.5673 8.03125 12.681 7.95497 12.8336C7.91755 12.9473 7.80242 13.0236 7.72758 13.061C7.69016 13.0984 7.57502 13.1747 7.46132 13.2509C7.30876 13.3272 7.15764 13.4035 7.08136 13.4409C7.08136 13.4783 7.11878 13.5172 7.11878 13.5546C5.33415 14.4282 3.09183 14.6945 2.37078 16.0992C2.2945 16.2517 1.99082 16.1755 1.99082 15.9855V15.7192H1.9534C1.91598 15.7192 1.91598 15.6818 1.91598 15.6429V15.5667C1.91598 15.5292 1.9534 15.4904 1.9534 15.4904H1.99082C1.99082 15.4141 2.02824 15.3378 2.02824 15.263H1.99082C1.9534 15.263 1.9534 15.2256 1.99082 15.1867L2.02824 15.1104C2.02824 15.073 2.06566 15.0341 2.10452 15.073H2.14194C2.25564 14.7693 2.5219 14.6556 2.6356 14.352C2.59818 14.352 2.59818 14.3145 2.6356 14.2757L2.59818 14.1994C2.59818 14.162 2.6356 14.1231 2.67446 14.162H2.71188C2.71188 14.1246 2.7493 14.0857 2.78816 14.0483H2.75074C2.71332 14.0483 2.71332 14.0109 2.75074 13.972L2.78816 13.8957C2.8131 13.8708 2.83853 13.8583 2.86443 13.8583L2.90185 13.8209C3.01555 13.7446 3.16811 13.7446 3.28181 13.8209C3.39551 13.8972 3.85174 14.1246 4.26912 13.7446C4.95275 13.0984 5.78894 12.2636 6.39629 12.2248C6.24374 11.8822 5.94006 11.1238 5.90264 10.8187L5.71266 10.7812C5.59896 10.5538 5.33271 9.49025 5.25643 8.65406C5.25643 8.65406 5.18015 7.78045 5.25643 7.47678C5.21901 7.47678 5.10387 7.55305 5.10387 7.55305C4.99017 7.2868 5.37013 4.93222 5.71122 4.24859L6.28116 4.02119C6.20488 4.02119 5.82492 3.98377 4.76133 3.9075C4.15398 4.44001 3.50777 5.0085 3.12781 5.31362C3.05153 5.35104 2.97525 5.69357 2.97525 5.69357C2.97525 5.69357 2.8227 5.84613 2.63272 5.95983C2.40532 6.11239 1.91167 6.22609 1.79653 6.03611C1.75911 5.99869 1.75911 5.95983 1.79653 5.95983C1.87281 5.88355 2.17648 5.73243 2.29018 5.54246C2.13763 5.61873 1.94765 5.73243 1.79653 5.69501C1.72025 5.69501 1.68283 5.54246 1.79653 5.50504C2.02393 5.42876 2.17648 5.35248 2.3276 5.20136C2.4413 5.01138 2.59386 4.89768 2.82126 4.89768C2.82126 4.89768 3.80857 3.6067 4.3785 2.99791C4.53106 2.84535 4.83473 2.88421 4.83473 2.88421L4.87215 2.69423C4.87215 2.69423 6.84677 2.46683 7.79666 2.77051C7.75924 2.20057 8.02406 1.47952 8.89767 1.47952C9.3539 1.47952 9.99868 1.8969 10.1138 2.35313C10.1512 2.50569 10.0375 2.61939 10.0001 2.80937C9.92383 3.11304 10.0375 3.41672 10.0001 3.493C9.96269 3.56928 9.88642 3.56928 9.81014 3.68298C9.73386 3.79668 9.62016 4.02551 9.62016 4.02551L9.50646 4.29177L8.89911 4.25435C8.67171 4.748 8.21547 5.73531 8.06292 6.72262C8.55657 6.76004 10.76 7.06516 10.76 7.06516L10.7974 7.25513C10.7974 7.25513 11.7085 7.36883 12.4684 7.71137C12.6209 7.74879 13.0757 7.67395 13.342 7.82507L13.4183 7.74879C14.4056 8.05246 15.2418 8.58498 16.1917 8.81238C16.1917 8.81238 16.6479 8.92607 16.799 8.96493C17.1415 9.04121 17.3689 9.04121 17.5589 9.07863C17.8626 9.11605 18.0526 9.11605 18.2426 9.11605C18.3563 9.07863 18.5851 9.03977 18.6225 9.26861M20.0661 6.26783C19.3824 6.26783 18.8499 6.80034 18.8499 7.48397C18.8499 8.1676 19.381 8.70012 20.0661 8.70012C20.7511 8.70012 21.2822 8.1676 21.2822 7.48397C21.2822 6.80034 20.7123 6.26783 20.0661 6.26783Z" fill="white"></path>
    <path d="M2.44727 20.2959C2.44727 20.7133 2.24866 20.9378 1.7219 20.9378H0.5V18.579H1.67441C2.22275 18.579 2.40985 18.7934 2.40985 19.1949C2.40985 19.4972 2.29471 19.6382 1.97089 19.7174L1.909 19.7332L1.96081 19.7433C2.33213 19.8268 2.44583 19.962 2.44583 20.2959H2.44727ZM1.06418 19.5648H1.56071C1.75932 19.5648 1.8428 19.4813 1.8428 19.277C1.8428 19.0625 1.75932 18.9791 1.56071 18.9791H1.06418V19.5634V19.5648ZM1.87878 20.2384C1.87878 20.0239 1.78955 19.9304 1.59237 19.9304H1.06562V20.5406H1.59237C1.80106 20.5349 1.87878 20.4471 1.87878 20.2384ZM2.83442 20.1707V18.579H3.42451V20.1506C3.42451 20.4111 3.54396 20.5104 3.86347 20.5104C4.18298 20.5104 4.30243 20.4111 4.30243 20.1506V18.579H4.89252V20.1664C4.89252 20.7205 4.56869 20.9753 3.86923 20.9753C3.15393 20.981 2.83586 20.7248 2.83586 20.1707H2.83442ZM7.64288 18.579V20.9378H6.92758L5.92588 19.2309V20.9378H5.37753V18.579H6.09283L7.09453 20.2859V18.579H7.64288ZM8.12789 18.579H9.17709C10.0018 18.579 10.2205 18.9186 10.2205 19.7534C10.2205 20.5881 9.98593 20.9335 9.17709 20.9335H8.12789V18.579ZM9.16126 20.4888C9.50523 20.4888 9.61605 20.3118 9.61605 19.7577C9.61605 19.2036 9.50667 19.0323 9.16126 19.0323H8.71222V20.4888H9.16126ZM10.6494 18.579H12.2988V19.028H11.2395V19.5245H12.1217V19.9678H11.2395V20.4845H12.3247V20.9335H10.6494V18.579ZM12.6701 20.8443V20.3852C12.9522 20.4787 13.2084 20.5162 13.4588 20.5162C13.7308 20.5162 13.8503 20.4427 13.8503 20.26C13.8503 20.1031 13.7984 20.0513 13.584 20.0095L13.1925 19.9261C12.7852 19.8426 12.6499 19.6756 12.6499 19.2741C12.6499 18.7574 12.9522 18.5329 13.5682 18.5329C13.8445 18.5329 14.1064 18.5804 14.3194 18.6639V19.123C14.0633 19.0337 13.8344 18.9978 13.6041 18.9978C13.312 18.9978 13.2184 19.0755 13.2184 19.2583C13.2184 19.4094 13.2861 19.4569 13.4746 19.4929L13.856 19.5763C14.2993 19.6699 14.4202 19.821 14.4202 20.2441C14.4202 20.7507 14.1064 20.981 13.4761 20.981C13.1897 20.981 12.9176 20.9335 12.6715 20.8457L12.6701 20.8443ZM14.8203 18.579H15.4104V20.4845H16.4236V20.9335H14.826L14.8203 18.579ZM16.7877 18.579H17.3778V20.9378H16.7877V18.579ZM19.8158 19.5763V20.8601C19.5971 20.9335 19.3049 20.9796 19.0012 20.9796C18.1823 20.9796 17.7952 20.6198 17.7952 19.7577C17.7952 18.8956 18.1809 18.5358 19.0012 18.5358C19.2934 18.5358 19.5697 18.5833 19.7784 18.6667V19.1215C19.5481 19.0438 19.2934 18.9963 19.0473 18.9963C18.5508 18.9963 18.3996 19.1949 18.3996 19.7534C18.3996 20.3118 18.5608 20.5262 19.0257 20.5262C19.1308 20.5262 19.2344 20.5205 19.3337 20.5061V19.9836H18.8947V19.5763H19.813H19.8158ZM21.7372 20.4427H20.8132L20.6463 20.9393H20.062L20.9025 18.5804H21.6537L22.4942 20.9393H21.9042L21.7372 20.4427ZM21.2781 18.9503L20.9384 20.0153H21.6163L21.2767 18.9503H21.2781Z" fill="white"></path>
  </g>
  <defs>
    <clipPath id="clip0_472_129372">
      <rect width="22" height="20.981" fill="white" transform="translate(0.5)"></rect>
    </clipPath>
  </defs>
</svg>
