<?xml version="1.0" encoding="UTF-8"?>
<svg xmlns="http://www.w3.org/2000/svg" width="22" height="32" viewBox="0 0 22 32" fill="none">
  <g clip-path="url(#clip0_472_111731)">
    <path fill-rule="evenodd" clip-rule="evenodd" d="M11.0993 0.823448L11.4165 0.829663C11.4352 0.947881 11.4165 1.06597 11.4229 1.19053L11.1117 1.19688C11.0743 1.30888 11.0992 1.4394 11.0992 1.55775C11.2547 1.60747 11.41 1.66962 11.5283 1.80662C11.7335 1.77541 11.9202 1.8812 12.0199 2.06778C12.113 1.93092 12.2684 1.83743 12.4427 1.83743C12.5984 1.84999 12.7477 1.91836 12.8349 2.06144C12.8661 2.1298 12.8908 2.1983 12.9096 2.27923C13.0286 2.17436 13.1935 2.13906 13.345 2.18587C13.4633 2.22937 13.6062 2.32908 13.6499 2.46594C13.6747 2.53431 13.6621 2.60281 13.6807 2.67739C13.8301 2.62145 14.023 2.61511 14.1723 2.72089C14.3217 2.84546 14.3901 3.0569 14.334 3.25605L14.3463 3.26861C14.527 3.2374 14.6946 3.32468 14.8066 3.47384L14.8193 3.48006C14.9124 3.29347 15.1117 3.19403 15.3233 3.22497C15.4476 3.25605 15.597 3.31833 15.6593 3.4552L15.7152 3.59219C15.8647 3.4864 16.1135 3.4864 16.2754 3.60449C16.406 3.71649 16.4743 3.872 16.4556 4.0525C16.599 3.99022 16.7733 3.96536 16.9286 4.05885C17.0687 4.14904 17.1549 4.30283 17.1588 4.46944L17.1402 4.68089C17.2772 4.63117 17.4389 4.66859 17.5636 4.76803C17.6691 4.88003 17.7379 5.02919 17.719 5.19727C17.7067 5.27185 17.6631 5.33413 17.6443 5.40236C17.7937 5.40871 17.9303 5.50207 18.0175 5.64501C18.0797 5.76323 18.0861 5.9436 18.0115 6.07425L17.8933 6.22976C17.9304 6.25475 17.9927 6.26692 18.0487 6.29799C18.1793 6.39135 18.2602 6.53456 18.2789 6.69629C18.2852 6.78964 18.2293 6.86422 18.2229 6.95137C18.3476 7.02608 18.4407 7.17537 18.4532 7.3248C18.4472 7.41816 18.4097 7.49909 18.3724 7.57988C18.4782 7.77281 18.4906 8.07762 18.3475 8.25799C18.1541 8.4656 17.856 8.53885 17.5885 8.44457C17.3519 8.68114 17.0224 8.79301 16.7112 8.74316C16.68 8.82409 16.649 8.91744 16.5682 8.9673C16.4934 8.99837 16.4128 9.01067 16.344 8.99216C15.8774 8.78693 15.4169 8.58143 14.9442 8.4447C13.5942 7.94697 12.1133 7.67959 10.6512 7.71688C10.5889 7.72309 10.5143 7.72309 10.4459 7.73539C8.78465 7.8351 7.26037 8.27663 5.79229 8.89893C5.59302 8.94244 5.36279 9.17279 5.17647 8.955C5.14117 8.90091 5.11975 8.8389 5.11419 8.77463C4.81547 8.79949 4.54809 8.73721 4.32408 8.54441C4.07522 8.59426 3.77663 8.53185 3.60869 8.3081C3.48413 8.14638 3.5029 7.88495 3.57127 7.70458C3.44062 7.58636 3.37212 7.41829 3.43441 7.25048C3.47222 7.14456 3.54747 7.05597 3.64585 7.00162C3.59613 6.88961 3.56492 6.75897 3.60234 6.6344C3.65206 6.46038 3.80123 6.32351 3.98186 6.29839L3.98807 6.27988C3.86986 6.14301 3.74542 5.98724 3.81379 5.79457C3.85716 5.6142 4.03145 5.47113 4.21182 5.45248V5.42127C4.11872 5.29076 4.11872 5.08553 4.19952 4.95475C4.28045 4.78046 4.44839 4.69966 4.63497 4.71209L4.74697 4.72439C4.69725 4.58753 4.67861 4.41959 4.75954 4.28894C4.85263 4.12722 5.01435 4.03386 5.19499 4.04629C5.25727 4.04034 5.33185 4.06493 5.38792 4.10236C5.38157 3.97779 5.40048 3.8597 5.4625 3.76635C5.56829 3.59841 5.77973 3.52369 5.9728 3.56112C6.02873 3.57342 6.0848 3.59854 6.13452 3.6357C6.18437 3.54234 6.21545 3.43682 6.30881 3.36819C6.43337 3.25618 6.61996 3.22511 6.78776 3.28739C6.88112 3.32481 6.97435 3.40561 7.03041 3.50518C7.14863 3.38696 7.2855 3.30604 7.46587 3.34346C7.47208 3.28117 7.441 3.21281 7.44722 3.15053C7.45357 2.98259 7.55922 2.82708 7.72108 2.7525C7.8516 2.68413 8.03196 2.70278 8.16883 2.7648C8.13167 2.59686 8.17518 2.42879 8.29948 2.31678C8.41386 2.20346 8.57704 2.15453 8.73493 2.18613C8.80329 2.20478 8.86558 2.24842 8.92773 2.29192C8.96515 2.24855 8.97123 2.17397 9.015 2.12398C9.08958 1.98712 9.22645 1.90619 9.37587 1.88768C9.51895 1.86903 9.64338 1.96226 9.74309 2.06196C9.80524 1.9251 9.95453 1.80688 10.1102 1.78824C10.1911 1.76959 10.2472 1.80054 10.3281 1.78824C10.4215 1.67002 10.5644 1.6203 10.7013 1.57045L10.7198 1.53924V1.19688L10.3715 1.19053C10.3653 1.08474 10.353 0.954229 10.3715 0.835878L10.7011 0.829663C10.7383 0.723875 10.6886 0.593358 10.7322 0.5L11.0869 0.506215L11.0992 0.823448H11.0993Z" fill="black"></path>
    <path fill-rule="evenodd" clip-rule="evenodd" d="M11.0183 0.898034C11.1054 0.910596 11.2299 0.904381 11.3358 0.904381C11.3481 0.972747 11.3481 1.05989 11.3358 1.11583H11.0307L11.0121 1.15325L11.0184 1.61991C11.1303 1.66963 11.2673 1.68219 11.3731 1.76933L11.5037 1.89363C11.6321 1.8615 11.7679 1.89668 11.8646 1.98712C11.9205 2.04928 11.9581 2.12399 11.9765 2.21113C11.9951 2.21748 12.0327 2.22978 12.0639 2.20492C12.0947 2.05549 12.2382 1.9374 12.3935 1.91863C12.5118 1.90633 12.6238 1.95605 12.7171 2.03063C12.8166 2.12399 12.829 2.26693 12.8227 2.40406C12.9161 2.49121 12.9161 2.31692 13.0092 2.30436C13.0966 2.24842 13.2149 2.24221 13.3269 2.26085C13.4077 2.29827 13.5135 2.36664 13.5571 2.46C13.6194 2.57822 13.5946 2.73994 13.5571 2.86437C13.6069 2.86437 13.6381 2.79601 13.7002 2.77102C13.8123 2.68387 13.9925 2.70265 14.1172 2.78358C14.2355 2.86437 14.2852 3.00124 14.279 3.15066C14.2726 3.24402 14.2107 3.30617 14.1855 3.38723L14.2041 3.3998C14.3036 3.34373 14.4093 3.31887 14.5338 3.35629C14.6832 3.41223 14.7767 3.56152 14.8262 3.71716C14.8384 3.72972 14.8448 3.70486 14.8574 3.6923C14.8637 3.53679 14.9445 3.37507 15.1062 3.32521C15.2369 3.26915 15.3986 3.30035 15.5169 3.39993C15.61 3.48707 15.6352 3.61759 15.6413 3.75445L15.6535 3.76701C15.747 3.64245 15.884 3.56178 16.0582 3.59907C16.1764 3.62393 16.3194 3.71729 16.3566 3.85416C16.3879 3.94751 16.3753 4.07195 16.3318 4.15909C16.3254 4.19017 16.3566 4.19625 16.3814 4.21503C16.4624 4.14666 16.5557 4.07816 16.6801 4.07816C16.8117 4.07327 16.9364 4.13688 17.0098 4.2461C17.1032 4.40161 17.0908 4.63805 16.9849 4.78126C16.9785 4.80612 17.0035 4.83719 17.0284 4.84962C17.1342 4.75627 17.3085 4.7002 17.4516 4.78734C17.5698 4.86192 17.6322 4.99879 17.6381 5.142C17.6133 5.26656 17.5699 5.39086 17.4702 5.46545C17.4579 5.47774 17.4702 5.48396 17.4886 5.48396C17.6256 5.45288 17.7936 5.49626 17.9056 5.62082C17.9552 5.70175 17.9991 5.80119 17.9804 5.91319C17.9554 6.05006 17.8186 6.1495 17.7626 6.27406C17.781 6.34878 17.8808 6.29892 17.9428 6.34243C18.0675 6.37351 18.1607 6.51672 18.1917 6.64089C18.1857 6.75289 18.1733 6.87124 18.1045 6.95838V6.97703C18.2292 7.05161 18.3723 7.16361 18.3657 7.3379C18.3534 7.42504 18.3161 7.50584 18.2726 7.57447C18.3534 7.71133 18.3969 7.8917 18.3534 8.06599C18.2787 8.25892 18.0922 8.38943 17.8996 8.40808C17.7685 8.41443 17.663 8.39578 17.5696 8.35214C17.3331 8.60723 16.9599 8.75652 16.6175 8.64452C16.5863 8.66938 16.6175 8.7191 16.6175 8.76908C16.6052 8.83745 16.5367 8.88109 16.4869 8.91824L16.3875 8.92459C16.0266 8.76908 15.6719 8.62587 15.3236 8.48279C14.4338 8.17191 13.5318 7.89791 12.5922 7.76105C11.012 7.49354 9.31352 7.68026 7.77682 8.11557C6.9555 8.3458 6.1654 8.62587 5.40028 8.98026C5.32557 8.98026 5.25707 8.92433 5.21357 8.86826C5.17641 8.80598 5.20735 8.73139 5.21357 8.68167C4.91498 8.73761 4.57897 8.68167 4.34888 8.45145C4.17459 8.51374 3.95059 8.48253 3.80764 8.38917C3.65821 8.28946 3.59619 8.1403 3.59619 7.97223C3.60241 7.86644 3.63362 7.7793 3.67712 7.69229C3.58985 7.61758 3.50918 7.53057 3.49649 7.41843C3.47798 7.26292 3.5712 7.13849 3.69564 7.06391C3.71428 7.04526 3.75792 7.05134 3.77035 7.01405C3.67699 6.908 3.64578 6.76519 3.68942 6.63454C3.73927 6.50997 3.84493 6.39189 3.98179 6.37337C4.01895 6.35486 4.0815 6.37972 4.10636 6.33595C4.06894 6.23029 3.96328 6.14937 3.91964 6.05601C3.85141 5.93766 3.88248 5.77593 3.96315 5.67649C4.06285 5.54584 4.22458 5.50221 4.37995 5.53341C4.39252 5.53963 4.3986 5.51477 4.39252 5.50842C4.2743 5.42128 4.19337 5.27807 4.22458 5.12256C4.24322 4.99204 4.32402 4.86139 4.4548 4.81167C4.60422 4.74939 4.77203 4.79303 4.8966 4.8926C5.04602 4.81802 4.83431 4.7806 4.83431 4.69967C4.75973 4.56902 4.77825 4.38852 4.86552 4.27043C4.96496 4.15222 5.10817 4.09006 5.26355 4.13357C5.32583 4.15222 5.40663 4.19585 5.45013 4.25787C5.47513 4.25166 5.49986 4.23301 5.5185 4.2145C5.45013 4.10871 5.45013 3.96563 5.49986 3.85363C5.58092 3.7042 5.74251 3.62962 5.90423 3.63584C6.02245 3.63584 6.12202 3.71676 6.20295 3.80391C6.24646 3.75405 6.20917 3.67326 6.24011 3.61719C6.28361 3.48033 6.40183 3.35603 6.55126 3.33725C6.69473 3.31755 6.83755 3.37705 6.92443 3.49276C6.9682 3.54261 6.97428 3.61098 7.01792 3.66083C7.06777 3.57369 7.14248 3.48654 7.24192 3.44925C7.35379 3.38102 7.50309 3.41818 7.62131 3.47424C7.6463 3.4556 7.62131 3.42452 7.60874 3.40588C7.52173 3.30617 7.50944 3.13202 7.56537 3.0138C7.62765 2.87694 7.7706 2.78979 7.92624 2.78979C8.06932 2.79614 8.19375 2.87059 8.27455 2.99529C8.30576 3.0015 8.33683 2.96408 8.36169 2.93922C8.26833 2.83343 8.21227 2.70291 8.2559 2.5597C8.28076 2.41663 8.40507 2.30462 8.53585 2.27368C8.66041 2.23017 8.79701 2.27989 8.89672 2.36704L9.00251 2.49755C9.05223 2.45418 8.99616 2.35447 9.03358 2.29232C9.06466 2.15546 9.15815 2.03116 9.30109 1.98144C9.40688 1.93807 9.54401 1.98779 9.6371 2.0748C9.69304 2.11222 9.71168 2.18667 9.7614 2.23652C9.80491 2.16181 9.81747 2.05589 9.89205 1.98765C9.99784 1.88187 10.172 1.82593 10.3339 1.88795C10.4584 1.7573 10.6201 1.66381 10.8004 1.63287C10.8004 1.46493 10.8129 1.29686 10.8004 1.12892L10.7693 1.11635H10.4707L10.4518 1.09784L10.4644 0.911258L10.7942 0.898695C10.8067 0.799254 10.7942 0.687251 10.8067 0.587545C10.8627 0.5689 10.9374 0.575248 11.012 0.58133L11.0183 0.898166V0.898034Z" fill="#EFC460"></path>
    <path fill-rule="evenodd" clip-rule="evenodd" d="M10.3965 2.01806C10.4959 2.09277 10.5271 2.23585 10.4898 2.36015C10.4338 2.46594 10.3281 2.5593 10.216 2.57173C10.0729 2.56538 9.94224 2.50336 9.89252 2.3788C9.86144 2.30409 9.84901 2.21708 9.88617 2.14223C9.92359 2.03023 10.0294 1.95565 10.1476 1.94308C10.2411 1.93713 10.3157 1.96173 10.3966 2.0178L10.3965 2.01806ZM11.8894 2.15492C11.9206 2.26693 11.9021 2.39758 11.8275 2.49093C11.7593 2.54687 11.6781 2.58429 11.585 2.58429C11.4919 2.58429 11.4233 2.53444 11.3671 2.47229C11.2905 2.38779 11.2688 2.26706 11.3111 2.16114C11.3546 2.04292 11.4792 1.9497 11.6099 1.95591C11.7217 1.96213 11.8524 2.03684 11.8894 2.15506V2.15492ZM12.7296 2.17978C12.7545 2.26058 12.7608 2.36015 12.7233 2.44095C12.6737 2.52823 12.5926 2.59646 12.5055 2.61524C12.3812 2.6401 12.2566 2.59038 12.1883 2.49702C12.1135 2.42244 12.1135 2.31665 12.1323 2.21708C12.1695 2.09251 12.294 1.99915 12.4247 1.99307C12.5367 1.99307 12.6673 2.05522 12.7296 2.17965V2.17978Z" fill="black"></path>
    <path fill-rule="evenodd" clip-rule="evenodd" d="M10.3657 2.09873C10.4216 2.14858 10.4216 2.23572 10.409 2.31031C10.3879 2.37563 10.3436 2.4309 10.2845 2.46581C10.2161 2.49689 10.1353 2.48446 10.0794 2.4596C10.0237 2.43421 9.98086 2.38687 9.96116 2.32895C9.9363 2.25424 9.94251 2.17344 9.99858 2.11116C10.0794 1.99294 10.2597 1.99294 10.3657 2.0986V2.09873ZM11.7842 2.12372C11.8277 2.17357 11.8401 2.24829 11.8277 2.32287C11.809 2.39123 11.7529 2.45352 11.697 2.48459C11.6223 2.49689 11.5539 2.52175 11.4977 2.47824C11.4169 2.44717 11.3798 2.37246 11.3798 2.29788C11.3671 2.21073 11.3857 2.13615 11.4606 2.0863C11.5541 1.99929 11.6971 2.0305 11.7842 2.12385V2.12372ZM12.6115 2.14858C12.6487 2.1983 12.6738 2.2668 12.6675 2.34138C12.6476 2.41226 12.6037 2.47388 12.5432 2.51567C12.4809 2.55309 12.4062 2.54066 12.3503 2.52823C12.282 2.49702 12.232 2.44095 12.2133 2.3788C12.1884 2.28545 12.2073 2.17966 12.3004 2.12359C12.3817 2.04901 12.531 2.06144 12.6117 2.14858H12.6115Z" fill="white"></path>
    <path fill-rule="evenodd" clip-rule="evenodd" d="M9.64368 2.19843C9.71204 2.29152 9.73082 2.43473 9.67475 2.54674C9.60639 2.62766 9.52533 2.6959 9.42588 2.70225C9.30767 2.70859 9.19566 2.65239 9.13986 2.55282C9.09001 2.48459 9.08379 2.38488 9.10244 2.30395C9.13986 2.17965 9.26416 2.08616 9.39481 2.07373C9.48817 2.07386 9.57518 2.12358 9.64368 2.1983V2.19843Z" fill="black"></path>
    <path fill-rule="evenodd" clip-rule="evenodd" d="M9.55047 2.21708C9.61276 2.27315 9.6314 2.35395 9.61884 2.44096C9.60628 2.50932 9.54426 2.57795 9.48819 2.60903C9.42591 2.63389 9.33268 2.62767 9.28296 2.58417C9.22068 2.54066 9.17096 2.47216 9.1773 2.39124C9.1773 2.30409 9.22068 2.22316 9.30782 2.17979C9.37645 2.14263 9.48846 2.14872 9.55047 2.21721V2.21708Z" fill="white"></path>
    <path fill-rule="evenodd" clip-rule="evenodd" d="M13.5005 2.50957C13.5318 2.5905 13.5318 2.69616 13.4946 2.771C13.4323 2.88935 13.2953 2.95759 13.171 2.94529C13.0712 2.93273 12.9781 2.87031 12.9344 2.78357C12.8785 2.68386 12.8846 2.53457 12.9657 2.44121C13.0404 2.33555 13.1834 2.29839 13.3137 2.34177C13.3823 2.37284 13.4634 2.43486 13.5007 2.50971L13.5005 2.50957ZM8.85922 2.44094C8.90273 2.50931 8.94636 2.57794 8.9338 2.6713C8.92124 2.76466 8.87152 2.85167 8.79694 2.9076C8.69459 2.97293 8.56354 2.97293 8.46119 2.9076C8.35858 2.84268 8.30462 2.72274 8.32433 2.6028C8.33054 2.50944 8.38621 2.42851 8.47349 2.37879C8.59171 2.31043 8.76573 2.32286 8.85922 2.44094Z" fill="black"></path>
    <path fill-rule="evenodd" clip-rule="evenodd" d="M13.3759 2.47229C13.4258 2.53444 13.457 2.6278 13.4321 2.71494C13.3886 2.8083 13.2952 2.87032 13.2017 2.87032C13.1149 2.8641 13.0337 2.82695 13.0087 2.75237C12.9655 2.684 12.9655 2.59064 13.0087 2.52836C13.0278 2.45999 13.0961 2.41636 13.1709 2.40379C13.2454 2.40379 13.3137 2.41609 13.3759 2.47216V2.47229ZM8.77839 2.47229C8.83446 2.52201 8.84676 2.59051 8.8531 2.66522C8.84054 2.74602 8.78474 2.81438 8.72245 2.86437C8.64166 2.88936 8.55452 2.88301 8.48615 2.82721C8.43643 2.77736 8.39901 2.72142 8.40522 2.65292C8.39292 2.57834 8.44264 2.52228 8.48615 2.47256C8.56695 2.40393 8.69759 2.38515 8.77839 2.47242V2.47229Z" fill="white"></path>
    <path fill-rule="evenodd" clip-rule="evenodd" d="M11.2176 2.85788C11.2548 2.92625 11.2672 3.01974 11.2425 3.10053C11.2049 3.21875 11.0744 3.30576 10.9562 3.31833C10.838 3.31211 10.7073 3.26239 10.6577 3.15039C10.6139 3.06946 10.6017 2.95124 10.6514 2.87031C10.6949 2.77722 10.7882 2.71494 10.8879 2.69603C11.0208 2.67606 11.1521 2.74046 11.2176 2.85775V2.85788Z" fill="black"></path>
    <path fill-rule="evenodd" clip-rule="evenodd" d="M11.1307 2.87654C11.1683 2.93247 11.1742 3.02596 11.1557 3.10054C11.1307 3.15026 11.081 3.18147 11.0437 3.21876C10.9722 3.2427 10.8941 3.23833 10.8258 3.20646C10.7511 3.16296 10.7076 3.08824 10.7076 3.01353C10.7013 2.92639 10.7509 2.84559 10.8321 2.80209C10.9316 2.75237 11.0625 2.77101 11.1307 2.87667V2.87654Z" fill="white"></path>
    <path fill-rule="evenodd" clip-rule="evenodd" d="M14.1849 2.96989C14.2284 3.07568 14.2099 3.21876 14.1414 3.3059C14.0356 3.39926 13.9112 3.44277 13.7805 3.39926C13.6934 3.36805 13.6252 3.28726 13.5999 3.21255C13.5627 3.10054 13.5813 2.97624 13.6685 2.89531C13.7458 2.80288 13.871 2.76612 13.9858 2.80195C14.0607 2.83951 14.1413 2.88302 14.1849 2.97003V2.96989ZM8.21223 3.04461C8.23709 3.10676 8.24939 3.20012 8.22453 3.27483C8.19332 3.35576 8.11874 3.43034 8.04416 3.46776C7.92594 3.50518 7.78908 3.48641 7.71423 3.40548C7.62114 3.31833 7.5775 3.17512 7.62722 3.05704C7.67073 2.94517 7.7703 2.88275 7.88244 2.86411C8.01309 2.85181 8.15021 2.92017 8.21223 3.04474V3.04461Z" fill="black"></path>
    <path fill-rule="evenodd" clip-rule="evenodd" d="M14.1229 3.03218C14.1352 3.08825 14.1229 3.15648 14.1043 3.21255C14.0487 3.28726 13.9736 3.33077 13.893 3.33711C13.8122 3.33711 13.7499 3.29996 13.7127 3.2501C13.6615 3.19483 13.6449 3.11602 13.6692 3.04487C13.6812 2.97651 13.7374 2.90788 13.8123 2.8895C13.9365 2.83303 14.0671 2.91396 14.123 3.03218H14.1229Z" fill="white"></path>
    <path fill-rule="evenodd" clip-rule="evenodd" d="M13.5572 3.71637C14.111 4.2141 14.3473 4.89855 14.3225 5.67001L14.111 5.86281C13.9615 5.85051 13.8309 5.88146 13.7315 5.98738C13.6072 6.16166 13.5449 6.37946 13.582 6.59725C13.6196 6.76519 13.7813 6.87719 13.9492 6.90205C13.9433 6.99541 13.8562 7.08242 13.7939 7.15713C13.6604 7.24652 13.4948 7.27363 13.3398 7.23171C13.1718 7.19455 13.035 7.02648 13.0038 6.87084C12.9542 6.74628 13.0413 6.65305 13.0473 6.54118C13.0531 6.39585 12.9882 6.25674 12.873 6.16775C12.7672 6.07439 12.6118 6.07439 12.4935 6.11803C12.3504 6.17396 12.2197 6.31717 12.2197 6.47255C12.1949 6.55969 12.2569 6.64684 12.2074 6.72763C12.114 6.88936 11.9397 7.02 11.7597 7.00757C11.598 7.02014 11.461 6.93299 11.3675 6.82099C11.2992 6.73385 11.2617 6.63427 11.2744 6.52862C11.4361 6.53483 11.6288 6.51632 11.747 6.35433C11.8591 6.21125 11.8156 5.99346 11.8217 5.82552C11.8031 5.68866 11.6723 5.55801 11.5543 5.50829L11.4173 5.4833C11.405 5.35265 11.3055 5.24064 11.1932 5.17849L11.0253 5.11634V5.10378C11.1559 5.06636 11.2867 4.94827 11.3179 4.81141C11.3675 4.6559 11.2867 4.51904 11.2185 4.41338L11.2244 4.15195C11.3179 4.02738 11.3675 3.85336 11.2991 3.71015L11.2183 3.56073L11.2243 3.29321C11.3053 3.18743 11.3364 3.05056 11.3301 2.92613C12.1696 2.83303 12.9287 3.15648 13.557 3.71637H13.5572ZM10.5398 2.93882C10.5398 3.05083 10.5709 3.15027 10.6081 3.24997L10.6018 3.66678C10.5147 3.79134 10.5459 3.97793 10.6081 4.10858L10.6018 4.5193C10.5335 4.61874 10.5273 4.78681 10.5956 4.89868C10.6391 5.00447 10.7572 5.06041 10.8568 5.10391C10.8071 5.13512 10.7322 5.14134 10.6825 5.1662C10.5394 5.20957 10.4585 5.35278 10.4274 5.47708C10.2595 5.57652 10.0602 5.67623 9.99818 5.86916C10.0044 6.03088 9.94212 6.23624 10.0728 6.36068C10.1784 6.51619 10.3776 6.54105 10.5517 6.53496C10.5455 6.70925 10.4272 6.8834 10.2654 6.95177C10.0975 7.02648 9.90456 6.99528 9.76148 6.91461C9.65583 6.84003 9.59354 6.73424 9.56234 6.62832C9.5749 6.48524 9.55612 6.33595 9.46263 6.23029C9.35697 6.11988 9.20014 6.07465 9.05191 6.11208C8.91504 6.1495 8.76588 6.2738 8.74711 6.42323C8.71603 6.5663 8.75967 6.70317 8.84681 6.81517C8.82817 6.99554 8.71616 7.18239 8.52958 7.23832C8.32435 7.29426 8.12494 7.25062 7.98834 7.10133C7.93227 7.03918 7.88255 6.97081 7.8762 6.89623C8.01928 6.85881 8.16223 6.72195 8.19344 6.57265C8.19978 6.36121 8.15006 6.1495 8.01915 5.98777C7.91971 5.90063 7.79514 5.85091 7.66449 5.86956L7.44049 5.6269C7.43414 4.70615 7.95078 3.94077 8.69117 3.36211C9.15783 3.00759 9.755 2.91436 10.3711 2.92044L10.5396 2.93896L10.5398 2.93882Z" fill="black"></path>
    <path fill-rule="evenodd" clip-rule="evenodd" d="M8.09418 3.01975C8.15025 3.06947 8.15647 3.15648 8.15025 3.22498C8.13769 3.28726 8.08189 3.3432 8.02569 3.3867C7.95732 3.41778 7.87626 3.40535 7.81424 3.3867C7.72498 3.3383 7.67711 3.23767 7.69602 3.13783C7.70237 3.06947 7.74588 3.00097 7.80789 2.9699C7.90125 2.92004 8.01934 2.94504 8.09418 3.01962V3.01975ZM13.059 3.43669C13.5506 3.73527 13.9921 4.23301 14.1416 4.78681C13.3139 4.30151 12.2751 4.15843 11.3047 4.33271V4.17086C11.4042 4.05264 11.4354 3.88457 11.3919 3.73527C11.3669 3.67312 11.342 3.61706 11.3047 3.5672V3.29982C11.3794 3.21268 11.4042 3.10689 11.4166 2.99502C12.0076 2.95125 12.5741 3.11324 13.0591 3.43682L13.059 3.43669ZM10.4646 3.00719C10.471 3.10054 10.5021 3.18742 10.5269 3.28091C10.5083 3.44264 10.5518 3.64178 10.4771 3.79729C10.4586 3.90308 10.4833 4.01508 10.5269 4.12074L10.5206 4.33218C9.63076 4.18276 8.66663 4.27625 7.88882 4.67454C7.81424 4.69306 7.74574 4.74291 7.68359 4.78033C7.82667 4.2826 8.22483 3.88417 8.62299 3.51735C9.12086 3.08177 9.79896 2.97611 10.4648 3.00705L10.4646 3.00719Z" fill="white"></path>
    <path fill-rule="evenodd" clip-rule="evenodd" d="M15.486 3.47397C15.5795 3.56111 15.5795 3.71027 15.5419 3.82849C15.4672 3.9282 15.3617 3.99643 15.2432 3.99643C15.1189 3.99008 15.0007 3.91564 14.9635 3.80985C14.926 3.72905 14.92 3.62326 14.9635 3.54842C15.0195 3.44898 15.1129 3.38048 15.2247 3.3744C15.318 3.3621 15.4114 3.39939 15.4861 3.4741L15.486 3.47397ZM6.83183 3.49883C6.89412 3.56111 6.93154 3.64826 6.92493 3.74148C6.91871 3.82849 6.88155 3.89699 6.82549 3.95927C6.75077 4.02156 6.64512 4.0402 6.55176 4.02764C6.4584 4.01534 6.37747 3.95293 6.34018 3.87821C6.30289 3.8035 6.27803 3.70393 6.31532 3.62935C6.34653 3.51113 6.46475 3.42412 6.58283 3.41155C6.67011 3.41155 6.76347 3.43655 6.83183 3.4987V3.49883ZM14.6895 3.59219C14.7271 3.65434 14.7207 3.75391 14.7082 3.82849C14.6706 3.91074 14.6074 3.97845 14.5279 4.02142C14.4469 4.03372 14.3536 4.0525 14.285 4.00886C14.1731 3.94658 14.1044 3.82849 14.1171 3.71649C14.1107 3.59219 14.1979 3.48627 14.31 3.43655C14.4532 3.38061 14.6149 3.44885 14.6894 3.59206L14.6895 3.59219Z" fill="black"></path>
    <path fill-rule="evenodd" clip-rule="evenodd" d="M15.4173 3.5237C15.4612 3.57963 15.4924 3.65435 15.4735 3.73514C15.4548 3.79121 15.4173 3.85336 15.374 3.8843C15.2869 3.93416 15.1811 3.92807 15.1128 3.872C15.0442 3.81607 15.013 3.74744 15.0194 3.66678C15.0194 3.59841 15.0629 3.53613 15.1251 3.49884C15.2058 3.43669 15.3488 3.43669 15.4173 3.5237Z" fill="white"></path>
    <path fill-rule="evenodd" clip-rule="evenodd" d="M7.62734 3.59206C7.68949 3.66043 7.71435 3.76 7.70205 3.85958C7.67706 3.97158 7.58384 4.07102 7.47805 4.10223C7.3909 4.12074 7.28512 4.10844 7.21662 4.05872C7.14825 3.99644 7.08597 3.92173 7.07975 3.83472C7.0664 3.7046 7.13609 3.58016 7.25404 3.52357C7.37834 3.46141 7.52155 3.49236 7.62721 3.59193L7.62734 3.59206Z" fill="black"></path>
    <path fill-rule="evenodd" clip-rule="evenodd" d="M6.78802 3.57342C6.84409 3.62948 6.8503 3.72893 6.83153 3.80972C6.80667 3.872 6.7506 3.90943 6.68845 3.94658C6.58266 3.97779 6.48295 3.94658 6.42067 3.86566C6.36474 3.77851 6.35852 3.64786 6.43323 3.57328C6.47066 3.52978 6.52038 3.50505 6.57631 3.4987C6.65724 3.48654 6.73209 3.51127 6.78789 3.57342H6.78802ZM14.6025 3.59206C14.6396 3.63543 14.6396 3.71028 14.6396 3.77865C14.621 3.84093 14.571 3.89686 14.5214 3.93415C14.4655 3.95267 14.4032 3.97131 14.3535 3.95267C14.2912 3.93415 14.2353 3.8843 14.2165 3.8281C14.1853 3.76595 14.1916 3.67868 14.2224 3.62287C14.26 3.54816 14.3282 3.48601 14.4217 3.49831C14.4901 3.4987 14.5524 3.53599 14.6023 3.59193L14.6025 3.59206Z" fill="white"></path>
    <path fill-rule="evenodd" clip-rule="evenodd" d="M11.2242 3.72893C11.2554 3.80364 11.2677 3.91551 11.2306 3.99644C11.1871 4.07115 11.1184 4.13965 11.044 4.16438C10.9258 4.19559 10.795 4.17073 10.7142 4.08967C10.6458 4.02751 10.627 3.94659 10.6211 3.86566C10.6211 3.7288 10.7142 3.61058 10.8451 3.57329C10.9878 3.5237 11.1495 3.5922 11.2244 3.72906L11.2242 3.72893Z" fill="black"></path>
    <path fill-rule="evenodd" clip-rule="evenodd" d="M7.5777 3.66056C7.60877 3.71028 7.62742 3.77878 7.62107 3.84093C7.60243 3.90916 7.55879 3.97779 7.49651 4.01522C7.42192 4.04021 7.33478 4.04629 7.2725 3.99657C7.2007 3.95412 7.15957 3.87439 7.16684 3.79134C7.17306 3.72298 7.1917 3.65448 7.25994 3.61706C7.34734 3.54843 7.50299 3.5549 7.57757 3.66056H7.5777ZM11.1241 3.72284C11.1617 3.77891 11.1864 3.86592 11.1617 3.94064C11.1301 4.009 11.0744 4.0775 11.0059 4.09614C10.9309 4.11479 10.8627 4.09614 10.8068 4.06507C10.7384 4.01535 10.6948 3.93442 10.707 3.85362C10.7008 3.77891 10.7504 3.71676 10.8128 3.67326C10.9059 3.61706 11.0431 3.62314 11.124 3.72284H11.1241Z" fill="white"></path>
    <path fill-rule="evenodd" clip-rule="evenodd" d="M16.2817 3.86578C16.3129 3.94671 16.3003 4.04615 16.2633 4.12695C16.1886 4.23273 16.0581 4.30731 15.9273 4.28272C15.8401 4.26381 15.7592 4.21435 15.728 4.13964C15.6661 4.06493 15.6598 3.95292 15.6972 3.87186C15.7343 3.75364 15.8462 3.66663 15.9709 3.66663C16.0951 3.65434 16.2133 3.74756 16.2817 3.86578ZM6.14688 3.872C6.17796 3.94671 6.19025 4.04628 6.16539 4.12708C6.11567 4.25164 5.98516 4.32622 5.85451 4.33231C5.7548 4.32001 5.65536 4.27002 5.59943 4.18923C5.54957 4.10843 5.53106 4.00886 5.562 3.92172C5.59943 3.80971 5.71143 3.72892 5.82952 3.71027C5.95382 3.69163 6.07204 3.75999 6.14675 3.872H6.14688Z" fill="black"></path>
    <path fill-rule="evenodd" clip-rule="evenodd" d="M16.1578 3.82836C16.2013 3.8843 16.2201 3.96522 16.2013 4.04615C16.173 4.11293 16.1225 4.16781 16.0582 4.20166C15.9525 4.22031 15.859 4.1891 15.7971 4.1083C15.7536 4.04602 15.7409 3.95279 15.7784 3.88416C15.7971 3.80958 15.8779 3.77229 15.9527 3.7473C16.0208 3.735 16.0955 3.77229 16.1578 3.82823V3.82836ZM6.04776 3.87187C6.09126 3.92159 6.10369 3.99643 6.09748 4.07101C6.07248 4.14559 6.00412 4.22044 5.93575 4.2453C5.86104 4.26381 5.78633 4.23908 5.73026 4.20179C5.66798 4.14572 5.61204 4.08357 5.6369 3.99656C5.6369 3.93441 5.68027 3.87834 5.73026 3.84119C5.81753 3.76013 5.97318 3.77877 6.04776 3.872V3.87187Z" fill="white"></path>
    <path fill-rule="evenodd" clip-rule="evenodd" d="M16.9789 4.33866C17.0102 4.41958 17.0102 4.53159 16.9667 4.61252C16.8984 4.71196 16.7864 4.7868 16.6682 4.77424C16.5811 4.76168 16.5065 4.73682 16.463 4.67453C16.4037 4.6108 16.3742 4.52484 16.3819 4.43823C16.3864 4.33522 16.4459 4.24265 16.5377 4.19558C16.6059 4.15207 16.699 4.13964 16.7865 4.16437C16.8684 4.19928 16.9362 4.26064 16.9792 4.33866H16.9789ZM15.1001 4.33866C15.1251 4.41958 15.1314 4.53159 15.0878 4.61252C15.0443 4.69966 14.9635 4.74316 14.889 4.77424C14.8079 4.78046 14.7024 4.78654 14.6464 4.73682C14.5282 4.66224 14.4722 4.53767 14.497 4.41337C14.5154 4.32001 14.5653 4.23908 14.6524 4.19558C14.816 4.1165 15.0127 4.17931 15.1001 4.33866ZM5.38838 4.29515C5.47566 4.39486 5.47566 4.55658 5.42581 4.67467C5.36974 4.77437 5.25787 4.82409 5.15208 4.81775C5.02143 4.8114 4.90321 4.71196 4.87214 4.59374C4.84093 4.46309 4.88443 4.33231 4.9967 4.25773C5.10223 4.15842 5.28881 4.17693 5.38838 4.29515ZM7.2611 4.36973C7.32947 4.46309 7.33581 4.60604 7.2734 4.71183C7.21125 4.80518 7.11181 4.84869 7.00602 4.8549C6.9124 4.85623 6.82314 4.8151 6.76337 4.74303C6.695 4.66845 6.68244 4.56875 6.70108 4.47552C6.71338 4.38838 6.78201 4.30123 6.86281 4.26394C7.00602 4.20179 7.16774 4.23313 7.2611 4.36973Z" fill="black"></path>
    <path fill-rule="evenodd" clip-rule="evenodd" d="M16.9108 4.38243C16.9231 4.45067 16.9108 4.51295 16.8924 4.57523C16.8362 4.66859 16.743 4.70588 16.6619 4.6998C16.5872 4.68724 16.5188 4.63143 16.494 4.57523C16.4441 4.50687 16.4564 4.42581 16.494 4.35744C16.5126 4.27651 16.5998 4.24544 16.6742 4.23288C16.7677 4.22693 16.8612 4.28894 16.9108 4.38243ZM14.9824 4.3138C15.0259 4.36353 15.0443 4.43837 15.0383 4.51295C15.0197 4.57523 14.976 4.63117 14.9262 4.67468C14.839 4.71183 14.721 4.71183 14.6525 4.64968C14.5778 4.5751 14.553 4.48796 14.5906 4.38852C14.609 4.30759 14.6898 4.24544 14.7772 4.23936C14.8578 4.22706 14.9262 4.25787 14.9824 4.31394V4.3138Z" fill="white"></path>
    <path fill-rule="evenodd" clip-rule="evenodd" d="M15.9525 4.67466C16.3256 4.91732 16.6739 5.27184 16.8609 5.69499C17.0598 6.13679 17.1657 6.6221 17.2529 7.1197C17.2217 7.1632 17.1534 7.1509 17.1159 7.19441C16.9293 7.31236 16.892 7.51786 16.8299 7.70471C16.8049 7.87899 16.9046 8.03437 17.0601 8.1153L17.2154 8.18366V8.21487C17.0664 8.32687 16.8794 8.37038 16.7052 8.32053C16.5498 8.27081 16.4067 8.14016 16.3568 7.99086C16.332 7.89751 16.3133 7.79172 16.3509 7.71092C16.444 7.5927 16.4815 7.44341 16.444 7.29398C16.4005 7.16333 16.276 7.05133 16.158 7.02026C16.0085 6.97054 15.8468 7.01404 15.7537 7.12604C15.6479 7.21305 15.6231 7.33749 15.6167 7.46179C15.4797 7.61122 15.2684 7.66094 15.0878 7.62973C14.9198 7.59865 14.7705 7.468 14.7083 7.31884C14.6771 7.25048 14.6587 7.17563 14.6707 7.10092C14.8265 7.14442 15.0506 7.19441 15.1997 7.06376C15.3554 6.9269 15.3491 6.7214 15.4049 6.54117C15.4049 6.37944 15.3241 6.23623 15.1997 6.17395C15.1066 6.14909 15.1876 6.04965 15.1625 5.98737C15.1371 5.87087 15.0681 5.76852 14.9696 5.70134V5.68878C15.1313 5.69499 15.2995 5.6142 15.3803 5.45856C15.4426 5.32804 15.4174 5.14132 15.3307 5.03567C15.2372 4.92988 15.1129 4.88624 14.9824 4.89259C14.895 4.79288 15.0506 4.81166 15.0818 4.74951C15.1998 4.64372 15.2249 4.45714 15.1813 4.31406C15.169 4.29541 15.1564 4.28298 15.1749 4.27055C15.4238 4.39472 15.7039 4.49416 15.9527 4.67466H15.9525Z" fill="black"></path>
    <path fill-rule="evenodd" clip-rule="evenodd" d="M5.36335 4.39473C5.39456 4.45701 5.39456 4.55658 5.36335 4.62495C5.32302 4.70336 5.23971 4.74991 5.15191 4.74317C5.07733 4.73682 5.00248 4.68088 4.97154 4.62495C4.94152 4.5624 4.93927 4.4902 4.96519 4.4258C4.98384 4.35122 5.05855 4.28894 5.13948 4.27664C5.23297 4.26395 5.31376 4.3138 5.36348 4.39486L5.36335 4.39473ZM7.18013 4.38838C7.21121 4.43188 7.24242 4.48174 7.24242 4.5501C7.23012 4.61701 7.2001 4.6793 7.15527 4.73047C7.09921 4.76789 7.02463 4.78032 6.96234 4.77398C6.88141 4.76141 6.80697 4.69305 6.78806 4.62455C6.7632 4.56227 6.7632 4.48147 6.80062 4.43162C6.83513 4.35982 6.9076 4.31393 6.9872 4.3134C7.04949 4.30745 7.1242 4.33231 7.18013 4.38811V4.38838Z" fill="white"></path>
    <path fill-rule="evenodd" clip-rule="evenodd" d="M14.1786 4.91733C14.2221 5.15389 14.2533 5.4025 14.2409 5.6515L14.073 5.78215C13.8741 5.7635 13.7057 5.85673 13.6122 6.01237C13.5315 6.23016 13.3884 6.52266 13.5627 6.74641C13.6122 6.85219 13.7244 6.92069 13.8427 6.95164C13.8115 7.04499 13.7121 7.12605 13.6249 7.15713C13.4755 7.20685 13.3135 7.16334 13.2142 7.06999C13.1084 6.98284 13.0584 6.85854 13.0772 6.73398C13.1332 6.60333 13.1455 6.44134 13.0895 6.31082C13.0148 6.1491 12.8347 6.00602 12.66 6.01224C12.4674 6.00589 12.3056 6.09303 12.2062 6.25489C12.1251 6.36676 12.1251 6.5224 12.1376 6.65926C12.0816 6.77748 11.9696 6.90191 11.8328 6.92677C11.6774 6.93907 11.522 6.90787 11.4349 6.77735C11.3914 6.7275 11.3538 6.66535 11.3601 6.60306C11.5155 6.60928 11.6837 6.55969 11.7892 6.42878C11.9387 6.25475 11.8827 6.01819 11.8887 5.80039C11.8638 5.63245 11.7208 5.48951 11.5779 5.43331L11.4908 5.4148C11.4473 5.28388 11.3414 5.15363 11.2171 5.09756C11.337 5.00447 11.4097 4.86337 11.4159 4.7117C11.4096 4.5997 11.3661 4.50012 11.3165 4.41933C12.2812 4.24504 13.3634 4.36326 14.1785 4.91706L14.1786 4.91733ZM10.5203 4.41959C10.5326 4.50674 10.4643 4.58132 10.4706 4.67481C10.4643 4.83653 10.514 4.98569 10.6508 5.0854C10.6198 5.10404 10.5763 5.12256 10.5452 5.14755C10.4394 5.23482 10.3771 5.32818 10.3399 5.43992C10.1657 5.53341 9.97908 5.6392 9.91071 5.83821C9.91071 6.04331 9.86721 6.30487 10.0476 6.45403C10.1535 6.56141 10.3016 6.61615 10.4518 6.60346C10.4395 6.70925 10.3525 6.79639 10.2652 6.86489C10.1158 6.93325 9.92314 6.93325 9.79236 6.84003C9.73021 6.77166 9.64294 6.69695 9.64294 6.60346C9.66145 6.42322 9.61186 6.24894 9.46865 6.13085C9.338 6.02506 9.1575 5.98764 9.00199 6.04357C8.82757 6.08708 8.69084 6.26758 8.67233 6.43565C8.64112 6.59103 8.7034 6.72168 8.76542 6.85259C8.73435 6.97689 8.65342 7.11997 8.51656 7.16348C8.39199 7.2009 8.23027 7.19468 8.12448 7.11997C8.05624 7.06404 8.00018 7.01431 7.9814 6.9396C8.12448 6.88988 8.23027 6.74046 8.27377 6.60359C8.29876 6.36729 8.22405 6.1495 8.11205 5.96899C8.00626 5.84443 7.85697 5.78241 7.69524 5.78862L7.52148 5.59556C7.5277 5.35926 7.55256 5.12903 7.63336 4.91746C7.82629 4.77438 8.05029 4.68089 8.2743 4.59401H8.29295C8.99591 4.32663 9.76116 4.30177 10.5202 4.41999L10.5203 4.41959Z" fill="#CE3829"></path>
    <path fill-rule="evenodd" clip-rule="evenodd" d="M6.60786 4.54415C6.60786 4.64981 6.65136 4.7433 6.72621 4.8241C6.75107 4.90489 6.95022 4.88003 6.86307 4.99812C6.69513 4.97326 6.54584 5.04797 6.46478 5.1847C6.3902 5.30292 6.4025 5.49559 6.48329 5.61394C6.54558 5.68852 6.63285 5.74459 6.72621 5.76931C6.6515 5.8751 6.58921 5.99332 6.61421 6.14275C6.48356 6.2049 6.35304 6.33555 6.35304 6.49727C6.34683 6.65278 6.39641 6.79599 6.4464 6.93907C6.50234 7.04486 6.62069 7.1443 6.7512 7.15686C6.89441 7.17537 7.02493 7.11335 7.16193 7.08849C7.19935 7.28764 7.08721 7.47422 6.91927 7.58001C6.76376 7.67337 6.56462 7.67972 6.39668 7.61122C6.30332 7.54894 6.19753 7.47422 6.16037 7.36857C6.12917 7.22549 5.99244 7.11957 5.868 7.0762C5.73378 7.04499 5.59256 7.07461 5.48214 7.15712C5.37014 7.24427 5.32042 7.39343 5.33906 7.54285C5.33906 7.65486 5.40743 7.742 5.48822 7.8228C5.49457 7.99074 5.42607 8.14003 5.30164 8.25838C5.12735 8.39524 4.87848 8.38903 4.69812 8.28946V8.27081C4.84728 8.18367 4.98414 8.03451 4.9967 7.86009C4.97184 7.6858 4.89091 7.53043 4.82242 7.37492C4.7727 7.3002 4.69812 7.26926 4.61719 7.25035C4.66056 6.69033 4.81607 6.16139 5.04642 5.67014C5.20193 5.33413 5.44472 5.00433 5.77425 4.81153C6.03541 4.60009 6.32805 4.46309 6.63298 4.35109C6.6392 4.41364 6.60178 4.47592 6.60799 4.54442L6.60786 4.54415ZM11.1622 4.48809C11.2489 4.56901 11.2801 4.71209 11.2366 4.83018C11.2054 4.91732 11.1123 4.9796 11.0314 5.01055C10.9007 5.04175 10.7575 5.00433 10.6831 4.89233C10.6272 4.81986 10.6088 4.72532 10.6334 4.63711C10.6396 4.54997 10.7142 4.48161 10.7889 4.43823C10.8945 4.3823 11.0626 4.38838 11.1623 4.48795L11.1622 4.48809Z" fill="black"></path>
    <path fill-rule="evenodd" clip-rule="evenodd" d="M16.8727 5.93765C16.4495 5.65163 15.9765 5.5022 15.504 5.39641C15.5227 5.21604 15.4542 5.04811 15.336 4.92354C15.2677 4.88003 15.199 4.84261 15.1307 4.8241C15.2426 4.71831 15.2925 4.57523 15.2925 4.41972C15.9519 4.66859 16.6611 5.22834 16.8727 5.93779V5.93765ZM6.52605 4.48809C6.50106 4.66238 6.59441 4.81154 6.70642 4.92354C6.55726 4.95475 6.40783 5.06662 6.35811 5.22213L6.3269 5.3902C5.87294 5.4899 5.41858 5.60799 5.03906 5.88793C5.15107 5.54584 5.37481 5.1974 5.69865 4.97326C5.94183 4.76142 6.22244 4.59679 6.52605 4.48809ZM11.0989 4.53781C11.1486 4.59388 11.1797 4.67467 11.1672 4.76182C11.1478 4.8315 11.1006 4.88995 11.0366 4.92354C10.962 4.95475 10.8687 4.94219 10.8064 4.90489C10.738 4.85504 10.7006 4.78059 10.7067 4.69967C10.7128 4.61874 10.7564 4.53794 10.8373 4.50673C10.9222 4.46045 11.0271 4.47301 11.0987 4.53794L11.0989 4.53781Z" fill="white"></path>
    <path fill-rule="evenodd" clip-rule="evenodd" d="M17.526 4.96705C17.5759 5.05419 17.5695 5.18484 17.5324 5.28428C17.4701 5.37764 17.3518 5.44601 17.24 5.43371C17.1402 5.43371 17.0594 5.38399 17.0095 5.31549C16.9536 5.24091 16.9224 5.15998 16.9536 5.06662C16.9659 4.97961 17.0159 4.8926 17.103 4.85518C17.2337 4.77425 17.439 4.81141 17.5262 4.96705H17.526ZM4.87124 4.99813C4.92718 5.07284 4.92718 5.17849 4.90866 5.27807C4.87746 5.35278 4.80896 5.42115 4.72803 5.45844C4.64724 5.4833 4.53523 5.48964 4.46052 5.45222C4.3423 5.39615 4.28015 5.27185 4.29258 5.14729C4.29258 5.05393 4.3423 4.973 4.42323 4.91707C4.55374 4.81776 4.77154 4.84883 4.87124 4.99799V4.99813Z" fill="black"></path>
    <path fill-rule="evenodd" clip-rule="evenodd" d="M17.4333 4.97325C17.4829 5.02919 17.4952 5.12268 17.4766 5.20361C17.4557 5.25531 17.4186 5.29895 17.371 5.32817C17.2963 5.37155 17.2093 5.35925 17.1469 5.33439C17.0475 5.27832 17.0038 5.17267 17.035 5.07322C17.041 5.01094 17.0846 4.95501 17.1469 4.9238C17.234 4.86138 17.3521 4.89259 17.4333 4.97339V4.97325ZM4.79691 5.04162C4.84663 5.09134 4.84041 5.17848 4.82811 5.25307C4.80947 5.30913 4.75988 5.35885 4.70355 5.38993C4.61019 5.421 4.4921 5.40223 4.4236 5.32778C4.36132 5.25306 4.34889 5.13485 4.40496 5.0477C4.44238 4.97934 4.51683 4.948 4.58533 4.93583C4.66626 4.92962 4.74705 4.97299 4.79677 5.04149L4.79691 5.04162Z" fill="white"></path>
    <path fill-rule="evenodd" clip-rule="evenodd" d="M15.3051 5.13512C15.3427 5.2097 15.355 5.30306 15.3301 5.3902C15.2803 5.50221 15.1743 5.58313 15.0685 5.60165L14.9072 5.583C14.7825 5.51464 14.6831 5.40263 14.7079 5.25955C14.7079 5.17863 14.7514 5.10405 14.8201 5.05433C14.8945 4.9734 15.019 4.96097 15.1373 4.99826C15.2055 5.01082 15.2616 5.07297 15.305 5.13525L15.3051 5.13512Z" fill="black"></path>
    <path fill-rule="evenodd" clip-rule="evenodd" d="M15.2124 5.13512C15.2373 5.17849 15.262 5.22821 15.2684 5.29062C15.2497 5.36534 15.2249 5.43979 15.1626 5.48342C15.0944 5.50842 15.0132 5.53949 14.9574 5.50842C14.8766 5.4899 14.8331 5.42762 14.8079 5.37155C14.7771 5.30319 14.7831 5.21604 14.8329 5.16011C14.8641 5.11039 14.9201 5.0731 14.9824 5.06067C15.0691 5.04797 15.1377 5.07905 15.2126 5.13512H15.2124Z" fill="white"></path>
    <path fill-rule="evenodd" clip-rule="evenodd" d="M7.09855 5.25307C7.13597 5.34022 7.12354 5.4583 7.08004 5.54571C7.01775 5.64515 6.90575 5.69487 6.79375 5.69487C6.68809 5.68257 6.5823 5.63894 6.53258 5.53949C6.4703 5.43979 6.4703 5.29658 6.54488 5.2097C6.60703 5.11661 6.70039 5.07905 6.80631 5.07297C6.92426 5.07284 7.04883 5.13512 7.09855 5.25307Z" fill="black"></path>
    <path fill-rule="evenodd" clip-rule="evenodd" d="M7.00549 5.25307C7.04265 5.31535 7.04887 5.40884 7.02401 5.48329C6.97429 5.55165 6.912 5.60785 6.83107 5.62015C6.73163 5.62637 6.64449 5.56408 6.59477 5.48329C6.56991 5.42735 6.55761 5.35264 6.59477 5.2967C6.62598 5.20361 6.71272 5.14728 6.81878 5.14728C6.88714 5.15984 6.95564 5.1847 7.00549 5.25307Z" fill="white"></path>
    <path fill-rule="evenodd" clip-rule="evenodd" d="M11.3667 5.68878C11.4477 5.81943 11.4477 6.03087 11.373 6.17408C11.2859 6.30473 11.1489 6.4043 10.9935 6.42308C10.838 6.4293 10.6886 6.39187 10.5828 6.28622C10.4585 6.14314 10.3899 5.95021 10.4646 5.76971C10.5144 5.58947 10.6948 5.45247 10.8815 5.43396C11.0804 5.41505 11.2672 5.50219 11.3667 5.68878Z" fill="black"></path>
    <path fill-rule="evenodd" clip-rule="evenodd" d="M16.929 6.09317C17.0225 6.40432 17.1033 6.72155 17.1532 7.06391L17.1468 7.09498C16.9103 7.16335 16.8484 7.41221 16.7737 7.60501C16.7238 7.72958 16.7425 7.8913 16.8233 8.00939C16.8668 8.09653 16.9727 8.15881 17.0662 8.20854C17.0286 8.23974 16.9604 8.24596 16.9167 8.25839C16.7737 8.2769 16.6056 8.20854 16.5185 8.10288C16.4313 8.00317 16.3878 7.87887 16.4254 7.74836C16.5245 7.61149 16.5684 7.42491 16.5185 7.26305C16.4689 7.1324 16.3505 7.00189 16.2261 6.95825C16.0753 6.89319 15.9017 6.90959 15.7658 7.00175C15.6253 7.09948 15.5416 7.25975 15.5416 7.43086C15.3863 7.55542 15.1744 7.61149 15.0063 7.518C14.882 7.46193 14.7765 7.33763 14.7579 7.21307C14.8514 7.22563 14.9692 7.23171 15.0814 7.20685C15.3863 7.13849 15.4234 6.79626 15.4857 6.54739C15.4793 6.36703 15.3922 6.19895 15.2491 6.09938C15.2614 5.96252 15.212 5.8443 15.1436 5.75107C15.274 5.72 15.4045 5.59556 15.4669 5.47113C15.9834 5.58908 16.5059 5.74473 16.929 6.09303V6.09317ZM6.55769 5.78823C6.5762 5.79445 6.60741 5.81322 6.58876 5.8443C6.53904 5.91888 6.52053 6.01859 6.52053 6.11181C6.38446 6.17899 6.2911 6.3099 6.27166 6.46025C6.2468 6.64684 6.3276 6.80234 6.37732 6.97663C6.46737 7.14854 6.65038 7.25102 6.84398 7.23806L7.0742 7.19455C7.0742 7.30656 7.00583 7.42478 6.90626 7.49936C6.77561 7.59272 6.58876 7.59906 6.44582 7.54286C6.20316 7.4745 6.25302 7.19455 6.06008 7.08877C5.92944 6.97676 5.7492 6.95812 5.59343 7.00784C5.40063 7.07012 5.26998 7.25049 5.25768 7.44964C5.25147 7.60514 5.30119 7.74201 5.41319 7.85401C5.39454 7.97831 5.36968 8.10288 5.25768 8.18976C5.13946 8.2769 4.99652 8.30798 4.85939 8.26447C4.99625 8.12761 5.1269 7.94102 5.05232 7.73553C4.95261 7.54273 4.95261 7.269 4.70996 7.20064C4.71631 6.87084 4.81575 6.57225 4.89668 6.27367L4.97747 6.03736C5.3632 5.70135 5.84851 5.59556 6.3276 5.47735C6.3711 5.58922 6.4396 5.71352 6.55782 5.7881L6.55769 5.78823Z" fill="#CE3829"></path>
    <path fill-rule="evenodd" clip-rule="evenodd" d="M11.3107 5.75106C11.3793 5.90049 11.3482 6.09937 11.236 6.23002C11.0992 6.34824 10.9063 6.37944 10.7446 6.30473C10.6077 6.23002 10.5083 6.10558 10.5206 5.94386C10.5143 5.807 10.558 5.67635 10.6823 5.59542C10.7817 5.52084 10.9186 5.49572 11.0557 5.52705C11.1554 5.55813 11.2608 5.64527 11.3108 5.75106H11.3107Z" fill="white"></path>
    <path fill-rule="evenodd" clip-rule="evenodd" d="M17.9002 5.76337C17.9311 5.88159 17.9002 6.01224 17.8128 6.10546C17.7384 6.14897 17.6638 6.18005 17.589 6.18005C17.4955 6.1614 17.4083 6.12398 17.3524 6.04953C17.2777 5.95617 17.2653 5.81322 17.3275 5.71973C17.3898 5.62624 17.4829 5.5518 17.6013 5.55801C17.7197 5.5518 17.8439 5.63894 17.9002 5.76324V5.76337ZM4.56114 5.81944C4.5983 5.91915 4.55479 6.03088 4.49886 6.11816C4.41171 6.19896 4.29363 6.24881 4.17541 6.2176C4.08205 6.19274 4.01355 6.09938 3.97626 6.02467C3.92641 5.9001 3.96991 5.7758 4.05084 5.69487C4.12542 5.61408 4.24999 5.58922 4.35564 5.62029C4.43023 5.64515 4.52993 5.72608 4.56114 5.81944Z" fill="black"></path>
    <path fill-rule="evenodd" clip-rule="evenodd" d="M17.7755 5.71364C17.8251 5.76336 17.8314 5.84429 17.8314 5.92509C17.8066 5.99332 17.7443 6.06195 17.6824 6.08681C17.6013 6.11167 17.5391 6.09303 17.4768 6.06195C17.4145 6.01845 17.3837 5.96225 17.3837 5.90023C17.3714 5.80687 17.396 5.72594 17.4768 5.68244C17.5577 5.60799 17.6947 5.63285 17.7755 5.71364ZM4.41139 5.74485C4.46111 5.79457 4.49232 5.8628 4.4861 5.94373C4.47354 6.01845 4.41774 6.10546 4.34303 6.13045C4.2703 6.15438 4.19069 6.14513 4.12523 6.10546C4.04444 6.03074 4.01323 5.91252 4.05687 5.81917C4.08186 5.74459 4.16266 5.70095 4.23089 5.6823C4.29317 5.67635 4.35546 5.70121 4.41126 5.74472L4.41139 5.74485Z" fill="white"></path>
    <path fill-rule="evenodd" clip-rule="evenodd" d="M7.67104 6.10572C7.80777 6.25514 7.81412 6.51644 7.72089 6.69668C7.60875 6.83975 7.44703 6.92068 7.27909 6.92068C7.11631 6.91473 6.96609 6.83156 6.87472 6.69668C6.79379 6.57211 6.76271 6.39809 6.82499 6.26122C6.87472 6.06829 7.0613 5.95007 7.24815 5.93143C7.41609 5.91887 7.55903 5.98115 7.67104 6.10572ZM14.9068 6.11801C15.0123 6.24231 15.0682 6.42295 15.0187 6.59062C14.9628 6.74005 14.8321 6.88326 14.6827 6.92663C14.5333 6.96406 14.3591 6.94528 14.2532 6.85205C14.1165 6.73383 14.023 6.58454 14.0482 6.39796C14.0605 6.22367 14.1913 6.06816 14.3467 5.99358C14.5333 5.919 14.7635 5.9625 14.9068 6.11815V6.11801Z" fill="black"></path>
    <path fill-rule="evenodd" clip-rule="evenodd" d="M7.6459 6.20516C7.72061 6.30486 7.72061 6.47267 7.67697 6.59723C7.60861 6.72154 7.47783 6.82746 7.34731 6.83989C7.21666 6.85245 7.08588 6.80868 6.99887 6.72167C6.90551 6.62223 6.84971 6.49766 6.88065 6.3608C6.8993 6.21164 7.01752 6.06843 7.16694 6.02479C7.34731 5.96237 7.54646 6.04317 7.6459 6.20502V6.20516ZM14.8567 6.1803C14.9561 6.2923 14.9686 6.46037 14.9249 6.60345C14.8814 6.72802 14.757 6.82746 14.6389 6.85866C14.4895 6.88974 14.3341 6.84637 14.2406 6.7341C14.1475 6.62831 14.1036 6.49145 14.1475 6.34837C14.1847 6.18664 14.3155 6.04978 14.4895 6.03722C14.6326 6.01236 14.7509 6.08694 14.8567 6.1803Z" fill="white"></path>
    <path fill-rule="evenodd" clip-rule="evenodd" d="M18.018 6.46659C18.0615 6.50402 18.0803 6.5786 18.1238 6.61602C18.1115 6.67196 18.1238 6.75288 18.1051 6.82125C18.0492 6.92704 17.9372 7.01418 17.825 7.0204C17.7259 7.00783 17.6324 6.98932 17.5825 6.91461C17.5157 6.84783 17.4876 6.75183 17.5078 6.65953C17.5078 6.57238 17.5577 6.49767 17.6385 6.44795C17.7319 6.36702 17.9122 6.37958 18.018 6.46659ZM4.31813 6.60333C4.38028 6.70303 4.36785 6.85854 4.29326 6.95163C4.21234 7.05134 4.07547 7.08228 3.95725 7.05134C3.86747 7.01564 3.79725 6.9433 3.76446 6.85246C3.73312 6.77153 3.74581 6.67182 3.78918 6.59738C3.83904 6.51645 3.92605 6.45416 4.02575 6.44795C4.14397 6.43539 4.2684 6.49145 4.31813 6.60333Z" fill="black"></path>
    <path fill-rule="evenodd" clip-rule="evenodd" d="M18.0059 6.57211C18.0434 6.64683 18.0494 6.76505 17.9999 6.84597C17.9437 6.90191 17.8817 6.93312 17.8193 6.93907C17.7385 6.93285 17.6698 6.90786 17.6263 6.85206C17.5704 6.78977 17.5704 6.68412 17.6015 6.61549C17.6263 6.52834 17.7133 6.47862 17.8004 6.47241C17.8751 6.46619 17.9434 6.50957 18.0059 6.57185V6.57211ZM4.24372 6.62197C4.28709 6.67804 4.28709 6.77139 4.26858 6.83976C4.23751 6.90799 4.16888 6.97662 4.0943 6.98284C4.01337 6.98905 3.94513 6.97028 3.89515 6.92055C3.84477 6.86991 3.82163 6.79824 3.83287 6.72762C3.83921 6.62792 3.91379 6.5536 4.01323 6.52848C4.09416 6.50375 4.18131 6.55347 4.24359 6.62197H4.24372Z" fill="white"></path>
    <path fill-rule="evenodd" clip-rule="evenodd" d="M10.9564 6.52861C10.9689 6.80855 11.1121 7.07607 11.3669 7.21928L11.361 7.28156C11.0561 7.28156 10.7325 7.28156 10.4339 7.29386C10.409 7.269 10.4028 7.21928 10.4524 7.21293C10.6828 7.06985 10.8631 6.81464 10.8816 6.54118C10.9003 6.52253 10.9254 6.52253 10.9564 6.52861Z" fill="black"></path>
    <path fill-rule="evenodd" clip-rule="evenodd" d="M11.2046 7.20671L11.1923 7.21293C10.9871 7.20063 10.7943 7.20671 10.6074 7.21293C10.7443 7.08836 10.8563 6.9515 10.9183 6.78369C10.9869 6.93325 11.0556 7.09497 11.2046 7.20684V7.20671Z" fill="#CE3829"></path>
    <path fill-rule="evenodd" clip-rule="evenodd" d="M9.48765 7.0762C9.57479 7.16956 9.69288 7.23171 9.81731 7.27535V7.34372C9.50008 7.38087 9.17028 7.43073 8.87156 7.48679C8.76577 7.39344 8.94019 7.36249 8.971 7.30021C9.05828 7.19455 9.10165 7.06391 9.15164 6.94569C9.22 6.94569 9.2885 6.90813 9.35687 6.90813L9.48751 7.0762H9.48765ZM12.7104 6.92678C12.779 7.08229 12.8222 7.26913 12.9845 7.38709C12.9965 7.41208 12.9658 7.43059 12.9658 7.45545C12.6671 7.41195 12.3622 7.35575 12.0697 7.33724C12.0014 7.21902 12.1755 7.25009 12.2251 7.18173C12.3249 7.10701 12.4057 7.00136 12.4743 6.90787C12.5486 6.92678 12.6233 6.94555 12.7105 6.92678H12.7104ZM7.58372 6.97028C7.68343 7.22536 7.90095 7.48666 8.18724 7.54894C8.19981 7.56151 8.19346 7.59245 8.19346 7.61731L7.19191 7.87848C7.10477 7.79133 7.2727 7.77282 7.29161 7.70419C7.44712 7.50504 7.52792 7.26239 7.49684 7.00123C7.51536 6.98271 7.54656 6.97015 7.58385 6.97015L7.58372 6.97028ZM14.3402 7.00744C14.3218 7.28738 14.3964 7.56124 14.6143 7.75404C14.6327 7.77903 14.7014 7.81011 14.6639 7.85375L14.639 7.86604C14.3218 7.77295 14.0229 7.67959 13.7122 7.60488C13.6806 7.49922 13.8177 7.52395 13.8739 7.48058C14.0541 7.37479 14.2283 7.18821 14.2844 6.98906L14.3403 7.00757L14.3402 7.00744Z" fill="black"></path>
    <path fill-rule="evenodd" clip-rule="evenodd" d="M9.46302 7.16334L9.63096 7.28764L9.00879 7.381C9.08972 7.26913 9.1643 7.15078 9.20794 7.02013C9.24536 7.00757 9.28886 6.99527 9.32615 7.00162L9.46315 7.16334H9.46302ZM12.6548 7.02013C12.6919 7.13213 12.7606 7.24414 12.8354 7.34979C12.6484 7.32493 12.4371 7.29386 12.2318 7.27521C12.3312 7.21293 12.4306 7.10093 12.5182 6.99527L12.6549 7.02013H12.6548Z" fill="#CE3829"></path>
    <path fill-rule="evenodd" clip-rule="evenodd" d="M18.1669 7.03269V7.03891H18.1546C18.142 7.02661 18.161 7.02026 18.1669 7.03269Z" fill="black"></path>
    <path fill-rule="evenodd" clip-rule="evenodd" d="M8.02602 7.57393C7.8081 7.62987 7.57193 7.69215 7.36035 7.75417C7.4947 7.5853 7.57299 7.37862 7.58436 7.16321C7.69001 7.33128 7.83944 7.49935 8.02602 7.57393ZM14.4841 7.73552C14.2726 7.6858 14.0734 7.60487 13.8744 7.56758C14.0175 7.48679 14.1788 7.37478 14.2663 7.21306C14.2789 7.41221 14.3597 7.58015 14.4841 7.73552Z" fill="#CE3829"></path>
    <path fill-rule="evenodd" clip-rule="evenodd" d="M18.1609 7.48679C18.2664 7.61743 18.2916 7.79794 18.2354 7.96561C18.1671 8.12138 18.0115 8.24568 17.8559 8.26433C17.6879 8.28284 17.5386 8.22691 17.4331 8.1149C17.3229 7.99391 17.283 7.82465 17.3273 7.66715C17.3708 7.48057 17.5386 7.33736 17.7256 7.3125C17.881 7.29385 18.0553 7.33736 18.1611 7.48679H18.1609Z" fill="black"></path>
    <path fill-rule="evenodd" clip-rule="evenodd" d="M18.1482 7.60501C18.1668 7.66108 18.1732 7.73566 18.1917 7.8105C18.1668 7.95358 18.0735 8.10909 17.9369 8.16516C17.7938 8.21488 17.6445 8.19002 17.5386 8.10909C17.4331 8.01573 17.3955 7.90994 17.3955 7.78564C17.3955 7.6177 17.5013 7.46206 17.6692 7.41221C17.8495 7.3375 18.055 7.43072 18.1481 7.60501H18.1482Z" fill="white"></path>
    <path fill-rule="evenodd" clip-rule="evenodd" d="M4.54146 7.62986C4.6286 7.74186 4.64725 7.92223 4.59753 8.06544C4.52916 8.20852 4.37352 8.34539 4.21167 8.37025C4.06859 8.37025 3.93794 8.33917 3.82593 8.24568C3.70163 8.11503 3.62705 7.94088 3.68286 7.75416C3.73892 7.57392 3.91916 7.41842 4.11209 7.41207C4.28016 7.39342 4.44189 7.4807 4.54133 7.62986H4.54146Z" fill="black"></path>
    <path fill-rule="evenodd" clip-rule="evenodd" d="M4.4543 7.63622C4.54144 7.74822 4.5663 7.91616 4.51024 8.05303C4.45536 8.16 4.362 8.24226 4.24907 8.28325C4.14328 8.30824 4.03763 8.27703 3.94427 8.22731C3.8197 8.14638 3.74512 8.00952 3.75134 7.86644C3.75134 7.72336 3.84483 7.59906 3.96291 7.5307C4.12451 7.44964 4.33 7.48084 4.4543 7.63635V7.63622Z" fill="white"></path>
    <path fill-rule="evenodd" clip-rule="evenodd" d="M15.759 8.81826L16.2693 9.03605C16.3128 9.07321 16.3503 9.13576 16.3252 9.20399C16.3003 9.25385 16.2381 9.26628 16.207 9.3037L16.2817 9.63336C16.1574 9.70173 16.0328 9.77644 15.9273 9.86358C15.9396 9.91344 15.9457 9.97559 15.921 10.0315C15.8714 10.075 15.8091 10.1062 15.753 10.0812C15.6971 10.0565 15.6659 10.0253 15.6224 10.013C14.3532 9.43435 12.9781 9.01146 11.5284 9.01146C10.6014 8.9866 9.73657 9.01146 8.85324 9.19183C7.85777 9.37841 6.92432 9.75184 6.02856 10.1873C5.96258 10.205 5.89236 10.1832 5.84819 10.1312C5.80469 10.0689 5.8232 9.98207 5.84184 9.926L5.53096 9.70821C5.54326 9.5962 5.56838 9.47798 5.58689 9.36611C5.53096 9.34112 5.45625 9.32869 5.43773 9.26033C5.43139 9.21682 5.43139 9.15467 5.46881 9.11725C5.58081 9.04253 5.71768 9.00524 5.84832 8.95552C7.45974 8.28972 9.17061 7.75469 10.9998 7.75469C12.6734 7.7424 14.2598 8.20905 15.7591 8.81866L15.759 8.81826ZM15.9892 7.84765C16.0019 8.0468 16.0639 8.23973 16.2133 8.40146C16.1762 8.51968 16.0951 8.38916 16.039 8.40146C15.7653 8.27081 15.4852 8.15894 15.2177 8.05936C15.1869 8.04085 15.2054 8.00964 15.2177 7.991C15.4043 7.96601 15.6224 7.91642 15.7838 7.77334C15.8461 7.79172 15.9084 7.82914 15.9891 7.84779L15.9892 7.84765ZM6.60101 8.00303C6.60722 8.01559 6.61952 8.04059 6.61331 8.07166C6.29607 8.18988 5.97871 8.28311 5.67999 8.43253L5.59919 8.45118C5.61149 8.39511 5.67377 8.35782 5.70485 8.3081C5.78578 8.18988 5.82307 8.04667 5.8355 7.90372C5.90386 7.8663 5.97236 7.84157 6.03464 7.79172C6.20272 7.90359 6.38943 7.99695 6.60101 8.00303Z" fill="black"></path>
    <path fill-rule="evenodd" clip-rule="evenodd" d="M15.237 8.6937C15.5542 8.8057 15.8778 8.94891 16.2014 9.08578C16.2262 9.09807 16.251 9.14184 16.2385 9.17887L16.1703 9.22237L15.66 9.3841C15.7096 9.56447 15.7906 9.73875 15.8652 9.92534C15.8652 9.96884 15.8277 9.99992 15.797 10.0125C14.571 9.44638 13.2645 8.99215 11.8896 8.94243C10.5894 8.86772 9.25187 8.94243 8.04495 9.30965C7.33564 9.51488 6.65741 9.79482 5.99782 10.1122C5.9481 10.1247 5.92324 10.0935 5.90446 10.0687C5.91702 9.8821 6.02268 9.72659 6.0724 9.55839L6.12847 9.42152C5.94096 9.3603 5.74974 9.31044 5.55615 9.27236C5.51873 9.25371 5.50008 9.20399 5.52508 9.17292L5.62452 9.12307C7.44751 8.37012 9.41346 7.72944 11.4852 7.84752C12.7667 7.89738 14.0359 8.24595 15.2367 8.6937H15.237Z" fill="#EFC460"></path>
    <path fill-rule="evenodd" clip-rule="evenodd" d="M15.9145 7.90359C15.9395 8.04058 15.9644 8.18366 16.0452 8.30796C15.8339 8.22082 15.6161 8.12759 15.4168 8.04653C15.5527 8.00845 15.6813 7.94749 15.7967 7.86617L15.9145 7.90359ZM6.40812 8.05301L5.82324 8.28324C5.84823 8.18988 5.88553 8.06558 5.91039 7.95979L6.04103 7.89142C6.15304 7.95979 6.27734 8.02829 6.40812 8.05315V8.05301Z" fill="#CE3829"></path>
    <path fill-rule="evenodd" clip-rule="evenodd" d="M11.8829 8.40741C11.8952 8.43241 11.8517 8.43241 11.8394 8.44484L10.9247 8.73113L9.9541 8.43254V8.41389C10.2838 8.28933 10.6073 8.15273 10.9434 8.02803C11.2545 8.14017 11.5658 8.28324 11.8829 8.40755V8.40741ZM17.3081 8.05289L17.2895 8.04059L17.3081 8.04654V8.05289Z" fill="black"></path>
    <path fill-rule="evenodd" clip-rule="evenodd" d="M11.666 8.40742L10.9192 8.65007L10.1914 8.41985V8.40729L10.9444 8.11491C11.187 8.19597 11.4236 8.30785 11.6661 8.40729L11.666 8.40742Z" fill="#CE3829"></path>
    <path fill-rule="evenodd" clip-rule="evenodd" d="M12.7234 8.32053C12.7572 8.40543 12.7659 8.49839 12.7484 8.58805C12.7049 8.71261 12.5678 8.79949 12.4497 8.82435C12.3127 8.8307 12.2009 8.77463 12.1325 8.68127C12.0766 8.61291 12.0578 8.53819 12.0643 8.45105C12.0702 8.3204 12.1761 8.19597 12.3004 8.15868C12.4499 8.10261 12.6304 8.17124 12.7236 8.3204L12.7234 8.32053ZM9.73096 8.35769C9.76812 8.4697 9.76204 8.63155 9.66868 8.73113C9.58775 8.79949 9.48831 8.83691 9.38874 8.82448C9.27052 8.80584 9.15243 8.7187 9.12731 8.61304C9.07772 8.48861 9.10708 8.34658 9.20202 8.25217C9.28295 8.17137 9.41347 8.13395 9.53182 8.17759C9.60613 8.20866 9.69341 8.27095 9.7307 8.35782L9.73096 8.35769Z" fill="black"></path>
    <path fill-rule="evenodd" clip-rule="evenodd" d="M12.6177 8.32053C12.6548 8.37038 12.6796 8.4451 12.6736 8.51968C12.6486 8.61303 12.5801 8.70626 12.493 8.73747C12.3961 8.76074 12.2938 8.73522 12.2193 8.6691C12.1445 8.58196 12.1198 8.4451 12.1881 8.34552C12.2316 8.27094 12.3063 8.2273 12.3933 8.22122C12.4746 8.22122 12.5612 8.24608 12.6176 8.32066L12.6177 8.32053ZM9.59373 8.30189C9.64979 8.36417 9.68087 8.44496 9.67465 8.53845C9.64979 8.61304 9.60629 8.70018 9.53158 8.73139C9.45686 8.76246 9.38215 8.75003 9.32013 8.72517C9.22043 8.66289 9.16462 8.55723 9.18948 8.43888C9.208 8.34552 9.28284 8.25851 9.38228 8.24C9.45686 8.22109 9.53171 8.24595 9.59373 8.30189Z" fill="white"></path>
    <path fill-rule="evenodd" clip-rule="evenodd" d="M13.9863 8.42632C14.26 8.60656 14.5148 8.83056 14.7949 9.01715V9.02971C14.4652 9.04822 14.1042 9.0547 13.7686 9.07322C13.4822 8.88663 13.1961 8.73112 12.9285 8.53806L12.9408 8.5255C13.2771 8.48807 13.5944 8.46321 13.9364 8.41971L13.9861 8.42619L13.9863 8.42632ZM8.88448 8.55062C8.60454 8.74977 8.31203 8.9427 8.01979 9.10442L7.04918 9.0547L7.04297 9.04214L7.85794 8.42645L8.87826 8.54441L8.88448 8.55062Z" fill="black"></path>
    <path fill-rule="evenodd" clip-rule="evenodd" d="M14.5773 8.96121C14.3036 8.96755 14.0488 8.99228 13.7747 8.99228C13.5694 8.83677 13.3515 8.7372 13.1526 8.58791C13.4138 8.56305 13.6629 8.51333 13.9364 8.50076C14.1607 8.62533 14.3537 8.79948 14.5773 8.96121ZM8.67936 8.6002C8.4617 8.74976 8.23135 8.88649 8.00734 9.02349L7.26074 8.99228V8.97972L7.88291 8.50076C8.15042 8.52576 8.41172 8.56318 8.67923 8.6002H8.67936Z" fill="#1E7E62"></path>
    <path fill-rule="evenodd" clip-rule="evenodd" d="M15.6097 9.09807C15.6659 9.20386 15.6409 9.37193 15.5726 9.47759C15.4791 9.57095 15.3424 9.62067 15.2179 9.58959C15.0997 9.55852 15.0001 9.45273 14.9691 9.35329C14.9319 9.22264 14.9691 9.08578 15.0748 9.0112C15.1559 8.92405 15.2801 8.89919 15.3984 8.92405C15.473 8.95513 15.5661 9.00485 15.6097 9.09807ZM6.76279 9.0547C6.82507 9.12307 6.85615 9.21629 6.84993 9.31587C6.83129 9.40301 6.78765 9.49028 6.71928 9.54609C6.61349 9.61445 6.48271 9.63323 6.37097 9.58959C6.25884 9.52744 6.18439 9.41531 6.17804 9.29722C6.16548 9.15414 6.24641 9.04835 6.35841 8.97999C6.48271 8.91162 6.657 8.94283 6.76279 9.0547Z" fill="black"></path>
    <path fill-rule="evenodd" clip-rule="evenodd" d="M15.5545 9.16657C15.5731 9.24129 15.5608 9.33451 15.5236 9.40922C15.4674 9.45895 15.4115 9.50258 15.3367 9.52123C15.2432 9.52744 15.1687 9.49015 15.1128 9.4403C15.0505 9.37193 15.0317 9.29087 15.0505 9.22238C15.0505 9.13537 15.1064 9.06065 15.1812 9.02958C15.243 8.99215 15.3306 8.97364 15.405 9.01701C15.4612 9.04227 15.5235 9.09212 15.5545 9.16657ZM6.70725 9.11064C6.75697 9.16657 6.78196 9.2475 6.76331 9.32208C6.7489 9.40367 6.69865 9.47442 6.62645 9.51501C6.55174 9.53987 6.45838 9.54609 6.3961 9.51501C6.29666 9.45273 6.24694 9.34073 6.26558 9.24129C6.2718 9.15414 6.32773 9.09212 6.3961 9.04835C6.4958 8.99863 6.62645 9.02349 6.70725 9.11064Z" fill="white"></path>
    <path fill-rule="evenodd" clip-rule="evenodd" d="M15.9836 10.2554C17.2963 10.9212 18.5033 11.9041 19.4864 13.0989C20.1021 13.9202 20.687 14.7786 21.0851 15.718C21.6576 17.1242 21.9873 18.6547 21.9813 20.3098C21.919 22.0828 21.5143 23.7375 20.7557 25.2497C20.3762 25.9712 19.8844 26.6555 19.3806 27.3339C18.4908 28.3542 17.4459 29.2314 16.3133 29.8783C14.341 30.9734 12.0454 31.4464 9.72454 31.2036C8.26268 31.0109 6.88135 30.5816 5.62445 29.8783C5.18887 29.6358 4.78462 29.331 4.38012 29.0634C3.54029 28.4166 2.80599 27.6387 2.15896 26.7986C2.04656 26.6131 1.92622 26.4324 1.79822 26.2573C1.20091 25.3552 0.784107 24.3849 0.46661 23.3893C8.37632e-05 21.7406 -0.13678 19.8181 0.217875 18.1011C0.379599 17.0309 0.759115 16.0665 1.21334 15.1333C1.44965 14.6853 1.70486 14.2435 1.99723 13.8392C2.20868 13.4658 2.50118 13.1548 2.77504 12.8251C3.56515 11.8982 4.51698 11.1453 5.52514 10.5418C7.49095 9.40949 9.73697 8.88055 12.1201 9.11712C13.4951 9.2475 14.7766 9.64566 15.9836 10.2554Z" fill="black"></path>
    <path fill-rule="evenodd" clip-rule="evenodd" d="M16.7985 10.8154C17.9742 11.562 19.0257 12.5387 19.8531 13.7209C21.0603 15.3882 21.7137 17.2984 21.8691 19.4197C21.9873 21.5291 21.5394 23.5386 20.6373 25.3055C20.1396 26.1641 19.5794 27.035 18.8579 27.7877C16.4814 30.2703 13.1775 31.4775 9.78684 31.1351C7.76496 30.8985 5.89833 30.1395 4.28704 28.8954C3.53409 28.2983 2.85599 27.5702 2.28989 26.842C2.09074 26.5808 1.95388 26.301 1.76108 26.0582C1.34428 25.4049 1.04569 24.7143 0.765614 24.024C0.218159 22.5555 0.000367403 20.8943 0.143314 19.2331C0.261532 17.7338 0.672255 16.3651 1.3255 15.1021C1.33171 15.0959 1.35671 15.1021 1.35671 15.0898L1.34441 15.0711C1.51869 14.7415 1.69272 14.4243 1.89808 14.1193C2.02264 13.9576 2.09722 13.7772 2.22774 13.6216C2.80019 12.8874 3.41614 12.1719 4.15031 11.5996C4.51118 11.2823 4.90326 11.0396 5.28872 10.7846C5.47544 10.6167 5.71188 10.5543 5.91089 10.4175C8.37457 9.07361 11.523 8.75017 14.254 9.63363C15.1436 9.90723 15.9958 10.3179 16.7985 10.8157V10.8154Z" fill="#EFC460"></path>
    <path fill-rule="evenodd" clip-rule="evenodd" d="M16.1888 9.59582C16.089 9.6581 15.9895 9.72038 15.9024 9.77618C15.8464 9.66418 15.7905 9.55218 15.7656 9.43383C15.8775 9.39667 15.9895 9.36559 16.114 9.32817C16.1511 9.3968 16.1635 9.50246 16.1887 9.59568L16.1888 9.59582ZM6.01024 9.46517C5.97282 9.58973 5.91054 9.71403 5.86716 9.84468L5.63086 9.68296C5.63086 9.58325 5.6495 9.47151 5.69301 9.39059L6.01024 9.46517Z" fill="#CE3829"></path>
    <path fill-rule="evenodd" clip-rule="evenodd" d="M17.1277 12.6879C18.2478 13.6461 19.2371 14.9152 19.7904 16.2592C20.3009 17.4661 20.5869 18.7788 20.5933 20.2037C20.5806 21.8896 20.108 23.4015 19.4173 24.8199C18.5899 26.3069 17.3083 27.6572 15.8402 28.534C15.0436 28.9947 14.2039 29.3367 13.314 29.5795C11.2302 30.1207 8.80358 29.8719 6.906 28.9634C6.38963 28.7145 5.90419 28.4161 5.42523 28.0985C4.97722 27.7253 4.50448 27.3829 4.11253 26.9479C3.49645 26.3131 3.01749 25.6223 2.6192 24.9133C2.23968 24.2909 2.02202 23.6129 1.79802 22.9474C1.39364 21.6034 1.28759 19.967 1.54902 18.536C1.67358 17.7459 1.92853 17.0179 2.19604 16.3024C2.65014 15.3069 3.21637 14.3613 4.01878 13.5338C4.46679 12.9986 5.00803 12.5943 5.54927 12.1837C5.72964 12.0842 5.88528 11.9411 6.07186 11.8479C8.00673 10.6471 10.4954 10.1866 12.8222 10.6347C14.4028 10.9395 15.8402 11.6362 17.1277 12.6876V12.6879Z" fill="black"></path>
    <path fill-rule="evenodd" clip-rule="evenodd" d="M16.002 11.9726C16.0516 12.01 16.0079 11.9726 16.0579 12.01C17.7255 13.0554 19.1061 14.7164 19.8093 16.5206C20.2264 17.5968 20.4877 18.7666 20.5063 20.0234C20.5247 21.5416 20.1764 22.9288 19.6101 24.2229C19.2243 23.8187 18.8264 23.4331 18.4528 23.0656C18.4904 22.8729 18.565 22.6924 18.6271 22.5182C19.0689 21.1307 19.1001 19.4262 18.7018 18.0138C18.484 17.2111 18.1421 16.4645 17.7066 15.7616C16.9784 14.648 15.9585 13.6773 14.8198 13.0801C14.5397 13.3476 14.2845 13.6524 14.0108 13.9325C13.6188 14.3368 13.2081 14.7351 12.8411 15.1457C12.0448 14.8409 11.1365 14.7474 10.2903 14.8597L10.1845 14.7663L9.73044 14.3183L8.36167 12.9434L7.07383 11.6617L6.91211 11.4938L6.94953 11.4689C8.93425 10.4983 11.4229 10.2682 13.6127 10.9028C14.4466 11.1575 15.2616 11.481 16.0021 11.9725L16.002 11.9726Z" fill="white"></path>
    <path fill-rule="evenodd" clip-rule="evenodd" d="M8.22501 12.9181L8.79732 13.4968L10.0417 14.7412L10.1723 14.8717C9.75537 14.9215 9.37585 15.0521 9.00268 15.1952L8.56089 14.7596C8.01965 14.2432 7.49071 13.702 6.95581 13.198C6.20908 13.6273 5.52489 14.1624 4.9461 14.853C4.33636 15.4939 3.94468 16.2466 3.58989 17.0057L3.57138 16.9994L2.48242 15.8983C2.78101 15.301 3.12945 14.7223 3.55247 14.1872C3.85727 13.814 4.17464 13.4406 4.51686 13.1233C4.95866 12.7502 5.38155 12.3519 5.87333 12.0657C6.17192 11.8666 6.49537 11.6925 6.81882 11.5308L6.83138 11.537L8.22527 12.9184L8.22501 12.9181Z" fill="#2B3E8A"></path>
    <path fill-rule="evenodd" clip-rule="evenodd" d="M17.2775 15.295C18.3476 16.7447 18.9198 18.4307 18.9014 20.3471C18.8452 21.7094 18.4783 22.9787 17.8436 24.1299C17.8313 24.1049 17.8187 24.1236 17.8124 24.1299L17.8187 24.1732C17.1842 25.3058 16.1763 26.2949 15.0997 27.0104L15.0125 27.0539L15.0062 27.0291L15.0125 25.4675C16.0204 24.6774 16.7982 23.5824 17.209 22.425C17.5386 21.5293 17.6444 20.5026 17.5762 19.507C17.458 18.2378 16.9974 17.1115 16.2635 16.1288C15.9088 15.6621 15.4793 15.2267 15.0379 14.8844H15.0193C14.6978 15.1873 14.3885 15.5028 14.0922 15.8302C13.7254 15.5627 13.3144 15.3449 12.9289 15.1769C13.3818 14.6846 13.8445 14.2013 14.3165 13.7272L14.8454 13.186C15.7721 13.6836 16.5998 14.4301 17.2777 15.295H17.2775ZM10.0792 16.384C10.3598 16.6465 10.6357 16.9141 10.9066 17.1867C10.913 17.199 10.9004 17.2299 10.9315 17.2485C11.1993 16.9874 11.4669 16.67 11.7465 16.4088C11.8336 16.384 11.9145 16.4337 12.0076 16.4524C12.3563 16.5581 12.6983 16.6826 13.0092 16.9064L12.9908 16.9436L12.6113 17.3295L11.0123 18.9531L10.9377 19.0341C10.664 18.8225 10.4648 18.5552 10.2222 18.3375C9.36979 17.5038 8.55482 16.6389 7.70256 15.8178L6.82532 14.9342L6.77546 14.9591C6.76925 14.9466 6.76316 14.9342 6.75682 14.9466C6.40851 15.2204 6.06628 15.5563 5.79877 15.9173C5.25132 16.5207 4.92152 17.2426 4.6478 17.9827C4.11899 19.4324 4.16262 21.3113 4.79722 22.7171C4.98381 23.1712 5.22646 23.6133 5.50018 24.0487C5.71176 24.2853 5.90456 24.559 6.13491 24.8014C6.36514 25.0319 6.60157 25.2555 6.86909 25.4674L6.86274 27.0474C6.35244 26.7426 5.87349 26.3572 5.43169 25.9651C5.01475 25.5044 4.60429 25.038 4.28693 24.5526C3.81405 23.7376 3.40968 22.9102 3.22309 21.9958C2.78764 20.1043 3.08001 17.9953 3.98212 16.4025C4.33665 15.6436 4.92165 14.9904 5.50018 14.3681C5.82998 14.0695 6.18463 13.7832 6.55807 13.5343L6.95001 13.298C8.00128 14.3178 9.03418 15.3445 10.0794 16.3836L10.0792 16.384Z" fill="#EFC460"></path>
    <path fill-rule="evenodd" clip-rule="evenodd" d="M13.731 15.6808C14.0491 15.884 14.3453 16.1196 14.6146 16.384V16.4148C14.3035 16.7196 13.9863 17.0185 13.6875 17.3296C13.6067 17.261 13.5196 17.1865 13.4514 17.1244C12.9473 16.7137 12.3935 16.4337 11.7837 16.3094C11.2425 16.2036 10.6576 16.1912 10.1287 16.3154C9.74295 15.9607 9.4318 15.6124 9.07715 15.2641C10.5517 14.6419 12.3997 14.8097 13.7309 15.6809L13.731 15.6808Z" fill="#EFC460"></path>
    <path fill-rule="evenodd" clip-rule="evenodd" d="M15.3927 15.2825C16.5001 16.3151 17.1908 17.6283 17.4398 19.0837C17.5645 19.9299 17.527 20.8758 17.3463 21.6907L17.2781 21.8837C16.6373 21.2177 15.9654 20.5893 15.3556 19.9485C14.9884 19.5754 14.5966 19.2146 14.2606 18.8535L13.0038 17.5906L12.749 17.3169C12.8485 17.1799 12.9603 17.074 13.0787 16.9623C13.2952 17.0938 13.4939 17.2526 13.6699 17.4349H13.7007C14.0419 17.0897 14.3864 16.7475 14.7337 16.4086L14.7274 16.3837C14.5468 16.1908 14.3355 16.0354 14.1676 15.8672C14.435 15.5623 14.7337 15.2637 15.0322 14.99C15.1504 15.0645 15.2688 15.1767 15.3929 15.2823L15.3927 15.2825Z" fill="white"></path>
    <path fill-rule="evenodd" clip-rule="evenodd" d="M7.71435 15.9357L7.70218 15.9669C6.67736 16.7585 5.98339 17.9027 5.75488 19.1773C5.58681 19.0467 5.41887 18.8725 5.28823 18.7232C5.26958 18.7046 5.26958 18.6609 5.2385 18.6861L4.69727 18.1323C4.88385 17.5225 5.15758 16.9501 5.4998 16.4148C5.69908 16.1659 5.88566 15.8862 6.10967 15.6682C6.3149 15.4319 6.54526 15.2079 6.78778 15.0274H6.81263L7.71448 15.9357H7.71435Z" fill="#2B3E8A"></path>
    <path fill-rule="evenodd" clip-rule="evenodd" d="M2.63135 15.3819V15.3881L2.625 15.3695C2.625 15.3695 2.63135 15.3696 2.63135 15.382V15.3819Z" fill="black"></path>
    <path fill-rule="evenodd" clip-rule="evenodd" d="M3.54689 17.093C2.78799 18.866 2.738 21.2801 3.46609 23.1091C3.80818 23.9118 4.21904 24.6959 4.82851 25.4051C5.03374 25.6417 5.28247 25.9028 5.51283 26.1453C5.94828 26.5189 6.4275 26.8984 6.93753 27.1844L6.9501 27.1473L6.95631 25.4487L6.93145 25.4112C6.57058 25.1315 6.23457 24.7891 5.92964 24.4531C5.6124 24.0612 5.33246 23.6694 5.1271 23.2462C4.42414 21.9023 4.16271 20.2224 4.53614 18.6608L4.66044 18.2254L4.71651 18.2629C5.07116 18.5862 5.36975 18.9595 5.73062 19.2832C5.63726 19.7995 5.63118 20.4156 5.71832 20.9691C5.79925 21.5167 5.94854 22.0393 6.19728 22.5307C6.67015 23.4828 7.50377 24.3972 8.48059 24.8886C8.81025 25.0756 9.17112 25.2122 9.55064 25.3304V27.701C10.0547 27.701 10.4964 27.6946 10.9755 27.701L10.9817 27.6634L10.9879 25.5232C11.2927 25.4983 11.5728 25.4797 11.8774 25.436L12.6865 26.2446C13.3585 26.9481 14.0677 27.6198 14.7519 28.3416C14.9076 28.4847 15.0506 28.6154 15.2126 28.7894C13.0972 29.8657 10.4653 30.0834 8.18822 29.3743C7.29232 29.0819 6.45236 28.6959 5.67482 28.1674C5.36367 27.9744 5.08386 27.7133 4.80378 27.4953C4.14419 26.9165 3.5408 26.2386 3.08644 25.5353C2.66964 24.8821 2.30268 24.2163 2.06611 23.5071C1.91695 23.0468 1.76753 22.5927 1.68038 22.1196C1.36923 20.6514 1.45016 18.9651 1.84845 17.5716C2.02869 17.0304 2.15934 16.4705 2.43928 15.9852C2.82514 16.3339 3.16737 16.707 3.54689 17.0929V17.093Z" fill="white"></path>
    <path fill-rule="evenodd" clip-rule="evenodd" d="M8.7105 16.9371V16.9498C7.39146 17.8642 6.78172 19.4631 7.14894 21.0499C7.35416 21.9893 7.9639 22.8666 8.82872 23.439C9.83054 24.0983 11.2053 24.2353 12.3566 23.7999C12.8169 23.6319 13.2275 23.3209 13.6195 23.0098C13.9179 23.3209 14.2415 23.6134 14.5527 23.9682C14.2227 24.3414 13.7749 24.5963 13.3518 24.8514C11.9583 25.6104 10.067 25.6165 8.65457 24.8949C8.05739 24.5901 7.50994 24.1794 7.06179 23.6694C6.29655 22.8044 5.84853 21.7906 5.76774 20.6396C5.68681 19.5321 5.89839 18.4683 6.41476 17.5786C6.75051 16.9937 7.22973 16.4149 7.77097 16.0105C8.08225 16.3153 8.40557 16.6018 8.7105 16.9374V16.9371Z" fill="#EFC460"></path>
    <path fill-rule="evenodd" clip-rule="evenodd" d="M11.6535 16.3712C11.5853 16.4522 11.4918 16.5333 11.4233 16.6264C11.2675 16.7758 11.1121 16.9436 10.9565 17.1053C10.6953 16.8875 10.465 16.6203 10.2161 16.3838C10.6764 16.2781 11.1679 16.2781 11.6535 16.3712ZM10.5273 18.7665C10.6579 18.8912 10.7761 19.0217 10.9256 19.146L10.9566 19.1273C11.5289 18.5239 12.0827 17.9516 12.6799 17.3792C12.8542 17.5409 13.0286 17.7401 13.2212 17.9268C13.5635 18.244 13.8871 18.617 14.2478 18.9471C14.5961 19.3143 14.9511 19.6686 15.3365 20.0421L16.5557 21.2739L17.2527 21.9771C17.0535 22.6678 16.7611 23.321 16.3506 23.9371C15.9399 24.4845 15.4857 25.007 14.9321 25.4237L14.9199 25.4736V27.1847L14.9382 27.197C16.3008 26.382 17.4891 25.1003 18.1673 23.6881L18.4098 23.1405C18.7897 23.5141 19.1876 23.8932 19.5735 24.3102C19.2934 24.9138 18.9324 25.4798 18.5219 26.0397C17.6447 27.1658 16.5245 28.1055 15.2929 28.7522C14.8574 28.3045 14.4283 27.9063 14.0113 27.4706L12.8104 26.2573C12.5371 25.977 12.2591 25.7012 11.9767 25.4299L11.9953 25.4113C12.9909 25.2063 13.8929 24.7274 14.6519 23.9994C14.6768 23.9682 14.646 23.9371 14.6333 23.9308C14.2973 23.5636 13.949 23.2342 13.6257 22.8917C13.1028 23.3583 12.5055 23.707 11.8523 23.8747C11.5662 23.937 11.2862 23.9619 10.9999 23.9805L10.9873 23.9555L10.9937 22.9415L11.9764 22.9352L11.9951 22.8917L11.9891 21.5478L11.9579 21.5355H10.9437C10.9252 21.3177 10.9311 21.0877 10.9375 20.8822L12.3187 20.8699L12.3309 20.8387L12.325 19.5071H9.79943L9.56921 19.5135L9.55692 19.6129L9.55057 22.9975C8.96569 22.4003 8.35609 21.7719 7.74635 21.1869L7.16769 20.602C7.04934 19.8057 7.22362 18.9907 7.58449 18.3313C7.83957 17.8087 8.29367 17.342 8.76654 17.006C9.37046 17.5721 9.924 18.194 10.5275 18.7665H10.5273Z" fill="#2B3E8A"></path>
    <path fill-rule="evenodd" clip-rule="evenodd" d="M0.336293 17.3605L0.330078 17.3482L0.336293 17.3542V17.3605ZM22.0001 19.4383C21.9938 19.4383 21.9815 19.4506 21.9875 19.4506V19.4258C21.9873 19.4196 21.9938 19.4259 22.0001 19.4383Z" fill="black"></path>
    <path fill-rule="evenodd" clip-rule="evenodd" d="M12.2442 19.6067C12.2442 20.0109 12.2319 20.3782 12.2383 20.7889C11.7901 20.7948 11.3362 20.7825 10.8632 20.7948C10.8321 21.056 10.8446 21.3238 10.8506 21.5975L10.8692 21.6161H11.9082V22.8543L11.8834 22.8606H10.9188L10.9065 22.879L10.9003 23.974C10.4647 23.9617 10.0356 23.8869 9.64355 23.7499V19.594C10.5022 19.5691 11.3545 19.5817 12.2318 19.5817L12.2444 19.6067H12.2442Z" fill="#EFC460"></path>
    <path fill-rule="evenodd" clip-rule="evenodd" d="M0.0063473 20.714L0 20.7013C0.0063473 20.6888 0.0063473 20.7013 0.0063473 20.714Z" fill="black"></path>
    <path fill-rule="evenodd" clip-rule="evenodd" d="M8.96513 22.5243L9.55001 23.1092V23.7192C8.5794 23.3333 7.67729 22.45 7.35371 21.4732C7.27278 21.2243 7.19199 20.9755 7.17969 20.7327C7.75822 21.3425 8.39282 21.9086 8.96526 22.5245L8.96513 22.5243Z" fill="white"></path>
    <path fill-rule="evenodd" clip-rule="evenodd" d="M17.2276 21.7962L17.2217 21.7903H17.2276V21.7962Z" fill="black"></path>
    <path fill-rule="evenodd" clip-rule="evenodd" d="M10.8945 25.5169L10.9007 25.6787L10.8945 27.6323L9.6377 27.6264L9.64391 25.3552C10.036 25.4422 10.4652 25.511 10.8946 25.5169H10.8945Z" fill="#EFC460"></path>
    <path fill-rule="evenodd" clip-rule="evenodd" d="M18.6342 27.9558L18.6279 27.9617V27.9433C18.6279 27.931 18.6279 27.9433 18.6342 27.9556V27.9558ZM12.201 29.8286H12.1826L12.1886 29.81C12.1949 29.7977 12.1949 29.81 12.2009 29.8286H12.201Z" fill="black"></path>
  </g>
  <defs>
    <clipPath id="clip0_472_111731">
      <rect width="22" height="30.7658" fill="white" transform="translate(0 0.5)"></rect>
    </clipPath>
  </defs>
</svg>
