<?xml version="1.0" encoding="UTF-8"?>
<svg xmlns="http://www.w3.org/2000/svg" width="32" height="32" viewBox="0 0 32 32" fill="none">
  <g clip-path="url(#clip0_32_22780)">
    <mask id="mask0_32_22780" style="mask-type:luminance" maskUnits="userSpaceOnUse" x="0" y="0" width="32" height="32">
      <path d="M32 0H0V32H32V0Z" fill="white"></path>
    </mask>
    <g mask="url(#mask0_32_22780)">
      <path d="M16 32C24.84 32 32 24.84 32 16C32 7.16 24.84 0 16 0C7.16 0 0 7.16 0 16C0 24.84 7.16 32 16 32Z" fill="white"></path>
      <path opacity="0.1" d="M16 32C24.84 32 32 24.84 32 16C32 7.16 24.84 0 16 0C7.16 0 0 7.16 0 16C0 24.84 7.16 32 16 32Z" fill="black"></path>
      <path d="M16 8.36C15.74 8.36 15.53 8.15 15.53 7.89V3.01C15.53 2.75 15.74 2.54 16 2.54C16.26 2.54 16.47 2.75 16.47 3.01V7.9C16.47 8.16 16.26 8.37 16 8.37V8.36Z" fill="#5F666F"></path>
      <path d="M8.98 13.77C8.92 13.77 8.87 13.76 8.81 13.74L3.66 11.74C3.42 11.65 3.3 11.37 3.39 11.13C3.48 10.89 3.76 10.77 4 10.86L9.15 12.86C9.39 12.95 9.51 13.23 9.42 13.47C9.35 13.66 9.17 13.77 8.98 13.77Z" fill="#5F666F"></path>
      <path d="M7.84001 26.98C7.74001 26.98 7.64001 26.95 7.55001 26.88C7.34001 26.72 7.31001 26.43 7.46001 26.22L11.27 21.26C11.43 21.05 11.72 21.02 11.93 21.17C12.14 21.33 12.17 21.62 12.02 21.83L8.21001 26.79C8.12001 26.91 7.98001 26.97 7.84001 26.97V26.98Z" fill="#5F666F"></path>
      <path d="M16 0C14.51 0 13.07 0.2 11.71 0.58L15.52 3.35C15.81 3.56 16.2 3.56 16.49 3.35L20.3 0.58C18.93 0.2 17.49 0 16.01 0L16 0Z" fill="#394049"></path>
      <path d="M3.16001 6.45C1.47001 8.73 0.360007 11.47 0.0700073 14.46L4.02001 11.9C4.32001 11.71 4.46001 11.34 4.37001 11L3.16001 6.45Z" fill="#394049"></path>
      <path d="M7.86 25.69L3.16 25.54C4.89 27.86 7.23 29.7 9.94 30.81L8.63 26.29C8.53 25.95 8.22 25.71 7.87 25.7L7.86 25.69Z" fill="#394049"></path>
      <path d="M23.02 13.77C22.83 13.77 22.65 13.66 22.58 13.47C22.49 13.23 22.61 12.96 22.85 12.86L28 10.86C28.24 10.77 28.51 10.89 28.61 11.13C28.7 11.37 28.58 11.64 28.34 11.74L23.19 13.74C23.13 13.76 23.08 13.77 23.02 13.77Z" fill="#5F666F"></path>
      <path d="M24.16 26.98C24.02 26.98 23.88 26.92 23.79 26.8L19.98 21.84C19.82 21.63 19.86 21.34 20.07 21.18C20.28 21.02 20.57 21.06 20.73 21.27L24.54 26.23C24.7 26.44 24.66 26.73 24.45 26.89C24.36 26.96 24.26 26.99 24.16 26.99V26.98Z" fill="#5F666F"></path>
      <path d="M28.84 6.45C30.54 8.73 31.64 11.47 31.93 14.46L27.98 11.9C27.68 11.71 27.54 11.34 27.63 11L28.84 6.45Z" fill="#394049"></path>
      <path d="M24.14 25.69L28.84 25.54C27.11 27.86 24.77 29.7 22.06 30.81L23.37 26.29C23.47 25.95 23.78 25.71 24.13 25.7L24.14 25.69Z" fill="#394049"></path>
      <path d="M15.44 7.61L8.65 12.55C8.31 12.79 8.17 13.23 8.3 13.62L10.89 21.61C11.02 22.01 11.39 22.27 11.8 22.27H20.2C20.62 22.27 20.98 22 21.11 21.61L23.7 13.62C23.83 13.22 23.69 12.79 23.35 12.55L16.56 7.61C16.22 7.37 15.77 7.37 15.43 7.61H15.44Z" fill="#394049"></path>
      <path opacity="0.1" d="M25.23 2.93C27.33 5.64 28.57 9.03 28.57 12.72C28.57 21.56 21.41 28.72 12.57 28.72C9.13 28.72 5.95 27.63 3.34 25.79C6.27 29.57 10.85 32 16 32C24.84 32 32 24.84 32 16C32 10.6 29.33 5.83 25.23 2.93Z" fill="black"></path>
    </g>
  </g>
  <defs>
    <clipPath id="clip0_32_22780">
      <rect width="32" height="32" fill="white"></rect>
    </clipPath>
  </defs>
</svg>
