<?xml version="1.0" encoding="UTF-8"?>
<svg xmlns="http://www.w3.org/2000/svg" width="24" height="24" viewBox="0 0 24 24" fill="none">
  <g clip-path="url(#clip0_482_27189)">
    <path d="M20.4851 20.4853C25.1714 15.799 25.1714 8.20101 20.4851 3.51472C15.7988 -1.17157 8.20087 -1.17157 3.51458 3.51472C-1.17171 8.20101 -1.17171 15.799 3.51458 20.4853C8.20087 25.1716 15.7988 25.1716 20.4851 20.4853Z" fill="#00569F"></path>
    <path d="M3.87721 3.87568C1.70735 6.04554 0.511719 8.93077 0.511719 12C0.511719 15.0692 1.70673 17.9545 3.87721 20.1243C6.04706 22.2942 8.9323 23.4898 12.0015 23.4898C15.0708 23.4898 17.956 22.2948 20.1259 20.1243C22.2957 17.9545 23.4913 15.0692 23.4913 12C23.4913 8.93077 22.2963 6.04554 20.1259 3.87568C17.956 1.70583 15.0708 0.510193 12.0015 0.510193C8.9323 0.510193 6.04706 1.7052 3.87721 3.87568Z" fill="url(#paint0_linear_482_27189)"></path>
    <path d="M18.231 18.2303C21.6719 14.7894 21.6719 9.21058 18.231 5.76967C14.7901 2.32875 9.21129 2.32875 5.77037 5.76967C2.32945 9.21059 2.32945 14.7894 5.77037 18.2303C9.21129 21.6712 14.7901 21.6712 18.231 18.2303Z" fill="white"></path>
    <path d="M17.9904 17.99C21.2986 14.6818 21.2986 9.3182 17.9904 6.01003C14.6823 2.70185 9.31865 2.70186 6.01048 6.01003C2.70231 9.3182 2.70231 14.6818 6.01048 17.99C9.31865 21.2981 14.6823 21.2981 17.9904 17.99Z" fill="#1592D1"></path>
    <path d="M12.0011 20.1724C16.5149 20.1724 20.1741 16.5132 20.1741 11.9994C20.1741 7.48558 16.5149 3.82642 12.0011 3.82642C7.48729 3.82642 3.82812 7.48558 3.82812 11.9994C3.82812 16.5132 7.48729 20.1724 12.0011 20.1724Z" fill="url(#paint1_linear_482_27189)"></path>
    <path d="M6.99512 6.95677H10.0899L15.1269 12.9786C15.1594 13.0173 15.2224 12.9942 15.2224 12.9437V8.41997C15.2224 7.84492 14.7558 7.37839 14.1808 7.37839H13.8664V6.95615H17.0036V7.37839H16.7959C16.2795 7.37839 15.8604 7.79689 15.8604 8.31394V16.9609H15.4506L9.00156 9.25136C8.99034 9.23827 8.971 9.23702 8.9579 9.24762C8.95104 9.25324 8.9473 9.26197 8.9473 9.27132V15.2196C8.9473 15.8302 9.44252 16.3248 10.0525 16.3248H10.3045V16.7065H6.99512V16.3248H7.33441C7.85083 16.3248 8.26996 15.9063 8.26996 15.3892V8.37631L7.80156 7.81623L7.6263 7.60667C7.5053 7.46259 7.3263 7.37902 7.13794 7.37839H6.99636V6.95677H6.99512Z" fill="url(#paint2_linear_482_27189)"></path>
  </g>
  <defs>
    <linearGradient id="paint0_linear_482_27189" x1="3.87721" y1="3.87631" x2="20.1259" y2="20.125" gradientUnits="userSpaceOnUse">
      <stop offset="0.02" stop-color="#7BA6CB"></stop>
      <stop offset="0.06" stop-color="#6E9EC6"></stop>
      <stop offset="0.12" stop-color="#4C88BA"></stop>
      <stop offset="0.21" stop-color="#1664A7"></stop>
      <stop offset="0.24" stop-color="#00569F"></stop>
    </linearGradient>
    <linearGradient id="paint1_linear_482_27189" x1="6.22189" y1="6.2208" x2="17.7803" y2="17.7792" gradientUnits="userSpaceOnUse">
      <stop offset="0.43" stop-color="#1592D1"></stop>
      <stop offset="0.57" stop-color="#2299D5"></stop>
      <stop offset="0.82" stop-color="#43ACDE"></stop>
      <stop offset="0.96" stop-color="#5AB8E4"></stop>
    </linearGradient>
    <linearGradient id="paint2_linear_482_27189" x1="7.05998" y1="6.89253" x2="16.4947" y2="16.3272" gradientUnits="userSpaceOnUse">
      <stop offset="0.08" stop-color="#C4E7F4"></stop>
      <stop offset="0.25" stop-color="#E9F6FB"></stop>
      <stop offset="0.36" stop-color="#FCFDFF"></stop>
      <stop offset="0.78" stop-color="#C4E7F4"></stop>
      <stop offset="0.83" stop-color="#CAE9F5"></stop>
      <stop offset="0.9" stop-color="#DAF0F8"></stop>
      <stop offset="0.98" stop-color="#F5FAFE"></stop>
      <stop offset="1" stop-color="#FCFDFF"></stop>
    </linearGradient>
    <clipPath id="clip0_482_27189">
      <rect width="24" height="24" fill="white"></rect>
    </clipPath>
  </defs>
</svg>
