<?xml version="1.0" encoding="UTF-8"?>
<svg xmlns="http://www.w3.org/2000/svg" width="24" height="25" viewBox="0 0 24 25" fill="none">
  <g clip-path="url(#clip0_482_27365)">
    <path d="M0 12.5018L12.0018 0.5L24 12.5018L11.9982 24.5L0 12.5018Z" fill="white"></path>
    <path d="M0.545898 12.5017L11.9978 1.04633L23.4532 12.5017L11.9978 23.9572L0.545898 12.5017Z" fill="#5A348B"></path>
    <path d="M2.18555 12.5018L12.002 2.68182L21.8184 12.4983L12.002 22.3147L2.18555 12.5018Z" fill="white"></path>
    <path d="M17.0732 9.17124L15.8054 7.90348C15.4657 7.56027 14.9124 7.55677 14.5657 7.88947C13.8652 8.56187 13.1193 9.39188 12.629 10.369C12.8531 8.90158 13.3574 7.32563 14.0228 6.1139L12.1772 4.26828L10.3316 6.1139C10.997 7.32563 11.5013 8.90158 11.7254 10.369C11.2281 9.39188 10.4892 8.56187 9.78876 7.88947C9.44206 7.55326 8.88872 7.56027 8.54902 7.90348L7.28125 9.17124L9.33349 11.227V9.32884C9.94986 9.51095 11.2141 10.2464 11.6624 11.227H10.8569V11.6437H11.7499L11.004 12.2566C10.8289 12.4002 10.8044 12.6593 10.948 12.8345C10.955 12.845 10.9655 12.852 10.9725 12.8625L12.1842 14.0777L13.3924 12.8625C13.5535 12.7014 13.55 12.4422 13.3924 12.2846C13.3819 12.2741 13.3714 12.2671 13.3609 12.2566L12.615 11.6437H13.508V11.227H12.7025C13.1473 10.2464 14.4151 9.51095 15.0314 9.32534V11.2235L17.0837 9.16774H17.0767L17.0732 9.17124Z" fill="#E2241C"></path>
    <path d="M3.77148 12.6768H8.70947L12.0015 15.8988L15.2934 12.6768H20.2314L12.0015 20.7317L3.77148 12.6768Z" fill="#5A348B"></path>
  </g>
  <defs>
    <clipPath id="clip0_482_27365">
      <rect width="24" height="24" fill="white" transform="translate(0 0.5)"></rect>
    </clipPath>
  </defs>
</svg>
