<?xml version="1.0" encoding="UTF-8"?>
<svg xmlns="http://www.w3.org/2000/svg" width="18" height="30" viewBox="0 0 18 30" fill="none">
  <g clip-path="url(#clip0_482_27158)">
    <path d="M8.75561 28.3604C13.1332 28.3604 16.7847 22.1826 16.7847 14.5537C16.7847 6.92475 13.1228 0.746918 8.75561 0.746918C4.38839 0.746918 0.726562 6.92475 0.726562 14.5537C0.726562 22.1826 4.37801 28.3604 8.75561 28.3604Z" fill="white"></path>
    <path fill-rule="evenodd" clip-rule="evenodd" d="M2.48077 4.40441C4.00961 1.79097 6.21355 6.10352e-05 8.75519 6.10352e-05C11.2968 6.10352e-05 13.5008 1.79097 15.0296 4.40441C16.569 7.03582 17.5104 10.625 17.5104 14.5537C17.5104 18.482 16.5717 22.0712 15.0336 24.7028C13.5058 27.3168 11.3017 29.1074 8.75519 29.1074C6.20864 29.1074 4.00457 27.3168 2.47673 24.7028C0.938633 22.0712 0 18.482 0 14.5537C0 10.625 0.941405 7.03582 2.48077 4.40441ZM3.72515 5.17455C2.34179 7.53929 1.45228 10.8535 1.45228 14.5537C1.45228 18.2543 2.33938 21.5685 3.7214 23.9331C5.11368 26.3152 6.92414 27.6136 8.75519 27.6136C10.5862 27.6136 12.3967 26.3152 13.789 23.9331C15.171 21.5685 16.0581 18.2543 16.0581 14.5537C16.0581 10.8535 15.1686 7.53929 13.7852 5.17455C12.3914 2.79184 10.5808 1.49384 8.75519 1.49384C6.9296 1.49384 5.11902 2.79184 3.72515 5.17455Z" fill="black"></path>
    <path fill-rule="evenodd" clip-rule="evenodd" d="M2.85096 4.61357C4.33252 2.07287 6.40745 0.4375 8.7243 0.4375C11.0409 0.4375 13.1184 2.06985 14.6027 4.60934C16.0906 7.1551 17.0127 10.6559 17.0127 14.511C17.0127 18.3661 16.0906 21.8669 14.6027 24.4127C13.1184 26.9522 11.0409 28.5845 8.7243 28.5845C6.40745 28.5845 4.33252 26.9491 2.85096 24.4084C1.36572 21.8614 0.446289 18.3607 0.446289 14.511C0.446289 10.6613 1.36572 7.16061 2.85096 4.61357ZM3.29576 4.88798C1.86607 7.33976 0.964961 10.7425 0.964961 14.511C0.964961 18.2796 1.86607 21.6822 3.29576 24.134C4.72915 26.5921 6.66355 28.051 8.7243 28.051C10.7853 28.051 12.7223 26.5944 14.1582 24.1378C15.5903 21.6874 16.494 18.2848 16.494 14.511C16.494 10.7372 15.5903 7.3346 14.1582 4.88421C12.7223 2.42756 10.7853 0.970991 8.7243 0.970991C6.66355 0.970991 4.72915 2.42987 3.29576 4.88798Z" fill="#FB090B"></path>
    <path d="M7.37589 22.1399V7.13815H6.02734V21.6064L7.37589 22.1399Z" fill="black"></path>
    <path d="M6.02726 21.6064V7.13815L4.67871 7.99174V21.073L6.02726 21.6064Z" fill="#FB090B"></path>
    <path d="M4.67863 21.0729V7.99173L3.33008 9.05871V20.006L4.67863 21.0729Z" fill="black"></path>
    <path d="M3.32999 20.006V9.05872L1.98145 11.1927V17.872L3.32999 20.006Z" fill="#FB090B"></path>
    <path d="M1.98178 18.0854V10.8726L1.35938 12.4731V16.805L1.98178 18.0854Z" fill="black"></path>
    <path fill-rule="evenodd" clip-rule="evenodd" d="M11.5763 7.18085V13.284H12.9249V8.19448H13.4436V13.284H16.2859V13.8175H13.4436V15.1512H16.2859V15.6847H13.4436V20.8596H12.9249V15.6847H11.5763V21.8732H11.0577V15.6847H8.72363V15.1512H11.0577V13.8175H8.72363V13.284H11.0577V7.18085H11.5763ZM11.5763 13.8175V15.1512H12.9249V13.8175H11.5763Z" fill="black"></path>
    <path d="M16.3386 13.8175H12.9258V8.31184L11.5772 7.45825V13.8175H8.72452V6.71136L7.37598 6.92476V22.1399H8.72452V15.2045H11.5772V21.6064L12.9258 21.073V15.2045H16.3386V13.8175Z" fill="#FB090B"></path>
    <path fill-rule="evenodd" clip-rule="evenodd" d="M9.24231 6.64734V22.4387H8.72363V6.64734H9.24231Z" fill="black"></path>
    <path fill-rule="evenodd" clip-rule="evenodd" d="M8.72394 7.08482C4.73649 7.08482 1.50402 10.4096 1.50402 14.511C1.50402 18.6124 4.73649 21.9372 8.72394 21.9372C12.7114 21.9372 15.9439 18.6124 15.9439 14.511C15.9439 10.4096 12.7114 7.08482 8.72394 7.08482ZM0.985352 14.511C0.985352 10.115 4.45004 6.55133 8.72394 6.55133C12.9978 6.55133 16.4625 10.115 16.4625 14.511C16.4625 18.907 12.9978 22.4707 8.72394 22.4707C4.45004 22.4707 0.985352 18.907 0.985352 14.511Z" fill="black"></path>
    <path d="M4.95881 22.6201L5.03142 22.6414C5.49823 22.8121 5.69532 22.6308 5.76794 22.4707L6.16213 22.6201L5.36337 24.9034L4.8862 24.722L5.43599 23.1536L4.85508 22.9402L4.95881 22.6201ZM7.24097 23.8685C7.02313 23.8364 6.94014 23.6657 6.96088 23.5163C6.98163 23.3456 7.12686 23.2389 7.35508 23.2709C7.52105 23.2923 7.63516 23.431 7.60404 23.6124C7.57292 23.7938 7.43806 23.9005 7.24097 23.8685ZM8.01898 24.722C8.06047 24.4126 7.94636 24.2419 7.71815 24.0819C7.93599 24.0178 8.0501 23.8471 8.08122 23.6444C8.13308 23.3136 7.89449 22.9722 7.36545 22.8975C6.91939 22.8228 6.53557 23.0149 6.47333 23.431C6.44221 23.6551 6.5252 23.8258 6.71192 23.9538C6.29698 24.0605 6.25549 24.3806 6.23474 24.498C6.18288 24.8287 6.35922 25.2662 7.01275 25.3622C7.6974 25.4689 7.96711 25.0208 8.01898 24.722ZM7.48993 24.658C7.46918 24.8287 7.33433 25.0208 7.06462 24.9781C6.8364 24.9461 6.71192 24.7647 6.75342 24.5407C6.79491 24.2846 6.98163 24.1992 7.16835 24.2206C7.45881 24.2739 7.52105 24.4873 7.48993 24.658ZM8.98371 23.7938C8.95259 23.4417 9.19118 23.367 9.31566 23.3563C9.57499 23.335 9.72022 23.495 9.74097 23.7724C9.76171 24.0605 9.57499 24.1992 9.39864 24.2099C9.21192 24.2206 9.01483 24.1672 8.98371 23.7938ZM8.61026 24.8928C8.68288 25.2769 9.0252 25.4796 9.46088 25.4476C9.92769 25.4049 10.3737 25.0635 10.3011 24.1245C10.27 23.7831 10.187 22.8868 9.29491 22.9615C8.78661 23.0042 8.43391 23.3136 8.48578 23.9005C8.5169 24.3059 8.83848 24.6367 9.32603 24.594C9.50238 24.5833 9.69947 24.5193 9.80321 24.3486L9.81358 24.3593C9.85508 24.8714 9.65798 25.0528 9.44014 25.0741C9.28454 25.0848 9.16005 25.0208 9.11856 24.8607L8.61026 24.8928ZM11.1621 23.431C11.048 23.1002 11.2555 22.9615 11.38 22.9188C11.6289 22.8335 11.8053 22.9508 11.8883 23.2176C11.9816 23.4843 11.826 23.6657 11.6601 23.7297C11.4837 23.7938 11.2762 23.7831 11.1621 23.431ZM11.0584 24.594C11.2244 24.9461 11.5978 25.0635 12.0128 24.9141C12.4588 24.754 12.8115 24.3166 12.5107 23.4203C12.4069 23.1002 12.1061 22.2466 11.2555 22.5454C10.7783 22.7161 10.5086 23.1002 10.6953 23.6657C10.8198 24.0498 11.2036 24.2846 11.6808 24.1245C11.8468 24.0712 12.0231 23.9645 12.0854 23.7618H12.0957C12.2513 24.2419 12.1061 24.4766 11.8986 24.5407C11.7534 24.594 11.6186 24.562 11.5356 24.4126L11.0584 24.594ZM8.84885 2.96626C8.13308 2.97693 7.48993 3.56377 7.51068 4.26798C7.52105 4.97219 8.1642 5.52702 8.89034 5.51635C9.24304 5.50568 9.58537 5.37764 9.81358 5.15357L10.1767 5.49501C9.8447 5.80443 9.38827 5.99649 8.89034 6.00716C7.853 6.0285 6.992 5.2496 6.97126 4.27865C6.95051 3.30769 7.78039 2.49679 8.83848 2.47545C9.3364 2.46478 9.79283 2.63549 10.1248 2.94492L9.77209 3.29702C9.5335 3.07296 9.21192 2.95559 8.84885 2.96626ZM11.0065 3.0943L10.1767 6.07118L10.5916 6.17788L11.1103 4.47071L11.5252 6.49797H11.7223L12.2513 5.21759L12.8841 7.14883L13.4858 7.57562L12.5522 4.26798L12.1787 4.04391L11.7742 5.16424L11.4111 3.30769L11.0065 3.0943ZM7.23059 6.08185L6.43184 3.0943L5.72644 3.51042L3.74512 7.67165L4.55425 7.13816L5.07292 6.06051L6.50445 5.50568L6.71192 6.23123L7.23059 6.08185ZM5.33225 5.42032L6.11026 3.80918L6.37997 4.99353L5.33225 5.42032Z" fill="black"></path>
  </g>
  <defs>
    <clipPath id="clip0_482_27158">
      <rect width="17.5" height="29.1074" fill="white"></rect>
    </clipPath>
  </defs>
</svg>
