<?xml version="1.0" encoding="UTF-8"?>
<svg xmlns="http://www.w3.org/2000/svg" width="17" height="28" viewBox="0 0 17 28" fill="none">
  <g clip-path="url(#clip0_482_28550)">
    <path fill-rule="evenodd" clip-rule="evenodd" d="M1.77653 22.5767C3.30782 25.7747 5.70761 27.8414 8.3977 27.8414C13.0031 27.8414 16.7595 21.7862 16.7595 14.3617C16.7595 11.4376 16.1763 8.72586 15.1885 6.51276L15.0315 6.17244C13.5005 2.9595 11.0952 0.881836 8.39758 0.881836C3.79236 0.881836 0.0361328 6.93707 0.0361328 14.3614C0.0361328 17.2974 0.623976 20.0187 1.61891 22.2365L1.77653 22.5767Z" fill="white"></path>
    <path fill-rule="evenodd" clip-rule="evenodd" d="M15.1883 6.51276C16.1762 8.72586 16.7593 11.4374 16.7593 14.3617C16.7593 21.786 13.003 27.8414 8.39754 27.8414C5.70757 27.8414 3.30766 25.7747 1.77637 22.5767L3.52912 20.4771C4.88567 21.4935 6.57765 22.0986 8.4091 22.0986C12.8519 22.0986 16.4754 18.541 16.4754 14.1792C16.4754 11.8214 15.416 9.69881 13.7413 8.24589L15.1882 6.51276H15.1883ZM4.02784 19.88L13.2432 8.84274C14.7419 10.1534 15.6891 12.0611 15.6891 14.1791C15.6891 18.1157 12.4188 21.3265 8.40922 21.3265C6.76657 21.3264 5.24809 20.7871 4.02784 19.88Z" fill="black"></path>
    <path fill-rule="evenodd" clip-rule="evenodd" d="M8.39758 0.881836C11.095 0.881836 13.5005 2.9595 15.0312 6.17233L13.481 8.0289C12.0938 6.92351 10.328 6.25944 8.40926 6.25944C3.96654 6.25944 0.343095 9.81702 0.343095 14.1789C0.343095 16.6227 1.48057 18.8138 3.26212 20.2683L1.61891 22.2365C0.623976 20.0187 0.0361328 17.2975 0.0361328 14.3616C0.0362462 6.93729 3.79236 0.881836 8.39758 0.881836ZM12.983 8.62586L3.76038 19.6719C2.1547 18.359 1.12938 16.383 1.12938 14.1792C1.12938 10.2427 4.39948 7.03195 8.40915 7.03195C10.1395 7.03184 11.7313 7.62992 12.983 8.62586Z" fill="#1E71B8"></path>
    <path fill-rule="evenodd" clip-rule="evenodd" d="M8.24908 21.1153C8.07218 20.8568 7.89211 20.6003 7.70886 20.3461C7.07249 19.4626 6.4716 18.7025 6.06871 18.2567V18.251H6.06168C5.98083 18.139 5.80087 18.0129 5.57419 17.9211C5.46896 17.8778 5.35919 17.8458 5.24682 17.8257C3.84332 17.679 2.79974 17.2746 2.81822 16.8448C2.82253 16.7447 2.88422 16.6508 2.9941 16.5651H2.99421C2.97925 16.5767 2.96541 16.5884 2.95226 16.6002V16.5984C3.01633 16.5498 3.06577 16.2636 3.06577 15.9196C3.06577 15.8676 3.06475 15.8168 3.06248 15.7681C3.03912 15.7347 3.02392 15.6837 3.02392 15.6266C3.02392 15.5853 3.03186 15.5469 3.04524 15.5163C3.03787 15.4898 3.03413 15.4626 3.03424 15.4353V15.4261V15.4178C3.03424 15.3494 3.0559 15.2897 3.08765 15.2587C3.10364 15.2562 3.11838 15.2486 3.12961 15.2371C3.13199 15.2367 3.13437 15.2365 3.13687 15.2365H3.13732C3.13981 15.231 3.14208 15.2253 3.14424 15.2196C3.16782 15.1865 3.1829 15.1352 3.1829 15.0781C3.1829 15.0733 3.1829 15.0689 3.18256 15.0642C3.18767 15.0291 3.19141 14.9919 3.19311 14.9532C3.19901 14.8271 3.18404 14.7145 3.15637 14.6464H3.1575C3.1532 14.6357 3.14798 14.6252 3.14197 14.6152L3.14446 14.6119L3.12916 14.5972C3.12655 14.5942 3.12371 14.5915 3.12065 14.589L3.1033 14.5727L2.83183 14.314C2.76413 14.2612 2.72138 14.1843 2.72138 14.0989C2.72138 13.9907 2.78976 13.8962 2.89057 13.8471L4.06172 12.59C4.14552 12.5269 4.2359 12.3012 4.27978 12.0238C4.28738 11.9758 4.29327 11.9287 4.29758 11.8832C4.33274 11.7466 4.5686 11.3911 4.88803 11.0032C5.07661 10.7742 5.26031 10.5753 5.40557 10.4382H5.40569C5.40784 10.4363 5.40999 10.4343 5.41181 10.4322L5.41272 10.4315H5.4126C5.44628 10.3939 5.47656 10.2984 5.49447 10.1746C5.51579 9.72759 5.8248 9.33594 6.28144 9.1074L6.28926 9.10351L6.29414 9.10117C6.47376 9.01185 6.68853 8.95985 6.91895 8.95985C7.01398 8.95985 7.10605 8.96874 7.19427 8.98518C7.47096 9.01774 7.76125 9.06007 8.05948 9.11273C8.98048 9.27539 9.79863 9.50326 10.3593 9.73536C10.6693 9.88147 10.992 10.0001 11.3236 10.0901C12.5562 10.4273 13.7146 10.34 14.2403 9.92424L14.2613 9.95191C14.3874 9.84558 14.622 10.0159 14.77 10.0159C14.77 10.0352 14.8489 10.0935 14.8489 10.1129C15.0659 10.2099 15.1645 10.656 15.2238 10.85L15.5394 11.6259C15.8154 12.2467 15.7365 13.0613 15.8944 13.7014C16.0128 14.2057 15.9143 14.9233 15.8944 15.4472C15.8944 15.5637 15.8354 15.7188 15.8155 15.8349L15.5196 16.9602C15.4997 17.0767 15.3814 17.2706 15.3814 17.4063C15.342 17.4452 15.3025 17.5422 15.2631 17.5811V17.6199C15.2432 17.6199 15.1841 17.6586 15.1841 17.6973C15.1646 17.6973 15.125 17.7167 15.1054 17.7167L15.0464 17.7749L14.6911 17.7944C14.6911 17.8029 14.6796 17.8076 14.6649 17.8104L14.654 17.8287L14.39 17.8301C13.1436 19.8 10.922 21.1164 8.3974 21.1164C8.34785 21.1165 8.29841 21.1157 8.24897 21.1149L8.24908 21.1153ZM2.79759 6.69164L2.61071 5.89868L2.61502 5.8959L3.25967 6.39732L2.7977 6.69153L2.79759 6.69164ZM3.4478 6.52576L3.87609 6.85618L4.09563 6.71641L2.59121 5.60236L2.36328 5.74747L2.76969 7.56059L2.97686 7.42871L2.85122 6.90574L3.4478 6.52576ZM3.13301 5.19027L4.4391 4.59686L4.52868 4.78574L3.98427 5.03306L4.6414 6.42087L4.42413 6.51954L3.76689 5.13172L3.22248 5.37915L3.13301 5.19027ZM5.37926 5.36415L5.44107 4.55253L5.44594 4.5512L5.9095 5.21772L5.37926 5.36415ZM6.05023 5.39515L6.35912 5.83535L6.61108 5.7658L5.51205 4.2641L5.25056 4.33632L5.08954 6.18633L5.32733 6.12067L5.36577 5.58447L6.05034 5.39526L6.05023 5.39515ZM7.0624 5.4477L7.95482 5.34093L7.98067 5.54748L6.85046 5.6828L6.63399 3.9579L6.87178 3.92945L7.0624 5.4477ZM8.75358 4.86607L9.10749 4.12989L9.11236 4.13033L9.30219 4.91529L8.75358 4.86618V4.86607ZM9.36875 5.13039L9.49621 5.64969L9.75702 5.67314L9.27905 3.88512L9.00849 3.8609L8.18286 5.53192L8.42881 5.55392L8.66048 5.06672L9.36898 5.13028L9.36875 5.13039ZM11.6341 4.33654L11.8563 4.40143L11.3491 6.06689L11.0911 5.99156L10.637 4.39409L10.6321 4.39276L10.2225 5.73813L9.9998 5.67314L10.5072 4.00778L10.7795 4.08722L11.2193 5.68058L11.2242 5.68203L11.6342 4.33665L11.6341 4.33654ZM12.1557 4.49476L13.4616 5.09006L13.3721 5.27871L12.8278 5.03062L12.1696 6.41754L11.9526 6.31844L12.6103 4.93162L12.066 4.68352L12.1557 4.49487V4.49476ZM13.2848 6.21533L13.9556 5.7358L13.9596 5.73858L13.7421 6.51642L13.2849 6.21544L13.2848 6.21533ZM13.6955 6.7363L13.5535 7.25194L13.771 7.39504L14.2257 5.60181L14.0003 5.45326L12.4581 6.53131L12.6632 6.66631L13.105 6.34766L13.6954 6.7363H13.6955ZM5.12208 24.3555L4.84528 24.269L5.31315 22.8292L4.82998 22.6787L4.89552 22.4767C5.23877 22.5582 5.38766 22.5698 5.57782 22.2636L5.78102 22.3271L5.12197 24.3557L5.12208 24.3555ZM6.94492 23.8422C6.76405 23.8205 6.51299 23.7388 6.56346 23.3333C6.59861 23.051 6.78798 22.8788 7.03926 22.9089C7.34883 22.9458 7.44828 23.1709 7.41846 23.4112C7.36664 23.8285 7.08609 23.8589 6.94503 23.842L6.94492 23.8422ZM6.87552 24.0746C7.07476 24.0985 7.30053 24.0341 7.40043 23.8815L7.40587 23.8879C7.27059 24.4266 7.08383 24.6512 6.78968 24.6158C6.5689 24.5896 6.45675 24.4421 6.46786 24.2271L6.19832 24.1947C6.17303 24.3988 6.26284 24.7753 6.7687 24.8358C7.51042 24.9244 7.6702 23.9653 7.69832 23.7401C7.74095 23.3979 7.75275 22.753 7.06602 22.6708C6.61244 22.6168 6.33111 22.9274 6.28325 23.3116C6.23075 23.7323 6.47705 24.0269 6.87552 24.0745V24.0746ZM9.60631 23.8035C9.63999 24.3349 9.51832 24.6637 9.20727 24.6826C8.89589 24.7014 8.73385 24.3901 8.70028 23.8587C8.66649 23.3271 8.78794 22.9985 9.09932 22.9794C9.41037 22.9607 9.57229 23.272 9.60631 23.8035ZM9.8957 23.7857C9.86792 23.3446 9.70644 22.703 9.0839 22.741C8.46147 22.779 8.38232 23.4353 8.41033 23.876C8.43811 24.3171 8.59959 24.9588 9.22201 24.9208C9.84467 24.8831 9.92371 24.2265 9.8957 23.7857ZM10.2485 22.6087L11.6911 22.205L11.7565 22.4291C11.6106 22.6996 11.302 23.4907 11.4175 24.4466L11.1297 24.5275C11.0369 23.946 11.2026 23.1065 11.47 22.5376L10.3212 22.8589L10.2484 22.6087H10.2485Z" fill="white"></path>
    <path fill-rule="evenodd" clip-rule="evenodd" d="M8.80741 10.5021C8.49523 10.4035 8.11706 10.3456 7.71008 10.3456C7.11815 10.3456 6.58701 10.468 6.23242 10.6601C6.24115 10.6348 6.25079 10.6097 6.26145 10.5849C6.58247 10.1759 7.50393 9.9166 8.5669 9.97771C8.84268 9.99359 9.10609 10.0297 9.35023 10.0825C10.0302 10.2578 10.6241 10.4623 11.0584 10.6629C11.3621 10.8212 11.6795 10.9529 12.0069 11.0561C12.9304 11.3492 13.8214 11.3963 14.4347 11.2302C14.434 11.2326 14.4332 11.235 14.4323 11.2373C14.1632 11.9434 12.7154 12.0704 11.209 11.5197C10.8865 11.4025 10.5752 11.2574 10.2789 11.0861C9.89896 10.8901 9.39083 10.6854 8.80707 10.4981V10.502H8.80718L8.80741 10.5021Z" fill="black"></path>
    <path fill-rule="evenodd" clip-rule="evenodd" d="M12.4327 12.4041C12.7606 12.4864 13.1488 12.5249 13.5575 12.5049C14.1514 12.4756 14.6662 12.3285 14.9937 12.1209C14.9889 12.1463 14.983 12.1716 14.9759 12.1966C14.7146 12.6168 13.8284 12.9187 12.7524 12.9107C12.4836 12.9091 12.2154 12.8874 11.9501 12.8457C11.2418 12.706 10.6146 12.5331 10.1488 12.3561C9.82199 12.215 9.48395 12.1005 9.13798 12.014C8.16732 11.7696 7.26594 11.7669 6.6748 11.9615L6.67628 11.9544C6.84082 11.2429 8.27538 11.046 9.8695 11.5162C10.2125 11.6169 10.5464 11.745 10.8679 11.8992C11.2787 12.0743 11.8193 12.2515 12.4333 12.4079L12.4327 12.4041ZM15.253 16.7781C14.6336 17.4783 13.7434 17.9306 12.745 17.9592C11.5771 17.9929 10.5214 17.4397 9.85601 16.5643C10.527 16.9118 11.324 17.1519 12.189 17.2355C13.3314 17.346 14.4031 17.1656 15.253 16.778V16.7781ZM15.4935 15.321C15.0541 16.0546 13.8599 16.5963 12.4527 16.6205C11.5048 16.6369 10.645 16.4151 10.0423 16.0491H10.0343C9.66425 15.8428 9.16304 15.6847 8.60174 15.6188C8.54424 15.6121 8.48664 15.6065 8.42892 15.6017C8.67011 15.5255 8.98785 15.4786 9.33529 15.4786C9.79919 15.4786 10.2103 15.5616 10.4561 15.6877C10.8784 15.9748 11.666 16.1684 12.5645 16.1684C13.342 16.1684 14.0363 16.0232 14.483 15.7983C14.6661 15.7275 14.8464 15.6497 15.0233 15.565C15.1829 15.489 15.3396 15.4076 15.4934 15.3209L15.4935 15.321Z" fill="black"></path>
    <path fill-rule="evenodd" clip-rule="evenodd" d="M15.4212 13.8345C15.4317 13.879 15.4386 13.9242 15.441 13.9699C15.4812 14.783 14.1694 15.4863 12.5206 15.5349C11.3142 15.5709 10.2528 15.2467 9.75469 14.7516C9.49331 14.5611 9.10233 14.4082 8.65396 14.3424C8.40154 14.3052 8.15842 14.2998 7.93945 14.3211C8.1718 14.1614 8.53932 14.0578 8.95208 14.0578C9.36484 14.0578 9.73054 14.1608 9.96288 14.3199C10.376 14.683 11.3724 14.9447 12.5317 14.9517C14.0585 14.961 15.304 14.5253 15.304 13.9819V13.9796C15.3598 13.9348 15.4164 13.8719 15.4164 13.8369L15.4212 13.8344V13.8345Z" fill="black"></path>
    <path fill-rule="evenodd" clip-rule="evenodd" d="M15.3623 12.584C15.3643 12.6086 15.3653 12.6333 15.3653 12.6581C15.3653 13.576 13.9949 14.3244 12.3145 14.3244C11.2146 14.3244 10.2478 14.0038 9.71096 13.5248C9.305 13.2211 8.44569 13.0109 7.45484 13.0109C7.26127 13.0109 7.07269 13.019 6.8916 13.0341C7.0668 12.6522 8.09121 12.5293 9.24558 12.7642C9.91949 12.9012 10.4988 13.132 10.8625 13.3828C11.3374 13.5759 11.9822 13.6949 12.6912 13.6949C13.4003 13.6949 14.0918 13.5672 14.571 13.3616H14.5744V13.3601C15.04 13.1596 15.3278 12.8855 15.3278 12.5841H15.3624L15.3623 12.584Z" fill="black"></path>
  </g>
  <defs>
    <clipPath id="clip0_482_28550">
      <rect width="16.7234" height="26.9596" fill="white" transform="translate(0.0361328 0.881836)"></rect>
    </clipPath>
  </defs>
</svg>
