<?xml version="1.0" encoding="UTF-8"?>
<svg xmlns="http://www.w3.org/2000/svg" width="24" height="24" viewBox="0 0 24 24" fill="none">
  <g clip-path="url(#clip0_446_105)">
    <path fill-rule="evenodd" clip-rule="evenodd" d="M12 24C18.6273 24 24 18.6272 24 11.9999C24 5.37274 18.6272 0 12 0C5.37294 0 0 5.37274 0 11.9999C0 18.6272 5.37274 24 12 24Z" fill="white"></path>
    <path d="M21.9351 14.009C22.0686 13.3477 22.1354 12.6746 22.1343 11.9999C22.1343 9.20158 20.9998 6.66793 19.1659 4.83405C17.3321 3.00028 14.7985 1.86589 12.0001 1.86589C11.9598 1.86589 11.9186 1.86619 11.8769 1.86668L11.8722 1.47174C11.914 1.47124 11.9565 1.47095 12.0001 1.47095C14.9076 1.47095 17.5399 2.64965 19.445 4.55483C21.3505 6.46032 22.5291 9.09259 22.5291 12C22.5287 12.7005 22.4595 13.3992 22.3225 14.0861L21.9351 14.0091V14.009Z" fill="#BA262C"></path>
    <path d="M21.5736 13.9376C21.6376 13.6196 21.6856 13.2986 21.7177 12.9757C21.7495 12.6561 21.7658 12.3304 21.7658 12C21.7658 9.30334 20.6726 6.86207 18.9054 5.09466C17.1383 3.32745 14.6968 2.23431 12.0001 2.23431L11.9344 2.23461C11.9129 2.2347 11.8912 2.2349 11.8691 2.2352L11.8679 2.13639C11.912 2.13579 11.956 2.1355 12.0002 2.1355C14.724 2.1355 17.1902 3.23962 18.9751 5.02473C20.7603 6.80975 21.8645 9.27594 21.8645 11.9999C21.8645 12.6571 21.7994 13.3125 21.6702 13.9568L21.5735 13.9375L21.5736 13.9376Z" fill="#BA262C"></path>
    <path d="M22.5851 14.1485C22.6565 13.7958 22.71 13.4399 22.7454 13.0819C22.7808 12.7271 22.7991 12.3661 22.7991 11.9999C22.7991 9.01794 21.5901 6.31821 19.6361 4.36397C17.6819 2.40982 14.9822 1.20115 12.0003 1.20115H11.9346C11.9131 1.20145 11.8913 1.20155 11.8692 1.20194L11.868 1.10313L11.9342 1.10254H12.0003C15.0095 1.10244 17.734 2.32229 19.7058 4.29424C21.6778 6.26629 22.8979 8.99084 22.8979 12C22.8977 12.728 22.8254 13.4543 22.682 14.1681L22.585 14.1486L22.5851 14.1485ZM1.88215 11.4285C1.87147 11.6188 1.86603 11.8093 1.86603 11.9999C1.86603 14.7984 3.00032 17.3319 4.83419 19.1657C6.66816 20.9998 9.20172 22.1341 12.0002 22.1341C12.246 22.1341 12.4943 22.1249 12.7448 22.1065C12.9914 22.089 13.2373 22.0623 13.4819 22.0266L13.539 22.417C13.2798 22.455 13.0241 22.4834 12.7725 22.5016C12.5155 22.52 12.2578 22.5291 12.0001 22.5289C9.09262 22.5289 6.46026 21.3502 4.55487 19.4448C2.64949 17.5396 1.47098 14.9074 1.47098 11.9999C1.47079 11.802 1.47623 11.6043 1.48711 11.4068L1.88205 11.4285H1.88215Z" fill="#BA262C"></path>
    <path d="M2.2487 11.4702C2.23911 11.6466 2.23436 11.8233 2.23446 12C2.23446 14.6967 3.3276 17.1383 5.09481 18.9054C6.86202 20.6725 9.30349 21.7657 12.0002 21.7657C12.4825 21.7657 12.9643 21.7304 13.4417 21.6603L13.4559 21.7578C13.2154 21.7934 12.9738 21.8201 12.7314 21.838C12.4881 21.8557 12.2442 21.8646 12.0002 21.8645C9.27629 21.8645 6.81009 20.7604 5.02498 18.9752C3.23977 17.1903 2.13575 14.724 2.13575 12.0002C2.13555 11.8218 2.1403 11.6435 2.14999 11.4653L2.2486 11.4704L2.2487 11.4702Z" fill="#BA262C"></path>
    <path d="M1.21936 11.3719C1.20749 11.5811 1.20146 11.7906 1.20136 12.0001C1.20136 14.982 2.41003 17.6817 4.36427 19.6359C6.31852 21.59 9.01824 22.7989 12.0002 22.7989C12.2631 22.7989 12.5254 22.7894 12.7859 22.7705C13.0464 22.7519 13.3062 22.7238 13.5646 22.6863L13.5784 22.7838C13.3175 22.8217 13.0555 22.8505 12.7926 22.8693C12.5288 22.8882 12.2645 22.8977 12.0001 22.8977C8.99085 22.8977 6.26649 21.6777 4.29434 19.7056C2.32229 17.7337 1.10245 15.0093 1.10245 12.0001C1.10245 11.8936 1.10413 11.7879 1.1069 11.683C1.10996 11.5758 1.11461 11.4701 1.12035 11.3665L1.21926 11.3718L1.21936 11.3719Z" fill="#BA262C"></path>
    <path fill-rule="evenodd" clip-rule="evenodd" d="M14.7914 22.069L14.5345 22.1365L14.5503 21.6995L14.7914 22.0689V22.069ZM14.6019 21.4198L14.3611 21.4832L14.2995 22.6136L14.5195 22.5557L14.5274 22.333L14.9002 22.2347L15.0227 22.423L15.2465 22.3641L14.6019 21.4199V21.4198ZM16.0258 20.9106L16.1983 20.8386L16.6125 21.8331L16.4143 21.9159L16.1554 21.2947L16.0708 21.6961L16.0405 21.7086L15.6959 21.4861L15.9545 22.1072L15.7563 22.1897L15.3422 21.1953L15.5147 21.1233L15.9239 21.3859L16.0257 20.9106H16.0258ZM17.2694 20.5676C17.1264 20.5699 17.0484 20.5836 16.9848 20.6202C16.9181 20.6588 16.8925 20.7135 16.9194 20.7601C17.0006 20.9012 17.3579 20.6429 17.5453 20.9686C17.6486 21.1479 17.5879 21.3214 17.4213 21.4171C17.2909 21.4922 17.2018 21.4867 17.0998 21.4817L16.9841 21.2806C17.1426 21.3079 17.2264 21.3013 17.3085 21.2543C17.3799 21.2132 17.4 21.1598 17.3686 21.1049C17.2802 20.9516 16.9325 21.2264 16.7396 20.891C16.6466 20.7293 16.697 20.5582 16.8701 20.4587C16.9532 20.4109 17.0416 20.3893 17.1648 20.3858L17.2694 20.5676ZM18.2794 19.7577L18.0289 19.9438L18.5536 20.6499L18.3812 20.7782L17.8563 20.0719L17.606 20.258L17.488 20.0995L18.1618 19.599L18.2796 19.7577H18.2794ZM19.6893 19.6623L19.2275 20.0991L18.4873 19.3163L18.9429 18.8857L19.0785 19.0292L18.7791 19.3123L18.9345 19.4764L19.22 19.2063L19.3556 19.3499L19.07 19.6197L19.2482 19.8081L19.5539 19.519L19.6894 19.6623H19.6893ZM19.557 18.5041L19.6269 18.4207C19.6791 18.3589 19.7371 18.3533 19.7988 18.4052C19.8693 18.464 19.8559 18.529 19.8178 18.5742L19.7447 18.6614L19.5571 18.5041H19.557ZM19.2676 18.5417L20.093 19.2341L20.2311 19.0695L19.8962 18.7882L19.9358 18.7409C20.0107 18.652 20.1911 18.7587 20.4269 18.8363L20.579 18.6552C20.2591 18.5452 20.1403 18.4803 20.0412 18.5124C20.061 18.4004 20.0248 18.3058 19.9341 18.2295C19.8106 18.126 19.6295 18.111 19.5157 18.2465L19.2677 18.5416L19.2676 18.5417ZM20.2701 17.5708L20.3448 17.4551C20.455 17.2839 20.6298 17.302 20.7849 17.4022C20.9176 17.4879 21.0367 17.6412 20.9197 17.8229L20.8435 17.9407L20.2702 17.5709L20.2701 17.5708ZM19.9878 17.6442L20.8928 18.2282L21.0859 17.9288C21.2724 17.6399 21.1664 17.3851 20.9061 17.2173C20.6581 17.0569 20.3646 17.0601 20.194 17.3245L19.9877 17.6442H19.9878ZM21.4736 16.4092L21.3586 16.6482L21.0361 16.353L21.4736 16.4092ZM20.8567 16.1321L20.7487 16.3564L21.569 17.1366L21.6675 16.9315L21.5034 16.7809L21.6703 16.4336L21.8932 16.4622L21.9934 16.2537L20.8566 16.1319L20.8567 16.1321ZM21.3929 14.7168L21.4502 14.5388L22.4757 14.8683L22.41 15.0727L21.7694 14.8671L22.0199 15.1918L22.01 15.2231L21.6172 15.3409L22.2578 15.5468L22.1921 15.7512L21.1664 15.4218L21.2237 15.2435L21.6888 15.1024L21.393 14.7167L21.3929 14.7168ZM1.451 9.06123L2.59815 8.96192L2.37818 9.76942L1.4511 9.06113L1.451 9.06123ZM3.2644 10.4581L2.7934 10.0947L3.11446 8.91583L3.69842 8.86489L3.89614 8.13949L0.872384 8.46045L0.657257 9.25024L3.06589 11.1876L3.2645 10.4581H3.2644ZM4.54765 7.69341C4.64349 7.54841 4.68078 7.4322 4.65991 7.34486C4.63904 7.25752 4.53479 7.14773 4.34756 7.01529L2.27096 5.54659L2.68104 4.96659L4.77771 6.44924C5.10243 6.679 5.29135 6.89453 5.34446 7.0959C5.39748 7.29748 5.3323 7.53595 5.14882 7.81181L4.54765 7.69332V7.69341ZM5.5318 3.15794L6.49339 3.79244L5.82199 4.28876L5.5318 3.15794ZM6.09113 5.37766L5.94504 4.79884L6.92552 4.07413L7.41631 4.39826L8.01946 3.95237L5.45059 2.33046L4.79374 2.81601L5.48353 5.8267L6.09103 5.37756L6.09113 5.37766ZM8.44971 3.73883L9.29242 2.04481L7.89681 0.959286L8.76622 0.764138L9.60804 1.42604L10.0898 0.466916L10.9552 0.272461L10.1482 1.84432L11.6766 3.01422L10.7876 3.21382L9.84394 2.47724L9.31032 3.54556L8.44971 3.73873V3.73883Z" fill="black"></path>
    <path d="M8.80755 18.7987C8.81091 18.7992 9.99367 18.9874 10.1393 20.5713C10.1483 20.6695 10.1574 20.7677 9.96133 20.7855C9.76549 20.8034 9.75649 20.7051 9.74748 20.6066C9.62988 19.3277 8.74524 19.1877 8.74267 19.1873C8.64544 19.1708 8.54801 19.1541 8.58055 18.9601C8.613 18.7656 8.71042 18.7821 8.80765 18.7987H8.80755ZM4.73536 16.4307C4.73883 16.4299 5.96184 16.1378 8.68144 17.3282C8.72694 17.3445 9.21585 17.5164 9.57222 17.5674C9.5644 17.5436 9.5371 17.5001 9.45827 17.4214C9.38864 17.3517 9.31871 17.2818 9.45827 17.1422C9.59784 17.0027 9.66766 17.0723 9.7374 17.1422C10.3055 17.7103 9.7275 17.9551 9.72582 17.9558L9.63087 17.9728C9.21456 17.9382 8.54534 17.6979 8.54327 17.6972L8.53169 17.6925C5.92593 16.5508 4.82151 16.8157 4.81825 16.8165C4.72191 16.8376 4.62548 16.8586 4.58374 16.6659C4.54219 16.4729 4.63863 16.4519 4.73507 16.4306L4.73536 16.4307ZM12.0754 15.3905C12.0748 15.393 11.8379 16.2892 11.6103 16.6746L11.5996 16.6909C11.5986 16.6925 11.2064 17.2251 11.6592 16.9774L11.6832 16.9659C11.6851 16.9651 12.329 16.7106 12.7497 16.6583C12.8477 16.6459 12.9453 16.6337 12.9694 16.8297C12.9933 17.0255 12.8953 17.0376 12.7975 17.05C12.4537 17.0931 11.9078 17.3021 11.8324 17.331C9.9182 18.3718 11.1703 16.612 11.275 16.4675C11.4741 16.125 11.694 15.2926 11.6946 15.2904C11.72 15.1949 11.7454 15.0995 11.9359 15.1495C12.1263 15.1996 12.101 15.295 12.0755 15.3906L12.0754 15.3905ZM16.1965 15.8832C16.1949 15.8832 15.7225 15.919 15.7188 16.3393C15.7206 16.3693 15.7499 16.6893 16.1793 16.6893L16.234 16.6978C16.235 16.6981 16.5206 16.7917 16.7191 16.2589C16.7535 16.1664 16.7877 16.074 16.9722 16.1424C17.1567 16.211 17.1222 16.3038 17.0876 16.3963C16.8046 17.1573 16.2946 17.1113 16.1586 17.084C15.3457 17.0719 15.3237 16.3529 15.3237 16.3509V16.344C15.3237 15.551 16.1601 15.4884 16.1622 15.4884C16.2605 15.4797 16.3589 15.4706 16.376 15.6682C16.3928 15.8657 16.2945 15.8745 16.1964 15.8832H16.1965ZM12.7178 20.9073C12.7196 20.9013 13.3723 18.8425 14.5529 17.5441L14.5614 17.5356C14.5641 17.5326 15.6034 16.4959 15.6034 18.3348C15.6034 18.4336 15.6034 18.5322 15.406 18.5322C15.2086 18.5322 15.2086 18.4334 15.2086 18.3348C15.2086 17.511 14.8916 17.7664 14.8423 17.8116C13.7206 19.0471 13.0945 21.0216 13.0924 21.0275C13.0624 21.1213 13.0323 21.2157 12.8448 21.1553C12.6574 21.0952 12.6875 21.0014 12.7178 20.9073Z" fill="black"></path>
    <path d="M15.6034 18.3349V19.4208C15.6034 19.5196 15.6034 19.6182 15.406 19.6182C15.2086 19.6182 15.2086 19.5194 15.2086 19.4208V18.3349C15.2086 18.2361 15.2086 18.1375 15.406 18.1375C15.6034 18.1375 15.6034 18.2361 15.6034 18.3349Z" fill="black"></path>
    <path d="M15.6034 19.4145C15.6034 19.415 15.6085 19.5641 15.6197 19.5539L15.6242 19.5501C15.6252 19.5493 15.9424 19.288 16.0656 18.1009L16.0696 18.0771C16.0704 18.0736 16.3395 16.8787 17.2647 18.0232C17.3253 18.0853 17.8598 18.6192 17.889 18.1637C17.8254 17.9731 17.528 17.0825 17.4666 16.91C17.4047 16.8023 17.0362 16.0854 18.1835 16.0642H18.1974C18.1995 16.0645 18.914 16.0983 19.6687 16.3726C19.7615 16.4064 19.8543 16.4401 19.7872 16.6252C19.7201 16.8103 19.6273 16.7768 19.5344 16.743C18.8746 16.5032 18.242 16.4628 18.1806 16.4593C17.6535 16.4719 17.8121 16.718 17.8126 16.7186L17.8278 16.7524C17.8837 16.9009 18.2733 18.0715 18.2745 18.0749L18.2852 18.1406C18.261 19.6442 16.9786 18.2944 16.9751 18.2904L16.9633 18.2774C16.5805 17.801 16.4714 18.1007 16.4554 18.1567C16.3138 19.4903 15.8797 19.8499 15.8784 19.8512L15.8831 19.8472C15.2362 20.4295 15.2084 19.4301 15.2081 19.4274C15.2049 19.3286 15.2015 19.23 15.399 19.2239C15.5968 19.2175 15.6 19.3162 15.6033 19.4147L15.6034 19.4145ZM7.40949 13.1682H7.98534C8.08415 13.1682 8.18286 13.1682 8.18286 13.3656C8.18286 13.5631 8.08405 13.5631 7.98534 13.5631H7.40949C7.31088 13.5631 7.21207 13.5631 7.21207 13.3656C7.21207 13.1682 7.31088 13.1682 7.40949 13.1682Z" fill="black"></path>
    <path d="M7.83787 13.4728C7.83688 13.4744 7.48674 14.0154 7.36311 14.1513C7.32255 14.213 7.13552 14.5406 7.4992 14.8589C7.61325 14.913 7.92085 15.0987 8.10829 15.5842C8.13806 15.6126 8.23657 15.686 8.50105 15.7388L8.55892 15.7604C8.55971 15.7609 8.8509 15.9255 9.31864 15.7201C9.3851 15.6863 9.65156 15.5633 10.186 15.4593L10.2353 15.4554C10.2365 15.4556 10.6523 15.49 10.7197 15.1089L10.732 15.0681C10.733 15.0658 11.0573 14.2811 11.2746 14.0276L11.3009 14.0016C11.3015 14.0011 11.5548 13.8099 11.3947 12.8919C11.3859 12.8543 11.3295 12.6376 11.1818 12.5128L11.1835 12.5138C11.0912 12.4407 10.7986 12.1337 11.1834 11.3993C11.2292 11.3118 11.275 11.2244 11.45 11.3154C11.6251 11.4064 11.5792 11.4938 11.5335 11.5812C11.2583 12.1064 11.409 12.1923 11.4094 12.1925L11.4363 12.2118C11.7022 12.4368 11.7814 12.8132 11.7815 12.8141L11.7831 12.8219C11.9602 13.8369 11.6441 14.2172 11.565 14.2945C11.4041 14.4929 11.1529 15.0825 11.1044 15.198C10.9783 15.8381 10.3641 15.8551 10.2348 15.8517C9.69449 15.9589 9.49974 16.0699 9.49925 16.0704L9.47996 16.0804C8.93319 16.3214 8.51916 16.1745 8.40076 16.1214C7.93065 16.0212 7.77536 15.8 7.77496 15.7992L7.75093 15.7531C7.58624 15.3001 7.33195 15.2154 7.33136 15.2152L7.26736 15.1797C6.54701 14.5829 7.05253 13.9089 7.05392 13.9068L7.07241 13.8845C7.15797 13.7988 7.50662 13.2602 7.50771 13.2586C7.56142 13.1758 7.61522 13.093 7.7803 13.2002C7.94538 13.3074 7.89168 13.3901 7.83787 13.4727V13.4728Z" fill="black"></path>
    <path d="M11.2427 11.6495L10.5409 11.139L10.6641 11.9205C10.6796 12.0178 10.6949 12.1154 10.5007 12.1455C10.3062 12.1754 10.2909 12.0781 10.2756 11.9806L10.0782 10.73L10.3882 10.5403L11.4743 11.3301C11.5541 11.388 11.6338 11.4462 11.5183 11.6057C11.4024 11.7656 11.3225 11.7075 11.2427 11.6494V11.6495Z" fill="black"></path>
    <path d="M10.591 12.1059C10.5901 12.1063 10.2595 12.368 10.2208 12.6515L10.2072 12.7514L10.1191 12.7988C10.1178 12.7993 9.69566 13.0281 9.16966 13.1158C9.07234 13.1318 8.97491 13.1482 8.94247 12.9539C8.91013 12.7594 9.00735 12.7431 9.10478 12.7268C9.4383 12.6714 9.72168 12.5524 9.85342 12.4905C9.96361 12.1006 10.3477 11.7964 10.3489 11.7955C10.4266 11.7346 10.5044 11.674 10.6256 11.829C10.7467 11.9844 10.6688 12.045 10.5911 12.1059H10.591ZM7.67703 10.5058C7.67535 10.5085 7.1081 11.4487 7.04925 11.5962L7.02156 11.6448C7.02106 11.6453 6.86033 11.85 7.06725 11.8887L7.11898 11.9059C7.11898 11.9059 7.20879 11.9508 7.36002 11.9508C7.45883 11.9508 7.55745 11.9508 7.55745 12.1483C7.55745 12.3458 7.45864 12.3457 7.36002 12.3457C7.22659 12.3457 7.09445 12.3204 6.97052 12.271C6.24324 12.1204 6.61098 11.5418 6.69545 11.4227C6.80415 11.1889 7.33747 10.3048 7.33915 10.3022C7.39009 10.2177 7.44093 10.1332 7.60987 10.2349C7.7788 10.3366 7.72806 10.4213 7.67713 10.5058H7.67703ZM8.49461 9.69524C8.49382 9.69603 8.25367 9.96615 8.37335 9.97594C8.49253 9.96417 9.2028 9.91818 9.2028 10.5026V10.4865C9.2029 10.4886 9.28094 11.2233 8.48047 11.0231L8.41489 10.9937C8.41489 10.9937 8.35307 10.9487 8.38017 11.4469C8.38551 11.5454 8.39095 11.644 8.19353 11.6541C7.99601 11.6641 7.99057 11.5656 7.98523 11.4671C7.92351 10.334 8.45693 10.5629 8.6045 10.6468C8.82694 10.6896 8.80795 10.5194 8.80795 10.519V10.5028C8.80795 10.3174 8.4051 10.3694 8.40411 10.3695L8.38027 10.3711C7.36398 10.3711 8.19768 9.43719 8.20006 9.43452C8.26563 9.36063 8.33101 9.28684 8.47839 9.41721C8.62566 9.54757 8.56009 9.62145 8.49471 9.69534L8.49461 9.69524Z" fill="black"></path>
    <path d="M8.38017 11.457V12.2798C8.38017 12.3786 8.38017 12.4772 8.18275 12.4772C7.98533 12.4772 7.98523 12.3784 7.98523 12.2798V11.457C7.98523 11.3582 7.98523 11.2595 8.18275 11.2595C8.38027 11.2595 8.38017 11.3583 8.38017 11.457Z" fill="black"></path>
    <path d="M8.33092 12.1501C8.3332 12.1527 9.13169 13.0576 7.94389 13.0037C7.84528 12.9993 7.74676 12.9947 7.75517 12.7973C7.76368 12.5999 7.86219 12.6041 7.9608 12.6086C8.22093 12.6203 8.03508 12.4096 8.03459 12.4091C7.96951 12.3349 7.90443 12.2608 8.05239 12.1312C8.20066 12.0017 8.26584 12.076 8.33092 12.1501Z" fill="black"></path>
    <path d="M7.92618 13.0014L7.44914 12.9357C7.35142 12.9223 7.2535 12.9086 7.27981 12.7136C7.30602 12.5184 7.40384 12.5319 7.50156 12.5454L7.9788 12.6114C8.07652 12.6248 8.17434 12.6382 8.14813 12.8334C8.12182 13.0286 8.024 13.0151 7.92618 13.0015V13.0014ZM7.34825 9.51892C7.34736 9.51793 7.01641 9.17076 6.96943 9.07699C6.95647 9.05118 6.9452 9.02457 6.9357 8.99737C6.83966 8.85603 6.48082 8.23745 7.64181 8.34902L7.6795 8.35594C7.6883 8.35861 10.7205 9.22496 15.4458 13.901L15.4443 13.8992C15.4463 13.9013 16.1311 14.5609 15.198 14.8382L15.1827 14.842C15.1815 14.8423 14.7876 14.9167 14.822 15.3296C14.9258 15.4787 15.1119 15.8756 14.3357 16.0746L14.3194 16.0776C14.3178 16.0779 13.816 16.1567 13.597 16.259L13.5477 16.2753C13.5459 16.2756 12.9701 16.3876 13.0366 15.3931L13.0466 15.3445C13.0469 15.3435 13.1783 14.9488 12.9788 14.6865C12.9201 14.6096 12.8302 14.5906 12.7506 14.5738C12.4802 14.5169 12.2617 14.4708 12.3126 13.8913C12.3129 13.8737 12.3158 13.6505 12.393 13.4573C12.4298 13.3656 12.4664 13.2738 12.6493 13.3471C12.832 13.4205 12.7954 13.5122 12.7589 13.6037C12.7078 13.7317 12.7075 13.8921 12.7075 13.8926L12.706 13.9112C12.6826 14.1573 12.7488 14.1709 12.8308 14.1882C12.9786 14.2193 13.1449 14.2547 13.2921 14.4475C13.5758 14.8198 13.465 15.3131 13.4304 15.4382C13.407 15.8107 13.4521 15.8741 13.4717 15.8846C13.7317 15.7766 14.1699 15.7027 14.244 15.6906C14.5552 15.6099 14.4895 15.5413 14.4893 15.5411L14.4378 15.4354C14.3182 14.6583 15.005 14.4782 15.0934 14.4585C15.3687 14.3729 15.1709 14.1822 15.1702 14.1817L15.1686 14.1801C10.7077 9.76629 7.82212 8.81251 7.58375 8.73882C7.20355 8.70509 7.27061 8.78778 7.27071 8.78808L7.31086 8.90687C7.31086 8.90687 7.31086 8.8771 7.32283 8.90123C7.34172 8.93891 7.63439 9.2482 7.63519 9.24899C7.70284 9.321 7.77049 9.39281 7.62708 9.52772C7.48356 9.66263 7.4159 9.59082 7.34835 9.51902L7.34825 9.51892ZM8.47255 7.82065C8.47463 7.82065 9.16966 7.82104 10.8111 6.7547L10.8049 6.75856C10.8105 6.75461 12.7436 5.39006 14.2857 5.3772H14.2926C14.2957 5.3772 15.3862 5.40311 16.1143 5.90636C16.1955 5.96244 16.2767 6.01862 16.1649 6.18054C16.0531 6.34245 15.9719 6.28637 15.8907 6.23029C15.2764 5.80577 14.3305 5.77362 14.2838 5.77214C12.8648 5.78688 11.037 7.07715 11.0316 7.08091L11.0255 7.08476C9.28568 8.2151 8.47947 8.21549 8.4772 8.21549C8.37859 8.21678 8.27978 8.21806 8.2775 8.02054C8.27523 7.82322 8.37394 7.82193 8.47265 7.82065H8.47255ZM17.9523 8.23715C17.9523 8.23508 17.931 7.53164 16.9896 6.88507C16.9081 6.82918 16.8269 6.7733 16.9381 6.6105C17.0493 6.44769 17.1305 6.50367 17.212 6.55956C18.319 7.31987 18.3472 8.21599 18.3472 8.21866C18.352 8.31717 18.3567 8.41578 18.1593 8.42508C17.9619 8.43438 17.957 8.33567 17.9523 8.23715Z" fill="black"></path>
    <path d="M16.9033 6.72234V5.16739C16.9033 5.06858 16.9033 4.96997 17.1007 4.96997C17.2981 4.96997 17.2981 5.06878 17.2981 5.16739V6.72234C17.2981 6.82115 17.2981 6.91977 17.1007 6.91977C16.9033 6.91977 16.9033 6.82096 16.9033 6.72234Z" fill="black"></path>
    <path d="M17.14 4.97461C17.147 4.97599 19.581 5.43691 19.581 8.56105V8.55878C19.5813 8.57074 19.6851 12.7199 15.8049 12.7199H15.8194C15.8144 12.7202 14.039 12.88 13.1555 10.8232L13.1492 10.8054C13.1479 10.8014 12.6984 9.37745 11.9446 9.38783L11.9006 9.38308C11.9 9.38308 11.6825 9.33007 11.3629 9.5899C11.2863 9.65212 11.2097 9.71433 11.0855 9.56171C10.9614 9.4091 11.038 9.34669 11.1146 9.28447C11.5147 8.95936 11.8627 8.97983 11.9581 8.99318C12.9378 8.99843 13.4639 10.5037 13.5191 10.67C14.2898 12.4605 15.7859 12.3252 15.7901 12.3249H15.8048C19.2798 12.3249 19.1862 8.57411 19.1859 8.56333V8.56105C19.1859 5.76182 17.0672 5.36144 17.061 5.36025C16.9643 5.34047 16.8679 5.32059 16.9072 5.12782C16.9466 4.93504 17.0431 4.95492 17.1398 4.9748L17.14 4.97461Z" fill="black"></path>
  </g>
  <defs>
    <clipPath id="clip0_446_105">
      <rect width="24" height="24" fill="white"></rect>
    </clipPath>
  </defs>
</svg>
