<?xml version="1.0" encoding="UTF-8"?>
<svg xmlns="http://www.w3.org/2000/svg" width="24" height="24" viewBox="0 0 24 24" fill="none">
  <g clip-path="url(#clip0_453_122)">
    <path d="M18.2495 0H2.5V20.4501C2.5 22.4096 3.9557 24 5.75045 24H18.2506C20.0454 24 21.5011 22.4096 21.5011 20.4501V0H18.2506H18.2495Z" fill="#112548"></path>
    <path d="M5.75045 23.4465C4.26481 23.4465 3.05511 22.1014 3.05511 20.4502V0.553711H20.9449V20.4513C20.9449 22.1025 19.7352 23.4476 18.2496 23.4476H5.75045V23.4465Z" fill="white"></path>
    <path fill-rule="evenodd" clip-rule="evenodd" d="M16.4548 2.95996H5.88309V18.9418C5.88309 19.8581 6.62538 20.5984 7.54414 20.5984H16.4537C17.3725 20.5984 18.1148 19.8581 18.1148 18.9418V2.95996H16.4537H16.4548Z" fill="#112548"></path>
    <path fill-rule="evenodd" clip-rule="evenodd" d="M7.54522 20.1568C6.87245 20.1568 6.32697 19.6096 6.32697 18.9419V3.40161H17.6741V18.9419C17.6741 19.6096 17.1286 20.1568 16.4559 20.1568H7.54522Z" fill="white"></path>
    <path fill-rule="evenodd" clip-rule="evenodd" d="M5.88309 7.82495H18.1159V8.26868H5.88309V7.82495Z" fill="#112548"></path>
    <path fill-rule="evenodd" clip-rule="evenodd" d="M5.66809 14.8938V14.8842C5.66809 14.6997 5.63493 14.5728 5.57396 14.4672C5.5376 14.3765 5.50765 14.3072 5.50765 14.2709C5.50765 14.1834 5.57717 14.1525 5.65953 14.1226V14.0352H4.89585V14.1141C5.17822 14.2293 5.56327 14.5045 5.56327 14.8757C5.56327 14.9632 5.54509 15.0421 5.51193 15.1082C5.49375 15.1381 5.47235 15.169 5.45096 15.1989C5.27234 15.4101 4.90548 15.4773 4.5108 15.4773C3.95569 15.4773 3.4562 15.3504 3.4562 14.8757C3.4562 14.8608 3.45941 14.848 3.45941 14.8362C3.48401 14.4853 3.85087 14.225 4.12362 14.1141V14.0352H3.35994V14.1226C3.44229 14.1525 3.51182 14.1834 3.51182 14.2709C3.51182 14.304 3.48722 14.3616 3.46048 14.4341C3.38775 14.5429 3.35138 14.673 3.35138 14.8842V14.8992C3.35138 14.9866 3.36101 15.0688 3.37598 15.1466C3.48508 15.7365 3.96104 16.0533 4.49797 16.0533H4.52578C5.06271 16.0533 5.53867 15.7354 5.64777 15.1466C5.66274 15.0677 5.67237 14.9866 5.67237 14.8992V14.8928L5.66809 14.8938Z" fill="#112548"></path>
    <path fill-rule="evenodd" clip-rule="evenodd" d="M5.60712 11.6736V13.5574H5.52476C5.50016 13.3728 5.49161 13.2758 5.2916 13.2758H3.70862C3.49363 13.2758 3.48722 13.4091 3.47866 13.5574H3.3963V12.4203H3.47866C3.48829 12.6475 3.49042 12.7467 3.77921 12.7467H5.32261C5.47984 12.7467 5.50444 12.6774 5.50444 12.4566C5.50444 11.967 5.23491 11.7824 4.86483 11.6342V11.5371L5.60712 11.6736Z" fill="#112548"></path>
    <path fill-rule="evenodd" clip-rule="evenodd" d="M3.47973 9.05811C3.50754 9.23624 3.5439 9.31197 3.75889 9.31197H4.79852C4.99211 9.31197 5.28411 9.35784 5.42957 9.49651C5.60819 9.65651 5.66915 9.94131 5.66915 10.1376C5.66915 10.2794 5.65097 10.5877 5.46273 10.8C5.33866 10.9386 5.22314 11.024 4.87125 11.024H3.78028C3.50754 11.024 3.49791 11.1082 3.47973 11.2896H3.39737V10.1888H3.47973C3.48935 10.4032 3.49149 10.5066 3.78028 10.5066H4.87125C5.05629 10.5066 5.50765 10.5066 5.50765 10.0352C5.50765 9.46344 5.01029 9.45491 4.79852 9.45491H3.80381C3.6038 9.45491 3.49149 9.49757 3.47973 9.77491H3.39737V9.05811H3.47973Z" fill="#112548"></path>
    <path fill-rule="evenodd" clip-rule="evenodd" d="M4.4862 7.95723V7.86016C4.49583 7.64896 4.54396 7.36096 5.01029 7.36096C5.21031 7.36096 5.50123 7.40363 5.50123 7.75989C5.50123 7.89856 5.44989 7.95616 5.30122 7.95616H4.4862V7.95723ZM3.65514 7.95723C3.5792 7.95403 3.4947 7.95083 3.4947 7.78443C3.4947 7.52096 3.68829 7.44843 3.91612 7.44843C4.24982 7.44843 4.38887 7.52096 4.38887 7.95616H3.65514V7.95723ZM5.60712 8.76469V7.71509C5.59215 7.02923 5.27341 6.79883 4.99746 6.79883C4.62418 6.79883 4.46053 7.14016 4.41561 7.41536H4.40919C4.36641 7.27883 4.28191 6.91083 3.92146 6.91083C3.40913 6.91083 3.39737 7.57643 3.39737 7.75776V8.76469H3.47973C3.48935 8.61643 3.4947 8.47776 3.70969 8.47776H5.29266C5.49267 8.47776 5.50444 8.58336 5.52583 8.76469H5.60819H5.60712Z" fill="#112548"></path>
    <path fill-rule="evenodd" clip-rule="evenodd" d="M18.395 8.72529V6.84155H18.4774C18.502 7.02609 18.5105 7.12315 18.7105 7.12315H20.2935C20.5085 7.12315 20.5149 6.98982 20.5235 6.84155H20.6058V7.97862H20.5235C20.5139 7.75142 20.5117 7.65222 20.2229 7.65222H18.6795C18.5244 7.65222 18.4977 7.72155 18.4977 7.94235C18.4977 8.43195 18.7672 8.61649 19.1373 8.76475V8.86182L18.395 8.72529Z" fill="#112548"></path>
    <path fill-rule="evenodd" clip-rule="evenodd" d="M18.395 10.3104V9.17017H18.4774C18.4956 9.3451 18.5073 9.47203 18.7105 9.47203H20.2935C20.5085 9.47203 20.5149 9.31737 20.5235 9.17017H20.6058V10.3104H20.5235C20.5171 10.1558 20.5139 9.99897 20.2935 9.99897H18.7105C18.5009 9.99897 18.4924 10.1291 18.4774 10.3104H18.395Z" fill="#112548"></path>
    <path fill-rule="evenodd" clip-rule="evenodd" d="M18.395 13.5691V12.4864H18.4774C18.4988 12.6795 18.5073 12.7766 18.7234 12.7766H20.3695V12.7702L18.3961 11.9542V11.8667L20.3213 11.0539V11.0443H18.8025C18.5747 11.0443 18.4966 11.1051 18.4784 11.3739H18.3961V10.6123H18.4784C18.503 10.8662 18.5512 10.9088 18.7426 10.9088H20.2946C20.4647 10.9088 20.5096 10.8512 20.5246 10.6187H20.6069V11.4443L19.0635 12.0939L20.6069 12.7467V13.5691H20.5246C20.5128 13.3846 20.5064 13.2822 20.224 13.2822H18.7811C18.517 13.2822 18.5084 13.3515 18.4784 13.5691H18.3961H18.395Z" fill="#112548"></path>
    <path fill-rule="evenodd" clip-rule="evenodd" d="M19.1683 14.385L19.963 14.6901L19.1683 15.0197V14.385ZM18.4774 16.0117C18.471 15.857 18.5833 15.8026 18.9319 15.6575L20.6508 14.9322V14.8383L18.8592 14.1162C18.6164 14.0191 18.5041 13.9743 18.4774 13.7983H18.395V14.4575H18.4774C18.487 14.3487 18.4956 14.1919 18.6196 14.1919C18.671 14.1919 18.8047 14.2431 19.041 14.3338V15.0687C18.9352 15.1146 18.6956 15.217 18.6047 15.217C18.4988 15.217 18.4956 15.1594 18.4774 14.9567H18.395V16.0149H18.4774V16.0117Z" fill="#112548"></path>
    <path fill-rule="evenodd" clip-rule="evenodd" d="M10.416 23.0326H9.30894V22.9633C9.6512 22.9665 9.66083 22.8513 9.66083 22.67V21.5457C9.66083 21.4732 9.66083 21.343 9.54532 21.343C9.50253 21.343 9.40306 21.3793 9.30252 21.4156V21.3398L10.0448 21.022H10.0961V22.6881C10.0961 22.8844 10.124 22.9633 10.4149 22.9633V23.0326H10.416Z" fill="#112548"></path>
    <path fill-rule="evenodd" clip-rule="evenodd" d="M11.0192 21.5147C11.0192 21.2853 11.0192 21.1008 11.1978 21.1008C11.3764 21.1008 11.4256 21.2822 11.4256 21.8571C11.4256 21.9264 11.4107 22.0747 11.401 22.1227C11.3978 22.144 11.3165 22.159 11.2705 22.159C11.0673 22.159 11.0192 21.9381 11.0192 21.5147ZM10.586 23.072C11.4716 22.9845 11.893 22.4224 11.893 21.8901C11.893 21.1883 11.4813 21.0229 11.2139 21.0229C10.6834 21.0229 10.571 21.519 10.571 21.679C10.571 22.1814 10.9015 22.2923 11.1048 22.2923C11.1593 22.2923 11.2021 22.2891 11.247 22.2806C11.293 22.2742 11.3315 22.2592 11.3775 22.2347C11.2256 22.7883 10.8802 22.9387 10.586 22.9963V23.072Z" fill="#112548"></path>
    <path fill-rule="evenodd" clip-rule="evenodd" d="M13.0075 22.3852C13.0075 22.5761 12.9829 22.7628 12.968 22.8268C12.953 22.8844 12.9198 22.99 12.8107 22.99C12.6556 22.99 12.6075 22.8022 12.6075 22.3852V21.7142C12.6075 21.4721 12.6075 21.103 12.8043 21.103C12.9466 21.103 13.0075 21.2726 13.0075 21.7142V22.3852ZM12.1401 22.062C12.1401 22.6518 12.4278 23.0721 12.8075 23.0721C13.2193 23.0721 13.4749 22.5878 13.4749 22.062C13.4749 21.3601 13.1198 21.022 12.8107 21.022C12.5016 21.022 12.1412 21.3238 12.1412 22.062H12.1401Z" fill="#112548"></path>
    <path fill-rule="evenodd" clip-rule="evenodd" d="M14.6665 23.0326H13.5595V22.9633C13.9017 22.9665 13.9113 22.8513 13.9113 22.67V21.5457C13.9113 21.4732 13.9113 21.343 13.7958 21.343C13.7531 21.343 13.6536 21.3793 13.553 21.4156V21.3398L14.2953 21.022H14.3467V22.6881C14.3467 22.8844 14.3745 22.9633 14.6654 22.9633V23.0326H14.6665Z" fill="#112548"></path>
    <path fill-rule="evenodd" clip-rule="evenodd" d="M5.24668 2.07139L5.5376 1.31833L5.85313 2.07139H5.24668ZM6.80184 2.72739C6.64996 2.73379 6.60183 2.62713 6.46279 2.29539L5.76863 0.665527H5.68093L4.99319 2.36473C4.89906 2.59726 4.85628 2.70286 4.68729 2.72739V2.80313H5.31834V2.72739C5.21245 2.72099 5.06378 2.71246 5.06378 2.59406C5.06378 2.54286 5.11512 2.41593 5.20068 2.19193H5.90126C5.94725 2.29219 6.04351 2.52153 6.04351 2.60579C6.04351 2.70819 5.98896 2.71139 5.79537 2.72633V2.80206H6.80505V2.72633L6.80184 2.72739Z" fill="#102547"></path>
    <path fill-rule="evenodd" clip-rule="evenodd" d="M8.86934 2.80328H7.07138V2.72754C7.24679 2.70301 7.33771 2.69448 7.33771 2.50674V1.00381C7.33771 0.801142 7.21043 0.794742 7.07138 0.783009V0.707275H8.157V0.783009C7.93881 0.794742 7.84469 0.797942 7.84469 1.06994V2.53341C7.84469 2.68168 7.911 2.70834 8.12064 2.70834C8.59018 2.70834 8.76345 2.44808 8.90571 2.10034H8.99662L8.86934 2.80221V2.80328Z" fill="#102547"></path>
    <path fill-rule="evenodd" clip-rule="evenodd" d="M10.2577 2.80328H9.16882V2.72754C9.33568 2.71261 9.45654 2.69768 9.45654 2.50674V1.00381C9.45654 0.801142 9.31108 0.794742 9.16882 0.783009V0.707275H10.2577V0.783009C10.1122 0.792609 9.96031 0.794742 9.96031 1.00381V2.50674C9.96031 2.70301 10.0876 2.71581 10.2577 2.72754V2.80328Z" fill="#102547"></path>
    <path fill-rule="evenodd" clip-rule="evenodd" d="M11.0374 2.07139L11.3283 1.31833L11.6438 2.07139H11.0374ZM12.5926 2.72739C12.4407 2.73379 12.3925 2.62713 12.2535 2.29539L11.5593 0.665527H11.4716L10.7839 2.36473C10.6898 2.59726 10.6449 2.70286 10.478 2.72739V2.80313H11.109V2.72739C11.0032 2.72099 10.8545 2.71246 10.8545 2.59406C10.8545 2.54286 10.9058 2.41593 10.9914 2.19193H11.692C11.7348 2.29219 11.8342 2.52153 11.8342 2.60579C11.8342 2.70819 11.7797 2.71139 11.5861 2.72633V2.80206H12.5958V2.72633L12.5926 2.72739Z" fill="#102547"></path>
    <path fill-rule="evenodd" clip-rule="evenodd" d="M12.7412 2.72754C12.9295 2.70301 13.014 2.68168 13.014 2.48008V1.00808C12.8407 0.796875 12.7893 0.784075 12.7498 0.784075V0.708342H13.4076L14.4836 2.03208H14.4932V1.09128C14.4932 0.903542 14.4536 0.804342 14.2023 0.783009V0.707275H14.8718V0.783009C14.6472 0.812875 14.629 0.883275 14.629 1.03368V2.85981H14.5413L13.1562 1.17874H13.1498V2.41821C13.1498 2.64221 13.2161 2.70194 13.4471 2.72648V2.80221H12.7412V2.72648V2.72754Z" fill="#102547"></path>
    <path fill-rule="evenodd" clip-rule="evenodd" d="M16.8912 2.8031H15.0868V2.7551L16.2751 0.816962C15.9257 0.826917 15.7164 0.842206 15.6473 0.862829C15.4141 0.935362 15.3264 1.18923 15.2718 1.3471H15.1841L15.2483 0.709229H16.8794V0.757228L15.6997 2.69536C16.3938 2.70496 16.7307 2.7103 16.8912 2.0575H16.9735L16.8912 2.80416V2.8031Z" fill="#102547"></path>
    <path fill-rule="evenodd" clip-rule="evenodd" d="M17.7287 2.07139L18.0196 1.31833L18.3351 2.07139H17.7287ZM19.2838 2.72739C19.1352 2.73379 19.0838 2.62713 18.9448 2.29539L18.2506 0.665527H18.1661L17.4752 2.36473C17.3811 2.59726 17.3383 2.70286 17.1693 2.72739V2.80313H17.8025V2.72739C17.6966 2.72099 17.5447 2.71246 17.5447 2.59406C17.5447 2.54286 17.596 2.41593 17.6816 2.19193H18.3822C18.4282 2.29219 18.5244 2.52153 18.5244 2.60579C18.5244 2.70819 18.4699 2.71139 18.2763 2.72633V2.80206H19.286V2.72633L19.2838 2.72739Z" fill="#102547"></path>
    <path d="M9.66403 4.849C9.61269 4.849 9.57311 4.89167 9.57311 4.93967C9.57311 4.94927 9.57632 4.9578 9.57953 4.9674L9.25545 5.10927L9.24582 5.10287L9.24903 4.65487C9.29716 4.65487 9.33353 4.6154 9.33353 4.5674C9.33353 4.5162 9.29395 4.47674 9.24582 4.47674C9.19448 4.47674 9.15491 4.5162 9.15491 4.5674C9.15491 4.58874 9.16454 4.60687 9.17309 4.6218L8.83938 4.8906L8.64579 4.35194C8.67895 4.337 8.70676 4.30394 8.70676 4.26767C8.70676 4.21967 8.66397 4.177 8.61584 4.177C8.56771 4.177 8.52814 4.21967 8.52814 4.26767C8.52814 4.30394 8.55274 4.337 8.58589 4.35194L8.3923 4.8906L8.0618 4.625C8.07356 4.61007 8.08319 4.58874 8.08319 4.5674C8.08319 4.5162 8.04041 4.47674 7.99228 4.47674C7.94415 4.47674 7.90136 4.5162 7.90136 4.5674C7.90136 4.61327 7.93773 4.65167 7.98372 4.65487L7.98693 5.10287L7.9773 5.10927L7.65322 4.9674C7.65643 4.9578 7.65964 4.94927 7.65964 4.93967C7.65964 4.89167 7.62006 4.849 7.56872 4.849C7.52059 4.849 7.48102 4.89167 7.48102 4.93967C7.48102 4.98767 7.52059 5.02714 7.56872 5.02714C7.5837 5.02714 7.59332 5.02394 7.60509 5.02074L7.76873 5.4474C7.83826 5.63514 8.19015 5.777 8.61798 5.7802C9.04581 5.777 9.39663 5.63514 9.46723 5.4474L9.63087 5.02074C9.6405 5.02714 9.65226 5.02714 9.66724 5.02714C9.71537 5.02714 9.75494 4.98767 9.75494 4.93967C9.75494 4.89167 9.71537 4.849 9.66724 4.849H9.66403Z" fill="#102547"></path>
    <path d="M8.61478 5.67144C8.20834 5.67144 7.92383 5.55091 7.92383 5.44424C7.92383 5.33757 8.20834 5.21704 8.61478 5.21704C9.02122 5.21704 9.30572 5.33544 9.30572 5.44424C9.30572 5.55304 9.02336 5.67144 8.61478 5.67144Z" fill="white"></path>
    <path d="M16.4334 4.849C16.3821 4.849 16.3425 4.89167 16.3425 4.93967C16.3425 4.94927 16.3457 4.9578 16.3489 4.9674L16.0248 5.10927L16.0152 5.10287L16.0184 4.65487C16.0665 4.65487 16.1029 4.6154 16.1029 4.5674C16.1029 4.5162 16.0633 4.47674 16.0152 4.47674C15.9639 4.47674 15.9243 4.5162 15.9243 4.5674C15.9243 4.58874 15.9339 4.60687 15.9425 4.6218L15.6088 4.8906L15.4152 4.35194C15.4483 4.337 15.4761 4.30394 15.4761 4.26767C15.4761 4.21967 15.4334 4.177 15.3852 4.177C15.3371 4.177 15.2975 4.21967 15.2975 4.26767C15.2975 4.30394 15.3221 4.337 15.3553 4.35194L15.1617 4.8906L14.8312 4.625C14.8429 4.61007 14.8494 4.58874 14.8494 4.5674C14.8494 4.5162 14.8098 4.47674 14.7617 4.47674C14.7135 4.47674 14.6707 4.5162 14.6707 4.5674C14.6707 4.61327 14.7071 4.65167 14.7531 4.65487L14.7563 5.10287L14.7467 5.10927L14.4258 4.9674C14.4258 4.9578 14.429 4.94927 14.429 4.93967C14.429 4.89167 14.3894 4.849 14.3381 4.849C14.29 4.849 14.2504 4.89167 14.2504 4.93967C14.2504 4.98767 14.29 5.02714 14.3381 5.02714C14.3531 5.02714 14.3627 5.02394 14.3745 5.02074L14.5381 5.4474C14.6076 5.63514 14.9595 5.777 15.3874 5.7802C15.8152 5.777 16.166 5.63514 16.2366 5.4474L16.4003 5.02074C16.4099 5.02714 16.4216 5.02714 16.4366 5.02714C16.4847 5.02714 16.5243 4.98767 16.5243 4.93967C16.5243 4.89167 16.4847 4.849 16.4366 4.849H16.4334Z" fill="#102547"></path>
    <path d="M15.3842 5.67144C14.9777 5.67144 14.6932 5.55091 14.6932 5.44424C14.6932 5.33757 14.9777 5.21704 15.3842 5.21704C15.7906 5.21704 16.0751 5.33544 16.0751 5.44424C16.0751 5.55304 15.7927 5.67144 15.3842 5.67144Z" fill="white"></path>
    <path d="M13.0589 6.67298C13.0076 6.67298 12.968 6.71244 12.968 6.76044C12.968 6.77004 12.9712 6.77858 12.9712 6.78818L12.6503 6.93004L12.6407 6.92684L12.6439 6.47884C12.692 6.47564 12.7284 6.43618 12.7284 6.38818C12.7284 6.34018 12.6888 6.30071 12.6407 6.30071C12.5894 6.30071 12.5498 6.34018 12.5498 6.38818C12.5498 6.40951 12.5562 6.42764 12.568 6.44258L12.2343 6.71138L12.0407 6.17271C12.0738 6.16098 12.1016 6.12684 12.1016 6.08844C12.1016 6.04044 12.0588 6.00098 12.0107 6.00098C11.9626 6.00098 11.9198 6.04044 11.9198 6.08844C11.9198 6.12791 11.9476 6.16098 11.9808 6.17271L11.7872 6.71138L11.4567 6.44578C11.4684 6.43084 11.4781 6.40951 11.4781 6.38818C11.4781 6.34018 11.4353 6.30071 11.3871 6.30071C11.339 6.30071 11.2962 6.34018 11.2962 6.38818C11.2962 6.43404 11.3326 6.47244 11.3786 6.47564L11.3818 6.92578L11.3722 6.92898L11.0481 6.78711C11.0513 6.77751 11.0545 6.76898 11.0545 6.75938C11.0545 6.71138 11.0149 6.67191 10.9636 6.67191C10.9155 6.67191 10.8759 6.71138 10.8759 6.75938C10.8759 6.80738 10.9155 6.85004 10.9636 6.85004C10.9754 6.85004 10.9882 6.84684 11 6.84044L11.1636 7.26711C11.2331 7.45484 11.585 7.59671 12.0128 7.59991C12.4407 7.59671 12.7915 7.45484 12.8621 7.26711L13.0257 6.84044C13.0354 6.84684 13.0471 6.85004 13.0621 6.85004C13.1102 6.85004 13.1498 6.81058 13.1498 6.75938C13.1498 6.71138 13.1102 6.67191 13.0621 6.67191L13.0589 6.67298Z" fill="#102547"></path>
    <path d="M12.0107 7.49224C11.601 7.49224 11.3197 7.37171 11.3197 7.26504C11.3197 7.15837 11.6021 7.03784 12.0107 7.03784C12.4193 7.03784 12.7016 7.15837 12.7016 7.26504C12.7016 7.37171 12.4193 7.49224 12.0107 7.49224Z" fill="white"></path>
    <path fill-rule="evenodd" clip-rule="evenodd" d="M11.1679 8.0481H12.8321V20.414H11.1679V8.0481Z" fill="#112548"></path>
    <path fill-rule="evenodd" clip-rule="evenodd" d="M14.4932 8.0481H16.1575V20.414H14.4932V8.0481Z" fill="#112548"></path>
    <path fill-rule="evenodd" clip-rule="evenodd" d="M7.84149 8.0481H9.50576V20.414H7.84149V8.0481Z" fill="#112548"></path>
    <path d="M11.6406 4.97715L11.0438 4.54195H11.7839L12.0118 3.84009L12.2417 4.54195H12.9787L12.3818 4.97715L12.6097 5.67582L12.0128 5.24382L11.416 5.67582L11.6438 4.97715H11.6406Z" fill="#112548"></path>
  </g>
  <defs>
    <clipPath id="clip0_453_122">
      <rect width="19" height="24" fill="white" transform="translate(2.5)"></rect>
    </clipPath>
  </defs>
</svg>
