<?xml version="1.0" encoding="UTF-8"?>
<svg xmlns="http://www.w3.org/2000/svg" width="24" height="24" viewBox="0 0 24 24" fill="none">
  <g clip-path="url(#clip0_447_274)">
    <path d="M3.5 0V18.1639C3.5 20.9528 6.78983 21.866 9.19207 22.533C9.67333 22.6665 10.1274 22.7928 10.5194 22.9219C10.5229 22.9231 10.8918 23.0489 11.2016 23.2525C11.4819 23.437 11.7689 23.7486 11.7718 23.7514L11.9994 24L12.2283 23.7514C12.2311 23.7486 12.5181 23.437 12.7981 23.2525C13.1079 23.0489 13.4767 22.9231 13.4783 22.9227C13.8722 22.7928 14.3268 22.6665 14.8076 22.533C17.2099 21.8661 20.5001 20.9529 20.5001 18.1639V0H3.5Z" fill="#740232"></path>
    <path d="M19.8812 18.1639C19.8812 20.4832 16.9761 21.2896 14.6421 21.9374C14.1536 22.0733 13.6924 22.2012 13.2829 22.3362C13.2649 22.3422 12.8363 22.4876 12.4579 22.7362C12.2897 22.8473 12.1254 22.9884 11.9998 23.1059C11.8743 22.9884 11.7104 22.8473 11.5418 22.7362C11.1634 22.4875 10.7351 22.3422 10.7152 22.3358C10.3073 22.2012 9.84603 22.0732 9.35761 21.9374C7.02353 21.2896 4.11845 20.4832 4.11845 18.1639V0.618408H19.8812V18.1639Z" fill="#9AC0E9"></path>
    <path d="M6.07359 7.55882L6.57595 7.29107L7.07792 7.55882L6.98181 6.99111L7.38846 6.58953L6.8267 6.50662L6.57587 5.99023L6.32465 6.50662L5.76329 6.58953L6.16954 6.99111L6.07343 7.55882H6.07359Z" fill="white"></path>
    <path d="M12.0041 1.50439C11.8497 1.51514 11.6903 1.52031 11.5093 1.52031C11.3071 1.52031 11.1054 1.51514 10.8554 1.50439C10.7916 1.53105 10.7916 1.64268 10.8343 1.68525L11.0041 1.72233C11.1317 1.75423 11.1744 1.77532 11.1744 1.8128C11.1744 1.8447 11.1584 1.90326 11.1213 2.00407C11.0576 2.18453 10.8287 2.77977 10.6959 3.11443L10.4937 3.61403C10.4299 3.7734 10.345 3.95426 10.3023 4.04433L10.1269 3.59812L9.65876 2.40247C9.5312 2.08372 9.44584 1.86062 9.44584 1.81797C9.44584 1.77015 9.48334 1.73832 9.57897 1.71716L9.73847 1.68525C9.7704 1.63743 9.77557 1.53622 9.73329 1.50439C9.40873 1.51514 9.18029 1.52031 8.93544 1.52031C8.65874 1.52031 8.48332 1.50957 8.21219 1.50439C8.16434 1.53105 8.14841 1.62669 8.19069 1.68525L8.40361 1.73824C8.57385 1.78089 8.60061 1.79123 8.8023 2.30158L9.66394 4.4642C9.73847 4.64506 9.829 4.92681 9.88721 5.07019C9.91914 5.09684 9.96691 5.11283 10.0308 5.11283C10.1109 5.11283 10.1747 5.09692 10.2169 5.07019C10.3393 4.7726 10.4777 4.35265 10.7488 3.70959L11.1372 2.79043C11.3178 2.36014 11.451 2.06256 11.5678 1.88719C11.6371 1.77524 11.7273 1.73816 11.8764 1.71151L12.0148 1.68525C12.0519 1.65334 12.0467 1.52548 12.0041 1.50439Z" fill="#740232"></path>
    <path d="M14.3544 1.52039H13.1646C12.909 1.52039 12.6431 1.51522 12.4146 1.50447C12.356 1.52556 12.356 1.65867 12.4039 1.6905L12.5103 1.70641C12.7495 1.74349 12.7815 1.79131 12.7815 2.28574V4.26226C12.7815 4.75669 12.7495 4.79377 12.5103 4.83077L12.3349 4.85742C12.2922 4.88933 12.2922 5.01162 12.3349 5.04345C12.6539 5.03271 12.9198 5.02754 13.1646 5.02754C13.4094 5.02754 13.6801 5.03271 14.0099 5.04345C14.047 5.01154 14.047 4.88925 14.0099 4.85742L13.8133 4.83077C13.5737 4.79886 13.5418 4.75669 13.5418 4.26226V3.54513C13.5418 3.40167 13.5474 3.38536 13.6909 3.38536H14.1738C14.4553 3.38536 14.5139 3.428 14.5669 3.68294L14.5936 3.8108C14.6311 3.85862 14.7638 3.85305 14.7958 3.80523C14.785 3.64586 14.7798 3.44941 14.7798 3.25264C14.7798 3.05587 14.785 2.85425 14.7958 2.68413C14.7638 2.63631 14.6311 2.63114 14.5936 2.67896L14.5669 2.80643C14.5139 3.06661 14.4553 3.10401 14.1738 3.10401H13.6909C13.5474 3.10401 13.5418 3.08809 13.5418 2.94424V1.98243C13.5418 1.77524 13.5418 1.7649 13.7176 1.7649H14.2052C14.4768 1.7649 14.6363 1.82863 14.7268 1.94018C14.7798 2.00909 14.8225 2.13663 14.8811 2.35457C14.9445 2.39721 15.0617 2.39165 15.0829 2.33348C15.0725 1.97726 15.0725 1.59478 15.0725 1.50439C14.998 1.51514 14.6945 1.52031 14.3545 1.52031" fill="#740232"></path>
    <path d="M18.8028 4.04438C18.6592 4.40577 18.3614 4.86829 17.7179 4.86829C17.0743 4.86829 16.4683 4.29939 16.4683 3.24194C16.4683 2.1845 17.1011 1.67973 17.6916 1.67973C18.2071 1.67973 18.5477 1.94548 18.6911 2.43951C18.7282 2.48733 18.8721 2.46617 18.8933 2.40243C18.8455 2.09403 18.8295 1.66891 18.8295 1.57335C18.67 1.5626 18.2765 1.43506 17.7339 1.43506C17.1912 1.43506 16.6386 1.59443 16.261 1.908C15.8942 2.21084 15.6175 2.66819 15.6175 3.31642C15.6175 3.96465 15.9101 4.41643 16.2929 4.70852C16.6705 4.99019 17.202 5.11248 17.7234 5.11248C18.1381 5.11248 18.5157 4.99576 18.8028 4.91603C18.8773 4.79374 18.9678 4.47459 19.0049 4.08177C18.973 4.01764 18.8455 4.00173 18.8028 4.0443" fill="#740232"></path>
    <path d="M8.37398 4.82556C8.17739 4.79366 8.12913 4.67136 8.0175 4.35262L7.29425 2.26972C7.16152 1.89241 7.09766 1.69556 7.05506 1.54144C7.03396 1.46179 7.00203 1.43506 6.93307 1.43506C6.92312 1.43506 6.75726 1.65299 6.53359 1.73471L6.40125 2.08735C6.38333 2.13755 6.36255 2.19174 6.33986 2.25189L6.27488 2.42559C6.27448 2.42678 6.27408 2.42797 6.27369 2.42917L5.78964 3.72563C5.64607 4.10811 5.54479 4.36312 5.45433 4.57588C5.3642 4.78307 5.25774 4.82572 5.13018 4.84164L4.98661 4.85755C4.94911 4.9002 4.94393 5.01175 5.00254 5.04358C5.24699 5.04358 5.36937 5.02766 5.55036 5.02766C5.77364 5.03283 5.96506 5.03283 6.15122 5.04358C6.20425 5.01692 6.1935 4.89455 6.16197 4.85755L6.00208 4.83089C5.85334 4.80464 5.78438 4.77273 5.78438 4.74082C5.78438 4.69818 5.78956 4.65553 5.82149 4.54915L6.02884 3.93282C6.06077 3.83201 6.07669 3.82644 6.20425 3.82644H6.83744C7.02321 3.82644 7.06589 3.83718 7.09264 3.92248L7.23621 4.37943C7.29999 4.57588 7.33709 4.70335 7.33709 4.74082C7.33709 4.77273 7.31599 4.80973 7.19353 4.83089L7.02329 4.85755C6.96508 4.9002 6.97543 5.01175 7.03404 5.04358C7.27849 5.03283 7.48575 5.02766 7.75171 5.02766C8.01766 5.02766 8.31546 5.03283 8.57066 5.04358C8.61891 5.01167 8.60816 4.8842 8.57623 4.85755L8.37406 4.82564L8.37398 4.82556ZM6.81061 3.54501H6.31063C6.1775 3.54501 6.15114 3.5291 6.199 3.38524L6.33173 2.98685C6.41144 2.74258 6.5179 2.45534 6.56058 2.33345C6.60843 2.445 6.70415 2.73184 6.77868 2.9602L6.91667 3.39089C6.95935 3.52918 6.93299 3.54509 6.81061 3.54509" fill="#740232"></path>
    <path d="M10.2838 7.68672C10.1901 7.78037 10.202 7.89749 10.118 7.98112C10.0844 8.01461 10.0354 8.04127 9.9732 8.04127C9.85041 8.04127 9.76824 7.94165 9.76824 7.83646C9.76824 7.73128 9.88784 7.63802 10.22 7.63802C10.2587 7.63802 10.3053 7.64001 10.3499 7.64319C10.3304 7.64876 10.3064 7.66388 10.2837 7.68664M18.4382 10.1692C18.3445 10.1692 18.2923 10.1847 18.2923 10.1847C18.2923 10.1847 18.9203 9.56879 18.9203 8.60579C18.9203 8.16794 18.8166 7.99942 18.7991 7.99942C18.766 7.99942 18.7656 8.26 18.5639 8.46162C18.4179 8.60786 18.1883 8.62258 18.0607 8.75045C18.1839 8.48629 18.0955 8.12815 18.0779 8.12815C18.0603 8.12815 18.0703 8.31697 17.8326 8.55408C17.6815 8.70509 17.3302 8.81466 17.0431 9.1015C17.1651 8.82182 17.059 8.52615 17.0328 8.52615C17.0065 8.52615 17.0312 8.69467 16.8677 8.85802C16.7154 9.01023 16.4216 9.0867 16.2019 9.30622C15.8968 9.61104 15.9514 10.0728 15.9514 10.2385C15.9514 10.2536 15.9518 10.2696 15.953 10.2863C15.9112 10.3166 15.8677 10.3509 15.8243 10.3887C15.4794 10.6904 15.2968 11.088 15.2968 11.5386C15.2968 12.3976 15.8533 12.9785 16.3446 13.4908C16.5619 13.7175 16.7668 13.9314 16.916 14.1557C17.0695 14.3864 17.1408 14.596 17.1408 14.8143C17.1408 15.0327 17.0699 15.2315 16.9458 15.3765C16.807 15.5394 16.6125 15.6219 16.3676 15.6219C15.9454 15.6219 15.6352 15.4641 15.3062 15.2976C15.1384 15.2119 14.9701 15.1215 14.7887 15.0517C14.6949 14.1238 14.0275 13.5641 14.0275 12.6955C14.0275 12.223 14.238 11.9604 14.1591 11.6289C14.3106 11.78 14.5726 11.8333 14.6586 11.8333C14.7332 11.8333 14.7806 11.8067 14.8054 11.7863C14.8106 11.7819 14.8102 11.7744 14.805 11.7704C14.7615 11.7389 14.5937 11.6019 14.5937 11.3524C14.5937 11.066 14.7005 10.8469 14.7005 10.5627C14.7005 10.2786 14.5426 10.1078 14.5128 10.0779C14.6419 10.2069 14.87 10.2839 14.9821 10.2839C15.0818 10.2839 15.1348 10.2683 15.1666 10.244C15.1722 10.2396 15.1718 10.2309 15.1655 10.2269C15.1104 10.1934 14.8907 10.0452 14.8907 9.81728C14.8907 9.5567 14.9641 9.50689 14.9641 9.32444C14.9641 9.142 14.8779 9.00928 14.8779 9.00928C14.8779 9.00928 15.0003 9.08216 15.1439 9.08216C15.3054 9.08216 15.3979 9.0423 15.4565 8.99249C15.4637 8.98652 15.4597 8.97498 15.4505 8.97459C15.043 8.94348 15.0989 8.01795 14.7148 7.67733C14.7148 7.67733 14.7551 7.68648 14.8165 7.68648C14.9477 7.68648 15.1107 7.57294 15.1682 7.46616C15.1717 7.45939 15.1674 7.45104 15.1594 7.45064C14.4245 7.41317 14.1901 5.78602 12.5327 6.11352C12.6193 5.99123 12.7775 5.88922 12.835 5.85493C12.8425 5.85015 12.8417 5.83902 12.8334 5.83583C12.7588 5.80711 12.6005 5.74576 12.2297 5.74576C11.8589 5.74576 11.5005 5.94739 11.3019 6.20717C11.3913 6.02831 11.2816 5.79995 11.1811 5.6884C11.1752 5.68243 11.1652 5.68481 11.1632 5.69277C11.1521 5.74019 11.1106 5.83782 11.0488 5.89957C10.7501 6.19802 10.2143 6.38962 10.2143 7.00992C10.2143 7.00992 10.0393 7.12227 9.802 7.28363C9.5648 7.44539 9.43676 7.69961 9.43676 7.77886C9.34662 7.82668 8.96983 8.10238 8.66924 8.40234C8.66208 8.4095 8.66128 8.42024 8.66685 8.4286C8.69958 8.47801 8.72307 8.54134 8.73501 8.57882C8.73939 8.59314 8.75731 8.59752 8.76853 8.58757C8.80922 8.5497 8.89052 8.47721 8.92683 8.46568C8.85907 8.53339 8.83669 8.61431 8.83669 8.71711C8.83669 8.9422 9.33906 9.25975 9.37059 9.22825C9.39209 9.20676 9.31119 8.97562 9.38731 8.89956C9.49974 8.78721 9.89843 8.77288 10.0221 8.77288C10.1457 8.77288 10.209 8.82031 10.209 8.90512C10.209 9.11709 10.0883 9.51071 9.7051 9.51071C9.54999 9.51071 9.4491 9.36088 9.42362 9.38603C9.39854 9.41109 9.41844 9.63308 9.46869 9.70835C9.46869 9.70835 9.42561 9.75896 9.42561 9.86534C9.42561 10.1394 9.87932 10.4905 9.92558 10.4439C9.95671 10.4132 9.83186 10.1032 9.91125 10.1032C9.95433 10.1032 10.0759 10.2809 10.2155 10.2809C10.2219 10.2809 10.2251 10.2789 10.2266 10.2773C10.2489 10.2547 10.1381 10.0989 10.1975 10.0395C10.3506 9.8869 10.7477 9.58813 10.8494 9.55542C11.0603 9.48771 11.1712 9.64112 11.1712 9.84744C11.1712 10.3068 10.6839 10.4004 10.2853 10.7989C9.88656 11.1973 9.80837 11.7639 9.30681 11.7639C9.24143 11.7639 9.67763 11.6432 9.802 11.2081C8.49263 11.2181 8.27055 10.487 7.22188 10.3471C7.21989 10.3308 7.21193 10.3148 7.19919 10.3017C7.17164 10.2738 6.80408 9.95151 6.80408 9.22554C6.80408 9.0793 6.70519 8.96735 6.55565 8.96735C6.50939 8.86534 6.38381 8.65815 6.12145 8.65815C5.87301 8.65815 5.80923 8.77368 5.82404 8.7884C5.83917 8.80312 5.94523 8.76334 6.07487 8.89319C6.149 8.96687 6.17934 9.05296 6.19168 9.11272C6.16094 9.15019 6.14263 9.19483 6.14263 9.24615C6.14263 9.24615 6.01347 9.22148 5.88862 9.33861C5.8344 9.3071 5.74267 9.27129 5.60674 9.27129C5.24747 9.27129 5.17294 9.59561 5.18767 9.61033C5.2024 9.62505 5.26579 9.55296 5.37742 9.55296C5.50299 9.55296 5.63541 9.65297 5.70556 9.71472C5.6976 9.79802 5.71392 9.87648 5.76934 9.93186C5.76934 9.93186 5.59711 9.98405 5.56757 10.2263C5.56 10.2282 5.55164 10.2302 5.54249 10.2326C5.06521 10.3665 5.15574 10.7382 5.17565 10.7382C5.19556 10.7382 5.21992 10.578 5.43921 10.578C5.51533 10.578 5.5768 10.5872 5.62458 10.5987C5.70914 10.7625 5.86258 10.8023 5.97263 10.8023C6.07232 10.8023 6.16405 10.7808 6.24495 10.7808C6.3538 10.7808 6.42036 10.8466 6.42036 10.9996C6.42036 11.2239 6.20466 11.1565 6.10815 11.2534C6.04278 11.3183 6.03282 11.3785 6.03282 11.4669C6.03282 11.4705 6.03282 11.4741 6.03322 11.4781C6.00368 11.4872 5.97183 11.4928 5.93871 11.4928C5.78996 11.4928 5.70548 11.359 5.68589 11.3785C5.65962 11.4043 5.74848 11.8318 6.05114 11.8318C6.1568 11.8318 6.22974 11.8031 6.27919 11.7657C6.30427 11.7713 6.33182 11.7745 6.36136 11.7745C6.66681 11.7745 6.73576 11.4067 7.11574 11.4067C7.49571 11.4067 8.22334 11.9303 8.32661 12.5837C8.3278 12.5916 8.33736 12.5952 8.34373 12.59C8.50959 12.4554 8.50043 12.2514 8.50043 12.2514C8.80787 12.5028 8.93822 12.6184 9.197 12.8749C9.197 12.8749 7.69024 14.0315 7.61173 14.0777C7.54397 14.1176 7.51164 14.1347 7.42835 14.1347C7.21623 14.1347 7.14926 13.7788 6.81196 13.7788C6.74659 13.7788 6.69913 13.7983 6.65725 13.8286C6.62413 13.8215 6.58033 13.8171 6.52332 13.8171C6.12503 13.8171 6.05201 14.3522 6.09031 14.3522C6.12861 14.3522 6.15608 14.2147 6.34591 14.2147C6.3702 14.2147 6.39536 14.2179 6.42044 14.2231C6.42084 14.3255 6.45994 14.4219 6.5265 14.4733C6.5265 14.4733 6.41845 14.5132 6.35666 14.641C5.88177 14.6565 5.89252 15.214 5.93719 15.214C5.97032 15.214 5.98943 14.9813 6.26215 14.9813C6.28325 14.9813 6.30761 14.9893 6.3323 15.0016C6.38095 15.2088 6.52372 15.3235 6.69237 15.3235C6.65048 15.402 6.65725 15.5268 6.70272 15.6359C6.59267 15.8654 6.78847 16.181 6.83991 16.181C6.87781 16.181 6.83115 15.9793 6.91803 15.8471C6.93674 15.8519 6.95593 15.8543 6.97583 15.8543C7.22307 15.8543 7.32667 15.6467 7.32667 15.6467C7.32667 15.6467 7.3414 15.8666 7.55989 15.8889C7.60615 16.0833 7.73172 16.2491 7.77241 16.2491C7.80076 16.2491 7.74614 15.9829 7.82704 15.8136C8.13766 15.5028 7.8936 15.0992 8.21697 14.7761C8.58898 14.404 9.50484 14.0721 10.2568 14.0414C10.5287 14.3478 10.9059 14.8099 11.0798 14.9295C11.0798 14.9295 11.0722 14.9386 11.0618 14.9489C10.5977 15.4123 9.73416 15.0063 9.28037 15.4597C9.10018 15.6397 9.07581 15.8055 8.82188 15.8055C8.73414 15.8055 8.65363 15.7616 8.61733 15.7278C8.61175 15.7227 8.60259 15.725 8.6006 15.7322C8.58388 15.786 8.57146 15.9664 8.70905 16.1035C8.86536 16.2601 9.05909 16.2314 9.11013 16.2044C8.98496 16.3733 8.70985 16.3645 8.55036 16.2721C8.5424 16.2673 8.53284 16.2748 8.53523 16.2836C8.662 16.7669 9.16284 16.6756 9.16284 16.6756C9.26731 17.1948 9.78162 17.4107 9.78162 17.7581C9.78162 17.855 9.74053 17.9657 9.65923 18.047C9.46383 18.2422 9.03242 18.3713 8.56318 18.3713C7.80641 18.3713 7.79606 17.8346 7.38376 17.8346C7.32993 17.8346 7.27809 17.8414 7.22825 17.8537C7.16925 17.7856 7.04009 17.7082 6.87781 17.7082C6.6262 17.7082 6.48032 17.9931 6.51416 18.027C6.53526 18.0485 6.60828 17.9585 6.72151 17.9585C6.77693 17.9585 6.84668 18.0067 6.87582 18.082C6.85592 18.1074 6.83792 18.1342 6.822 18.1624C6.77892 18.1509 6.72629 18.1445 6.66251 18.1445C6.18881 18.1445 6.19717 18.6919 6.24662 18.6919C6.27536 18.6919 6.33755 18.4887 6.56719 18.5143C6.52133 18.5988 6.49585 18.6955 6.49585 18.7983C6.49585 18.8138 6.49625 18.829 6.49744 18.8441C6.38979 18.9067 6.30443 19.025 6.30443 19.1593C6.30443 19.3573 6.34193 19.4582 6.37219 19.4582C6.40651 19.4582 6.43876 19.2295 6.61258 19.1541C6.69109 19.2609 6.8044 19.341 6.93594 19.3772C6.92002 19.4454 6.90481 19.5485 6.90481 19.696C6.90481 19.8788 6.96222 20.1247 7.00052 20.1247C7.03603 20.1247 7.05873 19.8406 7.1823 19.7307C7.23494 19.7813 7.29673 19.8223 7.36529 19.851C7.43106 19.8809 7.50885 19.8984 7.6001 19.8984H7.61682C8.24961 19.8881 8.65308 19.3087 9.12837 19.3087C9.39392 19.3087 9.3987 19.557 9.30179 19.6642C10.0207 19.6642 10.2264 19.1171 10.6646 19.1171C10.8875 19.1171 11.0868 19.2355 11.2906 19.2335C11.4222 19.2327 11.5888 19.1892 11.6821 18.9976C11.6853 18.9909 11.6805 18.9825 11.6726 18.9825C11.3369 18.9861 11.1949 18.8275 11.1686 18.7283C11.7695 18.9713 11.9457 18.5949 11.9804 18.496C11.9836 18.4873 11.9748 18.4793 11.9669 18.4829C11.9426 18.4929 11.9003 18.5064 11.8513 18.5064C11.5271 18.5064 11.1767 18.1789 11.1767 17.7251C11.1767 17.2956 11.4753 17.053 11.7584 16.9745C11.9825 16.341 12.2975 16.2135 12.1759 15.8179C12.1759 15.8179 12.1743 15.8147 12.1771 15.8139C12.1775 15.8139 12.1783 15.8143 12.1787 15.8151C12.213 15.857 12.2772 16.0291 12.2772 16.1231C12.2772 16.5411 11.8757 16.7813 11.8757 17.4434C11.8757 18.1913 12.4582 18.1614 12.4582 18.6614C12.4582 18.8614 12.3821 18.975 12.353 19.0112C12.3478 19.0175 12.3514 19.0267 12.3594 19.0279C12.4307 19.039 12.703 19.0474 12.9674 18.6123C13.3146 18.7923 13.2218 19.0944 13.195 19.1633C13.1922 19.17 13.1974 19.1772 13.205 19.1772C13.6575 19.1629 13.8034 18.5489 13.8034 18.5489C14.2037 18.5054 14.5187 18.6429 14.5187 18.811C14.5187 19.2433 13.7097 20.0549 13.1172 20.0549C12.8967 20.0549 12.8202 19.8254 12.6268 19.8254C12.4876 19.8254 12.4187 19.8928 12.3764 19.9784C12.2991 19.945 12.2197 19.9274 12.1444 19.9274C11.9562 19.9274 11.7903 20.033 11.7333 20.2653C11.4788 20.349 11.4262 20.7434 11.4518 20.7689C11.4717 20.7888 11.5961 20.5797 11.8051 20.6298C11.8418 20.6895 11.884 20.7374 11.9175 20.7709C11.876 20.7927 11.8294 20.8227 11.7811 20.8709C11.5315 21.1203 11.5941 21.3996 11.6184 21.4235C11.6443 21.4493 11.6894 21.3262 11.7588 21.2569C11.8134 21.2023 11.8935 21.1446 11.9964 21.1521C12.0818 21.3139 12.2656 21.3546 12.3832 21.3546C12.3684 21.5 12.3704 21.7442 12.4066 21.7805C12.4329 21.8067 12.5462 21.5713 12.7181 21.4478C12.8082 21.504 12.9222 21.5562 13.037 21.5562C13.3676 21.5562 13.6615 21.4016 13.8995 21.1634C14.2467 20.8164 14.4852 20.2601 14.779 20.2601C14.964 20.2601 14.9278 20.4282 14.9222 20.4489C15.3971 20.4489 15.1949 19.8692 16.098 18.9668C16.2085 18.8565 16.3368 18.7604 16.354 18.6509C16.3552 18.6421 16.3457 18.6358 16.3381 18.6405C16.2588 18.6911 16.0562 18.7067 15.9657 18.6163C15.9657 18.6163 16.6965 18.2529 16.7169 17.7102C16.7173 17.7015 16.7073 17.6959 16.7002 17.7015C16.5032 17.8569 16.1376 17.821 16.1376 17.821C16.3078 17.6839 16.4338 17.2947 16.258 16.9266C16.254 16.9182 16.2421 16.9186 16.2385 16.927C16.0687 17.3282 15.7234 17.4656 15.4088 17.4656C14.9579 17.4656 14.5763 17.1035 14.5763 16.6082C14.5763 16.1847 14.7139 15.9943 14.7697 15.6162C14.8658 15.658 14.9647 15.7079 15.07 15.7616C15.422 15.9401 15.8208 16.1429 16.3678 16.1429C16.5716 16.1429 16.7609 16.1035 16.9304 16.0262C17.0899 15.9533 17.2286 15.8481 17.3431 15.7138C17.5492 15.4724 17.6624 15.1529 17.6624 14.8138C17.6624 14.1113 17.184 13.6125 16.7215 13.1296C16.4927 12.891 16.2562 12.644 16.0855 12.379C15.9033 12.0958 15.8184 11.8284 15.8184 11.5379C15.8184 11.2474 15.9819 10.9367 16.2055 10.7359C16.2055 10.7359 16.7039 11.0132 17.2757 11.0132C17.8475 11.0132 18.1908 10.5932 18.1908 10.5932C18.4543 10.3302 18.7358 10.3717 18.7645 10.343C18.7933 10.3143 18.6442 10.1685 18.4384 10.1685" fill="#FEE702"></path>
  </g>
  <defs>
    <clipPath id="clip0_447_274">
      <rect width="17" height="24" fill="white" transform="translate(3.5)"></rect>
    </clipPath>
  </defs>
</svg>
