<?xml version="1.0" encoding="UTF-8"?>
<svg xmlns="http://www.w3.org/2000/svg" width="24" height="24" viewBox="0 0 24 24" fill="none">
  <g clip-path="url(#clip0_442_158)">
    <path fill-rule="evenodd" clip-rule="evenodd" d="M12.002 24C5.13822 19.5666 1.54102 12.7343 2.04696 4.00992L7.38498 0C8.67967 1.2509 10.309 1.86444 11.998 1.87635C13.687 1.86444 15.3164 1.2509 16.6111 0L21.953 4.00598C22.459 12.7383 18.8618 19.5666 12.002 24.0001V24Z" fill="#FFD800"></path>
    <path fill-rule="evenodd" clip-rule="evenodd" d="M12.002 2.85802C10.4006 2.85408 8.80316 2.28009 7.33715 1.20731L2.94722 4.50863C2.521 11.432 5.35727 18.5176 12.002 22.86C18.6426 18.5176 21.479 11.428 21.0567 4.50863L16.6628 1.20337C15.2009 2.28009 13.6035 2.85408 12.0021 2.85802H12.002Z" fill="#0065B2"></path>
    <path fill-rule="evenodd" clip-rule="evenodd" d="M7.89091 10.7631H6.5564V10.1693H5.82736V12.3504H6.55235V11.7645H7.89081V12.6156L7.16177 13.3479H5.2218L4.49276 12.6156V9.89616L5.2218 9.16384H7.16177L7.89081 9.89616V10.7631H7.89091ZM10.8666 12.1763L10.9423 12.3544H10.7351V13.3519H12.4122V12.3544H12.229L11.2491 10.1733H11.4722V9.17181H9.05014V10.1733H9.27325L8.29326 12.3544H8.11006V13.3519H9.79116L9.7872 12.3544H9.58003L9.65569 12.1763H10.8667H10.8666ZM9.99823 11.3727L10.2651 10.8779L10.5241 11.3727H9.99823ZM19.527 9.16788L19.531 10.1693H19.3159V12.7344L18.7741 13.3479H17.0692L16.3919 12.7264V11.6379H17.5909V12.3465H18.077V10.1654H17.8619V9.16394H19.527V9.16788ZM12.6952 9.16788H15.3642L16.0932 9.88828V10.9333L15.8024 11.1431L16.0932 11.349V12.6157L15.3602 13.352H12.6952V12.3545H13.0337L13.0377 10.1694H12.6951V9.16797L12.6952 9.16788ZM14.7587 10.7473H14.2289V10.1734H14.7587V10.7473ZM14.7587 11.7687V12.3546H14.2289V11.7687H14.7587ZM7.27743 1.99912L7.43281 2.48208H7.94666L7.52837 2.7829L7.69167 3.26183L7.27337 2.96888L6.86706 3.26183L7.02243 2.7829L6.60414 2.48208H7.12196L7.27733 1.99912H7.27743ZM7.27743 3.60624L7.43281 4.0892H7.94666L7.52837 4.38608L7.69167 4.86904L7.27337 4.5761L6.86706 4.86904L7.02243 4.39011L6.60414 4.08929H7.12196L7.27733 3.60633L7.27743 3.60624ZM9.48437 3.60624L9.63975 4.0892H10.1536L9.73531 4.38608L9.89861 4.86904L9.48032 4.5761L9.074 4.86904L9.22938 4.39011L8.81108 4.08929H9.3289L9.48428 3.60633L9.48437 3.60624ZM11.6913 3.60624L11.8507 4.0892H12.3606L11.9423 4.38608L12.1056 4.86904L11.6873 4.5761L11.2809 4.86904L11.4363 4.39011L11.018 4.08929H11.5358L11.6912 3.60633L11.6913 3.60624ZM13.9022 3.60624L14.0576 4.0892H14.5675L14.1532 4.38608L14.3125 4.86904L13.8982 4.5761L13.4879 4.86904L13.6472 4.39011L13.225 4.08929H13.7428L13.9021 3.60633L13.9022 3.60624ZM15.9578 3.60624L16.1131 4.0892H16.623L16.2047 4.38608L16.368 4.86904L15.9537 4.5761L15.5434 4.86904L15.7028 4.39011L15.2845 4.08929H15.7983L15.9577 3.60633L15.9578 3.60624ZM18.1647 3.60624L18.3201 4.0892H18.83L18.4156 4.38608L18.575 4.86904L18.1606 4.5761L17.7504 4.86904L17.9097 4.39011L17.4914 4.08929H18.0053L18.1646 3.60633L18.1647 3.60624ZM5.07058 3.60624L5.22596 4.0892H5.73585L5.32152 4.38608L5.48482 4.86904L5.06652 4.5761L4.66021 4.86904L4.81559 4.39011L4.39729 4.08929H4.91511L5.07049 3.60633L5.07058 3.60624ZM4.31767 5.35584L4.47305 5.8388H4.98294L4.56861 6.13569L4.72795 6.61461L4.31361 6.32561L3.90334 6.61461L4.06267 6.13962L3.64438 5.8388L4.15824 5.83487L4.31757 5.35594L4.31767 5.35584ZM6.36528 5.35584L6.52065 5.8388H7.03055L6.61225 6.13569L6.77555 6.61461L6.36122 6.32561L5.95094 6.61461L6.11028 6.13962L5.68802 5.8388L6.20584 5.83487L6.36518 5.35594L6.36528 5.35584ZM8.5642 5.35584L8.71958 5.8388H9.22947L8.81514 6.13569L8.97448 6.61461L8.56014 6.32561L8.14987 6.61461L8.30921 6.13962L7.89091 5.8388L8.40477 5.83487L8.56411 5.35594L8.5642 5.35584ZM10.7631 5.35584L10.9185 5.8388H11.4284L11.0141 6.13569L11.1734 6.61461L10.7591 6.32561L10.3488 6.61461L10.5081 6.13962L10.0898 5.8388L10.6037 5.83487L10.763 5.35594L10.7631 5.35584ZM12.9621 5.35584L13.1174 5.8388H13.6273L13.213 6.13569L13.3723 6.61461L12.958 6.32561L12.5477 6.61461L12.7071 6.13962L12.2888 5.8388L12.8026 5.83487L12.962 5.35594L12.9621 5.35584ZM15.161 5.35584L15.3163 5.8388H15.8262L15.4119 6.13569L15.5713 6.61461L15.1569 6.32561L14.7466 6.61461L14.906 6.13962L14.4877 5.8388L15.0055 5.83487L15.1609 5.35594L15.161 5.35584ZM17.3599 5.35584L17.5153 5.8388H18.0252L17.6108 6.13569L17.7741 6.61461L17.3558 6.32561L16.9495 6.61461L17.1049 6.13962L16.6866 5.8388L17.2044 5.83487L17.3598 5.35594L17.3599 5.35584ZM19.7102 5.35584L19.8656 5.8388H20.3795L19.9612 6.13569L20.1245 6.61461L19.7062 6.32561L19.2999 6.61461L19.4552 6.13962L19.0369 5.8388L19.5548 5.83487L19.7101 5.35594L19.7102 5.35584ZM4.31767 7.14107L4.47305 7.62H4.98294L4.56861 7.92082L4.72795 8.39975L4.31361 8.11074L3.90334 8.39975L4.06267 7.92475L3.64438 7.62H4.15824L4.31757 7.14107H4.31767ZM6.22179 13.8507L6.37716 14.3296H6.88706L6.46877 14.6304L6.63206 15.1094L6.21377 14.8203L5.80745 15.1094L5.96679 14.6344L5.54453 14.3296H6.06235L6.22169 13.8507H6.22179ZM8.66373 13.8507L8.8191 14.3296H9.329L8.9107 14.6304L9.074 15.1094L8.65967 14.8203L8.24939 15.1094L8.40873 14.6344L7.99044 14.3296H8.50429L8.66363 13.8507H8.66373ZM11.1057 13.8507L11.261 14.3296H11.7709L11.3566 14.6304L11.5159 15.1094L11.1016 14.8203L10.6913 15.1094L10.8507 14.6344L10.4324 14.3296H10.9462L11.1056 13.8507H11.1057ZM13.5476 13.8507L13.703 14.3296H14.2129L13.7985 14.6304L13.9579 15.1094L13.5435 14.8203L13.1333 15.1094L13.2926 14.6344L12.8743 14.3296H13.3882L13.5475 13.8507H13.5476ZM15.9895 13.8507L16.1449 14.3296H16.6548L16.2405 14.6304L16.3998 15.1094L15.9855 14.8203L15.5752 15.1094L15.7345 14.6344L15.3163 14.3296H15.8341L15.9895 13.8507H15.9895ZM7.44073 15.2045L7.5961 15.6875H8.10996L7.69167 15.9883L7.85497 16.4672L7.43667 16.1743L7.03036 16.4672L7.18573 15.9883L6.76744 15.6875H7.28526L7.44063 15.2045H7.44073ZM9.88267 15.2045L10.038 15.6875H10.5519L10.1336 15.9883L10.2969 16.4672L9.87861 16.1743L9.4723 16.4672L9.62767 15.9883L9.20938 15.6875H9.7272L9.88257 15.2045H9.88267ZM12.3246 15.2045L12.48 15.6875H12.9938L12.5755 15.9883L12.7388 16.4672L12.3205 16.1743L11.9142 16.4672L12.0696 15.9883L11.6513 15.6875H12.1691L12.3245 15.2045H12.3246ZM14.7665 15.2045L14.9219 15.6875H15.4358L15.0175 15.9883L15.1808 16.4672L14.7625 16.1743L14.3562 16.4672L14.5115 15.9883L14.0933 15.6875H14.6111L14.7665 15.2045H14.7665ZM8.52024 16.8472L8.67561 17.3302H9.18551L8.76721 17.6271L8.93051 18.11L8.51222 17.8171L8.1059 18.11L8.26524 17.6311L7.84298 17.3303H8.3608L8.52014 16.8473L8.52024 16.8472ZM10.9622 16.8472L11.1176 17.3302H11.6274L11.2131 17.6271L11.3725 18.11L10.9581 17.8171L10.5478 18.11L10.7072 17.6311L10.2889 17.3303H10.8027L10.9621 16.8473L10.9622 16.8472ZM13.4041 16.8472L13.5595 17.3302H14.0694L13.6551 17.6271L13.8144 18.11L13.4001 17.8171L12.9898 18.11L13.1491 17.6311L12.7308 17.3303H13.2447L13.404 16.8473L13.4041 16.8472ZM9.77503 18.3475L9.9304 18.8264H10.4443L10.026 19.1272L10.1893 19.6062L9.77097 19.3172L9.36465 19.6062L9.52003 19.1312L9.10173 18.8264H9.61955L9.77493 18.3475H9.77503ZM12.217 18.3475L12.3723 18.8264H12.8862L12.4679 19.1272L12.6312 19.6062L12.2129 19.3172L11.8066 19.6062L11.962 19.1312L11.5437 18.8264H12.0615L12.2169 18.3475H12.217ZM10.8904 19.5944L11.0458 20.0773H11.5557L11.1374 20.3781L11.3007 20.8571L10.8863 20.5641L10.4761 20.8571L10.6354 20.3781L10.2171 20.0773H10.731L10.8903 19.5944H10.8904ZM12.0735 20.7028L12.2289 21.1857H12.7427L12.3244 21.4826L12.4877 21.9615L12.0694 21.6725L11.6631 21.9615L11.8185 21.4866L11.4002 21.1857L11.918 21.1818L12.0734 20.7029L12.0735 20.7028ZM13.3323 19.5944L13.4877 20.0773H13.9976L13.5833 20.3781L13.7426 20.8571L13.3283 20.5641L12.918 20.8571L13.0773 20.3781L12.659 20.0773H13.1729L13.3322 19.5944H13.3323ZM14.6589 18.3475L14.8143 18.8264H15.3281L14.9098 19.1272L15.0731 19.6062L14.6548 19.3172L14.2485 19.6062L14.4039 19.1312L13.9856 18.8264H14.5034L14.6588 18.3475H14.6589ZM15.8461 16.8472L16.0014 17.3302H16.5113L16.097 17.6271L16.2563 18.11L15.842 17.8171L15.4317 18.11L15.5911 17.6311L15.1728 17.3303H15.6866L15.846 16.8473L15.8461 16.8472ZM17.2085 15.2045L17.3678 15.6875H17.8777L17.4594 15.9883L17.6227 16.4672L17.2044 16.1743L16.7981 16.4672L16.9535 15.9883L16.5352 15.6875H17.053L17.2084 15.2045H17.2085ZM18.2801 13.8507L18.4354 14.3296H18.9453L18.531 14.6304L18.6903 15.1094L18.276 14.8203L17.8657 15.1094L18.0251 14.6344L17.6068 14.3296H18.1206L18.28 13.8507H18.2801ZM6.36518 7.14107L6.52056 7.62H7.03045L6.61216 7.92082L6.77546 8.39975L6.36112 8.11074L5.95085 8.39975L6.11018 7.92475L5.68793 7.62H6.20575L6.36508 7.14107H6.36518ZM8.56411 7.14107L8.71948 7.62H9.22938L8.81504 7.92082L8.97438 8.39975L8.56005 8.11074L8.14977 8.39975L8.30911 7.92475L7.89081 7.62H8.40467L8.56401 7.14107H8.56411ZM10.763 7.14107L10.9184 7.62H11.4283L11.014 7.92082L11.1733 8.39975L10.759 8.11074L10.3487 8.39975L10.508 7.92475L10.0897 7.62H10.6036L10.7629 7.14107H10.763ZM12.962 7.14107L13.1173 7.62H13.6272L13.2129 7.92082L13.3722 8.39975L12.9579 8.11074L12.5476 8.39975L12.707 7.92475L12.2887 7.62H12.8025L12.9619 7.14107H12.962ZM15.1609 7.14107L15.3163 7.62H15.8262L15.4118 7.92082L15.5712 8.39975L15.1568 8.11074L14.7465 8.39975L14.9059 7.92475L14.4876 7.62H15.0054L15.1608 7.14107H15.1609ZM17.3598 7.14107L17.5152 7.62H18.0251L17.6107 7.92082L17.774 8.39975L17.3557 8.11074L16.9494 8.39975L17.1048 7.92475L16.6865 7.62H17.2043L17.3597 7.14107H17.3598ZM19.7101 7.14107L19.8655 7.62H20.3794L19.9611 7.92082L20.1244 8.39975L19.7061 8.11074L19.2998 8.39975L19.4551 7.92475L19.0368 7.62H19.5547L19.71 7.14107H19.7101ZM16.6149 1.99902L16.7703 2.48198H17.2841L16.8658 2.7828L17.0291 3.26173L16.6109 2.96879L16.2045 3.26173L16.3599 2.7828L15.9416 2.48198H16.4594L16.6148 1.99902H16.6149Z" fill="#FDCC25"></path>
  </g>
  <defs>
    <clipPath id="clip0_442_158">
      <rect width="20" height="24" fill="white" transform="translate(2)"></rect>
    </clipPath>
  </defs>
</svg>
