<?xml version="1.0" encoding="UTF-8"?>
<svg xmlns="http://www.w3.org/2000/svg" width="25" height="24" viewBox="0 0 25 24" fill="none">
  <g clip-path="url(#clip0_447_240)">
    <path d="M12.5341 22.8982C17.6882 22.8982 21.8664 18.8369 21.8664 13.8271C21.8664 8.81734 17.6882 4.7561 12.5341 4.7561C7.38008 4.7561 3.2019 8.81734 3.2019 13.8271C3.2019 18.8369 7.38008 22.8982 12.5341 22.8982Z" fill="white"></path>
    <path d="M9.83636 5.91645L8.49506 2.64806L9.09198 1.72266L13.3501 2.08627L15.8478 2.64806L16.3049 3.53336L15.1485 5.91691L9.84015 6.26946L9.83636 5.91691V5.91645Z" fill="white"></path>
    <path d="M12.5038 23.4456C7.02146 23.4456 2.57416 19.1265 2.57416 13.7939C2.57416 9.70615 5.18896 6.21009 8.88383 4.80356L8.88004 4.79987C8.79706 4.70079 8.71362 4.59802 8.63823 4.48787C8.15842 3.79751 8.03372 2.39467 9.0915 1.71859C10.0511 1.10519 11.2075 1.54577 11.3735 1.61582V1.60845C11.3962 1.02085 11.8912 0.550781 12.4995 0.550781C13.1078 0.550781 13.6066 1.02085 13.6256 1.60845V1.61582C13.7958 1.54623 14.9479 1.10888 15.9075 1.71859C16.9653 2.39421 16.8406 3.79705 16.3608 4.48787C16.2854 4.59802 16.202 4.70079 16.119 4.79987L16.1152 4.80356C19.8105 6.21009 22.4249 9.70292 22.4249 13.7939C22.4287 19.1265 17.9852 23.4456 12.5028 23.4456H12.5038ZM12.5038 22.5788C17.4873 22.5788 21.5416 18.638 21.5416 13.7939C21.5416 8.94988 17.4873 5.0091 12.5038 5.0091C7.52024 5.01279 3.46599 8.94988 3.46599 13.7939C3.46599 18.638 7.52024 22.5788 12.5038 22.5788ZM12.5038 2.22184C12.3867 2.22184 12.2847 2.31724 12.2278 2.45688H12.224C12.1107 2.38729 11.5626 2.07114 10.8941 2.30987H10.8903C10.6258 2.23291 10.0857 2.14442 9.60972 2.47163C8.96728 2.91221 9.10335 3.85235 9.42101 4.34086C9.69696 4.76669 10.0862 5.13031 10.2635 5.28469L10.2673 5.28838L10.2901 5.56029C10.9965 5.36949 11.7371 5.26626 12.5043 5.26626C13.2714 5.26626 14.012 5.36903 14.7184 5.56029L14.7412 5.28838L14.745 5.28469C14.919 5.13031 15.3116 4.76669 15.5875 4.34086C15.9047 3.85235 16.0408 2.91221 15.3988 2.47163C14.9228 2.14488 14.3823 2.23659 14.1182 2.30987H14.1144C13.4454 2.07483 12.8978 2.38683 12.7845 2.45688H12.7807C12.72 2.31356 12.618 2.22184 12.5047 2.22184H12.5038Z" fill="black"></path>
    <path d="M12.5038 0.55441C13.1121 0.55441 13.6109 1.02448 13.6298 1.61207V1.61945C13.7318 1.57889 14.1888 1.40285 14.7483 1.40285C15.1186 1.40285 15.5306 1.47981 15.9156 1.72222C16.9734 2.39783 16.8487 3.80068 16.3689 4.4915C16.2935 4.60165 16.21 4.70442 16.1271 4.8035L16.1233 4.80719C19.8186 6.21372 22.4329 9.70655 22.4329 13.7976C22.4329 19.1264 17.9894 23.4493 12.5033 23.4493C7.021 23.4456 2.57369 19.1264 2.57369 13.7939C2.57369 9.70609 5.1885 6.21004 8.88336 4.8035L8.87957 4.79982C8.7966 4.70073 8.71315 4.59796 8.63777 4.48782C8.15795 3.79745 8.03326 2.39461 9.09103 1.71853C9.4727 1.47612 9.88804 1.39916 10.2583 1.39916C10.8173 1.39916 11.2749 1.57567 11.3768 1.61576V1.60839C11.3958 1.02448 11.8907 0.55441 12.5028 0.55441M12.7788 2.45682C12.7219 2.3135 12.62 2.22179 12.5028 2.22179C12.3857 2.22179 12.2838 2.31718 12.2269 2.45682H12.2231C12.1401 2.40521 11.8225 2.22179 11.3958 2.22179C11.2407 2.22179 11.071 2.24759 10.8932 2.30981H10.8894C10.7685 2.27663 10.5945 2.24022 10.3906 2.24022C10.1488 2.24022 9.86907 2.29552 9.6083 2.47157C8.96586 2.91215 9.10194 3.8523 9.4196 4.3408C9.69554 4.76663 10.0848 5.13025 10.2621 5.28464L10.2659 5.28832C6.36006 6.25796 3.466 9.70655 3.466 13.8017C3.466 18.6458 7.52025 22.5866 12.5038 22.5866C17.4873 22.5866 21.5416 18.6458 21.5416 13.8017C21.5416 9.70701 18.6475 6.25843 14.7407 5.28878L14.7445 5.2851C14.9185 5.13071 15.3111 4.76709 15.587 4.34126C15.9042 3.85276 16.0403 2.91261 15.3983 2.47203C15.1376 2.2923 14.8578 2.24068 14.616 2.24068C14.4159 2.24068 14.2381 2.27755 14.1172 2.31027H14.1135C13.9357 2.24806 13.7659 2.22225 13.6109 2.22225C13.1804 2.22225 12.8627 2.40198 12.7797 2.45728M12.5038 5.01319C13.2747 5.01319 14.0229 5.10859 14.7407 5.2851L14.718 5.557C14.0115 5.36621 13.2709 5.26298 12.5038 5.26298C11.7367 5.26298 10.9961 5.36575 10.2896 5.557L10.2669 5.2851C10.9809 5.10536 11.7329 5.01319 12.5038 5.01319ZM12.5038 0C12.0619 0 11.6385 0.165447 11.3213 0.466386C11.1777 0.598652 11.0643 0.756726 10.9776 0.921712C10.7699 0.87747 10.5243 0.848436 10.2598 0.848436C9.70834 0.848436 9.20956 0.988075 8.77858 1.25998C8.24187 1.60147 7.89054 2.1121 7.76206 2.74025C7.63736 3.34259 7.7393 4.02926 8.01903 4.5657C7.29741 4.89613 6.61372 5.31137 5.98645 5.79619C5.17428 6.42065 4.46735 7.15525 3.87422 7.98157C2.65003 9.68812 2 11.7007 2 13.7943C2 15.1714 2.27973 16.5083 2.82356 17.7678C3.35268 18.9836 4.10797 20.0744 5.07566 21.0109C6.04335 21.9473 7.16134 22.6856 8.41208 23.2C9.70787 23.7327 11.0833 24.0005 12.5 24.0005C13.9167 24.0005 15.2921 23.7286 16.5879 23.2C17.8387 22.6856 18.9609 21.9515 19.9243 21.0109C20.8878 20.0744 21.6473 18.9836 22.1764 17.7678C22.7245 16.5083 23 15.1714 23 13.7943C23 11.7011 22.3538 9.68858 21.1296 7.97696C20.5402 7.15064 19.83 6.41604 19.0173 5.79158C18.3863 5.30676 17.7064 4.89567 16.9848 4.56109C17.2645 4.02512 17.3664 3.33798 17.2417 2.73564C17.1132 2.10749 16.7619 1.59733 16.2252 1.25537C15.7947 0.983467 15.2997 0.843827 14.744 0.843827C14.4795 0.843827 14.2339 0.877009 14.0262 0.917103C13.9394 0.747969 13.8261 0.594043 13.6825 0.461778C13.3653 0.165447 12.9457 0 12.5038 0ZM12.519 3.24673L13.0633 2.9421H13.0671L13.0822 2.93473L13.0974 2.92736C13.1202 2.91261 13.3316 2.78403 13.6114 2.78403C13.7133 2.78403 13.8152 2.80247 13.9172 2.83933L13.9361 2.84671L13.9551 2.85039H13.9589L14.1215 2.89464L14.2841 2.84671C14.3633 2.82459 14.4842 2.79878 14.6203 2.79878C14.7981 2.79878 14.9451 2.84302 15.0736 2.93104C15.4173 3.16608 15.2774 3.78317 15.1077 4.0477C14.9489 4.29011 14.7412 4.51777 14.5786 4.67585C13.8996 4.53206 13.2069 4.45924 12.5119 4.45924C11.8168 4.45924 11.1212 4.53252 10.4451 4.67585C10.2787 4.51408 10.0711 4.29011 9.91601 4.0477C9.7458 3.78317 9.60641 3.16608 9.95015 2.93104C10.0786 2.84302 10.2261 2.79878 10.4034 2.79878C10.5395 2.79878 10.6604 2.82459 10.7396 2.84671L10.9022 2.89464L11.0648 2.85039H11.0686L11.0876 2.84671L11.1065 2.83933C11.2047 2.80247 11.3104 2.78403 11.4124 2.78403C11.6921 2.78403 11.9035 2.91261 11.9263 2.92736L11.9415 2.93473L11.9567 2.9421H11.9604L12.5047 3.24673L12.5123 3.26148L12.5237 3.2541L12.5351 3.26148L12.5199 3.24673H12.519ZM9.76856 6.2764L10.4409 6.09298C11.1099 5.91324 11.8011 5.82107 12.5 5.82107C13.1989 5.82107 13.8906 5.91278 14.5591 6.09298L15.2314 6.2764L15.2504 6.01555C15.9118 6.23584 16.5386 6.53724 17.1284 6.91146C17.8993 7.40365 18.5755 8.00968 19.1458 8.7111C19.72 9.4199 20.1699 10.2093 20.4795 11.0578C20.7967 11.9357 20.9594 12.8537 20.9594 13.7939C20.9594 18.3296 17.1621 22.0206 12.4957 22.0206C7.82938 22.0206 4.03258 18.3296 4.03258 13.7943C4.03258 12.8579 4.1952 11.9362 4.51239 11.0582C4.822 10.2098 5.26815 9.42036 5.84611 8.71156C6.41649 8.00645 7.09686 7.40411 7.86352 6.91192C8.45286 6.53724 9.08013 6.2363 9.74153 6.01601L9.76808 6.27686L9.76856 6.2764Z" fill="white"></path>
    <path d="M11.0757 7.44409L10.97 6.95927L10.8263 6.98876L10.8112 6.91918L10.8225 6.91549C10.8865 6.90074 10.9624 6.87125 10.9624 6.78322L10.9586 6.76848L11.0378 6.75004L11.1852 7.41828L11.0757 7.44409ZM11.8277 7.13578C11.8201 7.03669 11.8656 6.97402 11.9372 6.95927V6.95558C11.8765 6.94084 11.8353 6.89659 11.8315 6.81594C11.8239 6.70949 11.8922 6.63944 12.0093 6.63252C12.1264 6.62561 12.2018 6.68414 12.2094 6.7906C12.2131 6.87125 12.1828 6.91918 12.1226 6.94498V6.94867C12.1942 6.95604 12.2473 7.01089 12.2549 7.11043C12.2625 7.2427 12.2018 7.31966 12.0586 7.32703C11.9111 7.33441 11.8357 7.26804 11.8282 7.13624L11.8277 7.13578ZM12.024 6.9118C12.0956 6.90811 12.1069 6.8565 12.1032 6.80166C12.0994 6.74682 12.0766 6.70257 12.0088 6.70626C11.9372 6.70995 11.9258 6.76156 11.9296 6.81272C11.9334 6.87171 11.9562 6.91918 12.024 6.9118ZM12.0467 7.24592C12.1259 7.24224 12.1411 7.18371 12.1373 7.10997C12.1335 7.03623 12.1069 6.98139 12.0316 6.98876C11.9524 6.99245 11.9372 7.05098 11.941 7.12472C11.9448 7.19431 11.9676 7.2533 12.0467 7.24592ZM12.931 7.1579C12.9272 7.19845 12.9424 7.24592 12.9988 7.2533C13.1045 7.26067 13.1197 7.12472 13.1273 7.02563L13.1235 7.02195C13.0931 7.06988 13.0443 7.08785 12.9798 7.08416C12.8855 7.07679 12.8134 7.00351 12.821 6.86756C12.8324 6.70949 12.9077 6.62146 13.0552 6.63252C13.233 6.64358 13.2553 6.77954 13.2401 6.97402C13.2249 7.17587 13.1723 7.33763 12.9869 7.32657C12.866 7.3192 12.802 7.26067 12.8091 7.14684L12.93 7.1579H12.931ZM13.0443 6.70995C12.9765 6.70626 12.9461 6.76894 12.9386 6.84959C12.931 6.94498 12.9575 7.00029 13.0215 7.00397C13.1045 7.01135 13.1235 6.94176 13.1311 6.86065C13.1386 6.78 13.1121 6.71732 13.0443 6.70995ZM13.9172 7.44086L14.0267 6.95604L13.883 6.92655L13.8982 6.85696L13.9096 6.86065C13.9736 6.87539 14.057 6.87539 14.0945 6.79474L14.0983 6.78L14.1775 6.79843L14.0262 7.46299L13.9167 7.44086H13.9172Z" fill="black"></path>
    <path d="M12.6247 1.86194V2.05642C12.6247 2.07117 12.6133 2.08223 12.5981 2.08223H12.4056C12.3905 2.08223 12.3791 2.07117 12.3791 2.05642V1.85457H12.1714C12.1562 1.85457 12.1449 1.84351 12.1449 1.82876V1.64165C12.1449 1.62691 12.1562 1.61585 12.1714 1.61585H12.3791V1.41399C12.3791 1.39924 12.3905 1.38818 12.4056 1.38818H12.5981C12.6133 1.38818 12.6247 1.39924 12.6247 1.41399V1.61953H12.8324C12.8475 1.61953 12.8589 1.63059 12.8589 1.64534V1.83245C12.8589 1.8472 12.8475 1.85826 12.8324 1.85826H12.6247V1.86194Z" fill="white"></path>
    <path d="M12.5038 3.78633C12.7395 3.78633 12.9305 3.60063 12.9305 3.37156C12.9305 3.14249 12.7395 2.95679 12.5038 2.95679C12.2681 2.95679 12.0771 3.14249 12.0771 3.37156C12.0771 3.60063 12.2681 3.78633 12.5038 3.78633Z" fill="black"></path>
    <path d="M12.5038 4.45093C12.6331 4.45093 12.738 4.349 12.738 4.22327C12.738 4.09753 12.6331 3.99561 12.5038 3.99561C12.3744 3.99561 12.2696 4.09753 12.2696 4.22327C12.2696 4.349 12.3744 4.45093 12.5038 4.45093Z" fill="black"></path>
    <path d="M12.5038 5.74779C12.5936 5.74779 12.6664 5.67702 12.6664 5.58971C12.6664 5.50241 12.5936 5.43164 12.5038 5.43164C12.414 5.43164 12.3412 5.50241 12.3412 5.58971C12.3412 5.67702 12.414 5.74779 12.5038 5.74779Z" fill="black"></path>
    <path d="M10.7315 5.91649C10.8213 5.91649 10.8941 5.84572 10.8941 5.75842C10.8941 5.67111 10.8213 5.60034 10.7315 5.60034C10.6417 5.60034 10.5689 5.67111 10.5689 5.75842C10.5689 5.84572 10.6417 5.91649 10.7315 5.91649Z" fill="black"></path>
    <path d="M5.82762 16.9305L5.72189 16.677C5.73706 16.6733 5.74844 16.6697 5.75602 16.666C5.94093 16.5927 6.00921 16.4931 5.9561 16.365C5.92576 16.2954 5.88072 16.2549 5.81624 16.2438C5.77451 16.2365 5.73706 16.2401 5.69533 16.2512C5.6574 16.2623 5.61616 16.277 5.56685 16.2954L5.03772 16.5047C4.92441 16.5489 4.84902 16.589 4.81109 16.6259C4.75419 16.6812 4.74329 16.7471 4.77695 16.8314C4.83005 16.9637 4.96186 16.9858 5.17 16.9047C5.17759 16.901 5.19276 16.8973 5.21173 16.8899L5.31746 17.1434C5.29091 17.1545 5.27194 17.1618 5.25677 17.1655C5.10173 17.2245 4.96565 17.2425 4.85234 17.2135C4.71626 17.1803 4.61433 17.0812 4.54653 16.9231C4.47493 16.754 4.48252 16.6074 4.57308 16.4862C4.61859 16.424 4.67502 16.3724 4.74708 16.3355C4.80777 16.306 4.87936 16.2733 4.96613 16.2365L5.40801 16.0636C5.55926 16.0046 5.67258 15.9719 5.73658 15.9682C5.85749 15.9609 5.95942 15.9977 6.0424 16.071C6.09929 16.1226 6.14813 16.1885 6.18226 16.2729C6.23916 16.4125 6.24295 16.5374 6.19364 16.6475C6.14054 16.7614 6.03481 16.8494 5.87645 16.9121C5.86887 16.9158 5.8499 16.9231 5.82714 16.9305H5.82762ZM6.6929 17.2941L5.45353 18.0651L5.75602 18.5241L5.54836 18.6527L5.09509 17.9624L6.54212 17.0628L6.69337 17.2941H6.6929ZM7.64115 18.4656L7.83364 18.6638L6.98354 19.4348C6.8816 19.5265 6.79863 19.5855 6.73035 19.6113C6.55255 19.6809 6.38661 19.6371 6.23157 19.4753C6.11826 19.3541 6.06895 19.2329 6.08791 19.1044C6.09929 19.0311 6.12584 18.9647 6.17468 18.9099C6.2164 18.8583 6.26523 18.8034 6.32592 18.7481L7.17603 17.9771L7.36853 18.1753L6.48428 18.9832C6.41269 19.0491 6.37096 19.1044 6.35579 19.1523C6.34062 19.2113 6.35579 19.2624 6.40889 19.3177C6.4582 19.3693 6.51462 19.391 6.57531 19.3799C6.62462 19.3726 6.68484 19.332 6.7569 19.2698L7.64115 18.4656ZM7.18409 20.3201L8.17407 18.9573L8.51781 19.1924C8.65009 19.2804 8.73306 19.3795 8.7672 19.4864C8.80513 19.6039 8.78616 19.7214 8.6994 19.839C8.63539 19.9307 8.55195 19.9823 8.45759 20.0007C8.39359 20.0118 8.32152 20.0044 8.23476 19.9749C8.29876 20.0482 8.33669 20.1146 8.35186 20.1731C8.37842 20.2795 8.35566 20.386 8.27648 20.4925C8.18971 20.6137 8.0764 20.6796 7.94412 20.6943C7.81942 20.7054 7.69093 20.6685 7.55486 20.5731L7.18457 20.3196L7.18409 20.3201ZM7.55438 20.2795L7.67149 20.3602C7.74688 20.4118 7.81895 20.4335 7.88295 20.4261C7.94696 20.4187 8.00006 20.3855 8.04179 20.327C8.0873 20.2648 8.10247 20.1947 8.09109 20.1215C8.07592 20.0445 8.03041 19.9781 7.94364 19.9196L7.86067 19.8606L7.55486 20.2791L7.55438 20.2795ZM8.00006 19.6698L8.08303 19.7288C8.15463 19.7767 8.2229 19.7984 8.2907 19.791C8.35471 19.7837 8.4116 19.7505 8.45333 19.6956C8.49126 19.644 8.50264 19.5892 8.48746 19.5339C8.47609 19.4823 8.42678 19.4274 8.35139 19.3758L8.26463 19.3136L8.00006 19.6698ZM9.23943 21.4953L9.80601 19.9196L10.2029 20.0556C10.3541 20.1072 10.4598 20.1805 10.5276 20.2722C10.5992 20.3749 10.6106 20.4961 10.5656 20.6284C10.5276 20.7312 10.4636 20.8049 10.3769 20.8487C10.32 20.8782 10.2446 20.8893 10.1578 20.8819C10.2408 20.9372 10.2977 20.9883 10.328 21.04C10.3849 21.1317 10.392 21.2418 10.347 21.3704C10.2977 21.51 10.2109 21.6054 10.0824 21.6534C9.96911 21.6976 9.83303 21.6939 9.6742 21.6423L9.2399 21.4953H9.23943ZM9.58696 21.3593L9.71924 21.4036C9.8098 21.4331 9.88187 21.4367 9.94208 21.4109C10.0028 21.3851 10.044 21.3414 10.0668 21.275C10.0933 21.2017 10.0895 21.1317 10.0554 21.0658C10.0213 20.9962 9.95346 20.9446 9.85532 20.9114L9.75717 20.8782L9.58696 21.3593ZM9.84015 20.6505L9.93829 20.6837C10.0213 20.7132 10.0933 20.7132 10.1573 20.6874C10.218 20.6616 10.2593 20.6178 10.2858 20.5514C10.3086 20.4925 10.301 20.4376 10.2707 20.386C10.2441 20.3381 10.1839 20.3017 10.0929 20.2722L9.99092 20.239L9.83967 20.6505H9.84015ZM11.272 21.3372L11.1777 22.0128L10.8979 21.976L11.1283 20.3196L11.5664 20.3786C11.7215 20.4007 11.8348 20.4482 11.9102 20.5256C12.0045 20.6247 12.0425 20.757 12.0197 20.9224C11.9894 21.1317 11.8874 21.2676 11.7139 21.3229L11.8765 22.105L11.5816 22.0681L11.438 21.3593L11.2715 21.3372H11.272ZM11.3061 21.0985L11.4081 21.1132C11.4873 21.1243 11.5404 21.1243 11.5783 21.1169C11.6651 21.0948 11.7182 21.0252 11.7371 20.9003C11.7485 20.8086 11.7371 20.7422 11.6954 20.6948C11.6726 20.6653 11.6423 20.6468 11.6048 20.6358C11.5707 20.6247 11.5295 20.6173 11.4839 20.6137L11.382 20.5989L11.3066 21.0985H11.3061ZM13.214 20.4081L13.4938 20.386L13.5805 21.5133C13.5919 21.6492 13.5843 21.7483 13.5654 21.8142C13.5085 21.9939 13.3691 22.0935 13.142 22.1082C12.9755 22.1193 12.8471 22.0787 12.7565 21.987C12.7034 21.9317 12.6697 21.8695 12.6546 21.7999C12.6394 21.7377 12.628 21.664 12.6204 21.5833L12.5337 20.456L12.8134 20.4339L12.9039 21.6054C12.9115 21.7008 12.9305 21.7672 12.9608 21.8073C12.995 21.8552 13.0514 21.8769 13.1273 21.8695C13.2026 21.8658 13.252 21.8363 13.2823 21.7852C13.3051 21.7409 13.3126 21.675 13.3051 21.5796L13.2145 20.4081H13.214ZM14.6383 20.992L15.1333 20.8524L15.3713 21.6455L15.2314 21.6861L15.1447 21.5649C15.1219 21.6202 15.0954 21.664 15.0655 21.6971C15.0162 21.7524 14.9484 21.7925 14.8616 21.8183C14.7521 21.8478 14.6539 21.8441 14.5629 21.8073C14.4686 21.7704 14.3927 21.6934 14.3363 21.5833C14.3097 21.528 14.2756 21.4437 14.2419 21.3298L14.1097 20.8856C14.0641 20.7312 14.0419 20.621 14.0456 20.5551C14.0494 20.4376 14.095 20.3422 14.1817 20.2685C14.2424 20.2169 14.314 20.1805 14.4046 20.1546C14.5971 20.0993 14.7559 20.1325 14.8806 20.2537C14.9446 20.3159 15.0015 20.4229 15.0432 20.5694L14.7711 20.6464C14.7407 20.551 14.7104 20.4846 14.6767 20.4482C14.6198 20.386 14.552 20.3676 14.469 20.3892C14.3937 20.4113 14.3481 20.4551 14.333 20.5178C14.3254 20.5547 14.3254 20.5948 14.333 20.6353C14.3406 20.6722 14.3519 20.7123 14.3671 20.7639L14.5146 21.2561C14.5487 21.3736 14.5861 21.4579 14.6203 21.5059C14.6734 21.5792 14.7488 21.6013 14.8393 21.5755C14.9185 21.5533 14.964 21.5059 14.9754 21.4321C14.983 21.3768 14.9754 21.2999 14.9451 21.2008L14.9261 21.1349L14.7033 21.1971L14.6393 20.9916L14.6383 20.992ZM16.0436 20.445L16.5007 20.2136L16.8937 20.9482L16.7652 21.0141L16.6557 20.9114C16.6443 20.9704 16.6292 21.0178 16.6064 21.0547C16.5685 21.1206 16.5083 21.1722 16.4324 21.2091C16.3343 21.2607 16.2323 21.275 16.1375 21.257C16.0356 21.2386 15.9488 21.1801 15.8691 21.0805C15.8312 21.0326 15.7824 20.9556 15.7255 20.8492L15.5064 20.4413C15.431 20.298 15.3855 20.1952 15.3779 20.1293C15.359 20.0155 15.3855 19.9127 15.4533 19.8247C15.5026 19.7625 15.5666 19.7108 15.6458 19.6703C15.8236 19.5786 15.9858 19.5823 16.1332 19.674C16.2086 19.7256 16.2845 19.8173 16.3561 19.9496L16.1067 20.0781C16.0574 19.9901 16.0161 19.9311 15.9744 19.9016C15.9066 19.8537 15.8345 19.8463 15.7591 19.8832C15.6875 19.9201 15.6534 19.9712 15.6496 20.0339C15.6496 20.0745 15.6572 20.1109 15.6724 20.1477C15.6875 20.1809 15.7065 20.221 15.7293 20.2653L15.9711 20.7169C16.0318 20.827 16.0806 20.904 16.1261 20.9446C16.1939 21.0068 16.2698 21.0141 16.3565 20.9704C16.4281 20.9335 16.4623 20.8787 16.4623 20.8049C16.4585 20.7496 16.4357 20.6763 16.3869 20.5846L16.3565 20.5256L16.1527 20.6284L16.0431 20.445H16.0436ZM17.0791 18.7481L17.2341 18.9352L16.8074 19.262L17.0872 19.6072L17.4006 19.3684L17.5556 19.5555L17.2422 19.7943L17.567 20.1947L17.9937 19.868L18.1487 20.0551L17.5025 20.551L16.4409 19.2398L17.0796 18.7477L17.0791 18.7481ZM17.8007 17.9951L17.933 17.8153L18.6205 18.2854L18.6243 18.2817L18.3033 17.3047L18.447 17.1029L18.7191 17.9513L19.8902 18.0356L19.7465 18.2375L18.7793 18.1642L18.8699 18.4546L19.3535 18.785L19.2212 18.9647L17.8007 17.9951ZM18.5527 16.9153L18.647 16.7024L20.1586 16.9448L20.1623 16.9411L18.9344 16.0521L19.0287 15.8392L20.4416 16.9116L20.3283 17.1688L18.5527 16.9153ZM12.5038 6.2686C13.1424 6.2686 13.7507 6.22804 14.3097 6.15108C14.4762 6.12896 14.4458 6.08886 14.2984 6.06305C13.7166 5.96397 13.1159 5.91235 12.5038 5.91235C11.8917 5.91235 11.2872 5.96397 10.7092 6.06305C10.5618 6.08886 10.5352 6.12896 10.6978 6.15108C11.2568 6.22804 11.8651 6.2686 12.5038 6.2686ZM18.821 13.7935C18.821 17.1867 15.991 19.9339 12.5038 19.9339C9.01659 19.9339 6.18274 17.1867 6.18274 13.7935C6.18274 10.4002 9.0128 7.65301 12.5 7.65301C15.9872 7.65301 18.821 10.4039 18.821 13.7935ZM12.5038 19.1919C15.5643 19.1919 18.0539 16.7715 18.0539 13.7971C18.0539 10.8228 15.5638 8.40236 12.5038 8.40236C9.44378 8.40236 6.95367 10.8228 6.95367 13.7971C6.94987 16.772 9.44378 19.1919 12.5038 19.1919Z" fill="black"></path>
    <path d="M12.5038 18.9614C15.4397 18.9614 17.8197 16.648 17.8197 13.7943C17.8197 10.9406 15.4397 8.6272 12.5038 8.6272C9.56791 8.6272 7.1879 10.9406 7.1879 13.7943C7.1879 16.648 9.56791 18.9614 12.5038 18.9614Z" fill="#0078BF"></path>
    <path d="M13.8299 18.8033C13.4065 18.9097 12.9609 18.965 12.5038 18.965C12.0467 18.965 11.6347 18.9134 11.2265 18.8143L11.2303 18.8107L17.6609 12.5601L17.6647 12.5564C17.7666 12.9532 17.8197 13.3679 17.8197 13.7979C17.8197 14.2279 17.7628 14.6759 17.6533 15.0869L17.6495 15.0906L13.8332 18.8001L13.8295 18.8037L13.8299 18.8033ZM9.4471 18.0249C8.94453 17.6797 8.50644 17.2539 8.15132 16.7654L8.15511 16.7617L15.5529 9.57095L15.5567 9.56358C16.0593 9.90876 16.4974 10.3346 16.8525 10.8231L16.8487 10.8268L9.4509 18.0212L9.4471 18.0249ZM7.33866 15.0353C7.23673 14.6385 7.18362 14.2238 7.18362 13.7938C7.18362 13.3638 7.24052 12.9158 7.35004 12.5048H7.35384L11.1701 8.79533L11.1739 8.79164C11.5973 8.68519 12.0429 8.62988 12.5038 8.62988C12.9646 8.62988 13.3729 8.6815 13.7811 8.78058L13.7773 8.78427L7.34293 15.0312L7.33914 15.0349L7.33866 15.0353Z" fill="black"></path>
    <path d="M11.6537 5.75838C11.7267 5.75838 11.786 5.70081 11.786 5.6298C11.786 5.55879 11.7267 5.50122 11.6537 5.50122C11.5806 5.50122 11.5214 5.55879 11.5214 5.6298C11.5214 5.70081 11.5806 5.75838 11.6537 5.75838Z" fill="black"></path>
    <path d="M10.7391 4.83677C10.6447 4.85521 10.5504 4.87364 10.4518 4.89576C10.2702 4.73032 9.98334 4.44412 9.77946 4.12475C9.57559 3.80906 9.42814 3.10027 9.85485 2.80624C10.0137 2.69978 10.1834 2.65923 10.3423 2.65186V2.65554C9.79084 3.23945 10.1986 4.14641 10.3991 4.422C10.5276 4.60174 10.6447 4.73769 10.7391 4.83677Z" fill="black"></path>
    <path d="M11.0866 4.598C11.0037 4.51735 10.879 4.37771 10.7429 4.18645C10.6599 4.06893 10.5049 3.77859 10.4897 3.48503C10.4745 3.1804 10.6144 2.91218 10.8221 2.79467C11.2753 2.53014 11.6798 2.64765 11.8761 2.73568L11.8798 2.73936C11.6722 2.79467 11.2791 2.95597 11.2184 3.38594C11.1393 3.96248 11.6153 4.52057 11.7888 4.70445H11.785C11.6034 4.7192 11.4261 4.73764 11.2483 4.75976C11.2521 4.75607 11.1464 4.66067 11.0857 4.598H11.0866Z" fill="black"></path>
    <path d="M14.2718 5.91649C14.3616 5.91649 14.4344 5.84572 14.4344 5.75842C14.4344 5.67111 14.3616 5.60034 14.2718 5.60034C14.182 5.60034 14.1092 5.67111 14.1092 5.75842C14.1092 5.84572 14.182 5.91649 14.2718 5.91649Z" fill="black"></path>
    <path d="M13.3501 5.75838C13.4232 5.75838 13.4824 5.70081 13.4824 5.6298C13.4824 5.55879 13.4232 5.50122 13.3501 5.50122C13.2771 5.50122 13.2178 5.55879 13.2178 5.6298C13.2178 5.70081 13.2771 5.75838 13.3501 5.75838Z" fill="black"></path>
    <path d="M14.268 4.83677C14.3624 4.85521 14.4567 4.87364 14.5553 4.89576C14.7369 4.73032 15.0238 4.44412 15.2276 4.12475C15.4315 3.80906 15.579 3.10027 15.1523 2.80624C14.9934 2.69978 14.8237 2.65923 14.6648 2.65186V2.65554C15.2163 3.23945 14.8085 4.14641 14.608 4.422C14.4795 4.60174 14.3624 4.73769 14.268 4.83677Z" fill="black"></path>
    <path d="M13.9167 4.598C13.9997 4.51735 14.1244 4.37771 14.2604 4.18645C14.3434 4.06893 14.4984 3.77859 14.5136 3.48503C14.5288 3.1804 14.3889 2.91218 14.1813 2.79467C13.728 2.53014 13.3236 2.64765 13.1273 2.73568L13.1235 2.73936C13.3311 2.79467 13.7242 2.95597 13.7849 3.38594C13.8641 3.96248 13.388 4.52057 13.2145 4.70445H13.2183C13.3999 4.7192 13.5772 4.73764 13.755 4.75976C13.7512 4.75607 13.8569 4.66067 13.9176 4.598H13.9167Z" fill="black"></path>
    <path d="M8.69135 7.74188C8.69894 7.74556 8.69894 7.74925 8.69135 7.75663C8.64963 7.79718 8.46093 7.96217 8.16223 7.99166C7.86732 8.02116 7.72034 7.93267 7.68241 7.90733C7.67483 7.90364 7.67862 7.89626 7.68241 7.89258C7.73172 7.85571 7.93939 7.6981 8.1774 7.6686C8.44575 7.63542 8.64584 7.72022 8.69135 7.74188ZM5.46066 14.4404C5.46824 14.4367 5.47204 14.4404 5.47204 14.4478C5.47962 14.5068 5.50617 14.7635 5.34355 15.028C5.18471 15.2852 5.01498 15.3548 4.96946 15.3695C4.96188 15.3732 4.95808 15.3695 4.95808 15.3584C4.95429 15.2962 4.9505 15.028 5.07519 14.8114C5.21506 14.5727 5.41514 14.4625 5.46066 14.4404ZM4.12315 14.6644C4.11556 14.6644 4.11177 14.6681 4.11177 14.6755C4.11935 14.7344 4.16866 14.9875 4.39529 15.1971C4.61813 15.4027 4.79593 15.4248 4.84097 15.4248C4.84856 15.4248 4.84856 15.4211 4.84856 15.4101C4.84097 15.3184 4.82959 15.1455 4.58779 14.9179C4.3915 14.7308 4.17577 14.6755 4.12315 14.6644ZM4.05914 13.827C4.05155 13.8233 4.04776 13.827 4.04776 13.8344C4.05155 13.8897 4.0781 14.1427 4.28198 14.3635C4.48206 14.5801 4.65606 14.6169 4.69779 14.6206C4.70537 14.6206 4.70917 14.6169 4.70537 14.6096C4.70537 14.5178 4.70537 14.3487 4.49012 14.11C4.31612 13.9118 4.10845 13.8418 4.05961 13.827H4.05914ZM5.41561 13.7464C5.4232 13.7427 5.42699 13.7464 5.42699 13.7537C5.43079 13.8127 5.42699 14.0657 5.23829 14.3082C5.0567 14.5432 4.88317 14.5948 4.83765 14.6022C4.83007 14.6022 4.82628 14.5985 4.82628 14.5911C4.83007 14.5289 4.85283 14.2681 4.99649 14.0694C5.15911 13.8491 5.36678 13.7648 5.41609 13.7464H5.41561ZM5.38527 12.9786C5.39286 12.9749 5.39665 12.9786 5.39665 12.986C5.39286 13.0413 5.37389 13.2869 5.1776 13.5113C4.98511 13.7279 4.8149 13.7648 4.76938 13.7722C4.76179 13.7722 4.758 13.7685 4.758 13.7611C4.76559 13.7021 4.80731 13.4491 4.95808 13.2689C5.13209 13.0671 5.33596 12.9933 5.3848 12.9786H5.38527ZM5.52134 12.2735C5.52893 12.2735 5.53272 12.2772 5.53272 12.2845C5.52514 12.3398 5.47204 12.5786 5.2492 12.773C5.03015 12.9602 4.85994 12.9786 4.8149 12.9786C4.80731 12.9786 4.80352 12.9749 4.80731 12.9638C4.82248 12.9048 4.89408 12.6666 5.06808 12.5048C5.26058 12.3283 5.47251 12.2845 5.52134 12.2735ZM5.76694 11.6163C5.77453 11.6163 5.77832 11.62 5.77453 11.6274C5.75936 11.679 5.67638 11.9103 5.43458 12.079C5.19657 12.2408 5.03015 12.2408 4.98511 12.2371C4.97752 12.2371 4.97752 12.2297 4.97752 12.2223C5.00028 12.167 5.10222 11.9357 5.29092 11.7965C5.50617 11.6421 5.71763 11.62 5.76694 11.6168V11.6163ZM6.11068 10.9808C6.11827 10.9808 6.12206 10.9845 6.11827 10.9918C6.09172 11.0398 5.97461 11.2564 5.70246 11.3813C5.4379 11.5025 5.26816 11.4693 5.22644 11.4582C5.21885 11.4545 5.21885 11.4508 5.22265 11.4435C5.25299 11.3919 5.39665 11.1826 5.60811 11.0762C5.84233 10.9587 6.05758 10.9734 6.11068 10.9808ZM6.42408 10.4411C6.43167 10.4411 6.43167 10.4485 6.42787 10.4522C6.39753 10.5001 6.25766 10.7093 5.97082 10.8084C5.69108 10.9075 5.52134 10.86 5.47962 10.8453C5.47204 10.8416 5.47204 10.8379 5.47583 10.8305C5.51376 10.7826 5.67591 10.5771 5.90254 10.489C6.15573 10.3973 6.37477 10.4301 6.42408 10.4411ZM6.81713 9.85721C6.82472 9.86089 6.82472 9.86458 6.82092 9.87195C6.78679 9.9162 6.62464 10.1107 6.32594 10.184C6.03862 10.2535 5.87646 10.1913 5.83474 10.1729C5.82716 10.1692 5.82716 10.1655 5.83474 10.1581C5.87646 10.1139 6.06137 9.9268 6.29559 9.86089C6.55636 9.78393 6.76782 9.83877 6.81713 9.85721ZM7.19122 9.24012C7.1988 9.24381 7.1988 9.24749 7.19501 9.25487C7.16087 9.29911 6.99493 9.49359 6.69623 9.56687C6.40512 9.63646 6.23917 9.57424 6.20124 9.55212C6.19366 9.54843 6.19366 9.54475 6.20124 9.53737C6.24296 9.49313 6.42787 9.30602 6.66589 9.24012C6.92665 9.16684 7.14191 9.22537 7.19122 9.24012ZM7.72414 8.71843C7.73172 8.72212 7.73172 8.72581 7.72793 8.73318C7.69 8.77373 7.51267 8.95347 7.21018 9.00508C6.91528 9.05301 6.76071 8.97559 6.72278 8.95347C6.71519 8.94978 6.71519 8.94241 6.72278 8.93872C6.7683 8.89817 6.96458 8.72581 7.20639 8.67788C7.47095 8.62626 7.67862 8.7 7.72414 8.71843ZM8.26464 8.22624C8.27223 8.22992 8.27223 8.23361 8.26464 8.24099C8.22292 8.28154 8.03421 8.44653 7.73551 8.47233C7.44061 8.49814 7.29363 8.41334 7.2557 8.388C7.24811 8.38431 7.25191 8.37694 7.2557 8.37325C7.30501 8.33638 7.51268 8.17877 7.75069 8.14927C8.01904 8.11609 8.21912 8.20458 8.26464 8.22624ZM8.06835 7.52113C8.06456 7.53588 8.07214 7.54325 8.08352 7.53956C8.15132 7.53588 8.36705 7.51744 8.5861 7.37411C8.81273 7.2271 8.8957 7.04368 8.91467 6.99575C8.91846 6.98838 8.91467 6.98469 8.90329 6.981C8.83928 6.97732 8.58989 6.96626 8.35899 7.12802C8.13994 7.28609 8.08305 7.46214 8.06788 7.52113H8.06835ZM4.12362 12.9053C4.11603 12.9016 4.11224 12.9053 4.11224 12.9127C4.10466 12.968 4.07431 13.2136 4.22556 13.4671C4.37301 13.7132 4.53137 13.7828 4.57309 13.7975C4.58068 13.8012 4.58447 13.7975 4.58447 13.7865C4.60344 13.6984 4.64137 13.5367 4.48253 13.2648C4.35025 13.0371 4.16914 12.927 4.12362 12.9048V12.9053ZM4.28245 12.0532C4.27487 12.0495 4.27107 12.0495 4.27107 12.0569C4.2559 12.1122 4.20707 12.3541 4.33508 12.6187C4.45978 12.8795 4.61102 12.9602 4.64848 12.9749C4.65606 12.9786 4.65986 12.9749 4.65986 12.9675C4.68641 12.8832 4.73524 12.7251 4.60675 12.4385C4.49723 12.2034 4.32323 12.0785 4.28198 12.0527L4.28245 12.0532ZM4.56977 11.2601C4.56598 11.2564 4.55839 11.2564 4.55839 11.2637C4.53943 11.3154 4.45646 11.543 4.54702 11.8181C4.63378 12.0864 4.76985 12.1818 4.80778 12.2039C4.81537 12.2076 4.81916 12.2039 4.82296 12.1965C4.86089 12.1159 4.92869 11.9688 4.83813 11.6748C4.75895 11.4361 4.6077 11.2928 4.56977 11.2601ZM4.89455 10.4669C4.89076 10.4632 4.88317 10.4632 4.88317 10.4706C4.86041 10.5222 4.76227 10.7499 4.82628 11.0324C4.89028 11.3117 5.01877 11.4181 5.05291 11.4439C5.06049 11.4476 5.06429 11.4439 5.06808 11.4366C5.1098 11.3596 5.19278 11.2126 5.12498 10.9075C5.06808 10.654 4.92869 10.4996 4.89455 10.4669ZM5.32126 9.77656C5.31747 9.76918 5.31368 9.77287 5.30609 9.77656C5.27575 9.82449 5.14347 10.0337 5.16622 10.3236C5.18898 10.6066 5.29851 10.7315 5.32885 10.7605C5.33264 10.7642 5.33644 10.7642 5.34402 10.7568C5.39712 10.6835 5.50285 10.5549 5.48389 10.2425C5.46492 9.98901 5.34781 9.81665 5.32126 9.7761V9.77656ZM5.74798 9.10094C5.74418 9.09357 5.74039 9.09357 5.7328 9.10094C5.69867 9.14518 5.5588 9.35073 5.56639 9.64429C5.57397 9.92726 5.6797 10.0591 5.71005 10.0886C5.71384 10.0922 5.71763 10.0922 5.72522 10.0849C5.78211 10.0153 5.89164 9.89039 5.88784 9.57793C5.88405 9.32077 5.77832 9.14104 5.74798 9.10048V9.10094ZM6.20124 8.43639C6.19745 8.42901 6.19366 8.42901 6.18607 8.43639C6.15193 8.48063 6.00116 8.68249 6.00116 8.97236C6.00116 9.26224 6.0993 9.39082 6.12965 9.42032C6.13344 9.424 6.13723 9.424 6.14482 9.41663C6.20551 9.35073 6.31882 9.22583 6.32262 8.91337C6.3302 8.6599 6.22827 8.47648 6.20172 8.43593L6.20124 8.43639ZM6.75644 7.83405C6.75265 7.82668 6.74886 7.82668 6.74127 7.83405C6.70334 7.8746 6.5336 8.0654 6.50705 8.35942C6.4805 8.64608 6.56774 8.78894 6.59382 8.82212C6.59761 8.8295 6.6014 8.82581 6.60899 8.81844C6.67679 8.75622 6.80149 8.64193 6.83562 8.32993C6.86217 8.0654 6.77873 7.87829 6.75644 7.83405ZM7.29695 7.30499C7.29315 7.29761 7.28936 7.29761 7.28178 7.30499C7.24005 7.34554 7.07032 7.53265 7.03997 7.82668C7.00963 8.11333 7.09687 8.25619 7.11915 8.29306C7.12294 8.30044 7.12674 8.29675 7.13432 8.29306C7.20212 8.23085 7.32682 8.12024 7.36854 7.80824C7.40268 7.54002 7.31923 7.34923 7.29695 7.30499ZM7.97305 6.87916C7.97305 6.87178 7.96547 6.87178 7.96167 6.87547C7.91236 6.90865 7.70849 7.05889 7.61793 7.33817C7.53117 7.61376 7.58379 7.77137 7.60276 7.80824C7.60655 7.81561 7.61034 7.81561 7.61793 7.80824C7.69711 7.76031 7.84456 7.67598 7.94271 7.37504C8.02947 7.13263 7.98822 6.92708 7.97305 6.87916ZM16.312 7.74234C16.3044 7.74603 16.3044 7.74971 16.312 7.75709C16.3537 7.79764 16.5424 7.96263 16.8411 7.99212C17.136 8.02162 17.283 7.93313 17.3209 7.90779C17.3285 7.9041 17.3247 7.89673 17.3209 7.89304C17.2716 7.85617 17.0639 7.69856 16.8259 7.66906C16.5576 7.63588 16.3575 7.72068 16.312 7.74234ZM19.5427 14.4409C19.5351 14.4372 19.5313 14.4409 19.5313 14.4483C19.5237 14.5072 19.4972 14.7639 19.6598 15.0285C19.8186 15.2856 19.9884 15.3552 20.0339 15.37C20.0415 15.3737 20.0453 15.37 20.0453 15.3589C20.049 15.2967 20.0528 15.0285 19.9281 14.8119C19.7921 14.5731 19.592 14.463 19.5427 14.4409ZM20.8802 14.6649C20.8878 14.6649 20.8916 14.6685 20.8916 14.6759C20.884 14.7349 20.8347 14.9879 20.608 15.1976C20.3852 15.4031 20.2074 15.4253 20.1624 15.4253C20.1548 15.4253 20.1548 15.4216 20.1548 15.4105C20.1624 15.3188 20.1737 15.146 20.4155 14.9183C20.6118 14.7312 20.8276 14.6759 20.8802 14.6649ZM20.948 13.8275C20.9556 13.8238 20.9594 13.8275 20.9594 13.8349C20.9556 13.8902 20.929 14.1432 20.7252 14.3639C20.5251 14.5805 20.3511 14.6174 20.3093 14.6211C20.3018 14.6211 20.3018 14.6174 20.3018 14.61C20.3018 14.5183 20.3018 14.3492 20.517 14.1104C20.691 13.9123 20.8949 13.8422 20.9475 13.8275H20.948ZM19.5915 13.7468C19.5839 13.7431 19.5801 13.7468 19.5801 13.7542C19.5763 13.8132 19.5801 14.0662 19.7688 14.3086C19.9504 14.5437 20.124 14.5953 20.1695 14.6026C20.1771 14.6026 20.1809 14.599 20.1809 14.5916C20.1771 14.5294 20.1543 14.2685 20.0106 14.0699C19.8442 13.8496 19.6403 13.7653 19.591 13.7468H19.5915ZM19.6181 12.979C19.6105 12.9754 19.6067 12.979 19.6067 12.9864C19.6105 13.0417 19.6294 13.2874 19.8257 13.5118C20.0182 13.7284 20.1884 13.7653 20.234 13.7726C20.2415 13.7726 20.2453 13.769 20.2453 13.7616C20.2377 13.7026 20.196 13.4496 20.0453 13.2694C19.875 13.0675 19.6674 12.9938 19.6185 12.979H19.6181ZM19.482 12.2739C19.4744 12.2739 19.4706 12.2776 19.4706 12.285C19.4782 12.3403 19.5313 12.579 19.7541 12.7735C19.9732 12.9606 20.1434 12.979 20.1884 12.979C20.196 12.979 20.1998 12.9754 20.196 12.9643C20.1809 12.9053 20.1093 12.667 19.9353 12.5053C19.7428 12.3288 19.5346 12.285 19.482 12.2739ZM19.2364 11.6168C19.2288 11.6168 19.225 11.6204 19.2288 11.6278C19.244 11.6794 19.327 11.9108 19.5688 12.0795C19.8068 12.2412 19.9732 12.2412 20.0182 12.2375C20.0258 12.2375 20.0258 12.2302 20.0258 12.2228C20.0031 12.1675 19.9011 11.9361 19.7124 11.797C19.4972 11.6426 19.2857 11.6204 19.2364 11.6172V11.6168ZM18.8964 10.9812C18.8889 10.9812 18.8851 10.9849 18.8889 10.9923C18.9154 11.0402 19.0325 11.2568 19.3047 11.3817C19.5692 11.5029 19.739 11.4697 19.7807 11.4587C19.7883 11.455 19.7883 11.4513 19.7845 11.4439C19.7541 11.3923 19.6105 11.1831 19.399 11.0766C19.161 10.9591 18.9458 10.9739 18.8964 10.9812ZM18.5793 10.4416C18.5717 10.4416 18.5717 10.4489 18.5755 10.4526C18.6058 10.5006 18.7457 10.7098 19.0325 10.8089C19.3123 10.908 19.482 10.8605 19.5237 10.8457C19.5313 10.8421 19.5313 10.8384 19.5275 10.831C19.4896 10.7831 19.3274 10.5775 19.1008 10.4895C18.8476 10.3978 18.6324 10.4305 18.5793 10.4416ZM18.1862 9.85767C18.1786 9.86135 18.1786 9.86504 18.1824 9.87242C18.2165 9.91666 18.3787 10.1111 18.6774 10.1844C18.9647 10.254 19.1269 10.1918 19.1686 10.1734C19.1762 10.1697 19.1762 10.166 19.1686 10.1586C19.1269 10.1144 18.942 9.92726 18.7077 9.86135C18.447 9.78439 18.2355 9.83923 18.1862 9.85767ZM17.8121 9.24058C17.8045 9.24427 17.8045 9.24796 17.8083 9.25533C17.8425 9.29957 18.0084 9.49405 18.3071 9.56733C18.5982 9.63692 18.7642 9.5747 18.8021 9.55258C18.8097 9.54889 18.8097 9.54521 18.8021 9.53783C18.7604 9.49359 18.5755 9.30648 18.3375 9.24058C18.0805 9.16731 17.8652 9.22583 17.8121 9.24058ZM17.2792 8.71889C17.2716 8.72258 17.2716 8.72627 17.2754 8.73364C17.3133 8.7742 17.4907 8.95393 17.7932 9.00555C18.0881 9.05347 18.2426 8.97605 18.2806 8.95393C18.2881 8.95024 18.2881 8.94287 18.2806 8.93918C18.235 8.89863 18.0388 8.72627 17.7969 8.67834C17.5362 8.62672 17.3285 8.70046 17.2792 8.71889ZM16.7387 8.2267C16.7311 8.23038 16.7311 8.23407 16.7387 8.24145C16.7804 8.282 16.9691 8.44699 17.2678 8.4728C17.5627 8.4986 17.7097 8.41381 17.7476 8.38846C17.7552 8.38477 17.7514 8.3774 17.7476 8.37371C17.6983 8.33684 17.4907 8.17923 17.2527 8.14974C16.9843 8.11655 16.788 8.20504 16.7387 8.2267ZM16.935 7.52159C16.9388 7.53634 16.9312 7.54371 16.9198 7.54002C16.852 7.53634 16.6363 7.5179 16.4172 7.37458C16.1906 7.22756 16.1076 7.04414 16.0887 6.99621C16.0849 6.98884 16.0887 6.98515 16.1001 6.98147C16.1641 6.97778 16.4134 6.96672 16.6443 7.12848C16.8634 7.28655 16.9241 7.4626 16.9355 7.52159H16.935ZM20.8835 12.9058C20.8911 12.9021 20.8949 12.9058 20.8949 12.9131C20.9025 12.9684 20.9328 13.2141 20.7816 13.4676C20.6341 13.7137 20.4758 13.7832 20.434 13.798C20.4265 13.8017 20.4227 13.798 20.4227 13.7869C20.4037 13.6989 20.3658 13.5371 20.5246 13.2652C20.6531 13.0376 20.838 12.9274 20.8835 12.9053V12.9058ZM20.7247 12.0536C20.7323 12.05 20.7361 12.05 20.7361 12.0573C20.7512 12.1126 20.8001 12.3546 20.672 12.6191C20.5474 12.88 20.3961 12.9606 20.3587 12.9754C20.3511 12.979 20.3473 12.9754 20.3473 12.968C20.3207 12.8836 20.2719 12.7256 20.4004 12.4389C20.5099 12.2039 20.6839 12.079 20.7252 12.0532L20.7247 12.0536ZM20.4374 11.2605C20.4411 11.2568 20.4487 11.2568 20.4487 11.2642C20.4677 11.3158 20.5507 11.5435 20.4601 11.8186C20.3733 12.0868 20.2373 12.1822 20.1993 12.2043C20.1918 12.208 20.188 12.2043 20.1842 12.197C20.1462 12.1163 20.0784 11.9693 20.169 11.6753C20.2444 11.4366 20.3956 11.2932 20.4374 11.2605ZM20.1126 10.4674C20.1164 10.4637 20.124 10.4637 20.124 10.4711C20.1467 10.5227 20.2449 10.7503 20.1809 11.0329C20.1168 11.3121 19.9884 11.4186 19.9542 11.4444C19.9466 11.4481 19.9428 11.4444 19.939 11.437C19.8973 11.3601 19.8144 11.213 19.8822 10.908C19.9353 10.6545 20.0746 10.5001 20.1126 10.4674ZM19.6859 9.77702C19.6897 9.76964 19.6935 9.77333 19.701 9.77702C19.7314 9.82495 19.8637 10.0342 19.8409 10.3241C19.8181 10.607 19.7086 10.7319 19.6783 10.7609C19.6745 10.7646 19.6707 10.7646 19.6631 10.7573C19.61 10.684 19.5043 10.5554 19.5232 10.2429C19.5422 9.98947 19.6555 9.81711 19.6859 9.77656V9.77702ZM19.2554 9.1014C19.2592 9.09403 19.2629 9.09403 19.2705 9.1014C19.3047 9.14565 19.4445 9.35119 19.4369 9.64475C19.4294 9.92772 19.3236 10.0595 19.2933 10.089C19.2895 10.0927 19.2857 10.0927 19.2781 10.0853C19.2212 10.0157 19.1117 9.89085 19.1155 9.57839C19.1231 9.32123 19.2288 9.1415 19.2554 9.10094V9.1014ZM18.8021 8.43685C18.8059 8.42948 18.8097 8.42948 18.8173 8.43685C18.8514 8.48109 19.0022 8.68295 19.0022 8.97282C19.0022 9.2627 18.904 9.39128 18.8737 9.42078C18.8699 9.42446 18.8661 9.42446 18.8585 9.41709C18.7978 9.35119 18.6845 9.2263 18.6807 8.91383C18.6769 8.66036 18.7751 8.47694 18.8016 8.43639L18.8021 8.43685ZM18.2507 7.83451C18.2545 7.82714 18.2583 7.82714 18.2659 7.83451C18.3038 7.87507 18.4735 8.06586 18.5001 8.35989C18.5266 8.64654 18.4394 8.7894 18.4133 8.82259C18.4095 8.82996 18.4057 8.82627 18.3981 8.8189C18.3303 8.75668 18.2056 8.64239 18.1715 8.33039C18.1412 8.06586 18.2284 7.87875 18.2507 7.83451ZM17.7064 7.30545C17.7102 7.29807 17.714 7.29807 17.7216 7.30545C17.7633 7.346 17.933 7.53311 17.9634 7.82714C17.9937 8.11379 17.9065 8.25665 17.8842 8.29352C17.8804 8.3009 17.8766 8.29721 17.869 8.29352C17.8012 8.23131 17.6765 8.1207 17.6348 7.8087C17.6045 7.54048 17.6841 7.34969 17.7064 7.30545ZM17.0303 6.87962C17.0303 6.87224 17.0379 6.87224 17.0417 6.87593C17.091 6.90911 17.2948 7.05935 17.3854 7.33863C17.4722 7.61422 17.4195 7.77183 17.4006 7.8087C17.3968 7.81608 17.393 7.81608 17.3854 7.8087C17.3062 7.76077 17.1588 7.67644 17.0606 7.3755C16.9777 7.13309 17.0151 6.92755 17.0303 6.87962Z" fill="#B48B13"></path>
  </g>
  <defs>
    <clipPath id="clip0_447_240">
      <rect width="21" height="24" fill="white" transform="translate(2)"></rect>
    </clipPath>
  </defs>
</svg>
