<?xml version="1.0" encoding="UTF-8"?>
<svg xmlns="http://www.w3.org/2000/svg" width="24" height="24" viewBox="0 0 24 24" fill="none">
  <g clip-path="url(#clip0_460_332)">
    <path d="M12.0631 24C12.0631 24 6.68703 22.6544 4.72231 20.8491C4.26031 20.424 3.74665 19.8637 3.48087 19.2951C3.07551 18.4271 2.8927 17.6635 2.81868 16.7692C2.74019 15.8448 2.77099 14.7857 2.81868 13.8613C2.82315 13.7573 2.89717 11.7174 2.83607 10.8232C2.77049 9.91603 2.63984 9.1262 2.33929 8.26262C2.09091 7.55543 1.35469 5.92329 0 4.85137C0.853949 4.28275 1.78639 2.93319 1.307 1.48812C3.26726 2.02656 4.55688 0.898218 4.97069 0C6.31247 1.77961 8.49528 2.69515 12.072 2.76443C12.072 2.76443 17.0472 2.88172 19.0512 0.060871C20.306 2.17008 22.3924 1.60145 22.7064 1.49307C22.5628 1.77516 22.2618 3.50676 24.0005 4.86523C22.7849 5.88073 22.001 7.32184 21.7526 8.02903C21.4521 8.89261 21.2777 9.88238 21.1992 10.789C21.0596 12.3514 21.308 15.6369 21.2385 16.5614C21.16 17.6377 20.9116 18.5533 20.5241 19.3738C19.1778 22.212 12.0636 24 12.0636 24H12.0631Z" fill="#207438"></path>
    <path d="M12.0676 23.5661C11.3224 23.3706 6.73074 22.121 5.00993 20.5413C4.45652 20.0291 4.0601 19.5387 3.86437 19.122C3.49825 18.345 3.31544 17.6334 3.24142 16.7391C3.18032 15.9928 3.18032 15.0857 3.24142 13.8876C3.24142 13.8703 3.32438 11.7482 3.25881 10.7975C3.18926 9.7647 3.03228 8.96595 2.74018 8.1286C2.61797 7.78119 1.99105 6.12332 0.657715 4.86483C1.32438 4.24424 1.96025 3.21141 1.84698 2.0222C1.99949 2.03952 3.91206 2.26964 5.01837 0.724609C6.99602 3.34157 15.1038 4.53078 19.0204 0.763705C20.2444 2.21768 22.0308 2.05288 22.1699 2.03556C22.1351 2.78631 22.3616 3.90178 23.3592 4.86978C22.235 5.95061 21.5599 7.2873 21.3507 7.89056C20.9935 8.91498 20.841 10.0126 20.7755 10.755C20.6925 11.6878 20.7407 13.1725 20.7844 14.4785C20.8147 15.351 20.841 16.171 20.8147 16.5357C20.7407 17.521 20.5226 18.393 20.1396 19.1962C19.1247 21.3356 14.0666 23.0499 12.0671 23.5666L12.0676 23.5661Z" fill="#FBDD1A"></path>
    <path d="M20.1923 16.5704C20.1227 17.4993 19.9483 18.2892 19.5037 18.9919C18.7154 20.246 17.225 21.3961 12.0626 22.8763C10.4724 22.4596 7.30553 21.4268 5.58869 20.1727C5.03975 19.7689 4.56037 19.1745 4.39047 18.8187C4.25982 18.5366 4.15103 18.2763 4.0636 18.016L20.1957 10.6338C20.1957 10.66 20.1913 10.6858 20.1868 10.712C20.0999 11.6755 20.152 13.1726 20.1957 14.4919C20.2305 15.351 20.2176 16.2324 20.1913 16.5709L20.1923 16.5704Z" fill="#207637"></path>
    <path d="M21.238 2.43049L3.80328 10.3813C3.68555 9.10552 3.28465 6.59249 1.46399 4.74359C2.00845 4.11014 2.309 3.398 2.35271 2.43891C3.74665 2.46909 4.42226 1.93115 5.0318 1.41895C8.85693 4.78219 16.5633 3.90129 19.003 1.45359C19.6433 2.07863 20.3621 2.36913 21.238 2.43V2.43049Z" fill="#207637"></path>
    <path d="M8.84352 9.76913C8.71287 9.80378 8.58669 9.85574 8.46449 9.9082L6.49976 10.7762V15.2376L8.14655 14.4953C8.88724 14.1132 9.462 13.6273 9.85445 13.0586C10.2469 12.49 10.4471 11.8432 10.4471 11.136C10.4426 10.2116 10.081 9.42172 8.84402 9.76913H8.84352ZM7.95927 13.701L7.55837 13.8613V11.1053L8.34675 10.7668C8.69101 10.6193 9.14854 10.7797 9.27919 11.1444C9.63637 12.1471 8.88724 13.3318 7.95927 13.7005V13.701Z" fill="#207637"></path>
    <path d="M11.8674 13.1938L11.8629 12.6989C11.8629 12.6989 12.5425 12.4341 12.5425 12.1392C12.547 12.0565 12.5335 11.9699 12.4988 11.8917L11.8455 10.4076L12.6384 10.03L12.9911 10.8461L13.2787 9.73058L14.0323 9.37476C13.9712 9.61329 13.9061 9.85232 13.845 10.0909C13.7362 10.4986 13.6274 10.9069 13.5226 11.3147C13.4486 11.5923 13.392 11.8744 13.2698 12.1308C13.1565 12.3738 12.9866 12.591 12.7775 12.7642C12.5162 12.981 12.1982 13.129 11.8669 13.1938H11.8674Z" fill="#207637"></path>
    <path d="M17.5872 5.66797V8.78823C17.5872 10.0423 16.7158 10.8019 15.5787 11.0147V10.1596C15.5787 10.1596 16.4804 10.0942 16.5241 9.31775V6.1975L17.5872 5.66797Z" fill="#207637"></path>
  </g>
  <defs>
    <clipPath id="clip0_460_332">
      <rect width="24" height="24" fill="white"></rect>
    </clipPath>
  </defs>
</svg>
