<?xml version="1.0" encoding="UTF-8"?>
<svg xmlns="http://www.w3.org/2000/svg" width="24" height="24" viewBox="0 0 24 24" fill="none">
  <g clip-path="url(#clip0_459_308)">
    <path d="M2.5 18.2728C2.53227 18.3253 2.53873 18.6014 2.55809 18.6872C2.64845 19.1213 2.70055 19.358 2.93982 19.7391C3.14683 20.0611 3.55438 20.4361 3.95501 20.6269C4.37547 20.8242 4.94439 20.9686 5.4423 21.0347C5.5783 21.0544 5.72675 21.0609 5.86921 21.0741C6.34131 21.1266 6.71013 21.1528 7.18223 21.1922C7.75114 21.2381 8.3076 21.2841 8.8507 21.4092C9.22598 21.4945 9.21307 21.4748 9.58789 21.6197C9.90462 21.7448 9.93043 21.7247 10.2541 21.9089C10.4934 22.0406 10.7455 22.2113 10.9332 22.4152C10.9784 22.4611 11.0106 22.4742 11.0563 22.5267C11.2504 22.7306 11.3149 22.8291 11.4703 23.0658C11.5348 23.1642 11.5998 23.2631 11.6579 23.355L11.9811 23.9995H11.9876C12.0715 23.8219 12.3822 23.3156 12.4984 23.1314C12.5629 23.0264 12.6925 22.8291 12.7828 22.7302C12.9576 22.5328 13.1581 22.3289 13.3711 22.1648C14.2249 21.5334 15.4278 21.2967 16.5919 21.2573C16.8763 21.2442 17.1737 21.2311 17.4586 21.2114C18.1442 21.1589 18.3963 21.1983 19.1529 21.0862C19.8255 20.9878 20.6466 20.6916 21.0025 20.1722C21.0671 20.0803 21.1256 20.0011 21.1902 19.9027C21.2483 19.8042 21.2999 19.7053 21.3391 19.5938C21.4036 19.4161 21.4424 19.2187 21.4751 19.035C21.488 18.9759 21.4816 18.8639 21.5009 18.8245V0H2.5V18.2728Z" fill="#D9B160"></path>
    <path d="M2.88173 18.1679C2.87527 18.3783 2.94627 18.7463 2.99791 18.9371C3.056 19.1607 3.16618 19.3908 3.27591 19.5488C3.47646 19.8446 3.84482 20.1802 4.26528 20.3312C5.29983 20.7062 5.40357 20.6072 6.28321 20.7324L6.89777 20.7783C7.04023 20.7783 7.16931 20.8046 7.31177 20.8112L8.10705 20.8899C8.35923 20.9293 8.61787 20.9555 8.8636 21.0151C9.10288 21.0741 9.34861 21.1069 9.56206 21.1993C9.77552 21.2846 10.0019 21.3507 10.196 21.4491C10.6616 21.6858 10.6358 21.6858 11.0042 21.9619C11.1074 22.0407 11.1337 22.0871 11.237 22.179C11.5085 22.4091 11.722 22.7508 11.9161 23.0602C11.9355 23.0865 11.9419 23.0996 11.9613 23.1258C11.9806 23.1521 11.9871 23.1783 12.0194 23.198C12.0387 23.1455 12.3038 22.7443 12.349 22.6787C12.485 22.501 12.6012 22.3632 12.7436 22.2183C13.3319 21.6202 14.1406 21.2452 15.0008 21.0676C15.4794 20.9691 15.9967 20.8833 16.501 20.8768C17.0377 20.8637 17.5812 20.8046 18.1114 20.7915C18.5448 20.7849 19.2239 20.7193 19.6116 20.5941C20.0579 20.4493 20.4784 20.2524 20.6854 19.9627C20.8015 19.8047 20.9246 19.6472 21.0021 19.4237C21.0408 19.3055 21.0602 19.2066 21.086 19.0819C21.0989 19.0229 21.1118 18.9638 21.1183 18.9043C21.1247 18.8321 21.1118 18.7726 21.1247 18.6938L21.1312 0.388184H2.88173V18.1679Z" fill="#E30F13"></path>
    <path d="M20.6854 0.848389H3.33447V4.12964H20.6854V0.848389Z" fill="#FDFEFF"></path>
    <path d="M10.7004 21.1724C10.7004 21.1986 11.0106 21.396 11.0563 21.4288C11.1794 21.5141 11.2891 21.6064 11.4053 21.7049C11.5085 21.7968 11.9677 22.2505 11.9935 22.3625C12.0065 22.356 12.4656 21.83 12.5689 21.7508C12.6786 21.6655 12.7759 21.5666 12.8921 21.4813C12.9373 21.4485 13.2411 21.2643 13.2411 21.2314V4.60254H10.6994V21.1724H10.7004Z" fill="#FDFEFF"></path>
    <path d="M15.7832 20.4754C15.8736 20.4754 15.9902 20.4557 16.087 20.4425C16.1774 20.4294 16.3069 20.436 16.3973 20.4163C16.5135 20.3966 16.9146 20.3769 17.0377 20.3769C17.4581 20.3769 17.9109 20.3179 18.3244 20.3179V4.60254H15.7827V20.4754H15.7832Z" fill="#FDFEFF"></path>
    <path d="M5.59122 20.1993L8.13933 20.436V4.60254H5.59122V20.1993Z" fill="#FDFEFF"></path>
    <path d="M5.00293 2.27489H5.72075C5.96003 2.27489 6.15412 2.18302 6.15412 1.9463C6.15412 1.77521 6.01166 1.62427 5.8503 1.62427H5.00293V2.27536V2.27489Z" fill="#FDFEFF"></path>
    <path d="M4.62122 1.15723H6.09559V1.67004H5.13204V2.16316H6.09559V2.66941H5.13204V3.3927H6.09559V3.90551H4.62122V1.15723ZM6.7876 3.36645C6.86505 3.36645 6.93651 3.3927 6.98815 3.45176C7.04624 3.51082 7.07206 3.57691 7.07206 3.65566C7.07206 3.73441 7.04624 3.80707 6.98815 3.86613C6.93006 3.9252 6.86505 3.95145 6.7876 3.95145C6.71015 3.95145 6.63869 3.9252 6.58705 3.86613C6.52896 3.80707 6.50314 3.74098 6.50314 3.65566C6.50314 3.57691 6.52896 3.50426 6.58705 3.45176C6.64514 3.39926 6.71015 3.36645 6.7876 3.36645ZM14.0696 1.15723H14.5804V3.40582H15.337V3.90551H14.0696V1.15723ZM15.9451 3.36645C16.0225 3.36645 16.094 3.3927 16.1456 3.45176C16.2037 3.51082 16.2295 3.57691 16.2295 3.65566C16.2295 3.73441 16.2037 3.80707 16.1456 3.86613C16.0875 3.9252 16.0225 3.95145 15.9451 3.95145C15.8676 3.95145 15.7961 3.9252 15.7445 3.86613C15.6864 3.80707 15.6606 3.74098 15.6606 3.65566C15.6606 3.57691 15.6864 3.50426 15.7445 3.45176C15.7961 3.39926 15.8676 3.36645 15.9451 3.36645ZM16.7795 1.15723H17.3226C17.62 1.15723 17.9501 1.18348 18.0792 1.24254C18.2087 1.29504 18.312 1.38738 18.3894 1.51207C18.4669 1.63723 18.4992 1.7816 18.4992 1.95926C18.4992 2.40645 18.4411 2.84051 17.9496 2.98488C17.8528 3.01113 17.5485 3.02426 17.2899 3.02426V3.90551H16.7791V1.15723H16.7795ZM17.2903 2.51848H17.4522C17.6527 2.51848 17.9823 2.45285 18.0017 2.20301C18.0082 2.11113 18.0017 1.99254 18.0017 1.95973C18.0017 1.85473 17.963 1.77551 17.8786 1.72957C17.8205 1.69676 17.5877 1.67707 17.4323 1.67707H17.2834L17.2899 2.51848H17.2903ZM19.1013 3.36691C19.1787 3.36691 19.2502 3.39316 19.3018 3.45223C19.3599 3.51129 19.3857 3.57738 19.3857 3.65613C19.3857 3.73488 19.3599 3.80754 19.3018 3.8666C19.2437 3.92566 19.1787 3.95191 19.1013 3.95191C19.0238 3.95191 18.9524 3.92566 18.9007 3.8666C18.8426 3.80754 18.8168 3.74145 18.8168 3.65613C18.8168 3.57738 18.8426 3.50473 18.9007 3.45223C18.9588 3.39973 19.0238 3.36691 19.1013 3.36691ZM9.90463 1.40051H10.3509V3.89895H9.90463V3.71473C9.82072 3.80004 9.7299 3.85957 9.64599 3.89238C9.55563 3.93176 9.46481 3.94488 9.36153 3.94488C9.12871 3.94488 8.93462 3.85301 8.76634 3.67535C8.59807 3.4977 8.51416 3.2741 8.51416 3.00457C8.51416 2.73504 8.59807 2.49832 8.75989 2.32066C8.92171 2.14301 9.11534 2.0577 9.34816 2.0577C9.45789 2.0577 9.55517 2.07738 9.64553 2.11676C9.73589 2.15613 9.82671 2.22176 9.90417 2.30098V1.40004L9.90463 1.40051ZM9.43899 2.47207C9.30298 2.47207 9.1868 2.52457 9.09644 2.62348C9.00608 2.72191 8.96044 2.84707 8.96044 3.00504C8.96044 3.16301 9.00562 3.2877 9.1029 3.3866C9.19326 3.48504 9.3099 3.53801 9.44544 3.53801C9.58099 3.53801 9.70408 3.48551 9.79444 3.3866C9.8848 3.28816 9.93045 3.15645 9.93045 2.99848C9.93045 2.84051 9.88527 2.71582 9.79444 2.61691C9.69763 2.51848 9.58099 2.47207 9.43853 2.47207H9.43899ZM12.5754 3.12973H11.1462C11.1655 3.26145 11.2236 3.35988 11.308 3.43863C11.3984 3.51738 11.5086 3.5502 11.6506 3.5502C11.8188 3.5502 11.9608 3.49113 12.0775 3.37254L12.4527 3.5502C12.3624 3.68848 12.2457 3.78691 12.1167 3.85254C11.9871 3.91816 11.8322 3.95098 11.651 3.95098C11.373 3.95098 11.1466 3.8591 10.9719 3.68145C10.7972 3.50379 10.7133 3.2802 10.7133 3.01066C10.7133 2.74113 10.8036 2.51098 10.9719 2.32676C11.1466 2.14254 11.3666 2.05723 11.6252 2.05723C11.9032 2.05723 12.1296 2.1491 12.3043 2.32676C12.479 2.51098 12.5694 2.7477 12.5694 3.04348L12.5758 3.12879L12.5754 3.12973ZM12.1356 2.77488C12.1033 2.67645 12.0452 2.59723 11.9608 2.5316C11.8769 2.47254 11.7732 2.43973 11.657 2.43973C11.5339 2.43973 11.4242 2.47254 11.3274 2.54473C11.2693 2.59066 11.2176 2.66285 11.1655 2.77488H12.1356Z" fill="#E30613"></path>
  </g>
  <defs>
    <clipPath id="clip0_459_308">
      <rect width="19" height="24" fill="white" transform="translate(2.5)"></rect>
    </clipPath>
  </defs>
</svg>
