<?xml version="1.0" encoding="UTF-8"?>
<svg xmlns="http://www.w3.org/2000/svg" width="24" height="24" viewBox="0 0 24 24" fill="none">
  <g clip-path="url(#clip0_441_76)">
    <path d="M12 24C8.90371 22.7814 6.42114 21.0978 4.68895 18.7604C2.88914 16.3317 2 13.2005 2 8.84198V0H22V8.84198C22 13.2005 21.111 16.3316 19.311 18.7604C17.5789 21.0978 15.0963 22.7814 12 24Z" fill="black"></path>
    <path d="M12 23.3079C10.6099 22.7471 9.34134 22.0903 8.21715 21.3H15.7827C14.6586 22.0903 13.39 22.7471 11.9999 23.3079H12ZM5.27181 18.4501C4.67801 17.6412 4.17496 16.7397 3.77296 15.7297H20.227C19.825 16.7397 19.3219 17.6412 18.7281 18.4501H5.27181ZM2.90943 12.5559C2.77258 11.7279 2.68543 10.8441 2.65077 9.90023H21.3492C21.3146 10.8441 21.2276 11.7279 21.0906 12.5559H2.90943ZM12.3277 3.70786H21.3669V6.83155H12.3277V3.70786ZM2.63315 0.640137H11.6928V9.26255H2.63315V0.640137Z" fill="#CD3529"></path>
    <path d="M8.67001 8.8739C8.45049 8.80343 8.18182 8.19973 8.1923 7.90941V7.86716C7.96058 7.47037 7.7002 7.09133 7.41325 6.73313L7.41449 8.00954C7.39896 8.43937 7.29515 8.71356 6.98754 8.86266C7.23887 8.89876 7.62401 8.95099 7.85325 8.60604C7.91649 8.7559 8.35001 8.98623 8.66992 8.8739H8.67001ZM9.44877 6.02843C9.52763 6.20739 9.5803 6.52009 9.09354 6.91477C9.68573 6.83633 9.95573 6.61504 9.98068 6.325C10.0272 5.78563 9.84954 5.78169 9.9723 5.05598C10.0141 4.80856 10.1651 4.63748 10.4316 4.42127C9.87706 4.50528 9.54106 4.78187 9.3663 5.3969L8.19382 5.39296L8.19335 3.29443L8.56135 3.29405C8.52725 3.06229 8.45973 2.83533 8.31954 2.58244L7.75668 2.58225C7.47325 2.581 7.34773 2.4705 7.07344 2.56996C7.27258 2.68748 7.41649 2.84397 7.41639 3.01966L7.41677 5.43607C7.67887 5.57173 7.95201 5.79043 8.1662 6.02834L9.44877 6.02853V6.02843ZM9.95058 3.29309L10.5507 3.29251C10.5507 3.62931 10.9358 4.30136 11.5101 4.31922C11.2207 3.89995 11.1053 3.6079 11.2341 3.03435C11.5194 2.28501 11.2965 1.68794 10.9613 1.6049C11.0245 1.81477 11.0664 2.42643 10.7205 2.58369L9.60582 2.58321C9.71306 2.94353 9.87058 3.23433 9.95068 3.29309H9.95058ZM7.23735 7.59662C4.86782 8.45281 3.81182 7.28978 3.16306 5.5628C3.06944 5.3416 3.06477 5.19269 2.80649 5.02583C3.09611 4.93222 3.14582 4.75374 3.19106 4.5697C3.35068 3.40254 4.07163 2.41203 5.19849 2.05364V2.6293C4.4002 3.03233 3.96963 4.10272 4.00011 5.09956C4.03468 6.22928 5.08163 7.40239 6.13982 7.37609C6.48858 7.36745 6.88373 7.32616 7.2383 7.05984L7.23725 7.59671L7.23735 7.59662ZM6.33677 1.86633C6.50944 1.85519 6.69382 1.84837 6.89144 1.84492C6.8463 2.09972 6.7582 3.08715 7.1523 3.4202C7.07735 3.58265 6.87192 3.76401 6.67487 3.7594C6.54135 3.75623 6.50049 3.69411 6.43144 3.59532C6.39839 3.54799 6.36687 3.4996 6.33677 3.45025V1.86633ZM6.15411 5.9594L6.15173 7.18916C6.05506 7.19972 5.95735 7.19502 5.86211 7.17524C5.7363 7.15057 5.55449 7.10247 5.37573 6.98985L5.3763 1.85231C5.3763 1.53625 5.14087 1.25073 4.7423 1.09059C5.12915 0.838087 5.86963 1.07167 5.99039 1.35461C6.37944 1.10278 6.83982 0.981522 7.29649 0.986226C8.16858 0.995059 9.02773 1.463 9.35325 2.35798C9.52496 2.83024 9.60935 3.31354 9.95706 3.49173C9.8662 3.54069 9.78706 3.60895 9.72506 3.69181C9.54601 3.92559 9.43335 4.281 9.14201 4.71467C9.01849 4.89804 8.87477 5.06673 8.71363 5.21746H8.36935V4.80271C8.61277 4.40553 8.74516 3.91032 8.73935 3.42798C8.73087 2.72617 8.19001 1.64887 6.95077 1.57763C6.59611 1.55737 6.29211 1.66644 6.15411 1.75505V5.31308C6.87811 5.31308 7.40382 5.5723 7.79449 5.91793C8.16877 6.24896 8.43116 6.67619 8.66258 7.11552C8.99458 7.7461 9.22192 8.29689 9.62735 8.28432C9.93125 8.26963 10.0729 8.12245 10.2046 7.93024C10.3396 8.55957 9.85973 8.82292 9.56258 8.82887C9.2463 8.8354 8.8703 8.56562 8.6263 8.21433C8.26239 7.69041 7.9083 6.94588 7.40201 6.45615C6.83544 5.90842 6.43658 5.95864 6.15392 5.9594H6.15411ZM6.22363 8.04526C6.30716 8.3858 6.47144 8.79152 6.75935 8.97307C6.01277 8.9651 5.95754 8.70425 5.85125 8.58818C5.67192 8.76896 5.39811 9.06438 4.83011 9.00783C5.1502 8.70752 5.28896 8.4073 5.34392 8.03691C5.62268 8.08011 5.96363 8.09125 6.22373 8.04535L6.22363 8.04526Z" fill="white"></path>
  </g>
  <defs>
    <clipPath id="clip0_441_76">
      <rect width="20" height="24" fill="white" transform="translate(2)"></rect>
    </clipPath>
  </defs>
</svg>
