<?xml version="1.0" encoding="UTF-8"?>
<svg xmlns="http://www.w3.org/2000/svg" width="24" height="24" viewBox="0 0 24 24" fill="none">
  <g clip-path="url(#clip0_441_103)">
    <path fill-rule="evenodd" clip-rule="evenodd" d="M12.0012 23.8731C22.7372 17.184 21.8537 4.14043 21.8537 4.14043C15.4667 3.20408 12.0012 0.127075 12.0012 0.127075H11.9986C11.9986 0.127075 8.53333 3.20408 2.14618 4.14053C2.14618 4.14053 1.26281 17.1841 11.9987 23.8732H12.0013L12.0012 23.8731Z" fill="white"></path>
    <path fill-rule="evenodd" clip-rule="evenodd" d="M10.3679 16.5151C10.8663 17.4514 11.1833 17.5407 11.1833 17.5407V15.5656C10.9098 15.5232 10.6378 15.4716 10.3679 15.4106V16.5151ZM10.3679 14.4504C10.6347 14.5475 10.9071 14.6296 11.1833 14.6964V11.991L10.3679 11.9932V14.4504ZM9.4167 14.0103V11.9956L7.43369 12.001C7.66881 12.4729 8.23108 13.3362 9.4167 14.0103Z" fill="#37754D"></path>
    <path fill-rule="evenodd" clip-rule="evenodd" d="M15.0336 12.3679C15.0336 12.3679 15.668 12.3679 15.668 12.903C15.668 12.903 15.804 13.5718 14.9885 13.5718C14.9885 13.5718 14.309 13.5718 14.3542 12.9476V11.9823L13.7653 11.9839V13.1708C13.7653 13.1708 14.3089 12.9923 14.3089 13.7503C14.3089 13.7503 14.3543 14.3746 13.6746 14.3746C13.6746 14.3746 13.0857 14.5085 13.0857 13.7951V11.9858L12.1345 11.9884V14.8743C12.4204 14.912 12.7213 14.9396 13.0406 14.9544C13.0406 14.9544 15.4866 15.1772 18.2501 13.8396V14.5085C18.2501 14.5085 16.5738 15.668 13.0859 15.7125C13.0859 15.7125 12.7153 15.7232 12.1347 15.6774V18.076C12.6331 18.7003 13.3126 18.7894 13.3126 18.7894C13.1767 18.1204 13.5392 18.0313 13.5392 18.0313C14.4451 17.7192 14.3091 18.5216 14.3091 18.5216C14.3998 19.5474 13.4486 19.4581 13.4486 19.4581C10.4587 19.2353 9.55285 17.2285 9.55285 17.2285L9.09987 17.3624L8.82805 16.6934L9.417 16.3813V15.1497C7.90472 14.6566 6.33226 13.7324 5.56957 12.0062L3.97876 12.0098C5.02059 15.5209 7.47077 20.1619 11.9991 22.9832H12.0015C16.5482 20.1505 18.998 15.4876 20.0346 11.9673L15.0339 11.9804V12.3676H15.0336V12.3679Z" fill="#37754D"></path>
    <path fill-rule="evenodd" clip-rule="evenodd" d="M14.3541 10.6288H13.7653V11.3596L14.3541 11.3579V10.6288ZM13.0857 10.6288H12.1345V11.364L13.0857 11.3614V10.6288ZM11.1832 9.09094C10.9221 9.15768 10.647 9.24322 10.3678 9.35106V11.3689L11.1832 11.3666V9.09094ZM9.4166 9.81209C8.80723 10.1775 8.23117 10.683 7.78751 11.3758L9.4166 11.3714V9.81219V9.81209Z" fill="#B4322C"></path>
    <path fill-rule="evenodd" clip-rule="evenodd" d="M9.41658 8.79746V8.26528L8.60124 7.55166L9.09945 6.74899L9.73361 7.15043C10.2186 6.96204 10.7057 6.82523 11.1832 6.72736V6.2586L10.232 5.50046L10.7756 4.83147L11.138 5.14375H14.9885L15.5773 4.65316L16.0302 5.09902L15.5773 5.99095V6.72707C16.0061 6.80869 16.2568 6.88267 16.2568 6.88267L16.6645 6.34756L17.2533 6.83815L16.9815 7.23948V8.7179C17.4465 8.86097 17.8731 9.03487 18.2046 9.24616V10.0043C18.2046 10.0043 17.389 9.55462 16.0735 9.21494C16.0782 9.26338 16.0757 9.29088 16.0757 9.29088C16.1662 9.91525 15.4414 9.60297 15.4414 9.60297C15.2946 9.58232 15.1286 9.29362 14.9926 8.98976C14.3977 8.89415 13.7428 8.83426 13.0407 8.84473C13.0407 8.84473 12.6802 8.83621 12.1346 8.90785V9.73665H15.0337V11.3559L20.2082 11.3426C21.129 7.83928 21.215 4.81581 21.215 4.81581C15.5944 3.9917 12.0012 1.28394 12.0012 1.28394H11.9987C11.9987 1.28394 8.6777 3.9917 3.05699 4.81581C3.05699 4.81581 2.86977 7.86218 3.80361 11.386L5.68627 11.3816C6.07053 10.7661 7.07439 9.58535 9.41668 8.79756L9.41658 8.79746Z" fill="#B4322C"></path>
    <path fill-rule="evenodd" clip-rule="evenodd" d="M10.3679 8.51938C10.6255 8.45499 10.8987 8.39627 11.1833 8.34205V7.62922C10.6683 7.79334 10.3679 7.95315 10.3679 7.95315V8.51938ZM14.7166 8.24801V7.39229C13.7377 7.21438 12.8496 7.26664 12.1345 7.39454V8.18997C12.4507 8.1478 12.7679 8.11335 13.0857 8.08692C13.0857 8.08692 13.7947 8.12245 14.7166 8.24801ZM14.7166 6.59706V6.03552H12.1345V6.57944C13.1121 6.47463 14.0097 6.51574 14.7166 6.59706ZM16.1661 8.50382V7.81927C15.9731 7.73932 15.7767 7.66788 15.5773 7.60505V8.35429C15.5901 8.36681 15.5984 8.37817 15.6105 8.39059C15.7948 8.42475 15.9807 8.46233 16.1661 8.50382Z" fill="#B4322C"></path>
    <path fill-rule="evenodd" clip-rule="evenodd" d="M11.9987 0.220093H12.1986L12.3448 0.34989L12.3449 0.349999L12.3453 0.350374L12.3454 0.350458C12.3463 0.351184 12.3479 0.352603 12.3503 0.354695C12.3551 0.358879 12.3631 0.365756 12.3743 0.375175C12.3966 0.394015 12.4315 0.42302 12.4788 0.460993C12.5736 0.536945 12.7182 0.648723 12.9116 0.78675C13.2984 1.06286 13.8801 1.44364 14.6485 1.85275C16.1853 2.67093 18.4671 3.60141 21.4307 4.0359L21.8408 4.09602L21.8685 4.50424L21.3551 4.5381C21.8685 4.50424 21.8685 4.50449 21.8685 4.5048L21.8687 4.50818C21.8688 4.51024 21.869 4.51306 21.8692 4.51662C21.8697 4.52373 21.8703 4.53381 21.871 4.54679C21.8724 4.57276 21.8742 4.61031 21.8761 4.65889C21.88 4.75604 21.8842 4.89735 21.8857 5.07829C21.8888 5.4401 21.8815 5.96083 21.8404 6.60427C21.7581 7.89026 21.5402 9.67141 20.9971 11.6561C19.9112 15.6245 17.5151 20.4373 12.2759 23.7016L12.0014 23.2726V23.7799H11.85L11.7242 23.7015C6.48489 20.4372 4.08879 15.6245 3.00283 11.6561C2.45972 9.67137 2.24182 7.89024 2.15954 6.60425C2.11837 5.96082 2.11107 5.4401 2.11419 5.07829C2.11575 4.89735 2.11992 4.75604 2.12377 4.65889C2.12569 4.61031 2.12754 4.57275 2.12894 4.54679C2.12964 4.53381 2.13023 4.52373 2.13067 4.51661C2.13088 4.51306 2.13106 4.51024 2.13119 4.50818L2.13136 4.50564L2.13141 4.5048C2.13143 4.50449 2.13145 4.50424 2.64478 4.5381L2.13145 4.50424L2.1591 4.09601L2.56918 4.0359C5.53299 3.60141 7.81475 2.67093 9.35153 1.85275C10.1199 1.44365 10.7016 1.06286 11.0885 0.786755C11.2819 0.648728 11.4264 0.536951 11.5212 0.461C11.5685 0.423028 11.6034 0.394023 11.6257 0.375184C11.6369 0.365765 11.6449 0.358888 11.6497 0.354705C11.6521 0.352613 11.6537 0.351194 11.6545 0.350468L11.6549 0.350163C11.6548 0.350268 11.6546 0.350384 11.9987 0.727697V0.220093ZM12 1.38198C11.9134 1.44817 11.8104 1.52462 11.6915 1.60955C11.2719 1.90897 10.6521 2.31407 9.84007 2.74642C8.29072 3.57129 6.03976 4.49621 3.14449 4.97421C3.14391 5.00961 3.14344 5.0472 3.1431 5.08693C3.14016 5.42715 3.14697 5.92351 3.18643 6.54026C3.26541 7.77465 3.47488 9.48632 3.99619 11.3913C5.01969 15.1315 7.23567 19.5877 12.0001 22.6693C16.7644 19.5877 18.9803 15.1316 20.0037 11.3914C20.525 9.48636 20.7345 7.77468 20.8135 6.54028C20.8529 5.92352 20.8597 5.42716 20.8568 5.08693C20.8565 5.0472 20.856 5.00961 20.8554 4.97421C17.9603 4.4962 15.7094 3.57129 14.16 2.74642C13.3479 2.31407 12.7281 1.90897 12.3086 1.60955C12.1896 1.52463 12.0867 1.44818 12 1.38198Z" fill="white"></path>
    <path fill-rule="evenodd" clip-rule="evenodd" d="M11.9986 0H12.0013V0.127026C12.0873 0.0326685 12.0873 0.0326485 12.0873 0.0326402L12.0873 0.032682L12.0876 0.0329752L12.0892 0.0343931C12.0907 0.0357054 12.0931 0.0377484 12.0963 0.0405024C12.1026 0.0460103 12.1123 0.0543616 12.1254 0.0653974C12.1515 0.0874693 12.191 0.120278 12.2437 0.162552C12.3492 0.247101 12.5076 0.369502 12.7179 0.519589C13.1385 0.819774 13.7665 1.23062 14.5934 1.67086C16.2472 2.55134 18.6962 3.54916 21.8726 4.01483L21.9752 4.02986L21.9821 4.13192L21.8537 4.14038C21.9821 4.13192 21.9821 4.13202 21.9821 4.13217L21.9823 4.13472C21.9824 4.13644 21.9825 4.13895 21.9827 4.14224C21.9831 4.14882 21.9837 4.15852 21.9844 4.17125C21.9858 4.19672 21.9876 4.23435 21.9896 4.28354C21.9935 4.38194 21.9977 4.52661 21.9994 4.71283C22.0026 5.08526 21.9951 5.62395 21.9524 6.29096C21.8671 7.62476 21.6409 9.47292 21.0777 11.5314C19.9511 15.6481 17.4736 20.6136 12.0699 23.9804L12.0015 23.8734V24H11.9988V23.873L11.9301 23.9803C6.52646 20.6135 4.04894 15.648 2.92242 11.5313C2.35912 9.47282 2.13299 7.62466 2.04765 6.29086C2.00497 5.62385 1.99748 5.08516 2.00069 4.71274C2.00229 4.52652 2.00657 4.38184 2.01047 4.28345C2.01242 4.23425 2.01427 4.19662 2.01565 4.17115C2.01633 4.15842 2.0169 4.14873 2.0173 4.14215C2.0175 4.13886 2.01766 4.13634 2.01777 4.13462L2.0179 4.13263L2.01794 4.13208C2.01795 4.13192 2.01796 4.13182 2.14629 4.14029L2.01796 4.13182L2.02487 4.02977L2.12739 4.01474C5.30391 3.54901 7.75282 2.5512 9.4066 1.67073C10.2335 1.23049 10.8615 0.819655 11.2821 0.519478C11.4923 0.369395 11.6507 0.246998 11.7562 0.162451C11.8089 0.120178 11.8484 0.0873705 11.8746 0.0652994C11.8876 0.054264 11.8973 0.0459129 11.9037 0.0404052C11.9069 0.0376514 11.9092 0.0356084 11.9107 0.0342962C11.9114 0.0336401 11.912 0.0331667 11.9123 0.0328784L11.9126 0.0325852L11.9127 0.0325434C11.9127 0.0325517 11.9127 0.0325716 11.9986 0.126819V0ZM11.9999 0.293171C11.9773 0.311908 11.9501 0.334097 11.9184 0.359486C11.8094 0.446865 11.6472 0.572167 11.4328 0.725176C11.0041 1.03118 10.3665 1.4481 9.52873 1.89415C7.87126 2.77658 5.42942 3.77326 2.26931 4.25034C2.26873 4.26346 2.26812 4.2778 2.26751 4.29336C2.26371 4.3893 2.25949 4.53139 2.25791 4.7149C2.25475 5.08192 2.26212 5.61452 2.30437 6.27486C2.38889 7.59576 2.61291 9.42656 3.17076 11.4651C4.2818 15.5253 6.7146 20.402 12.0001 23.7235C17.2855 20.402 19.7183 15.5253 20.8293 11.4652C21.3872 9.42666 21.6112 7.59586 21.6957 6.27496C21.7379 5.61462 21.7453 5.08202 21.7421 4.71499C21.7405 4.53149 21.7363 4.3894 21.7325 4.29346C21.7319 4.2779 21.7313 4.26356 21.7307 4.25044C18.5707 3.7734 16.1288 2.77673 14.4713 1.89428C13.6335 1.44823 12.9959 1.0313 12.5672 0.725289C12.3528 0.572275 12.1905 0.44697 12.0815 0.359588C12.0498 0.334153 12.0226 0.31193 11.9999 0.293171Z" fill="#B4322C"></path>
  </g>
  <defs>
    <clipPath id="clip0_441_103">
      <rect width="20" height="24" fill="white" transform="translate(2)"></rect>
    </clipPath>
  </defs>
</svg>
