<?xml version="1.0" encoding="UTF-8"?>
<svg xmlns="http://www.w3.org/2000/svg" width="24" height="24" viewBox="0 0 24 24" fill="none">
  <g clip-path="url(#clip0_447_241)">
    <path d="M11.9612 23.8775C15.1092 23.8712 18.1251 22.6204 20.3389 20.4014C21.9998 18.7351 23.1287 16.622 23.5853 14.3219C24.2011 11.2365 23.5643 8.03469 21.8134 5.4105C20.5128 3.46573 18.6613 1.9469 16.4894 1.04724C12.0555 -0.78325 6.943 0.234844 3.5626 3.62156C1.90172 5.28791 0.772829 7.40305 0.316244 9.70104C-0.299516 12.7865 0.337188 15.9883 2.08603 18.6104C3.38667 20.5552 5.23814 22.074 7.41006 22.9737C8.84893 23.57 10.3925 23.8775 11.9508 23.8775" fill="white"></path>
    <path d="M11.9926 24C9.61967 23.9979 7.29905 23.2915 5.33238 21.9742C3.35734 20.6507 1.82213 18.7766 0.917338 16.5887C-0.944605 12.1091 0.0795689 6.9563 3.51652 3.51348C5.18996 1.83882 7.32627 0.696063 9.65527 0.230649C12.7781 -0.390596 16.0223 0.253504 18.6613 2.02166C19.9724 2.89847 21.095 4.02253 21.9684 5.33151C25.6609 10.8417 24.178 18.2738 18.6508 21.9742C16.6842 23.2915 14.3656 23.9979 11.9926 24ZM11.9926 0.401024C8.91175 0.405179 5.96071 1.62897 3.79298 3.80021C2.1698 5.42708 1.06604 7.49444 0.61993 9.74255C0.0230192 12.7574 0.647157 15.8823 2.3583 18.4421C3.62752 20.3473 5.4392 21.835 7.56294 22.716C11.8984 24.507 16.8957 23.5118 20.1986 20.1998C21.8218 18.5709 22.9255 16.5056 23.3717 14.2575C24.1298 10.4615 22.9381 6.54075 20.1944 3.7919C18.5775 2.17126 16.5124 1.0659 14.2609 0.615031C13.5153 0.465434 12.7592 0.390635 11.9989 0.390635" fill="#E00914"></path>
    <path d="M11.9927 23.0774C9.8019 23.0774 7.65931 22.425 5.84344 21.2074C4.63286 20.3971 3.59612 19.3582 2.78977 18.151C-0.619951 13.0668 0.743519 6.2061 5.84344 2.78821C10.9057 -0.579806 17.7586 0.760337 21.1537 5.78016C21.1683 5.80094 21.183 5.82172 21.1956 5.84457C24.6032 10.9288 23.2376 17.7874 18.1398 21.2053C16.3239 22.4208 14.1834 23.0732 11.9927 23.0753M11.9927 2.79029C10.1705 2.79029 8.38817 3.3305 6.87809 4.34236C5.87067 5.01555 5.00777 5.87989 4.33755 6.88344C1.5017 11.1096 2.63478 16.8171 6.87599 19.6595C11.0837 22.4624 16.7868 21.3508 19.6122 17.1766C19.6247 17.1558 19.6394 17.1371 19.652 17.1163C22.4836 12.8881 21.3485 7.18679 17.1093 4.34444C15.5993 3.33258 13.8211 2.79237 11.999 2.79029" fill="#E00914"></path>
    <path d="M16.546 12.4955C17.4717 12.9027 18.4665 13.1271 19.4781 13.1562C20.5526 13.1957 20.9778 12.5329 20.6238 12.4103C20.4835 12.3646 17.4172 11.4961 17.4172 11.4961C17.4172 11.4961 17.0381 11.3485 17.3209 11.3174C17.6036 11.2862 18.8791 11.2987 19.4153 11.0784C20.0792 10.8187 20.1944 10.2058 20.0436 10.2141C18.7095 10.2847 17.4487 10.2598 17.3795 10.2494H17.3565C17.3565 10.2494 17.2078 10.1996 17.3418 10.0832C17.4759 9.96685 18.4477 9.15237 18.6404 8.94876C19.1598 8.42932 18.8121 7.65017 18.72 7.72081C18.0916 8.31089 17.3858 8.81786 16.6255 9.22925C16.5585 9.22925 16.5753 9.08173 16.6255 8.96953C16.8182 8.71397 16.9774 8.43555 17.0947 8.13844C17.3544 7.17229 17.2874 6.56143 16.7407 6.32041C16.6423 6.27886 16.6067 6.33288 16.481 6.63207C16.3554 6.93127 16.3051 7.46317 15.8171 7.67094C15.5574 7.77483 15.105 8.19038 15.0987 8.37322C15.0924 8.55606 15.1951 8.80955 15.0652 8.89266C14.9353 8.97577 14.7845 8.84071 14.6212 8.97369C14.4578 9.10666 14.0159 9.55753 13.8609 9.67597C13.7059 9.7944 13.3918 9.98347 13.1928 9.88374C12.7739 9.46819 12.9729 8.22155 12.9729 8.22155C13.0734 8.23817 13.1781 8.23817 13.2787 8.22155C13.4211 8.19661 13.5467 8.11143 13.62 7.98676C13.6996 7.86417 13.7227 7.7125 13.6808 7.57121C13.5907 7.67718 13.4567 7.73535 13.3164 7.73328C13.1425 7.7499 13.0964 7.67926 13.0566 7.5255C13.0001 7.36344 13.0001 7.18683 13.0566 7.02477C13.132 6.76505 13.3959 6.63831 13.5467 6.5178C13.6975 6.39729 13.6159 5.94019 13.6159 5.94019C13.5761 6.02745 13.5216 6.1064 13.4525 6.17497C13.308 6.31002 13.109 6.27055 12.6901 6.24561C12.4409 6.26431 12.1979 6.16874 12.0304 5.9859C11.9634 5.90486 11.4125 5.96512 11.2513 5.97343C10.8826 6.01706 10.5203 6.09394 10.1663 6.20406C9.92967 6.28509 9.70347 6.39106 9.48984 6.5178C9.39559 6.5926 9.4291 6.66324 9.4291 6.66324L9.51288 6.89179C9.70557 6.76089 9.9171 6.65908 10.1412 6.59052C10.447 6.50741 10.4847 6.6487 10.5224 6.77959C10.5538 6.87517 10.5789 6.97282 10.5957 7.07048C10.2732 7.13904 9.94433 7.1619 9.61551 7.13696C9.13798 7.11203 9.11284 6.9001 9.11703 6.77544C9.11703 6.73181 8.9788 6.77544 8.92435 6.9001C8.828 7.10788 8.80078 7.47148 9.77887 7.45902C10.0742 7.44655 10.3653 7.38214 10.6376 7.26994C10.713 7.52966 10.6376 7.57121 10.5161 7.58991C10.2836 7.64809 10.0365 7.6377 9.81029 7.55667C9.81029 7.55667 9.74536 7.76444 9.79144 7.81639C10.0847 7.97637 10.4198 8.04909 10.7528 8.02416C10.8533 8.02416 10.935 7.95144 10.9894 7.99715C11.0586 8.10104 11.1067 8.21531 11.1298 8.3379C11.1298 8.41893 11.1151 8.47295 10.8701 8.4688C10.625 8.46464 10.5433 8.4688 10.5538 8.51866C10.6481 8.62255 10.7528 8.7202 10.8617 8.80955C10.912 8.85941 11.157 8.60177 11.157 8.60177C11.1465 8.64748 11.1465 8.69319 11.157 8.7389C11.1779 8.84279 11.245 9.65311 10.7381 9.8879C10.5433 9.99386 10.2187 9.80479 10.0742 9.68012C9.92967 9.55546 9.4668 9.10874 9.31182 8.97784C9.15683 8.84695 8.9788 8.97784 8.87618 8.90512C8.77355 8.8324 8.84685 8.54567 8.84057 8.38569C8.83429 8.2257 8.37351 7.7873 8.12428 7.68341C7.63628 7.47564 7.58601 6.9562 7.45616 6.64454C7.3263 6.33288 7.29279 6.29132 7.19645 6.33288C6.6519 6.56351 6.58697 7.17436 6.84249 8.1509C6.95349 8.44802 7.10639 8.72644 7.29698 8.982C7.34934 9.09628 7.3661 9.25834 7.29698 9.24172C6.5367 8.83032 5.83298 8.32336 5.20256 7.73328C5.11459 7.65017 4.75435 8.42932 5.28214 8.96122C5.49159 9.169 6.44664 9.96893 6.59325 10.0957C6.73986 10.2224 6.57859 10.2619 6.57859 10.2619H6.55555C6.47806 10.2619 5.22559 10.2951 3.89145 10.2266C3.73646 10.2266 3.85165 10.8187 4.51977 11.0909C5.06223 11.3111 6.33773 11.2987 6.6142 11.3298C6.89066 11.361 6.51785 11.5085 6.51785 11.5085C6.51785 11.5085 3.45162 12.377 3.3092 12.4227C2.95524 12.537 3.3825 13.2019 4.45485 13.1687C5.47064 13.1396 6.46968 12.9152 7.39751 12.5079C7.78498 12.3604 7.5525 12.6326 7.47082 12.6908C6.89485 13.1063 5.19627 14.2491 4.39411 14.7685C4.27892 14.8433 4.26425 14.9264 4.39411 15.0656C5.02244 15.7326 6.21207 14.9659 6.68122 14.7062C7.23205 14.3987 8.53688 13.4076 8.6416 13.5198C8.68139 13.5613 8.60599 13.9353 7.80383 14.7955C7.88551 14.8766 7.97348 14.9534 8.06354 15.0262C8.06354 15.0262 7.68026 15.4916 7.41427 15.7824C7.30745 15.8967 7.05822 16.1461 6.99538 16.1336C6.93255 16.1211 6.5765 15.743 6.4634 15.7367C6.388 15.7367 6.22673 15.8489 6.10944 15.7804C5.94817 15.743 5.77643 15.7658 5.63191 15.8469C5.4476 15.932 5.48111 16.3663 5.53348 16.171C5.58584 15.9757 5.95236 15.9861 6.13248 16.2001C6.22882 16.3019 6.34611 16.3788 6.47806 16.4245C6.58906 16.4515 6.64771 16.4868 6.59954 16.518C6.39009 16.5907 6.18903 16.6863 6.00263 16.8047C5.94817 16.8961 5.97749 16.9273 5.95655 16.973C5.70522 17.0748 5.62772 17.1808 5.70522 17.4301C5.72826 17.5028 5.75758 17.5714 5.79528 17.6379C5.83717 17.5631 5.81622 17.3158 6.07803 17.2576C6.10735 17.2576 6.15342 17.2909 6.2016 17.2909C6.41523 17.2286 6.6121 17.1184 6.77547 16.9709C6.84458 16.8816 6.82992 17.0229 6.77547 17.108C6.55555 17.5236 6.63724 17.7646 6.65609 17.7729C6.67494 17.7812 6.73567 17.7542 6.76709 17.8332C6.84668 18.0846 7.02261 18.2924 7.25928 18.4129C7.17341 18.2176 7.13152 18.0036 7.1378 17.7895C7.17969 17.7688 7.2132 17.7895 7.26137 17.7688C7.3263 17.6711 7.364 17.5568 7.36819 17.4384C7.36819 17.2701 7.26766 17.214 7.26975 17.1143C7.27813 17.0395 7.30536 16.9688 7.34515 16.9065C7.4017 17.0249 7.47291 17.1371 7.55459 17.241C7.76404 17.4488 7.72005 17.5007 7.93578 17.4197C7.97767 17.401 8.26251 17.8685 8.26251 17.8685C8.31906 17.7293 8.33791 17.5776 8.31487 17.4301C8.29393 17.3491 8.21643 17.3158 8.16198 17.2452C8.10752 17.1745 8.25832 17.0873 8.18502 16.9855C7.76613 16.5907 7.73262 16.7257 7.6279 16.466C7.55459 16.2915 7.69492 16.1751 7.83734 16.0006C8.19758 15.5643 8.21015 15.5684 8.42378 15.3129C8.51175 15.3731 8.56411 15.4292 8.68349 15.5207C9.08771 14.9285 9.4312 14.3924 9.81029 14.2553C10.1894 14.1182 10.3632 14.3384 10.3632 14.5732C10.3444 14.9763 9.52545 15.8469 9.52545 15.8469C9.2427 16.1232 8.98299 16.4224 8.74632 16.7403C8.68139 16.8546 8.63741 16.9813 8.61647 17.1122C8.59971 17.293 8.61228 17.4758 8.65207 17.6524C8.68349 17.8207 8.71909 17.9537 8.71909 17.9537C8.71909 17.9537 8.83848 17.5194 8.8678 17.4675C8.94529 17.32 8.96205 17.4675 9.07724 17.7584C9.17777 17.9869 9.29925 18.2051 9.43539 18.4149V17.669C9.43539 17.4758 9.45843 17.2161 9.54639 17.4093C9.6574 17.6192 9.77887 17.8228 9.91292 18.0181C9.91292 18.0181 9.91292 17.8643 9.92758 17.6836C9.96318 17.374 10.0344 17.0686 10.137 16.7735C10.1978 16.6655 10.4596 16.2063 10.7653 16.1502C11.0711 16.0941 11.1109 16.6696 11.09 16.7922C11.0544 16.9979 10.9957 17.1995 10.9161 17.3927C10.8847 17.453 10.6355 17.9121 10.602 18.016C10.3611 18.5313 10.5035 19.1442 10.9476 19.5037C10.9727 19.2086 11.0376 18.9198 11.1402 18.6435C11.2052 18.55 11.2931 18.4897 11.3497 18.5812C11.5131 18.8928 11.7099 19.1879 11.9319 19.4601C12.1539 19.1879 12.3508 18.8928 12.5142 18.5812C12.5791 18.4897 12.6671 18.55 12.7236 18.6435C12.8325 18.9198 12.9017 19.2086 12.9331 19.5037C13.3771 19.1484 13.5279 18.5438 13.3038 18.0223C13.2703 17.9329 13.021 17.4613 12.9896 17.3989C12.91 17.2057 12.8514 17.0042 12.8158 16.7985C12.7927 16.6759 12.8158 16.1107 13.1404 16.1564C13.4651 16.2022 13.7185 16.6759 13.7687 16.7798C13.8651 17.0748 13.93 17.3802 13.9614 17.6898C13.974 17.8727 13.9761 18.0243 13.9761 18.0243C14.1101 17.829 14.2316 17.6254 14.3426 17.4156C14.4285 17.2223 14.4432 17.4841 14.4536 17.6753V18.4191C14.5898 18.2113 14.7091 17.9911 14.8097 17.7625C14.927 17.4717 14.9416 17.3241 15.0191 17.4717C15.0443 17.5236 15.1678 17.9578 15.1678 17.9578C15.1678 17.9578 15.2034 17.8249 15.2348 17.6566C15.2746 17.48 15.2872 17.2971 15.2684 17.1164C15.2516 16.9855 15.2076 16.8587 15.1385 16.7444C14.9039 16.4265 14.6442 16.1274 14.3594 15.851C14.3594 15.851 13.5488 14.9804 13.5216 14.5774C13.5216 14.3488 13.6829 14.1286 14.0599 14.2678C14.4369 14.407 14.7825 14.941 15.1846 15.5331C15.3082 15.4417 15.3584 15.3856 15.4443 15.3253C15.6537 15.5851 15.6705 15.5851 16.0307 16.0131C16.1752 16.1876 16.3135 16.304 16.2402 16.4785C16.1334 16.7382 16.0957 16.6011 15.6831 16.9979C15.6097 17.1101 15.7605 17.2057 15.7061 17.2576C15.6516 17.3096 15.5741 17.3615 15.5532 17.4426C15.5323 17.588 15.5532 17.7355 15.6097 17.8706C15.6097 17.8706 15.8946 17.4031 15.9365 17.4218C16.1459 17.507 16.1124 17.4571 16.3177 17.2431C16.4056 17.1413 16.481 17.0291 16.5439 16.9107C16.5837 16.973 16.6088 17.0457 16.6172 17.1184C16.6172 17.2202 16.5271 17.2743 16.5208 17.4426C16.525 17.561 16.5627 17.6753 16.6276 17.7729C16.6779 17.802 16.7114 17.7729 16.7512 17.7937C16.7575 18.0077 16.7156 18.2217 16.6297 18.417C16.8559 18.2965 17.0235 18.0908 17.0989 17.8477C17.1324 17.7708 17.1617 17.8062 17.2141 17.7875C17.2664 17.7688 17.3125 17.5278 17.0926 17.1226C17.0486 17.0374 17.0319 16.8961 17.0926 16.9855C17.256 17.1351 17.4528 17.2431 17.6665 17.3054C17.7167 17.3054 17.7628 17.266 17.7879 17.2722C18.0477 17.3304 18.0309 17.5755 18.0728 17.6524C18.1084 17.5859 18.1398 17.5174 18.1629 17.4446C18.2487 17.1641 18.1817 17.079 17.9031 16.9792C17.8822 16.9314 17.9031 16.9024 17.8571 16.8109C17.6686 16.6925 17.4696 16.5969 17.2602 16.5242C17.2141 16.493 17.2602 16.4577 17.3816 16.4307C17.5136 16.385 17.6309 16.3081 17.7272 16.2063C17.9115 15.9985 18.278 15.9881 18.3262 16.1772C18.3744 16.3663 18.4121 15.9383 18.2278 15.8531C18.0833 15.7741 17.9115 15.7492 17.7502 15.7866C17.6309 15.8531 17.4696 15.7388 17.3963 15.743C17.2769 15.743 16.9292 16.1274 16.8769 16.1398C16.8245 16.1523 16.5606 15.903 16.458 15.7887C16.1983 15.4978 15.8066 15.0324 15.8066 15.0324C15.8967 14.9597 15.9846 14.8828 16.0663 14.8018C15.2621 13.9374 15.1867 13.5676 15.2286 13.526C15.3291 13.4201 16.6381 14.407 17.1848 14.7124C17.6581 14.9721 18.8456 15.7388 19.474 15.0719C19.6038 14.9347 19.5892 14.8516 19.474 14.7747C18.6718 14.2553 16.9774 13.1126 16.4014 12.697C16.3177 12.6388 16.0852 12.3666 16.4747 12.5142" fill="#E00914"></path>
    <path d="M13.4713 4.19291C13.4713 4.19291 12.5959 4.56275 12.5184 4.62093C12.3676 4.49003 11.9319 4.10149 11.89 4.05786C11.8398 4.10149 11.4041 4.49211 11.2617 4.62093C11.1842 4.56067 10.3192 4.19291 10.3088 4.19291C10.2983 4.19291 10.5496 4.55652 10.7004 4.81624C10.7989 5.00116 10.8386 5.21101 10.8198 5.41878H12.9791C12.9603 5.21101 13.0022 5.00116 13.0985 4.81624C13.2493 4.55652 13.4902 4.19291 13.4902 4.19291" fill="#E00914"></path>
    <path d="M11.1675 6.49919C11.3727 6.39739 11.6073 6.37453 11.8272 6.43686L11.2701 6.88565C11.2261 6.75891 11.1926 6.63009 11.1696 6.49919" fill="white"></path>
    <path d="M13.6117 11.5751C14.1039 11.4858 14.7489 11.3279 15.4296 10.1394C14.7866 10.0168 14.6777 9.69271 14.6777 9.69271C14.6777 9.69271 15.0275 9.59922 15.5155 9.98568C15.5406 9.15458 16.0349 9.02368 16.0349 9.02368C16.0349 9.02368 16.2444 9.48078 15.616 10.0293C16.2276 10.1602 16.3784 10.4885 16.3784 10.4885C16.3784 10.4885 16.0538 10.609 15.5553 10.1914C14.816 11.5419 13.997 11.8328 13.6179 11.8328C13.6263 11.7455 13.6263 11.6603 13.6179 11.5731" fill="white"></path>
    <path d="M10.8847 10.7439C10.8973 11.2322 10.9475 11.7184 11.0376 12.1983C11.1444 12.8486 11.3727 13.474 11.7099 14.0434C11.7853 14.1784 11.8733 14.3051 11.9696 14.4257C12.0764 14.3051 12.1749 14.1784 12.2607 14.0434C12.5979 13.474 12.8262 12.8486 12.9331 12.1983C13.0231 11.7184 13.0734 11.2322 13.0859 10.7439H10.8847Z" fill="white"></path>
    <path d="M10.3548 11.5751C9.86265 11.4858 9.21966 11.3279 8.53688 10.1394C9.17987 10.0168 9.28878 9.69271 9.28878 9.69271C9.28878 9.69271 8.93901 9.59922 8.45101 9.98568C8.42168 9.15458 7.93159 9.02368 7.93159 9.02368C7.93159 9.02368 7.72215 9.48078 8.35047 10.0293C7.7389 10.1602 7.5881 10.4885 7.5881 10.4885C7.5881 10.4885 7.91274 10.609 8.41121 10.1914C9.15054 11.5419 9.9548 11.8328 10.3444 11.8328C10.3381 11.7455 10.3381 11.6603 10.3444 11.5731" fill="white"></path>
    <path d="M12.5917 13.1044V12.8155H11.8838V12.2691H12.5163V11.9803H11.8838V11.5149H12.51V11.2261H11.4544V13.1044H12.5917Z" fill="#E00914"></path>
  </g>
  <defs>
    <clipPath id="clip0_447_241">
      <rect width="24" height="24" fill="white"></rect>
    </clipPath>
  </defs>
</svg>
