<?xml version="1.0" encoding="UTF-8"?>
<svg xmlns="http://www.w3.org/2000/svg" width="24" height="24" viewBox="0 0 24 24" fill="none">
  <g clip-path="url(#clip0_441_52)">
    <path d="M12 0C18.6093 0 24.0001 5.39057 24.0001 12C24.0001 18.6095 18.6095 24.0001 12 24.0001C5.39057 24.0001 0 18.6093 0 12C0 5.39076 5.39057 0 12 0Z" fill="black"></path>
    <path d="M12 0.404393C18.3866 0.404393 23.5956 5.61333 23.5956 11.9999C23.5956 18.3865 18.3866 23.5954 12 23.5954C5.61348 23.5954 0.404541 18.3864 0.404541 11.9998C0.404541 5.61324 5.61348 0.404297 12 0.404297V0.404393Z" fill="white"></path>
    <path d="M20.7984 5.77222C22.0495 7.53333 22.7865 9.68343 22.7865 12C22.7865 14.3166 22.0496 16.4666 20.7984 18.2278C18.7928 16.2414 15.5932 14.9516 12 14.9516C8.40669 14.9516 5.20721 16.2414 3.20159 18.2278C1.95033 16.4666 1.21353 14.3166 1.21353 12C1.21353 9.68343 1.95042 7.53333 3.20159 5.77222C5.20721 7.75864 8.40669 9.0484 12 9.0484C15.5932 9.0484 18.7929 7.75854 20.7984 5.77222Z" fill="black"></path>
    <path d="M12.0001 22.7865C13.0341 22.7873 14.0628 22.6386 15.0543 22.3449C14.4818 21.7246 13.3266 21.2989 11.9995 21.2989C10.6724 21.2989 9.51731 21.7245 8.94506 22.3446C9.93673 22.6385 10.9658 22.7874 12.0001 22.7866V22.7865ZM15.7215 22.1227C17.5658 21.441 19.1757 20.2681 20.3909 18.7642C19.3499 17.709 17.9392 16.8571 16.2981 16.3086C15.83 18.3416 15.0419 19.9955 14.0719 20.9809C14.7874 21.2466 15.3658 21.6453 15.7215 22.1227ZM7.70167 16.3069C6.05998 16.855 4.64879 17.7067 3.60709 18.7615C4.82255 20.2666 6.43332 21.4404 8.27872 22.1226C8.63421 21.6452 9.2129 21.2465 9.92838 20.9808C8.95811 19.9951 8.16967 18.3408 7.70167 16.3068V16.3069ZM12.0001 1.21348C13.0341 1.21271 14.0628 1.36141 15.0543 1.65517C14.4818 2.27552 13.3266 2.70118 11.9995 2.70118C10.6724 2.70118 9.51731 2.27562 8.94506 1.65546C9.93673 1.36151 10.9658 1.21261 12.0001 1.21338V1.21348ZM15.7215 1.87732C17.5658 2.5591 19.1757 3.73193 20.3909 5.23577C19.3499 6.2909 17.9392 7.14289 16.2981 7.69144C15.83 5.65836 15.0419 4.00447 14.0719 3.01913C14.7874 2.75341 15.3658 2.35472 15.7215 1.87732ZM7.70167 7.69307C6.05998 7.14491 4.64869 6.2933 3.6069 5.23845C4.82235 3.73347 6.43313 2.55958 8.27853 1.87741C8.63402 2.35482 9.2127 2.75341 9.92819 3.01923C8.95802 4.00495 8.16957 5.65922 7.70157 7.69316L7.70167 7.69307Z" fill="#2566AF"></path>
    <path d="M9.40125 16.5241H10.4556V16.7408H9.65065V17.2441H10.2523V17.462H9.65065V18.2623H9.40125V16.524V16.5241ZM10.9589 17.4524V18.0516H11.2782C11.4171 18.0516 11.5184 18.0281 11.5825 17.9803C11.6463 17.9325 11.6785 17.8565 11.6785 17.752C11.6785 17.6553 11.6447 17.5813 11.5773 17.5297C11.5099 17.4781 11.412 17.4524 11.283 17.4524H10.9588H10.9589ZM10.9589 16.7302V17.2485H11.2855C11.3988 17.2485 11.4854 17.2259 11.5454 17.1804C11.6056 17.1345 11.6355 17.0686 11.6355 16.9821C11.6355 16.8955 11.6044 16.8316 11.5417 16.7913C11.4793 16.7507 11.3811 16.7303 11.2468 16.7303H10.9589V16.7302ZM10.712 16.5241H11.254C11.4639 16.5241 11.6219 16.5607 11.7281 16.6341C11.8342 16.7076 11.8872 16.8172 11.8872 16.963C11.8872 17.0565 11.8651 17.135 11.8204 17.1982C11.7761 17.2614 11.7077 17.3118 11.6157 17.3492C11.7203 17.3868 11.799 17.4422 11.8528 17.5155C11.9062 17.589 11.9328 17.6785 11.9328 17.7846C11.9328 17.9431 11.8782 18.0622 11.7689 18.1424C11.6598 18.2224 11.4961 18.2622 11.2787 18.2622H10.712V16.5242H10.7119L10.712 16.5241ZM12.5238 16.7348V17.3061H12.7977C12.9383 17.3061 13.0377 17.284 13.0961 17.2393C13.1544 17.195 13.1838 17.1205 13.1838 17.0157C13.1838 16.911 13.1539 16.8429 13.0937 16.7997C13.0338 16.7564 12.9328 16.7348 12.7908 16.7348H12.5237H12.5238ZM12.2746 16.5241H12.8307C13.0357 16.5241 13.1885 16.5645 13.2884 16.6459C13.3881 16.727 13.4382 16.851 13.4382 17.0182C13.4382 17.1855 13.3896 17.3047 13.2926 17.3903C13.1952 17.4764 13.0559 17.5193 12.8741 17.5193H12.5241V18.2624H12.2749V16.5241H12.2747H12.2746ZM14.0993 16.7324L13.8546 17.5812H14.3546L14.1191 16.7324H14.0993ZM13.9411 16.5241H14.2842L14.8142 18.2622H14.5581L14.4212 17.793H13.7949L13.6612 18.2622H13.4099L13.941 16.5241H13.9411ZM9.85503 5.70056H10.0222V7.28667H10.3041V7.48318H9.50329V7.28667H9.7887V5.96235L9.47363 5.98837V5.83093C9.53958 5.81682 9.60467 5.79896 9.6686 5.77755C9.73244 5.75624 9.79484 5.73051 9.85513 5.70056H9.85503ZM10.8178 7.39582L10.9197 7.20718C10.9672 7.23723 11.0172 7.26152 11.0703 7.27976C11.097 7.28763 11.123 7.29339 11.1482 7.29732C11.1737 7.30126 11.201 7.30337 11.2301 7.30337C11.3698 7.30337 11.483 7.24577 11.5691 7.13048C11.6142 7.0676 11.6482 6.99742 11.6698 6.92312C11.6933 6.8442 11.7052 6.75608 11.7052 6.65902C11.6428 6.72056 11.5767 6.76664 11.5069 6.79697C11.4363 6.82741 11.3603 6.84286 11.2834 6.84248C11.1285 6.84248 11.0005 6.78977 10.8989 6.68417C10.7973 6.57896 10.7466 6.44408 10.7466 6.27973C10.7466 6.11538 10.8005 5.9685 10.9087 5.86213C11.017 5.75595 11.1579 5.70287 11.3317 5.70287C11.5321 5.70287 11.6858 5.77266 11.7926 5.91176C11.8991 6.05115 11.9523 6.25323 11.9523 6.5179C11.9523 6.82261 11.8874 7.06462 11.7574 7.24376C11.6277 7.42289 11.4518 7.51265 11.2298 7.51265C11.1523 7.51351 11.0751 7.50334 11.0006 7.48231C10.935 7.46427 10.8731 7.43489 10.8176 7.39563L10.8178 7.39582ZM11.7098 6.36526C11.7098 6.2948 11.7005 6.2323 11.682 6.17806C11.6637 6.12411 11.6358 6.0739 11.5998 6.02974C11.5318 5.94757 11.4424 5.90667 11.3321 5.90667C11.2333 5.90667 11.1511 5.94152 11.0856 6.01102C11.02 6.08043 10.9873 6.16923 10.9873 6.27752C10.9873 6.38581 11.0186 6.4771 11.0821 6.54469C11.1452 6.61227 11.2277 6.64587 11.3294 6.64587C11.41 6.64587 11.4845 6.62101 11.5531 6.57128C11.6223 6.52155 11.6743 6.45272 11.7097 6.36517L11.7098 6.36526ZM12.8257 5.90677C12.7032 5.90677 12.6098 5.9659 12.545 6.08446C12.4804 6.20312 12.448 6.37678 12.448 6.60574C12.448 6.8347 12.4799 7.00836 12.5439 7.12625C12.6078 7.24424 12.7017 7.30337 12.8258 7.30337C12.95 7.30337 13.0436 7.24491 13.1073 7.1276C13.1707 7.01028 13.2025 6.83624 13.2025 6.60574C13.2025 6.37525 13.171 6.19909 13.1079 6.08197C13.0443 5.96523 12.9504 5.90677 12.8257 5.90677ZM12.8257 5.70056C13.0286 5.70056 13.1826 5.77727 13.2875 5.93096C13.3927 6.08437 13.4451 6.3092 13.4451 6.60555C13.4451 6.9019 13.3927 7.12673 13.2881 7.2811C13.1835 7.43547 13.0295 7.51275 12.8256 7.51275C12.6218 7.51275 12.4705 7.43547 12.3641 7.2811C12.258 7.12673 12.205 6.90152 12.205 6.60555C12.205 6.30958 12.2577 6.08427 12.3633 5.93096C12.4685 5.77727 12.6229 5.70056 12.8257 5.70056ZM14.5195 6.53441C14.6253 6.56984 14.7045 6.62657 14.7575 6.70385C14.7836 6.74168 14.8034 6.78421 14.8166 6.83182C14.83 6.87915 14.8367 6.93185 14.8367 6.99032C14.8367 7.14833 14.784 7.27476 14.6781 7.37009C14.5723 7.46523 14.4304 7.51284 14.2527 7.51284C14.1122 7.51284 13.9898 7.48443 13.8855 7.42769C13.7816 7.37076 13.6951 7.28331 13.6263 7.16571L13.8227 7.03659C13.8748 7.12414 13.9357 7.19067 14.006 7.23579C14.0758 7.281 14.1536 7.30337 14.2396 7.30337C14.3479 7.30337 14.4334 7.27496 14.4968 7.21822C14.5599 7.1612 14.5915 7.08228 14.5915 6.9811C14.5915 6.86888 14.5499 6.78612 14.4665 6.73237C14.383 6.6787 14.2536 6.65173 14.0775 6.65173H14.0054V6.44187L14.0526 6.44561H14.0904C14.243 6.44561 14.3567 6.42104 14.4313 6.37189C14.5058 6.32273 14.5433 6.2491 14.5433 6.1509C14.5433 6.07381 14.5162 6.01285 14.4621 5.96859C14.4081 5.92395 14.3326 5.90187 14.2352 5.90187C14.1671 5.90187 14.1033 5.91944 14.0432 5.95458C13.9831 5.98971 13.9283 6.04261 13.8786 6.11259L13.7069 5.97896C13.7689 5.89122 13.8515 5.82008 13.9474 5.77151C14.0421 5.72418 14.1472 5.70066 14.2625 5.70066C14.4228 5.70066 14.5492 5.74069 14.6421 5.82037C14.7348 5.90014 14.7814 6.00814 14.7814 6.14475C14.7814 6.23336 14.7588 6.31064 14.7142 6.37765C14.6696 6.44427 14.6047 6.4964 14.5195 6.53432V6.53441Z" fill="black"></path>
    <path d="M12.5511 18.2893H12.2478V16.5241H12.2746V16.4971H12.8307C13.0415 16.4971 13.2012 16.5401 13.3054 16.6249C13.4114 16.7112 13.4652 16.8435 13.4652 17.0182C13.4652 17.1929 13.4132 17.3199 13.3104 17.4105C13.2087 17.5006 13.0618 17.5462 12.8741 17.5462H12.5511V18.2893ZM12.3019 18.2354H12.4971V17.4922H12.8741C13.0483 17.4922 13.1831 17.4512 13.2747 17.3701C13.3653 17.2902 13.4112 17.1718 13.4112 17.0183C13.4112 16.8648 13.3642 16.7424 13.2714 16.6668C13.1771 16.5901 13.0289 16.5512 12.8308 16.5512H12.302V18.2354H12.3019ZM9.67763 18.2893H9.37427V16.4971H10.4826V16.7677H9.67763V17.2171H10.2793V17.4889H9.67763V18.2892V18.2893ZM9.42822 18.2354H9.62358V17.435H10.2252V17.2712H9.62358V16.7138H10.4285V16.5511H9.42812V18.2353L9.42822 18.2354ZM14.8507 18.2892H14.5379L14.401 17.82H13.8153L13.6817 18.2892H13.3735L13.9211 16.4971H14.3041L14.8507 18.2892ZM14.5783 18.2353H14.7778L14.2642 16.5512H13.961L13.4465 18.2353H13.6409L13.7745 17.766H14.4414L14.5783 18.2353ZM11.2788 18.2891H10.6851V16.5242H10.712V16.4972H11.254C11.4686 16.4972 11.6332 16.5358 11.7434 16.612C11.8567 16.6906 11.9142 16.8086 11.9142 16.9632C11.9142 17.0622 11.8901 17.1465 11.8426 17.2139C11.8053 17.2671 11.7518 17.3121 11.6833 17.348C11.7642 17.3858 11.8284 17.4367 11.8747 17.4998C11.9312 17.5776 11.9599 17.6735 11.9599 17.7849C11.9599 17.9516 11.9011 18.0793 11.785 18.1644C11.6719 18.2474 11.5016 18.2894 11.2789 18.2894L11.2788 18.2891ZM10.7391 18.2352H11.2788C11.4898 18.2352 11.6494 18.1967 11.753 18.1207C11.8559 18.0453 11.9059 17.9354 11.9059 17.7847C11.9059 17.6849 11.8807 17.5998 11.831 17.5314C11.7807 17.4627 11.7051 17.41 11.6066 17.3746L11.5402 17.3508L11.6056 17.3242C11.6924 17.289 11.7572 17.2414 11.7984 17.1827C11.8393 17.1247 11.8602 17.0507 11.8602 16.9631C11.8602 16.8254 11.8119 16.7251 11.7127 16.6564C11.6117 16.5866 11.4575 16.5512 11.254 16.5512H10.7391V18.2352ZM11.2782 18.0786H10.9319V17.4255H11.283C11.4173 17.4255 11.5219 17.4534 11.5937 17.5084C11.6678 17.565 11.7054 17.647 11.7054 17.752C11.7054 17.8649 11.6695 17.949 11.5987 18.0019C11.5294 18.0536 11.4245 18.0786 11.2781 18.0786H11.2782ZM10.9859 18.0247H11.2782C11.4107 18.0247 11.5077 18.0025 11.5664 17.9587C11.6236 17.916 11.6515 17.8483 11.6515 17.752C11.6515 17.6635 11.6218 17.5978 11.5609 17.5513C11.4986 17.5037 11.4052 17.4796 11.283 17.4796H10.9858V18.0248L10.9859 18.0247ZM14.3901 17.6083H13.8186L14.0789 16.7055H14.1396L14.3901 17.6083ZM13.8904 17.5544H14.3191L14.1089 16.7966L13.8904 17.5544ZM12.7978 17.3333H12.4968V16.7078H12.7909C12.9402 16.7078 13.0443 16.7308 13.1096 16.778C13.1768 16.8262 13.2109 16.9063 13.2109 17.0159C13.2109 17.1255 13.1778 17.2113 13.1125 17.2609C13.0488 17.3096 12.9458 17.3333 12.7978 17.3333ZM12.5509 17.2793H12.7978C12.9317 17.2793 13.0266 17.2587 13.0798 17.2181C13.131 17.1791 13.1569 17.1111 13.1569 17.016C13.1569 16.9209 13.1311 16.86 13.078 16.8219C13.023 16.782 12.9264 16.7619 12.7909 16.7619H12.5508V17.2793H12.5509ZM11.2855 17.2757H10.932V16.7303H10.9589V16.7034H11.2468C11.3876 16.7034 11.4888 16.7248 11.5564 16.7687C11.6268 16.814 11.6625 16.8858 11.6625 16.9821C11.6625 17.0784 11.6286 17.1509 11.5617 17.2018C11.4973 17.2508 11.4044 17.2756 11.2855 17.2756V17.2757ZM10.986 17.2217H11.2855C11.3924 17.2217 11.4743 17.2006 11.5291 17.159C11.5825 17.1182 11.6086 17.0604 11.6086 16.9822C11.6086 16.904 11.582 16.8493 11.5272 16.8141C11.4693 16.7765 11.375 16.7575 11.2468 16.7575H10.9859V17.2217H10.986ZM14.2527 7.54006C14.1083 7.54006 13.9804 7.5103 13.8725 7.45155C13.7647 7.39251 13.6741 7.30102 13.603 7.17949L13.59 7.15741L13.8313 6.99872L13.8457 7.02291C13.8958 7.10681 13.9545 7.17085 14.0204 7.21328C14.0853 7.25533 14.1589 7.27664 14.2394 7.27664C14.3401 7.27664 14.4206 7.25033 14.4786 7.1983C14.5362 7.14627 14.5643 7.07523 14.5643 6.98134C14.5643 6.87814 14.5274 6.80413 14.4517 6.75536C14.3729 6.70467 14.2469 6.67894 14.0773 6.67894H13.9782V6.41293L14.0535 6.41888H14.0902C14.2368 6.41888 14.3465 6.39555 14.4163 6.34967C14.4834 6.30541 14.516 6.24051 14.516 6.15123C14.516 6.08183 14.4927 6.02903 14.4447 5.98986C14.396 5.94963 14.3254 5.92928 14.2349 5.92928C14.1721 5.92928 14.1121 5.94579 14.0566 5.97834C14.0003 6.01127 13.9478 6.06186 13.9003 6.12867L13.8839 6.15171L13.6698 5.98487L13.6847 5.96384C13.749 5.87293 13.8356 5.79824 13.9349 5.74794C14.0328 5.69898 14.143 5.67412 14.2622 5.67412C14.4282 5.67412 14.5618 5.71655 14.6593 5.80026C14.758 5.88512 14.808 6.00119 14.808 6.14519C14.808 6.23821 14.7839 6.32163 14.7363 6.39306C14.6993 6.44845 14.6486 6.49482 14.5851 6.53149C14.668 6.56874 14.7332 6.62144 14.7795 6.68893C14.8075 6.72954 14.8286 6.77533 14.8423 6.82506C14.8563 6.8745 14.8634 6.93037 14.8634 6.99075C14.8634 7.15597 14.8071 7.29046 14.6958 7.39059C14.5853 7.48995 14.4361 7.54025 14.2524 7.54025L14.2527 7.54006ZM13.6629 7.17421C13.7268 7.27625 13.8059 7.35363 13.8984 7.40422C13.9982 7.45856 14.1174 7.48611 14.2527 7.48611C14.4227 7.48611 14.5597 7.44041 14.66 7.35027C14.7607 7.25965 14.8098 7.14195 14.8098 6.99056C14.8098 6.93507 14.8033 6.88419 14.7907 6.83936C14.7785 6.7953 14.7598 6.75498 14.7354 6.71926C14.6856 6.64678 14.6101 6.59322 14.5109 6.5601L14.445 6.53802L14.5085 6.50979C14.5887 6.47418 14.6503 6.42474 14.6918 6.36282C14.7339 6.29955 14.7544 6.22823 14.7544 6.1449C14.7544 6.01559 14.7118 5.91613 14.6245 5.84096C14.537 5.76589 14.4152 5.72778 14.2625 5.72778C14.1517 5.72778 14.0497 5.75063 13.9595 5.79584C13.8757 5.83828 13.8017 5.89962 13.7443 5.97402L13.8733 6.07453C13.9209 6.01251 13.9733 5.96451 14.0296 5.93159C14.0935 5.89415 14.1627 5.87514 14.2352 5.87514C14.3386 5.87514 14.4207 5.89962 14.4792 5.948C14.5396 5.99735 14.5702 6.0657 14.5702 6.15114C14.5702 6.25847 14.5285 6.34035 14.4462 6.39459C14.3675 6.44643 14.2478 6.47274 14.0905 6.47274H14.0506L14.0325 6.4712V6.6248H14.0776C14.2577 6.6248 14.3935 6.65341 14.4812 6.70976C14.5723 6.76851 14.6185 6.85981 14.6185 6.98115C14.6185 7.08963 14.5837 7.17613 14.515 7.23824C14.4468 7.29939 14.3542 7.3304 14.2397 7.3304C14.1486 7.3304 14.065 7.30621 13.9914 7.25849C13.925 7.21577 13.8656 7.15395 13.8144 7.07437L13.663 7.17401L13.6629 7.17421ZM11.2208 7.54006C11.1441 7.54006 11.0676 7.5295 10.9936 7.50867C10.9249 7.48976 10.8605 7.45923 10.8024 7.41804L10.7829 7.40422L10.9099 7.16912L10.9344 7.18457C10.9801 7.21347 11.0286 7.23699 11.0788 7.25427C11.1032 7.26147 11.1281 7.26704 11.1528 7.27088C11.1774 7.27472 11.2036 7.27664 11.2305 7.27664C11.3626 7.27664 11.4664 7.22365 11.5478 7.11459C11.5909 7.0544 11.6234 6.98749 11.6443 6.91587C11.6619 6.85683 11.6728 6.79184 11.6768 6.72195C11.6261 6.76458 11.5729 6.79808 11.518 6.82189C11.4435 6.85405 11.3646 6.86989 11.2837 6.86969C11.1221 6.86969 10.9862 6.81363 10.8799 6.70314C10.7738 6.59331 10.7201 6.45094 10.7201 6.28007C10.7201 6.10919 10.7774 5.95424 10.8903 5.84327C11.0034 5.73248 11.152 5.67632 11.3322 5.67632C11.5405 5.67632 11.7028 5.75015 11.8145 5.89578C11.9242 6.03939 11.9798 6.24887 11.9798 6.51834C11.9798 6.82755 11.9125 7.07715 11.7797 7.26013C11.6452 7.44588 11.4604 7.54016 11.2303 7.54016C11.2273 7.54016 11.2242 7.54016 11.2211 7.54016L11.2208 7.54006ZM10.8532 7.38742C10.901 7.41833 10.953 7.44156 11.0081 7.45673C11.0804 7.47708 11.155 7.48697 11.2298 7.48611C11.4419 7.48611 11.6121 7.39942 11.7359 7.22845C11.8618 7.05488 11.9256 6.81603 11.9256 6.51834C11.9256 6.26096 11.8737 6.06253 11.7714 5.92861C11.6705 5.797 11.5226 5.73028 11.332 5.73028C11.1664 5.73028 11.0305 5.78125 10.9278 5.88176C10.8256 5.98227 10.7738 6.11629 10.7738 6.28007C10.7738 6.44384 10.8224 6.56624 10.9185 6.6657C11.0162 6.76736 11.1368 6.81613 11.2863 6.81574C11.359 6.81574 11.4296 6.80115 11.4963 6.77245C11.5625 6.74374 11.6264 6.6992 11.6864 6.64006L11.7323 6.59485V6.65936C11.7323 6.75862 11.72 6.85002 11.6958 6.93123C11.6734 7.00851 11.6381 7.08099 11.5912 7.14656C11.4998 7.26886 11.3785 7.33069 11.2303 7.33069C11.2007 7.33069 11.1717 7.32857 11.1443 7.32425C11.1171 7.32003 11.0897 7.31379 11.0628 7.30592L11.0617 7.30553C11.0163 7.28998 10.9722 7.26973 10.93 7.24525L10.8532 7.38742ZM12.8256 7.54006C12.616 7.54006 12.4533 7.45817 12.3419 7.2967C12.2331 7.1384 12.178 6.90598 12.178 6.60589C12.178 6.30579 12.2328 6.07309 12.3411 5.91594C12.4512 5.75533 12.6143 5.67383 12.8258 5.67383C13.0374 5.67383 13.2002 5.75533 13.3099 5.91603C13.4176 6.07299 13.4722 6.30512 13.4722 6.60589C13.4722 6.90665 13.4178 7.1383 13.3104 7.29661C13.201 7.45817 13.0379 7.54016 12.8256 7.54016V7.54006ZM12.8257 5.72778C12.6303 5.72778 12.4863 5.7993 12.3856 5.94647C12.2836 6.0945 12.232 6.31635 12.232 6.60589C12.232 6.89542 12.2839 7.11699 12.3864 7.26617C12.4884 7.41421 12.6321 7.48611 12.8256 7.48611C13.0192 7.48611 13.1656 7.4142 13.2657 7.26627C13.3669 7.11709 13.4182 6.89494 13.4182 6.60589C13.4182 6.31683 13.3667 6.0944 13.2652 5.94656C13.1647 5.7994 13.021 5.72788 12.8257 5.72788V5.72778ZM10.3312 7.5104H9.47641V7.25993H9.76182V5.99187L9.44675 6.01789V5.80938L9.46806 5.80477C9.53276 5.79085 9.59737 5.77319 9.66006 5.75216C9.72255 5.73133 9.78419 5.70589 9.84313 5.67661L9.84879 5.67383H10.0492V7.25993H10.3312V7.5104ZM9.53036 7.45644H10.2772V7.31389H9.99529V5.72778H9.86147C9.80204 5.75696 9.74003 5.7824 9.67724 5.80333C9.61955 5.82272 9.56031 5.83933 9.50079 5.85277V5.95923L9.81587 5.93322V7.31389H9.53046V7.45644H9.53036ZM12.8259 7.33059C12.6918 7.33059 12.589 7.26627 12.5203 7.13936C12.4545 7.01821 12.4211 6.83878 12.4211 6.60598C12.4211 6.37319 12.4549 6.19415 12.5214 6.07184C12.591 5.94455 12.6934 5.88004 12.8258 5.88004C12.9583 5.88004 13.0633 5.94368 13.1317 6.06935C13.1967 6.18992 13.2296 6.3705 13.2296 6.60598C13.2296 6.84147 13.1965 7.01965 13.1311 7.14061C13.0626 7.26665 12.9599 7.33059 12.8259 7.33059ZM12.8258 5.93399C12.7131 5.93399 12.629 5.98755 12.5688 6.09767C12.5066 6.21191 12.4752 6.38298 12.4752 6.60598C12.4752 6.82899 12.5064 7.00045 12.5678 7.11353C12.6272 7.22326 12.7117 7.27654 12.826 7.27654C12.9404 7.27654 13.0247 7.22365 13.0838 7.11488C13.1447 7.00189 13.1758 6.83062 13.1758 6.60598C13.1758 6.38135 13.145 6.20759 13.0844 6.09507C13.0254 5.98679 12.9408 5.93408 12.8259 5.93408L12.8258 5.93399ZM11.3297 6.67318C11.2204 6.67318 11.1306 6.63622 11.0626 6.56346C10.9948 6.49126 10.9605 6.39517 10.9605 6.27786C10.9605 6.16055 10.996 6.06704 11.0661 5.99283C11.1366 5.91795 11.2262 5.88004 11.3323 5.88004C11.4507 5.88004 11.5478 5.92468 11.6208 6.0128C11.6591 6.05975 11.6882 6.11245 11.7076 6.16967C11.727 6.22659 11.7369 6.29255 11.7369 6.36551V6.37079L11.735 6.37568C11.6977 6.46803 11.6419 6.54128 11.5691 6.5936C11.4962 6.6464 11.4157 6.67328 11.3297 6.67328V6.67318ZM11.3323 5.93399C11.2404 5.93399 11.1662 5.96538 11.1053 6.02989C11.0442 6.09459 11.0144 6.17571 11.0144 6.27786C11.0144 6.38 11.043 6.46381 11.102 6.52659C11.1601 6.58899 11.2346 6.61923 11.3296 6.61923C11.404 6.61923 11.4739 6.5959 11.5374 6.54982C11.6006 6.50442 11.6496 6.44067 11.6829 6.36032C11.6824 6.29543 11.6736 6.23715 11.6565 6.18714C11.6391 6.13607 11.6131 6.08903 11.579 6.04717C11.516 5.97114 11.4352 5.93408 11.3322 5.93408L11.3323 5.93399Z" fill="black"></path>
    <path d="M18.9941 12.5416C18.9941 12.9822 19.0962 13.3167 19.2995 13.544C19.5035 13.7718 19.7618 13.8854 20.0753 13.8854C20.3887 13.8854 20.6459 13.7726 20.8471 13.5468C21.0477 13.321 21.1484 12.9823 21.1484 12.5309C21.1484 12.0795 21.0505 11.7515 20.8547 11.532C20.6595 11.313 20.3991 11.2028 20.0753 11.2028C19.7514 11.2028 19.4897 11.3136 19.2919 11.536C19.0934 11.7584 18.9941 12.0936 18.9941 12.5417V12.5416ZM18.1843 12.5682C18.1843 12.1717 18.2433 11.8386 18.3618 11.5693C18.4503 11.3714 18.5731 11.1906 18.7248 11.0356C18.8778 10.8779 19.0458 10.7608 19.2281 10.6847C19.4707 10.5821 19.7502 10.531 20.0672 10.531C20.6411 10.531 21.1001 10.7086 21.445 11.0649C21.789 11.4206 21.9611 11.9156 21.9611 12.5501C21.9611 13.1845 21.7905 13.67 21.4483 14.0249C21.1069 14.3805 20.65 14.558 20.078 14.558C19.5061 14.558 19.0384 14.3812 18.697 14.0276C18.355 13.6744 18.1843 13.1876 18.1843 12.5681V12.5682ZM17.1404 14.4913V10.5968H17.9265V14.4913H17.1404ZM12.9542 14.4913V10.5968H14.1312L14.8379 13.2536L15.5363 10.5968H16.7162V14.4913H15.9853V11.4258L15.2128 14.4913H14.4552L13.6854 11.4258V14.4913H12.9544H12.9542ZM9.66918 14.4913V10.5968H12.5566V11.2557H10.4553V12.1193H12.4104V12.7756H10.4553V13.835H12.6313V14.4913H9.66928H9.66918ZM6.86206 12.2438H7.44429C7.821 12.2438 8.05696 12.2282 8.15085 12.1963C8.24474 12.1643 8.31818 12.1093 8.37117 12.0318C8.42426 11.9535 8.45075 11.8562 8.45075 11.7394C8.45075 11.6081 8.416 11.5027 8.34612 11.4218C8.27604 11.3415 8.17744 11.2906 8.04967 11.2694C7.9865 11.2605 7.79469 11.2558 7.47645 11.2558H6.86235V12.2438H6.86225H6.86206ZM6.07601 14.4913V10.5968H7.73124C8.1474 10.5968 8.44931 10.6322 8.63843 10.7023C8.82688 10.7724 8.9777 10.8969 9.09126 11.0756C9.20406 11.2545 9.26118 11.4585 9.26118 11.689C9.26118 11.9814 9.17488 12.222 9.00352 12.4125C8.83149 12.603 8.5744 12.7233 8.23312 12.7729C8.40314 12.8715 8.5432 12.981 8.65399 13.0992C8.76487 13.2182 8.91386 13.4284 9.10144 13.7316L9.57673 14.4912H8.63699L8.06848 13.6438C7.8666 13.3412 7.72855 13.1502 7.65367 13.0713C7.57937 12.9923 7.50065 12.9386 7.4177 12.9093C7.33399 12.8801 7.20199 12.865 7.0219 12.865H6.86215V14.491H6.07611V14.4912L6.07601 14.4913ZM3.98581 13.0597V12.4036H5.6804V13.9546C5.51585 14.1139 5.2771 14.2546 4.96501 14.3756C4.65234 14.4967 4.33535 14.5578 4.01509 14.5578C3.60777 14.5578 3.25276 14.4721 2.95017 14.3013C2.64681 14.1299 2.41967 13.8858 2.26742 13.5683C2.11507 13.2501 2.03894 12.9046 2.03894 12.5307C2.03894 12.1254 2.124 11.765 2.29401 11.4494C2.46393 11.1346 2.71286 10.8925 3.03993 10.7245C3.2902 10.5954 3.60095 10.5306 3.97295 10.5306C4.4565 10.5306 4.83397 10.632 5.10584 10.8347C5.37713 11.0372 5.55195 11.3175 5.63019 11.6751L4.84952 11.8212C4.79442 11.6301 4.69112 11.4791 4.54011 11.3682C4.38843 11.2573 4.19941 11.2023 3.97285 11.2023C3.62879 11.2023 3.35606 11.3111 3.15273 11.5293C2.95017 11.747 2.84879 12.07 2.84879 12.4985C2.84879 12.961 2.95142 13.3077 3.15686 13.5389C3.3622 13.7693 3.63148 13.8849 3.96469 13.8849C4.12924 13.8849 4.29455 13.8531 4.45986 13.7884C4.62575 13.7238 4.76783 13.6456 4.88629 13.5531V13.0596H3.98581V13.0597ZM10.2401 10.1779H10.8755L11.1524 9.80679L11.4292 10.1779H12.0647L11.5431 9.44189H10.7618L10.2401 10.1779Z" fill="white"></path>
  </g>
  <defs>
    <clipPath id="clip0_441_52">
      <rect width="24" height="24" fill="white"></rect>
    </clipPath>
  </defs>
</svg>
