<?xml version="1.0" encoding="UTF-8"?>
<svg xmlns="http://www.w3.org/2000/svg" width="24" height="24" viewBox="0 0 24 24" fill="none">
  <g clip-path="url(#clip0_443_202)">
    <path fill-rule="evenodd" clip-rule="evenodd" d="M24 2.65582C23.8055 16.9711 18.0373 21.2667 12.0125 23.5C5.95859 21.2707 0.16141 17.0325 0 2.67234C3.50901 2.63546 3.89385 0.516415 4.10896 0.516415C7.69241 4.70568 11.3835 1.2922 12.0867 0.508208C12.782 1.27589 16.4771 4.68936 20.0606 0.5C20.2635 0.5 20.6151 2.37427 23.5781 2.62725C23.7187 2.63951 23.8592 2.65177 24.0001 2.65582H24Z" fill="white"></path>
    <path fill-rule="evenodd" clip-rule="evenodd" d="M13.6882 2.48018L13.9531 2.61088L14.2304 2.72932L14.5201 2.84371L14.818 2.93753L15.1324 3.01919L15.4553 3.08454L15.7905 3.12537L16.1336 3.14584L16.4855 3.14168L16.8455 3.10906L17.2096 3.04776L17.578 2.94979L17.9503 2.82324L18.3227 2.65982L18.6952 2.46387L19.0677 2.22709L19.436 1.95343L19.8043 1.63905L19.9905 1.45536L20.065 1.55738L20.1476 1.66356L20.2428 1.7738L20.3463 1.88413L20.458 1.99437L20.5781 2.10865L20.7146 2.21888L20.8553 2.32912L21.0126 2.4353L21.178 2.53732L21.3559 2.6354L21.5463 2.73337L21.7491 2.81919L21.9643 2.90085L22.1918 2.97836L22.4319 3.04371L22.6844 3.10501L22.9533 3.15394L23.2304 3.19477L23.3753 3.21108L23.3547 3.94614L23.2925 5.18727L23.1974 6.36731L23.0733 7.49842L22.9202 8.57228L22.7381 9.59316L22.5353 10.565L22.3036 11.4835L22.0512 12.3532L21.7738 13.1821L21.476 13.9661L21.1531 14.7052L20.8179 15.4034L20.458 16.0608L20.0857 16.6814L19.6926 17.2654L19.2869 17.8125L18.8607 18.3311L18.4262 18.813L17.9752 19.2703L17.5118 19.6949L17.0358 20.095L16.5516 20.4707L16.055 20.8177L15.5461 21.1486L15.0333 21.4548L14.5075 21.7446L13.9778 22.0141L13.4402 22.2673L12.894 22.5041L12.3477 22.7287L12.0125 22.8594L11.669 22.7287L11.1187 22.5041L10.5724 22.2673L10.0345 22.0183L9.50066 21.7488L8.97094 21.463L8.45376 21.1567L7.94478 20.83L7.44402 20.4789L6.95569 20.1073L6.47988 19.7113L6.01639 19.2866L5.56533 18.8333L5.12669 18.3515L4.70047 17.837L4.295 17.2899L3.90184 16.7101L3.52532 16.0894L3.16944 15.4321L2.83009 14.7378L2.50738 13.9988L2.2094 13.2148L1.93628 12.3899L1.67969 11.5204L1.45216 10.5976L1.24526 9.62578L1.06732 8.60501L0.918333 7.52699L0.794196 6.39599L0.70312 5.21179L0.641104 3.9664L0.620361 3.2436L0.678271 3.23965L0.988667 3.20693L1.28243 3.16204L1.56387 3.1049L1.82867 3.03955L2.07695 2.96194L2.3128 2.88028L2.53212 2.78636L2.73902 2.68839L2.93359 2.58636L3.11564 2.47602L3.28116 2.36579L3.43835 2.24735L3.57913 2.12901L3.71148 2.01057L3.83151 1.89213L3.93912 1.77369L4.0384 1.65941L4.12527 1.54918L4.17907 1.47157L4.36533 1.65536L4.73364 1.96974L5.10194 2.2433L5.47435 2.48008L5.84677 2.68018L6.21918 2.83945L6.59159 2.97015L6.9599 3.06397L7.32399 3.12527L7.68408 3.15799L8.03575 3.16204L8.37921 3.14158L8.71446 3.10075L9.03717 3.0355L9.35167 2.95384L9.65375 2.85576L9.94341 2.74553L10.2207 2.62304L10.4855 2.49234L10.7338 2.35353L10.9738 2.20652L11.1973 2.05951L11.4083 1.9126L11.6028 1.76559L11.7848 1.61858L11.9503 1.47977L12.0911 1.35718L12.2194 1.47562L12.3848 1.61453L12.5669 1.75738L12.7614 1.90439L12.9724 2.05141L13.1959 2.19842L13.436 2.34127L13.6883 2.48008L13.6882 2.48018Z" fill="#CC2229"></path>
    <path fill-rule="evenodd" clip-rule="evenodd" d="M1.24136 3.77469C2.54075 3.48888 3.26062 3.26841 4.22887 2.30884C5.47446 3.44379 7.15858 3.97874 9.00832 3.64389L20.6525 14.3212C20.1684 15.8484 17.8264 18.8165 16.9491 19.376L1.32002 5.59172L1.24136 3.7748V3.77469Z" fill="white"></path>
    <path fill-rule="evenodd" clip-rule="evenodd" d="M14.5945 16.2813C14.4537 16.0363 14.3875 15.6483 14.8386 15.7137L14.9256 12.2186C14.9381 11.7409 14.8346 10.9529 15.4345 11.7245C15.6706 11.9613 15.8277 12.2757 16.2787 12.4105C16.7423 12.5493 17.3507 12.7658 16.5726 13.0353L16.4361 16.6488C17.0484 17.0041 16.6471 17.441 16.283 17.2367C15.687 17.0122 15.1242 16.6937 14.5945 16.2813ZM10.7007 11.5122C10.3158 11.1815 9.55437 10.4628 9.07436 10.2219C9.2026 11.1692 8.61508 10.8508 8.30058 10.5037C8.13506 10.3199 8.21371 10.3444 8.37091 10.177C8.99581 9.51147 9.77369 8.21309 9.90183 8.03751C9.79012 7.85787 9.63282 7.79252 9.60807 7.67813C9.55838 7.45351 9.67019 7.21258 9.8315 7.18401C10.0508 7.14733 10.8619 8.23751 11.1392 8.48249L11.9792 9.14804C11.9668 10.2261 12.1075 10.965 12.3558 12.0185C12.4428 12.4513 13.5888 14.3172 11.9172 13.4109C11.2676 13.0597 10.7957 12.1492 10.7006 11.5123L10.7007 11.5122Z" fill="black"></path>
    <path fill-rule="evenodd" clip-rule="evenodd" d="M10.6552 10.7895C10.4359 10.6058 9.59585 9.97695 9.34337 9.85041L10.3076 8.24585L10.6552 10.7895Z" fill="white"></path>
    <path fill-rule="evenodd" clip-rule="evenodd" d="M4.58076 7.65782C3.61651 6.63694 3.76139 4.21982 5.2842 3.76247C7.2126 3.19084 7.99038 5.46926 7.1131 5.79581C6.41376 5.96734 6.26898 4.93836 6.57106 4.59945C5.47025 4.21556 5.21397 5.48142 5.26757 6.22853C5.30473 6.72671 5.8634 7.89844 6.58759 7.4494C6.72005 7.36358 6.94347 7.10644 6.88967 6.92265C6.6952 6.74302 6.68699 6.46125 7.01791 6.35923C7.36969 6.25305 7.45245 6.53481 7.44824 6.86551C7.42339 7.20026 7.14205 7.56784 6.90199 7.75974C6.19023 8.33137 5.1766 8.29064 4.58076 7.65771V7.65782ZM8.18074 7.82519L8.58621 8.20898L8.23865 8.5724L7.82897 8.19267L8.18074 7.82519ZM13.9243 12.5167L14.334 12.8964L13.9822 13.2639L13.5726 12.8801L13.9243 12.5167ZM17.9503 16.2855L18.36 16.6651L18.0124 17.0327L17.6028 16.6488L17.9503 16.2855Z" fill="black"></path>
  </g>
  <defs>
    <clipPath id="clip0_443_202">
      <rect width="24" height="23" fill="white" transform="translate(0 0.5)"></rect>
    </clipPath>
  </defs>
</svg>
