<?xml version="1.0" encoding="UTF-8"?>
<svg xmlns="http://www.w3.org/2000/svg" width="24" height="24" viewBox="0 0 24 24" fill="none">
  <g clip-path="url(#clip0_460_319)">
    <path fill-rule="evenodd" clip-rule="evenodd" d="M12.0436 22.9999C12.0552 22.9753 12.035 22.9603 12.0253 22.9435C11.7838 22.5219 11.5416 22.1006 11.2995 21.6792C10.7473 20.7184 10.1949 19.7576 9.64269 18.7967C8.81288 17.3529 7.98415 15.9085 7.15306 14.4655C6.5472 13.4137 5.93806 12.3637 5.33083 11.3127C4.54392 9.95063 3.75746 8.58838 2.97072 7.22623C2.66043 6.68904 2.35013 6.15186 2.03929 5.61494C2.02939 5.59783 2.02557 5.57345 1.99976 5.56996V5.55836C2.0282 5.55873 2.05674 5.55947 2.08519 5.55947C8.65855 5.55947 15.2318 5.55947 21.8052 5.55947H21.8781C21.8777 5.58624 21.8645 5.60124 21.8554 5.61734C20.8865 7.33553 19.917 9.05344 18.948 10.7716C18.2007 12.0966 17.4539 13.422 16.7066 14.747C15.8885 16.1974 15.0701 17.6477 14.252 19.0983C13.5387 20.3631 12.8256 21.628 12.1124 22.8928C12.0982 22.9179 12.0838 22.9428 12.0701 22.9682C12.065 22.9777 12.0572 22.9879 12.0664 22.9997H12.0436V22.9999ZM21.2745 6.06556C21.2569 6.06823 21.2431 6.07872 21.2285 6.08764C21.1633 6.12738 21.0983 6.1674 21.0331 6.20706C20.5357 6.50946 20.0383 6.81168 19.5409 7.11418C19.0746 7.39772 18.6084 7.68163 18.1421 7.96518C17.6447 8.26758 17.1473 8.56989 16.6499 8.8722C16.1395 9.18252 15.6294 9.4932 15.1183 9.80232C15.0827 9.82385 15.0703 9.84749 15.0704 9.88945C15.0718 11.2099 15.0713 12.5303 15.0725 13.8508C15.0726 13.9801 15.0646 14.1088 15.0462 14.2362C15.0159 14.4459 14.9652 14.6507 14.8901 14.8493C14.7412 15.2424 14.5121 15.5771 14.192 15.8471C13.9158 16.0801 13.6001 16.2364 13.2563 16.3375C13.0609 16.395 12.8621 16.4343 12.6594 16.4563C12.5138 16.4721 12.3681 16.4843 12.2218 16.4868C12.1002 16.4889 11.9786 16.4895 11.8568 16.48C11.7546 16.4719 11.6523 16.466 11.5502 16.4556C11.3722 16.4375 11.197 16.405 11.0237 16.361C10.7379 16.2885 10.4661 16.1814 10.2141 16.0252C9.96144 15.8685 9.74412 15.6726 9.56607 15.4323C9.4281 15.2461 9.31867 15.0442 9.24051 14.8253C9.15071 14.574 9.09345 14.3163 9.09463 14.0473C9.09545 13.8719 9.09518 13.6965 9.0949 13.5211C9.0949 13.5068 9.10017 13.4909 9.08918 13.4776C9.06782 13.4786 9.053 13.4915 9.0371 13.5012C8.60492 13.7638 8.17274 14.0265 7.74066 14.2892C7.6575 14.3398 7.57488 14.3912 7.4909 14.4404C7.46499 14.4556 7.46118 14.4701 7.47745 14.4949C7.49426 14.5205 7.50807 14.5481 7.52343 14.5747C7.70639 14.8925 7.88954 15.2101 8.0724 15.5279C8.20646 15.7608 8.34034 15.9938 8.47422 16.2269C8.5842 16.4183 8.69417 16.6097 8.80406 16.8011C8.93594 17.0309 9.06773 17.2607 9.19979 17.4904C9.33849 17.7317 9.47745 17.9728 9.61624 18.2142C9.7483 18.4438 9.88009 18.6736 10.0121 18.9033C10.1392 19.1247 10.2665 19.3461 10.3936 19.5675C10.5256 19.7972 10.6575 20.0269 10.7894 20.2567C10.9013 20.4514 11.0135 20.646 11.1254 20.8408C11.2563 21.0688 11.3871 21.297 11.5181 21.5251C11.6605 21.7731 11.8027 22.0213 11.9458 22.269C11.9791 22.3266 12.0081 22.387 12.0476 22.4408C12.0634 22.4328 12.0672 22.4191 12.0737 22.4076C12.1877 22.2052 12.3014 22.0026 12.4154 21.8002C12.5474 21.5661 12.6797 21.3321 12.8119 21.0981C12.9242 20.8991 13.0363 20.7001 13.1486 20.5011C13.2789 20.2704 13.4095 20.0399 13.5396 19.8092C13.6529 19.6085 13.7657 19.4076 13.8787 19.2069C14.0135 18.9677 14.1485 18.7286 14.2833 18.4895C14.3964 18.2888 14.5094 18.088 14.6227 17.8874C14.7529 17.6566 14.8834 17.4262 15.0137 17.1954C15.1419 16.9679 15.2699 16.7403 15.398 16.5128C15.5488 16.2452 15.6997 15.9776 15.8506 15.71C15.9778 15.4842 16.105 15.2584 16.2325 15.0327C16.3769 14.7769 16.5219 14.5215 16.6662 14.2656C16.7955 14.0365 16.924 13.807 17.0532 13.5779C17.2022 13.3137 17.3517 13.0497 17.5007 12.7855C17.6298 12.5564 17.7583 12.3269 17.8876 12.0978C18.0177 11.8671 18.1487 11.6368 18.2789 11.4061C18.4082 11.177 18.5369 10.9476 18.666 10.7185C18.8008 10.4793 18.9359 10.2402 19.0707 10.001C19.1838 9.80039 19.2967 9.59956 19.4099 9.39881C19.541 9.16642 19.6723 8.93403 19.8035 8.70173C19.9178 8.49942 20.0321 8.2973 20.1464 8.09499C20.2605 7.89268 20.3746 7.69028 20.4885 7.48788C20.6053 7.28042 20.7217 7.07268 20.8387 6.86541C20.9803 6.61462 21.1224 6.36419 21.2641 6.11349C21.2716 6.10015 21.2794 6.08663 21.279 6.07034C21.2827 6.06749 21.2878 6.06473 21.2811 6.06013C21.2805 6.05976 21.2768 6.06381 21.2746 6.06584L21.2745 6.06556ZM21.1374 5.85276C21.0033 5.83961 2.53745 5.84504 2.49565 5.85718C2.49746 5.87521 2.50964 5.88837 2.51809 5.903C2.91837 6.59668 3.31883 7.29036 3.71955 7.98385C4.13464 8.70228 4.54992 9.42061 4.965 10.139C5.39155 10.8774 5.81791 11.616 6.24445 12.3545C6.5961 12.9632 6.94774 13.5718 7.29985 14.1803C7.34547 14.2593 7.32775 14.2483 7.39792 14.2059C7.85391 13.9304 8.30899 13.6534 8.76434 13.3768C8.85905 13.3193 8.95303 13.2607 9.04864 13.2048C9.08127 13.1856 9.10317 13.1648 9.09545 13.1235C9.09372 13.1142 9.09518 13.1043 9.09527 13.0946L9.09908 9.45714C9.09908 9.42632 9.09936 9.3955 9.09908 9.36459C9.09872 9.30994 9.09854 9.30939 9.04619 9.3093C8.93003 9.30893 8.81387 9.30939 8.69772 9.30911C8.61919 9.30893 8.62637 9.31601 8.62628 9.23846C8.6261 8.73338 8.6261 8.22839 8.62628 7.72331C8.62628 7.64161 8.61737 7.65017 8.70045 7.65008C9.60315 7.64989 10.5058 7.64998 11.4085 7.64998C11.418 7.64998 11.4276 7.6498 11.437 7.64998C11.4827 7.65109 11.4836 7.65109 11.4836 7.6992C11.4837 8.22158 11.4837 8.74396 11.4836 9.26642C11.4836 9.31592 11.4828 9.31647 11.4323 9.31656C11.3047 9.31684 11.1771 9.31638 11.0495 9.31684C11.0054 9.31702 11.0054 9.31785 11.0042 9.36137C11.004 9.3691 11.0042 9.37682 11.0042 9.38446C11.0042 10.2384 11.0042 11.0923 11.0045 11.9463C11.0045 11.9648 10.9997 11.9842 11.0091 12.0029C11.0287 12.0049 11.0408 11.9907 11.0549 11.9822C11.7519 11.5591 12.4487 11.1355 13.1461 10.7131C13.1827 10.691 13.1985 10.6681 13.1983 10.6226C13.1962 10.2081 13.197 9.79368 13.197 9.37931C13.197 9.36772 13.1964 9.35612 13.197 9.34462C13.1984 9.32033 13.1876 9.30893 13.1636 9.30911C13.1332 9.3093 13.1027 9.30902 13.0722 9.30902C12.9675 9.30902 12.8627 9.30948 12.758 9.30874C12.7178 9.30847 12.7177 9.30727 12.7163 9.26606C12.7159 9.2564 12.7163 9.24674 12.7163 9.23717C12.7163 8.73209 12.7162 8.2271 12.7164 7.72202C12.7164 7.64281 12.7084 7.64989 12.7859 7.64989C13.6848 7.64971 14.5836 7.64989 15.4825 7.64989C15.5559 7.64989 15.5489 7.64548 15.549 7.71981C15.5491 8.20557 15.549 8.69133 15.5494 9.17709C15.5494 9.19752 15.5442 9.21886 15.5571 9.24462C17.4144 8.1156 19.2707 6.98722 21.1373 5.85258L21.1374 5.85276ZM9.40229 11.5879H9.39311C9.39311 12.382 9.39384 13.1761 9.39247 13.9702C9.3922 14.1232 9.40592 14.2741 9.43855 14.4231C9.5289 14.836 9.71477 15.1966 10.017 15.4917C10.2626 15.7314 10.5539 15.8937 10.8757 16.0031C11.2546 16.132 11.6465 16.1773 12.0438 16.1855C12.2438 16.1896 12.4432 16.1783 12.642 16.1546C12.8923 16.1248 13.1368 16.0706 13.3728 15.9799C13.8473 15.7978 14.2217 15.4943 14.4694 15.0414C14.6738 14.668 14.7714 14.2644 14.772 13.8393C14.7744 12.2511 14.7729 10.6629 14.7728 9.0747C14.7728 9.06117 14.7733 9.04774 14.773 9.03422C14.7725 9.0148 14.7816 9.00616 14.8007 9.00698C14.814 9.00754 14.8274 9.00698 14.8407 9.00698C14.9626 9.00698 15.0845 9.00634 15.2063 9.00744C15.235 9.00772 15.2496 8.99935 15.2458 8.96844C15.2451 8.96273 15.2458 8.95684 15.2458 8.95114C15.2458 8.63696 15.2458 8.32278 15.2458 8.0086C15.2458 7.95101 15.2454 7.95101 15.1913 7.95046C15.1817 7.95046 15.1722 7.95046 15.1627 7.95046H13.1006C13.0872 7.95046 13.0739 7.95018 13.0606 7.95046C13.0163 7.95147 13.0153 7.95156 13.0152 7.99462C13.0149 8.31846 13.0149 8.6422 13.0152 8.96604C13.0152 9.0057 13.0164 9.00662 13.0578 9.0068C13.1854 9.00726 13.313 9.0068 13.4406 9.00707C13.496 9.00707 13.496 9.00744 13.4965 9.06375C13.4965 9.06954 13.4965 9.07534 13.4965 9.08114C13.4965 10.7195 13.4963 12.3578 13.4969 13.9961C13.4969 14.0685 13.4861 14.1378 13.464 14.2061C13.3673 14.5055 13.165 14.7057 12.8867 14.8333C12.6593 14.9374 12.4171 14.9726 12.1703 14.9824C11.993 14.9894 11.8164 14.9778 11.6413 14.9484C11.483 14.9218 11.329 14.8782 11.1875 14.7997C10.8733 14.6251 10.703 14.3669 10.7038 13.9924C10.7075 12.3637 10.7054 10.735 10.7054 9.10625C10.7054 9.0908 10.7051 9.07543 10.7054 9.05997C10.7063 9.01517 10.7064 9.01499 10.7488 9.01397C10.7659 9.01351 10.7831 9.01397 10.8003 9.01397C10.9126 9.01397 11.0249 9.01434 11.1373 9.01379C11.1836 9.01361 11.1836 9.01269 11.1846 8.96457C11.1848 8.95684 11.1846 8.94911 11.1846 8.94148C11.1846 8.63503 11.1848 8.32858 11.1845 8.02212C11.1845 7.94356 11.1931 7.95073 11.1144 7.95073C10.4079 7.95064 9.7015 7.95073 8.99502 7.95073C8.98547 7.95073 8.97593 7.95046 8.96648 7.95073C8.92658 7.95211 8.92549 7.9522 8.9254 7.99351C8.92503 8.31735 8.92503 8.6411 8.9254 8.96494C8.9254 9.00579 8.92658 9.0068 8.96684 9.00698C9.08872 9.00754 9.2106 9.00698 9.3324 9.00726C9.41038 9.00744 9.4022 8.99953 9.40229 9.07874C9.40229 9.91521 9.40229 10.7517 9.40229 11.5882V11.5879ZM13.1893 10.9845C13.1677 10.9869 13.1508 11 13.1335 11.0105C12.9721 11.1085 12.8112 11.2073 12.6498 11.3054C12.1185 11.6284 11.5873 11.9518 11.0548 12.2731C11.0168 12.296 11.0029 12.3186 11.003 12.3631C11.0046 12.92 11.0046 13.4768 11.0037 14.0337C11.0034 14.1763 11.0555 14.296 11.1502 14.3981C11.2369 14.4917 11.3466 14.5483 11.4643 14.5908C11.6453 14.6562 11.8345 14.6729 12.0243 14.682C12.0983 14.6855 12.1723 14.6796 12.2464 14.6747C12.4048 14.6644 12.5593 14.6378 12.708 14.5809C12.8757 14.5167 13.019 14.4193 13.1162 14.2626C13.1655 14.1832 13.1977 14.0976 13.1977 14.002C13.1975 13.0155 13.1974 12.029 13.197 11.0424C13.197 11.024 13.2018 11.0044 13.1892 10.9842L13.1893 10.9845ZM15.4302 9.32291L15.4278 9.30948C15.3183 9.30948 15.2089 9.30948 15.0995 9.30948C15.0809 9.30948 15.0713 9.3173 15.0714 9.3368C15.0716 9.4013 15.0714 9.4657 15.0714 9.54049L15.4302 9.323V9.32291ZM5.8279 4.66753C5.73283 4.59669 5.64794 4.5137 5.55914 4.4355C5.21731 4.13448 4.87639 3.83235 4.5351 3.53068C4.52937 3.52562 4.52338 3.52084 4.51756 3.51587C4.48284 3.48643 4.48257 3.48616 4.44839 3.51514C4.28479 3.6535 4.12128 3.79206 3.95768 3.93052C3.65393 4.18766 3.35018 4.4448 3.04643 4.70194C3.03934 4.70792 3.03189 4.71344 3.02098 4.72208C3.01298 4.70387 3.01835 4.68988 3.02171 4.67627C3.16304 4.10302 3.30447 3.52976 3.4458 2.95642C3.45543 2.91723 3.46288 2.8773 3.47515 2.83894C3.48443 2.80977 3.47597 2.79441 3.45152 2.77831C3.3191 2.69118 3.18776 2.6024 3.05607 2.51408C2.7245 2.29172 2.39294 2.06926 2.06147 1.84662C2.04965 1.83871 2.03411 1.83402 2.02711 1.81148H3.77509C3.79036 1.81148 3.80572 1.81019 3.82071 1.81166C3.84171 1.81378 3.8518 1.80348 3.85816 1.78489C3.87361 1.73935 3.88997 1.69418 3.9057 1.64873C4.0902 1.11651 4.27461 0.5842 4.45966 0.052164C4.46566 0.03496 4.46548 0.013248 4.48784 0C4.51974 0.111688 4.55119 0.221996 4.58273 0.332396C4.71851 0.807576 4.8543 1.28276 4.99018 1.75794C5.00545 1.81148 5.00581 1.81148 5.06389 1.81148C5.62558 1.81148 6.18728 1.81148 6.74906 1.81148H6.81632C6.8075 1.83834 6.78405 1.84488 6.76706 1.85628C6.32052 2.15768 5.87344 2.45833 5.4269 2.75963C5.3591 2.80536 5.36046 2.78548 5.38264 2.87325C5.52942 3.45304 5.6763 4.03282 5.8229 4.6127C5.82754 4.63091 5.83599 4.64922 5.82709 4.66863L5.8279 4.66753ZM7.07863 1.81139H8.83405C8.84932 1.81139 8.86459 1.81047 8.87977 1.81157C8.90058 1.81304 8.90985 1.80311 8.91612 1.7837C8.9333 1.73061 8.95257 1.67826 8.97084 1.62564C9.15262 1.10253 9.3344 0.579508 9.51626 0.056396C9.5219 0.040204 9.52817 0.024196 9.53481 0.006348C9.55944 0.015548 9.55653 0.038456 9.56116 0.054556C9.67314 0.444636 9.78411 0.8349 9.89527 1.22516C9.9448 1.39904 9.99434 1.57292 10.0441 1.74671C10.0564 1.78977 10.0838 1.8113 10.1264 1.8113C10.6901 1.8113 11.2538 1.8113 11.8175 1.8113H11.8864C11.8617 1.82914 11.8488 1.83917 11.8353 1.84828C11.3822 2.15381 10.9291 2.45925 10.4761 2.76469C10.4713 2.76791 10.4664 2.77095 10.4617 2.77417C10.4222 2.80112 10.4218 2.80131 10.4334 2.84758C10.4804 3.03407 10.5279 3.22046 10.575 3.40694C10.6769 3.80972 10.7788 4.2125 10.8806 4.61527C10.8847 4.63146 10.8945 4.6471 10.8859 4.6655C10.863 4.6621 10.8511 4.64296 10.8359 4.62953C10.4154 4.25831 9.99516 3.887 9.57507 3.51541C9.53908 3.48358 9.54453 3.48275 9.50599 3.51541C9.04864 3.90218 8.59129 4.28895 8.13375 4.67544C8.11494 4.69136 8.09803 4.70994 8.07059 4.7219C8.07195 4.68133 8.0854 4.64609 8.09413 4.6103C8.23782 4.02564 8.38233 3.44117 8.52658 2.8566C8.54039 2.80076 8.5403 2.80048 8.49376 2.7692C8.04005 2.46477 7.58624 2.16034 7.13261 1.85573C7.11562 1.84432 7.09598 1.83623 7.07872 1.8113L7.07863 1.81139ZM18.1891 4.71215C18.1862 4.69246 18.1923 4.67415 18.197 4.65548C18.3448 4.0561 18.4924 3.45662 18.64 2.85724C18.6539 2.80112 18.654 2.80085 18.6071 2.76938C18.1519 2.46376 17.6966 2.15823 17.2415 1.85242C17.2262 1.84212 17.2083 1.83466 17.1921 1.8113H18.9356C18.9471 1.8113 18.9584 1.81148 18.9699 1.8113C19.0302 1.81038 19.0177 1.81562 19.0363 1.76208C19.1886 1.32443 19.3403 0.886604 19.4921 0.448868C19.5381 0.316296 19.584 0.183632 19.6301 0.05106C19.6351 0.036708 19.641 0.022632 19.6476 0.00552C19.6707 0.018676 19.6697 0.041768 19.675 0.059892C19.7696 0.388884 19.8635 0.71806 19.9575 1.04714C20.0246 1.28202 20.0915 1.5169 20.1584 1.75177C20.1611 1.76106 20.1655 1.76999 20.1667 1.77937C20.1703 1.80679 20.1869 1.8136 20.2112 1.81148C20.2244 1.81038 20.2378 1.8113 20.2511 1.8113H21.925H21.9998C21.9724 1.83154 21.9568 1.84405 21.9402 1.85518C21.4902 2.15823 21.0402 2.46118 20.59 2.76414C20.5868 2.76626 20.5836 2.76846 20.5804 2.77058C20.5348 2.80149 20.5346 2.80149 20.5475 2.85228C20.6095 3.09644 20.672 3.34052 20.7338 3.58478C20.8207 3.92785 20.9071 4.27101 20.9939 4.61398C20.9981 4.63036 21.0053 4.64618 21.0003 4.66431C20.978 4.66173 20.9666 4.6449 20.9527 4.63266C20.5322 4.26162 20.1118 3.8904 19.6915 3.51918C19.649 3.48174 19.6585 3.48128 19.6138 3.519C19.1538 3.90844 18.6936 4.29769 18.2334 4.68694C18.2206 4.6977 18.2105 4.71334 18.1915 4.71472L18.189 4.71206L18.1891 4.71215ZM14.6014 0.001288C14.6355 0.119416 14.6698 0.237452 14.7037 0.355764C14.8379 0.825424 14.9719 1.29518 15.106 1.76484C15.1193 1.81111 15.1194 1.8113 15.1735 1.8113C15.7372 1.8113 16.3008 1.8113 16.8644 1.8113H16.933C16.9209 1.83457 16.9032 1.84166 16.8885 1.8515C16.4384 2.15446 15.9883 2.45732 15.5381 2.76018C15.5302 2.76552 15.5228 2.77214 15.5143 2.7761C15.4817 2.791 15.48 2.81382 15.4884 2.84676C15.5995 3.2809 15.7091 3.71542 15.819 4.14984C15.861 4.31572 15.9033 4.48169 15.9453 4.64756C15.9471 4.65474 15.9479 4.66219 15.9513 4.68105C15.9152 4.64968 15.8868 4.62539 15.8588 4.60055C15.4544 4.24304 15.05 3.88553 14.6457 3.52792C14.6442 3.52664 14.6428 3.52526 14.6414 3.52406C14.5898 3.48294 14.607 3.47677 14.5501 3.52489C14.0899 3.91405 13.6298 4.30348 13.1695 4.69255C13.1581 4.70212 13.1492 4.71601 13.1323 4.71804C13.1241 4.7024 13.1323 4.68832 13.1357 4.67388C13.2842 4.07266 13.4328 3.47134 13.5814 2.87012C13.5984 2.80112 13.5987 2.80122 13.5395 2.76147L12.197 1.86153C12.1781 1.84883 12.1592 1.83604 12.137 1.82105C12.1559 1.80412 12.1753 1.81157 12.1923 1.81148C12.7541 1.81102 13.3158 1.81111 13.8776 1.81111C13.889 1.81111 13.9004 1.81111 13.9118 1.81111C13.9615 1.81074 13.9619 1.81093 13.9789 1.76217C14.1488 1.27365 14.3185 0.785036 14.4882 0.296516C14.5221 0.19872 14.5563 0.100832 14.5903 0.003036L14.6014 0.001012V0.001288Z" fill="#B69E30"></path>
    <path fill-rule="evenodd" clip-rule="evenodd" d="M5.82715 4.66878C5.83124 4.66602 5.83351 4.66694 5.83378 4.67172C5.83378 4.67182 5.83178 4.67228 5.83069 4.67228C5.82306 4.672 5.83342 4.6731 5.82797 4.66768L5.82715 4.66878ZM18.1917 4.71496L18.1862 4.72214C18.1852 4.72085 18.183 4.71883 18.1832 4.71855C18.1849 4.71625 18.1871 4.71432 18.1891 4.7123L18.1917 4.71496Z" fill="#B69E30"></path>
    <path fill-rule="evenodd" clip-rule="evenodd" d="M21.1375 5.8529L15.5573 9.24494C15.5444 9.21918 15.5496 9.19793 15.5496 9.17742C15.5492 8.69166 15.5494 8.2059 15.5492 7.72014C15.5492 7.6458 15.5562 7.65022 15.4827 7.65022C14.5838 7.65022 13.685 7.65022 12.7861 7.65022C12.7087 7.65022 12.7166 7.64313 12.7166 7.72234C12.7164 8.22742 12.7165 8.73241 12.7165 9.23749C12.7165 9.24715 12.7162 9.25681 12.7165 9.26638C12.718 9.3076 12.7181 9.30879 12.7582 9.30907C12.8629 9.3098 12.9677 9.30934 13.0724 9.30934C13.1029 9.30934 13.1333 9.30971 13.1639 9.30944C13.1878 9.30925 13.1987 9.32066 13.1972 9.34495C13.1965 9.35645 13.1972 9.36804 13.1972 9.37963C13.1972 9.79409 13.1963 10.2086 13.1985 10.6229C13.1988 10.6685 13.1829 10.6913 13.1463 10.7134C12.4488 11.1358 11.7521 11.5594 11.0552 11.9825C11.0411 11.9911 11.0289 12.0052 11.0093 12.0032C10.9998 11.9845 11.0047 11.9651 11.0047 11.9466C11.0044 11.0927 11.0044 10.2387 11.0044 9.38478C11.0044 9.37706 11.0043 9.36933 11.0044 9.36169C11.0056 9.31818 11.0056 9.31726 11.0497 9.31716C11.1773 9.3167 11.3049 9.31716 11.4325 9.31689C11.4831 9.3168 11.4838 9.31624 11.4838 9.26675C11.484 8.74437 11.484 8.222 11.4838 7.69953C11.4838 7.65141 11.483 7.65141 11.4373 7.65031C11.4277 7.65012 11.4182 7.65031 11.4087 7.65031C10.506 7.65031 9.60339 7.65031 8.70068 7.6504C8.61761 7.6504 8.62661 7.64194 8.62652 7.72363C8.62624 8.22871 8.62633 8.7337 8.62652 9.23878C8.62652 9.31634 8.61933 9.30925 8.69795 9.30944C8.81411 9.30971 8.93027 9.30925 9.04642 9.30962C9.09877 9.3098 9.09895 9.31036 9.09932 9.36491C9.0995 9.39573 9.09932 9.42655 9.09932 9.45746L9.0955 13.095C9.0955 13.1046 9.09396 13.1146 9.09568 13.1238C9.10341 13.1651 9.0815 13.1859 9.04888 13.2051C8.95335 13.261 8.85928 13.3196 8.76458 13.3771C8.30922 13.6537 7.85414 13.9307 7.39815 14.2062C7.32799 14.2486 7.34571 14.2596 7.30008 14.1807C6.94798 13.5723 6.59633 12.9636 6.24468 12.3548C5.81814 11.6164 5.39178 10.8779 4.96524 10.1394C4.55015 9.42094 4.13488 8.7026 3.71979 7.98418C3.31915 7.29068 2.9186 6.59709 2.51833 5.90332C2.50988 5.88869 2.4977 5.87563 2.49588 5.8575C2.53769 5.84536 21.0036 5.83993 21.1376 5.85309L21.1375 5.8529Z" fill="#263D96"></path>
    <path fill-rule="evenodd" clip-rule="evenodd" d="M21.2791 6.07031C21.2793 6.0865 21.2716 6.10002 21.2641 6.11336C21.1223 6.36406 20.9802 6.61449 20.8387 6.86528C20.7216 7.07265 20.6053 7.28029 20.4885 7.48775C20.3745 7.69015 20.2605 7.89255 20.1463 8.09486C20.0321 8.29717 19.9177 8.49938 19.8035 8.7016C19.6722 8.93399 19.541 9.16629 19.4098 9.39868C19.2967 9.59933 19.1837 9.80017 19.0706 10.0009C18.9358 10.24 18.8008 10.4791 18.666 10.7183C18.5368 10.9475 18.4082 11.1769 18.2789 11.4059C18.1487 11.6367 18.0178 11.8669 17.8875 12.0977C17.7583 12.3268 17.6298 12.5563 17.5006 12.7854C17.3517 13.0496 17.2021 13.3136 17.0532 13.5778C16.924 13.807 16.7954 14.0364 16.6663 14.2655C16.5219 14.5213 16.377 14.7768 16.2325 15.0326C16.1051 15.2583 15.978 15.4841 15.8506 15.7099C15.6998 15.9775 15.5489 16.245 15.3981 16.5127C15.2699 16.7402 15.142 16.9678 15.0137 17.1952C14.8836 17.426 14.753 17.6565 14.6227 17.8872C14.5095 18.0879 14.3965 18.2886 14.2833 18.4894C14.1486 18.7286 14.0136 18.9676 13.8788 19.2068C13.7657 19.4075 13.6528 19.6084 13.5397 19.809C13.4095 20.0398 13.2789 20.2703 13.1487 20.501C13.0363 20.6999 12.9243 20.899 12.8119 21.098C12.6798 21.332 12.5475 21.566 12.4155 21.8001C12.3014 22.0025 12.1877 22.2051 12.0737 22.4075C12.0673 22.419 12.0635 22.4327 12.0477 22.4407C12.0081 22.3869 11.9791 22.3264 11.9459 22.2688C11.8027 22.0212 11.6606 21.773 11.5181 21.5249C11.3872 21.2969 11.2564 21.0687 11.1254 20.8406C11.0135 20.6459 10.9015 20.4513 10.7895 20.2565C10.6575 20.0268 10.5256 19.7971 10.3937 19.5673C10.2665 19.346 10.1393 19.1246 10.0121 18.9032C9.88014 18.6735 9.74835 18.4438 9.61629 18.214C9.47759 17.9727 9.33853 17.7316 9.19984 17.4903C9.06787 17.2605 8.93608 17.0307 8.80411 16.801C8.69422 16.6095 8.58425 16.4181 8.47427 16.2267C8.34039 15.9937 8.20651 15.7607 8.07245 15.5277C7.88958 15.21 7.70644 14.8923 7.52348 14.5746C7.50812 14.548 7.49431 14.5204 7.47749 14.4947C7.46122 14.47 7.46495 14.4556 7.49094 14.4403C7.57483 14.3911 7.65754 14.3395 7.74071 14.289C8.17279 14.0263 8.60497 13.7636 9.03715 13.5011C9.05314 13.4914 9.06787 13.4784 9.08922 13.4775C9.10031 13.4907 9.09495 13.5067 9.09495 13.5209C9.09531 13.6964 9.0955 13.8718 9.09468 14.0472C9.09341 14.3162 9.15076 14.5739 9.24055 14.8252C9.31872 15.0441 9.42815 15.2459 9.56612 15.4321C9.74417 15.6724 9.96139 15.8684 10.2142 16.0251C10.4661 16.1813 10.7379 16.2883 11.0237 16.3609C11.1969 16.4048 11.3722 16.4373 11.5502 16.4554C11.6524 16.4658 11.7547 16.4718 11.8569 16.4798C11.9787 16.4894 12.1003 16.4888 12.2219 16.4866C12.3681 16.4842 12.5137 16.472 12.6594 16.4562C12.8621 16.4342 13.061 16.3949 13.2564 16.3374C13.6 16.2364 13.9158 16.08 14.1921 15.847C14.5121 15.577 14.7412 15.2422 14.8901 14.8491C14.9653 14.6505 15.0161 14.4458 15.0463 14.236C15.0646 14.1086 15.0727 13.98 15.0725 13.8507C15.0713 12.5302 15.0718 11.2098 15.0704 9.88932C15.0704 9.84746 15.0827 9.82381 15.1183 9.80219C15.6294 9.49298 16.1396 9.18239 16.65 8.87207C17.1473 8.56976 17.6448 8.26745 18.1421 7.96505C18.6085 7.68141 19.0746 7.39759 19.541 7.11405C20.0383 6.81164 20.5358 6.50933 21.0331 6.20693C21.0984 6.16727 21.1634 6.12725 21.2285 6.08751C21.2432 6.07859 21.257 6.0681 21.2745 6.06543C21.276 6.06699 21.2774 6.06847 21.279 6.07003L21.2791 6.07031Z" fill="#C4122E"></path>
    <path fill-rule="evenodd" clip-rule="evenodd" d="M9.40237 11.5878C9.40237 10.7514 9.40237 9.91492 9.40237 9.07836C9.40237 8.99915 9.41045 9.00706 9.33247 9.00688C9.21059 9.0066 9.08871 9.00715 8.96692 9.0066C8.92665 9.00642 8.92556 9.00541 8.92547 8.96456C8.9252 8.64072 8.92511 8.31697 8.92547 7.99313C8.92547 7.95182 8.92665 7.95173 8.96655 7.95035C8.9761 7.94998 8.98564 7.95035 8.99509 7.95035C9.70157 7.95035 10.408 7.95035 11.1144 7.95035C11.1931 7.95035 11.1845 7.94317 11.1846 8.02174C11.1849 8.32819 11.1847 8.63465 11.1847 8.9411C11.1847 8.94883 11.1848 8.95655 11.1847 8.96419C11.1837 9.01221 11.1837 9.01313 11.1373 9.01341C11.025 9.01396 10.9127 9.01359 10.8003 9.01359C10.7831 9.01359 10.7661 9.01323 10.7489 9.01359C10.7063 9.01461 10.7063 9.01479 10.7054 9.05959C10.7052 9.07505 10.7054 9.09041 10.7054 9.10587C10.7054 10.7345 10.7075 12.3633 10.7039 13.992C10.7031 14.3665 10.8734 14.6248 11.1876 14.7993C11.3291 14.8779 11.4831 14.9216 11.6414 14.9481C11.8165 14.9774 11.9931 14.989 12.1704 14.982C12.4171 14.9722 12.6593 14.937 12.8868 14.8329C13.1652 14.7054 13.3674 14.5052 13.4641 14.2057C13.4862 14.1374 13.497 14.0681 13.497 13.9958C13.4964 12.3574 13.4965 10.7191 13.4965 9.08075C13.4965 9.07496 13.4965 9.06916 13.4965 9.06337C13.4962 9.00697 13.4962 9.00669 13.4406 9.00669C13.313 9.00651 13.1855 9.00697 13.0579 9.00642C13.0166 9.00623 13.0154 9.00531 13.0153 8.96566C13.0149 8.64182 13.0149 8.31807 13.0153 7.99423C13.0153 7.95118 13.0164 7.95109 13.0606 7.95007C13.074 7.9498 13.0873 7.95007 13.1006 7.95007H15.1628C15.1724 7.95007 15.1819 7.95007 15.1913 7.95007C15.2456 7.95053 15.2459 7.95063 15.2459 8.00822C15.246 8.3224 15.2459 8.63658 15.2459 8.95076C15.2459 8.95655 15.2452 8.96244 15.2459 8.96805C15.2497 8.99897 15.2351 9.00734 15.2063 9.00706C15.0845 9.00596 14.9626 9.0066 14.8408 9.0066C14.8274 9.0066 14.8142 9.00715 14.8008 9.0066C14.7817 9.00587 14.7727 9.01451 14.7731 9.03383C14.7734 9.04736 14.7729 9.06079 14.7729 9.07431C14.7729 10.6625 14.7744 12.2507 14.7721 13.8389C14.7714 14.2639 14.6738 14.6675 14.4695 15.0411C14.2217 15.4939 13.8475 15.7974 13.3728 15.9796C13.1369 16.0702 12.8924 16.1245 12.6421 16.1543C12.4433 16.1779 12.2439 16.1892 12.0439 16.1851C11.6466 16.1769 11.2547 16.1315 10.8758 16.0027C10.5541 15.8934 10.2626 15.7312 10.017 15.4913C9.71484 15.1962 9.52897 14.8356 9.43863 14.4227C9.406 14.2737 9.39228 14.1228 9.39255 13.9698C9.39391 13.1757 9.39319 12.3816 9.39319 11.5875H9.40246L9.40237 11.5878Z" fill="#FFFFFE"></path>
    <path fill-rule="evenodd" clip-rule="evenodd" d="M13.1894 10.9846C13.202 11.0048 13.1972 11.0244 13.1972 11.0428C13.1977 12.0293 13.1979 13.0158 13.198 14.0024C13.198 14.0979 13.1657 14.1836 13.1164 14.2629C13.0193 14.4197 12.8758 14.517 12.7082 14.5813C12.5596 14.6382 12.4051 14.6648 12.2466 14.6751C12.1726 14.6799 12.0986 14.6859 12.0246 14.6824C11.8346 14.6734 11.6456 14.6566 11.4645 14.5912C11.3468 14.5487 11.2372 14.492 11.1504 14.3985C11.0557 14.2963 11.0036 14.1767 11.0039 14.0341C11.0048 13.4772 11.0048 12.9204 11.0033 12.3635C11.0032 12.319 11.0171 12.2963 11.0551 12.2734C11.5875 11.9522 12.1187 11.6288 12.6501 11.3058C12.8115 11.2077 12.9724 11.1088 13.1338 11.0108C13.1511 11.0004 13.168 10.9873 13.1895 10.9849L13.1894 10.9846Z" fill="#C4122E"></path>
    <path fill-rule="evenodd" clip-rule="evenodd" d="M15.4304 9.323L15.0716 9.54058C15.0716 9.46579 15.0717 9.4013 15.0716 9.3369C15.0716 9.31739 15.0812 9.30948 15.0997 9.30957C15.2091 9.30976 15.3186 9.30957 15.428 9.30957C15.4288 9.31408 15.4296 9.3185 15.4305 9.323H15.4304Z" fill="#263D96"></path>
    <path fill-rule="evenodd" clip-rule="evenodd" d="M21.2746 6.06602C21.2771 6.06383 21.2811 6.05944 21.2818 6.05984C21.2891 6.06482 21.2835 6.06782 21.2795 6.07091C21.2778 6.06931 21.2762 6.06762 21.2746 6.06602Z" fill="#C4122E"></path>
  </g>
  <defs>
    <clipPath id="clip0_460_319">
      <rect width="20" height="23" fill="white" transform="translate(2)"></rect>
    </clipPath>
  </defs>
</svg>
