<?xml version="1.0" encoding="UTF-8"?>
<svg xmlns="http://www.w3.org/2000/svg" width="24" height="24" viewBox="0 0 24 24" fill="none">
  <g clip-path="url(#clip0_447_193)">
    <path d="M4.6777 14.429H5.1323V15.4312H4.6777V14.429Z" stroke="#FFFF00" stroke-width="1.56"></path>
    <path d="M19.4165 23.4999H4.58367L0 9.28531L12 0.5L24 9.28515L19.4165 23.4999Z" fill="#24216A"></path>
    <path d="M18.6727 22.4668H5.32884L1.20523 9.67905L12.0006 1.77563L22.7961 9.67888L18.6727 22.4668H18.6727Z" fill="white"></path>
    <path fill-rule="evenodd" clip-rule="evenodd" d="M11.8308 2.73022C11.8381 4.2562 11.0174 5.54961 8.04527 7.48435C3.54228 10.6193 3.76376 11.9969 3.21401 13.6425L1.98868 9.93498L11.8308 2.73022Z" fill="#E01E13"></path>
    <path fill-rule="evenodd" clip-rule="evenodd" d="M4.3835 17.1888C3.56318 14.8174 3.9113 13.0461 4.70301 11.6803C5.44224 10.4051 6.55347 9.45273 7.79142 8.59375C6.97496 9.60837 6.43301 10.4356 6.07838 11.135C5.11879 13.0274 5.29422 14.2021 5.61462 15.184C5.66798 13.8694 5.84967 12.5853 7.22013 11.5316C6.27116 13.8759 6.83891 15.3044 7.35803 15.9979L4.38342 17.1888H4.3835Z" fill="#E01E13"></path>
    <path d="M12.0012 14.8103L4.55859 17.9048L5.81318 21.7955H18.1892L19.4438 17.9048L12.0012 14.8103Z" fill="#E01E13"></path>
    <path fill-rule="evenodd" clip-rule="evenodd" d="M11.4554 11.6642C11.3118 13.0094 11.834 13.2169 12.3442 13.5087C12.3794 12.9431 12.5634 12.7954 12.8188 12.7381C14.0343 12.4653 14.3745 13.8257 15.154 14.283C15.5845 14.5322 16.4614 14.4267 16.9107 14.295C18.4764 13.8362 19.035 12.2205 19.1614 11.0039C19.4278 10.8442 19.7473 10.8292 19.8242 10.1537C18.54 9.62295 17.4658 8.9864 16.5023 8.29406C16.6268 8.20532 16.8431 8.21471 16.8865 7.99802C16.8988 7.96231 16.6531 7.76287 16.3804 7.52059C15.763 6.97198 14.7221 6.13754 14.1973 6.01696C14.1856 5.44714 14.0789 4.89271 13.4516 4.42297C13.4542 4.8706 13.386 5.33734 13.2105 5.74367L12.7284 5.7057C12.9685 4.79367 12.9929 3.81185 12.4493 2.93384L22.0137 9.93486L19.6749 17.188L12.2067 14.2143C11.4848 13.8988 10.6461 13.1781 11.4555 11.6642L11.4554 11.6642Z" fill="#24216A"></path>
    <path fill-rule="evenodd" clip-rule="evenodd" d="M13.6624 8.02082C14.1761 8.29265 14.4636 8.66805 14.6493 9.15179C14.8506 9.07916 15.0815 9.06386 15.3423 9.05309C15.6073 8.9696 15.706 8.72384 15.7265 8.461C15.5771 8.54319 15.4039 8.55331 15.2143 8.51412C14.7575 8.03693 14.2267 7.95636 13.6625 8.02074L13.6624 8.02082Z" fill="#201E5F"></path>
    <path d="M12.0753 17.1782C12.1256 16.666 12.8279 16.7325 12.8279 16.7325L12.563 16.4021C12.563 16.4021 12.2473 16.3591 12.1067 16.7213C12.1046 16.7268 12.1019 16.734 12.0988 16.7424C12.0968 16.7479 12.0925 16.7515 12.0865 16.7498C12.0821 16.7485 12.079 16.7448 12.0804 16.7375C12.0821 16.7289 12.0835 16.7243 12.0849 16.7183C12.1727 16.3591 12.3595 16.0882 12.3595 16.0882L12.0096 15.6123L11.6597 16.0882C11.6597 16.0882 11.8466 16.3591 11.9343 16.7183C11.9358 16.7243 11.9372 16.7289 11.9389 16.7375C11.9403 16.7448 11.9373 16.7486 11.9328 16.7498C11.9269 16.7515 11.9224 16.7479 11.9205 16.7424C11.9175 16.734 11.9148 16.7268 11.9126 16.7213C11.772 16.3591 11.4563 16.4021 11.4563 16.4021L11.1914 16.7325C11.1914 16.7325 11.8937 16.666 11.944 17.1782H12.0753H12.0753Z" fill="white"></path>
    <path d="M6.69714 17.8579V20.917H8.67827L8.48998 20.2399H7.55587V17.8579H6.69714Z" fill="white"></path>
    <path d="M15.4162 17.8618C15.1211 17.8618 14.8835 18.0821 14.8835 18.3557V20.0442L15.1751 20.9134H16.7723C17.0674 20.9134 17.305 20.6931 17.305 20.4195V19.8219H16.4937V20.2759H15.6948V18.5146H16.4937V18.9534H17.305V18.3558C17.305 18.0822 17.0674 17.8619 16.7723 17.8619H15.4161L15.4162 17.8618Z" fill="white"></path>
    <path d="M9.51055 17.8617C9.21547 17.8617 8.97784 18.082 8.97784 18.3555V20.044L9.26947 20.9132H10.8666C11.1617 20.9132 11.3993 20.6929 11.3993 20.4193V18.3554C11.3993 18.0819 11.1617 17.8616 10.8666 17.8616H9.51047L9.51055 17.8617ZM9.78916 18.5143H10.5881V20.2758H9.78916V18.5143Z" fill="white"></path>
    <path d="M12.6516 19.6038L13.5409 19.8163V20.2758H12.742V20.044H11.9307L12.2223 20.9132H13.8195C14.1146 20.9132 14.3522 20.6929 14.3522 20.4193V19.7327C14.338 19.492 14.1501 19.2855 13.4203 19.1407L12.7419 18.9737V18.5142H13.5409V18.7687H14.3522V18.3554C14.3522 18.0819 14.1146 17.8616 13.8195 17.8616H12.4633C12.1682 17.8616 11.9306 18.0819 11.9306 18.3554V19.1407C11.9394 19.4344 12.35 19.5237 12.6515 19.6037L12.6516 19.6038Z" fill="white"></path>
  </g>
  <defs>
    <clipPath id="clip0_447_193">
      <rect width="24" height="23" fill="white" transform="translate(0 0.5)"></rect>
    </clipPath>
  </defs>
</svg>
