<?xml version="1.0" encoding="UTF-8"?>
<svg xmlns="http://www.w3.org/2000/svg" width="24" height="24" viewBox="0 0 24 24" fill="none">
  <g clip-path="url(#clip0_457_177)">
    <path fill-rule="evenodd" clip-rule="evenodd" d="M8.69535 0L9.25256 1.73094H11.0549L9.59701 2.80109L10.1542 4.53299L8.69535 3.46284L7.23647 4.53299L7.79369 2.80109L6.33481 1.73094H8.13813L8.69535 0Z" fill="#F8AE12"></path>
    <path fill-rule="evenodd" clip-rule="evenodd" d="M15.3047 0L15.8619 1.73094H17.6652L16.2063 2.80109L16.7635 4.53299L15.3047 3.46284L13.8458 4.53299L14.403 2.80109L12.9441 1.73094H14.7474L15.3047 0Z" fill="#F8AE12"></path>
    <path fill-rule="evenodd" clip-rule="evenodd" d="M4.5 5.43457H19.5V20.5632H19.499C18.4686 22.3856 16.6147 22.558 14.5833 22.6948C13.5662 22.8008 12.718 23.2438 12.0568 23.9884V23.999C12.0568 23.999 12.0539 23.9952 12.052 23.9942C12.0501 23.9961 12.0491 23.9971 12.0472 23.999V23.9884C11.3793 23.2448 10.5139 22.8094 9.48632 22.7035C7.43588 22.5657 5.54383 22.3866 4.50286 20.5632H4.49905V5.43457H4.5Z" fill="#F8AE12"></path>
    <path fill-rule="evenodd" clip-rule="evenodd" d="M4.75857 5.75439H19.2414V20.3619H19.2405C18.2453 22.1217 16.4553 22.2874 14.4946 22.4203C13.5128 22.5224 12.6932 22.9511 12.0549 23.6696V23.6802C12.0549 23.6802 12.052 23.6764 12.0501 23.6754C12.0482 23.6773 12.0472 23.6783 12.0453 23.6802V23.6696C11.4003 22.9511 10.5645 22.5311 9.57315 22.429C7.59331 22.2961 5.76614 22.1227 4.76143 20.3619H4.75761V5.75439H4.75857Z" fill="#12100B"></path>
    <path d="M16.5937 22.1756C17.6843 21.9397 18.6174 21.4629 19.2395 20.3628H19.2405V17.8054L9.24874 5.75439H4.75857V7.90241L16.5946 22.1756H16.5937Z" fill="#E20714"></path>
    <path d="M5.34251 7.84166V6.33997H6.34626V6.51721H5.53906V6.98245H6.23653V7.15969H5.53906V7.84166H5.34155H5.34251ZM6.59338 7.84166V6.33997H7.15155C7.26509 6.33997 7.35669 6.35538 7.42444 6.38524C7.49313 6.41607 7.54752 6.4623 7.58568 6.52588C7.6248 6.58849 7.64389 6.65495 7.64389 6.7243C7.64389 6.78788 7.62671 6.84856 7.59236 6.90539C7.55801 6.96222 7.50554 7.0075 7.43589 7.04313C7.52557 7.07011 7.59523 7.11538 7.64293 7.17895C7.69159 7.24349 7.71545 7.31958 7.71545 7.40627C7.71545 7.47659 7.70018 7.54209 7.67156 7.60277C7.64198 7.66346 7.60572 7.70969 7.56279 7.74244C7.51985 7.77519 7.46546 7.80024 7.39963 7.81661C7.33475 7.83299 7.2546 7.84166 7.15919 7.84166H6.59147H6.59338ZM6.79089 6.97089H7.11243C7.19926 6.97089 7.26223 6.96511 7.3004 6.95355C7.35001 6.93814 7.38818 6.91406 7.41299 6.87842C7.43875 6.84374 7.45115 6.79944 7.45115 6.74742C7.45115 6.69733 7.4397 6.65399 7.41585 6.61642C7.39199 6.57789 7.35765 6.55285 7.31471 6.5384C7.27082 6.52395 7.19544 6.51721 7.08858 6.51721H6.79184V6.97089H6.79089ZM6.79089 7.66442H7.16109C7.22502 7.66442 7.26987 7.6625 7.29563 7.65768C7.34143 7.64901 7.37864 7.63552 7.40917 7.61626C7.4397 7.597 7.46451 7.56906 7.48455 7.53342C7.50363 7.49682 7.51412 7.45444 7.51412 7.40724C7.51412 7.35137 7.49981 7.30224 7.47119 7.26083C7.44256 7.21941 7.40344 7.19051 7.35288 7.17413C7.30231 7.15776 7.22979 7.14909 7.13533 7.14909H6.79184V7.66539L6.79089 7.66442ZM9.04933 7.31477L9.24684 7.36486C9.20581 7.52764 9.13139 7.6519 9.02452 7.73859C8.91671 7.82432 8.78599 7.8667 8.63142 7.8667C8.47685 7.8667 8.34041 7.83395 8.24022 7.76845C8.14004 7.70199 8.06371 7.60663 8.01123 7.48237C7.95875 7.35715 7.93299 7.22326 7.93299 7.07974C7.93299 6.92369 7.96257 6.78691 8.02173 6.67036C8.08088 6.55381 8.16485 6.46519 8.27457 6.40451C8.38334 6.34382 8.50357 6.31396 8.63524 6.31396C8.78408 6.31396 8.90907 6.35249 9.01117 6.42859C9.1123 6.50565 9.18291 6.61257 9.22299 6.75127L9.0293 6.79751C8.99495 6.6877 8.94438 6.60871 8.87854 6.55863C8.81271 6.50854 8.73065 6.48349 8.63047 6.48349C8.51597 6.48349 8.42056 6.51143 8.34422 6.56633C8.26694 6.6222 8.21351 6.69637 8.18297 6.7898C8.15149 6.88324 8.13622 6.9786 8.13622 7.07781C8.13622 7.20592 8.15435 7.31669 8.19156 7.41205C8.22877 7.50741 8.28602 7.57869 8.36331 7.62589C8.44155 7.67309 8.52551 7.69621 8.61615 7.69621C8.72588 7.69621 8.81938 7.66442 8.89572 7.59989C8.97205 7.53535 9.02357 7.43999 9.05124 7.3138L9.04933 7.31477ZM10.0598 7.84166V6.33997H10.3565L10.7086 7.40338C10.741 7.5026 10.7649 7.57677 10.7792 7.62589C10.7964 7.57099 10.8221 7.49104 10.8584 7.38508L11.2143 6.33997H11.4795V7.84166H11.2896V6.58463L10.8574 7.84166H10.68L10.2496 6.56344V7.84166H10.0598ZM11.8011 7.84166V6.33997H12.8764V6.51721H11.9976V6.97667H12.821V7.15294H11.9976V7.66442H12.9107V7.84166H11.8011ZM13.175 7.84166V6.33997H13.3725V7.66442H14.1053V7.84166H13.176H13.175ZM15.0356 7.25216V7.07588H15.6653V7.63167C15.569 7.70969 15.4688 7.76845 15.3657 7.80794C15.2627 7.84744 15.1568 7.8667 15.0489 7.8667C14.903 7.8667 14.7694 7.83492 14.6501 7.7723C14.5309 7.70969 14.4402 7.61819 14.3791 7.49875C14.3181 7.3793 14.2875 7.24541 14.2875 7.09804C14.2875 6.95066 14.3181 6.81581 14.3791 6.68866C14.4393 6.56152 14.527 6.46808 14.6406 6.40644C14.7541 6.34479 14.8848 6.31493 15.0337 6.31493C15.1405 6.31493 15.2388 6.33227 15.3257 6.36791C15.4125 6.40258 15.4812 6.45171 15.5298 6.51432C15.5795 6.57693 15.6167 6.6588 15.6424 6.75994L15.465 6.80907C15.4421 6.73201 15.4144 6.67229 15.3819 6.62894C15.3485 6.5856 15.3008 6.54996 15.2398 6.52395C15.1787 6.49794 15.11 6.48446 15.0346 6.48446C14.944 6.48446 14.8667 6.49891 14.8009 6.52588C14.735 6.55381 14.6826 6.59041 14.6415 6.63472C14.6015 6.67999 14.57 6.72912 14.5471 6.78306C14.5099 6.87553 14.4908 6.97667 14.4908 7.08552C14.4908 7.21941 14.5137 7.33114 14.5595 7.42169C14.6053 7.51223 14.6721 7.57869 14.7589 7.62204C14.8457 7.66538 14.9383 7.68754 15.0365 7.68754C15.1224 7.68754 15.2054 7.67116 15.2865 7.63745C15.3676 7.6047 15.4287 7.56906 15.4707 7.5315V7.25216H15.0337H15.0356ZM15.7922 7.84166L16.3638 6.33997H16.5756L17.1843 7.84166H16.9601L16.7864 7.38701H16.1643L16.0012 7.84166H15.7922ZM16.2216 7.22519H16.7263L16.5708 6.80907C16.524 6.68288 16.4887 6.57885 16.4658 6.49794C16.4468 6.59427 16.42 6.68963 16.3857 6.78499L16.2225 7.22519H16.2216ZM17.3456 7.84166V6.33997H18.0049C18.1375 6.33997 18.2386 6.35346 18.3073 6.38043C18.376 6.4074 18.4314 6.4546 18.4724 6.52299C18.5134 6.59138 18.5344 6.66747 18.5344 6.74935C18.5344 6.85627 18.501 6.94585 18.4323 7.01905C18.3636 7.09226 18.2587 7.13849 18.1155 7.15872C18.168 7.18377 18.2071 7.20881 18.2348 7.23386C18.2921 7.28683 18.3464 7.35426 18.398 7.43325L18.6565 7.84166H18.4094L18.2129 7.52861C18.1556 7.43903 18.1079 7.36967 18.0707 7.32151C18.0335 7.27335 18.0001 7.23963 17.9705 7.22133C17.9409 7.20207 17.9114 7.18858 17.8808 7.18088C17.8579 7.17606 17.8217 7.17413 17.7711 7.17413H17.5431V7.84069H17.3465L17.3456 7.84166ZM17.5421 7.00268H17.9657C18.0554 7.00268 18.126 6.99305 18.1766 6.97475C18.2281 6.95548 18.2663 6.92562 18.2921 6.8842C18.3188 6.84278 18.3312 6.79847 18.3312 6.74935C18.3312 6.67807 18.3054 6.62027 18.2549 6.57404C18.2043 6.5278 18.1232 6.50565 18.0125 6.50565H17.5421V7.00268Z" fill="white"></path>
    <path fill-rule="evenodd" clip-rule="evenodd" d="M15.3314 8.53711C15.8666 8.53711 16.3027 8.97635 16.3027 9.51383C16.3027 10.0513 15.8657 10.4906 15.3314 10.4906C15.2045 10.4906 15.0823 10.4655 14.9717 10.4212H14.8056C14.9125 11.2583 15.2903 12.0963 15.9325 12.9333C16.483 14.4755 15.4783 16.0465 13.9536 16.5628C12.613 16.8479 11.3822 16.871 10.1361 16.5975C8.42914 16.008 7.57041 14.7124 7.94443 12.9333C8.55126 12.1579 9.09417 11.3604 9.2039 10.4212H9.15428V10.3596C9.01116 10.4434 8.84514 10.4906 8.66862 10.4906C8.13335 10.4906 7.69731 10.0513 7.69731 9.51383C7.69731 8.97635 8.13431 8.53711 8.66862 8.53711C9.20294 8.53711 9.63994 8.97635 9.63994 9.51383C9.63994 9.56103 9.63612 9.60823 9.63039 9.6535H14.3706C14.3639 9.60823 14.361 9.56103 14.361 9.51383C14.361 8.97538 14.798 8.53711 15.3333 8.53711H15.3314ZM14.007 10.4212H13.3878V15.6285C14.5375 15.7518 15.589 14.2587 15.048 12.8996C14.3744 12.0847 14.2274 11.2409 14.0061 10.4222L14.007 10.4212ZM13.1798 15.588V10.4212H12.4861V15.1613C12.7094 15.3848 12.9451 15.5225 13.1798 15.588ZM12.2772 15.0274V10.4212H11.5826V15.0274H12.2772ZM11.3746 15.2152V10.4212H10.6799V15.6496C10.929 15.5976 11.1675 15.4599 11.3746 15.2152ZM10.4719 15.6737V10.4202H9.95862C9.72676 11.2958 9.26782 12.1435 8.79171 12.9324C8.10377 14.1152 9.3308 15.7017 10.4719 15.6728V15.6737Z" fill="url(#paint0_linear_457_177)"></path>
    <path fill-rule="evenodd" clip-rule="evenodd" d="M12.0186 19.3331C12.5233 19.3331 12.9346 18.9179 12.9346 18.4084C12.9346 17.8988 12.5233 17.4836 12.0186 17.4836C11.5139 17.4836 11.1026 17.8988 11.1026 18.4084C11.1026 18.9179 11.5139 19.3331 12.0186 19.3331Z" fill="white"></path>
    <path fill-rule="evenodd" clip-rule="evenodd" d="M12.0186 18.0588L12.2047 18.1995L12.3936 18.3343L12.3192 18.5559L12.2505 18.7793L12.0186 18.7755L11.7877 18.7793L11.719 18.5559L11.6446 18.3343L11.8335 18.1995L12.0186 18.0588Z" fill="#1D1D1B"></path>
    <path fill-rule="evenodd" clip-rule="evenodd" d="M11.6703 17.6225C11.7868 17.6437 11.9222 17.6842 12.0224 17.7343C12.1636 17.6861 12.2715 17.6437 12.385 17.6273C12.3163 17.427 11.7858 17.3836 11.6703 17.6225Z" fill="#1D1D1B"></path>
    <path fill-rule="evenodd" clip-rule="evenodd" d="M12.8745 18.4673C12.822 18.3604 12.7371 18.2823 12.6617 18.1995C12.6674 18.0492 12.6541 17.9125 12.6378 17.7969C12.7962 17.821 12.9212 17.9597 12.947 18.3478C12.9336 18.4095 12.9126 18.4403 12.8754 18.4673H12.8745Z" fill="#1D1D1B"></path>
    <path fill-rule="evenodd" clip-rule="evenodd" d="M12.7857 18.7957C12.6836 18.8563 12.5749 18.8978 12.4671 18.9267C12.3907 19.0557 12.3182 19.1501 12.2419 19.2378C12.3869 19.3052 12.5596 19.2542 12.7915 18.943C12.8134 18.8843 12.802 18.839 12.7857 18.7957Z" fill="#1D1D1B"></path>
    <path fill-rule="evenodd" clip-rule="evenodd" d="M11.2524 18.7957C11.3545 18.8563 11.4633 18.8978 11.5711 18.9267C11.6474 19.0557 11.72 19.1501 11.7963 19.2378C11.6513 19.3052 11.4786 19.2542 11.2457 18.943C11.2238 18.8843 11.2353 18.839 11.2515 18.7957H11.2524Z" fill="#1D1D1B"></path>
    <path fill-rule="evenodd" clip-rule="evenodd" d="M11.1522 18.4673C11.2047 18.3604 11.2896 18.2823 11.365 18.1995C11.3593 18.0492 11.3727 17.9125 11.3889 17.7969C11.2305 17.821 11.1055 17.9597 11.0807 18.3478C11.094 18.4095 11.115 18.4403 11.1522 18.4673Z" fill="#1D1D1B"></path>
    <path fill-rule="evenodd" clip-rule="evenodd" d="M8.78122 20.8031L9.38137 20.2955L9.47202 20.3465L9.37946 21.1383L9.2831 21.0844L9.31554 20.8474L9.04838 20.6981L8.87091 20.8542L8.78122 20.8041V20.8031ZM9.11135 20.6413L9.32794 20.7627L9.35943 20.5469C9.36897 20.4814 9.37851 20.4284 9.38805 20.388C9.35752 20.4246 9.32317 20.4592 9.28596 20.492L9.11231 20.6422L9.11135 20.6413ZM9.67429 21.1624L9.93573 20.4737L10.2382 20.5912C10.2993 20.6143 10.3431 20.6394 10.3699 20.6634C10.3966 20.6875 10.4137 20.7193 10.4204 20.7588C10.4271 20.7973 10.4233 20.8359 10.409 20.8734C10.3899 20.9225 10.3594 20.9572 10.3155 20.9784C10.2716 20.9996 10.2153 21.0025 10.1456 20.9861C10.1657 21.0073 10.179 21.0256 10.1867 21.042C10.2038 21.0767 10.2172 21.1171 10.2267 21.1624L10.2744 21.3955L10.1609 21.3512L10.1256 21.173C10.1151 21.121 10.1056 21.0815 10.096 21.0526C10.0874 21.0237 10.0779 21.0025 10.0674 20.989C10.0569 20.9746 10.0455 20.964 10.033 20.9543C10.0235 20.9486 10.0073 20.9408 9.98343 20.9322L9.87848 20.8917L9.76207 21.1971L9.67143 21.1624H9.67429ZM9.91092 20.8127L10.1046 20.8879C10.1456 20.9042 10.18 20.912 10.2067 20.912C10.2334 20.912 10.2563 20.9052 10.2754 20.8917C10.2945 20.8773 10.3088 20.859 10.3174 20.8368C10.3298 20.8041 10.3288 20.7732 10.3126 20.7434C10.2973 20.7135 10.2639 20.6885 10.2134 20.6683L9.99775 20.5845L9.91092 20.8118V20.8127ZM10.5931 21.4051L10.72 20.6788L11.24 20.7713L11.2248 20.857L10.7992 20.781L10.7601 21.0035L11.158 21.0747L11.1427 21.1605L10.7448 21.0892L10.7019 21.3367L11.1437 21.4157L11.1284 21.5015L10.5912 21.4061L10.5931 21.4051ZM12.0367 21.4475C12.0806 21.4803 12.1207 21.5043 12.1579 21.5207L12.1274 21.5872C12.0759 21.566 12.0243 21.5342 11.9738 21.4909C11.9184 21.5198 11.8583 21.5323 11.7934 21.5303C11.7276 21.5284 11.6675 21.5092 11.615 21.4754C11.5625 21.4417 11.5225 21.3945 11.4957 21.3358C11.469 21.2761 11.4566 21.2096 11.4595 21.1373C11.4623 21.0641 11.4786 20.9986 11.5101 20.9399C11.5415 20.8811 11.5845 20.8378 11.6398 20.8079C11.6952 20.779 11.7553 20.7655 11.8221 20.7675C11.8898 20.7694 11.9499 20.7877 12.0033 20.8224C12.0558 20.8561 12.0959 20.9033 12.1226 20.962C12.1493 21.0208 12.1608 21.0873 12.1579 21.1605C12.156 21.2211 12.1446 21.2751 12.1245 21.3233C12.1045 21.3714 12.0759 21.4119 12.0377 21.4465L12.0367 21.4475ZM11.8287 21.3155C11.8841 21.3338 11.9289 21.3589 11.9642 21.3907C12.0224 21.3406 12.0539 21.2626 12.0577 21.1576C12.0596 21.0979 12.051 21.0449 12.0329 20.9996C12.0148 20.9543 11.9862 20.9187 11.949 20.8927C11.9108 20.8667 11.8679 20.8532 11.8201 20.8513C11.7486 20.8484 11.6875 20.8715 11.6379 20.9197C11.5883 20.9678 11.5625 21.041 11.5587 21.1402C11.5549 21.2366 11.5759 21.3107 11.6217 21.3637C11.6675 21.4167 11.7257 21.4446 11.7992 21.4465C11.8335 21.4475 11.8669 21.4427 11.8974 21.4302C11.8679 21.409 11.8364 21.3945 11.803 21.3849L11.8287 21.3146V21.3155ZM12.8363 20.701L12.9317 20.6837L13.0052 21.1036C13.0176 21.1768 13.0195 21.2356 13.0109 21.2818C13.0023 21.3271 12.9785 21.3676 12.9403 21.4022C12.9021 21.4369 12.8487 21.46 12.7791 21.4726C12.7113 21.4841 12.6541 21.4832 12.6073 21.4668C12.5606 21.4514 12.5233 21.4225 12.4976 21.381C12.4718 21.3396 12.4518 21.2809 12.4384 21.2038L12.365 20.7838L12.4604 20.7665L12.5338 21.1855C12.5453 21.2491 12.5587 21.2944 12.5758 21.3223C12.592 21.3502 12.6169 21.3695 12.6474 21.381C12.6789 21.3926 12.7142 21.3945 12.7552 21.3868C12.8249 21.3743 12.8726 21.3493 12.8964 21.3127C12.9203 21.2751 12.925 21.2115 12.9088 21.12L12.8354 20.701H12.8363ZM13.4498 21.3647L13.2485 20.6557L13.341 20.6288L13.5424 21.3377L13.4498 21.3647ZM13.9221 21.2905L13.6607 20.6018L13.9183 20.5016C13.9631 20.4843 13.9984 20.4727 14.0242 20.4679C14.0595 20.4602 14.092 20.4602 14.1206 20.4679C14.1492 20.4746 14.1759 20.4901 14.2007 20.5132C14.2255 20.5363 14.2446 20.5652 14.257 20.5989C14.279 20.6577 14.2799 20.7145 14.258 20.7694C14.236 20.8243 14.1778 20.8705 14.0815 20.9071L13.9068 20.9755L14.0137 21.2558L13.9231 21.2905H13.9221ZM13.8754 20.8946L14.0519 20.8262C14.1101 20.8041 14.1473 20.7771 14.1635 20.7453C14.1797 20.7135 14.1797 20.6779 14.1645 20.6384C14.154 20.6095 14.1368 20.5873 14.1148 20.5729C14.0929 20.5584 14.0691 20.5517 14.0423 20.5546C14.0252 20.5565 13.9965 20.5652 13.9555 20.5816L13.7809 20.649L13.8744 20.8956L13.8754 20.8946ZM14.6396 21.1142L14.4908 20.3388L14.5795 20.283L15.2207 20.7482L15.1272 20.807L14.9373 20.6634L14.6778 20.8272L14.7274 21.0593L14.6406 21.1142H14.6396ZM14.6597 20.7443L14.8696 20.6114L14.6978 20.4795C14.6453 20.439 14.6043 20.4053 14.5738 20.3774C14.591 20.4226 14.6043 20.4698 14.6139 20.518L14.6597 20.7443Z" fill="white" stroke="white" stroke-width="0.07" stroke-miterlimit="2.61"></path>
    <path fill-rule="evenodd" clip-rule="evenodd" d="M9.57315 19.1858C10.1676 19.1858 10.534 19.3467 10.5683 19.7425C10.0235 19.6992 9.69242 19.5133 9.57315 19.1858Z" fill="#008C38"></path>
    <path fill-rule="evenodd" clip-rule="evenodd" d="M9.95004 19.9005C10.5092 19.6973 10.908 19.7233 11.0731 20.0845C10.5464 20.23 10.1723 20.1693 9.95004 19.9005Z" fill="#008C38"></path>
    <path fill-rule="evenodd" clip-rule="evenodd" d="M10.6275 19.6626C10.2535 19.1964 10.1456 18.8082 10.429 18.5317C10.7382 18.9854 10.8049 19.363 10.6275 19.6626Z" fill="#008C38"></path>
    <path fill-rule="evenodd" clip-rule="evenodd" d="M10.7515 19.23C10.7353 19.7203 10.9366 19.9832 11.2572 20.0227C11.2362 19.5719 11.0148 19.3369 10.7515 19.23Z" fill="#008C38"></path>
    <path fill-rule="evenodd" clip-rule="evenodd" d="M10.0397 18.8246C9.47965 18.6165 9.19054 18.3372 9.29741 17.9529C9.79547 18.1841 10.0426 18.475 10.0397 18.8246Z" fill="#008C38"></path>
    <path fill-rule="evenodd" clip-rule="evenodd" d="M9.23443 18.6974C9.8279 18.6771 10.2 18.8255 10.2477 19.2204C9.70196 19.1954 9.36419 19.021 9.23443 18.6974Z" fill="#008C38"></path>
    <path fill-rule="evenodd" clip-rule="evenodd" d="M10.1514 18.8882C9.90042 18.3449 9.88993 17.9413 10.2315 17.7419C10.4223 18.2582 10.3956 18.6406 10.1514 18.8882Z" fill="#008C38"></path>
    <path fill-rule="evenodd" clip-rule="evenodd" d="M10.6074 20.3609C11.1685 20.5593 11.5673 20.5304 11.7295 20.1673C11.2019 20.0266 10.8278 20.0912 10.6074 20.3609Z" fill="#008C38"></path>
    <path fill-rule="evenodd" clip-rule="evenodd" d="M11.1513 19.4062C11.2658 19.8917 11.4662 20.1595 11.7906 20.1113C11.6503 19.675 11.4375 19.44 11.1513 19.4062Z" fill="#008C38"></path>
    <path fill-rule="evenodd" clip-rule="evenodd" d="M11.5854 20.5285C11.8717 20.463 12.031 20.3455 12.0043 20.1519C11.7467 20.2318 11.6074 20.358 11.5854 20.5285Z" fill="#008C38"></path>
    <path fill-rule="evenodd" clip-rule="evenodd" d="M12.0415 20.1673C12.1818 20.4274 12.3382 20.5497 12.5157 20.4707C12.3688 20.2434 12.2104 20.1423 12.0415 20.1673Z" fill="#008C38"></path>
    <path fill-rule="evenodd" clip-rule="evenodd" d="M14.5204 19.1858C13.9259 19.1858 13.5595 19.3467 13.5252 19.7425C14.07 19.6992 14.4011 19.5133 14.5204 19.1858Z" fill="#008C38"></path>
    <path fill-rule="evenodd" clip-rule="evenodd" d="M14.1444 19.9005C13.5853 19.6973 13.1865 19.7233 13.0214 20.0845C13.5481 20.23 13.9221 20.1693 14.1444 19.9005Z" fill="#008C38"></path>
    <path fill-rule="evenodd" clip-rule="evenodd" d="M13.466 19.6626C13.8401 19.1964 13.9479 18.8082 13.6645 18.5317C13.3554 18.9854 13.2886 19.363 13.466 19.6626Z" fill="#008C38"></path>
    <path fill-rule="evenodd" clip-rule="evenodd" d="M13.3429 19.23C13.3592 19.7203 13.1578 19.9832 12.8382 20.0227C12.8592 19.5719 13.0806 19.3369 13.3429 19.23Z" fill="#008C38"></path>
    <path fill-rule="evenodd" clip-rule="evenodd" d="M14.0538 18.8246C14.6139 18.6165 14.903 18.3372 14.7961 17.9529C14.298 18.1841 14.0509 18.475 14.0538 18.8246Z" fill="#008C38"></path>
    <path fill-rule="evenodd" clip-rule="evenodd" d="M14.86 18.6974C14.2666 18.6771 13.8944 18.8255 13.8467 19.2204C14.3925 19.1954 14.7303 19.021 14.86 18.6974Z" fill="#008C38"></path>
    <path fill-rule="evenodd" clip-rule="evenodd" d="M13.9431 18.8882C14.194 18.3449 14.2045 17.9413 13.863 17.7419C13.6721 18.2582 13.6988 18.6406 13.9431 18.8882Z" fill="#008C38"></path>
    <path fill-rule="evenodd" clip-rule="evenodd" d="M13.487 20.3609C12.926 20.5593 12.5272 20.5304 12.365 20.1673C12.8926 20.0266 13.2666 20.0912 13.487 20.3609Z" fill="#008C38"></path>
    <path fill-rule="evenodd" clip-rule="evenodd" d="M12.9432 19.4062C12.8287 19.8917 12.6283 20.1595 12.3048 20.1113C12.4442 19.675 12.6579 19.44 12.9432 19.4062Z" fill="#008C38"></path>
  </g>
  <defs>
    <linearGradient id="paint0_linear_457_177" x1="11.9995" y1="16.7911" x2="11.9995" y2="8.53711" gradientUnits="userSpaceOnUse">
      <stop stop-color="#F9AE17"></stop>
      <stop offset="1" stop-color="#FCD600"></stop>
    </linearGradient>
    <clipPath id="clip0_457_177">
      <rect width="15" height="24" fill="white" transform="translate(4.5)"></rect>
    </clipPath>
  </defs>
</svg>
