<?xml version="1.0" encoding="UTF-8"?>
<svg xmlns="http://www.w3.org/2000/svg" width="24" height="25" viewBox="0 0 24 25" fill="none">
  <g clip-path="url(#clip0_441_60)">
    <path d="M12 24.0093C10.3832 24.0093 8.81314 23.6909 7.33364 23.0631C6.62292 22.7615 5.9371 22.3883 5.29546 21.9537C4.66003 21.5234 4.06236 21.0295 3.51893 20.4855C2.9756 19.9416 2.48226 19.3434 2.05249 18.7073C1.61858 18.0652 1.24585 17.3789 0.94468 16.6677C0.317866 15.1874 0 13.617 0 12C0 10.3853 0.31797 8.81657 0.944888 7.33768C1.24606 6.62707 1.61889 5.94146 2.0527 5.29971C2.48247 4.66408 2.97581 4.0662 3.51914 3.52266C4.06257 2.97903 4.66024 2.48527 5.29556 2.05519C5.93731 1.62086 6.62303 1.24772 7.33374 0.946236C8.81335 0.318281 10.3834 0 12 0C13.6145 0 15.1832 0.318281 16.6624 0.946132C17.3729 1.24772 18.0586 1.62076 18.7004 2.05509C19.3359 2.48517 19.9338 2.97892 20.4774 3.52246C21.0211 4.0661 21.5148 4.66398 21.9449 5.2995C22.3792 5.94125 22.7524 6.62697 23.0539 7.33748C23.6817 8.81667 24 10.3854 24 11.9999C24 13.6144 23.6817 15.1871 23.0539 16.6676C22.7523 17.3787 22.3792 18.065 21.9449 18.7072C21.5148 19.3432 21.0211 19.9415 20.4774 20.4854C19.9338 21.0294 19.3359 21.5232 18.7004 21.9535C18.0586 22.388 17.3729 22.7612 16.6624 23.0629C15.1833 23.6907 13.6146 24.0091 12 24.0091V24.0093ZM12 0.370032C5.5874 0.370032 0.370135 5.58719 0.370032 12C0.370032 18.4179 5.58719 23.6393 12 23.6393C18.4128 23.6393 23.63 18.418 23.63 12C23.63 5.582 18.4128 0.370032 12 0.370032Z" fill="#33A457"></path>
    <path fill-rule="evenodd" clip-rule="evenodd" d="M12 0.70213C18.2224 0.70213 23.2983 5.77772 23.2983 12.0002C23.2983 18.2227 18.2225 23.2983 12 23.2983C5.7775 23.2983 0.701904 18.2225 0.701904 12.0001C0.702008 5.77772 5.77771 0.702026 12 0.702026V0.70213Z" fill="#33A457"></path>
    <path fill-rule="evenodd" clip-rule="evenodd" d="M12 1.04968C15.7128 1.04968 18.7395 4.08564 18.7395 7.79851C18.7395 11.5114 15.7128 14.5379 12 14.5379C8.28723 14.5379 5.25137 11.5114 5.25137 7.79851C5.25137 4.08564 8.28733 1.04968 12 1.04968Z" fill="white"></path>
    <path d="M12 14.2058C11.1368 14.2058 10.2984 14.0357 9.50811 13.7001C8.74564 13.3763 8.06044 12.9131 7.47148 12.3234C6.88283 11.7342 6.4205 11.0488 6.09724 10.2864C5.76247 9.49686 5.5928 8.65983 5.5928 7.79853C5.5928 4.2655 8.46708 1.39111 12.0001 1.39111C15.5332 1.39111 18.4075 4.2655 18.4075 7.79853C18.4075 8.65983 18.2378 9.49686 17.9031 10.2864C17.5798 11.0489 17.1175 11.7342 16.5288 12.3234C15.9397 12.913 15.2545 13.3762 14.492 13.7C13.7017 14.0356 12.8633 14.2057 12 14.2057V14.2058ZM12 1.76104C8.67108 1.76104 5.96273 4.46939 5.96273 7.79843C5.96273 11.1275 8.67108 13.8357 12 13.8357C15.329 13.8357 18.0374 11.1274 18.0374 7.79843C18.0374 4.46949 15.3291 1.76104 12 1.76104Z" fill="#33A457"></path>
    <path fill-rule="evenodd" clip-rule="evenodd" d="M11.9908 1.82996C10.5057 2.97666 8.90771 3.81328 7.15006 4.26441C7.00912 8.34378 9.01111 11.314 11.9908 13.7767C14.9705 11.314 16.9724 8.34378 16.8316 4.26441C15.0738 3.81328 13.476 2.97666 11.9908 1.82996Z" fill="white"></path>
    <path d="M11.9908 13.8727L11.9436 13.8337C10.3175 12.4898 9.13722 11.1253 8.33524 9.66235C7.89427 8.85799 7.56479 8.01027 7.35592 7.14265C7.13575 6.22815 7.04158 5.25889 7.07601 4.26184L7.07788 4.20646L7.1316 4.19266C8.82288 3.75854 10.3975 2.96652 11.9454 1.77128L11.9907 1.73633L12.0359 1.77128C13.584 2.96652 15.1587 3.75854 16.8498 4.19266L16.9035 4.20646L16.9054 4.26184C16.9398 5.25889 16.8457 6.22815 16.6255 7.14265C16.4166 8.01027 16.0871 8.85799 15.6462 9.66235C14.8442 11.1254 13.6639 12.4898 12.0378 13.8337L11.9907 13.8727H11.9908ZM7.22234 4.32219C7.1147 7.91154 8.63143 10.888 11.9908 13.6804C15.3501 10.8881 16.8668 7.91165 16.7594 4.32219C15.9141 4.10098 15.0788 3.78218 14.2755 3.37409C13.5036 2.98197 12.7351 2.49402 11.9908 1.92342C11.2465 2.49392 10.4782 2.98187 9.70616 3.37409C8.90284 3.78218 8.06757 4.10109 7.22234 4.32219Z" fill="#33A457"></path>
    <path d="M11.9909 13.384L11.9435 13.3447C11.2375 12.7596 10.5702 12.0955 9.96017 11.371L9.95903 11.3695L9.54306 10.8493C9.35908 10.5919 9.16877 10.3257 8.98676 10.048L8.98521 10.0455C8.80061 9.7378 8.64805 9.47542 8.50348 9.1953L8.50224 9.19271L8.22783 8.60551L7.99179 8.0013L7.8019 7.3747L7.64146 6.73285L7.52769 6.05864C7.46132 5.47362 7.43435 4.99262 7.44265 4.54501L7.44369 4.48974L7.49699 4.47501C7.70482 4.41766 7.91183 4.35429 8.11821 4.2846H8.11862C8.93097 4.01019 9.73554 3.63881 10.5615 3.1577L10.8613 2.97041C11.2308 2.73893 11.5961 2.49034 11.947 2.23128L11.9913 2.19861L12.0354 2.23159C13.4576 3.29584 14.9547 4.05074 16.4848 4.47532L16.538 4.49005L16.539 4.54522C16.5473 4.99282 16.5203 5.47382 16.454 6.05884L16.4535 6.06278L16.3402 6.73305L16.3395 6.73585L16.1784 7.37936L15.9795 8.00421L15.7433 8.60852C15.6057 8.92255 15.4578 9.21625 15.3183 9.48693L15.3161 9.49076L14.9855 10.0482C14.8414 10.268 14.6479 10.5578 14.4282 10.8509C14.2292 11.1144 14.0195 11.3749 13.8047 11.6254L13.8034 11.627C13.1801 12.3135 12.6193 12.8592 12.0385 13.3446L11.9912 13.3841L11.9909 13.384ZM11.2954 12.5723C11.5221 12.787 11.7541 12.9935 11.9905 13.1911C12.2212 12.9966 12.4492 12.792 12.6797 12.5723H11.2955H11.2954ZM11.1412 12.4242H12.833C13.0205 12.2408 13.2104 12.0466 13.4056 11.839H10.5708C10.7567 12.0398 10.947 12.235 11.1412 12.4242ZM10.4355 11.6909H13.5435C13.5929 11.6375 13.6425 11.5833 13.6926 11.528C13.8136 11.387 13.9329 11.2427 14.0496 11.0965H9.9301L10.0738 11.2762C10.1922 11.4167 10.3128 11.5551 10.4354 11.6909H10.4355ZM9.81177 10.9485H14.1665C14.2148 10.8865 14.2625 10.8242 14.3097 10.7618C14.4138 10.6229 14.5121 10.4845 14.6021 10.354H9.37329C9.46984 10.4924 9.56691 10.6282 9.66232 10.7616L9.81187 10.9485H9.81177ZM9.27082 10.2058H14.7029C14.7602 10.1207 14.813 10.0407 14.8605 9.96834L15.0666 9.62081H8.90608C8.97038 9.73199 9.03831 9.84648 9.11121 9.96813C9.16379 10.0483 9.217 10.1275 9.27072 10.2059L9.27082 10.2058ZM8.82156 9.47261H15.1544L15.1874 9.41703C15.2754 9.24632 15.3667 9.06639 15.4565 8.87826H8.51852L8.63561 9.12872C8.69545 9.24477 8.75684 9.35791 8.82156 9.47272V9.47261ZM8.44935 8.73017H15.526C15.5533 8.67105 15.5802 8.61111 15.6068 8.55044L15.7689 8.13561H8.20314L8.36472 8.5493L8.44924 8.73017H8.44935ZM8.14538 7.98751H15.8269L15.8405 7.95246L16.0185 7.39305H7.96223L8.1319 7.95266L8.14548 7.98751H8.14538ZM7.92209 7.24506H16.0593L16.1949 6.70267L16.2022 6.65994H7.77929L7.78644 6.70236L7.92209 7.24496V7.24506ZM7.75419 6.51184H16.2272L16.3068 6.04007C16.3115 5.99869 16.3159 5.95783 16.3203 5.91749H7.66106C7.66531 5.95773 7.66988 5.99859 7.67454 6.03987L7.75429 6.51195L7.75419 6.51184ZM7.64592 5.76939H16.3353C16.3558 5.55887 16.3706 5.36203 16.3799 5.17483H7.60132C7.61066 5.36203 7.62549 5.55876 7.64592 5.76939ZM7.595 5.02674H16.3863C16.3914 4.88061 16.3931 4.73998 16.3915 4.60288C16.2071 4.55072 16.0233 4.49399 15.8398 4.43238H8.14268C7.95881 4.49399 7.77472 4.55072 7.58971 4.60278C7.58805 4.73998 7.58971 4.88061 7.595 5.02684V5.02674ZM8.55855 4.28429H15.4237C14.9787 4.1169 14.5376 3.92162 14.101 3.69917H9.87845C9.43655 3.92421 8.99807 4.11867 8.55866 4.28429H8.55855ZM10.1615 3.55107H13.8185C13.4813 3.36927 13.1469 3.17098 12.8162 2.95672H11.158C11.0854 3.0037 11.0126 3.05005 10.9396 3.09579L10.6369 3.28495C10.4777 3.37767 10.3193 3.46634 10.1615 3.55117V3.55107ZM11.3829 2.80862H12.592C12.3901 2.67266 12.1896 2.53079 11.9905 2.38279C11.7918 2.5285 11.5886 2.67079 11.3829 2.80862Z" fill="#33A457"></path>
    <path fill-rule="evenodd" clip-rule="evenodd" d="M9.7067 4.60277C9.98858 3.91663 10.6654 3.77569 11.1824 4.47127C12.1225 3.76636 13.0624 3.77569 14.0021 4.80012C14.7166 5.63674 14.6883 6.63307 13.974 7.54477C13.2877 8.24034 12.4324 8.26855 11.6993 7.64817C11.5208 7.30976 11.4832 6.89628 11.8873 6.56721C12.2916 6.41684 12.6111 6.75513 12.3385 6.97136C12.2349 7.01845 12.1315 7.05599 12.0282 7.10287C12.6769 7.90184 13.9458 6.80211 13.2126 6.09721C13.6356 5.71183 13.6166 5.2888 13.2782 4.90342C12.6109 4.33956 12 4.48039 11.5112 5.26069V11.4738L10.8063 10.7689C10.4586 10.6371 10.1014 10.5151 9.74424 10.3835C9.9698 10.3459 10.1954 10.3083 10.421 10.2613V7.43204C10.2988 7.30033 10.1766 7.15949 10.0543 7.01855C10.1672 6.92449 10.2705 6.82109 10.3833 6.7178V4.59354C10.1578 4.37699 9.93226 4.47116 9.7067 4.60266V4.60277Z" fill="white"></path>
    <path d="M11.5111 11.5478C11.4918 11.5478 11.473 11.5402 11.4587 11.5261L10.765 10.8324C10.5693 10.7585 10.3668 10.6862 10.1707 10.6161C10.0227 10.5632 9.86952 10.5085 9.71852 10.4528C9.68699 10.4412 9.66729 10.4098 9.6704 10.3764C9.67351 10.3429 9.69881 10.3158 9.732 10.3103C9.93257 10.2769 10.1393 10.2426 10.347 10.2008V7.46105C10.2305 7.33463 10.1129 7.19908 9.99905 7.06779C9.98598 7.05275 9.97924 7.03274 9.9809 7.01293C9.98256 6.99312 9.99169 6.97445 10.007 6.9617C10.0808 6.9003 10.1498 6.83517 10.223 6.76631C10.2511 6.73976 10.28 6.71259 10.3094 6.68531V4.62618C10.1416 4.48192 9.97924 4.52952 9.74424 4.66663C9.71686 4.6826 9.68222 4.67938 9.65826 4.65854C9.63431 4.63769 9.62632 4.60388 9.63835 4.57453C9.78707 4.21249 10.0458 3.98309 10.3481 3.94523C10.6461 3.9079 10.9454 4.05786 11.1969 4.36878C11.6746 4.02571 12.146 3.87253 12.5992 3.91329C13.0984 3.95819 13.5888 4.23966 14.0568 4.74991C14.0575 4.75053 14.058 4.75115 14.0586 4.75188C14.7871 5.60488 14.7775 6.63937 14.0325 7.59027C14.0307 7.59245 14.0288 7.59463 14.0269 7.5966C13.6781 7.95014 13.2737 8.14625 12.8575 8.16378C12.4442 8.1812 12.0272 8.02242 11.6516 7.70456C11.6444 7.69844 11.6384 7.69097 11.634 7.68257C11.6161 7.64856 11.5998 7.61464 11.5854 7.58083V11.4736C11.5854 11.5036 11.5673 11.5306 11.5396 11.5421C11.5305 11.5459 11.5209 11.5477 11.5113 11.5477L11.5111 11.5478ZM10.0334 10.4097C10.0962 10.4323 10.1589 10.4546 10.2205 10.4767C10.4222 10.5488 10.6307 10.6232 10.8323 10.6996C10.8422 10.7033 10.851 10.709 10.8585 10.7165L11.4371 11.295V5.26077C11.4371 5.24688 11.441 5.23329 11.4484 5.22147C11.7166 4.79326 12.0225 4.54964 12.3577 4.49738C12.6683 4.44894 12.994 4.56655 13.3259 4.84698C13.3287 4.84936 13.3313 4.85195 13.3338 4.85465C13.5199 5.06663 13.6112 5.28463 13.6049 5.50252C13.5989 5.71263 13.5021 5.9132 13.3172 6.09946C13.4923 6.29755 13.5495 6.53722 13.4784 6.78176C13.3855 7.10066 13.0848 7.37114 12.7469 7.43948C12.6908 7.45078 12.6355 7.45638 12.5815 7.45638C12.3467 7.45638 12.134 7.35071 11.9708 7.14962C11.9563 7.13178 11.9509 7.10834 11.9561 7.08594C11.9614 7.06364 11.9767 7.04497 11.9976 7.03554C12.0505 7.01148 12.1037 6.9898 12.1551 6.96875C12.2025 6.94935 12.2515 6.92934 12.2993 6.90787C12.3655 6.85218 12.3831 6.7884 12.3487 6.72731C12.2918 6.62661 12.1188 6.56501 11.9245 6.63252C11.542 6.95122 11.6201 7.33214 11.7584 7.60085C12.4633 8.18991 13.2696 8.15092 13.9185 7.49559C14.6132 6.6066 14.6235 5.64232 13.9468 4.84905C13.0842 3.90924 12.1945 3.80491 11.2271 4.53035C11.2113 4.54218 11.1915 4.54716 11.172 4.54436C11.1525 4.54156 11.135 4.53108 11.1231 4.51521C10.896 4.20969 10.6273 4.05931 10.3666 4.09208C10.1761 4.11594 10.0045 4.23759 9.8774 4.43411C10.0397 4.37261 10.2415 4.35436 10.4348 4.5401C10.4494 4.5541 10.4575 4.57339 10.4575 4.59351V6.71777C10.4575 6.73851 10.4488 6.75832 10.4335 6.77243C10.3965 6.80634 10.36 6.84077 10.3245 6.87406C10.2686 6.92675 10.215 6.97725 10.1592 7.02631C10.2638 7.14681 10.3705 7.26867 10.4754 7.38161C10.4881 7.3953 10.4952 7.41335 10.4952 7.43201V10.2613C10.4952 10.2963 10.4706 10.3266 10.4362 10.3338C10.3009 10.3619 10.1663 10.3867 10.0336 10.4097H10.0334ZM12.1532 7.1296C12.3092 7.27873 12.5063 7.33702 12.7176 7.29429C12.9992 7.23735 13.2593 7.00442 13.3362 6.74038C13.3799 6.59011 13.385 6.36579 13.1612 6.15059C13.1465 6.13638 13.1382 6.11668 13.1385 6.09625C13.1388 6.07571 13.1475 6.05632 13.1627 6.04253C13.531 5.70693 13.5529 5.3315 13.2261 4.95649C12.9301 4.70759 12.6456 4.60233 12.3805 4.64371C12.0942 4.68841 11.8266 4.90319 11.5852 5.28224V6.81401C11.6426 6.70325 11.7279 6.60152 11.8405 6.50984C11.8467 6.50476 11.8539 6.50071 11.8614 6.49781C12.1448 6.39244 12.3904 6.49999 12.4776 6.65461C12.5499 6.7829 12.5143 6.92643 12.3846 7.02942C12.3798 7.03315 12.3747 7.03636 12.3692 7.03885C12.3161 7.06302 12.2627 7.0848 12.2111 7.10585C12.1921 7.11363 12.1727 7.12161 12.1532 7.1296Z" fill="#33A457"></path>
    <path fill-rule="evenodd" clip-rule="evenodd" d="M1.47277 11.7087L1.50098 12.7425L2.92033 12.1788L3.32449 13.4663C3.32449 13.4663 3.4562 14.1149 4.07637 13.673C4.69676 13.2314 5.5426 12.6109 5.5426 12.6109C5.5426 12.6109 5.90911 12.4136 5.67411 11.9156C5.4391 11.4268 4.93145 10.421 4.93145 10.421L1.47256 11.7087H1.47277ZM4.62157 11.3797L3.53128 11.7933L3.76628 12.4327C3.76628 12.4327 3.76628 12.7992 4.10469 12.6394C4.43365 12.4889 4.77215 12.3291 4.77215 12.3291C4.77215 12.3291 5.03526 12.2539 4.93197 12.0188C4.82836 11.7933 4.62167 11.3797 4.62167 11.3797H4.62157ZM1.93334 15.2993L6.36978 12.8743L7.09356 13.4663L3.73787 18.42L3.17401 17.7243L3.97287 16.6622L3.48409 15.553L2.34683 16.2016L1.93334 15.2993ZM4.20798 15.0926L4.59336 15.7598L6.01271 13.8798L4.20798 15.0926ZM6.70818 19.6606C6.53893 20.0366 6.36045 20.4128 6.1913 20.7888C5.26083 20.1683 4.50873 19.482 3.9261 18.7302L7.43207 13.8049L7.99603 14.1622C7.15008 15.6189 6.31347 17.0665 5.46752 18.5235C5.88111 19.0405 6.29459 19.3506 6.70818 19.6607V19.6606ZM6.5297 21.0236L7.61065 21.5688L9.1334 16.9726V20.9766L10.8064 17.6494L10.3742 22.4901L11.5867 22.5182L11.7653 15.3466L11.1919 15.2995L9.97935 17.5649V15.0928L9.26501 14.8861L6.5298 21.0237L6.5297 21.0236ZM12.2257 15.3465L14.0115 15.1679L14.162 15.7318L13.0244 15.995L13.2314 17.9313L14.5473 17.5929L14.9889 18.5704L13.3911 19.0404C13.4851 19.7452 13.5789 20.4504 13.6729 21.1553C14.3311 21.1363 14.9419 20.9296 15.5245 20.6382L15.9195 21.8509C14.7916 22.3115 13.5884 22.5276 12.3291 22.5747L12.2255 15.3465H12.2257ZM14.2937 15.0362L16.5117 21.6157L17.668 20.9204L14.9139 14.7824L14.2937 15.0362ZM18.3166 20.5066L19.1906 19.6796L17.5176 17.0007L17.8465 16.7469L20.2527 18.5704L20.8638 17.7997L18.3917 16.1735C18.3917 16.1735 18.8052 15.6849 18.3917 15.2243C17.9782 14.7543 17.2544 13.8238 17.2544 13.8238C17.2544 13.8238 17.0287 13.4665 16.5587 13.7767C16.0982 14.087 15.3744 14.6227 15.3744 14.6227L18.3166 20.5066ZM16.2769 14.8576L17.0288 16.1453L17.5178 15.8634C17.5178 15.8634 17.6962 15.7317 17.5365 15.5062C17.3862 15.2713 16.9256 14.6509 16.9256 14.6509C16.9256 14.6509 16.822 14.4725 16.634 14.6038C16.4555 14.7262 16.2769 14.8576 16.2769 14.8576ZM17.3861 13.1095L17.9313 12.5079L22.3866 14.4441L22.0293 15.4497L20.9486 14.8106L20.5351 15.7885L21.4092 16.9257L20.8921 17.7246L17.3861 13.1095ZM19.9144 15.1208L18.5234 13.5135L20.2527 14.4724L19.9144 15.1207V15.1208ZM20.0459 10.8629L19.8581 11.3798L19.6795 11.3046C19.6795 11.3046 19.4728 11.2012 19.4257 11.3517C19.3692 11.5021 19.3221 11.5867 19.3221 11.5867C19.3221 11.5867 19.294 11.5867 19.3973 11.709C19.5009 11.8405 20.0178 12.0755 20.0178 12.0755C20.0178 12.0755 20.2997 12.1507 20.3562 11.9719C20.4033 11.7934 20.5629 11.4551 20.5629 11.4551C20.5629 11.4551 20.6381 11.0978 20.9954 11.2013C21.3619 11.3047 22.3393 11.6619 22.3393 11.6619C22.3393 11.6619 22.6215 11.7934 22.6215 12.3292C22.6215 12.8649 22.5931 13.7486 22.5931 13.7486C22.5931 13.7486 22.3393 14.2373 21.9729 14.0305C21.6156 13.8238 21.0516 13.5699 21.0516 13.5699L21.3057 12.8743L21.6158 12.9779C21.6158 12.9779 21.8509 13.053 21.8509 12.7712V12.2541L21.2774 12.019L20.892 12.8743C20.892 12.8743 20.7134 13.1564 20.328 13.006C19.9429 12.8461 18.7302 12.1225 18.7302 12.1225C18.7302 12.1225 18.3448 11.8969 18.5704 11.4833C18.8053 11.0698 19.0874 10.6844 19.0874 10.6844C19.0874 10.6844 19.2192 10.4212 19.529 10.5527C19.8392 10.6841 20.0459 10.8628 20.0459 10.8628V10.8629ZM20.9765 8.20291L20.7323 7.61063L20.5256 8.24979L19.9991 8.35319L20.4692 8.6163L20.3189 9.27433L20.8357 8.84207L21.3811 9.04876L21.1554 8.59763L21.5032 8.26877L20.9766 8.20281L20.9765 8.20291ZM20.469 6.40762L20.7698 6.75535L20.2624 6.65195L19.8112 7.04677V6.57677L19.3038 6.33233L19.7735 6.18195V5.69317L20.1778 6.04101L20.6103 5.98449L20.4692 6.40762H20.469ZM18.9558 4.26448L19.1625 4.4243L19.4444 4.34911L19.3788 4.52769L19.5855 4.77214L19.2847 4.75326L19.1625 5.06345L18.9933 4.77193L18.7111 4.73428L18.9087 4.52759L18.9556 4.26448H18.9558ZM17.8937 3.16476L18.1569 3.3057L18.4199 3.18353L18.3166 3.44674L18.5608 3.65343H18.2601L18.1379 3.89787L18.0157 3.61579L17.7244 3.65333L17.9122 3.44664L17.8937 3.16476ZM2.99552 8.20271L3.23996 7.61043L3.44665 8.24958L3.98241 8.35298L3.51241 8.61609L3.65335 9.27412L3.1459 8.84186L2.59137 9.04855L2.81694 8.59742L2.4691 8.26856L2.99552 8.2026V8.20271ZM3.51241 6.40741L3.20221 6.75514L3.70966 6.65175L4.16079 7.04657V6.57656L4.67767 6.33212L4.20767 6.18174V5.69296L3.79408 6.0408L3.36161 5.98428L3.5123 6.40741H3.51241ZM5.01628 4.26427L4.81893 4.42409L4.5274 4.3489L4.59315 4.52749L4.38646 4.77193L4.69665 4.75305L4.81882 5.06324L4.97864 4.77172L5.27016 4.73407L5.06326 4.52738L5.01628 4.26427ZM6.0878 3.16455L5.81525 3.30549L5.55204 3.18332L5.65544 3.44653L5.411 3.65322H5.71175L5.83402 3.89767L5.95619 3.61558L6.24751 3.65312L6.05959 3.44643L6.08769 3.16455H6.0878Z" fill="white"></path>
  </g>
  <defs>
    <clipPath id="clip0_441_60">
      <rect width="24" height="24.0093" fill="white"></rect>
    </clipPath>
  </defs>
</svg>
