<?xml version="1.0" encoding="UTF-8"?>
<svg xmlns="http://www.w3.org/2000/svg" width="24" height="24" viewBox="0 0 24 24" fill="none">
  <g clip-path="url(#clip0_442_168)">
    <path d="M2.16471 0.166504H21.8354V18.691C21.8354 18.691 21.4522 21.4911 16.9177 21.4911C16.9177 21.4911 14.0118 21.7173 12 23.7528C12 23.7528 10.4672 21.8789 7.08224 21.4911C7.08224 21.4911 3.63345 21.7067 2.16452 18.691V0.166504H2.16462H2.16471Z" fill="white"></path>
    <path fill-rule="evenodd" clip-rule="evenodd" d="M1.99994 0H21.9999V18.7024L21.9984 18.7138L21.8354 18.691C21.9984 18.7138 21.9984 18.7139 21.9983 18.7141L21.9983 18.7144L21.9982 18.7154L21.998 18.7162L21.9978 18.7179C21.9975 18.72 21.9971 18.7227 21.9965 18.7261C21.9954 18.7328 21.9938 18.7422 21.9915 18.754C21.987 18.7775 21.98 18.8108 21.9695 18.8525C21.9485 18.9358 21.9135 19.0526 21.8568 19.1919C21.7435 19.4703 21.5435 19.8388 21.1958 20.2062C20.4972 20.9443 19.2234 21.6562 16.9245 21.6576C16.9242 21.6576 16.9239 21.6577 16.9235 21.6577C16.9185 21.6581 16.9108 21.6588 16.9005 21.6598C16.8799 21.6619 16.849 21.6652 16.8085 21.6701C16.7277 21.68 16.6091 21.6963 16.4601 21.7223C16.1621 21.7743 15.7433 21.8646 15.2626 22.0175C14.2995 22.3237 13.097 22.8783 12.1163 23.8706L11.9884 24L11.8733 23.8592L11.8733 23.8592L11.8732 23.8591L11.8732 23.859L11.8728 23.8586C11.8724 23.8581 11.8715 23.8571 11.8703 23.8556C11.8679 23.8527 11.8639 23.8481 11.8585 23.8419C11.8476 23.8294 11.8308 23.8105 11.8078 23.7859C11.7619 23.7367 11.6917 23.6649 11.5965 23.5769C11.4063 23.401 11.1165 23.1608 10.7223 22.9081C9.93661 22.4043 8.73503 21.8503 7.07706 21.6581C7.06993 21.6584 7.06036 21.6588 7.04848 21.6592C7.02118 21.6601 6.98163 21.661 6.93117 21.661C6.83028 21.661 6.68559 21.6575 6.5078 21.6437C6.15256 21.6161 5.66321 21.5471 5.12616 21.3812C4.0513 21.0491 2.77725 20.3256 2.01689 18.7646L1.99994 18.7298V0ZM7.07218 21.3249H7.0722L7.08644 21.324L7.10074 21.3256C8.8208 21.5227 10.0737 22.098 10.8985 22.6268C11.3107 22.891 11.6157 23.1435 11.8186 23.3311C11.8958 23.4025 11.9582 23.4645 12.0062 23.5142C13.0131 22.5469 14.2101 22.0031 15.1639 21.6998C15.6611 21.5417 16.0945 21.4482 16.4042 21.3941C16.5591 21.3671 16.6833 21.3499 16.7692 21.3395C16.8122 21.3342 16.8456 21.3307 16.8685 21.3284C16.88 21.3273 16.8889 21.3265 16.895 21.3259C16.898 21.3256 16.9004 21.3254 16.9021 21.3253L16.9047 21.3251L16.9049 21.3251C16.905 21.3251 16.905 21.3251 16.9177 21.4911L16.905 21.3251L16.9113 21.3246H16.9177C19.1489 21.3246 20.3322 20.6371 20.9581 19.9759C21.273 19.6432 21.4522 19.3116 21.5525 19.0651C21.6026 18.9418 21.633 18.8399 21.6506 18.7701C21.6594 18.7351 21.665 18.7083 21.6684 18.6908C21.6694 18.6855 21.6702 18.6811 21.6708 18.6776V0.333024H2.32908V18.6518C3.03949 20.0828 4.21357 20.7511 5.22227 21.0627C5.73103 21.2198 6.19569 21.2854 6.533 21.3116C6.70148 21.3247 6.8377 21.328 6.93115 21.328C6.97787 21.3279 7.01385 21.3271 7.03778 21.3263C7.04481 21.3261 7.0508 21.3259 7.05571 21.3257C7.05917 21.3255 7.06209 21.3254 7.06447 21.3253C7.06736 21.3251 7.06945 21.325 7.07072 21.325L7.07202 21.3249L7.07207 21.3249L7.07218 21.3249Z" fill="#25ACE9"></path>
    <path fill-rule="evenodd" clip-rule="evenodd" d="M1.99994 3.94165H21.9999V18.7024L21.9984 18.7138L21.8354 18.6909C21.9984 18.7138 21.9984 18.7139 21.9983 18.7141L21.9983 18.7144L21.9982 18.7153C21.9981 18.716 21.9979 18.7169 21.9978 18.7179C21.9975 18.72 21.9971 18.7227 21.9965 18.7261C21.9959 18.73 21.9951 18.7347 21.9941 18.7403C21.9933 18.7444 21.9925 18.749 21.9915 18.754C21.987 18.7775 21.98 18.8108 21.9695 18.8525C21.9485 18.9358 21.9135 19.0526 21.8568 19.1918C21.7435 19.4703 21.5435 19.8388 21.1958 20.2062C20.4972 20.9443 19.2234 21.6562 16.9245 21.6576C16.9242 21.6576 16.9239 21.6576 16.9235 21.6577C16.9185 21.6581 16.9108 21.6588 16.9005 21.6598C16.8799 21.6619 16.849 21.6652 16.8085 21.6701C16.7277 21.6799 16.6091 21.6963 16.4601 21.7223C16.1621 21.7743 15.7433 21.8646 15.2626 22.0175C14.2995 22.3237 13.097 22.8783 12.1163 23.8706L11.9884 23.9999L11.8733 23.8592L11.8733 23.8592L11.8732 23.8591L11.8732 23.859L11.8728 23.8586C11.8724 23.8581 11.8715 23.857 11.8703 23.8556C11.8679 23.8527 11.8639 23.8481 11.8585 23.8419C11.8476 23.8294 11.8308 23.8105 11.8078 23.7859C11.7619 23.7367 11.6917 23.6648 11.5965 23.5769C11.4063 23.401 11.1165 23.1608 10.7223 22.908C9.93661 22.4043 8.73503 21.8503 7.07706 21.6581C7.06992 21.6584 7.06036 21.6588 7.04848 21.6592C7.02118 21.6601 6.98163 21.661 6.93117 21.661C6.83028 21.661 6.68559 21.6575 6.5078 21.6437C6.15256 21.6161 5.66321 21.5471 5.12616 21.3812C4.0513 21.0491 2.77725 20.3256 2.01689 18.7646L1.99994 18.7298V3.94165ZM7.07218 21.3249L7.0722 21.3249L7.08644 21.324L7.10074 21.3256C8.8208 21.5227 10.0737 22.0979 10.8985 22.6267C11.3107 22.891 11.6157 23.1435 11.8186 23.331C11.8958 23.4024 11.9582 23.4645 12.0062 23.5142C13.0131 22.5469 14.2101 22.0031 15.1639 21.6998C15.6611 21.5416 16.0945 21.4482 16.4042 21.3941C16.5591 21.3671 16.6833 21.3499 16.7692 21.3395C16.8122 21.3342 16.8456 21.3307 16.8685 21.3284C16.8765 21.3276 16.8832 21.327 16.8886 21.3265C16.891 21.3263 16.8931 21.3261 16.895 21.3259C16.898 21.3256 16.9004 21.3254 16.9021 21.3253L16.9041 21.3251L16.9047 21.3251L16.9049 21.3251C16.905 21.3251 16.905 21.3251 16.9177 21.4911L16.905 21.3251L16.9113 21.3246H16.9177C19.1489 21.3246 20.3322 20.6371 20.9581 19.9758C21.273 19.6432 21.4522 19.3116 21.5525 19.0651C21.6026 18.9418 21.633 18.8399 21.6506 18.77C21.6594 18.7351 21.665 18.7083 21.6684 18.6908C21.6694 18.6855 21.6702 18.6811 21.6708 18.6775V4.27467H2.32908V18.6518C3.03949 20.0828 4.21357 20.7511 5.22227 21.0627C5.73103 21.2198 6.19569 21.2854 6.533 21.3116C6.70148 21.3247 6.8377 21.3279 6.93115 21.3279C6.97787 21.3279 7.01385 21.3271 7.03778 21.3263C7.04975 21.3259 7.0587 21.3256 7.06447 21.3253C7.06736 21.3251 7.06945 21.325 7.07072 21.325L7.07202 21.3249L7.07207 21.3249L7.07218 21.3249Z" fill="#25ACE9"></path>
    <path d="M13.405 4.1081H16.2151V21.5987C15.5384 21.7349 14.4643 22.0323 13.405 22.6626V4.1081ZM7.78491 4.1081H10.595L10.5965 22.6338C9.91933 22.2316 8.98656 21.822 7.78491 21.5969V4.1081ZM2.1647 4.1081H4.97495L4.97628 21.1569C3.97691 20.8083 2.85315 20.1045 2.1647 18.6909V4.1081ZM19.0253 4.1081H21.8354V18.6909C21.8354 18.6909 21.5803 20.5538 19.0256 21.2407L19.0253 4.1081ZM4.14058 1.27706H4.58319C4.81299 1.27706 4.95094 1.28042 4.99696 1.28656C5.0888 1.30087 5.15987 1.33456 5.21044 1.38727C5.26092 1.44035 5.28606 1.51053 5.28606 1.59827C5.28606 1.67575 5.26689 1.74016 5.22856 1.79191C5.19023 1.84346 5.13729 1.87965 5.06954 1.90029C5.00199 1.92103 4.83196 1.93139 4.56013 1.93139H4.14048V1.27706H4.14058ZM4.14058 3.42976V2.34736H4.25585C4.38641 2.34736 4.48186 2.35725 4.54201 2.37664C4.60217 2.39603 4.65919 2.43203 4.71299 2.48455C4.76688 2.53725 4.8666 2.66474 5.01252 2.86691L5.42069 3.42986H6.10051L5.75723 2.92547C5.62203 2.72301 5.51453 2.58218 5.43464 2.50307C5.35475 2.42387 5.2538 2.3512 5.13122 2.28496C5.37771 2.25251 5.56311 2.17274 5.68702 2.04554C5.81074 1.91843 5.87289 1.75754 5.87289 1.56285C5.87289 1.40973 5.83171 1.27379 5.74993 1.15523C5.67051 1.0385 5.55552 0.951331 5.4224 0.907075C5.28606 0.860419 5.06746 0.836899 4.7665 0.836899H3.56978V3.42976H4.14058ZM7.52845 2.39987L7.90787 1.44266L8.29878 2.39987H7.52845ZM8.21158 0.836899H7.61356L6.51675 3.42976H7.12018L7.35378 2.84003H8.48503L8.72858 3.42976H9.34284L8.21149 0.836899H8.21158ZM11.839 2.47264L12.3899 2.63008C12.3055 2.91607 12.1649 3.12823 11.9685 3.26666C11.7721 3.40499 11.5229 3.47411 11.221 3.47411C10.8473 3.47411 10.5403 3.35719 10.2998 3.12304C10.0593 2.88909 9.93897 2.56797 9.93897 2.15968C9.93897 1.72787 10.0598 1.39274 10.3017 1.15418C10.5434 0.915715 10.8614 0.796387 11.2554 0.796387C11.5996 0.796387 11.8791 0.890563 12.0941 1.07863C12.222 1.18912 12.3179 1.3481 12.3819 1.55565L11.8191 1.68083C11.7859 1.54576 11.7165 1.43939 11.611 1.36154C11.5057 1.28368 11.3776 1.24461 11.2271 1.24461C11.0189 1.24461 10.8498 1.31354 10.7202 1.4513C10.5906 1.58906 10.5258 1.81178 10.5258 2.11965C10.5258 2.44682 10.5897 2.67962 10.7175 2.81815C10.8453 2.95648 11.0114 3.0256 11.216 3.0256C11.3667 3.0256 11.4965 2.98115 11.6051 2.89216C11.7139 2.80346 11.7918 2.66349 11.839 2.47255V2.47264ZM13.2534 3.42986V0.836899H13.8242V3.42976H13.2534V3.42986ZM14.7598 3.42986V0.836899H15.3118L16.4722 2.57546V0.836899H16.9991V3.42976H16.4298L15.2867 1.72471V3.42976H14.7597L14.7598 3.42986ZM19.3035 2.4808V2.04055H20.5289V3.07293C20.4099 3.17997 20.2373 3.27367 20.011 3.35392C19.7905 3.43322 19.5583 3.47392 19.3243 3.47431C19.0297 3.47431 18.7727 3.41805 18.5537 3.30525C18.3344 3.19245 18.1698 3.03002 18.0599 2.81815C17.9497 2.60618 17.8944 2.37645 17.8944 2.12887C17.8944 1.85795 17.9561 1.61786 18.0791 1.40848C18.2021 1.19901 18.3821 1.03802 18.6192 0.925219C18.7998 0.839491 19.0248 0.796771 19.2938 0.796771C19.6437 0.796771 19.9169 0.864259 20.1137 0.999235C20.3103 1.13421 20.4368 1.32131 20.4931 1.56007L19.9263 1.65712C19.8892 1.53319 19.8101 1.42653 19.7028 1.35597C19.5937 1.28205 19.457 1.24519 19.2933 1.24519C19.045 1.24519 18.8476 1.31767 18.7012 1.46253C18.5548 1.60739 18.4814 1.82215 18.4814 2.10679C18.4814 2.41322 18.5559 2.64323 18.7042 2.79645C18.8525 2.94986 19.0472 3.02637 19.288 3.02637C19.4102 3.02589 19.5313 3.00429 19.6463 2.96253C19.766 2.9201 19.8685 2.86855 19.9543 2.80787V2.48119H19.3035V2.4808Z" fill="#25ACE9"></path>
  </g>
  <defs>
    <clipPath id="clip0_442_168">
      <rect width="20" height="24" fill="white" transform="translate(2)"></rect>
    </clipPath>
  </defs>
</svg>
