<?xml version="1.0" encoding="UTF-8"?>
<svg xmlns="http://www.w3.org/2000/svg" width="24" height="24" viewBox="0 0 24 24" fill="none">
  <g clip-path="url(#clip0_443_180)">
    <path d="M17.6613 0.4021L21.1904 3.9349L19.989 7.05807L19.4634 9.79723L19.2882 12.5364L18.8126 14.9428L17.9615 17.5284L16.7601 19.9092L15.1833 21.5988L13.3812 23.1092L12.1297 23.6724L11.6041 23.5188L10.2274 22.674L7.34902 19.8068L5.79723 16.3508L5.02128 13.586L4.57075 10.514C4.57075 10.514 4.54569 8.44037 4.54569 8.36357C4.54569 8.28677 3.76974 5.90597 3.76974 5.90597L3.44433 4.5492L3.01886 3.83237L4.52063 2.37317L6.49818 0.530068L9.32647 1.19564L11.8795 1.50284L14.007 1.52847L15.7341 1.1701L16.7353 0.760468L17.6614 0.4021H17.6613Z" fill="white"></path>
    <path d="M17.5957 0C17.5957 0 16.1978 1.17427 11.9956 1.17427C7.79336 1.17427 6.41746 0 6.41746 0L2.5 3.89472C5.37457 9.25939 3.07405 11.9709 6.11072 18.2544C8.27543 22.7317 11.759 23.9239 12 24.0001C12.2366 23.9239 15.7247 22.7317 17.8893 18.2544C20.9215 11.9709 18.621 9.25949 21.5 3.89472L17.5957 0ZM11.9956 23.2336C11.7371 23.1485 7.61803 21.7053 5.80398 15.4846C4.06437 9.51034 5.9398 10.0482 3.37638 4.04256L6.54454 0.90528C6.54454 0.90528 8.12206 1.91818 11.9957 1.91818C15.8693 1.91818 17.4687 0.90528 17.4687 0.90528L20.6149 4.04256C18.0471 10.0481 19.9269 9.50582 18.183 15.4846C16.3732 21.7053 12.2543 23.1485 11.9957 23.2336H11.9956Z" fill="#010101"></path>
    <path d="M15.0674 6.96921C14.8352 6.77202 14.581 6.60172 14.3093 6.46281V14.651C14.5853 14.4987 14.8395 14.3104 15.0674 14.0953V13.2213C15.6852 12.697 16.1497 11.9798 16.3644 11.1641C16.4564 10.8235 16.5047 10.4695 16.5047 10.0975C16.5047 8.83804 15.9437 7.71311 15.0674 6.96921ZM15.0674 11.9619V8.29573C15.4836 8.78869 15.7378 9.42959 15.7378 10.1288C15.7378 10.8279 15.4836 11.4733 15.0674 11.9618V11.9619ZM13.9193 14.7003L13.2839 12.7238C13.6695 12.3967 13.9193 11.9037 13.9193 11.3524V7.56076C13.9193 6.57925 13.1393 5.78149 12.1797 5.78149H11.7852V15.274C11.7852 15.274 12.1884 15.2785 12.517 15.2516V13.0241L12.5389 13.0913L13.1873 15.1215C13.2005 15.117 13.608 14.9915 13.9191 14.8437C13.9322 14.8392 13.9454 14.8303 13.9585 14.8258L13.9191 14.7003H13.9193ZM13.1349 11.4555C13.1349 11.805 12.8588 12.0874 12.517 12.0874V6.91093C12.8587 6.91093 13.1349 7.19327 13.1349 7.5429V11.4555ZM8.62149 10.5232C8.62149 11.6795 9.19113 12.7059 10.0544 13.3154V12.1501C9.90541 11.9709 9.78274 11.7736 9.68625 11.5586C9.58985 11.3345 9.51974 11.0969 9.48905 10.8415H10.5144V13.5843C10.7554 13.7008 11.0139 13.7905 11.2856 13.8442V7.2022C9.76509 7.51141 8.6214 8.87836 8.6214 10.5232H8.62149ZM10.5145 10.102H9.5066C9.54602 9.84652 9.62496 9.60901 9.73881 9.38485C9.82647 9.21004 9.9316 9.04425 10.0587 8.89631C10.1945 8.73493 10.3479 8.58709 10.5188 8.46604V10.1019H10.5144L10.5145 10.102Z" fill="#010101"></path>
    <path d="M8.15708 10.5232C8.15708 12.4504 9.5067 14.0503 11.2857 14.382V15.2246C9.05532 14.8974 7.33768 12.9165 7.33768 10.5232C7.33768 8.12991 9.05542 6.14895 11.2857 5.82178V6.66437C9.5067 6.99605 8.15708 8.6005 8.15708 10.5232Z" fill="#010101"></path>
    <path d="M11.9956 5.36471C14.7825 5.36471 17.0436 7.67735 17.0436 10.5278C17.0436 13.3782 14.7825 15.6908 11.9956 15.6908C9.20869 15.6908 6.94759 13.3782 6.94759 10.5278C6.94759 7.67735 9.20869 5.36471 11.9956 5.36471ZM11.9956 5.26611C10.6197 5.26611 9.32705 5.81293 8.3586 6.80787C7.39014 7.80282 6.8512 9.12493 6.8512 10.5278C6.8512 11.9306 7.38583 13.2572 8.3586 14.2477C9.33137 15.2426 10.624 15.7894 11.9956 15.7894C13.3672 15.7894 14.6641 15.2426 15.6326 14.2477C16.6054 13.2527 17.14 11.9306 17.14 10.5278C17.14 9.12493 16.6054 7.7984 15.6326 6.80787C14.6598 5.81735 13.3715 5.26611 11.9956 5.26611Z" fill="#010101"></path>
    <path d="M9.72136 21.0375C7.6049 19.052 6.46121 15.9372 6.11505 14.382L7.23678 12.4055C7.99048 14.4044 9.88787 15.7445 11.9955 15.7445C12.2497 15.7445 12.5039 15.7265 12.7536 15.6862L9.72136 21.0375Z" fill="#ED1C24"></path>
    <path d="M7.22803 12.5175C8.01242 14.485 9.90099 15.7892 11.9912 15.7892C12.2147 15.7892 12.4381 15.7758 12.6572 15.7444L9.7082 20.9522C8.7924 20.0827 7.98614 18.9354 7.30687 17.546C6.59701 16.0894 6.27713 14.8749 6.16759 14.3863L7.22803 12.5174V12.5175ZM7.2499 12.2844L7.1842 12.401L6.06247 14.373C6.41745 15.973 7.56987 19.1192 9.73448 21.1136L12.7843 15.731L12.85 15.619C12.5739 15.6683 12.2891 15.6907 11.9955 15.6907C9.81332 15.6907 7.95094 14.27 7.2499 12.2845V12.2844Z" fill="#010101"></path>
    <path d="M16.7456 8.63184C15.9875 6.64195 14.0902 5.31532 11.9956 5.31532C11.7327 5.31532 11.4741 5.33769 11.2156 5.37811L12.8238 2.54112C13.9281 2.50531 15.9437 2.34844 17.3459 1.6582L19.4843 3.79152L16.7456 8.63184Z" fill="#ED1C24"></path>
    <path d="M17.3372 1.72091L19.423 3.80497L16.7544 8.51982C15.9657 6.56574 14.077 5.266 11.9957 5.266C11.7678 5.266 11.5356 5.27944 11.3121 5.31083L12.8545 2.58587C13.9588 2.55448 15.9393 2.39761 17.3372 1.72091ZM17.3548 1.59985C15.9482 2.30795 13.8843 2.4604 12.7975 2.48728L11.1893 5.32878L11.1236 5.44081C11.4085 5.39147 11.6977 5.36459 11.9956 5.36459C14.1734 5.36459 16.027 6.77637 16.7369 8.7483L16.8026 8.63627L19.5501 3.78693L17.3548 1.59985ZM6.63663 1.72091C8.34996 2.54555 11.0755 2.60833 11.8774 2.60833H11.9782L10.37 5.44533L10.3131 5.54392C10.2736 5.55736 10.2385 5.5708 10.2035 5.58424C8.17904 6.33717 6.82069 8.32705 6.82069 10.5322C6.82069 10.8325 6.84697 11.1327 6.89522 11.424C6.89963 11.4598 6.90836 11.5002 6.91709 11.5406L6.86011 11.6391L5.93117 13.275C5.72524 12.3966 5.66386 11.3568 5.60257 10.3483C5.55001 9.50574 5.49745 8.63185 5.36154 7.85195C5.15119 6.64187 4.31865 4.59371 4.15214 4.19925L6.63654 1.72091H6.63663ZM6.61908 1.59985L4.04242 4.17697C4.04242 4.17697 5.04147 6.54789 5.26936 7.87C5.58051 9.66721 5.44901 11.8946 5.90039 13.5395L6.94768 11.6885L7.02221 11.5585C7.01348 11.5092 7.00466 11.4554 6.99593 11.4062C6.94768 11.1238 6.9214 10.828 6.9214 10.5322C6.9214 8.30468 8.30172 6.40446 10.2385 5.68283C10.2868 5.66488 10.3349 5.64702 10.3832 5.63349L10.4577 5.5035L12.1535 2.51416C12.1535 2.51416 12.0527 2.51867 11.8818 2.51867C11.0142 2.50974 8.2974 2.43803 6.61917 1.59995L6.61908 1.59985ZM19.5019 5.09118C19.3924 5.36008 19.274 5.67832 19.1513 6.03688C18.8096 7.04977 18.402 8.58251 18.402 10.1422C18.402 11.7019 18.0559 14.2072 17.0874 16.6184C16.5528 17.945 15.8868 19.1013 15.1068 20.0559C14.2129 21.1495 13.1656 21.9741 11.9913 22.512C11.3208 22.2207 10.7599 21.8711 10.2824 21.4454L13.5775 15.6101L13.6345 15.5115C13.6739 15.4981 13.709 15.4846 13.744 15.4712C15.7772 14.7183 17.14 12.7284 17.14 10.5188C17.14 10.2096 17.1137 9.9003 17.0612 9.60011C17.0524 9.55979 17.048 9.51947 17.0393 9.48356L17.0963 9.38497L19.5019 5.09137V5.09118ZM19.9138 4.15893L17.0129 9.34436L16.9384 9.47435C16.9471 9.52369 16.9603 9.57294 16.9691 9.6267C17.0216 9.91806 17.0479 10.2228 17.0479 10.5276C17.0479 12.764 15.6589 14.6643 13.7177 15.3858C13.6694 15.4038 13.6213 15.4216 13.5774 15.4352L13.5029 15.5652L10.1595 21.4721C10.6984 21.9607 11.3032 22.3282 11.9955 22.6239C17.1442 20.2979 18.5027 13.2032 18.5027 10.1421C18.5027 7.08107 19.9925 4.23957 19.9925 4.23957L19.9137 4.15893H19.9138Z" fill="#010101"></path>
  </g>
  <defs>
    <clipPath id="clip0_443_180">
      <rect width="19" height="24" fill="white" transform="translate(2.5)"></rect>
    </clipPath>
  </defs>
</svg>
