<?xml version="1.0" encoding="UTF-8"?>
<svg xmlns="http://www.w3.org/2000/svg" width="24" height="24" viewBox="0 0 24 24" fill="none">
  <g clip-path="url(#clip0_445_103)">
    <path d="M20.704 5.0762L20.6427 4.73257L20.3086 4.66032C20.287 4.65384 18.0814 4.18146 16.1203 3.05332C13.3235 1.44307 12.3828 0.428381 12.3738 0.419119L12 0L11.6263 0.415877C11.6173 0.425139 10.6735 1.44631 7.88247 3.05332C5.9214 4.17822 3.71581 4.65384 3.69104 4.66032L3.35692 4.73257L3.29567 5.0762C2.90661 7.2283 2.90031 9.3929 3.28036 11.5195L3.44878 12.367L3.49471 12.5625C4.02787 14.7933 4.97125 16.8791 6.301 18.7603C7.74107 20.799 9.56976 22.5097 11.7389 23.8425L11.9991 24L12.2594 23.8425C14.4285 22.5097 16.2577 20.799 17.7004 18.7603C19.027 16.8791 19.9677 14.7965 20.5036 12.5625L20.7179 11.5195C21.098 9.3929 21.0917 7.22783 20.7026 5.0762H20.704Z" fill="black"></path>
    <path d="M20.2048 5.17073C20.2048 5.17073 17.9222 4.68539 15.8728 3.50722C12.9256 1.81222 12.0002 0.769287 12.0002 0.769287C12.0002 0.769287 11.0749 1.81222 8.12762 3.50722C6.07783 4.68585 3.79569 5.17073 3.79569 5.17073C3.37286 7.49603 3.42194 9.82457 3.89971 12.0396H20.1008C20.5758 9.82457 20.6245 7.49603 20.2048 5.17073Z" fill="#FFB300"></path>
    <path d="M12.0002 23.392C16.2894 20.7578 19.1141 16.6366 20.1008 12.0425H3.89972C4.88634 16.6366 7.71109 20.7578 12.0002 23.392Z" fill="#8E001C"></path>
    <path d="M10.5385 20.2038C10.4467 20.2038 10.3638 20.2005 10.3026 20.2005C10.2657 20.2005 10.2382 20.1973 10.2166 20.1973C10.1981 20.1973 10.1675 20.1973 10.1247 20.2005C10.0572 20.2038 9.96215 20.2038 9.8856 20.2038C9.86713 20.2038 9.84867 20.2005 9.84867 20.1815C9.84867 20.169 9.85768 20.1593 9.86713 20.1593C9.89145 20.1593 9.98646 20.1528 10.0234 20.1436C10.0846 20.1311 10.0909 20.1028 10.0968 20.0426C10.1031 19.9639 10.1089 19.7999 10.1058 19.592L10.1026 19.2738V19.0122C10.1026 18.9584 10.0995 18.9427 10.0752 18.9427C10.0477 18.9427 9.95855 18.9867 9.90046 19.0149C9.88199 19.0242 9.86353 19.0339 9.85452 19.0372C9.85137 19.0372 9.84822 19.0404 9.84552 19.0404C9.83921 19.0437 9.83336 19.0469 9.82706 19.0469C9.82075 19.0469 9.80859 19.0312 9.80859 19.0187C9.80859 19.0061 9.82075 18.9964 9.82706 18.9904C9.83021 18.9904 9.84237 18.9779 9.86668 18.9622C9.9617 18.8959 10.2188 18.7227 10.2742 18.6815C10.2895 18.669 10.308 18.6565 10.3233 18.6565C10.3418 18.6565 10.3508 18.6787 10.3508 18.7005C10.3508 18.7037 10.3386 18.8959 10.3386 19.2206V19.5924C10.3386 19.7782 10.3386 19.9546 10.3449 20.0431C10.3512 20.106 10.3602 20.1315 10.4183 20.1473C10.4489 20.1537 10.5318 20.1598 10.5471 20.1598C10.5561 20.1598 10.5687 20.169 10.5687 20.182C10.5687 20.201 10.5597 20.2042 10.5381 20.2042L10.5385 20.2038Z" fill="#100F0D"></path>
    <path d="M11.0812 20.2441C11.0722 20.2441 11.0596 20.2315 11.0596 20.219C11.0627 20.2033 11.0812 20.1876 11.0839 20.1843C11.142 20.1463 11.2861 20.0426 11.4085 19.8504C11.5252 19.6675 11.5833 19.4693 11.5833 19.2581C11.5833 19.0061 11.4914 18.751 11.2924 18.751C11.1577 18.751 11.0627 18.8769 11.0627 19.0474C11.0627 19.3595 11.2649 19.4225 11.3171 19.4225C11.3721 19.4225 11.4153 19.4132 11.4491 19.3975C11.4581 19.3942 11.4675 19.3882 11.4734 19.385C11.4797 19.3817 11.4855 19.3785 11.4887 19.3785C11.4977 19.3785 11.5072 19.385 11.5072 19.3975C11.5103 19.404 11.504 19.4165 11.4981 19.4225C11.4459 19.4822 11.3541 19.5137 11.2437 19.5137C10.9555 19.5137 10.8484 19.2836 10.8484 19.1261C10.8484 18.9936 10.8974 18.8742 10.983 18.7889C11.0717 18.7037 11.1973 18.6565 11.3414 18.6565C11.4855 18.6565 11.617 18.7102 11.7062 18.814C11.789 18.9117 11.8318 19.0469 11.8318 19.1983V19.2016C11.8318 19.4475 11.7431 19.6772 11.5652 19.8824C11.3874 20.0903 11.1793 20.2038 11.1208 20.232C11.1086 20.2413 11.0965 20.2445 11.0812 20.2445V20.2441Z" fill="#100F0D"></path>
    <path d="M12.7815 20.1969H12.0277C12.0124 20.1969 12.0002 20.1811 12.0002 20.1654C12.0002 20.1529 12.0124 20.1339 12.0371 20.1117C12.0556 20.0959 12.0741 20.0769 12.0921 20.0612C12.3587 19.8218 12.6928 19.5226 12.6928 19.1317C12.6928 18.9932 12.659 18.889 12.5978 18.8261C12.5334 18.7598 12.46 18.7538 12.4294 18.7538C12.3406 18.7538 12.2821 18.776 12.2303 18.8261C12.1844 18.8733 12.1475 18.9678 12.1475 19.015C12.1475 19.034 12.1443 19.0433 12.1385 19.0497C12.1353 19.0562 12.1295 19.0562 12.12 19.0562C12.1105 19.0562 12.1015 19.0405 12.0984 19.0122C12.0984 19.0058 12.0984 18.99 12.0952 18.9682C12.0921 18.9117 12.0889 18.814 12.0889 18.7728C12.0889 18.7538 12.0921 18.7446 12.1105 18.7288C12.2056 18.6783 12.319 18.6533 12.46 18.6533C12.7635 18.6533 12.9472 18.814 12.9472 19.0817C12.9472 19.4693 12.5338 19.8097 12.2884 20.0144L12.2853 20.0177C12.2821 20.0209 12.279 20.0209 12.279 20.0241C12.279 20.0241 12.2821 20.0274 12.2853 20.0274H12.4172C12.4969 20.0274 12.6838 20.0274 12.7482 20.0181C12.8675 20.0024 12.9382 19.9459 12.9657 19.8417C12.972 19.8194 12.9747 19.8069 12.99 19.8069C13.0084 19.8069 13.0084 19.8319 13.0084 19.8477C13.0084 19.8792 12.9715 20.0649 12.9535 20.1344C12.9382 20.1909 12.9044 20.1973 12.7819 20.1973L12.7815 20.1969Z" fill="#100F0D"></path>
    <path d="M13.443 20.2316C13.4214 20.2316 13.4124 20.2251 13.4124 20.2066C13.4124 20.1816 13.4155 20.1529 13.4245 20.1246C13.4826 19.9167 13.7308 19.3304 13.9883 18.8802H13.4952C13.4493 18.8802 13.3633 18.8867 13.3147 18.9182C13.2809 18.9404 13.2566 19.0067 13.2503 19.0382C13.2503 19.0571 13.2413 19.0664 13.2287 19.0664C13.2134 19.0664 13.2102 19.0539 13.2102 19.0317C13.2102 18.9844 13.2224 18.8742 13.2287 18.7922C13.2318 18.7482 13.2377 18.7135 13.2377 18.7038C13.2377 18.6848 13.2467 18.6755 13.262 18.6755C13.2651 18.6755 13.2683 18.6755 13.271 18.6788C13.2926 18.682 13.3539 18.6945 13.5223 18.6945H14.1383C14.1721 18.6945 14.1874 18.701 14.1874 18.7135C14.1874 18.726 14.1811 18.7418 14.1752 18.7515C14.0158 18.9844 13.7127 19.7787 13.6848 20.0403C13.6817 20.0626 13.6817 20.0751 13.6848 20.0908V20.1158C13.6848 20.1538 13.5254 20.2325 13.443 20.2325V20.2316Z" fill="#100F0D"></path>
    <path d="M10.5385 20.1308C10.4467 20.1308 10.3638 20.1275 10.3026 20.1275C10.2657 20.1275 10.2382 20.1243 10.2166 20.1243C10.1981 20.1243 10.1675 20.1243 10.1247 20.1275C10.0572 20.1308 9.96215 20.1308 9.8856 20.1308C9.86713 20.1308 9.84867 20.1308 9.84867 20.1118C9.84867 20.0961 9.85768 20.0868 9.86713 20.0868C9.89145 20.0868 9.98646 20.0803 10.0234 20.071C10.0846 20.0585 10.0909 20.0303 10.0968 19.9668C10.1031 19.8849 10.1089 19.7149 10.1058 19.5195L10.1026 19.2013V18.9397C10.1026 18.8859 10.0995 18.8702 10.0752 18.8702C10.0477 18.8702 9.95855 18.9142 9.90046 18.9424C9.88199 18.9517 9.86353 18.9614 9.85452 18.9647C9.85137 18.9647 9.84822 18.9679 9.84552 18.9679C9.83921 18.9711 9.83336 18.9744 9.82706 18.9744C9.82075 18.9744 9.80859 18.9651 9.80859 18.9494C9.80859 18.9369 9.8149 18.9272 9.82706 18.9179C9.83021 18.9179 9.84237 18.9054 9.86668 18.8896C9.9617 18.8234 10.2188 18.6502 10.2742 18.609C10.2895 18.5965 10.308 18.584 10.3233 18.584C10.3418 18.584 10.3508 18.6062 10.3508 18.628C10.3508 18.6312 10.3386 18.8234 10.3386 19.1481V19.5199C10.3386 19.7056 10.3386 19.8821 10.3449 19.9673C10.3512 20.0335 10.3602 20.0618 10.4183 20.0743C10.4489 20.0808 10.5318 20.0868 10.5471 20.0868C10.5561 20.0868 10.5687 20.0933 10.5687 20.1118C10.5687 20.1303 10.5565 20.1308 10.5381 20.1308H10.5385Z" fill="#BCB9B7"></path>
    <path d="M11.0811 20.1752C11.0721 20.1752 11.0595 20.1627 11.0595 20.1502C11.0595 20.1377 11.0717 20.1252 11.0811 20.1187L11.0843 20.1155C11.1424 20.0807 11.2865 19.977 11.409 19.7816C11.5256 19.5986 11.5837 19.4004 11.5837 19.1892C11.5837 18.9373 11.4918 18.6821 11.2928 18.6821C11.1581 18.6821 11.0631 18.8081 11.0631 18.9785C11.0631 19.2907 11.2653 19.3536 11.3176 19.3536C11.3819 19.3536 11.4216 19.3411 11.4495 19.3314C11.4558 19.3282 11.4585 19.3249 11.4648 19.3221C11.477 19.3129 11.4833 19.3064 11.4891 19.3064C11.5013 19.3064 11.5076 19.3189 11.5076 19.3286C11.5107 19.3351 11.5044 19.3476 11.4986 19.3536C11.4463 19.4134 11.3545 19.4449 11.2442 19.4449C10.956 19.4449 10.8488 19.2147 10.8488 19.0572C10.8488 18.9248 10.8979 18.8053 10.9834 18.7201C11.0721 18.6349 11.1978 18.5876 11.3419 18.5876C11.486 18.5876 11.6175 18.6414 11.7066 18.7451C11.7895 18.8428 11.8322 18.9781 11.8322 19.1327V19.136C11.8322 19.3819 11.7435 19.6116 11.5657 19.8168C11.3878 20.0247 11.1798 20.1382 11.1212 20.1664C11.1091 20.1696 11.0996 20.1757 11.0816 20.1757L11.0811 20.1752Z" fill="#BCB9B7"></path>
    <path d="M12.7815 20.128H12.0277C12.0124 20.128 12.0002 20.1122 12.0002 20.0965C12.0002 20.084 12.0124 20.065 12.0371 20.0428C12.0588 20.0238 12.0799 20.002 12.1047 19.983C12.3681 19.7468 12.6928 19.4504 12.6928 19.0628C12.6928 18.9243 12.659 18.8201 12.5978 18.7571C12.5334 18.6909 12.46 18.6849 12.4294 18.6849C12.3406 18.6849 12.2821 18.7071 12.2303 18.7571C12.1844 18.8044 12.1475 18.8989 12.1475 18.9461C12.1475 18.9618 12.1443 18.9743 12.1412 18.9808C12.138 18.9873 12.129 18.9873 12.1227 18.9873C12.1137 18.9873 12.1042 18.9748 12.1011 18.9466V18.9243C12.0979 18.8739 12.0921 18.7544 12.0921 18.7039C12.0921 18.6881 12.0952 18.6789 12.1137 18.6631C12.2087 18.6127 12.3222 18.5876 12.4631 18.5876C12.7666 18.5876 12.9504 18.7483 12.9504 19.016C12.9504 19.4037 12.537 19.744 12.2884 19.9487L12.2853 19.952C12.2821 19.9552 12.279 19.9585 12.279 19.9585C12.279 19.9617 12.2821 19.9617 12.2853 19.9617H12.4172C12.4568 19.9617 12.6806 19.9585 12.7482 19.9492C12.8675 19.9335 12.9382 19.877 12.9657 19.7728C12.9688 19.7505 12.9778 19.738 12.99 19.738C13.0084 19.738 13.0084 19.763 13.0084 19.7788C13.0084 19.8103 12.9715 19.996 12.9535 20.0654C12.9382 20.1219 12.9044 20.1284 12.7819 20.1284L12.7815 20.128Z" fill="#BCB9B7"></path>
    <path d="M13.443 20.1596C13.4187 20.1596 13.4124 20.1564 13.4124 20.1346C13.4124 20.1096 13.4155 20.0809 13.4245 20.0526C13.4552 19.9484 13.5349 19.7437 13.6299 19.5298C13.7465 19.2681 13.8717 19.0129 13.9915 18.8082H13.4984C13.4525 18.8082 13.3665 18.8147 13.3178 18.8462C13.284 18.8684 13.2597 18.9347 13.2534 18.9662C13.2534 18.9851 13.2444 18.9944 13.2318 18.9944C13.2165 18.9944 13.2133 18.9819 13.2133 18.9629C13.2133 18.9124 13.2255 18.793 13.235 18.711C13.2381 18.673 13.2413 18.6415 13.2413 18.6355C13.2413 18.6133 13.2503 18.604 13.2656 18.604C13.2687 18.604 13.2719 18.604 13.2746 18.6072C13.2962 18.6105 13.3574 18.623 13.5259 18.623H14.1419C14.1756 18.623 14.191 18.6295 14.191 18.642C14.191 18.6545 14.1847 18.6702 14.1788 18.68C14.0194 18.9194 13.7163 19.7136 13.6884 19.9688C13.6853 19.991 13.6853 20.0035 13.6884 20.0193V20.0443C13.6853 20.0823 13.5259 20.161 13.4435 20.161L13.443 20.1596Z" fill="#BCB9B7"></path>
    <path d="M6.69384 15.4585C6.69384 15.4992 6.70014 15.515 6.72446 15.5247C6.80101 15.5529 6.91134 15.5654 7.00005 15.5654C7.14414 15.5654 7.19008 15.5497 7.25762 15.4992C7.36479 15.4205 7.47197 15.2473 7.47197 14.9416C7.47197 14.4155 7.13199 14.2609 6.91764 14.2609C6.82578 14.2609 6.76139 14.2641 6.72446 14.2766C6.70014 14.2831 6.69384 14.2988 6.69384 14.3271V15.4585ZM6.26785 15.1653C6.26785 14.6012 6.26785 14.4975 6.26155 14.3776C6.25524 14.2516 6.22462 14.1918 6.10529 14.1631C6.07782 14.1567 6.01658 14.1539 5.96435 14.1539C5.92472 14.1539 5.90311 14.1474 5.90311 14.1191C5.90311 14.0941 5.92742 14.0876 5.98281 14.0876C6.17284 14.0876 6.40249 14.1002 6.47905 14.1002C6.60153 14.1002 6.87711 14.0876 6.98744 14.0876C7.21709 14.0876 7.45936 14.1099 7.65209 14.2451C7.75611 14.3174 7.9002 14.5068 7.9002 14.7555C7.9002 15.0329 7.78673 15.2848 7.42243 15.5905C7.74395 16.0063 7.99522 16.337 8.20686 16.5672C8.40905 16.7844 8.559 16.8098 8.61439 16.8223C8.65131 16.8288 8.68463 16.8316 8.71255 16.8316C8.74317 16.8316 8.75848 16.8441 8.75848 16.8599C8.75848 16.8913 8.73417 16.8978 8.68824 16.8978H8.3451C8.14292 16.8978 8.05421 16.8821 7.95919 16.8284C7.80294 16.7431 7.66515 16.5667 7.46296 16.28C7.31886 16.0753 7.15045 15.8229 7.10452 15.7697C7.08606 15.7447 7.06489 15.7414 7.04012 15.7414L6.72446 15.7349C6.706 15.7349 6.69699 15.7414 6.69699 15.7632V15.8169C6.69699 16.1633 6.69699 16.4565 6.7123 16.6112C6.72446 16.7214 6.74608 16.8034 6.8564 16.8159C6.90864 16.8251 6.98834 16.8316 7.03427 16.8316C7.06174 16.8316 7.07705 16.8441 7.07705 16.8599C7.07705 16.8881 7.04958 16.8978 7.00365 16.8978C6.79246 16.8978 6.52588 16.8886 6.47364 16.8886C6.40339 16.8886 6.17329 16.8978 6.02919 16.8978C5.98326 16.8978 5.95894 16.8886 5.95894 16.8599C5.95894 16.8441 5.9711 16.8316 6.01703 16.8316C6.06927 16.8316 6.11205 16.8251 6.14582 16.8159C6.21922 16.8034 6.23768 16.7214 6.24984 16.6112C6.2683 16.4569 6.2683 16.1638 6.2683 15.8202V15.1649L6.26785 15.1653Z" fill="#110F0D"></path>
    <path d="M11.0532 15.5654C11.0532 14.7304 10.5876 14.2136 9.99636 14.2136C9.57668 14.2136 9.10476 14.453 9.10476 15.3792C9.10476 16.1545 9.52129 16.7658 10.2139 16.7658C10.4683 16.7658 11.0564 16.6431 11.0532 15.5654ZM8.60537 15.4959C8.60537 14.8596 9.01289 14.0371 10.1004 14.0371C11.001 14.0371 11.5616 14.5757 11.5616 15.4265C11.5616 16.2772 10.9825 16.9515 10.0635 16.9515C9.0219 16.9515 8.60492 16.1545 8.60492 15.4959H8.60537Z" fill="#110F0D"></path>
    <path d="M12.1259 14.1348C12.1349 14.0686 12.1565 14.0371 12.1871 14.0371C12.2146 14.0371 12.2362 14.0529 12.2853 14.1506L13.2719 16.2207L14.2553 14.1256C14.2828 14.0658 14.3013 14.0371 14.335 14.0371C14.3688 14.0371 14.39 14.0718 14.3994 14.1506L14.7304 16.4286C14.7642 16.6616 14.798 16.7723 14.9083 16.8038C15.0123 16.8385 15.0862 16.8417 15.1321 16.8417C15.1659 16.8417 15.1902 16.845 15.1902 16.8667C15.1902 16.8982 15.1474 16.9075 15.0952 16.9075C15.0064 16.9075 14.5071 16.901 14.363 16.8885C14.277 16.882 14.2558 16.8695 14.2558 16.8505C14.2558 16.8315 14.2711 16.819 14.2954 16.8065C14.317 16.8001 14.3292 16.7528 14.3139 16.6491L14.0964 15.0296H14.0811L13.2935 16.6903C13.2106 16.8635 13.1922 16.8982 13.1589 16.8982C13.1282 16.8982 13.0913 16.8227 13.0332 16.7125C12.9472 16.5426 12.6626 15.972 12.6167 15.8683C12.5861 15.7895 12.3686 15.3514 12.2429 15.0712H12.2276L12.0407 16.5208C12.0344 16.5903 12.0317 16.6375 12.0317 16.6972C12.0317 16.7667 12.0777 16.8014 12.1389 16.8172C12.2065 16.8329 12.2555 16.8362 12.292 16.8362C12.3195 16.8362 12.347 16.8427 12.347 16.8612C12.347 16.8959 12.3132 16.9019 12.2582 16.9019C12.1083 16.9019 11.9426 16.8894 11.8782 16.8894C11.8138 16.8894 11.6364 16.9019 11.5197 16.9019C11.486 16.9019 11.4554 16.8955 11.4554 16.8612C11.4554 16.8422 11.477 16.8362 11.5134 16.8362C11.5409 16.8362 11.5684 16.8362 11.6206 16.8237C11.7219 16.8014 11.7526 16.6565 11.7706 16.5305L12.1259 14.1358V14.1348Z" fill="#110F0D"></path>
    <path d="M16.8284 15.7641C16.8469 15.7641 16.85 15.7548 16.8469 15.7418L16.5222 14.8281C16.519 14.8124 16.5159 14.7934 16.5037 14.7934C16.4916 14.7934 16.4853 14.8124 16.4821 14.8281L16.1511 15.7386C16.148 15.7543 16.148 15.7636 16.1633 15.7636C16.1601 15.7636 16.8279 15.7636 16.8279 15.7636L16.8284 15.7641ZM16.0899 15.9498C16.0714 15.9498 16.0624 15.959 16.0561 15.9813L15.8602 16.4916C15.8233 16.5829 15.8053 16.6713 15.8053 16.7185C15.8053 16.7848 15.8391 16.832 15.9494 16.832H16.0043C16.0471 16.832 16.0593 16.8413 16.0593 16.8635C16.0593 16.8917 16.0377 16.8982 15.998 16.8982C15.8814 16.8982 15.7283 16.889 15.6153 16.889C15.5756 16.889 15.3762 16.8982 15.1861 16.8982C15.1402 16.8982 15.1186 16.8917 15.1186 16.8635C15.1186 16.8413 15.1339 16.832 15.1614 16.832C15.1951 16.832 15.2442 16.8288 15.2748 16.8255C15.4401 16.8033 15.5077 16.6773 15.5811 16.4916L16.488 14.1821C16.5307 14.0751 16.5555 14.0371 16.5893 14.0371C16.6231 14.0371 16.6474 14.0686 16.6811 14.1538C16.7699 14.3585 17.3458 15.846 17.5786 16.4129C17.7164 16.7468 17.8204 16.7973 17.8974 16.8163C17.9524 16.8288 18.0046 16.832 18.0505 16.832C18.078 16.832 18.0965 16.8352 18.0965 16.8635C18.0965 16.8917 18.0627 16.8982 17.9312 16.8982C17.7997 16.8982 17.5358 16.8982 17.2481 16.8917C17.1805 16.8885 17.1378 16.8885 17.1378 16.8635C17.1378 16.8413 17.1499 16.832 17.1868 16.8288C17.2143 16.8223 17.2391 16.788 17.2206 16.7436L16.9324 15.978C16.9234 15.959 16.914 15.9498 16.8955 15.9498H16.0899Z" fill="#110F0D"></path>
    <path d="M6.69384 15.3764C6.69384 15.4204 6.70014 15.4329 6.72446 15.4459C6.80101 15.4709 6.91134 15.4839 7.00005 15.4839C7.14414 15.4839 7.19008 15.4681 7.25762 15.4209C7.36479 15.3357 7.47197 15.1657 7.47197 14.8601C7.47197 14.334 7.13199 14.1793 6.91764 14.1793C6.82578 14.1793 6.76139 14.1825 6.72446 14.195C6.70014 14.2015 6.69384 14.2173 6.69384 14.2455V15.3769V15.3764ZM6.26785 15.0833C6.26785 14.5192 6.26785 14.4155 6.26155 14.2955C6.25524 14.1696 6.22462 14.1098 6.10529 14.0811C6.07782 14.0746 6.01658 14.0718 5.96435 14.0718C5.92472 14.0718 5.90311 14.0654 5.90311 14.0371C5.90311 14.0121 5.92742 14.0056 5.98281 14.0056C6.17284 14.0056 6.40249 14.0149 6.47905 14.0149C6.60153 14.0149 6.87711 14.0056 6.98744 14.0056C7.21709 14.0056 7.45936 14.0278 7.65209 14.1631C7.75611 14.2353 7.9002 14.4247 7.9002 14.6734C7.9002 14.9508 7.78673 15.2028 7.42243 15.5084C7.74395 15.9243 7.99522 16.255 8.20686 16.4851C8.40905 16.7023 8.559 16.7278 8.61439 16.7403C8.65131 16.7468 8.68463 16.7496 8.71255 16.7496C8.74317 16.7496 8.75848 16.7621 8.75848 16.7778C8.75848 16.8093 8.73417 16.8158 8.68824 16.8158H8.3451C8.14292 16.8158 8.05421 16.7968 7.95919 16.7463C7.80294 16.6611 7.66515 16.4847 7.46296 16.198C7.31886 15.9965 7.15045 15.7409 7.10452 15.6876C7.08606 15.6626 7.06489 15.6594 7.04012 15.6594L6.72446 15.6529C6.706 15.6529 6.69699 15.6594 6.69699 15.6812V15.7349C6.69699 16.0813 6.69699 16.3744 6.7123 16.5291C6.72446 16.6393 6.74608 16.7213 6.8564 16.7338C6.90864 16.7431 6.98834 16.7496 7.03427 16.7496C7.06174 16.7496 7.07705 16.7621 7.07705 16.7778C7.07705 16.8061 7.04958 16.8158 7.00365 16.8158C6.79246 16.8158 6.52588 16.8065 6.47364 16.8065C6.40339 16.8065 6.17329 16.8158 6.02919 16.8158C5.98326 16.8158 5.95894 16.8065 5.95894 16.7778C5.95894 16.7621 5.9711 16.7496 6.01703 16.7496C6.06927 16.7496 6.11205 16.7431 6.14582 16.7338C6.21922 16.7213 6.23768 16.6393 6.24984 16.5291C6.2683 16.3749 6.2683 16.0818 6.2683 15.7381V15.0828L6.26785 15.0833Z" fill="#FBBA00"></path>
    <path d="M11.0532 15.4834C11.0532 14.6484 10.5876 14.1315 9.99636 14.1315C9.57668 14.1315 9.10476 14.371 9.10476 15.2972C9.10476 16.0724 9.52129 16.6838 10.2139 16.6838C10.4683 16.6838 11.0564 16.5578 11.0532 15.4834ZM8.60537 15.4139C8.60537 14.7776 9.01289 13.9551 10.1004 13.9551C11.001 13.9551 11.5616 14.4937 11.5616 15.3444C11.5616 16.1952 10.9825 16.8695 10.0635 16.8695C9.0219 16.8695 8.60492 16.0724 8.60492 15.4139H8.60537Z" fill="#FBBA00"></path>
    <path d="M12.1259 14.0469C12.1349 13.9839 12.1565 13.9524 12.1871 13.9524C12.2146 13.9524 12.2362 13.9714 12.2853 14.0659L13.2719 16.136L14.2553 14.0408C14.2828 13.9811 14.3013 13.9524 14.335 13.9524C14.3688 13.9524 14.39 13.9904 14.3994 14.0659L14.7304 16.3439C14.7642 16.5769 14.798 16.6876 14.9083 16.7218C15.0123 16.7533 15.0862 16.7566 15.1321 16.7566C15.1659 16.7566 15.1902 16.7598 15.1902 16.7816C15.1902 16.8131 15.1474 16.8223 15.0952 16.8223C15.0033 16.8223 14.5071 16.8158 14.363 16.8066C14.277 16.7973 14.2558 16.7876 14.2558 16.7658C14.2558 16.7468 14.2711 16.7343 14.2954 16.7251C14.317 16.7158 14.3292 16.6686 14.3139 16.5644L14.0964 14.9448H14.0811L13.2935 16.6056C13.2106 16.7788 13.1922 16.8135 13.1589 16.8135C13.1282 16.8135 13.0913 16.738 13.0332 16.6278C12.9472 16.4578 12.6626 15.8873 12.6167 15.7835C12.5861 15.7048 12.3686 15.2667 12.2429 14.9865H12.2276L12.0407 16.4389C12.0344 16.5051 12.0317 16.5523 12.0317 16.6121C12.0317 16.6815 12.0777 16.7163 12.1389 16.732C12.2065 16.7478 12.2555 16.751 12.292 16.751C12.3195 16.751 12.347 16.7575 12.347 16.776C12.347 16.8107 12.3132 16.8168 12.2582 16.8168C12.1083 16.8168 11.9426 16.8075 11.8782 16.8075C11.8138 16.8075 11.6364 16.8168 11.5197 16.8168C11.486 16.8168 11.4554 16.8103 11.4554 16.776C11.4554 16.757 11.477 16.751 11.5134 16.751C11.5409 16.751 11.5684 16.751 11.6206 16.7385C11.7219 16.7163 11.7526 16.5713 11.7706 16.4453L12.1259 14.0473V14.0469Z" fill="#FBBA00"></path>
    <path d="M16.8284 15.6821C16.8469 15.6821 16.85 15.6728 16.8469 15.6599L16.5222 14.7461C16.519 14.7304 16.5159 14.7114 16.5037 14.7114C16.4916 14.7114 16.4853 14.7304 16.4821 14.7461L16.1511 15.6566C16.148 15.6724 16.148 15.6816 16.1633 15.6816C16.1601 15.6816 16.8279 15.6816 16.8279 15.6816L16.8284 15.6821ZM16.0899 15.8678C16.0714 15.8678 16.0624 15.8771 16.0561 15.8961L15.8602 16.4097C15.8233 16.5009 15.8053 16.5893 15.8053 16.6366C15.8053 16.7028 15.8391 16.75 15.9494 16.75H16.0043C16.0471 16.75 16.0593 16.7593 16.0593 16.7815C16.0593 16.8098 16.0377 16.8163 15.998 16.8163C15.8814 16.8163 15.7283 16.807 15.6153 16.807C15.5756 16.807 15.3762 16.8163 15.1861 16.8163C15.1402 16.8163 15.1186 16.8098 15.1186 16.7815C15.1186 16.7593 15.1339 16.75 15.1614 16.75C15.1951 16.75 15.2442 16.7468 15.2748 16.7436C15.4401 16.7213 15.5077 16.5954 15.5811 16.4097L16.488 14.1001C16.5307 13.9931 16.5555 13.9519 16.5893 13.9519C16.6231 13.9519 16.6474 13.9866 16.6811 14.0719C16.7699 14.2765 17.3458 15.7641 17.5786 16.3309C17.7164 16.6648 17.8204 16.7153 17.8974 16.7343C17.9524 16.7468 18.0046 16.75 18.0505 16.75C18.078 16.75 18.0965 16.7533 18.0965 16.7815C18.0965 16.8098 18.0627 16.8163 17.9312 16.8163C17.7997 16.8163 17.5358 16.8163 17.2481 16.8098C17.1805 16.8065 17.1378 16.8065 17.1378 16.7815C17.1378 16.7593 17.1499 16.75 17.1868 16.7468C17.2143 16.7403 17.2391 16.706 17.2206 16.6616L16.9324 15.8961C16.9234 15.8771 16.914 15.8678 16.8955 15.8678H16.0899Z" fill="#FBBA00"></path>
    <path d="M20.2291 12.1655H3.77092C3.70337 12.1655 3.64844 12.109 3.64844 12.0395C3.64844 11.9701 3.70337 11.9136 3.77092 11.9136H20.2291C20.2966 11.9136 20.3516 11.9701 20.3516 12.0395C20.3516 12.109 20.2966 12.1655 20.2291 12.1655Z" fill="#17191D"></path>
    <path d="M5.61852 7.5178C5.54827 7.56503 5.52035 7.43582 5.52035 7.43582C5.49874 7.38534 5.49874 7.33162 5.52666 7.3131C5.5816 7.34459 5.64329 7.34459 5.66445 7.37608C5.68607 7.41406 5.65545 7.49603 5.61852 7.5178ZM18.685 10.5869C18.6391 10.5271 18.59 10.4669 18.5377 10.4011C18.3049 10.1112 17.7871 9.39619 17.7871 9.39619C17.7871 7.07413 17.3827 6.64251 16.9662 6.27665C16.6014 5.95525 16.0165 5.7913 15.3883 5.69081C15.2167 5.66256 15.0299 5.65283 14.8124 5.65283C14.5949 5.65283 14.3927 5.66209 14.1905 5.67506C14.0221 5.68432 11.078 5.81075 10.131 5.64681C9.72034 5.57734 9.14755 5.65932 8.81073 5.70053C8.65447 5.71952 7.80295 5.85799 7.70478 5.69405C7.68316 5.66256 7.68632 5.59309 7.69577 5.5176C7.70478 5.39488 7.75386 5.24668 7.662 5.11423C7.53321 4.9313 7.39542 4.73633 7.31887 4.73633C7.29455 4.73633 7.08606 4.91277 7.03383 4.9665C6.94782 5.05495 6.92035 5.19944 6.9235 5.36987C6.92665 5.47407 6.92035 5.45508 6.91134 5.4611C6.89919 5.47361 6.35702 5.47361 6.22193 5.48611C6.22193 5.45786 6.21562 5.31291 6.12376 5.17397C6.06567 5.08552 6.01344 4.79283 6.01344 4.79283C6.01344 4.79283 5.81756 5.14248 5.75316 5.23418C5.67976 5.33838 5.60321 5.44536 5.55728 5.56808C5.54197 5.61532 5.53882 5.67228 5.53296 5.72554C5.53296 5.7663 5.52666 5.84827 5.51135 5.86123C5.40733 5.93996 5.34879 6.04694 5.33978 6.18264C5.33663 6.22061 5.34879 6.27387 5.35825 6.33407C5.36725 6.37483 5.37986 6.43503 5.37986 6.46328C5.3677 6.47255 5.35825 6.47903 5.34924 6.48551C5.25422 6.54525 5.12859 6.63371 5.13805 6.78191C5.1502 7.00883 5.19929 7.09682 5.26999 7.22001C5.28845 7.25475 5.30961 7.28948 5.33123 7.33348C5.36185 7.39322 5.37716 7.48167 5.38932 7.56642C5.40778 7.68313 5.30061 7.81234 5.37401 7.88458C5.46902 7.9823 5.71714 7.98878 5.82746 7.98878C5.85493 7.98878 5.96841 7.98554 5.99588 7.98554C6.0355 7.98554 6.06928 7.98878 6.09719 7.99203C6.30568 8.03602 6.51057 8.05177 6.71321 8.07076C6.9888 8.08974 7.24952 8.11151 7.51295 8.19348C7.99703 8.33844 8.4748 8.54313 8.97148 8.8173C8.99895 8.8298 9.02372 8.84555 9.04804 8.85805C9.23176 8.95577 9.27184 8.94326 9.35739 9.20168C9.4461 9.46334 9.28715 11.502 9.25022 11.7127C9.19529 12.0531 9.08766 12.2578 8.9161 12.324C8.68644 12.4092 8.59143 12.5949 8.50272 12.7746C8.4721 12.8311 8.4784 12.9006 8.44148 12.9603C8.44148 12.9603 8.36808 13.0455 8.39239 13.0645C8.41671 13.0868 8.64997 13.0298 8.64997 13.0298C8.72967 13.0363 8.64366 13.077 8.72337 13.077C8.91925 13.077 9.15836 13.077 9.40062 12.9353C9.50194 12.9353 9.4344 13.0678 9.52626 13.0488C9.81715 12.9951 9.84192 12.7654 9.8784 12.5477C9.93649 12.179 9.92748 12.1161 9.96711 12.0813C10.0067 12.0466 10.1355 12.1036 10.1693 12.0656C10.1968 12.0341 10.1693 11.7664 10.1815 11.5237C10.2031 11.1773 10.2949 10.774 10.3958 10.4401L10.4021 10.4211C10.4237 10.3488 10.457 10.2604 10.4908 10.1659C10.5858 9.91071 10.6993 9.60181 10.6867 9.35312C10.7907 9.37211 10.806 9.37813 10.8646 9.46334C10.8736 9.47585 10.8889 9.50132 10.9073 9.52957C11.0208 9.72176 11.0789 9.77548 11.1555 9.77548C11.1618 9.77548 11.1708 9.77548 11.1771 9.77224C11.2996 9.74075 11.3671 9.63377 11.4346 9.49159C11.5049 9.35312 11.5756 9.21094 11.6922 9.18269H11.7075C11.7994 9.18269 11.9651 9.26791 12.0597 9.41888C12.265 9.74677 12.4424 9.5166 12.4577 9.48835C12.4821 9.45037 12.6478 9.17019 12.6905 9.10396C12.7396 9.02523 12.7702 9.01875 12.7824 9.01875H12.7856C12.8869 9.0345 13.3277 9.57634 13.484 9.54161C13.6339 9.52262 13.8028 8.92705 13.8974 8.92705C13.9005 8.92705 13.9064 8.92705 13.9095 8.9303C13.9338 8.94928 13.9861 9.03126 14.0198 9.08451C14.1365 9.26744 14.1639 9.38693 14.2558 9.38693C14.2864 9.38693 14.3355 9.36192 14.3661 9.28273C14.3751 9.2605 14.4121 9.1725 14.4152 9.16C14.4215 9.16926 14.5012 9.44065 14.6908 9.19798C14.6876 9.19473 14.6876 9.19149 14.6845 9.18871V9.19196V9.18547V9.18871C14.712 9.12573 15.0645 9.48511 15.233 9.62358C15.3861 9.76853 15.5149 9.89774 15.5239 9.90701C15.8886 10.2377 16.3389 10.6535 16.4245 11.1014C16.4767 11.3598 16.4641 11.659 16.3938 11.9429C16.3785 12.0026 16.3632 12.0373 16.3479 12.0471C16.3358 12.0563 16.2957 12.0596 16.2439 12.0596C16.2223 12.0596 16.198 12.0628 16.1705 12.066C16.0449 12.0725 15.962 12.2078 15.8855 12.3277C15.8517 12.3842 15.8057 12.4319 15.7841 12.4694C15.7598 12.5134 15.7963 12.5796 15.8211 12.5954C15.8427 12.6079 16.066 12.6616 16.1336 12.6616C16.152 12.6616 16.1732 12.6616 16.1858 12.6551C16.2349 12.6741 16.293 12.6834 16.3574 12.6834C16.5533 12.6834 16.7987 12.6014 16.8658 12.4629C16.9851 12.2267 17.0648 11.9683 17.1413 11.7192C17.1504 11.6909 17.1598 11.6627 17.1657 11.634C17.1841 11.5802 17.2084 11.5173 17.2332 11.4543C17.3161 11.2273 17.4597 10.9814 17.3958 10.7577C17.362 10.6378 17.2458 10.5248 17.172 10.4206C17.1076 10.3321 16.8595 9.99824 16.7829 9.88478C17.0157 10.1149 17.656 10.4549 17.8186 10.8522C17.8767 10.9939 17.8186 11.5802 17.8096 11.7345C17.8033 11.8099 17.8006 11.8859 17.7974 11.9614C17.7911 12.2008 17.724 12.2448 17.4881 12.2703C17.2859 12.2893 17.1909 12.5982 17.1418 12.7649C17.1386 12.7741 17.1355 12.7839 17.1355 12.7899L17.1112 12.8686L17.1909 12.8811C17.2215 12.8876 17.2521 12.8936 17.289 12.9001C17.4363 12.9284 17.6813 13.0228 17.856 13.0228C18.0582 13.0228 18.2023 12.9724 18.2941 12.8686C18.4135 12.7394 18.4567 12.5 18.4963 12.292C18.5116 12.2166 18.5976 11.9359 18.6283 11.835C18.8214 11.1986 19.011 10.9527 18.6863 10.5873L18.685 10.5869Z" fill="black"></path>
    <path d="M17.7322 12.4333C17.7105 12.4773 17.6281 12.4871 17.6002 12.4963C17.5453 12.5213 17.4899 12.5561 17.493 12.6005C17.493 12.6163 17.484 12.8085 17.493 12.8275C17.5052 12.8497 17.5818 12.8747 17.6002 12.8497C17.6092 12.8307 17.5971 12.6955 17.6124 12.601C17.6155 12.5885 17.6245 12.5315 17.652 12.519C17.661 12.5158 17.7533 12.475 17.7317 12.4338L17.7322 12.4333Z" fill="#BCB9B7"></path>
    <path d="M11.1483 9.04004C11.2185 9.03356 11.3167 9.01504 11.3504 9.04004C11.3811 9.06505 11.4301 9.15351 11.427 9.20723C11.4238 9.26095 11.2523 9.54762 11.2401 9.56012C11.2311 9.57587 11.2126 9.61384 11.182 9.57263C11.1514 9.52863 11.096 9.09052 11.096 9.09052C11.096 9.09052 11.087 9.04653 11.1483 9.04004Z" fill="#BCB9B7"></path>
    <path d="M18.6116 10.7319C18.5166 10.5934 18.2806 10.3443 18.1856 10.2248C18.06 10.0673 17.484 9.37081 17.484 9.37081C17.484 9.37081 17.3188 8.32139 17.2481 8.08196C17.2053 7.93052 17.0797 6.82183 16.2461 6.22302C16.2921 6.14429 16.8311 6.57916 17.0243 6.91954C17.3796 7.5341 17.53 9.14111 17.53 9.14111C17.53 9.14111 17.7565 6.6866 16.4943 6.16976C15.5874 5.77889 15.1371 5.84188 15.1371 5.84188C15.1371 5.84188 14.5089 6.2295 14.8858 6.96354C14.9592 7.1085 15.7832 8.40661 15.8386 8.51081C16.3074 9.41527 17.7965 10.4675 18.069 10.7541C18.0843 10.7699 18.3387 10.9431 18.3572 11.1353C18.3603 11.17 18.0077 10.9273 18.014 10.9713C18.0631 11.4252 18.0109 12.2949 18.0019 12.3954C17.9956 12.5089 17.9897 12.5279 17.919 12.5529C17.8515 12.5751 17.7812 12.5089 17.7412 12.6284C17.6952 12.7608 17.7105 12.8585 17.8299 12.8585C17.9492 12.8585 18.1271 12.9215 18.2405 12.4774C18.3572 12.0235 18.6053 11.2233 18.6787 10.9273C18.7003 10.8579 18.6449 10.7824 18.6111 10.7319H18.6116Z" fill="#BCBABA"></path>
    <path d="M6.00127 5.1897C6.00127 5.1897 6.09944 5.48887 6.09944 5.57084C6.09629 5.6593 6.07197 5.66532 6.07197 5.66532L5.77792 5.79453C5.77792 5.79453 5.84232 5.71904 5.87609 5.62456C5.90986 5.52684 6.00488 5.27815 6.00172 5.1897H6.00127Z" fill="#BCB9B7"></path>
    <path d="M9.5123 12.7422C9.506 12.7454 9.50015 12.7454 9.49699 12.7422L9.47853 12.7171C9.47538 12.7139 9.47853 12.7079 9.48484 12.7014L9.50015 12.6921C9.50645 12.6857 9.51546 12.6857 9.51546 12.6889L9.53392 12.7171C9.53707 12.7204 9.53392 12.7264 9.52762 12.7329L9.5123 12.7422Z" fill="#BCB9B7"></path>
    <path d="M16.3078 12.2601C16.3078 12.2601 16.2709 12.2476 16.2497 12.2758C16.2223 12.3138 16.2101 12.4588 16.2101 12.4588C16.2101 12.4588 16.2439 12.5028 16.3083 12.4777C16.3695 12.4527 16.4983 12.355 16.4582 12.3235C16.4155 12.292 16.3083 12.2605 16.3083 12.2605L16.3078 12.2601Z" fill="#BCB9B7"></path>
    <path d="M16.1944 12.1873C16.1944 12.1873 16.1394 12.1873 16.1115 12.2188C16.084 12.2503 16.035 12.3355 16.0381 12.3702C16.0413 12.405 16.0903 12.4615 16.1147 12.4267C16.1421 12.392 16.2588 12.1841 16.1944 12.1873Z" fill="#BCB9B7"></path>
    <path d="M5.40101 6.73327C5.33347 6.84025 5.5235 6.93194 5.57258 6.87498C5.6095 6.73003 5.46541 6.6763 5.40101 6.73327Z" fill="#BCB9B7"></path>
    <path d="M6.93565 6.92257C6.84064 6.80263 6.76724 6.60766 6.83163 6.56968C6.89602 6.53495 6.95726 6.58543 6.99419 6.60765C7.05228 6.63915 7.0802 6.62016 7.07705 6.54143C7.07389 6.47845 7.06804 6.42148 7.06173 6.36498C7.04327 6.1978 6.95771 6.01209 6.89017 5.93984C6.77669 5.81712 6.46103 5.67494 6.262 5.81388C6.20391 5.85463 6.16068 5.91808 6.1242 5.99681C6.10889 6.02506 6.14852 6.06303 6.13636 6.09452C6.06296 6.27745 5.95264 6.48817 5.82385 6.62386C5.81754 6.63313 6.26515 6.6711 6.89602 7.14672C6.95096 7.18748 6.84379 7.42089 6.80731 7.40838C6.78885 7.40514 6.87171 7.21295 6.81047 7.17821C6.51957 7.01103 6.348 6.98926 6.13051 6.90729C6.07827 6.89154 5.92832 6.98926 5.88869 6.95129C5.83376 6.87904 5.66804 6.79707 5.65273 6.78734C5.65904 6.79059 5.6802 6.80633 5.68651 6.87858C5.70812 7.06151 5.374 6.87858 5.65589 7.17173C5.73559 7.2537 5.81214 7.31668 5.87023 7.29168C5.96209 7.28843 5.91931 7.30094 5.92832 7.32317L5.9774 7.44311C5.98641 7.46534 5.99587 7.4621 6.00172 7.43987L6.02333 7.31391C6.02649 7.29168 6.0508 7.27315 6.07242 7.27315C6.07242 7.27315 6.50156 7.28241 6.58711 7.29214C6.67312 7.3014 6.67898 7.33289 6.67898 7.33289C6.68213 7.3579 6.7159 7.40838 6.6452 7.46859C6.59297 7.51258 6.46463 7.42135 6.36331 7.50656C6.262 7.58853 6.05981 7.62651 6.05981 7.62651C6.03549 7.63299 6.01073 7.62002 6.00172 7.59502L5.94948 7.47831C5.94048 7.45608 5.93102 7.45608 5.93102 7.48155L5.91886 7.63577C5.91571 7.658 5.90671 7.67977 5.90355 7.67977C5.89725 7.67977 5.88194 7.66402 5.87293 7.64179L5.86978 7.63253C5.86077 7.6103 5.83916 7.6103 5.82385 7.62604L5.79638 7.65754C5.78107 7.67652 5.75946 7.67328 5.7473 7.65105L5.73829 7.63531C5.72613 7.61632 5.70767 7.61632 5.69236 7.63531L5.67705 7.66356C5.66489 7.68254 5.64958 7.6793 5.64328 7.65707L5.63697 7.64133C5.63067 7.6191 5.61536 7.6191 5.60635 7.63809C5.60005 7.65383 5.58789 7.65707 5.58204 7.64735L5.55142 7.67884C5.53926 7.69134 5.51179 7.71682 5.50864 7.74182C5.50864 7.76683 5.53926 7.78258 5.68651 7.81407C5.83376 7.84232 6.52002 7.55565 6.73436 7.60289C6.98563 7.65661 7.08065 7.44543 7.09911 7.17127C7.09911 7.16478 7.09596 7.14904 7.09281 7.12727C7.05003 7.05502 6.98563 6.98232 6.93655 6.91933V6.92257H6.93565Z" fill="#BCB9B7"></path>
    <path d="M6.26471 6.09378C6.26471 6.09378 6.35072 5.93957 6.45474 5.90807C6.53444 5.88585 6.61415 5.93308 6.73663 6.01505C6.85596 6.09703 6.92035 6.22948 7.04013 6.19474C7.07976 6.18224 6.94827 6.33321 6.83164 6.29246C6.80417 6.27996 6.62946 5.98356 6.46104 5.9868C6.45789 5.9868 6.35072 6.00903 6.26516 6.09378H6.26471Z" fill="#17191D"></path>
    <path d="M6.60467 6.26685C6.58036 6.26685 6.55874 6.2386 6.55874 6.20711C6.55874 6.17562 6.58036 6.14737 6.60467 6.14737C6.63214 6.14737 6.66591 6.17562 6.66591 6.21035C6.66276 6.24184 6.63214 6.26685 6.60467 6.26685ZM6.57405 5.94869C6.43311 5.90794 6.35025 6.00843 6.35025 6.00843C6.38718 5.91072 6.55559 5.97046 6.62899 6.00195C6.67177 6.02094 6.72715 6.11865 6.76993 6.19738C6.724 6.15015 6.65961 6.09967 6.60467 6.09318C6.4975 6.08392 6.48804 6.23165 6.48804 6.23165L6.43311 6.30112C6.43311 6.30112 6.44211 6.31687 6.52497 6.31687C6.60782 6.31687 6.89557 6.31363 6.93249 6.27889C6.97212 6.24416 6.73031 5.99547 6.57405 5.94823V5.94869Z" fill="#17191D"></path>
    <path d="M8.78911 12.6036C8.78911 12.6036 8.68194 12.8306 8.67878 12.8556C8.67563 12.8778 8.68194 12.8935 8.69409 12.8935C8.70625 12.8935 8.74633 12.9028 8.7738 12.8843C8.80127 12.8653 8.90574 12.6416 8.9179 12.6101C8.92105 12.6009 8.83504 12.5504 8.78911 12.6036Z" fill="#BCB9B7"></path>
    <path d="M17.3003 10.943C17.3553 10.7415 17.1715 10.7193 17.1103 10.9777C17.0887 11.0689 16.8347 12.0114 16.8099 12.2568C16.8068 12.2693 16.8162 12.2818 16.8284 12.2661C16.8316 12.3513 17.2756 11.031 17.3003 10.9425V10.943Z" fill="#BCB9B7"></path>
    <path d="M15.8697 7.78594C15.8697 7.79242 15.8575 7.79242 15.8454 7.79242L15.7535 7.77668C15.7414 7.77344 15.7319 7.76741 15.7319 7.76093L15.7351 7.74843C15.7351 7.74194 15.7472 7.74194 15.7594 7.74194L15.8512 7.75769C15.8634 7.76093 15.8755 7.76695 15.8697 7.77344V7.78594Z" fill="#BCB9B7"></path>
    <path d="M15.8359 7.82343C15.8359 7.82667 15.8296 7.82991 15.8206 7.82991L15.7594 7.82065C15.7504 7.81741 15.7441 7.81139 15.7472 7.80814V7.79564C15.7472 7.78916 15.7562 7.78638 15.7657 7.78638L15.8238 7.79888C15.8328 7.79888 15.8391 7.80536 15.8391 7.81138L15.8359 7.82389V7.82343Z" fill="#BCB9B7"></path>
    <path d="M9.1417 5.81964C8.7004 5.90809 8.07853 5.94561 7.7417 5.89837C7.47512 5.86039 7.46296 5.69043 7.51205 5.54223C7.26393 5.79092 7.13199 5.69367 7.12614 5.66496C7.11713 5.6242 7.218 5.66496 7.28239 5.59549C7.34994 5.53251 7.38641 5.29308 7.33733 5.17961C7.28239 5.06615 7.34048 5.08514 7.34048 5.08514C7.34048 5.08514 7.47828 5.10088 7.53952 5.26807C7.57644 5.10088 7.34949 4.89017 7.27609 4.9374C7.20269 4.98464 7.05229 5.11061 7.0739 5.29678C7.09822 5.52371 7.08291 5.63717 7.01266 5.63393C6.52858 5.6117 5.98642 5.54547 5.68607 5.86688C5.68607 5.86688 6.05081 5.61818 6.3327 5.64643C6.61144 5.67144 7.18423 5.73165 7.218 6.42169C7.218 6.42169 7.2117 6.57915 7.2243 6.75884C7.23061 6.85655 7.1446 6.79357 7.1446 6.83756C7.14775 7.02976 7.27924 6.99827 7.27024 7.16545C7.2243 7.84623 6.9181 7.83048 6.9181 7.83048C6.9181 7.83048 7.28555 7.8842 7.46972 7.24742C7.46972 7.61282 7.43279 7.70452 7.28915 7.84623C7.57104 7.86522 7.79169 7.59105 7.79754 7.54984C7.84032 7.6193 7.92002 7.84299 8.12851 7.93422C8.0272 7.75777 8.05196 7.54335 8.07358 7.3544C8.13797 7.77954 8.24199 7.93746 8.45363 8.0287C8.36763 7.94024 8.19336 7.74805 8.24514 7.40488C8.28792 7.69803 8.62205 7.95923 8.62205 7.95923C8.62205 7.95923 8.51488 7.78278 8.48741 7.47064C8.6315 7.7888 8.78461 7.81427 8.78461 7.81427C8.78461 7.81427 8.5455 7.5591 8.50587 7.22195C8.49956 7.21871 8.67428 7.45212 8.81208 7.45212C8.7049 7.31643 8.53649 7.12747 8.51488 6.89129C8.6252 7.033 8.70175 7.12747 8.82423 7.13998C8.72021 7.01725 8.63421 6.81858 8.60359 6.58239C8.72292 6.73661 8.70175 6.78709 8.9251 6.85007C8.83909 6.76161 8.77785 6.52218 8.82108 6.40594C8.86071 6.48791 9.01111 6.56988 9.18853 6.59489C9.13044 6.55692 9.03858 6.32721 9.05074 6.23876C9.13044 6.27951 9.30516 6.33972 9.44295 6.32073C9.37856 6.27997 9.33263 6.0813 9.35109 6.03406C9.38801 6.05629 9.65144 6.05305 9.70638 6.03406C9.62037 5.98034 9.54697 5.89837 9.56859 5.90485C9.62983 5.92708 9.73385 5.87336 9.86894 5.85113C10.013 5.82612 10.0374 5.82612 10.1292 5.82612C10.0405 5.78213 9.48888 5.73165 9.1426 5.81964H9.1417Z" fill="#BCBABA"></path>
    <path d="M13.6024 8.66163C13.6024 8.66163 13.3205 8.64264 13.2989 8.73109C13.2773 8.81955 13.4277 9.29517 13.4489 9.35167C13.4858 9.44012 13.5808 9.23172 13.5808 9.23172C13.6114 9.178 13.728 8.89781 13.728 8.85984C13.7249 8.8126 13.728 8.66116 13.6024 8.66116V8.66163Z" fill="#BCB9B7"></path>
    <path d="M14.9659 9.229C14.9475 9.23827 14.929 9.24151 14.9168 9.24475C14.929 9.25123 14.9443 9.25401 14.9565 9.25401C14.9533 9.24753 14.9596 9.23827 14.9655 9.229H14.9659Z" fill="#BCB9B7"></path>
    <path d="M12.4933 8.70557C12.4933 8.70557 12.2083 8.68658 12.1871 8.77504C12.1655 8.86627 12.2884 9.28215 12.3064 9.33911C12.3339 9.42433 12.3952 9.29512 12.3952 9.29512C12.4258 9.23862 12.6496 8.94222 12.6527 8.90425C12.6527 8.86025 12.6221 8.70557 12.4933 8.70557Z" fill="#BCB9B7"></path>
    <path d="M14.4787 5.82922C14.39 5.83246 13.6515 5.92045 13.1611 5.92045C12.7657 5.92369 12.3524 5.90146 12.1286 5.91119C12.1101 5.90795 12.0826 5.91119 12.0583 5.91443C11.7273 5.89869 10.6736 5.88294 10.6736 5.88294C10.5939 5.86719 9.52175 6.15062 9.3655 7.37648C9.27049 8.13275 9.31642 8.37218 9.48213 8.73156C9.58345 8.94598 9.78248 9.33963 9.77302 9.64853C9.76987 9.77449 9.54922 9.10992 9.55238 9.18541C9.58615 9.96067 9.45421 11.7061 9.37766 12.078C9.28895 12.5194 9.20294 12.2952 9.10207 12.4814C9.08676 12.5097 8.86611 12.9227 8.87242 12.9255C8.87557 12.9288 8.98274 12.913 9.09307 12.9033C9.225 12.8968 9.33218 12.5347 9.42089 12.5347C9.43304 12.5347 9.32272 12.8278 9.33803 12.8213C9.42989 12.7991 9.57984 12.7583 9.57084 12.8338C9.60461 12.8463 9.63208 12.8273 9.65054 12.8023C9.67801 12.7676 9.80049 12.2035 9.87704 11.9108C9.89235 11.8636 10.0148 11.8886 10.0486 11.9044C10.1162 11.7659 10.009 11.3028 10.2017 10.6627C10.3917 10.0324 10.5908 9.48412 10.5021 9.32342C10.4931 9.30443 10.1679 9.74578 10.1589 9.73003C10.1373 9.67956 11.219 7.81413 11.0105 6.84992C11.0042 6.81519 10.9888 6.77444 10.9888 6.74572C10.9888 6.73924 11.1145 6.79296 11.2707 6.83696C11.4729 6.89994 11.6508 6.93467 11.712 7.1741C11.7854 7.63722 11.9939 8.29577 12.4199 8.33699C12.2267 8.15406 11.9786 7.22783 12.0092 6.84992C12.1286 7.4705 12.4965 8.36848 12.7995 8.32772C12.7383 8.22676 12.4839 7.65991 12.4839 7.30702C12.5942 7.60017 12.8545 8.24899 13.0508 8.25224C13.5655 8.2615 13.6974 8.02207 14.077 7.93408C14.9317 7.7354 15.1555 8.07255 15.2843 8.14201C15.1803 8.03781 14.8245 7.39825 14.589 6.9004C14.4021 6.50676 14.7178 6.11264 15.26 5.86673C15.364 5.81625 14.644 5.82273 14.4787 5.82876V5.82922Z" fill="#BCBABA"></path>
    <path d="M14.8462 9.23823C14.8462 9.23823 14.8187 9.21323 14.7939 9.20998C14.7849 9.20674 14.7818 9.20674 14.7755 9.20674C14.7664 9.20674 14.7601 9.20998 14.7601 9.20998L14.748 9.21323L14.7511 9.20396C14.7543 9.1947 14.7633 9.17896 14.7849 9.17896C14.7939 9.17896 14.8034 9.1822 14.8092 9.18544C14.843 9.19794 14.8552 9.23268 14.8552 9.23268L14.8615 9.25166L14.8462 9.23916V9.23823Z" fill="#17191D"></path>
    <path d="M14.6012 9.19102C14.6043 9.18176 14.6133 9.16602 14.635 9.16602C14.644 9.16602 14.6534 9.16926 14.6624 9.1725C14.6656 9.17574 14.6777 9.17898 14.6777 9.17898L14.684 9.18547L14.6597 9.20121H14.6566C14.6566 9.20121 14.6476 9.19797 14.6444 9.19797C14.6381 9.19473 14.6323 9.19473 14.6259 9.19473C14.6138 9.19473 14.6106 9.19797 14.6106 9.19797L14.5985 9.20121L14.6016 9.19195L14.6012 9.19102Z" fill="#17191D"></path>
    <path d="M14.6593 9.1786C14.6624 9.1786 14.6746 9.18509 14.6746 9.18509L14.6593 9.19435C14.6593 9.19435 14.6503 9.19111 14.6439 9.19111C14.6196 9.18462 14.607 9.19111 14.607 9.19111C14.607 9.19111 14.616 9.16286 14.6593 9.1786Z" fill="#17191D"></path>
    <path d="M15.1249 12.5531C14.8214 12.5531 14.7849 12.0488 14.7786 11.9608C14.7052 11.9543 14.6255 11.9011 14.5733 11.8566C14.5701 11.8566 14.5643 11.8534 14.5579 11.8501C14.5579 11.8881 14.5611 11.9256 14.5611 11.9604C14.5643 12.0201 14.5764 12.1715 14.5796 12.2123L14.5827 12.2155C14.589 12.272 14.6043 12.4045 14.4755 12.4772C14.4386 12.4994 14.3958 12.5119 14.3499 12.5119C14.313 12.5119 14.2797 12.5027 14.2549 12.4962H14.2396L14.218 12.4929C14.1842 12.4865 14.1414 12.4837 14.1076 12.4804H14.0986C14.0342 12.4804 13.8568 12.4929 13.8258 12.4962H13.8073C13.706 12.4962 13.6236 12.4142 13.6236 12.411C13.5713 12.3605 13.5686 12.2785 13.6114 12.2123L13.6236 12.1966L13.642 12.1808C13.651 12.1743 13.6817 12.1526 13.728 12.1461C13.765 12.1211 13.8231 12.0863 13.9118 12.0359C13.8352 11.8784 13.4921 11.3365 13.7893 11.1661C13.9028 11.1064 14.0712 11.0434 14.2337 11.0022C14.2337 10.9929 14.2369 10.9832 14.24 10.9739C14.2432 10.9614 14.2463 10.9174 14.24 10.8855C14.1941 10.9105 14.1482 10.9234 14.1081 10.9234C14.0959 10.9234 14.0838 10.9234 14.0712 10.9202C13.9672 10.898 13.8352 10.7438 13.8199 10.7215C13.7983 10.69 13.7127 10.5293 13.6299 10.3751C13.4124 10.3626 13.3939 10.3561 13.3786 10.3529C13.3543 10.3436 13.3295 10.3371 13.1886 10.2144C13.1426 10.1737 13.1183 10.1167 13.1242 10.063C13.1305 10.019 13.158 9.97777 13.1976 9.95878C13.2007 9.95554 13.2039 9.95554 13.2097 9.9523C13.2282 9.92729 13.2557 9.90182 13.3079 9.88931L13.3232 9.88607H13.3417C13.3755 9.88607 13.4061 9.89858 13.4335 9.91432C13.4335 9.89858 13.4398 9.87959 13.4457 9.86384C13.4732 9.81012 13.5286 9.77863 13.5898 9.77863C13.6267 9.77863 13.6632 9.78789 13.7064 9.81012L13.7127 9.81336L13.719 9.8166L13.7343 9.82587C13.7618 9.83235 13.8231 9.85087 13.8447 9.8606C13.8816 9.87635 13.9091 9.89533 13.9766 10.0181L14.0838 10.1315C14.1329 10.0116 14.1941 9.95832 14.2157 9.93933C14.2463 9.91108 14.286 9.89858 14.326 9.88561C14.3323 9.88237 14.3445 9.87913 14.3535 9.87913C14.3688 9.86338 14.3873 9.85088 14.4084 9.83837C14.4084 9.83189 14.4116 9.82587 14.4116 9.81938C14.3963 9.79715 14.3778 9.76566 14.3625 9.74065C14.3166 9.66517 14.3229 9.5957 14.3256 9.5517V9.5392C14.3319 9.42249 14.4787 9.322 14.4787 9.31876C14.494 9.30949 14.5125 9.29977 14.5278 9.29375C14.5584 9.25901 14.6075 9.19927 14.6444 9.16778C14.6719 9.13953 14.712 9.12054 14.7484 9.10804C14.779 9.04181 14.8466 9.00708 14.9475 9.00708C14.9781 9.00708 15.0821 9.01634 15.1159 9.01958C15.1924 9.03209 15.2415 9.08257 15.2658 9.13953C15.3302 9.16176 15.373 9.2215 15.3793 9.30347L15.4036 9.32848C15.4189 9.34423 15.4559 9.38822 15.468 9.45445C15.5076 9.53318 15.4986 9.62441 15.4955 9.66563C15.4923 9.7916 15.4617 9.86708 15.4279 9.91154C15.4216 9.92405 15.4189 9.93655 15.4158 9.94628C15.5324 10.0218 15.5689 10.1922 15.5783 10.2584C15.5905 10.2964 15.6364 10.4599 15.6612 10.5673C15.6918 10.7215 15.6396 10.8637 15.6369 10.8822L15.6306 10.898L15.6216 10.9105C15.6126 10.9262 15.5635 10.9925 15.5419 11.0207C15.5022 11.0679 15.459 11.0902 15.4225 11.0962C15.4347 11.1499 15.4468 11.2064 15.4563 11.2569C15.5513 11.3768 15.6004 11.5468 15.6004 11.6033C15.6004 11.6441 15.5882 11.6853 15.5788 11.7168C15.5878 11.745 15.5909 11.783 15.5878 11.865C15.6274 11.9122 15.6643 11.9752 15.7013 12.0479C15.7044 12.0572 15.7076 12.0636 15.7076 12.0669C15.8881 12.4703 15.4378 12.4985 15.4104 12.4892C15.3491 12.5457 15.1591 12.5522 15.1253 12.5522L15.1249 12.5531Z" fill="#17191D"></path>
    <path d="M15.0974 9.1502C15.07 9.14372 14.9718 9.1377 14.9443 9.1377C14.8124 9.1377 14.8831 9.20716 14.8831 9.20716C14.8831 9.20716 14.7759 9.22291 14.73 9.26366C14.6872 9.30442 14.6075 9.40213 14.6075 9.40213C14.6075 9.40213 14.5706 9.41464 14.5494 9.43038C14.5278 9.44289 14.4665 9.49337 14.4575 9.54385C14.4485 9.58182 14.4454 9.62582 14.4728 9.67306C14.5003 9.72029 14.5462 9.78328 14.5462 9.78328C14.5462 9.78328 14.5584 9.80551 14.5462 9.83052C14.5341 9.85877 14.5156 9.92499 14.5156 9.92499C14.5156 9.92499 14.4512 9.95972 14.4328 9.98149C14.4143 10.0037 14.3224 10.0162 14.3008 10.0352C14.2792 10.0542 14.2211 10.1075 14.1815 10.2496C14.1356 10.2904 14.1113 10.3441 14.1113 10.3441L13.8721 10.0954C13.8721 10.0954 13.8415 9.9977 13.7956 9.98195C13.7803 9.97547 13.6763 9.93796 13.6515 9.92823C13.5628 9.8935 13.5475 9.91897 13.5628 9.94722C13.5812 9.96945 13.6362 9.9977 13.6515 10.0037C13.6637 10.013 13.67 10.1107 13.4462 10.0732C13.434 10.0699 13.3759 10.0324 13.3358 10.0167C13.2408 9.9852 13.2593 10.0797 13.2777 10.0987C13.2994 10.1144 13.3944 10.2186 13.4187 10.2246C13.4403 10.2311 13.7127 10.2436 13.7127 10.2436C13.7127 10.2436 13.8996 10.6058 13.9239 10.6405C13.9514 10.6785 14.0559 10.779 14.0986 10.7887C14.1414 10.798 14.2671 10.7507 14.3283 10.6345L14.3526 11.1101C14.3526 11.1101 13.9235 11.2078 13.8442 11.274C13.6848 11.4065 13.9699 11.9043 14.0649 12.0396C14.0955 12.0803 14.0739 12.0933 14.0739 12.0933C14.0739 12.0933 13.7735 12.2605 13.7704 12.2762C13.7429 12.267 13.7181 12.2855 13.7181 12.2855C13.7181 12.2855 13.7028 12.3045 13.7118 12.317C13.724 12.3262 13.7731 12.3642 13.8132 12.361C13.8501 12.3577 14.0613 12.3452 14.1135 12.3452C14.1626 12.3485 14.2238 12.3577 14.2576 12.361C14.2882 12.3642 14.3558 12.3925 14.4107 12.361C14.4656 12.3295 14.4566 12.2758 14.4503 12.2225C14.444 12.172 14.4319 11.9673 14.4319 11.9673C14.4319 11.9673 14.4256 11.7279 14.4197 11.6996C14.4778 11.7061 14.5728 11.7279 14.5913 11.7186C14.6219 11.6996 14.6525 11.7534 14.6525 11.7534C14.6525 11.7534 14.7507 11.8321 14.7966 11.8256C14.8394 11.8164 14.8489 11.8131 14.87 11.7436C14.8853 11.7214 14.9006 11.7279 14.9006 11.7909C14.9006 11.8539 14.87 12.4304 15.1366 12.4212C15.3019 12.4147 15.4185 12.3327 15.4185 12.3327C15.4185 12.3327 15.4676 12.3989 15.5288 12.3735C15.7004 12.3105 15.6054 12.153 15.5932 12.1308C15.5779 12.1058 15.5013 11.9321 15.4523 11.9294C15.4554 11.8539 15.4433 11.7436 15.4306 11.7149C15.4397 11.6992 15.4676 11.633 15.4676 11.6047C15.4676 11.5732 15.4185 11.4093 15.3298 11.3116C15.3082 11.1601 15.2348 10.9272 15.2348 10.9272C15.2348 10.9272 15.3329 10.9651 15.3635 10.9679C15.3942 10.9712 15.4185 10.9587 15.4369 10.9332C15.4586 10.9082 15.5135 10.8322 15.5135 10.8322C15.5135 10.8322 15.5594 10.7123 15.532 10.5928C15.5076 10.4761 15.4523 10.2807 15.4523 10.2807C15.4523 10.2807 15.4248 10.095 15.3356 10.0505C15.2438 10.0097 15.2253 10.0125 15.2253 10.0125C15.2253 10.0125 15.1978 9.97177 15.219 9.96204C15.2406 9.95556 15.2739 9.92731 15.2834 9.91804C15.2956 9.90554 15.3109 9.83931 15.3109 9.83931C15.3109 9.83931 15.3631 9.81106 15.3631 9.65361C15.3663 9.65361 15.3816 9.54663 15.3415 9.4929C15.3415 9.44567 15.3077 9.41742 15.3077 9.41742L15.2496 9.35119C15.2496 9.35119 15.2586 9.27246 15.2222 9.26274C15.1852 9.25347 15.1609 9.24375 15.1609 9.24375C15.1609 9.24375 15.1578 9.15854 15.0965 9.14927L15.0974 9.1502Z" fill="#BCBABA"></path>
    <path d="M14.6133 9.44009C14.6408 9.43685 14.6624 9.48733 14.6624 9.49659C14.6656 9.50585 14.6593 9.50585 14.6439 9.50307C14.6286 9.50307 14.6165 9.47158 14.5859 9.47158C14.5552 9.47482 14.5552 9.49659 14.5462 9.49381C14.5372 9.49381 14.5859 9.44009 14.6138 9.44009H14.6133Z" fill="#17191D"></path>
    <path d="M14.8403 9.36156C14.8709 9.37082 14.8831 9.40231 14.8831 9.40231C14.8831 9.40231 14.8524 9.3773 14.825 9.37406C14.8007 9.36758 14.7881 9.37406 14.7881 9.37406C14.7881 9.37406 14.7971 9.34257 14.8403 9.36156Z" fill="#17191D"></path>
    <path d="M15.1434 9.61023C15.1402 9.60097 15.1344 9.59448 15.1281 9.59448H15.1218L15.1186 9.59772C15.1064 9.61347 15.0911 9.61995 15.0758 9.61995C15.0542 9.61995 15.0389 9.60745 15.0389 9.60745C15.0389 9.60745 15.0357 9.65145 15.0817 9.65145C15.1186 9.65145 15.1398 9.61995 15.1398 9.61995L15.1429 9.61069L15.1434 9.61023Z" fill="#17191D"></path>
    <path d="M14.8921 10.3191C14.9042 10.3034 14.9443 10.3413 14.9533 10.3316C14.9655 10.3223 14.8768 10.2181 14.9042 10.1959C14.938 10.1737 14.9745 10.2524 14.993 10.2399C15.0114 10.2242 15.0051 10.2177 14.9993 10.2052C14.9961 10.1987 14.9596 10.1264 14.9596 10.1264C14.9565 10.1232 14.9169 10.057 14.9412 10.0445C14.9686 10.0352 14.9993 10.0824 15.0056 10.0885C15.0056 10.0917 15.0578 10.1862 15.079 10.1769C15.1006 10.1644 15.042 10.0227 15.042 10.0227C15.0389 10.007 15.0114 9.97222 15.0236 9.95972C15.0389 9.95046 15.051 9.95323 15.088 10.0037C15.0911 10.007 15.1861 10.1866 15.1983 10.1802C15.1983 10.1802 15.2014 10.1422 15.1861 10.1172C15.2046 10.1329 15.2411 10.1422 15.2384 10.1677C15.2384 10.1802 15.2352 10.2561 15.2231 10.2746C15.1803 10.3251 14.9839 10.3946 14.9196 10.3849C14.9164 10.3784 14.8768 10.3376 14.8921 10.3186V10.3191ZM15.2843 11.1004L15.2568 10.9712L15.2447 10.9239L15.015 10.4826L15.006 10.4668C14.997 10.4603 14.9907 10.4511 14.9722 10.4321C14.9659 10.4256 14.9691 10.4196 14.9785 10.4196C15.0582 10.4321 15.1992 10.3913 15.2298 10.3788C15.2388 10.3913 15.4626 10.6595 15.4779 10.6498C15.4964 10.6373 15.2541 10.3094 15.2541 10.3061C15.2541 10.3061 15.2757 10.1704 15.2694 10.1547C15.2604 10.1232 15.196 10.076 15.1681 10.076H15.165C15.1618 10.0667 15.156 10.0602 15.1528 10.057L15.1497 10.0505C15.1312 10.019 15.119 9.99677 15.11 9.98102C15.1528 9.99677 15.1987 10.0093 15.2019 10.0125L15.2262 10.0158L15.2537 9.97778L15.0668 9.91156C15.0515 9.90831 15.033 9.8708 15.0299 9.83931C15.0299 9.81708 15.1618 9.68509 15.1371 9.67861C15.0848 9.65962 14.9655 9.79207 14.9623 9.83283C14.9592 9.85783 14.9745 9.9148 14.9961 9.93703C14.9871 9.94629 14.9839 9.95926 14.9839 9.975C14.7511 9.99075 14.6651 10.076 14.6561 10.12C14.6561 10.12 14.843 10.0445 14.9074 10.0347C14.8646 10.0755 14.9349 10.1575 14.9349 10.1575C14.9259 10.1542 14.9042 10.1385 14.8799 10.1542C14.8372 10.1922 14.8799 10.2644 14.8889 10.2802C14.8705 10.2802 14.8583 10.2867 14.852 10.2927C14.8304 10.3209 14.8736 10.3747 14.9042 10.4126C14.9196 10.4284 14.852 10.4251 14.6561 10.2742C14.6624 10.4191 14.8979 10.5071 14.9718 10.5071C14.9718 10.5104 15.2721 11.0805 15.2843 11.0994V11.1004Z" fill="#17191D"></path>
    <path d="M14.3436 11.0815L14.3098 11.1038L14.2607 11.132C14.2697 11.1543 14.4629 11.6364 14.6588 11.7873L14.6651 11.7716C14.4048 11.4062 14.3463 11.0815 14.3436 11.0815Z" fill="#17191D"></path>
    <path d="M15.07 11.3275C14.9533 11.3465 14.8678 11.7466 14.8678 11.7466C14.8952 11.7086 14.8984 11.7716 14.8984 11.7716C14.8984 11.7716 14.9934 11.4312 15.0731 11.3965C15.1591 11.3618 15.2816 11.3775 15.2816 11.3775C15.2816 11.3775 15.1866 11.308 15.0704 11.327L15.07 11.3275Z" fill="#17191D"></path>
    <path d="M14.163 10.697C14.1752 10.6878 14.1293 10.3062 14.1293 10.3062L14.1108 10.3251L14.0833 10.3062C14.068 10.3409 14.1477 10.703 14.163 10.697Z" fill="#17191D"></path>
    <path d="M14.2491 10.3914L14.2765 10.7003L14.3288 10.6721L14.3134 10.4451C14.3134 10.4451 14.3409 10.4577 14.3504 10.4484C14.3594 10.4391 14.3076 10.3947 14.3044 10.3349C14.3044 10.2942 14.3504 10.2405 14.3414 10.2372C14.3324 10.2307 14.317 10.2465 14.317 10.2465C14.3202 10.2085 14.3234 10.1677 14.3261 10.1423C14.3292 10.1043 14.3783 10.0288 14.3783 10.0288C14.2711 10.0668 14.2495 10.1928 14.2495 10.1928L14.2432 10.2905C14.2432 10.2937 14.2342 10.322 14.2342 10.3442C14.2342 10.3664 14.2495 10.3914 14.2495 10.3914H14.2491Z" fill="#17191D"></path>
    <path d="M15.4559 11.8914C15.4559 11.8914 15.4527 12.2665 15.3762 12.361H15.4189C15.4342 12.3485 15.4649 12.2285 15.477 12.1813C15.4892 12.1308 15.486 11.9229 15.486 11.9229L15.4554 11.8914H15.4559Z" fill="#17191D"></path>
    <path d="M14.1203 11.3745C14.1049 11.4532 14.4238 11.7557 14.4238 11.7557L14.5098 11.7149C14.5129 11.7149 14.2126 11.488 14.1207 11.3745H14.1203Z" fill="#17191D"></path>
    <path d="M14.9902 9.28883C14.9934 9.29532 14.9934 9.32032 14.9902 9.33931C14.9902 9.34255 14.9812 9.38007 15.0299 9.40554C15.0605 9.42128 15.0789 9.44953 15.0943 9.46852C15.0943 9.47176 15.0974 9.47778 15.1006 9.48102C15.1096 9.49029 15.1127 9.50001 15.1069 9.52178C15.1037 9.53428 15.0979 9.54077 15.0947 9.54679C15.0884 9.55003 15.0825 9.55605 15.0884 9.56577V9.56902C15.0916 9.58152 15.0974 9.60699 15.1222 9.61625C15.1285 9.6195 15.1406 9.63848 15.1253 9.67924L15.1222 9.69174C15.1069 9.73574 15.119 9.83994 15.1438 9.83345C15.1713 9.82697 15.1654 9.73574 15.1713 9.72323C15.1866 9.70425 15.1987 9.64775 15.1929 9.61625C15.1897 9.60699 15.1866 9.59727 15.1807 9.59402C15.1564 9.57828 15.1501 9.56577 15.1501 9.56253C15.1501 9.56253 15.1532 9.55605 15.1564 9.55327C15.1627 9.54679 15.1686 9.53752 15.1717 9.52826C15.1807 9.50927 15.1749 9.48102 15.1654 9.46204C15.1591 9.44305 15.1132 9.38655 15.0857 9.37682C15.0641 9.36756 15.0519 9.35459 15.0519 9.34209V9.31708C15.0551 9.29809 15.0582 9.27633 15.0488 9.2666C14.9722 9.15638 14.8587 9.16888 14.8587 9.16888L14.8097 9.22538C14.8097 9.22538 14.8957 9.17815 14.9902 9.28837V9.28883Z" fill="#17191D"></path>
    <path d="M14.3805 10.0011C14.3958 10.0104 14.4692 10.0234 14.6043 10.1081C14.6228 10.0734 14.4818 9.99464 14.4175 9.97241C14.3778 9.97241 14.3747 9.9789 14.3715 9.98167C14.3747 9.98816 14.3747 9.99418 14.3805 10.0007V10.0011Z" fill="#17191D"></path>
    <path d="M13.9762 12.1433C13.8568 11.9761 13.5993 11.9701 13.5137 12.0521C13.5074 12.0488 13.5047 12.0456 13.5015 12.0428C13.4646 12.0146 13.3606 11.9483 13.3115 11.9201C13.2318 11.8349 13.198 11.8131 13.1827 11.8034C13.1183 11.7654 12.9927 11.7182 12.8887 11.6932C12.8671 11.463 12.849 11.4065 12.8364 11.3843C12.8396 11.3778 12.8639 11.1731 12.8581 11.0439C12.9256 11.0564 13.0143 11.0721 13.0846 11.0721C13.1242 11.0721 13.158 11.0656 13.1827 11.0564C13.253 11.0374 13.3664 10.9966 13.4124 10.9179L13.4245 10.9022L13.4308 10.8832C13.434 10.8674 13.4678 10.716 13.3786 10.571C13.3174 10.4733 13.1489 10.2936 13.0571 10.1991C13.0602 10.1454 13.0634 10.0922 13.0634 10.0922C13.0665 10.0482 13.0544 10.0037 13.0053 9.95045C12.99 9.93471 12.8765 9.80226 12.8459 9.78327C12.8153 9.76428 12.7662 9.74854 12.7234 9.74854C12.7113 9.74854 12.6959 9.75178 12.6838 9.75502C12.5735 9.78003 12.5825 9.9537 12.5888 9.96944C12.5735 9.96018 12.5581 9.95369 12.5428 9.94721C12.5059 9.90322 12.451 9.87774 12.3956 9.86848C12.365 9.84625 12.3253 9.82449 12.27 9.82449H12.2578C12.1875 9.82773 12.1844 9.83699 12.1506 9.86524C12.0984 9.87774 12.0493 9.90924 12.0128 9.95647C11.9822 9.97222 11.9453 10.0037 11.9147 10.0574C11.884 10.0857 11.8471 10.1297 11.8197 10.2089L11.8106 10.2371C11.7863 10.3033 11.7557 10.3788 11.7769 10.4608V10.4673C11.7156 10.483 11.6296 10.521 11.581 10.6187C11.5594 10.6627 11.5382 10.7197 11.5197 10.7702C11.4923 10.7734 11.1829 10.8109 11.1888 10.9624C11.1919 11.0096 11.2131 11.0568 11.2563 11.0851C11.2257 11.1356 11.2257 11.1893 11.25 11.2333C11.2743 11.274 11.3023 11.3027 11.3387 11.3185C11.3509 11.3565 11.3662 11.394 11.3937 11.4287C11.4243 11.4695 11.4581 11.4982 11.4855 11.5199C11.4274 11.5389 11.3662 11.5672 11.3077 11.6112C11.2216 11.6709 11.0933 11.8001 11.2036 12.0048C11.2221 12.0363 11.277 12.0993 11.5468 12.3735C11.5378 12.3827 11.323 12.7861 11.6724 12.8051C11.7521 12.9408 12.0245 12.7454 12.034 12.7389C12.0556 12.7421 12.4199 12.7454 12.3222 12.4554C12.3497 12.4522 12.4753 12.4147 12.4816 12.4147C12.5212 12.4337 12.6135 12.4712 12.6653 12.4744C12.6896 12.4777 12.7297 12.4809 12.7572 12.4809C12.7941 12.4809 12.886 12.4777 12.9287 12.4684C12.9409 12.4684 12.9531 12.4619 12.9684 12.4619C13.0053 12.5249 13.0665 12.6036 13.1431 12.6476C13.235 12.7014 13.4434 12.7991 13.5137 12.8306C13.529 12.8431 13.6763 12.969 13.774 12.969C14.0833 12.969 13.9883 12.6791 13.9915 12.6634C14.0158 12.5879 14.0617 12.2632 13.9762 12.1433Z" fill="#17191D"></path>
    <path d="M12.8887 10.6091C12.8765 10.5933 12.754 10.5619 12.705 10.5554C12.6896 10.5396 12.6347 10.5206 12.6347 10.5206C12.6316 10.5206 12.7081 10.4641 12.7081 10.4229C12.6532 10.1455 12.564 10.1265 12.564 10.1265C12.564 10.1265 12.5365 10.0635 12.4568 10.0543C12.4447 9.99454 12.3344 9.98481 12.3344 9.98481C12.3344 9.98481 12.3037 9.94684 12.261 9.94684C12.2272 9.95008 12.2182 9.96582 12.1997 9.98481C12.1997 9.98481 12.1322 9.97555 12.0894 10.0543C12.0894 10.0543 12.0345 10.0668 12.0034 10.1455C12.0034 10.1455 11.9638 10.1548 11.9268 10.2497C11.9025 10.3159 11.8746 10.3822 11.8872 10.4294C11.8994 10.4766 11.9394 10.5271 11.9394 10.5271C11.9394 10.5271 11.9025 10.5586 11.8629 10.5711C11.8233 10.5836 11.7251 10.5933 11.685 10.6753C11.6454 10.7573 11.5932 10.9147 11.5932 10.9147C11.5932 10.9147 11.5688 10.899 11.5409 10.8958C11.5135 10.8925 11.3968 10.899 11.3694 10.918C11.354 10.9272 11.305 10.9337 11.305 10.956C11.3081 11.0125 11.4 10.9939 11.4 10.9939L11.3784 11.1199C11.3784 11.1199 11.3387 11.1579 11.3509 11.1736C11.3599 11.1926 11.3784 11.1986 11.3905 11.1959C11.4058 11.1926 11.4301 11.1644 11.4301 11.1644C11.4301 11.1644 11.4301 11.2843 11.4824 11.3533C11.5346 11.4223 11.5959 11.4478 11.5959 11.4478C11.5959 11.4478 11.6355 11.4635 11.6693 11.4478C11.7062 11.432 11.7706 11.3783 11.7764 11.3593C11.7827 11.3371 11.798 11.2681 11.798 11.2681C11.798 11.2681 11.8255 11.1579 11.8408 11.1579C11.853 11.1546 11.8651 11.1704 11.8651 11.1704V11.3941C11.8651 11.3941 11.7791 11.5613 11.7791 11.6052C11.7332 11.6085 11.5373 11.5863 11.3685 11.7122C11.2307 11.8099 11.2797 11.8979 11.3041 11.9452C11.3284 11.9924 11.7512 12.4115 11.7638 12.4273C11.7575 12.4398 11.7701 12.4588 11.7517 12.4588H11.7057C11.7057 12.4588 11.6413 12.4338 11.6292 12.4588C11.6049 12.5218 11.672 12.5153 11.6751 12.5282C11.6751 12.5375 11.6202 12.519 11.6107 12.5532C11.5986 12.5912 11.6107 12.632 11.6382 12.6635C11.6567 12.6885 11.6994 12.676 11.7116 12.6825C11.7237 12.6857 11.73 12.7075 11.7638 12.7172C11.8372 12.7454 11.9998 12.6102 12.0214 12.613C12.1011 12.6537 12.1961 12.5783 12.1993 12.531C12.2056 12.487 12.1993 12.4615 12.184 12.4268C12.1686 12.3921 12.1164 12.3356 12.1164 12.3356C12.1164 12.3356 12.1777 12.3166 12.193 12.3106C12.193 12.3106 12.202 12.3041 12.2236 12.3138C12.2452 12.3231 12.3371 12.3421 12.3645 12.3388C12.392 12.3388 12.4992 12.2883 12.5145 12.2981C12.5298 12.3046 12.6338 12.3518 12.6707 12.3546C12.7104 12.3578 12.8576 12.3578 12.9004 12.3481C12.94 12.3416 13.0229 12.3166 13.0229 12.3166C13.0229 12.3166 13.0904 12.4805 13.1944 12.5403C13.2985 12.6033 13.5803 12.7292 13.5803 12.7292C13.5803 12.7292 13.6938 12.8459 13.7672 12.8459C13.8406 12.8459 13.8591 12.783 13.8591 12.7672C13.8591 12.7515 13.8559 12.6695 13.8712 12.6255C13.8866 12.5815 13.8987 12.4523 13.9019 12.3893C13.9082 12.3296 13.9262 12.1591 13.7699 12.1341C13.7425 12.1309 13.6871 12.1216 13.6781 12.1216C13.6565 12.1216 13.6659 12.1781 13.6596 12.1564C13.6506 12.1313 13.6227 12.1249 13.6137 12.1281C13.5831 12.1439 13.5709 12.1689 13.5709 12.1818C13.574 12.2068 13.5831 12.2763 13.5831 12.2763C13.5862 12.2763 13.4543 12.1693 13.4205 12.1378C13.3836 12.1096 13.2305 12.0179 13.2305 12.0179C13.2305 12.0179 13.1476 11.9267 13.1201 11.9169C13.108 11.8979 12.8873 11.797 12.7707 11.797C12.7676 11.7057 12.7617 11.4881 12.7126 11.3843C12.7126 11.3561 12.7432 11.0537 12.7248 10.975C12.7185 10.937 12.7676 10.912 12.795 10.912C12.8225 10.912 13.0738 10.9685 13.1413 10.9402C13.1413 10.9402 13.2759 10.9055 13.3066 10.855C13.3066 10.855 13.3309 10.7415 13.2669 10.6406C13.2025 10.5364 12.9787 10.3002 12.9207 10.2497C12.9297 10.19 12.9328 10.0825 12.9328 10.0825C12.9328 10.0825 12.9328 10.0603 12.9207 10.0446C12.9022 10.0288 12.8013 9.90886 12.786 9.89636C12.777 9.88385 12.7311 9.86811 12.7095 9.87413C12.691 9.88061 12.6973 9.92136 12.7095 9.93387C12.7216 9.94637 12.7491 9.97184 12.7491 9.97184L12.7676 10.0191C12.7676 10.0191 12.7459 10.0283 12.7432 10.0381C12.7401 10.0473 12.7401 10.1011 12.7464 10.1136C12.7527 10.1261 12.777 10.1293 12.777 10.1293C12.777 10.1293 12.7554 10.183 12.7342 10.183C12.7126 10.1548 12.682 10.0696 12.6545 10.0978C12.6424 10.1136 12.6329 10.1358 12.6424 10.1576C12.6487 10.1798 12.6851 10.29 12.7036 10.3118C12.7221 10.3308 12.7374 10.34 12.7374 10.34C12.7405 10.34 12.8815 10.5669 12.8873 10.6077L12.8887 10.6091Z" fill="#BCBABA"></path>
    <path d="M11.5373 11.7025C11.7395 11.6803 12.107 12.3264 12.1196 12.3389C12.1349 12.3514 12.1565 12.3231 12.1565 12.3231C12.1412 12.2949 11.8197 11.6108 11.5378 11.7025H11.5373Z" fill="#17191D"></path>
    <path d="M11.513 11.0218C11.5499 11.0153 11.608 10.9431 11.599 10.9399C11.59 10.9366 11.5594 10.9839 11.504 10.9839C11.4887 10.9839 11.4671 10.9806 11.4428 10.9746H11.4396C11.4333 10.9871 11.3847 10.9936 11.3847 10.9936L11.391 11.0251L11.4369 11.0126C11.4432 11.0158 11.4765 11.0251 11.5135 11.0218H11.513Z" fill="#17191D"></path>
    <path d="M11.8161 10.6309C11.7733 10.6373 11.8224 11.2264 11.8224 11.2264L11.8651 11.1699C11.8588 11.1352 11.8561 10.962 11.8561 10.937C11.8714 10.9495 12.0673 10.9055 12.1106 10.83C12.1106 10.83 11.9728 10.855 11.939 10.849C11.8778 10.8397 11.8624 10.811 11.8561 10.7925C11.8593 10.786 11.8345 10.6318 11.8165 10.6318L11.8161 10.6309Z" fill="#17191D"></path>
    <path d="M11.7917 11.5635L11.7521 11.5917C12.0308 11.7432 12.1993 12.304 12.2024 12.3068V12.3133L12.2911 12.3448C12.2911 12.3448 12.0799 11.6955 11.7917 11.5635Z" fill="#17191D"></path>
    <path d="M12.4474 12.3138C12.4595 12.3328 12.5239 12.298 12.5239 12.298V12.2915C12.5239 12.2915 12.5149 12.0206 12.7261 11.8159C12.7293 11.8159 12.4965 11.8632 12.4474 12.3138Z" fill="#17191D"></path>
    <path d="M13.5871 12.2665L13.5349 12.2285C13.5349 12.2285 13.5623 12.3512 13.5592 12.405C13.5592 12.4114 13.556 12.4142 13.5529 12.4175L13.5466 12.424C13.5281 12.4462 13.5403 12.5282 13.5403 12.5282C13.5403 12.5282 13.5646 12.4809 13.5893 12.4527L13.5956 12.4462C13.6046 12.4369 13.6078 12.4272 13.6019 12.38C13.6019 12.3642 13.5898 12.2665 13.5866 12.2665H13.5871Z" fill="#17191D"></path>
    <path d="M12.7567 10.6248C12.7477 10.628 12.7293 10.7697 12.7293 10.7887C12.7293 10.7919 12.723 10.8832 12.6221 10.8674C12.5239 10.8517 12.4811 10.8295 12.4811 10.8295C12.5181 10.9049 12.6833 10.9397 12.7261 10.9994C12.7324 11.0119 12.7414 11.0781 12.7414 11.0846H12.7752V10.9679L12.809 10.9587C12.7937 10.71 12.7662 10.6248 12.7567 10.6248Z" fill="#17191D"></path>
    <path d="M12.0768 10.5208C12.0155 10.5208 11.9268 10.53 11.9237 10.53L11.8224 10.5522L11.853 10.5745C11.8561 10.5745 11.9849 10.5462 12.0736 10.5462C12.0858 10.5462 12.0979 10.5495 12.1074 10.5527C12.184 10.5685 12.2727 10.5999 12.2758 10.5874C12.2758 10.5749 12.1686 10.5337 12.1164 10.5245C12.1074 10.5212 12.0921 10.5212 12.0768 10.5212V10.5208Z" fill="#17191D"></path>
    <path d="M12.7293 10.5587L12.7356 10.5522L12.7387 10.549L12.7419 10.5425L12.7387 10.536L12.6991 10.511H12.5032C12.4541 10.5142 12.3042 10.574 12.3132 10.5865C12.3222 10.5957 12.4325 10.5517 12.5064 10.5392C12.5861 10.53 12.7239 10.5582 12.7302 10.5582L12.7293 10.5587Z" fill="#17191D"></path>
    <path d="M12.573 10.1775C12.6126 10.1367 12.5361 10.089 12.5361 10.083C12.5361 10.083 12.5883 10.1525 12.5451 10.1335C12.5082 10.0738 12.3672 10.0325 12.3645 10.0265C12.3555 10.0173 12.383 9.99179 12.4595 10.0515C12.4627 10.0423 12.4168 9.99503 12.3492 10.0011C12.3492 9.99179 12.3429 9.97882 12.337 9.97604H12.328C12.3343 9.98253 12.3434 10.0011 12.3343 10.0011C12.319 10.0043 12.3127 9.97882 12.31 9.97604C12.3037 9.96354 12.2704 9.97929 12.2884 9.99503C12.2947 10.0015 12.3037 10.0043 12.31 10.0075C12.319 10.014 12.3163 10.02 12.3069 10.014C12.2979 10.0108 12.2853 10.0075 12.27 10.0075C12.2546 10.0075 12.2425 10.014 12.2303 10.02C12.224 10.02 12.2182 10.0168 12.224 10.0108C12.2303 10.0075 12.2393 10.0043 12.2456 10.0015C12.27 9.97929 12.2272 9.9478 12.2182 9.99503C12.2119 10.0043 12.2092 10.0075 12.2029 10.0108C12.1844 10.0108 12.206 9.97929 12.2029 9.97929C12.2029 9.97929 12.2029 9.98253 12.1997 9.98253C12.1934 9.98901 12.1875 9.99503 12.1844 10.0048C12.1781 10.0048 12.1015 10.008 12.0894 10.052C12.1475 10.008 12.1781 10.0112 12.1754 10.0298C12.1722 10.0363 12.1051 10.077 12.0772 10.1053C12.0529 10.121 12.0223 10.1618 12.016 10.1618C12.0038 10.165 12.0038 10.1428 12.016 10.1113C11.9822 10.1492 11.9885 10.1775 11.9975 10.1932C11.9791 10.2372 11.9822 10.2942 12.0065 10.3382C12.0281 10.3762 12.1538 10.4864 12.1659 10.4799C12.1749 10.4734 12.034 10.3442 12.0218 10.2877C12.0002 10.1585 12.1718 10.0418 12.2303 10.0358C12.2335 10.0358 12.2393 10.0515 12.27 10.0483C12.3096 10.0483 12.3159 10.0358 12.3159 10.0358C12.3587 10.0293 12.5703 10.1113 12.5487 10.272C12.5397 10.3225 12.5212 10.3822 12.5302 10.3887C12.5392 10.3952 12.5487 10.3665 12.5672 10.3225C12.5946 10.2785 12.5946 10.2215 12.5735 10.1775H12.573Z" fill="#17191D"></path>
    <path d="M13.1246 10.8957C13.0972 10.8642 12.8702 10.5835 12.8702 10.5835C12.8702 10.5803 12.8639 10.571 12.8549 10.571C12.8518 10.571 12.8211 10.5743 12.8211 10.5803C12.8702 10.6623 12.9774 10.7915 13.0508 10.8545C13.0877 10.886 13.1152 10.9017 13.1242 10.8952L13.1246 10.8957Z" fill="#17191D"></path>
    <path d="M11.7336 12.4084C11.7458 12.4241 11.7643 12.4524 11.7643 12.4524C11.7643 12.4524 11.7917 12.3829 11.8408 12.3547C11.8867 12.3297 11.9696 12.2917 12.0061 12.2884C11.8683 12.2537 11.7395 12.3579 11.7332 12.4084H11.7336Z" fill="#17191D"></path>
    <path d="M11.6661 11.2708C11.6904 11.274 11.6967 11.2485 11.6999 11.2203L11.703 11.2138C11.703 11.2138 11.7273 11.1916 11.7427 11.1416C11.7548 11.2078 11.7886 11.343 11.7643 11.3777L11.7273 11.4157L11.767 11.3935C11.7823 11.387 11.8066 11.3588 11.7976 11.3115C11.7944 11.2865 11.7548 11.0753 11.7548 11.0753V11.0661C11.7517 11.0378 11.7427 11.0123 11.7273 10.9906C11.703 10.9558 11.6629 10.9369 11.6355 10.9341C11.6355 10.9341 11.7427 11.0096 11.7305 11.0855C11.7183 11.1615 11.703 11.1675 11.703 11.1675L11.6877 11.1517V11.1925C11.6846 11.2147 11.6787 11.224 11.6634 11.224C11.6238 11.224 11.5931 11.2805 11.5499 11.268C11.5071 11.2555 11.4855 11.2207 11.4612 11.1985C11.4369 11.1795 11.4734 11.142 11.4734 11.142C11.4734 11.142 11.4702 11.1295 11.4612 11.1198C11.4491 11.1133 11.4306 11.1605 11.4306 11.1605C11.4306 11.1605 11.4063 11.2268 11.4396 11.249C11.5008 11.2898 11.4824 11.2898 11.5499 11.312C11.6175 11.331 11.6112 11.2712 11.6665 11.2712L11.6661 11.2708Z" fill="#17191D"></path>
    <path d="M14.5764 9.22905C14.5305 9.22905 14.4751 9.2008 14.4598 9.11883C14.4566 9.10309 14.417 9.00861 14.3801 8.92664C14.1869 8.45704 14.2022 8.63025 14.2207 8.55476C14.2545 8.41907 14.4319 8.40332 14.5638 8.40332C14.5944 8.40332 14.6188 8.40656 14.6282 8.40656C14.6926 8.40656 14.7475 8.43157 14.7908 8.47603C14.8642 8.54828 14.8826 8.65896 14.8826 8.70898C14.8826 8.71222 14.7845 9.01463 14.7354 9.10587L14.7322 9.10911C14.6588 9.22905 14.5944 9.22905 14.576 9.22905H14.5764Z" fill="#17191D"></path>
    <path d="M14.6228 8.51075C14.6228 8.51075 14.3377 8.49176 14.3166 8.58021C14.295 8.66867 14.4972 9.00859 14.5584 9.10307C14.6012 9.1693 14.6471 9.05907 14.6471 9.05907C14.6777 9.00257 14.779 8.74693 14.779 8.70942C14.779 8.66218 14.7516 8.50797 14.6228 8.51075Z" fill="#BCB9B7"></path>
    <path d="M6.56821 5.61168C6.56821 5.61168 7.35849 5.66215 7.49673 6.57912C7.54266 6.41194 7.36209 5.85435 7.13514 5.7219C7.11082 5.70615 7.01266 5.65567 7.08606 5.49173C6.81948 5.45097 6.56821 5.61168 6.56821 5.61168Z" fill="#17191D"></path>
    <path d="M10.3395 5.98346C10.3395 5.98346 10.8236 5.79451 10.9371 6.59153C10.9893 6.30162 10.9249 5.95521 10.7286 5.84776C10.5327 5.74356 10.3395 5.98346 10.3395 5.98346Z" fill="#17191D"></path>
    <path d="M8.06638 6.8374C8.06638 6.8374 8.11546 7.00459 8.16454 7.03886C8.21678 7.07035 8.35142 6.86565 8.35142 6.86565C8.35142 6.86565 8.2564 7.11157 8.1767 7.17455C8.10915 7.12407 8.08169 7.06109 8.06638 6.8374Z" fill="#17191D"></path>
    <path d="M8.26226 7.02637C8.26226 7.02637 8.33881 7.19031 8.39105 7.22504C8.44328 7.25653 8.56261 7.05786 8.56261 7.05786C8.55946 7.05786 8.45544 7.31303 8.40005 7.36027C8.35097 7.31628 8.25596 7.25607 8.26226 7.02637Z" fill="#17191D"></path>
    <path d="M7.81194 7.30707C7.81194 7.30707 7.90696 7.48676 7.96189 7.51177C8.06006 7.54975 8.06591 7.28809 8.06591 7.28809C8.06591 7.28809 8.10554 7.578 8.00152 7.67247C7.91281 7.62199 7.86373 7.58726 7.81149 7.30707H7.81194Z" fill="#17191D"></path>
    <path d="M8.05423 7.20282C8.05423 7.20282 8.10647 7.36028 8.1524 7.39826C8.20148 7.43623 8.30235 7.15234 8.30235 7.15234C8.30235 7.15234 8.26857 7.42975 8.19202 7.56822C8.14294 7.51172 8.06008 7.42327 8.05423 7.20282Z" fill="#17191D"></path>
    <path d="M8.25008 7.33199C8.25008 7.33847 8.34195 7.48019 8.40004 7.50519C8.45812 7.5302 8.49505 7.29077 8.49505 7.29077C8.49505 7.29077 8.51036 7.56494 8.44281 7.64367C8.40004 7.61542 8.2681 7.54595 8.24963 7.33153L8.25008 7.33199Z" fill="#17191D"></path>
    <path d="M8.30233 6.66431C8.30233 6.66431 8.39419 6.87549 8.45228 6.90698C8.51352 6.93847 8.60223 6.71479 8.60223 6.71479C8.60223 6.71479 8.5563 6.9607 8.44913 7.03619C8.37573 6.9732 8.35412 6.92921 8.30188 6.66431H8.30233Z" fill="#17191D"></path>
    <path d="M8.14877 6.48145C8.14877 6.48145 8.20686 6.6389 8.25595 6.66438C8.30818 6.69263 8.39689 6.48145 8.39689 6.48145C8.39689 6.48145 8.34466 6.75237 8.26225 6.83434C8.20731 6.79034 8.18255 6.71439 8.14877 6.48145Z" fill="#17191D"></path>
    <path d="M8.4613 6.42773C8.4613 6.42773 8.51039 6.56343 8.55317 6.59168C8.59594 6.61993 8.66664 6.50044 8.66664 6.50044C8.66349 6.50044 8.63917 6.68939 8.55632 6.71487C8.52255 6.68662 8.48607 6.62363 8.4613 6.4282V6.42773Z" fill="#17191D"></path>
    <path d="M8.70357 6.26416C8.70357 6.26416 8.73103 6.39337 8.76796 6.42162C8.80488 6.44663 8.87198 6.33039 8.87198 6.33039C8.87198 6.33039 8.86297 6.4721 8.76481 6.53508C8.72788 6.49109 8.6851 6.43737 8.70357 6.26416Z" fill="#17191D"></path>
    <path d="M8.92735 6.07786C8.92735 6.07786 8.95167 6.20707 8.98859 6.23207C9.02552 6.26032 9.09261 6.14362 9.09261 6.14362C9.09261 6.14362 9.08045 6.31682 8.98859 6.33581C9.00075 6.35156 8.91204 6.23161 8.92735 6.07739V6.07786Z" fill="#17191D"></path>
    <path d="M7.8642 6.99829C7.8642 6.99829 7.94705 7.14973 7.98353 7.15251C8.02315 7.15575 8.097 6.99829 8.097 6.99829C8.097 6.99829 8.06323 7.21271 7.98353 7.25347C7.94975 7.21271 7.88221 7.14325 7.8642 6.99829Z" fill="#17191D"></path>
    <path d="M8.35413 6.28589C8.35413 6.28589 8.3879 6.41186 8.42438 6.43733C8.464 6.46234 8.52254 6.33961 8.52254 6.33961C8.52254 6.33961 8.50408 6.5193 8.43654 6.56978C8.39376 6.5318 8.34467 6.46558 8.35368 6.28635L8.35413 6.28589Z" fill="#17191D"></path>
    <path d="M11.8957 8.26152C11.7611 8.21752 11.5985 7.93086 11.5495 7.80767C11.4972 7.68494 11.4085 7.32557 11.4635 7.19312C11.4909 7.32232 11.5675 7.60251 11.626 7.7257C11.7147 7.91465 11.8251 8.16056 11.8957 8.26152Z" fill="#BCB9B7"></path>
    <path d="M14.7791 11.9452C14.7547 11.8947 14.626 11.841 14.5706 11.835C14.5183 11.8257 14.5093 11.8257 14.503 11.879C14.4999 11.923 14.4967 11.9674 14.5062 12.0147C14.5183 12.0934 14.5246 12.0712 14.5949 12.0744C14.6471 12.0809 14.6962 12.0869 14.748 12.0837C14.7939 12.0804 14.8061 12.0804 14.8061 12.0332C14.8061 11.9985 14.8182 11.9545 14.7786 11.9447L14.7791 11.9452Z" fill="#17191D"></path>
  </g>
  <defs>
    <clipPath id="clip0_445_103">
      <rect width="18" height="24" fill="white" transform="translate(3)"></rect>
    </clipPath>
  </defs>
</svg>
