<?xml version="1.0" encoding="UTF-8"?>
<svg xmlns="http://www.w3.org/2000/svg" width="24" height="24" viewBox="0 0 24 24" fill="none">
  <g clip-path="url(#clip0_443_193)">
    <path fill-rule="evenodd" clip-rule="evenodd" d="M12 24C5.8839 21.5279 1.5 15.0421 1.5 7.46372C1.5 5.61661 1.76073 3.83438 2.24337 2.15927C3.26004 2.70089 4.59698 3.02936 6.0679 3.02936C9.01536 3.02936 11.5137 1.71092 11.9999 0C12.4859 1.71092 14.9845 3.02936 17.932 3.02936C19.403 3.02936 20.7401 2.70079 21.7564 2.15927C22.2392 3.83428 22.5 5.61651 22.5 7.46372C22.5 15.0421 18.1162 21.5278 12 24H12Z" fill="#36346C"></path>
    <path fill-rule="evenodd" clip-rule="evenodd" d="M12 23.3498C6.16976 20.7792 2.04364 14.5958 2.04364 7.40588C2.04364 5.83215 2.24169 4.30669 2.61166 2.85689C3.58088 3.25005 4.76112 3.48071 6.03911 3.48071C8.81484 3.48071 11.2063 2.39331 11.9998 0.912354C12.7935 2.39341 15.185 3.48071 17.9608 3.48071C19.2386 3.48071 20.4187 3.25005 21.3879 2.85689C21.7663 4.34319 21.9572 5.87152 21.956 7.40588C21.9563 14.5957 17.8303 20.779 11.9999 23.3498H12Z" fill="#CD3529"></path>
    <path fill-rule="evenodd" clip-rule="evenodd" d="M12 22.7541C6.46144 20.0975 2.59329 14.1936 2.59329 7.36502C2.59329 6.03688 2.73967 4.74385 3.01631 3.50285C3.91529 3.79087 4.95731 3.95556 6.07163 3.95556C8.71916 3.95556 11.0271 3.027 11.9997 1.71924C12.9724 3.0271 15.2802 3.95556 17.9281 3.95556C19.0424 3.95556 20.0847 3.79087 20.9834 3.50285C21.2652 4.77066 21.407 6.06586 21.4061 7.36502C21.4064 14.1936 17.5383 20.0975 11.9998 22.7541H12Z" fill="#36346C"></path>
    <path d="M12 22.8252L11.9726 22.812C10.593 22.1502 9.30722 21.2838 8.15105 20.2367C7.00156 19.1957 5.99716 17.9917 5.16577 16.6581C3.44119 13.8919 2.52963 10.6783 2.52963 7.36501C2.52963 6.05685 2.67247 4.75264 2.95422 3.48879L2.96945 3.42045L3.03566 3.44171C3.954 3.73587 5.00387 3.89145 6.07173 3.89145C7.34529 3.89145 8.57966 3.67583 9.64113 3.26793C10.6737 2.87111 11.4717 2.32227 11.9489 1.68085L11.9998 1.6123L12.0508 1.68085C12.528 2.32237 13.326 2.87121 14.3586 3.26793C15.4201 3.67583 16.6544 3.89145 17.9282 3.89145C18.9962 3.89145 20.0461 3.73596 20.9642 3.44171L21.0305 3.42045L21.0458 3.48879C21.3281 4.75907 21.4708 6.06328 21.4701 7.36501C21.4702 10.6783 20.5587 13.8918 18.8341 16.6581C18.0027 17.9917 16.9983 19.1957 15.8489 20.2367C14.6928 21.2838 13.4071 22.1502 12.0275 22.812L12 22.8252ZM3.06346 3.58493C2.7937 4.81832 2.65705 6.08969 2.65705 7.36501C2.65705 13.9376 6.32312 19.9465 12 22.683C17.6769 19.9465 21.3428 13.9376 21.3426 7.36501C21.3434 6.09592 21.2068 4.82455 20.9364 3.58493C20.022 3.86949 18.9836 4.01963 17.9283 4.01963C16.6392 4.01963 15.3891 3.80115 14.3133 3.38771C13.2938 2.99593 12.4961 2.45659 12 1.82436C11.5039 2.45659 10.7062 2.99593 9.68672 3.38771C8.61081 3.80115 7.36082 4.01963 6.07183 4.01963C5.01674 4.01963 3.97826 3.86939 3.06356 3.58493H3.06346Z" fill="#CD3529"></path>
    <path fill-rule="evenodd" clip-rule="evenodd" d="M13.0659 3.26855C13.6714 3.60593 14.3951 3.88119 15.1983 4.07387V19.9088C14.5312 20.484 13.818 21.0028 13.0659 21.4597V3.26855ZM17.3311 4.37049C17.5185 4.3792 17.7081 4.38375 17.8992 4.38375C18.4392 4.38375 18.9631 4.34844 19.4631 4.28197V14.1643C18.9015 15.4228 18.1852 16.6053 17.331 17.6842V4.37049H17.3311ZM10.9336 21.4596C10.1816 21.0025 9.46834 20.4838 8.8011 19.9087V4.07406C9.6043 3.88149 10.328 3.60633 10.9336 3.26885V21.4596ZM6.66863 17.6838C5.81445 16.6048 5.09799 15.422 4.53616 14.1634V4.28187C5.05496 4.35022 5.57759 4.38414 6.10081 4.38365C6.29179 4.38365 6.48129 4.3792 6.66873 4.37039V17.6838H6.66863Z" fill="#CD3529"></path>
    <path fill-rule="evenodd" clip-rule="evenodd" d="M12.1059 6.0874C15.052 6.0874 17.455 8.5067 17.455 11.4728C17.455 14.4388 15.052 16.858 12.1059 16.858C9.15968 16.858 6.75696 14.439 6.75696 11.4728C6.75696 8.5065 9.15988 6.0874 12.1059 6.0874Z" fill="white"></path>
    <path fill-rule="evenodd" clip-rule="evenodd" d="M13.1732 15.7885V15.1313C12.8266 15.2342 12.4672 15.2862 12.1058 15.2859C10.0198 15.2859 8.31835 13.5731 8.31835 11.4729C8.31835 9.37269 10.0198 7.6595 12.1058 7.6595C12.4764 7.6595 12.8345 7.7138 13.1732 7.81429V7.15695C12.8242 7.06921 12.4657 7.0249 12.1058 7.0249C9.67287 7.0249 7.68845 9.02305 7.68845 11.4727C7.68845 13.9224 9.67287 15.9203 12.1058 15.9203C12.4657 15.9205 12.8241 15.8762 13.1732 15.7885Z" fill="#36346C"></path>
    <path fill-rule="evenodd" clip-rule="evenodd" d="M12.5597 8.09644C12.7709 8.12522 12.9761 8.17349 13.1731 8.23985V14.1666C13.5585 14.0109 13.9061 13.7734 14.1921 13.4703V14.152C13.7195 14.5269 13.1559 14.7676 12.5597 14.8491V8.09644ZM10.4878 14.4632C10.3169 14.3688 10.1544 14.2599 10.0021 14.1378V11.7256H9.23551C9.28149 12.2563 9.47256 12.7639 9.78761 13.192H9.18639C8.88175 12.671 8.72143 12.0773 8.72202 11.4728C8.72202 10.1857 9.43719 9.06158 10.4878 8.48218V14.4634H10.4879L10.4878 14.4632ZM10.0021 11.2197V9.49411C9.56186 9.96669 9.2919 10.5744 9.23551 11.2198H10.0021V11.2197ZM12.2767 8.82925V10.1516H11.6277V9.70528H11.6274C11.6258 9.62358 11.5679 9.55761 11.4974 9.55761C11.4268 9.55761 11.3674 9.62556 11.3674 9.70894C11.3674 9.71428 11.3677 9.71962 11.3682 9.72486V10.5215C11.3754 10.5584 11.3864 10.5945 11.4011 10.6291C11.424 10.6849 11.4538 10.7367 11.4851 10.7785L12.1578 11.5776C12.1884 11.619 12.2174 11.6701 12.24 11.7249C12.2607 11.775 12.273 11.8212 12.2769 11.8591V14.3079C12.2427 14.6102 12.0269 14.8473 11.7626 14.8624C11.6789 14.8538 11.5955 14.8419 11.5126 14.8268C11.12 14.6994 10.8116 14.3453 10.752 13.9499V12.6062H11.3846V13.4337C11.3838 13.4422 11.3834 13.4507 11.3834 13.4592C11.3834 13.579 11.4602 13.6766 11.5545 13.6766C11.6488 13.6766 11.7257 13.5789 11.7257 13.4592C11.7257 13.4537 11.7256 13.4485 11.7253 13.4432V12.2395C11.7179 12.203 11.707 12.1673 11.6926 12.1331C11.6774 12.0965 11.6594 12.0611 11.6385 12.0273L10.8547 11.0964C10.8287 11.0575 10.8067 11.0161 10.789 10.9728C10.7701 10.9291 10.7576 10.8828 10.7519 10.8354V8.72688C10.7797 8.49721 10.9123 8.30652 11.0907 8.22294C11.1876 8.19198 11.2864 8.16547 11.3867 8.14342C11.8499 8.09723 12.2267 8.39257 12.2767 8.82935V8.82925ZM14.5754 7.78784C15.7495 8.5887 16.5236 9.94246 16.5236 11.4726C16.5236 13.1632 15.578 14.6387 14.1923 15.3908V14.6522C15.1336 14.0236 15.7818 12.9832 15.8803 11.7899H15.2218V12.8001C15.0659 13.1683 14.8471 13.506 14.5753 13.798V7.78784H14.5754ZM15.8804 11.1551C15.8257 10.4921 15.5985 9.85542 15.2219 9.30885V11.1551H15.8804Z" fill="#36346C"></path>
    <path d="M12.1059 16.5464C11.4275 16.5464 10.7686 16.4119 10.1474 16.1465C9.54773 15.8904 9.00869 15.524 8.5454 15.0576C8.08211 14.5911 7.71823 14.0484 7.46379 13.4446C7.20032 12.8191 7.06671 12.1557 7.06671 11.4727C7.06671 10.7898 7.20032 10.1263 7.46379 9.50079C7.71813 8.89695 8.08211 8.35434 8.5454 7.88779C9.00869 7.42124 9.54773 7.05489 10.1474 6.79881C10.7686 6.53344 11.4275 6.39893 12.1059 6.39893C12.7842 6.39893 13.4432 6.53344 14.0645 6.79881C14.6642 7.05498 15.2031 7.42134 15.6665 7.88779C16.1299 8.35424 16.4938 8.89695 16.7481 9.50079C17.0117 10.1263 17.1453 10.7898 17.1453 11.4727C17.1453 12.1557 17.0117 12.8192 16.7481 13.4447C16.4937 14.0485 16.1298 14.5911 15.6665 15.0576C15.2032 15.524 14.6642 15.8904 14.0645 16.1465C13.4432 16.4118 12.7842 16.5463 12.1059 16.5463V16.5464ZM12.1059 6.61168C9.4437 6.61168 7.27792 8.79241 7.27792 11.4728C7.27792 14.1532 9.4437 16.3338 12.1059 16.3338C14.768 16.3338 16.9341 14.1531 16.9341 11.4728C16.9341 8.79251 14.7681 6.61168 12.1059 6.61168Z" fill="#36346C"></path>
    <path fill-rule="evenodd" clip-rule="evenodd" d="M13.6915 11.2571C13.7182 11.3032 13.7315 11.373 13.7315 11.4662C13.7315 11.5595 13.7187 11.6303 13.6932 11.6733C13.6679 11.7161 13.6268 11.7376 13.5697 11.7376H13.49V11.1875H13.5697C13.6241 11.1876 13.6646 11.2109 13.6915 11.2571ZM13.6189 11.9518C13.7108 11.9518 13.7807 11.9111 13.8286 11.8294C13.8766 11.7478 13.9004 11.6289 13.9004 11.4723C13.9004 11.3157 13.875 11.1863 13.8242 11.1012C13.7733 11.016 13.6997 10.9734 13.6029 10.9734H13.3252V11.9517H13.6189V11.9518ZM13.9683 11.9518V10.9734H14.4016V11.1838H14.1312V11.3401H14.3806V11.5484H14.1312V11.7376H14.4113V11.9518H13.9683Z" fill="#36346C"></path>
  </g>
  <defs>
    <clipPath id="clip0_443_193">
      <rect width="21" height="24" fill="white" transform="translate(1.5)"></rect>
    </clipPath>
  </defs>
</svg>
