<?xml version="1.0" encoding="UTF-8"?>
<svg xmlns="http://www.w3.org/2000/svg" width="24" height="24" viewBox="0 0 24 24" fill="none">
  <g clip-path="url(#clip0_441_84)">
    <path d="M23.927 0.072998H0.0730591V8.93093L12.1727 23.5584L23.9271 8.93093V0.072998H23.927Z" fill="white"></path>
    <path d="M12.1734 23.674L0 8.9572V0H24V8.95662L23.9839 8.97668L12.1733 23.674H12.1734ZM0.146018 8.90468L12.1717 23.4429L23.854 8.90526V0.146018H0.146018V8.90459V8.90468Z" fill="black"></path>
    <path d="M10.3956 19.4823V8.13599H1.1041L10.3956 19.4824V19.4823Z" fill="#CD3529"></path>
    <path d="M13.5672 19.4823V8.13601H22.8587L13.5672 19.4824V19.4823ZM1.08722 0.872559H22.8417V7.30521H1.08722V0.872559Z" fill="black"></path>
    <path d="M3.43925 2.88405H5.90369V1.98951H2.61777V4.60007H5.04564V5.36673H2.61777V6.22479H5.90369V3.65081H3.43925V2.88405ZM11.0151 4.58183V1.98951H7.72916V6.2247H8.56888V4.58173H11.015L11.0151 4.58183ZM8.56897 2.82933H10.2849V3.74211H8.56897V2.82933ZM13.644 3.70553V2.8659H16.0901V1.95312H12.8042V6.18822H13.6439V4.58183H16.09V3.70553H13.6439H13.644ZM18.865 2.8659H21.3111V1.95312H18.0252V6.18822H21.3111V5.27553H18.865V2.86581V2.8659Z" fill="white"></path>
  </g>
  <defs>
    <clipPath id="clip0_441_84">
      <rect width="24" height="23.674" fill="white"></rect>
    </clipPath>
  </defs>
</svg>
