<?xml version="1.0" encoding="UTF-8"?>
<svg xmlns="http://www.w3.org/2000/svg" width="24" height="24" viewBox="0 0 24 24" fill="none">
  <g clip-path="url(#clip0_455_139)">
    <path d="M2 0V19.0934L11.9999 24L22 19.0933V0H2Z" fill="#F2CA44"></path>
    <path d="M2.47531 18.8069V4.85742H21.5248V18.8067L11.9999 23.4802L2.47531 18.8069Z" fill="#008ED1"></path>
    <path d="M21.5247 18.8067V16.7605L8.1839 4.85742H2.47531V9.81573L15.7357 21.6471L21.5248 18.8067H21.5247Z" fill="white"></path>
    <path d="M15.4917 0.464844H21.5248V4.39261H15.4917V0.464844Z" fill="#CD3529"></path>
    <path d="M8.98351 0.464844H15.0164V4.39261H8.98351V0.464844Z" fill="white"></path>
    <path d="M2.47531 0.464844H8.5083V4.39261H2.47531V0.464844Z" fill="#CD3529"></path>
    <path d="M10.2786 8.49654V9.38191H8.99097V8.5555C8.99097 8.39812 8.97084 8.29971 8.91046 8.26034C8.85008 8.20129 8.76957 8.16202 8.6489 8.16202C8.42759 8.16202 8.30683 8.28012 8.30683 8.51613V8.69318C8.30683 8.7916 8.34708 8.88992 8.40747 8.96866C8.50801 9.08666 8.8702 9.42118 9.51409 9.97203C9.81591 10.2475 10.0171 10.4639 10.1378 10.641C10.2584 10.7984 10.3188 11.0541 10.3188 11.369C10.3188 12.1953 10.1176 12.5692 9.57448 12.8447C9.31291 12.9627 8.97084 13.0414 8.58861 13.0414C8.00511 13.0414 7.52234 12.8643 7.24065 12.5692C7.09986 12.3921 6.99922 12.0379 6.99922 11.7429V10.7591H8.30693V11.7429C8.30693 11.9987 8.42769 12.1167 8.62887 12.1167C8.89043 12.1167 8.97094 12.038 8.97094 11.6445V11.4674C8.97094 11.3887 8.97094 11.3297 8.93069 11.2707C8.89043 11.1723 8.74964 11.0346 8.5082 10.8181L7.60285 10.0114C7.03947 9.49982 6.95906 9.2834 6.95906 8.79151C6.95906 8.10287 7.18037 7.74867 7.68336 7.49297C7.92479 7.37497 8.26687 7.31592 8.68935 7.31592C9.77575 7.31592 10.2787 7.78803 10.2787 8.49635L10.2786 8.49654ZM14.5331 12.5511V13.2201H13.2253V12.5905C13.2253 12.3938 13.2052 12.2561 13.1851 12.197C13.1247 12.0789 13.0241 12.0199 12.8833 12.0199C12.682 12.0199 12.5613 12.1576 12.5613 12.5118V15.5811C12.5613 15.8566 12.7021 15.9943 12.9034 15.9943C13.1047 15.9943 13.2252 15.8763 13.2252 15.6008V14.617H14.533V15.4041C14.533 16.4076 13.9294 16.8995 12.8833 16.8995C12.3199 16.8995 11.8974 16.742 11.5957 16.4469C11.3542 16.1911 11.2336 15.778 11.2336 15.227V12.807C11.2336 12.2364 11.3945 11.8232 11.6561 11.5871C11.7768 11.4494 11.9378 11.3707 12.0987 11.3117C12.3401 11.2133 12.6217 11.174 12.9638 11.174C13.7686 11.174 14.1911 11.4298 14.3922 11.8429C14.4929 12.0593 14.5331 12.2954 14.5331 12.5512V12.5511Z" fill="#008ED1"></path>
  </g>
  <defs>
    <clipPath id="clip0_455_139">
      <rect width="20" height="24" fill="white" transform="translate(2)"></rect>
    </clipPath>
  </defs>
</svg>
