<?xml version="1.0" encoding="UTF-8"?>
<svg xmlns="http://www.w3.org/2000/svg" width="24" height="24" viewBox="0 0 24 24" fill="none">
  <g clip-path="url(#clip0_457_178)">
    <path d="M24 12C24 18.6272 18.6272 24 12 24C5.3728 24 0 18.6272 0 12C0 5.3728 5.3728 0 12 0C18.6272 0 24 5.3728 24 12Z" fill="black"></path>
    <path d="M7.7344 7.38075H5.824V6.66075C5.824 6.32475 5.7992 6.11115 5.7504 6.01915C5.7016 5.92715 5.62 5.88155 5.5064 5.88155C5.3824 5.88155 5.288 5.94315 5.2232 6.06715C5.1616 6.19115 5.1304 6.37915 5.1304 6.63115C5.1304 6.95515 5.1664 7.19915 5.2376 7.36315C5.3056 7.52715 5.5 7.72475 5.8192 7.95675C6.7344 8.62475 7.3112 9.17275 7.5488 9.59995C7.7864 10.0279 7.9056 10.7175 7.9056 11.6695C7.9056 12.3615 7.8392 12.8711 7.7056 13.1991C7.5752 13.5271 7.3216 13.8031 6.9432 14.0271C6.5656 14.2471 6.1256 14.3567 5.624 14.3567C5.0736 14.3567 4.6032 14.2287 4.212 13.9727C3.8248 13.7167 3.5704 13.3911 3.4496 12.9951C3.3288 12.5991 3.2688 12.0375 3.2688 11.3095V10.6735H5.1792V11.8551C5.1792 12.2191 5.2056 12.4527 5.2576 12.5567C5.3128 12.6607 5.4088 12.7127 5.5456 12.7127C5.6824 12.7127 5.7832 12.6471 5.8488 12.5151C5.9168 12.3831 5.9512 12.1871 5.9512 11.9271C5.9512 11.3551 5.888 10.9815 5.7608 10.8055C5.6304 10.6295 5.3096 10.3359 4.7984 9.92395C4.2872 9.50795 3.948 9.20635 3.7824 9.01835C3.616 8.83035 3.4776 8.57035 3.3672 8.23835C3.26 7.90635 3.2056 7.48235 3.2056 6.96635C3.2056 6.22235 3.2824 5.67835 3.4352 5.33515C3.5912 4.99115 3.8424 4.72315 4.188 4.53115C4.5336 4.33515 4.9504 4.23755 5.4384 4.23755C5.9728 4.23755 6.4272 4.34315 6.8016 4.55515C7.1792 4.76715 7.4288 5.03515 7.5488 5.35915C7.6728 5.67915 7.7344 6.22475 7.7344 6.99675V7.38075Z" fill="black"></path>
    <path d="M9.2464 6.77686H11.2984C11.9464 6.77686 12.4368 6.83846 12.7688 6.96246C13.104 7.08646 13.3744 7.33846 13.58 7.71846C13.7856 8.09446 13.888 8.70246 13.888 9.54166C13.888 10.1097 13.8144 10.5057 13.668 10.7297C13.5248 10.9537 13.24 11.1257 12.8128 11.2457C13.288 11.3777 13.6112 11.5977 13.78 11.9057C13.9496 12.2097 14.0344 12.6777 14.0344 13.3089V14.2089C14.0344 14.8649 13.9728 15.3505 13.8488 15.6665C13.728 15.9825 13.5344 16.1985 13.2672 16.3145C13 16.4305 12.4528 16.4881 11.6256 16.4881H9.2464V6.77686ZM11.3032 8.43846V10.5977C11.3912 10.5937 11.4592 10.5921 11.508 10.5921C11.7096 10.5921 11.8384 10.5321 11.8936 10.4121C11.9488 10.2881 11.9768 9.93846 11.9768 9.36246C11.9768 9.05846 11.9544 8.84646 11.9088 8.72646C11.8632 8.60246 11.8032 8.52486 11.728 8.49286C11.656 8.46086 11.5144 8.44326 11.3032 8.43926V8.43846ZM11.3032 12.1097V14.8273C11.5928 14.8153 11.7768 14.7593 11.8552 14.6593C11.9368 14.5593 11.9776 14.3137 11.9776 13.9217V13.0161C11.9776 12.6001 11.9416 12.3481 11.8704 12.2601C11.7984 12.1721 11.6096 12.1225 11.304 12.1105L11.3032 12.1097Z" fill="black"></path>
    <path d="M18.7912 10.5959L19.9688 20.3071H17.8632L17.7608 18.5615H17.0232L16.9008 20.3071H14.7704L15.816 10.5959H18.7912ZM17.7016 16.8399C17.5976 15.7399 17.4928 14.3823 17.3888 12.7671C17.18 14.6223 17.0504 15.9799 16.9976 16.8399H17.7008H17.7016Z" fill="black"></path>
    <path d="M8.69359 21.1768L7.95679 20.7792L7.21039 21.1576L7.36239 20.3376L6.76959 19.748L7.59999 19.6384L7.98079 18.896L8.34159 19.648L9.16959 19.7784L8.56239 20.3528L8.69359 21.176V21.1768Z" fill="black"></path>
    <path d="M11.94 22.5015L11.2032 22.1039L10.4568 22.4823L10.6088 21.6623L10.016 21.0727L10.8464 20.9631L11.2272 20.2207L11.588 20.9727L12.416 21.1031L11.8088 21.6775L11.94 22.5007V22.5015Z" fill="black"></path>
    <path d="M6.1624 18.9937L5.4256 18.5961L4.6792 18.9745L4.8312 18.1545L4.2384 17.5649L5.0688 17.4553L5.4496 16.7129L5.8104 17.4649L6.6384 17.5953L6.0312 18.1697L6.1624 18.9929V18.9937Z" fill="black"></path>
    <path d="M17.744 5.45609L17.0072 5.05849L16.2608 5.43689L16.4128 4.61689L15.82 4.02729L16.6504 3.91769L17.0312 3.17529L17.392 3.92729L18.22 4.05769L17.6128 4.63209L17.744 5.45529V5.45609Z" fill="black"></path>
    <path d="M20.3568 7.42411L19.62 7.02651L18.8736 7.40491L19.0256 6.58491L18.4328 5.99531L19.2632 5.88571L19.644 5.14331L20.0048 5.89531L20.8328 6.02571L20.2256 6.60011L20.3568 7.42331V7.42411Z" fill="black"></path>
    <path d="M14.5688 3.92631L13.832 3.52871L13.0856 3.90711L13.2376 3.08711L12.6448 2.49751L13.4752 2.38791L13.856 1.64551L14.2168 2.39751L15.0448 2.52791L14.4376 3.10231L14.5688 3.92551V3.92631Z" fill="black"></path>
    <path d="M22.5888 12.0001C22.5888 17.8481 17.848 22.5881 12.0008 22.5881C6.1536 22.5881 1.412 17.8481 1.412 12.0001C1.412 6.15211 6.152 1.41211 12 1.41211C17.848 1.41211 22.588 6.15291 22.588 12.0001H22.5888Z" fill="#FFADCC"></path>
    <path d="M13.6392 2.86475L13.3032 3.51995L12.5704 3.61675L13.0928 4.13675L12.9584 4.85995L13.6168 4.52635L14.2672 4.87675L14.1512 4.15035L14.6872 3.64395L13.9568 3.52875L13.6384 2.86555L13.6392 2.86475ZM16.4416 4.21435L16.1056 4.86955L15.3728 4.96555L15.896 5.48555L15.7616 6.20875L16.42 5.87515L17.0704 6.22555L16.9544 5.49915L17.4904 4.99275L16.76 4.87755L16.4416 4.21435ZM6.21201 5.15115C5.78081 5.15115 5.41281 5.23755 5.10801 5.41035C4.80321 5.57995 4.58241 5.81595 4.44401 6.11995C4.30881 6.42315 4.24161 6.90315 4.24161 7.55995C4.24161 8.01515 4.28881 8.38875 4.38401 8.68155C4.48161 8.97435 4.60401 9.20395 4.75041 9.36955C4.89681 9.53515 5.19601 9.80155 5.64721 10.1687C6.09841 10.5319 6.38161 10.7911 6.49681 10.9463C6.60881 11.1015 6.66481 11.4319 6.66481 11.9359C6.66481 12.1655 6.63441 12.3383 6.57441 12.4543C6.51681 12.5711 6.42801 12.6287 6.30721 12.6287C6.18641 12.6287 6.10161 12.5831 6.05281 12.4911C6.00721 12.3991 5.98401 12.1927 5.98401 11.8719V10.8295H4.29841V11.3903C4.29841 12.0327 4.35121 12.5279 4.45761 12.8775C4.56401 13.2271 4.78801 13.5143 5.13041 13.7399C5.47521 13.9655 5.89041 14.0783 6.37601 14.0783C6.81841 14.0783 7.20641 13.9815 7.54001 13.7871C7.87361 13.5895 8.09761 13.3463 8.21281 13.0567C8.33041 12.7671 8.38961 12.3175 8.38961 11.7071C8.38961 10.8671 8.28481 10.2591 8.07521 9.88155C7.86561 9.50395 7.35681 9.02075 6.54881 8.43115C6.26721 8.22635 6.09601 8.05195 6.03601 7.90715C5.97281 7.76235 5.94081 7.54715 5.94081 7.26155C5.94081 7.03915 5.96801 6.87355 6.02241 6.76395C6.08001 6.65435 6.16321 6.59995 6.27281 6.59995C6.37361 6.59995 6.44561 6.64075 6.48881 6.72155C6.53201 6.80235 6.55361 6.99115 6.55361 7.28795V7.92315H8.23921V7.58475C8.23921 6.90395 8.18481 6.42235 8.07521 6.13995C7.96881 5.85435 7.74881 5.61755 7.41521 5.43035C7.08481 5.24315 6.68401 5.14955 6.21281 5.14955L6.21201 5.15115ZM18.7472 5.95115L18.4112 6.60635L17.6784 6.70315L18.2016 7.22315L18.0672 7.94635L18.7256 7.61275L19.376 7.96315L19.26 7.23675L19.796 6.73035L19.0656 6.61515L18.7472 5.95115ZM9.57201 7.39195V15.9607H11.6712C12.4008 15.9607 12.884 15.9095 13.12 15.8071C13.356 15.7047 13.5264 15.5143 13.6328 15.2351C13.7424 14.9567 13.7968 14.5279 13.7968 13.9487V13.1543C13.7968 12.5967 13.7224 12.1839 13.5728 11.9159C13.4232 11.6439 13.1384 11.4503 12.7192 11.3335C13.096 11.2279 13.3472 11.0759 13.4736 10.8783C13.6032 10.6807 13.6672 10.3311 13.6672 9.83035C13.6672 9.08955 13.5768 8.55275 13.396 8.22155C13.2152 7.88635 12.976 7.66395 12.68 7.55435C12.3872 7.44475 11.9544 7.39035 11.3824 7.39035H9.57201V7.39195ZM11.3872 8.85835C11.5744 8.86155 11.6992 8.87755 11.7624 8.90635C11.8288 8.93435 11.8816 9.00315 11.9216 9.11275C11.9616 9.21835 11.9824 9.40555 11.9824 9.67355C11.9824 10.1815 11.9576 10.4903 11.9088 10.5999C11.86 10.7055 11.7464 10.7591 11.568 10.7591C11.5248 10.7591 11.4648 10.7607 11.3872 10.7639V8.85835ZM15.3696 10.7623L14.4472 19.3311H16.3264L16.4344 17.7911H17.0856L17.176 19.3311H19.0344L17.9952 10.7623H15.3696ZM11.3872 12.0975C11.6576 12.1079 11.824 12.1519 11.8872 12.2295C11.9504 12.3071 11.9824 12.5295 11.9824 12.8967V13.6959C11.9824 14.0415 11.9464 14.2583 11.8744 14.3471C11.8056 14.4351 11.6432 14.4847 11.3872 14.4951V12.0975ZM16.7576 12.6783C16.8496 14.1039 16.9416 15.3015 17.0336 16.2719H16.4128C16.4584 15.5135 16.5736 14.3151 16.7576 12.6783ZM6.22241 16.1599L5.88641 16.8151L5.15361 16.9119L5.67681 17.4319L5.54241 18.1551L6.20081 17.8215L6.85121 18.1719L6.73521 17.4455L7.27121 16.9391L6.54081 16.8239L6.22241 16.1599ZM8.45601 18.0871L8.12001 18.7423L7.38721 18.8391L7.91041 19.3591L7.77601 20.0823L8.43521 19.7487L9.08561 20.0991L8.96961 19.3727L9.50561 18.8663L8.77521 18.7511L8.45681 18.0871H8.45601ZM11.3208 19.2551L10.9848 19.9103L10.252 20.0071L10.7752 20.5271L10.6408 21.2503L11.3 20.9167L11.9496 21.2671L11.8336 20.5407L12.3696 20.0343L11.6392 19.9191L11.3208 19.2551Z" fill="black"></path>
  </g>
  <defs>
    <clipPath id="clip0_457_178">
      <rect width="24" height="24" fill="white"></rect>
    </clipPath>
  </defs>
</svg>
