<?xml version="1.0" encoding="UTF-8"?>
<svg xmlns="http://www.w3.org/2000/svg" width="24" height="24" viewBox="0 0 24 24" fill="none">
  <g clip-path="url(#clip0_454_124)">
    <path fill-rule="evenodd" clip-rule="evenodd" d="M12.0003 1.49966C6.22424 1.49966 1.50018 6.22424 1.50018 11.9997C1.50018 17.7752 6.22424 22.4998 12.0003 22.4998C17.7763 22.4998 22.4988 17.7752 22.4988 11.9997C22.4988 6.22424 17.7742 1.49966 12.0003 1.49966ZM6.00126 15.0006C6.00126 18.2998 8.69975 20.9996 12.0003 20.9996C15.3008 20.9996 17.9993 18.2996 17.9993 15.0006V4.94911H14.9994V15.4497C14.9994 17.0997 13.6503 18.4501 12.0001 18.4501C10.3499 18.4501 9.00024 17.0999 9.00024 15.4497V4.94911H6.00091V15.0005L6.00126 15.0006ZM12.0003 0C18.5995 0 24 5.39889 24 11.9997C24 18.6006 18.5995 24 12.0003 24C5.40098 24 0 18.6006 0 11.9997C0 5.39889 5.39889 0 12.0003 0Z" fill="#A61B20"></path>
    <path fill-rule="evenodd" clip-rule="evenodd" d="M12.0003 20.9999C15.2989 20.9999 17.9993 18.2993 17.9993 15.0004V4.94938H14.9994V15.45C14.9994 17.0995 13.6503 18.4498 12.0001 18.4498C10.3499 18.4498 9.00024 17.0996 9.00024 15.45V4.94938H6.00091V15.0002C6.00091 18.2993 8.6994 20.9997 11.9999 20.9997M11.9999 1.49976C17.7739 1.49976 22.4984 6.22433 22.4984 11.9998C22.4984 17.7753 17.7739 22.4999 11.9999 22.4999C6.22597 22.4999 1.50018 17.7753 1.50018 11.9998C1.50018 6.22433 6.22424 1.49976 12.0003 1.49976" fill="#FFFCEC"></path>
  </g>
  <defs>
    <clipPath id="clip0_454_124">
      <rect width="24" height="24" fill="white"></rect>
    </clipPath>
  </defs>
</svg>
