<svg width="181" height="28" viewBox="0 0 181 28" fill="none" xmlns="http://www.w3.org/2000/svg">
<path d="M72.9984 1.62499C73.1814 1.86999 73.2753 2.16999 73.2753 2.47499V7.18499L67.064 0.354995H64.3292L70.7482 7.41499H70.2685L63.8495 0.354995H61.8268L62.7566 1.62499C62.9346 1.86999 63.0335 2.16999 63.0335 2.47499V12.35C63.0335 12.655 62.9346 12.955 62.7566 13.2L61.8268 14.47H65.6001L64.6704 13.2C64.4874 12.955 64.3935 12.655 64.3935 12.35V3.96499L73.943 14.465H74.6353V2.47499C74.6353 2.16999 74.7342 1.86999 74.9122 1.62499L75.842 0.354995H72.0687L72.9984 1.62499ZM49.2953 11.995L50.7245 14.47L52.1537 11.995L50.7245 9.51999L49.2953 11.995ZM53.0389 14.47H60.3679L58.8349 12.715L54.2011 0.349995H52.0746L54.7154 7.40999H54.3396L51.6987 0.349995H49.5772L50.0322 1.55999L45.8978 12.58C45.7248 13.04 45.5517 13.285 45.4478 13.405L44.3846 14.46H48.3211L47.2084 13.355C47.0996 13.245 47.1342 13.12 47.1441 13.085L50.7641 3.49499L54.0873 12.36C54.1566 12.59 54.211 13.01 53.9093 13.385C53.4642 13.935 53.0389 14.46 53.0389 14.46V14.47ZM4.91568 11.995L6.34489 14.47L7.7741 11.995L6.34489 9.52499L4.91568 11.995ZM9.82148 0.349995H7.69497L10.3358 7.40499H9.95994L7.31913 0.349995H5.20251L5.65749 1.55999L1.51328 12.585C1.34019 13.045 1.1671 13.29 1.06325 13.41L0 14.465H3.9365L2.8238 13.36C2.715 13.25 2.74962 13.12 2.75951 13.09L6.37951 3.49999L9.70279 12.365C9.77202 12.595 9.82642 13.015 9.52475 13.39C9.07967 13.94 8.65437 14.465 8.65437 14.465H15.9834L14.4503 12.71L9.82148 0.349995ZM40.6755 13.1H36.9962V2.48499C36.9962 2.17999 37.0951 1.87999 37.2731 1.62999L38.2029 0.354995H34.8648V7.41499H34.5136V0.354995H31.1755L32.125 1.57999C32.2981 1.80499 32.3921 2.08499 32.3921 2.36999V12.45C32.3921 12.735 32.2981 13.015 32.125 13.24L31.1755 14.465H42.7971L42.9999 11.345C42.9999 11.345 42.5597 11.79 41.5756 12.65C41.2344 12.91 41.2047 13.105 40.6805 13.105L40.6755 13.1ZM99.6291 1.62499L100.559 0.349995H97.2207V7.41499H96.8696V0.349995H93.5315L94.4612 1.62499C94.6442 1.86999 94.7382 2.16999 94.7382 2.47999V12.34C94.7382 12.645 94.6393 12.945 94.4612 13.195L93.5315 14.47H100.559L99.6291 13.195C99.4461 12.95 99.3522 12.65 99.3522 12.34V2.47999C99.3522 2.17499 99.4511 1.87499 99.6291 1.62499ZM84.8573 0.349995V7.41499H84.5062V0.349995H77.8102L77.6075 3.46999C77.6075 3.46999 78.0476 3.02499 79.0317 2.16999C79.3729 1.90999 79.4026 1.71499 79.9268 1.71499H82.3748V12.335C82.3748 12.64 82.2759 12.94 82.0978 13.19L81.1681 14.465H88.1955L87.2657 13.19C87.0877 12.945 86.9888 12.645 86.9888 12.335V1.71999H89.4318C89.956 1.71999 89.9857 1.91499 90.3319 2.17499C91.311 3.02999 91.7561 3.47499 91.7561 3.47499L91.5534 0.354995H84.8573V0.349995ZM113.768 13.175C113.624 13.31 113.456 13.395 113.278 13.425C112.957 13.48 112.621 13.505 112.279 13.505C111.097 13.505 110.222 12.955 109.352 11.67C108.526 10.45 108.105 9.01499 108.105 7.41499C108.105 5.81499 108.501 4.32499 109.292 3.10999C110.118 1.82999 110.994 1.28999 112.225 1.28999C112.546 1.28999 112.858 1.33499 113.155 1.42499C113.288 1.46999 115.172 3.02999 116.404 4.06499L116.478 4.12499L116.419 0.949995L116.399 0.934995C115.993 0.704995 115.36 0.494995 114.525 0.299995C113.748 0.119995 112.977 0.0299945 112.215 0.0149945C106.775 0.239995 106.152 6.55499 106.093 7.41999H105.737C105.781 6.74499 106.211 2.07499 109.594 0.314995C109.362 0.374995 109.129 0.444994 108.907 0.519994C107.918 0.859995 107.032 1.34999 106.266 1.97999C105.499 2.60999 104.876 3.42999 104.411 4.42499C103.951 5.41999 103.714 6.53499 103.714 7.73999C103.714 8.70999 103.867 9.59999 104.174 10.4C104.481 11.2 104.886 11.875 105.386 12.41C105.885 12.94 106.464 13.4 107.116 13.775C107.769 14.15 108.442 14.42 109.129 14.585C109.812 14.75 110.504 14.835 111.181 14.835C112.175 14.835 113.155 14.735 114.089 14.535C115.019 14.335 115.786 14.085 116.364 13.79L116.384 13.78L116.567 10.59L113.773 13.185L113.768 13.175ZM22.5162 0.349995V7.40999H22.1651V0.349995H15.4691L15.2663 3.46999C15.2663 3.46999 15.7114 3.02499 16.6906 2.16999C17.0318 1.90999 17.0615 1.71499 17.5857 1.71499H20.0287V12.335C20.0287 12.64 19.9298 12.94 19.7517 13.19L18.822 14.465H25.8494L24.9196 13.19C24.7416 12.945 24.6427 12.645 24.6427 12.335V1.71999H27.0857C27.6149 1.71999 27.6396 1.91499 27.9858 2.17499C28.9649 3.02999 29.41 3.47499 29.41 3.47499L29.2073 0.354995H22.5113L22.5162 0.349995ZM148.499 2.48499V12.345C148.499 12.65 148.598 12.95 148.776 13.2L149.706 14.475H142.678L143.608 13.2C143.786 12.955 143.885 12.655 143.885 12.345V2.48499C143.885 2.17999 143.786 1.87999 143.608 1.62999L142.678 0.354995H146.017V7.41499H146.368V0.359995H149.706L148.776 1.63499C148.598 1.87999 148.499 2.17999 148.499 2.48999V2.48499ZM158.726 0.359995V7.41999H158.375V0.359995H151.679L151.476 3.47999C151.476 3.47999 151.921 3.03499 152.9 2.17999C153.247 1.91999 153.271 1.72499 153.801 1.72499H156.244V12.345C156.244 12.65 156.145 12.95 155.967 13.2L155.037 14.475H162.064L161.134 13.2C160.956 12.955 160.858 12.655 160.858 12.345V1.72499H163.301C163.825 1.72499 163.854 1.91999 164.201 2.17999C165.18 3.03499 165.625 3.47999 165.625 3.47999L165.422 0.359995H158.726ZM176.49 12.35V7.30499L181 0.359995H177.029L178.181 1.54999C178.349 1.73999 178.374 2.01999 178.236 2.23499L175.347 6.68499L172.306 2.35999C172.138 2.11499 172.128 1.78999 172.286 1.53499L173.018 0.359995H169.042L174.017 7.41999H173.582L168.607 0.359995H166.747L171.881 7.64499V12.35C171.881 12.655 171.782 12.955 171.604 13.205L170.674 14.48H177.701L176.772 13.205C176.589 12.96 176.495 12.66 176.495 12.35H176.49ZM136.541 13.17C136.398 13.305 136.23 13.39 136.052 13.42C135.73 13.475 135.394 13.5 135.053 13.5C133.871 13.5 132.995 12.95 132.125 11.665C131.299 10.445 130.879 9.00999 130.879 7.40999C130.879 5.80999 131.279 4.31999 132.061 3.10499C132.887 1.82499 133.762 1.28499 134.993 1.28499C135.315 1.28499 135.626 1.32999 135.923 1.41999C136.057 1.46499 137.941 3.02499 139.172 4.05999L139.246 4.11999L139.187 0.944995L139.162 0.929995C138.757 0.699995 138.124 0.489994 137.288 0.294995C136.512 0.114994 135.74 0.0249945 134.979 0.00999451C129.539 0.234995 128.916 6.54999 128.856 7.41499H128.5C128.545 6.73999 128.975 2.06999 132.357 0.309995C132.125 0.369995 131.893 0.439994 131.67 0.514995C130.686 0.854995 129.796 1.34499 129.029 1.97499C128.263 2.60499 127.64 3.42499 127.18 4.41999C126.72 5.41499 126.482 6.52999 126.482 7.73499C126.482 8.69999 126.636 9.59499 126.942 10.395C127.249 11.195 127.654 11.87 128.154 12.405C128.653 12.935 129.232 13.395 129.885 13.77C130.538 14.145 131.21 14.415 131.898 14.58C132.58 14.745 133.267 14.83 133.95 14.83C134.944 14.83 135.923 14.73 136.858 14.53C137.787 14.33 138.554 14.08 139.133 13.785L139.157 13.775L139.335 10.585L136.541 13.18V13.17Z" fill="#4FC1A7"/>
<path d="M71.7719 27.985C70.5752 27.985 69.6801 27.635 68.8393 26.77L69.4377 26.19C70.1944 26.895 70.8669 27.11 71.8906 27.11C72.5434 27.11 73.7056 26.9 73.7056 26.045C73.7056 25.75 73.5572 25.53 73.3149 25.37C73.0083 25.17 72.7165 25.155 71.8511 25.14L70.9708 25.125C70.0608 25.11 69.2251 24.625 69.2251 23.605C69.2251 22.74 69.9422 22.155 70.6889 21.91C71.0202 21.805 71.3664 21.76 71.7027 21.76C72.583 21.76 73.4336 22.03 74.1408 22.57L73.6611 23.26C73.0231 22.86 72.578 22.64 71.8164 22.64C71.2428 22.64 70.0955 22.82 70.0955 23.595C70.0955 24.175 70.6246 24.28 71.0845 24.28H71.9549C72.6077 24.28 73.1418 24.29 73.7204 24.635C74.2446 24.955 74.5463 25.495 74.5463 26.115C74.5463 27.555 72.9193 27.985 71.7719 27.985Z" fill="#4FC1A7"/>
<path d="M80.1889 21.91H76.7865V27.84H77.6421V25.32H80.1889C81.2176 25.32 81.9 24.655 81.9 23.605C81.9 22.555 81.2225 21.91 80.1889 21.91ZM80.1889 24.445H77.6421V22.775H80.1889C80.7577 22.775 81.0544 23.015 81.0544 23.605C81.0544 24.195 80.7428 24.45 80.1889 24.45V24.445Z" fill="#4FC1A7"/>
<path d="M86.9097 21.75C85.2283 21.75 83.7496 23.06 83.7496 24.8C83.7496 26.54 85.1244 27.995 86.8998 27.995C88.6752 27.995 90.0599 26.645 90.0599 24.895C90.0599 23.145 88.6455 21.745 86.9097 21.745V21.75ZM86.9097 27.125C85.6832 27.125 84.5903 26.185 84.5903 24.905C84.5903 23.625 85.5992 22.62 86.8998 22.62C88.2004 22.62 89.2093 23.545 89.2093 24.845C89.2093 26.145 88.1658 27.12 86.9047 27.12L86.9097 27.125Z" fill="#4FC1A7"/>
<path d="M97.8735 23.66C97.8735 22.53 97.0971 21.91 96.0289 21.91H92.5523V27.84H93.4079V25.385H95.5937L96.7707 27.84H97.74L96.5185 25.35C97.3691 25.145 97.8686 24.555 97.8686 23.655L97.8735 23.66ZM93.4079 24.52V22.77H96.024C96.5828 22.77 97.0229 22.995 97.0229 23.615C97.0229 24.235 96.6075 24.52 96.024 24.52H93.4079Z" fill="#4FC1A7"/>
<path d="M102.339 22.775V27.84H101.508V22.775H99.4165V21.91H104.406V22.775H102.339Z" fill="#4FC1A7"/>
<path d="M108.758 27.985C107.561 27.985 106.666 27.635 105.826 26.77L106.424 26.19C107.181 26.895 107.853 27.11 108.877 27.11C109.53 27.11 110.692 26.9 110.692 26.045C110.692 25.75 110.544 25.53 110.301 25.37C109.995 25.17 109.703 25.155 108.837 25.14L107.957 25.125C107.042 25.11 106.211 24.625 106.211 23.605C106.211 22.74 106.924 22.155 107.67 21.91C108.002 21.805 108.348 21.76 108.684 21.76C109.564 21.76 110.415 22.03 111.122 22.57L110.642 23.26C110.004 22.86 109.559 22.64 108.793 22.64C108.219 22.64 107.072 22.82 107.072 23.595C107.072 24.175 107.596 24.28 108.061 24.28H108.931C109.584 24.28 110.118 24.29 110.702 24.635C111.226 24.955 111.528 25.495 111.528 26.115C111.528 27.555 109.901 27.985 108.753 27.985" fill="#4FC1A7"/>
<path d="M58.0881 22.235L53.667 24.815L58.0881 27.395L62.5142 24.815L58.0881 22.235Z" fill="#4FC1A7"/>
<path d="M57.0892 25.32C57.0892 25.645 57.5837 25.755 57.831 25.755C58.1129 25.755 58.2513 25.71 58.5036 25.585L57.7914 24.82C57.5442 24.89 57.0892 24.98 57.0892 25.32Z" fill="#4FC1A7"/>
<path d="M121.913 22.235L117.492 24.815L121.913 27.395L126.339 24.815L121.913 22.235Z" fill="#4FC1A7"/>
<path d="M120.914 25.32C120.914 25.645 121.408 25.755 121.656 25.755C121.938 25.755 122.076 25.71 122.328 25.585L121.616 24.82C121.369 24.89 120.914 24.98 120.914 25.32Z" fill="#4FC1A7"/>
</svg>
