<?xml version="1.0" standalone="no"?>
<!DOCTYPE svg PUBLIC "-//W3C//DTD SVG 20010904//EN"
 "http://www.w3.org/TR/2001/REC-SVG-20010904/DTD/svg10.dtd">
<svg version="1.0" xmlns="http://www.w3.org/2000/svg"
 width="120.000000pt" height="120.000000pt" viewBox="0 0 120.000000 120.000000"
 preserveAspectRatio="xMidYMid meet">
<metadata>
Created by potrace 1.14, written by Peter Selinger 2001-2017
</metadata>
<g transform="translate(0.000000,120.000000) scale(0.100000,-0.100000)"
fill="#000000" stroke="none">
<path d="M0 600 l0 -600 600 0 600 0 0 600 0 600 -600 0 -600 0 0 -600z m634
195 c37 -102 73 -185 78 -185 6 0 7 8 3 18 -28 71 -125 337 -125 343 0 5 24 9
53 9 l54 0 119 -322 c102 -276 125 -331 162 -375 l42 -53 -190 0 c-104 0 -190
1 -190 3 0 2 11 18 25 37 14 19 25 42 25 53 0 17 -151 432 -169 465 -6 11 -14
1 -29 -39 -11 -30 -52 -139 -91 -243 -39 -104 -71 -196 -71 -204 0 -9 12 -29
27 -44 l27 -28 -104 0 -104 0 37 38 c31 32 53 80 150 342 109 291 114 306 101
338 l-13 32 57 0 58 0 68 -185z m-80 -372 l36 -61 -39 -67 -38 -67 -37 66 -37
67 36 65 c20 36 38 64 40 62 2 -2 19 -31 39 -65z"/>
</g>
</svg>
