<svg width="24" height="29" viewBox="0 0 24 29" fill="none" xmlns="http://www.w3.org/2000/svg">
<path d="M11.9998 0.0292969C9.14205 0.0292969 3.87248 0.768644 1.189 2.32913C-2.34416 14.8554 2.46093 23.3736 11.9998 28.2084C21.5387 23.3736 26.3438 14.8133 22.8106 2.32927C20.1243 0.768645 14.8575 0.0292969 11.9998 0.0292969Z" fill="#9C824A"/>
<path fill-rule="evenodd" clip-rule="evenodd" d="M6.52375 0.565247C8.53536 0.185055 10.569 0 12 0C13.4309 0 15.4639 0.185056 17.4751 0.565266C19.4858 0.945366 21.478 1.5211 22.8256 2.30397L22.8359 2.30996L22.8392 2.32143C24.6072 8.56861 24.2897 13.8371 22.3343 18.1496C20.3789 22.4621 16.7872 25.8152 12.0133 28.2348L12 28.2416L11.9867 28.2348C7.2128 25.8152 3.62113 22.4727 1.66572 18.1654C-0.289742 13.8581 -0.607225 8.58961 1.16081 2.32131L1.16405 2.30982L1.17436 2.30382C2.5205 1.52102 4.51273 0.945328 6.52375 0.565247ZM1.21432 2.34881C-0.547184 8.60175 -0.227902 13.8517 1.71941 18.1411C3.66616 22.4292 7.24161 25.7609 12 28.1755C16.7583 25.7609 20.3338 22.4187 22.2806 18.1253C24.2279 13.8307 24.5472 8.58075 22.7857 2.34897C21.447 1.57424 19.4678 1.00196 17.4642 0.6232C15.456 0.243579 13.4268 0.0589604 12 0.0589604C10.5732 0.0589604 8.54319 0.243579 6.5347 0.623181C4.53079 1.00192 2.55153 1.57416 1.21432 2.34881Z" fill="#9C824A"/>
<path d="M12.0003 0.834763C9.19273 0.834763 6.03154 1.19388 1.89137 2.88373C-1.1907 13.8179 2.38484 22.5816 12.0003 27.3582C21.6158 22.5816 25.1886 13.8178 22.1065 2.88373C17.9663 1.19388 14.8078 0.834763 12.0002 0.834763H12.0003Z" fill="#023474"/>
<path fill-rule="evenodd" clip-rule="evenodd" d="M11.9994 0.805527C9.18865 0.805533 6.02362 1.16519 1.87944 2.85668L11.9994 0.805527ZM1.91505 2.90583C0.379484 8.36256 0.504674 13.2752 2.21073 17.4191C3.91659 21.5624 7.20422 24.9403 11.9995 27.3255C16.7948 24.9403 20.0817 21.5624 21.7869 17.4191C23.4923 13.2752 23.6168 8.36252 22.0812 2.90583C17.9517 1.22231 14.8008 0.864493 11.9995 0.864487M1.91505 2.90583C6.04459 1.22231 9.19812 0.864494 11.9994 0.864487L1.91505 2.90583ZM11.9995 0.805527C14.8103 0.805533 17.9727 1.16519 22.1168 2.85668L22.1302 2.86212L22.1341 2.87598C23.6765 8.34783 23.5544 13.2793 21.8414 17.4415C20.1284 21.6039 16.8257 24.9939 12.0126 27.3848L11.9995 27.3914L11.9864 27.3848C7.17335 24.9939 3.86991 21.604 2.15621 17.4415C0.442589 13.2793 0.319811 8.34787 1.86221 2.87598L1.86611 2.86212L1.87944 2.85668" fill="#023474"/>
<path d="M11.987 0.824265C9.1926 0.824265 6.19238 1.23877 3.48496 2.26333C0.677458 13.4589 2.74888 21.6337 12.0028 27.3504L11.987 0.824265ZM12.0028 27.3504C21.2567 21.6337 23.3256 13.4589 20.5179 2.26333C17.8106 1.23877 14.8129 0.824265 12.0187 0.824265L12.0028 27.3504Z" fill="white"/>
<path fill-rule="evenodd" clip-rule="evenodd" d="M3.47471 2.23594C6.18621 1.20984 9.19011 0.794968 11.9872 0.794968H12.0189C14.8158 0.794968 17.8172 1.20984 20.5285 2.23594L20.5429 2.2414L20.5467 2.25634C21.9513 7.85708 22.137 12.7057 20.8117 16.8706C19.4876 21.032 16.656 24.5073 12.0325 27.367L12.0325 27.4034L12.003 27.3852L11.9735 27.4034L11.9735 27.367C7.35 24.5073 4.51779 21.032 3.19295 16.8706C1.86701 12.7057 2.05206 7.85708 3.45655 2.25634L3.46029 2.2414L3.47471 2.23594ZM12.0325 27.2976C16.628 24.4476 19.4394 20.989 20.7555 16.8527C22.0751 12.7058 21.8929 7.87413 20.4932 2.28564C17.8033 1.27019 14.8265 0.856844 12.0483 0.853943L12.0325 27.2976ZM11.9735 27.2976L11.9577 0.853943C9.17934 0.856843 6.20006 1.27019 3.50999 2.28564C2.1104 7.87413 1.92891 12.7058 3.24913 16.8527C4.56598 20.989 7.37803 24.4476 11.9735 27.2976Z" fill="white"/>
<path d="M12.0026 0.821915C9.19246 0.821915 6.34794 1.24698 4.03644 2.05228C1.12857 13.7865 3.46379 21.7105 12.0053 27.1261L12.0026 0.821915Z" fill="#EF0107"/>
<path fill-rule="evenodd" clip-rule="evenodd" d="M4.02692 2.02419C6.34211 1.21761 9.19 0.792191 12.0028 0.792191H12.0323L12.035 27.1794L11.9897 27.1507C7.71413 24.4399 4.98984 21.0997 3.6994 16.9672C2.40919 12.8355 2.55334 7.91502 4.00801 2.04494L4.01185 2.02945L4.02692 2.02419ZM4.0614 2.07463C2.61178 7.93194 2.47098 12.8356 3.75568 16.9496C5.0367 21.052 7.73613 24.3726 11.976 27.0722L11.9733 0.851167C9.18153 0.854122 6.35842 1.27682 4.0614 2.07463Z" fill="#EF0107"/>
<path d="M12.0085 0.821915C14.8186 0.821915 17.6632 1.24698 19.9773 2.05228C22.8852 13.7865 20.5498 21.7105 12.0059 27.1261L12.0085 0.821915Z" fill="#DB0007"/>
<path fill-rule="evenodd" clip-rule="evenodd" d="M11.9782 0.792191H12.0077C14.8205 0.792191 17.6685 1.21762 19.9862 2.02419L20.0013 2.02944L20.0052 2.04494C21.4598 7.91502 21.6039 12.8355 20.3134 16.9672C19.0226 21.0997 16.2977 24.4399 12.0209 27.1507L11.9756 27.1794L11.9782 0.792191ZM12.0372 0.851167L12.0346 27.0722C16.2757 24.3726 18.9757 21.052 20.2571 16.9496C21.5422 12.8356 21.4014 7.93195 19.9518 2.07463C17.6522 1.27682 14.829 0.854122 12.0372 0.851167Z" fill="#DB0007"/>
<path d="M8.37218 18.5284C7.132 19.3787 6.14514 19.685 4.99991 19.9886L4.30859 18.9139C5.36141 18.3806 6.45124 17.6386 7.54896 16.564C7.64131 17.6068 8.12667 18.3462 8.37218 18.5284Z" fill="white"/>
<path d="M8.20315 18.4837C7.02632 19.2916 5.38762 19.8541 3.51152 20.1287L3.12891 19.5478C4.73586 18.9457 6.28734 18.048 7.49071 16.7859C7.6728 17.5938 7.94983 18.1299 8.20315 18.4837Z" fill="#9C824A"/>
<path d="M5.06792 13.5487C5.06812 13.6558 5.04718 13.762 5.00628 13.861C4.96539 13.9601 4.90535 14.0501 4.82961 14.1259C4.75387 14.2017 4.66391 14.2618 4.56489 14.3028C4.46587 14.3438 4.35974 14.3648 4.25258 14.3647C3.80127 14.3647 3.43457 14.0003 3.43457 13.5487C3.43457 13.0972 3.80134 12.7329 4.25258 12.7329C4.70382 12.7329 5.06792 13.0972 5.06792 13.5487V13.5487Z" fill="white"/>
<path d="M4.98145 11.9407V15.0196H7.40641C7.5647 13.987 8.15051 12.8913 9.47776 11.9407H4.98145Z" fill="white"/>
<path d="M5.07885 15.0195C4.53787 15.0274 4.09199 14.3488 4.08403 13.4986C4.07875 12.6483 4.51155 11.9513 5.05506 11.9407H5.07365" fill="white"/>
<path d="M4.72412 13.5485C4.72412 13.8971 4.47081 14.177 4.15942 14.177C3.84804 14.177 3.59473 13.8971 3.59473 13.5485C3.59473 13.1999 3.84804 12.9201 4.15942 12.9201C4.47081 12.9201 4.72412 13.1999 4.72412 13.5485ZM5.04606 12.1015V14.8687H7.45258C7.64255 13.9498 8.10962 12.9729 9.2759 12.1015H5.04606Z" fill="#9C824A"/>
<path d="M5.13627 14.8687C4.62697 14.8793 4.21008 14.2667 4.2022 13.5036C4.19692 12.7405 4.60593 12.112 5.11516 12.1015H5.13099" fill="#9C824A"/>
<path d="M16.604 15.74C16.604 18.3093 14.5248 20.39 11.9573 20.39C9.39245 20.39 7.31055 18.3093 7.31055 15.74C7.31055 13.1709 9.39238 11.0902 11.9573 11.0902C14.5248 11.0902 16.604 13.1709 16.604 15.7401V15.74Z" fill="white"/>
<path d="M16.361 15.7405C16.361 18.175 14.3899 20.1473 11.957 20.1473C9.52679 20.1473 7.55566 18.175 7.55566 15.7405C7.55566 13.3087 9.52671 11.3336 11.957 11.3336C14.3898 11.3336 16.3611 13.306 16.3611 15.7405H16.361Z" fill="#9C824A"/>
<path d="M15.6316 15.7404C15.6316 17.7709 13.9876 19.416 11.9585 19.416C9.93199 19.416 8.28809 17.7709 8.28809 15.7404C8.28809 13.7099 9.93199 12.0648 11.9585 12.0648C13.9875 12.0648 15.6316 13.7099 15.6316 15.7404Z" fill="white"/>
<path d="M15.3883 15.7404C15.3883 17.6362 13.8525 19.1703 11.9579 19.1703C10.066 19.1703 8.53027 17.6362 8.53027 15.7404C8.53027 13.8446 10.066 12.3105 11.9579 12.3105C13.8525 12.3104 15.3883 13.8446 15.3883 15.7404Z" fill="#9C824A"/>
<path d="M13.3877 15.7402C13.3904 16.5298 12.7492 17.1714 11.9602 17.174C11.1686 17.174 10.5273 16.5324 10.5273 15.7428V15.7402C10.5273 14.9506 11.1659 14.3091 11.9575 14.3091C12.7464 14.3065 13.3876 14.9481 13.3876 15.7376V15.7402H13.3877Z" fill="white"/>
<path d="M13.219 15.7402C13.219 16.4374 12.6569 17.0024 11.9603 17.0024C11.2637 17.0024 10.699 16.44 10.6963 15.7429V15.7402C10.6963 15.0432 11.2611 14.4781 11.9577 14.4781C12.6543 14.4781 13.219 15.0405 13.219 15.7376V15.7402Z" fill="#9C824A"/>
<path d="M12.6071 15.7401C12.6071 16.0966 12.3168 16.387 11.958 16.3896C11.6018 16.3896 11.3115 16.0993 11.3115 15.7401C11.3115 15.3811 11.6018 15.0933 11.958 15.0907C12.0433 15.0907 12.1277 15.1074 12.2065 15.1401C12.2853 15.1727 12.3569 15.2205 12.4172 15.2809C12.4775 15.3412 12.5253 15.4128 12.5578 15.4916C12.5904 15.5704 12.6072 15.6549 12.6071 15.7401Z" fill="white"/>
<path d="M12.4276 15.7401C12.4277 15.8018 12.4157 15.8629 12.3921 15.92C12.3685 15.977 12.334 16.0289 12.2903 16.0725C12.2467 16.1162 12.1949 16.1508 12.1378 16.1744C12.0808 16.198 12.0197 16.2101 11.958 16.2101C11.8962 16.2101 11.8351 16.198 11.7781 16.1744C11.7211 16.1508 11.6692 16.1162 11.6256 16.0726C11.582 16.0289 11.5474 15.9771 11.5238 15.9201C11.5003 15.863 11.4882 15.8019 11.4883 15.7402C11.4883 15.4814 11.6994 15.2703 11.958 15.2703C12.0197 15.2702 12.0808 15.2823 12.1378 15.3059C12.1949 15.3295 12.2467 15.3641 12.2903 15.4077C12.334 15.4514 12.3685 15.5032 12.3921 15.5603C12.4157 15.6173 12.4277 15.6784 12.4276 15.7402V15.7401Z" fill="#9C824A"/>
<path d="M11.4639 12.2309H12.4402V14.5095H11.4639V12.2309Z" fill="white"/>
<path d="M11.6173 11.9035H12.2901V14.8H11.6172L11.6173 11.9035Z" fill="#9C824A"/>
<path d="M13.3009 15.5765L12.7705 14.7579L14.6782 13.5168L15.2112 14.3355L13.3009 15.5765Z" fill="white"/>
<path d="M12.9731 15.6108L12.6064 15.0432L15.034 13.4668L15.4009 14.0319L12.9731 15.6108Z" fill="#9C824A"/>
<path d="M9.1875 17.9688L8.66504 17.1423L10.5887 15.925L11.1111 16.7488L9.1875 17.9688Z" fill="white"/>
<path d="M8.83325 17.9976L8.47168 17.4273L10.9152 15.8773L11.2767 16.4477L8.83325 17.9976Z" fill="#9C824A"/>
<path d="M11.4639 17.0473H12.4402V19.3258H11.4639V17.0473Z" fill="white"/>
<path d="M11.6173 16.7227H12.2901V19.6166H11.6172L11.6173 16.7227Z" fill="#9C824A"/>
<path d="M11.0049 16.8042C11.1369 16.9151 11.2819 17.0155 11.464 17.092L11.4587 19.1252C10.5378 19.0064 9.84122 18.5522 9.31348 17.9054L11.0076 16.8042" fill="#EF0107"/>
<path fill-rule="evenodd" clip-rule="evenodd" d="M9.3311 17.9081C9.85375 18.5446 10.5413 18.9917 11.4477 19.1121L11.4529 17.0997C11.2763 17.0245 11.1345 16.927 11.0057 16.8196L9.3311 17.9081ZM11.0069 16.8025L11.0018 16.7946L9.29688 17.9027L9.30502 17.9127C9.83436 18.5615 10.5335 19.0174 11.4578 19.1367L11.4708 19.1384L11.4761 17.0844L11.469 17.0814C11.2883 17.0054 11.1442 16.9058 11.0128 16.7954L11.0069 16.8025Z" fill="#EF0107"/>
<path d="M12.9074 16.8122C12.7728 16.9204 12.6303 17.0234 12.4482 17.0973L12.4508 19.1305C13.3718 19.0117 14.0684 18.5576 14.5962 17.9106L12.9047 16.8122" fill="#DB0007"/>
<path fill-rule="evenodd" clip-rule="evenodd" d="M12.9108 16.8028L14.6131 17.9082L14.605 17.9182C14.0756 18.567 13.3764 19.023 12.4522 19.1422L12.4392 19.1439L12.4365 17.0897L12.4437 17.0868C12.6242 17.0135 12.7657 16.9114 12.9 16.8034L12.9058 16.8106L12.9108 16.8028ZM12.9067 16.8276C12.7758 16.9324 12.6363 17.0324 12.4597 17.1053L12.4622 19.1176C13.3686 18.9972 14.0562 18.5501 14.5789 17.9135L12.9067 16.8276Z" fill="#DB0007"/>
<path d="M13.3697 15.9595L15.3856 15.7164C15.4015 16.2206 15.2801 16.6644 15.1085 17.0894L13.3643 15.9594" fill="#DB0007"/>
<path d="M13.3721 15.9514C13.38 15.9197 13.3773 15.8907 13.3906 15.7983L15.3802 15.5395C15.3881 15.6319 15.3828 15.6662 15.3802 15.7084L13.3721 15.9514Z" fill="white"/>
<path fill-rule="evenodd" clip-rule="evenodd" d="M15.3904 15.5266L15.3914 15.5387C15.3981 15.6174 15.3953 15.6548 15.3928 15.6898C15.3923 15.6963 15.3918 15.7027 15.3914 15.7093L15.3908 15.7189L13.3564 15.965L13.3605 15.9487C13.3642 15.9339 13.3654 15.9197 13.3674 15.8967C13.3694 15.8739 13.3721 15.8433 13.3788 15.7967L13.38 15.788L15.3904 15.5266ZM13.4004 15.8087C13.3947 15.8498 13.3923 15.8775 13.3905 15.8987L13.3904 15.8998C13.3891 15.9146 13.388 15.9267 13.3862 15.9381L15.369 15.6982C15.3692 15.6948 15.3695 15.6915 15.3697 15.6881C15.3721 15.6553 15.3746 15.6214 15.3693 15.5527L13.4004 15.8087Z" fill="white"/>
<path d="M16.3174 14.275H18.9271C18.8452 14.5838 18.7661 14.8981 18.3913 15.0381C17.7924 15.2626 16.5496 15.479 16.5496 15.479C16.5258 15.1384 16.4492 14.6762 16.3174 14.275Z" fill="white"/>
<path d="M14.499 11.8961L21.3174 11.904L21.0772 14.3966L16.4199 14.6395C16.1692 13.5252 15.3222 12.4612 14.499 11.8961Z" fill="white"/>
<path d="M14.7412 12.0726L23.4462 12.0805L23.1138 14.1111L16.3587 14.4439C16.0922 13.4351 15.4827 12.6985 14.7412 12.0726Z" fill="#9C824A"/>
<path d="M16.316 14.2748H18.7198C18.6407 14.5493 18.5852 14.8001 18.2317 14.9242C17.6696 15.125 16.5377 15.2833 16.5377 15.2833C16.4901 14.9534 16.4215 14.618 16.316 14.2748ZM13.6773 8.27561C13.6773 8.38654 13.6535 8.69019 13.6404 8.77465H14.9914C14.9095 8.41553 14.8726 7.91649 14.862 7.53098C14.862 7.55737 14.8384 6.75728 14.8384 6.75728C14.8384 6.70182 14.8621 6.61735 14.8964 6.59096C14.944 6.53549 14.9915 6.53549 15.0495 6.53549C15.1075 6.5091 15.2131 6.5091 15.2263 6.72829L15.2606 7.55737C15.2738 7.94549 15.2738 8.471 15.2263 8.77465H16.5272C16.5166 8.66372 16.4796 8.38654 16.4691 8.3046C16.6327 8.66372 16.9863 8.85644 17.456 8.85644C17.7357 8.85644 17.9494 8.74811 18.113 8.63725C18.113 8.66364 18.1816 8.77465 18.1816 8.77465H20.5987C20.4931 8.41553 20.4245 7.91649 20.3876 7.53098L20.0472 4.82185L18.8043 4.60006C18.9099 4.95917 18.9812 5.48461 19.0259 5.84373L19.2159 7.58652C19.2503 7.8901 19.2741 8.22282 19.2741 8.58186V8.60825L19.2265 8.49732C19.1316 8.27553 19.0866 8.00095 19.0497 7.58637L19.0049 7.03186C18.9336 6.14731 18.4534 5.76172 17.3952 5.76172C17.2211 5.76172 16.7751 5.78811 16.5034 5.87265L16.5746 6.86546L16.857 6.70174C17.0919 6.56181 17.2659 6.50635 17.477 6.50635C17.6433 6.50635 17.7488 6.56189 17.7964 6.67274C17.5959 6.70174 17.374 6.75721 17.1262 6.86546C16.7514 7.03179 16.5165 7.28257 16.411 7.55723V7.53083L16.3741 6.6172C16.3531 6.0363 15.9757 5.65079 15.4004 5.65079C15.1445 5.65079 14.9095 5.73265 14.6985 5.87258C14.6854 5.84358 14.6747 5.81704 14.6616 5.78804L14.614 5.67711L13.5348 5.62164C13.5823 5.81704 13.6536 6.36895 13.6641 6.56174C13.606 6.28709 13.453 5.98344 13.1706 5.76172C12.949 5.62172 12.6666 5.53986 12.3738 5.53986C11.9753 5.53986 11.5637 5.70618 11.2945 5.98344C11.0122 6.25801 10.8722 6.6462 10.8591 7.08718C10.7535 6.97625 10.6137 6.86799 10.4501 6.8126L9.95663 6.56174H9.93283C9.81685 6.5062 9.80361 6.4798 9.80361 6.45341C9.81685 6.39794 9.93291 6.34248 10.086 6.34248C10.2971 6.34248 10.59 6.45341 10.8248 6.59081L10.8485 5.70618C10.6717 5.62164 10.4264 5.56885 10.0728 5.56885C9.8854 5.56885 9.53446 5.59525 9.22836 5.76157C9.15211 5.81381 9.07816 5.86933 9.00672 5.92797L9.01727 5.67703C8.73496 5.62425 8.43139 5.62424 8.05666 5.98336C8.04357 5.95436 8.01978 5.81696 7.99606 5.76157L6.83507 5.81704C6.91686 6.14716 6.93002 6.61713 6.9063 7.03171L6.8825 7.47529V7.53076C6.86934 7.75255 6.85886 8.00073 6.83507 8.22252C6.74005 7.91619 6.63715 7.50169 6.55268 7.17164L5.9775 4.57344L4.3362 4.82162C4.34676 4.84802 4.3704 4.93256 4.38371 5.01434C4.39434 5.12527 4.39434 5.34706 4.24126 5.81704C3.9721 6.56174 3.59737 7.69708 3.23328 8.4971C3.18569 8.60803 3.09082 8.77443 3.09082 8.77443H4.37055C4.39434 8.58156 4.47613 8.24891 4.55792 8.00066C4.73472 8.00066 5.19124 8.00066 5.40225 7.97166C5.44976 8.16698 5.49727 8.41516 5.5105 8.58149L5.53162 8.77428H8.09116C8.03309 8.3597 8.05681 7.80779 8.078 7.50154C8.10171 7.14242 8.17294 6.89424 8.32603 6.75691C8.44202 6.61698 8.57139 6.59059 8.66641 6.59059C8.65325 7.08695 8.96991 7.30882 9.25222 7.44607L9.75618 7.69686C9.93298 7.80779 9.93298 7.83418 9.93298 7.88965C9.92242 7.97151 9.77982 8.00058 9.65067 8.00058C9.38152 8.00058 9.01735 7.83418 8.6189 7.39328L8.59511 8.55242C8.91184 8.71874 9.31029 8.8006 9.66391 8.8006C10.2497 8.8006 10.8724 8.52595 11.0361 8.00058C11.3289 8.55234 11.9042 8.8006 12.4688 8.8006C12.9728 8.80105 13.3474 8.63725 13.6773 8.27568V8.27561ZM4.86395 7.14287C4.93517 6.95015 4.99317 6.78375 5.09875 6.4801C5.16997 6.78375 5.20425 6.97654 5.23853 7.11655C5.09875 7.14287 5.02752 7.14287 4.86395 7.14287ZM12.0465 6.83922C12.0465 6.45371 12.1863 6.28738 12.3263 6.28738C12.3738 6.28738 12.4793 6.25839 12.5267 6.45371C12.5504 6.53557 12.5609 6.59103 12.5609 6.61743C12.5609 6.72836 12.5029 6.75736 12.4318 6.75736V6.78375C12.4318 6.78375 12.2339 6.83922 12.0465 6.92368V6.83922ZM13.3843 7.64191C13.1362 7.8611 12.9594 8.00103 12.6666 8.00103C12.4318 7.97203 12.2918 7.83463 12.2101 7.64191C12.4554 7.55745 13.4054 7.19833 13.6772 7.0874C13.6772 7.30919 13.6878 7.55737 13.6878 7.55737V8.02742L13.3843 7.64191ZM17.7593 8.0275C17.5377 8.0275 17.4901 7.8611 17.4795 7.75284C17.4901 7.64191 17.5244 7.47559 17.8779 7.36473C17.8843 7.44759 17.8922 7.53034 17.9016 7.61291V7.72377C17.9123 7.80824 17.9123 7.8901 17.9228 7.97196C17.878 8.00103 17.82 8.00103 17.7592 8.0275" fill="#9C824A"/>
<path d="M10.6483 5.84371C10.5323 5.81731 10.3554 5.76192 10.0732 5.76192C9.85153 5.76192 9.55858 5.81731 9.33427 5.92824C9.07567 6.09457 8.88831 6.31375 8.87775 6.56469C8.85396 6.95012 9.05456 7.11645 9.34743 7.25377C9.54535 7.36471 9.73532 7.47556 9.85145 7.5311C10.0045 7.61289 10.1443 7.69735 10.1338 7.89022C10.1206 8.08294 9.9438 8.22287 9.65093 8.22287C9.4055 8.22287 9.05456 8.05654 8.80652 7.83475L8.79596 8.41559C9.00705 8.52652 9.34743 8.58191 9.66409 8.58191C10.2024 8.58191 10.8726 8.33372 10.8832 7.72375C10.8963 7.25385 10.5666 7.08738 10.3686 6.97912C10.1681 6.89466 9.96752 6.7838 9.87525 6.75733C9.78022 6.70187 9.59286 6.64655 9.60609 6.42461C9.62721 6.23189 9.85145 6.14736 10.0863 6.14736C10.2843 6.14736 10.4848 6.20282 10.6378 6.28728M5.82742 4.82182L4.58197 4.98815C4.60576 5.15454 4.55817 5.48459 4.42895 5.8727C4.17303 6.61733 3.75079 7.86093 3.4209 8.58176H4.19675C4.24159 8.33097 4.29965 8.11186 4.41832 7.80814L5.5689 7.77914C5.61374 8.00085 5.6982 8.35997 5.70868 8.58176H6.75369C6.62432 8.27551 6.46074 7.64174 6.35531 7.19816L5.82742 4.82182ZM4.58197 7.33564L5.14666 5.70638L5.48712 7.30917M8.8066 5.84371L8.7828 6.39822C8.59544 6.36922 8.36071 6.42461 8.17335 6.6174C8.0097 6.78373 7.9042 7.03199 7.8804 7.47556C7.85661 7.83468 7.84613 8.24926 7.86724 8.58191H6.98841C7.04656 8.24926 7.07035 7.86368 7.08083 7.50203L7.10455 7.06113C7.12827 6.70201 7.12827 6.3429 7.07027 6.01018L7.84605 5.98378C7.8804 6.09471 7.90405 6.28743 7.89096 6.48015C8.23134 5.95456 8.56116 5.84371 8.8066 5.84371ZM19.8733 4.98815L19.0737 4.84822C19.1555 5.21001 19.1793 5.45819 19.2268 5.81724L19.4142 7.55735C19.4512 7.91647 19.4855 8.24919 19.4749 8.58191H20.3431C20.2586 8.24919 20.2243 7.91647 20.1899 7.55735M16.2926 8.58183C16.2477 8.24919 16.2239 7.91647 16.2107 7.55735L16.1764 6.6464C16.1526 6.14736 15.8704 5.87278 15.4007 5.87278C15.1447 5.87278 14.8386 5.95464 14.58 6.28728C14.5695 6.20282 14.5325 5.98363 14.4851 5.87278L13.7832 5.84378C13.8412 6.17643 13.865 6.50647 13.8754 6.86559L13.8887 7.55735C13.8993 7.91647 13.8887 8.24919 13.8649 8.58191H14.7437C14.6988 8.24919 14.6751 7.91647 14.6618 7.55735L14.638 6.78373C14.6275 6.50647 14.8386 6.31368 15.0498 6.31368C15.2951 6.31368 15.4139 6.48 15.4245 6.72826L15.4614 7.55735C15.472 7.91647 15.472 8.24919 15.4482 8.58191M19.0395 8.58183C18.9339 8.30458 18.8759 7.97193 18.8521 7.61282L18.8045 7.06091C18.7569 6.39814 18.4774 5.95456 17.3955 5.95456C17.2081 5.95456 16.939 5.98363 16.7174 6.03642L16.7516 6.53547C16.9732 6.39814 17.1976 6.28728 17.48 6.28728C17.7728 6.28728 18.0183 6.42461 18.042 6.83912C17.7597 6.86819 17.5011 6.92098 17.2082 7.06091C16.8811 7.19823 16.5405 7.47549 16.5749 7.91639C16.6091 8.41544 16.9865 8.63723 17.4562 8.63723C17.8203 8.63723 18.0658 8.4709 18.2056 8.30458C18.2293 8.41544 18.2663 8.4973 18.3006 8.58191H19.0395V8.58183ZM17.7597 8.22272C17.5009 8.22272 17.2901 8.08279 17.2794 7.77914C17.2794 7.47549 17.4667 7.22731 18.0658 7.14277L18.1001 7.61282C18.1133 7.77914 18.1133 7.89015 18.137 8.0274C18.0527 8.13826 17.9128 8.19372 17.7597 8.22272ZM13.0548 5.92817C12.8544 5.78824 12.6195 5.73277 12.3742 5.73277C11.7989 5.73277 11.0363 6.14736 11.06 7.19823C11.0706 8.27558 11.8939 8.60823 12.4691 8.60823C12.9731 8.60823 13.2793 8.41544 13.5245 8.16733L13.3477 7.91639C13.2185 8.02732 13.0074 8.19372 12.667 8.19372C12.3028 8.16725 12.0706 7.91639 11.9413 7.53088L13.5351 6.94998C13.4875 6.42461 13.3003 6.12096 13.0548 5.92817ZM12.5034 6.95005L11.8701 7.19823C11.8569 7.08745 11.8463 6.97644 11.8463 6.83912C11.8463 6.20275 12.1972 6.09189 12.316 6.09189C12.5033 6.06549 12.6669 6.17635 12.7276 6.39822C12.7963 6.6464 12.7726 6.86819 12.5034 6.95005ZM11.1893 14.5783L10.6536 15.3969L8.74853 14.148L9.28415 13.3321L11.1893 14.5783Z" fill="white"/>
<path d="M11.3614 14.89L10.9919 15.4551L8.57227 13.8682L8.94172 13.3031L11.3614 14.89Z" fill="#9C824A"/>
<path d="M15.2562 17.1767L14.7205 17.9953L12.8154 16.7463L13.3511 15.9277L15.2562 17.1767Z" fill="white"/>
<path d="M15.4279 17.488L15.0584 18.0505L12.6387 16.4661L13.0081 15.9012L15.4279 17.488Z" fill="#9C824A"/>
</svg>
