<svg width="32" height="32" viewBox="0 0 32 32" fill="none" xmlns="http://www.w3.org/2000/svg">
<g clip-path="url(#clip0_32_22822)">
<mask id="mask0_32_22822" style="mask-type:luminance" maskUnits="userSpaceOnUse" x="0" y="0" width="32" height="32">
<path d="M32 0H0V32H32V0Z" fill="white"/>
</mask>
<g mask="url(#mask0_32_22822)">
<path d="M31.99 16.64C31.84 20.52 30.28 24.35 27.32 27.32C24.36 30.28 20.52 31.84 16.64 31.99C16.31 32 15.99 32.01 15.66 31.99C11.68 31.91 7.73 30.34 4.69 27.31C1.65 24.28 0.09 20.32 0 16.34C0 16.01 0 15.69 0 15.36C0.15 11.48 1.71 7.65 4.67 4.68C7.65 1.72 11.48 0.17 15.36 0.0100001C15.69 1.45286e-07 16.01 -0.00999985 16.34 0.0100001C20.32 0.0900001 24.28 1.66 27.31 4.69C30.35 7.73 31.91 11.68 31.99 15.66C31.99 15.99 31.99 16.31 31.99 16.64Z" fill="#FCF6D6"/>
<path d="M11.45 27.31C5.2 21.06 5.2 10.93 11.45 4.68C13.71 2.42 16.48 0.98 19.38 0.35C14.25 -0.75 8.68 0.69 4.69 4.68C-1.56 10.93 -1.56 21.06 4.69 27.31C8.68 31.3 14.25 32.74 19.38 31.64C16.47 31.01 13.71 29.57 11.45 27.31Z" fill="#EAE3C5"/>
<path d="M16.34 1.45636e-07C16.3 4.35 14.59 8.43 11.51 11.51C8.44 14.59 4.35 16.3 0 16.34C0 16.01 0 15.69 0 15.36C4.08 15.32 7.92 13.71 10.81 10.82C13.71 7.93 15.32 4.09 15.36 0.0100001C15.69 1.45286e-07 16.01 -0.00999985 16.34 0.0100001V1.45636e-07Z" fill="#C1BBA0"/>
<path d="M31.99 16.64C27.91 16.68 24.07 18.29 21.18 21.18C18.29 24.07 16.68 27.91 16.64 31.99C16.31 32 15.99 32.01 15.66 31.99C15.7 27.64 17.41 23.56 20.49 20.48C23.56 17.41 27.65 15.69 32 15.65C32 15.98 32 16.3 32 16.63L31.99 16.64Z" fill="#C1BBA0"/>
<path d="M29.47 18.22C29.36 18.22 29.26 18.19 29.17 18.12C28.96 17.95 28.92 17.65 29.08 17.43C29.55 16.82 29.44 15.94 28.83 15.47C28.62 15.3 28.58 15 28.74 14.78C28.91 14.57 29.21 14.53 29.43 14.69C30.46 15.49 30.65 16.99 29.85 18.02C29.75 18.14 29.61 18.21 29.46 18.21L29.47 18.22Z" fill="#EA5149"/>
<path d="M27 18.77C26.92 18.77 26.84 18.75 26.76 18.71C26.52 18.58 26.44 18.28 26.57 18.04C26.73 17.76 26.77 17.43 26.68 17.12C26.59 16.81 26.39 16.55 26.1 16.39C25.86 16.26 25.78 15.96 25.91 15.72C26.04 15.48 26.34 15.4 26.58 15.53C27.09 15.81 27.46 16.28 27.62 16.84C27.78 17.4 27.71 18 27.43 18.51C27.34 18.67 27.17 18.76 27 18.76V18.77Z" fill="#EA5149"/>
<path d="M24.64 19.8C24.59 19.8 24.54 19.8 24.49 19.77C24.23 19.68 24.09 19.41 24.18 19.15C24.27 18.88 24.25 18.58 24.12 18.33C23.99 18.07 23.77 17.88 23.5 17.79C23.24 17.7 23.1 17.43 23.19 17.17C23.28 16.91 23.55 16.77 23.81 16.86C24.33 17.03 24.75 17.4 25 17.89C25.25 18.38 25.29 18.94 25.11 19.46C25.04 19.67 24.85 19.79 24.65 19.79L24.64 19.8Z" fill="#EA5149"/>
<path d="M22.44 21.29C22.44 21.29 22.4 21.29 22.39 21.29C22.12 21.26 21.93 21.02 21.96 20.75C22.02 20.2 21.62 19.7 21.07 19.64C20.8 19.61 20.61 19.37 20.64 19.1C20.67 18.83 20.91 18.64 21.18 18.67C22.27 18.79 23.06 19.78 22.94 20.87C22.91 21.12 22.7 21.31 22.45 21.31L22.44 21.29Z" fill="#EA5149"/>
<path d="M20.57 23.16C20.32 23.16 20.11 22.97 20.08 22.72C20.02 22.17 19.52 21.77 18.97 21.83C18.7 21.86 18.46 21.67 18.43 21.4C18.4 21.13 18.59 20.89 18.86 20.86C19.95 20.74 20.93 21.53 21.06 22.62C21.09 22.89 20.9 23.13 20.63 23.16C20.61 23.16 20.59 23.16 20.58 23.16H20.57Z" fill="#EA5149"/>
<path d="M19.19 25.25C18.98 25.25 18.79 25.12 18.73 24.92C18.64 24.65 18.45 24.42 18.19 24.3C17.93 24.17 17.64 24.15 17.37 24.24C17.11 24.33 16.84 24.19 16.75 23.93C16.66 23.67 16.8 23.4 17.06 23.31C17.58 23.14 18.14 23.18 18.63 23.42C19.12 23.67 19.49 24.09 19.66 24.61C19.75 24.87 19.61 25.14 19.35 25.23C19.3 25.25 19.25 25.26 19.2 25.26L19.19 25.25Z" fill="#EA5149"/>
<path d="M18.24 27.54C18.07 27.54 17.9 27.45 17.81 27.29C17.65 27.01 17.39 26.8 17.08 26.71C16.77 26.62 16.44 26.66 16.16 26.82C15.92 26.95 15.63 26.87 15.49 26.63C15.36 26.39 15.44 26.1 15.68 25.96C16.19 25.68 16.78 25.61 17.35 25.77C17.91 25.93 18.38 26.3 18.66 26.81C18.79 27.05 18.71 27.34 18.47 27.48C18.39 27.52 18.31 27.54 18.23 27.54H18.24Z" fill="#EA5149"/>
<path d="M17.72 29.97C17.57 29.97 17.43 29.9 17.33 29.78C16.86 29.17 15.98 29.06 15.37 29.53C15.16 29.7 14.85 29.66 14.68 29.44C14.51 29.23 14.55 28.92 14.77 28.75C15.8 27.95 17.3 28.13 18.1 29.17C18.27 29.38 18.23 29.69 18.01 29.86C17.92 29.93 17.81 29.96 17.71 29.96L17.72 29.97Z" fill="#EA5149"/>
<path d="M16.92 3.35C16.77 3.35 16.63 3.28 16.53 3.16C16.3 2.87 15.97 2.68 15.6 2.63C15.23 2.58 14.86 2.68 14.57 2.91C14.36 3.08 14.05 3.04 13.88 2.82C13.71 2.61 13.75 2.3 13.97 2.13C14.47 1.74 15.09 1.57 15.72 1.65C16.35 1.73 16.91 2.05 17.3 2.55C17.47 2.76 17.43 3.07 17.21 3.24C17.12 3.31 17.01 3.34 16.91 3.34L16.92 3.35Z" fill="#EA5149"/>
<path d="M16.03 6.15C15.86 6.15 15.69 6.06 15.6 5.9C15.27 5.31 14.53 5.1 13.95 5.43C13.71 5.56 13.42 5.48 13.28 5.24C13.15 5 13.23 4.71 13.47 4.57C14.53 3.98 15.87 4.36 16.45 5.42C16.58 5.66 16.5 5.95 16.26 6.09C16.18 6.13 16.1 6.15 16.02 6.15H16.03Z" fill="#EA5149"/>
<path d="M14.68 8.84C14.47 8.84 14.28 8.71 14.22 8.5C14.13 8.23 13.94 8 13.68 7.88C13.42 7.75 13.13 7.73 12.86 7.82C12.6 7.91 12.33 7.77 12.24 7.51C12.15 7.25 12.29 6.98 12.55 6.89C13.07 6.72 13.63 6.76 14.12 7C14.61 7.25 14.98 7.67 15.15 8.19C15.24 8.45 15.1 8.72 14.84 8.81C14.79 8.83 14.74 8.84 14.69 8.84H14.68Z" fill="#EA5149"/>
<path d="M12.85 11.37C12.6 11.37 12.39 11.18 12.36 10.93C12.3 10.38 11.8 9.98 11.25 10.04C10.98 10.07 10.74 9.88 10.71 9.61C10.68 9.34 10.87 9.1 11.14 9.07C12.23 8.95 13.21 9.74 13.34 10.83C13.37 11.1 13.18 11.34 12.91 11.37C12.89 11.37 12.87 11.37 12.86 11.37H12.85Z" fill="#EA5149"/>
<path d="M10.65 13.57C10.65 13.57 10.61 13.57 10.6 13.57C10.33 13.54 10.14 13.3 10.17 13.03C10.2 12.76 10.12 12.5 9.96 12.29C9.79 12.08 9.55 11.95 9.28 11.92C9.01 11.89 8.82 11.65 8.85 11.38C8.88 11.11 9.12 10.92 9.39 10.95C9.92 11.01 10.39 11.27 10.72 11.68C11.05 12.09 11.2 12.61 11.14 13.14C11.11 13.39 10.9 13.58 10.65 13.58V13.57Z" fill="#EA5149"/>
<path d="M8.24 15.29C8.19 15.29 8.14 15.29 8.09 15.26C7.83 15.17 7.69 14.9 7.78 14.64C7.87 14.37 7.85 14.07 7.72 13.82C7.59 13.56 7.37 13.37 7.1 13.28C6.84 13.19 6.7 12.92 6.79 12.66C6.88 12.4 7.15 12.26 7.41 12.35C7.93 12.52 8.35 12.89 8.6 13.38C8.85 13.87 8.89 14.43 8.71 14.95C8.64 15.16 8.45 15.29 8.25 15.29H8.24Z" fill="#EA5149"/>
<path d="M5.61 16.57C5.53 16.57 5.45 16.55 5.37 16.51C5.13 16.38 5.05 16.08 5.18 15.84C5.34 15.56 5.38 15.23 5.29 14.92C5.2 14.61 5 14.35 4.71 14.19C4.47 14.06 4.39 13.76 4.52 13.52C4.65 13.28 4.95 13.2 5.19 13.33C5.7 13.61 6.07 14.08 6.23 14.64C6.39 15.2 6.32 15.8 6.04 16.31C5.95 16.47 5.78 16.56 5.61 16.56V16.57Z" fill="#EA5149"/>
<path d="M2.85 17.42C2.74 17.42 2.64 17.39 2.55 17.32C2.34 17.15 2.3 16.85 2.46 16.63C2.69 16.34 2.79 15.97 2.74 15.6C2.69 15.23 2.51 14.9 2.21 14.67C2 14.5 1.96 14.2 2.12 13.98C2.29 13.77 2.59 13.73 2.81 13.89C3.31 14.28 3.63 14.84 3.71 15.47C3.79 16.1 3.62 16.72 3.23 17.22C3.13 17.34 2.99 17.41 2.84 17.41L2.85 17.42Z" fill="#EA5149"/>
</g>
</g>
<defs>
<clipPath id="clip0_32_22822">
<rect width="32" height="32" fill="white"/>
</clipPath>
</defs>
</svg>
