<svg width="32" height="32" viewBox="0 0 32 32" fill="none" xmlns="http://www.w3.org/2000/svg">
<g clip-path="url(#clip0_32_22736)">
<mask id="mask0_32_22736" style="mask-type:luminance" maskUnits="userSpaceOnUse" x="0" y="0" width="32" height="32">
<path d="M32 0H0V32H32V0Z" fill="white"/>
</mask>
<g mask="url(#mask0_32_22736)">
<path d="M16 32C24.84 32 32 24.84 32 16C32 7.16 24.84 0 16 0C7.16 0 0 7.16 0 16C0 24.84 7.16 32 16 32Z" fill="#F37569"/>
<path d="M24.95 2.73C27.17 5.48 28.51 8.98 28.51 12.79C28.51 21.63 21.35 28.79 12.51 28.79C9.2 28.79 6.12 27.78 3.56 26.06C6.49 29.69 10.98 32 16 32C24.84 32 32 24.84 32 16C32 10.48 29.2 5.61 24.95 2.73Z" fill="#D3655C"/>
<path d="M26.78 12.99C25.16 12.16 22.15 10.62 17.22 10.91C16.44 10.91 15.69 10.75 14.99 10.44C14.54 10.24 14.12 9.99 13.74 9.68C13.51 9.49 13.3 9.29 13.1 9.07C17.43 6.39 22.36 4.95 27.51 4.89C27.16 4.53 26.8 4.18 26.41 3.86C21.43 4.1 16.67 5.59 12.47 8.21C11.96 7.35 11.68 6.38 11.68 5.36C11.68 2.81 13.42 0.65 15.77 0C14.82 0.01 13.9 0.11 13 0.28C11.55 1.5 10.63 3.32 10.63 5.35C10.63 6.57 10.96 7.75 11.59 8.78C11.33 8.95 11.08 9.13 10.83 9.31C9.72999 10.1 8.69999 10.97 7.72999 11.9C6.38999 9.77 5.20999 7.54 4.17999 5.23C3.90999 5.52 3.65999 5.82 3.41999 6.13C4.44999 8.39 5.62999 10.58 6.94999 12.67C6.15999 13.48 5.41999 14.34 4.72999 15.25C4.47999 14.85 4.18999 14.48 3.85999 14.14C2.92999 13.18 1.73999 12.54 0.44999 12.28C0.36999 12.62 0.29999 12.97 0.23999 13.32C1.31999 13.54 2.30999 14.08 3.09999 14.88C3.47999 15.27 3.79999 15.71 4.04999 16.19C2.84999 17.89 1.83999 19.71 1.03999 21.62C1.21999 22.09 1.41999 22.55 1.62999 23C2.36999 21.03 3.33999 19.15 4.50999 17.4C4.60999 17.78 4.65999 18.18 4.67999 18.58C4.52999 23.51 6.15999 26.48 7.02999 28.07C7.09999 28.19 7.60999 29.05 8.12999 29.91C8.69999 30.23 9.28999 30.52 9.89999 30.77C9.30999 29.79 8.05999 27.73 7.96999 27.55C7.13999 26.04 5.59999 23.24 5.74999 18.59C5.74999 18.58 5.74999 18.57 5.74999 18.56C5.72999 17.78 5.56999 17.02 5.27999 16.3C5.31999 16.24 5.35999 16.18 5.40999 16.13C6.07999 15.24 6.78999 14.39 7.55999 13.59C8.93999 15.68 10.47 17.67 12.15 19.56C15.68 23.54 19.74 26.95 24.26 29.72C24.6 29.52 24.93 29.3 25.25 29.08C20.65 26.32 16.52 22.88 12.95 18.85C11.26 16.94 9.71999 14.93 8.32999 12.82C9.30999 11.87 10.36 10.98 11.47 10.18C11.72 10 11.98 9.82 12.23 9.65C12.49 9.96 12.79 10.25 13.11 10.5C13.56 10.87 14.06 11.17 14.6 11.41C15.45 11.78 16.35 11.97 17.28 11.97C17.29 11.97 17.3 11.97 17.31 11.97C21.95 11.69 24.8 13.15 26.33 13.93C28.57 15.08 30.86 17.53 31.82 18.62C31.9 18.16 31.95 17.69 31.99 17.21C30.8 15.93 28.83 14.01 26.82 12.98L26.78 12.99Z" fill="#BA5852"/>
</g>
</g>
<defs>
<clipPath id="clip0_32_22736">
<rect width="32" height="32" fill="white"/>
</clipPath>
</defs>
</svg>
