<svg width="21" height="20" viewBox="0 0 21 20" fill="none" xmlns="http://www.w3.org/2000/svg">
<g clip-path="url(#clip0_413_137193)">
<path fill-rule="evenodd" clip-rule="evenodd" d="M7.1271 3.32942C5.9638 3.56703 4.72646 4.08792 4.72646 4.08792C5.33919 3.25331 6.58299 2.23088 6.58299 2.23088C6.24088 1.58796 5.93774 0.635955 5.93774 0.635955C5.93774 0.635955 7.37606 0.714902 8.50169 1.08022C8.50169 1.08022 10.4142 0.0317319 12.3961 -0.000259399C12.3961 -0.000259399 10.9516 0.833837 10.3378 1.6104C10.5006 1.69605 11.6559 2.04177 12.5558 2.5722C12.5558 2.5722 10.9292 2.61813 9.43641 2.82246C9.43641 2.82246 8.91087 3.56394 8.4666 5.25122C8.4666 5.25122 7.70088 4.40809 7.12735 3.32942H7.1271Z" fill="white"/>
<path fill-rule="evenodd" clip-rule="evenodd" d="M14.8548 4.72645C13.8698 3.63101 12.5556 2.5722 12.5556 2.5722C13.7645 2.58949 15.5589 3.30284 15.5589 3.30284C15.9095 2.63979 16.1551 1.72778 16.1551 1.72778C16.1551 1.72778 16.8416 2.88953 17.1533 4.17409C17.1533 4.17409 18.5785 5.02728 19.6538 6.45553C19.6538 6.45553 18.5318 6.22153 17.7057 6.2254C17.7031 6.40987 18.0085 7.92559 17.9422 8.96763C17.9422 8.96763 17.0274 7.48106 16.1693 6.24295C16.1693 6.24295 14.7898 6.26797 13.3401 6.66399C13.3401 6.66399 14.1523 5.72618 14.8551 4.72645H14.8548ZM16.4332 11.8677C17.1597 10.643 17.9422 8.96789 17.9422 8.96789C18.1822 10.0881 18.2038 11.5174 18.2038 11.5174C18.9244 11.3654 20.2002 10.7535 20.2002 10.7535C20.2002 10.7535 19.6318 12.2671 18.3581 13.4278C18.3581 13.4278 18.4871 14.3349 18.5021 15.5315C18.5021 15.5315 17.6012 15.1301 16.854 14.6812C16.6948 14.7738 15.7919 15.3881 14.2663 15.7039C14.2663 15.7039 14.9124 14.6948 15.4467 13.7091C15.4467 13.7091 14.3829 13.0083 13.5406 11.86C13.5406 11.86 15.1786 12.0667 16.4337 11.8672L16.4332 11.8677Z" fill="white"/>
<path fill-rule="evenodd" clip-rule="evenodd" d="M11.295 9.36856C12.4093 10.7488 13.5401 11.8605 13.5401 11.8605C11.6926 11.586 10.1926 11.068 10.1926 11.068C9.44234 12.271 8.62347 13.6696 8.62347 13.6696C8.62347 13.6696 8.16553 12.1523 8.08813 10.4302C8.08813 10.4302 7.16012 10.1054 5.44988 9.43202C5.44988 9.43202 6.62969 8.69958 8.05743 8.3002C7.9741 8.1356 8.19288 6.08841 8.46661 5.25148C8.46661 5.25148 9.29916 6.60105 9.97717 7.5933C9.97717 7.5933 11.304 7.1431 13.3406 6.664C13.3406 6.664 12.2261 8.07807 11.295 9.36856ZM1.15117 14.5896C1.03894 14.3786 0.934455 14.1634 0.837707 13.9449C0.857315 13.2127 0.922587 12.2697 1.10989 11.5383C1.10989 11.5383 0.573005 11.1657 0.0180582 10.6818C0.0118663 10.5976 0.0046425 10.5128 -0.000259399 10.4274C0.318364 10.3084 0.995084 10.0695 1.58615 9.93253C1.65374 9.76045 2.0219 8.57471 2.73294 7.75661C2.73294 7.75661 2.78092 8.56258 2.97416 9.63584C2.97416 9.63584 4.09669 9.38146 5.44936 9.43125C5.44936 9.43125 4.19602 10.4183 3.40656 11.4214C3.69293 12.5778 4.26878 13.6874 4.26878 13.6874C3.40811 13.2003 2.49764 12.5551 2.49764 12.5551C2.17799 12.9353 1.53532 13.9609 1.15091 14.5893L1.15117 14.5896ZM8.31181 19.8398C8.17249 19.8148 8.03369 19.7861 7.89592 19.7541C7.42612 19.2503 6.70941 18.4278 6.1622 17.5632C6.1622 17.5632 4.14339 17.4004 2.72081 16.7774C2.72081 16.7774 3.89726 16.5563 5.1893 15.8901C5.10597 15.7255 4.6132 14.8174 4.26878 13.6879C4.26878 13.6879 5.50277 14.6848 6.41684 15.2684C6.41684 15.2684 7.57859 14.5999 8.62295 13.6693C8.62295 13.6693 8.35825 14.9557 8.21145 16.425C8.88611 16.8104 9.56644 17.1858 10.2522 17.5514C9.1988 17.7046 8.16192 17.6726 8.16192 17.6726C8.12089 18.4884 8.23054 19.346 8.31155 19.84L8.31181 19.8398ZM17.0947 17.2165C17.0947 17.2165 15.7023 17.5844 14.3435 17.6355C14.3435 17.6355 14.3331 16.7085 14.2658 15.7041C14.2658 15.7041 13.5442 16.7284 12.6023 17.7131C11.49 17.6971 10.2524 17.5516 10.2524 17.5516C10.6768 17.9835 11.1134 18.4033 11.5615 18.8104C10.7238 19.5225 9.9493 19.9985 9.9493 19.9985C10.0592 20 10.1712 20.0008 10.2819 19.9992C12.9263 19.9561 15.3164 18.9035 17.0945 17.2168L17.0947 17.2165Z" fill="white"/>
<path fill-rule="evenodd" clip-rule="evenodd" d="M0.122284 8.18798C0.122284 8.18798 0.866082 7.26023 1.73449 6.50689C1.73449 6.50689 2.02474 7.043 2.73319 7.75713C2.73319 7.75713 2.73835 6.88433 2.83974 5.51516C3.63307 4.81367 4.72646 4.08819 4.72646 4.08819C3.8196 4.0304 3.14314 4.07477 3.14314 4.07477C3.35341 3.03557 3.82863 1.92052 3.82863 1.92052C1.90064 3.44914 0.543847 5.66505 0.122284 8.18798Z" fill="white"/>
</g>
<defs>
<clipPath id="clip0_413_137193">
<rect width="20.2002" height="20" fill="white"/>
</clipPath>
</defs>
</svg>
