<svg width="21" height="22" viewBox="0 0 21 22" fill="none" xmlns="http://www.w3.org/2000/svg">
<path d="M11.018 21.9281C11.7716 21.8564 12.4894 21.7486 13.1713 21.5334C13.2073 21.5334 13.2073 21.4974 13.2073 21.4974V21.4615C12.346 20.4924 10.9462 18.5545 10.0131 16.7959C10.4796 18.6981 10.8744 20.7796 10.9822 21.8563C10.9822 21.9041 10.9942 21.928 11.0181 21.928" fill="#C6C6C6"/>
<path d="M14.9657 2.18915C14.9657 2.15322 14.9657 2.11745 14.9298 2.11745L11.628 0.215271H11.5921C11.5562 0.215271 11.5562 0.251202 11.5204 0.251202C11.3409 0.969047 9.83365 8.00316 12.274 16.3653C11.4485 10.9102 13.6019 4.88088 14.9657 2.18915Z" fill="#C6C6C6"/>
<path d="M13.9608 21.3181C9.33108 13.8531 10.0489 3.30178 10.5873 0.0717078C10.5873 0.0357771 10.5513 0 10.5156 0C9.90551 0.251207 5.81417 1.90217 5.38346 2.04574C5.34753 2.04574 5.34753 2.08167 5.34753 2.11745C6.17302 5.92165 8.29047 14.8939 13.9609 21.3181" fill="#6D6E71"/>
<path d="M7.60855 21.5693C7.60855 21.6052 7.60855 21.641 7.64448 21.641C8.43404 21.8563 9.29545 21.9641 10.1567 21.9998C10.1926 21.9998 10.2284 21.9639 10.2284 21.9281C10.1208 20.1338 9.69007 16.4013 8.18268 13.0636C8.64916 16.437 8.07504 19.9183 7.6084 21.5693" fill="#6D6E71"/>
<path d="M6.42406 21.2104C6.49577 21.1387 6.49577 20.9952 6.49577 20.9233C6.49577 20.8874 6.45984 20.8874 6.45984 20.8516C3.12228 19.4159 0.933122 15.54 0.933122 11.6999C0.933122 8.68524 2.22509 5.38346 4.45018 3.69656V3.66063C4.45018 3.58892 4.37847 3.48113 4.37847 3.40942C4.37847 3.37349 4.34254 3.37349 4.30676 3.37349H4.27083C1.65097 5.23973 0 8.25453 0 11.6999C0.0359306 16.0065 2.69173 19.7032 6.42406 21.2104Z" fill="#F18800"/>
<path d="M15.8988 3.15822C15.8629 3.15822 15.8271 3.15822 15.8271 3.19415L15.7195 3.40943V3.44536C15.7195 3.46931 15.7315 3.48129 15.7554 3.48129C18.2317 5.16803 19.6315 8.54167 19.6315 11.7358C19.6315 15.3247 17.9088 18.9137 14.9301 20.4928L14.8942 20.5287V20.5646L15.0377 20.7799L15.0737 20.8158H15.1096C18.3397 19.0932 20.5288 15.6837 20.5288 11.7717C20.5288 8.1469 18.6626 4.98869 15.8991 3.15837" fill="#F18800"/>
</svg>
