<svg width="32" height="32" viewBox="0 0 32 32" fill="none" xmlns="http://www.w3.org/2000/svg">
<g clip-path="url(#clip0_34_179)">
<path fill-rule="evenodd" clip-rule="evenodd" d="M0.370004 4.92L3.76 9.21L5.56 10.17L5.67 11.64L13.24 21.24H15.41L16 18.18L10.1 11.64L7.81 10.71L7.91 9.21L2.3 2.99C1.75 2.48 0.900004 2.46 0.370004 2.99C-0.159996 3.53 -0.0899961 4.33 0.370004 4.92Z" fill="#FE8607"/>
<path fill-rule="evenodd" clip-rule="evenodd" d="M18.17 27.5C19.92 29.41 20.72 30.12 24.03 29.1L25.58 28.62L28.28 25.73L27.73 22.83L23.32 24.18C22.32 24.49 21.13 23.76 20.3 22.97L18.74 21.24L16.23 21.71L15.99 24.74L18.16 27.49L18.17 27.5Z" fill="#FE8607"/>
<path fill-rule="evenodd" clip-rule="evenodd" d="M25.58 28.62L28.83 27.62C30.06 27.24 30.39 27.34 30.91 25.98L31.83 23.56C32.34 22.22 31.6 21.64 30.48 21.98L27.73 22.82L25.57 28.61L25.58 28.62Z" fill="#F8F2F0"/>
<path fill-rule="evenodd" clip-rule="evenodd" d="M5.67001 11.65H10.1L7.91001 9.22H3.76001L5.67001 11.65Z" fill="#F8F2F0"/>
<path fill-rule="evenodd" clip-rule="evenodd" d="M16.11 8.68C18.29 8.68 20.05 7.89 20.05 6.9V4.28H12.17V6.91C12.17 7.89 13.93 8.69 16.11 8.69V8.68Z" fill="#668D97"/>
<path fill-rule="evenodd" clip-rule="evenodd" d="M12.17 4.28C12.17 5.26 13.93 6.06 16.11 6.06C18.29 6.06 20.05 5.26 20.05 4.28C20.05 3.3 18.29 2.5 16.11 2.5C13.93 2.5 12.17 3.29 12.17 4.28Z" fill="#7CA2B1"/>
<path fill-rule="evenodd" clip-rule="evenodd" d="M11.69 22.98L21.91 11.65L23.94 10.52L24.1 9.22L29.7 2.99C30.24 2.48 31.1 2.46 31.62 2.99C32.15 3.52 32.08 4.33 31.62 4.92L28.23 9.21L26.19 10.56L26.31 11.64L13.82 27.49C12.07 29.4 11.27 30.11 7.96 29.09L6.41 28.61L2.62 25.55L4.25 22.82L8.66 24.17C9.66 24.48 10.85 23.75 11.68 22.96L11.69 22.98Z" fill="#FEC165"/>
<path fill-rule="evenodd" clip-rule="evenodd" d="M3.15999 27.62L6.40999 28.62L4.24999 22.83L1.49999 21.99C0.379993 21.65 -0.360007 22.23 0.149993 23.57L1.06999 25.99C1.58999 27.35 1.90999 27.25 3.14999 27.63L3.15999 27.62Z" fill="#F8F2F0"/>
<path fill-rule="evenodd" clip-rule="evenodd" d="M21.9 11.65H26.33L28.25 9.22H24.1L21.91 11.65H21.9Z" fill="#F8F2F0"/>
<path fill-rule="evenodd" clip-rule="evenodd" d="M17.15 5.99C18.82 5.79 20.05 5.1 20.05 4.28C20.05 3.46 18.9 2.82 17.31 2.59C18.06 3 18.52 3.57 18.52 4.2C18.52 4.23 18.52 4.26 18.52 4.28C18.47 5 17.81 5.64 16.82 6.03C16.93 6.03 17.04 6.01 17.14 6L17.15 5.99Z" fill="#668D97"/>
<path fill-rule="evenodd" clip-rule="evenodd" d="M17.04 8.63C18.77 8.44 20.05 7.74 20.05 6.9V4.28C20.05 5.1 18.82 5.79 17.15 5.99C17.04 6 16.94 6.01 16.83 6.02V8.65C16.9 8.65 16.98 8.64 17.05 8.63H17.04Z" fill="#547884"/>
<path fill-rule="evenodd" clip-rule="evenodd" d="M3.15999 27.62L6.40999 28.62L5.64999 26.58L2.37999 25.57C1.14999 25.19 0.819988 25.29 0.299988 23.93L1.07999 25.98C1.59999 27.34 1.91999 27.24 3.15999 27.62Z" fill="#EEE1DC"/>
<path fill-rule="evenodd" clip-rule="evenodd" d="M7.97001 29.1C11.29 30.12 12.08 29.41 13.84 27.5L16.01 24.75L17.31 23.1L18.76 21.25L26.33 11.65H23.94L16.53 21.05L13.06 25.46C11.31 27.37 10.51 28.08 7.20001 27.06L5.67001 26.59L6.43001 28.63L7.98001 29.11L7.97001 29.1Z" fill="#FEA610"/>
<path fill-rule="evenodd" clip-rule="evenodd" d="M23.93 11.65H26.32L28.24 9.22H25.85L23.93 11.65Z" fill="#EEE1DC"/>
<path fill-rule="evenodd" clip-rule="evenodd" d="M25.85 9.22H28.24L31.62 4.92C32.08 4.33 32.15 3.52 31.62 2.99C31.44 2.81 31.23 2.69 31 2.64C30.95 2.72 30.9 2.8 30.84 2.88L25.84 9.22H25.85Z" fill="#FEA610"/>
<path fill-rule="evenodd" clip-rule="evenodd" d="M0.370014 4.92L3.75001 9.22H6.23001L4.55001 7.09L1.17001 2.79C1.13001 2.74 1.09001 2.69 1.06001 2.63C0.810014 2.68 0.570014 2.8 0.380014 3C-0.149986 3.53 -0.0799864 4.34 0.380014 4.93H0.370014V4.92Z" fill="#F46700"/>
<path fill-rule="evenodd" clip-rule="evenodd" d="M3.76001 9.22L5.67001 11.65H8.15001L6.47001 9.52L6.24001 9.22H3.76001Z" fill="#EEE1DC"/>
<path fill-rule="evenodd" clip-rule="evenodd" d="M16 24.75L18.17 27.5C19.92 29.41 20.72 30.12 24.03 29.1L25.58 28.62L26.37 26.49L24.82 26.97C21.5 27.99 20.71 27.28 18.96 25.37L17.23 23.18L15.99 24.75H16Z" fill="#F46700"/>
<path fill-rule="evenodd" clip-rule="evenodd" d="M25.58 28.62L28.83 27.62C30.06 27.24 30.39 27.34 30.91 25.98L31.83 23.56C31.87 23.45 31.91 23.34 31.93 23.24L31.7 23.84C31.18 25.2 30.86 25.1 29.62 25.48L28.05 25.96L26.37 26.48L25.58 28.61V28.62Z" fill="#EEE1DC"/>
<path fill-rule="evenodd" clip-rule="evenodd" d="M5.67001 11.65L13.24 21.25L14.56 19.79L8.15001 11.65H5.67001Z" fill="#F46700"/>
</g>
<defs>
<clipPath id="clip0_34_179">
<rect width="32" height="27.06" fill="white" transform="translate(0 2.5)"/>
</clipPath>
</defs>
</svg>
