<svg width="20" height="28" viewBox="0 0 20 28" fill="none" xmlns="http://www.w3.org/2000/svg">
<g clip-path="url(#clip0_476_129306)">
<path d="M19.3336 1.71478H0.81543V4.86926H19.3336V1.71478Z" fill="white" stroke="black" stroke-width="2.05"/>
<path d="M10.0001 25.7847C9.97539 25.7847 8.15036 24.7515 5.94406 23.4888L1.93285 21.1929L1.92736 14.4442L1.92188 7.69543H18.0774L18.0719 14.4442L18.0664 21.1929L14.0552 23.4888C11.8498 24.7515 10.0248 25.7838 10.0001 25.7838V25.7847ZM9.36644 23.7348C9.3957 23.7302 9.40027 23.3334 9.40575 20.3517L9.41215 16.9742L11.1878 15.9638C12.1643 15.4079 12.9744 14.9498 12.9872 14.9452C13.0037 14.9398 13.0101 16.0671 13.0101 18.6291C13.0101 21.8659 13.0137 22.3221 13.043 22.3331C13.0622 22.3404 13.3502 22.1932 13.715 21.9902L14.3542 21.6346L14.3597 17.8931L14.3651 14.1516L15.2036 13.6734L16.042 13.1952L16.0475 12.3247L16.053 11.4543L15.9698 11.489C15.9241 11.5082 15.5492 11.7176 15.1359 11.9544C14.7236 12.1912 14.3807 12.3851 14.3752 12.3851C14.3697 12.3851 14.3642 11.97 14.3642 11.4625V10.5399H16.6976V9.18398H13.0092V13.1742L12.4816 13.4759L11.954 13.7776L11.9485 11.4808L11.943 9.18398H6.32077L6.37929 9.27633C6.41129 9.32753 6.64719 9.63201 6.9032 9.95386L7.3686 10.539H8.05436V16.0022L6.36009 16.9687L4.66581 17.9351L4.66033 13.5591L4.65484 9.18307H3.29979V20.4048H3.36105C3.40036 20.4048 4.22876 19.9485 5.73285 19.0973L8.0443 17.7898L8.05527 20.4002L8.06624 23.0106L8.69988 23.3745C9.04825 23.5748 9.34815 23.7357 9.36644 23.7321V23.7348ZM9.52736 15.1638L9.41033 15.2305V10.5189H10.6099V12.536L10.609 14.553L10.1263 14.8255C9.8611 14.9754 9.59045 15.1281 9.52645 15.1647L9.52736 15.1638Z" fill="#F5D77F"/>
<path d="M10 5.54128H0.5V0.852539H19.5V5.54128H10ZM7.32647 4.38464C7.3475 4.38464 7.39047 4.37367 7.42247 4.35904C7.45448 4.34441 7.49471 4.30509 7.51208 4.27126C7.53585 4.22554 7.54408 4.12039 7.54408 3.86438V3.51876H8.29933V3.89638C8.29933 4.24291 8.30298 4.27766 8.34321 4.31789C8.36699 4.34166 8.4127 4.36818 8.44379 4.37549C8.47488 4.38372 8.53065 4.37732 8.56723 4.36178C8.60472 4.34624 8.64952 4.30509 8.66781 4.26943C8.69615 4.21457 8.69981 4.08382 8.69432 3.42275L8.68792 2.64008L8.62483 2.50384C8.59009 2.42795 8.51602 2.3228 8.45842 2.26611C8.40082 2.21034 8.29475 2.13627 8.22161 2.10244C8.11097 2.05124 8.05794 2.04118 7.91073 2.04118C7.76261 2.04118 7.70958 2.05215 7.59437 2.10427C7.50934 2.14267 7.4179 2.20759 7.35756 2.27251C7.30361 2.33011 7.2396 2.41606 7.21583 2.46361C7.19206 2.51115 7.16097 2.6035 7.14726 2.66751C7.13171 2.74157 7.12257 3.05336 7.12348 3.50047C7.12348 4.05182 7.1308 4.22829 7.15366 4.26943C7.17011 4.29869 7.20669 4.33618 7.23595 4.35172C7.26521 4.36818 7.30635 4.38189 7.32738 4.38189L7.32647 4.38464ZM7.9217 3.09633H7.54408V2.87323C7.54408 2.73608 7.55597 2.6227 7.57425 2.57881C7.59071 2.5395 7.64009 2.47549 7.68489 2.43618C7.72878 2.39686 7.80101 2.35846 7.84398 2.35114C7.88696 2.34291 7.95736 2.34291 8.00034 2.35114C8.04331 2.35937 8.11463 2.39777 8.15943 2.43618C8.20332 2.47549 8.25361 2.5395 8.27007 2.57881C8.28835 2.6227 8.30024 2.737 8.30024 2.87323V3.09633H7.92262H7.9217ZM9.5282 4.38464C9.55014 4.38464 9.59586 4.37092 9.62969 4.35355C9.66352 4.33618 9.70284 4.29595 9.71747 4.26394C9.73393 4.22646 9.74398 4.08108 9.74398 3.86255V3.51876H10.1317C10.3849 3.51876 10.5395 3.50961 10.5779 3.49224C10.6099 3.47761 10.6501 3.43829 10.6675 3.40446C10.6848 3.37063 10.6995 3.32857 10.6995 3.30937C10.6995 3.29017 10.6876 3.24994 10.673 3.21794C10.6583 3.18594 10.619 3.14571 10.5852 3.12833C10.5395 3.10456 10.4279 3.09633 10.1344 3.09633H9.74398V2.90158C9.74398 2.74797 9.75313 2.69219 9.78787 2.63642C9.81165 2.5971 9.86102 2.54956 9.89759 2.53127C9.95063 2.50384 10.0448 2.49652 10.3438 2.49652C10.6428 2.49652 10.7388 2.48829 10.7854 2.46452C10.8192 2.44715 10.8586 2.40692 10.8732 2.37492C10.8878 2.34291 10.8997 2.2972 10.8997 2.27434C10.8997 2.25148 10.8878 2.20576 10.8732 2.17376C10.8586 2.14176 10.8192 2.10153 10.7854 2.08416C10.7397 2.06038 10.6309 2.05215 10.3557 2.05215C10.0411 2.05215 9.96525 2.05947 9.84182 2.09879C9.76227 2.12439 9.65529 2.17742 9.60409 2.21674C9.55289 2.25605 9.4834 2.3292 9.44865 2.3804C9.41391 2.43161 9.37185 2.54041 9.35448 2.62362C9.3307 2.737 9.32247 2.95187 9.32339 3.49681C9.32339 4.05456 9.3307 4.23103 9.35356 4.27217C9.37002 4.30143 9.40659 4.33892 9.43585 4.35446C9.46511 4.37092 9.50717 4.38464 9.52911 4.38464H9.5282ZM11.4812 4.38464C11.5023 4.38464 11.5452 4.37367 11.5772 4.35904C11.6092 4.34441 11.6495 4.30509 11.6668 4.27126C11.6906 4.22554 11.6988 4.12039 11.6988 3.86438V3.51876H12.4541V3.89638C12.4541 4.24291 12.4577 4.27766 12.498 4.31789C12.5218 4.34166 12.5675 4.36818 12.5986 4.37549C12.6296 4.38372 12.6854 4.37732 12.722 4.36178C12.7586 4.34624 12.8043 4.30509 12.8226 4.26943C12.8509 4.21457 12.8546 4.08382 12.8491 3.42275L12.8427 2.64008L12.7796 2.50384C12.7449 2.42795 12.6708 2.3228 12.6132 2.26611C12.5565 2.21034 12.4495 2.13627 12.3764 2.10244C12.2657 2.05124 12.2127 2.04118 12.0655 2.04118C11.9174 2.04118 11.8643 2.05215 11.7491 2.10427C11.6641 2.14267 11.5727 2.20759 11.5123 2.27251C11.4584 2.33011 11.3944 2.41606 11.3706 2.46361C11.3468 2.51115 11.3157 2.6035 11.302 2.66751C11.2865 2.74157 11.2773 3.05336 11.2782 3.50047C11.2782 4.05182 11.2856 4.22829 11.3084 4.26943C11.3249 4.29869 11.3615 4.33618 11.3907 4.35172C11.42 4.36818 11.4611 4.38189 11.4821 4.38189L11.4812 4.38464ZM12.0765 3.09633H11.6988V2.87323C11.6988 2.73608 11.7107 2.6227 11.729 2.57881C11.7455 2.5395 11.7949 2.47549 11.8397 2.43618C11.8845 2.39686 11.9558 2.35846 11.9987 2.35114C12.0417 2.34291 12.1121 2.34291 12.1551 2.35114C12.1981 2.35937 12.2694 2.39777 12.3142 2.43618C12.359 2.47549 12.4084 2.5395 12.4248 2.57881C12.4431 2.6227 12.455 2.737 12.455 2.87323V3.09633H12.0774H12.0765ZM3.75414 3.87444H6.52093V2.58521H0.989172V3.87444H3.75597H3.75414ZM16.2431 3.87444H19.0099V2.58521H13.4763V3.87444H16.2431Z" fill="#0AB9D8"/>
<path d="M10.0219 27.4946C9.99726 27.4937 7.84764 26.2657 5.24451 24.7653L0.510972 22.0387L0.505486 14.1571L0.5 6.27551H19.4552L19.4497 14.191L19.4442 22.1064L14.7555 24.8019C12.177 26.284 10.0466 27.4964 10.0219 27.4946ZM10 25.7857C10.0247 25.7857 11.8497 24.7534 14.0551 23.4907L18.0663 21.1948L18.0718 14.4461L18.0773 7.69731H1.9218L1.92729 14.4461L1.93277 21.1948L5.94398 23.4907C8.15029 24.7534 9.97531 25.7866 10 25.7866V25.7857Z" fill="#DAA813"/>
<path d="M9.36646 23.7348C9.34817 23.7376 9.04826 23.5767 8.6999 23.3773L8.06626 23.0134L8.05529 20.403L8.04432 17.7925L5.73287 19.1C4.22877 19.9513 3.40038 20.4076 3.36107 20.4076H3.2998V9.18585H4.65486L4.66034 13.5619L4.66583 17.9379L6.3601 16.9715L8.05438 16.005V10.5418H7.36862L6.90322 9.95664C6.64721 9.63479 6.41131 9.3294 6.3793 9.27912L6.32079 9.18677H11.9431L11.9486 11.4836L11.954 13.7804L12.4816 13.4787L13.0092 13.1769V9.18677H16.6976V10.5427H14.3642V11.4653C14.3642 11.9728 14.3697 12.3879 14.3752 12.3879C14.3807 12.3879 14.7236 12.194 15.1359 11.9572C15.5483 11.7204 15.9232 11.511 15.9698 11.4918L16.053 11.4571L16.0475 12.3275L16.0421 13.198L15.2036 13.6762L14.3652 14.1544L14.3597 17.8959L14.3542 21.6373L13.7151 21.993C13.3493 22.196 13.0613 22.3432 13.043 22.3359C13.0147 22.3249 13.0101 21.8687 13.0101 18.6319C13.0101 16.0699 13.0028 14.9425 12.9872 14.948C12.9744 14.9526 12.1643 15.4107 11.1878 15.9666L9.41217 16.9769L9.40577 20.3545C9.40029 23.3362 9.39571 23.7321 9.36646 23.7376V23.7348ZM9.52738 15.1638C9.59138 15.1272 9.86111 14.9745 10.1272 14.8246L10.61 14.5521V12.5351L10.6109 10.518H9.41126V15.2296L9.52829 15.1629L9.52738 15.1638Z" fill="#004A79"/>
</g>
<defs>
<clipPath id="clip0_476_129306">
<rect width="19" height="26.6421" fill="white" transform="translate(0.5 0.852539)"/>
</clipPath>
</defs>
</svg>
