<svg width="23" height="25" viewBox="0 0 23 25" fill="none" xmlns="http://www.w3.org/2000/svg">
<path d="M12.3073 23.9951C13.115 23.9182 13.8843 23.8027 14.6151 23.572C14.6536 23.572 14.6536 23.5335 14.6536 23.5335V23.495C13.7306 22.4565 12.2305 20.3796 11.2305 18.4949C11.7304 20.5335 12.1535 22.7642 12.269 23.918C12.269 23.9693 12.2818 23.9949 12.3075 23.9949" fill="#C6C6C6"/>
<path d="M16.5382 2.8412C16.5382 2.80269 16.5382 2.76435 16.4996 2.76435L12.9612 0.72583H12.9227C12.8842 0.72583 12.8842 0.764336 12.8458 0.764336C12.6535 1.53364 11.0382 9.07195 13.6535 18.0335C12.7688 12.1873 15.0766 5.72587 16.5382 2.8412Z" fill="#C6C6C6"/>
<path d="M15.4611 23.3413C10.4995 15.3412 11.2688 4.03357 11.8458 0.571965C11.8458 0.533459 11.8073 0.495117 11.7689 0.495117C11.1152 0.764331 6.73055 2.53364 6.26897 2.6875C6.23047 2.6875 6.23047 2.726 6.23047 2.76435C7.11512 6.84122 9.38435 16.4566 15.4612 23.3413" fill="#6D6E71"/>
<path d="M8.65349 23.6105C8.65349 23.649 8.65348 23.6873 8.69199 23.6873C9.53814 23.918 10.4613 24.0336 11.3843 24.0719C11.4228 24.0719 11.4611 24.0334 11.4611 23.995C11.3458 22.072 10.8842 18.072 9.26876 14.4951C9.76868 18.1104 9.15341 21.8412 8.65332 23.6105" fill="#6D6E71"/>
<path d="M7.38453 23.2259C7.46138 23.1491 7.46138 22.9952 7.46138 22.9182C7.46138 22.8797 7.42288 22.8797 7.42288 22.8413C3.84608 21.3027 1.50001 17.149 1.50001 13.0336C1.50001 9.8029 2.88458 6.26445 5.26917 4.45664V4.41813C5.26917 4.34128 5.19232 4.22577 5.19232 4.14892C5.19232 4.11041 5.15381 4.11041 5.11547 4.11041H5.07696C2.26931 6.11043 0.5 9.34132 0.5 13.0336C0.538506 17.6489 3.38467 21.6106 7.38453 23.2259Z" fill="#F18800"/>
<path d="M17.5386 3.8797C17.5001 3.8797 17.4618 3.8797 17.4618 3.91821L17.3464 4.14891V4.18742C17.3464 4.21309 17.3592 4.22593 17.3849 4.22593C20.0387 6.03358 21.5388 9.64904 21.5388 13.0721C21.5388 16.9183 19.6926 20.7645 16.5004 22.4568L16.4619 22.4953V22.5338L16.6158 22.7645L16.6543 22.803H16.6928C20.1544 20.9568 22.5005 17.303 22.5005 13.1106C22.5005 9.22596 20.5004 5.84137 17.5389 3.87986" fill="#F18800"/>
</svg>
