<svg width="19" height="30" viewBox="0 0 19 30" fill="none" xmlns="http://www.w3.org/2000/svg">
<g clip-path="url(#clip0_476_129228)">
<path d="M1.06829 29.5782C0.80309 29.4646 0.613659 29.3509 0.5 29.2373V29.1615L0.878863 28.7069C0.878863 28.7069 0.916749 28.669 0.954635 28.7069C1.25773 28.9342 1.56082 29.0478 1.86391 29.0478C2.24277 29.0478 2.4322 28.8963 2.4322 28.6311C2.4322 28.4416 2.31854 28.328 1.90179 28.2522H1.71236C0.992522 28.1386 0.613659 27.7976 0.613659 27.1914C0.613659 26.8883 0.727318 26.6231 0.954635 26.4337C1.14407 26.2442 1.48504 26.1306 1.86391 26.1306C2.31854 26.1306 2.73529 26.2442 3.03838 26.5094C3.07627 26.5094 3.07627 26.5473 3.03838 26.5852L2.73529 27.0399C2.71003 27.0651 2.68478 27.0777 2.65952 27.0777C2.39431 26.8883 2.12911 26.7747 1.86391 26.7747C1.56082 26.7747 1.37138 26.9641 1.37138 27.1535C1.37138 27.3808 1.56082 27.4945 1.93968 27.5324L2.09122 27.5703C2.84895 27.6839 3.22781 28.0249 3.22781 28.6311C3.22781 29.2751 2.6974 29.6919 1.82545 29.6919C1.56024 29.6919 1.33292 29.654 1.06772 29.5782" fill="white"/>
<path d="M3.7207 26.2437C3.7207 26.2184 3.74596 26.2058 3.79648 26.2058H6.03234C6.0576 26.2058 6.07023 26.2184 6.07023 26.2437V26.7741C6.07023 26.812 6.07023 26.8499 6.03234 26.8499H4.51632C4.49106 26.8499 4.47843 26.8625 4.47843 26.8878V27.5697C4.47843 27.5697 4.47843 27.6076 4.51632 27.6076H5.76656C5.79182 27.6076 5.80445 27.6202 5.80445 27.6455V28.1759C5.80445 28.2138 5.80445 28.2517 5.76656 28.2517H4.47843V28.9715C4.47843 28.9968 4.49106 29.0094 4.51632 29.0094H6.03234C6.0576 29.0094 6.07023 29.022 6.07023 29.0473V29.6156C6.07023 29.6408 6.0576 29.6535 6.03234 29.6535H3.79648C3.74596 29.6535 3.7207 29.6408 3.7207 29.6156V26.2431" fill="white"/>
<path d="M8.60896 29.654C8.57107 29.654 8.53319 29.654 8.53319 29.6161L7.927 28.3274H7.47237C7.43448 28.3274 7.43448 28.3653 7.43448 28.3653V29.6156C7.43448 29.6408 7.40923 29.6535 7.35871 29.6535H6.71464C6.68939 29.6535 6.67676 29.6408 6.67676 29.6156V26.2431C6.67676 26.2179 6.68939 26.2052 6.71464 26.2052H8.11701C8.45799 26.2052 8.76108 26.3189 8.98839 26.5083C9.17783 26.6978 9.32937 26.963 9.32937 27.266C9.32937 27.7207 9.06417 28.0617 8.6853 28.2511L9.40514 29.6156C9.40514 29.6156 9.40514 29.6535 9.32937 29.6535H8.60953M8.07912 27.7207C8.38221 27.7207 8.57165 27.5313 8.57165 27.266C8.57165 27.0387 8.38221 26.8493 8.07912 26.8493H7.47294C7.44769 26.8493 7.43506 26.8619 7.43506 26.8872V27.6828C7.43506 27.6828 7.43506 27.7207 7.47294 27.7207H8.07912Z" fill="white"/>
<path d="M9.93555 26.2437C9.93555 26.2184 9.94817 26.2058 9.97343 26.2058H10.6175C10.6428 26.2058 10.6554 26.2184 10.6554 26.2437V29.6162C10.6554 29.6414 10.6428 29.654 10.6175 29.654H9.97343C9.94817 29.654 9.93555 29.6414 9.93555 29.6162V26.2437Z" fill="white"/>
<path d="M11.376 26.2437C11.376 26.2058 11.4139 26.2058 11.4139 26.2058H13.6876C13.6876 26.2058 13.7255 26.2058 13.7255 26.2437V26.7741C13.7255 26.812 13.6876 26.8499 13.6876 26.8499H12.1716C12.1716 26.8499 12.1337 26.8499 12.1337 26.8878V27.5697L12.1716 27.6076H13.4218C13.4597 27.6076 13.4976 27.6076 13.4976 27.6455V28.1759C13.4976 28.2138 13.4597 28.2517 13.4218 28.2517H12.1337V28.9715C12.1337 29.0094 12.1716 29.0094 12.1716 29.0094H13.6876C13.6876 29.0094 13.7255 29.0094 13.7255 29.0473V29.6156C13.7255 29.6535 13.6876 29.6535 13.6876 29.6535H11.4139C11.4139 29.6535 11.376 29.6535 11.376 29.6156V26.2431" fill="white"/>
<path d="M16.5297 26.2437C16.5297 26.2184 16.555 26.2058 16.6055 26.2058H17.2117C17.2622 26.2058 17.2875 26.2184 17.2875 26.2437L18.4998 29.6162C18.4998 29.6414 18.4746 29.654 18.4241 29.654H17.78C17.7421 29.654 17.7042 29.654 17.7042 29.6162L17.5148 29.01H16.2645L16.0751 29.6162C16.0751 29.6414 16.0499 29.654 15.9993 29.654H15.3174V29.6162L16.5297 26.2437ZM16.4919 28.3659H17.2875L16.9086 27.1535H16.8707L16.4919 28.3659Z" fill="white"/>
<path d="M0.689453 23.5153H6.56297V24.2351H0.689453V23.5153Z" fill="#009246"/>
<path d="M6.5625 23.5153H12.3987V24.2351H6.5625V23.5153Z" fill="#E3E3E2"/>
<path d="M12.3994 23.5153H18.2729V24.2351H12.3994V23.5153Z" fill="#CE2B37"/>
<path d="M9.48145 7.02731V16.5173H12.8924L9.48145 7.02731Z" fill="url(#paint0_linear_476_129228)"/>
<path d="M6.06934 16.5172H9.4814V7.02844L6.06934 16.5172Z" fill="url(#paint1_linear_476_129228)"/>
<path d="M18.1947 16.5172L9.48145 21.8558L12.8924 16.5172H18.1947Z" fill="url(#paint2_linear_476_129228)"/>
<path d="M9.48145 16.5172H12.8924L9.48145 21.8558V16.5172Z" fill="url(#paint3_linear_476_129228)"/>
<path d="M0.761719 16.5172L9.4813 21.8558L6.06924 16.5172H0.761719Z" fill="url(#paint4_linear_476_129228)"/>
<path d="M9.4814 21.8558V16.5172H6.06934L9.4814 21.8558Z" fill="url(#paint5_linear_476_129228)"/>
<path d="M18.1973 16.5172L11.2624 0.32373H7.66265L0.765625 16.5172H6.07085L9.48119 7.03132L11.0667 11.4273H9.48119L8.57192 14.1557H12.0454L12.8915 16.5172H18.1968" fill="#008FD7"/>
</g>
<defs>
<linearGradient id="paint0_linear_476_129228" x1="8.3615" y1="8.72244" x2="11.4102" y2="17.0224" gradientUnits="userSpaceOnUse">
<stop stop-color="#0C5EAD"/>
<stop offset="1" stop-color="#033B82"/>
</linearGradient>
<linearGradient id="paint1_linear_476_129228" x1="10.3488" y1="12.542" x2="7.68811" y2="11.747" gradientUnits="userSpaceOnUse">
<stop stop-color="#0C5EAD"/>
<stop offset="1" stop-color="#033B82"/>
</linearGradient>
<linearGradient id="paint2_linear_476_129228" x1="17.1414" y1="15.488" x2="8.9717" y2="20.7479" gradientUnits="userSpaceOnUse">
<stop stop-color="#0C5EAD"/>
<stop offset="1" stop-color="#033B82"/>
</linearGradient>
<linearGradient id="paint3_linear_476_129228" x1="11.5164" y1="15.9472" x2="8.50042" y2="21.1692" gradientUnits="userSpaceOnUse">
<stop stop-color="#0C5EAD"/>
<stop offset="1" stop-color="#033B82"/>
</linearGradient>
<linearGradient id="paint4_linear_476_129228" x1="1.9448" y1="15.5689" x2="9.85615" y2="20.6687" gradientUnits="userSpaceOnUse">
<stop stop-color="#0C5EAD"/>
<stop offset="1" stop-color="#033B82"/>
</linearGradient>
<linearGradient id="paint5_linear_476_129228" x1="7.93265" y1="19.0355" x2="9.94694" y2="17.1045" gradientUnits="userSpaceOnUse">
<stop stop-color="#0C5EAD"/>
<stop offset="1" stop-color="#033B82"/>
</linearGradient>
<clipPath id="clip0_476_129228">
<rect width="18" height="29.3682" fill="white" transform="translate(0.5 0.32373)"/>
</clipPath>
</defs>
</svg>
