<svg width="21" height="23" viewBox="0 0 21 23" fill="none" xmlns="http://www.w3.org/2000/svg">
<g clip-path="url(#clip0_476_129248)">
<path d="M18.1244 6.80891C18.7942 5.16888 19.5786 3.36332 20.4521 1.4457C20.5285 1.27762 20.5132 1.07898 20.4088 0.926185C20.3094 0.77848 20.1439 0.691895 19.9682 0.691895H19.9402L17.9334 0.79376C17.7144 0.803946 17.526 0.946558 17.4547 1.15284C17.4368 1.20631 17.4165 1.26234 17.3986 1.31582C17.2713 1.33874 17.1542 1.4075 17.0727 1.517C15.3511 3.79624 11.7986 4.20116 10.3496 4.26992C10.0669 4.28265 9.78675 4.29029 9.51935 4.29029C8.08305 4.29029 5.46511 4.07383 4.05937 2.62988C3.96005 2.53057 3.83271 2.47709 3.70029 2.47199C3.66209 2.39559 3.62389 2.32174 3.58569 2.24789C3.58314 2.2428 3.5806 2.23516 3.5755 2.23006C3.57041 2.22242 3.55258 2.18677 3.50929 2.10528C3.41761 1.92701 3.23426 1.81751 3.03562 1.81751C3.01779 1.81751 2.99996 1.81751 2.98214 1.82005L0.980483 2.02124C0.792032 2.03906 0.6265 2.15876 0.547555 2.33193C0.468609 2.5051 0.488982 2.70883 0.601034 2.86163C0.613767 2.87691 1.79541 4.53222 3.0458 6.95407C1.64006 8.68578 0.865884 10.8657 0.865884 13.0991C0.865884 15.5795 1.79795 17.9428 3.48892 19.7535C5.17225 21.5565 7.44894 22.6464 9.90135 22.8272H9.90644C10.0032 22.8349 10.1051 22.84 10.2197 22.8451C10.2426 22.8451 10.2681 22.8476 10.2935 22.8476C10.4183 22.8527 10.5227 22.8527 10.6195 22.8527C10.7163 22.8527 10.8207 22.8502 10.9455 22.8476C10.9709 22.8476 10.9939 22.8451 11.0193 22.8451C11.1339 22.84 11.2358 22.8349 11.3326 22.8272H11.3377C13.7901 22.649 16.0668 21.5565 17.7501 19.7535C19.4436 17.9428 20.3757 15.577 20.3757 13.0966C20.3757 10.83 19.5811 8.61957 18.1346 6.87512C18.1244 6.86494 18.1168 6.85475 18.1066 6.84711V6.84457C18.1117 6.83183 18.1193 6.82165 18.1244 6.80891Z" fill="white"/>
<path d="M6.42773 13.192C7.6272 14.6793 8.69679 16.3244 8.69679 18.2598C8.69679 19.444 8.29696 20.9465 7.98373 21.9321C8.81903 22.1817 9.70271 22.3166 10.6195 22.3166C11.5363 22.3166 12.4149 22.1817 13.2476 21.9346C12.9369 20.9491 12.5346 19.4466 12.5346 18.2598C12.5346 16.3244 13.6067 14.6793 14.8036 13.192L10.6169 5.55212L6.42773 13.192ZM7.71379 13.0622C7.71379 11.4603 9.01257 10.159 10.6144 10.159C12.2162 10.159 13.515 11.4578 13.515 13.0622C13.515 14.6665 12.2162 15.9628 10.6144 15.9628C9.01257 15.9628 7.71379 14.664 7.71379 13.0622Z" fill="url(#paint0_linear_476_129248)"/>
<path d="M10.3744 4.80344C6.30743 4.99698 4.45093 3.80006 3.67676 3.00297C5.06977 5.77625 6.1037 8.47569 6.748 11.0325C6.81931 11.3101 6.88297 11.5851 6.94409 11.8602L10.4508 5.46302L10.6163 5.15997L10.7819 5.46302L14.365 11.9977C14.9303 9.77956 15.8879 6.59882 17.4999 1.83661C16.8098 2.7483 14.8769 4.58952 10.3744 4.80344Z" fill="url(#paint1_linear_476_129248)"/>
<path d="M12.7227 18.2599C12.7227 18.8227 12.8169 19.4619 12.9493 20.0858C13.2753 19.9763 13.5911 19.8464 13.8941 19.6962C13.7108 18.7743 13.5605 17.7786 13.5605 16.9815C13.5605 16.4823 13.586 15.8966 13.7158 15.046C13.1403 16.0163 12.7227 17.0884 12.7227 18.2599Z" fill="url(#paint2_linear_476_129248)"/>
<path d="M7.55564 17.2896C7.54545 18.2242 7.4716 19.0289 7.36719 19.7063C7.6626 19.8515 7.96819 19.9788 8.28143 20.0832C8.41385 19.4593 8.50553 18.8227 8.50553 18.2599C8.50553 17.4449 8.35528 16.4314 7.44359 14.9416C7.52763 15.7463 7.56328 16.5307 7.55564 17.2896Z" fill="url(#paint3_linear_476_129248)"/>
<path d="M17.9611 1.32472C16.1937 6.50712 15.1522 9.94508 14.5563 12.3491L14.9688 13.1029L15.0299 13.215L14.951 13.3143C14.6607 13.6734 14.3703 14.0528 14.0979 14.4526C13.9018 15.5324 13.833 16.3244 13.833 16.984C13.833 17.7301 13.9731 18.6775 14.1488 19.5663C14.4009 19.4288 14.6428 19.2734 14.8771 19.1079C14.7523 18.5603 14.6581 18.0077 14.6327 17.5035C14.5868 16.8923 14.6123 16.3932 14.6581 16.0214C14.7804 14.9747 15.2286 12.8737 16.7133 8.94425L16.7693 8.794C16.9781 8.24902 17.1997 7.67603 17.434 7.09794L17.6326 6.60644V6.60899C18.2692 5.0479 19.0383 3.26526 19.9704 1.2254L17.9611 1.32472Z" fill="url(#paint4_linear_476_129248)"/>
<path d="M1.0332 2.54715C1.0332 2.54715 2.23521 4.21774 3.52127 6.7109L3.52381 6.70835L3.63586 6.93245C3.93382 7.52073 4.23432 8.14975 4.52464 8.80932L4.56284 8.89846C5.90492 11.9875 6.99233 15.7591 6.43207 19.1538C6.65108 19.3066 6.87773 19.4466 7.11202 19.574C7.20879 18.9195 7.27755 18.1504 7.28519 17.2642C7.29283 16.3525 7.23681 15.4077 7.11457 14.4323C6.87773 14.0834 6.60269 13.7116 6.27927 13.3118L6.20033 13.2125L6.26145 13.1004L6.74276 12.2218C6.66381 11.8449 6.57468 11.4629 6.47791 11.0809C5.78777 8.35602 4.65452 5.46559 3.10871 2.49367C3.09598 2.47075 3.06542 2.41472 3.03231 2.34851L1.0332 2.54715Z" fill="url(#paint5_linear_476_129248)"/>
<path d="M7.99127 12.5401C7.7035 13.9892 8.64321 15.4 10.0948 15.6878C11.5438 15.9755 12.9547 15.0358 13.2424 13.5843C13.5302 12.1352 12.5879 10.7244 11.1389 10.4366C10.9632 10.401 10.7875 10.3857 10.6143 10.3857C9.36136 10.3857 8.24338 11.2668 7.99127 12.5401Z" fill="url(#paint6_linear_476_129248)"/>
<path d="M12.597 13.8361C12.5945 13.8081 12.5996 13.7801 12.6123 13.7572C12.6811 13.6426 12.8466 13.3217 12.8975 12.848C12.8975 12.8429 12.9077 12.8251 12.9154 12.8226C12.9383 12.8149 12.9587 12.8073 12.9765 12.7996C13.0019 13.0416 12.9918 13.286 12.9459 13.5229C12.8797 13.859 12.7396 14.1799 12.5359 14.455C12.6225 14.1952 12.6072 13.9405 12.597 13.8361ZM11.6395 15.1145C11.6293 15.1196 11.614 15.1222 11.5962 15.1171C11.446 15.0585 11.2422 14.8777 11.1582 14.8013C11.1505 14.7962 11.1531 14.7835 11.1556 14.7809C11.4918 14.3938 11.6726 14.0322 11.7184 13.9303C11.7235 13.9202 11.7312 13.9151 11.7414 13.9151C11.8381 13.9151 12.1794 13.9074 12.5283 13.8285H12.5308L12.5334 13.831C12.5741 14.1697 12.4875 14.4295 12.4468 14.5263C12.4391 14.5466 12.4239 14.5696 12.4188 14.5746C12.3602 14.6434 12.131 14.8879 11.6395 15.1145ZM11.6115 15.2062C11.6242 15.1935 11.6395 15.1782 11.6599 15.1706C11.6726 15.1655 11.8585 15.0789 12.0622 14.9439C11.9171 15.056 11.7592 15.1502 11.5937 15.2266C11.6013 15.2189 11.6064 15.2138 11.6115 15.2062ZM9.97145 14.8115C9.97399 14.8089 9.98418 14.8064 10.0122 14.8115L10.0198 14.814C10.1039 14.8319 10.2388 14.8522 10.412 14.8624C10.6361 14.8751 10.8577 14.8624 11.0665 14.8293C11.0741 14.8268 11.0818 14.8268 11.0869 14.8293C11.092 14.8293 11.0945 14.8319 11.0971 14.8344L11.0996 14.8395C11.3059 15.0432 11.4892 15.1425 11.558 15.1756V15.1807C11.5198 15.224 11.4765 15.2648 11.4281 15.3004C11.0207 15.4486 10.5801 15.482 10.1548 15.3972C9.98418 15.3616 9.81356 15.3081 9.65312 15.2368C9.61492 15.2062 9.58436 15.1757 9.55635 15.1425C9.5538 15.14 9.5538 15.1375 9.55125 15.1375C9.67859 15.0789 9.90524 14.8726 9.97145 14.8115ZM8.6039 13.7648C8.64465 13.7801 8.69813 13.7954 8.76689 13.8081C8.98335 13.8514 9.26858 13.8718 9.35516 13.8769C9.35771 13.8769 9.36026 13.8794 9.3628 13.8845C9.43411 14.0551 9.64548 14.46 9.92052 14.7682C9.92052 14.7682 9.92052 14.7707 9.91542 14.7758C9.66585 15.0076 9.54616 15.0687 9.50541 15.0814C9.50287 15.0814 9.49268 15.084 9.47995 15.0814C9.4774 15.0814 9.47485 15.0814 9.47231 15.0789C9.19982 14.9847 8.87894 14.6689 8.75161 14.539C8.73124 14.5135 8.71341 14.4881 8.69558 14.4626C8.63446 14.2843 8.60136 14.1213 8.59117 13.9813C8.58608 13.8692 8.59626 13.7979 8.6039 13.7648ZM8.40527 13.3548C8.46384 13.5356 8.52751 13.6782 8.54788 13.7164C8.54788 13.719 8.55043 13.7317 8.54788 13.7368C8.51477 13.9431 8.55043 14.1494 8.58862 14.2945C8.30595 13.831 8.19135 13.286 8.26266 12.7462C8.27539 12.7513 8.28812 12.7538 8.29576 12.7563C8.29067 12.9244 8.32887 13.1231 8.40527 13.3548ZM8.78472 11.8115C8.78472 11.8166 8.77962 11.8319 8.77708 11.8345C8.46129 12.2037 8.33651 12.5857 8.3034 12.7029C8.29067 12.6978 8.28048 12.6927 8.26775 12.6901C8.27284 12.6596 8.27794 12.6316 8.28303 12.601C8.36452 12.1986 8.54533 11.8243 8.81273 11.5161C8.78981 11.6078 8.77962 11.7071 8.78472 11.8115ZM10.5775 10.7394L10.5521 11.2029C10.5521 11.2105 10.5495 11.2309 10.5343 11.236C10.2338 11.3633 9.91542 11.562 9.63784 11.7988C9.62765 11.8065 9.62511 11.809 9.61492 11.809H9.60983C9.52833 11.7963 9.31951 11.7708 9.11833 11.7708C9.01137 11.7708 8.92223 11.7784 8.85348 11.7937C8.85093 11.7377 8.85348 11.5569 8.92223 11.399C9.30423 11.0094 9.81356 10.7649 10.3484 10.7038C10.4018 10.7063 10.4579 10.7139 10.5088 10.7241C10.5292 10.7292 10.5495 10.7318 10.5699 10.7394C10.575 10.7369 10.5775 10.7394 10.5775 10.7394ZM12.3551 11.8115C12.3551 11.8243 12.35 11.8294 12.3475 11.8319C12.2329 11.8115 12.1055 11.8014 11.9706 11.8014C11.8279 11.8014 11.7083 11.8115 11.6369 11.8192C11.614 11.8217 11.5962 11.8217 11.586 11.8243H11.5784C11.5682 11.8243 11.558 11.8243 11.5504 11.8217C11.5223 11.8166 11.5071 11.8039 11.5045 11.8014C11.3441 11.6537 11.1709 11.5212 10.9876 11.4117C10.8399 11.3226 10.7227 11.2691 10.6718 11.2462C10.659 11.2411 10.6514 11.236 10.6463 11.236C10.6234 11.2233 10.6208 11.2029 10.6208 11.2029C10.6208 11.1825 10.6412 10.8107 10.6489 10.7649C10.6539 10.7343 10.6743 10.7292 10.6769 10.7292C10.7176 10.7216 10.7889 10.7089 10.8781 10.7063C10.9519 10.7139 11.0181 10.7241 11.0843 10.7369C11.5555 10.8311 11.9807 11.0603 12.3169 11.4041C12.3373 11.4576 12.3526 11.5212 12.3602 11.59C12.3653 11.6919 12.3576 11.7835 12.3551 11.8115ZM12.9026 12.7742H12.8975C12.895 12.7742 12.895 12.7793 12.8924 12.7691C12.8593 12.6494 12.7269 12.2292 12.434 11.8905C12.4239 11.8803 12.4086 11.8396 12.4137 11.8115C12.429 11.702 12.4264 11.5951 12.4035 11.4958C12.7116 11.8497 12.9077 12.2801 12.9714 12.7436C12.951 12.7563 12.9281 12.7665 12.9026 12.7742ZM9.17181 11.837C9.31442 11.837 9.45957 11.8497 9.59709 11.8727L9.60219 11.8752C9.60473 11.8752 9.60728 11.8752 9.60983 11.8778C9.6302 11.9669 9.7397 12.4329 9.91288 12.8659C9.91542 12.8811 9.91288 12.8837 9.8976 12.9066C9.80337 13.0416 9.56399 13.3981 9.37044 13.7877C9.36535 13.7954 9.35516 13.8056 9.31187 13.8056H9.28131C9.14379 13.7954 8.94261 13.775 8.77962 13.7419C8.71086 13.7292 8.65229 13.7139 8.61155 13.6986C8.60645 13.6961 8.59626 13.6859 8.59117 13.6782C8.37725 13.2096 8.35179 12.8837 8.34924 12.7945C8.34924 12.7793 8.35179 12.736 8.35688 12.7181C8.38744 12.6112 8.51223 12.2394 8.81528 11.8803C8.81782 11.8778 8.8382 11.8625 8.8764 11.8574C8.90695 11.8523 9.01391 11.837 9.17181 11.837ZM12.5639 13.7241C12.5512 13.7444 12.5257 13.7597 12.5181 13.7597C12.187 13.8336 11.8738 13.8438 11.749 13.8463C11.7337 13.8438 11.7184 13.8259 11.7133 13.8208C11.5096 13.4159 11.2626 13.0263 11.1913 12.9168C11.1836 12.9066 11.1862 12.8811 11.1964 12.8557C11.1989 12.8506 11.4001 12.3744 11.5325 11.9185C11.5351 11.9083 11.5656 11.893 11.586 11.8905C11.7337 11.8727 11.8712 11.865 11.996 11.865C12.1692 11.865 12.2787 11.8803 12.3271 11.8905L12.3296 11.8752L12.3322 11.893C12.35 11.8956 12.3755 11.916 12.3831 11.9261C12.6658 12.2521 12.7957 12.6545 12.8288 12.7716C12.8364 12.7945 12.8339 12.8531 12.8313 12.876C12.7829 13.3166 12.6276 13.6146 12.5639 13.7241ZM9.95362 12.9397C9.96381 12.927 9.97909 12.9168 9.99691 12.9168H10.0759C10.2338 12.9168 10.7711 12.9168 11.1022 12.9321H11.1149C11.1251 12.9346 11.1327 12.9397 11.1404 12.9473C11.3364 13.2402 11.5962 13.7241 11.6624 13.8565C11.6701 13.8718 11.6675 13.8998 11.665 13.9049C11.4892 14.3047 11.1913 14.651 11.1047 14.7453C11.0945 14.7555 11.0792 14.7631 11.0741 14.7631C10.9162 14.7886 10.7558 14.8013 10.5903 14.8013C10.3305 14.8013 10.1268 14.7682 10.0275 14.7504L10.0198 14.7478C9.99691 14.7427 9.9689 14.7249 9.96381 14.7173C9.64293 14.3684 9.44175 13.9023 9.41628 13.8412C9.57163 13.4949 9.88996 13.0288 9.95362 12.9397ZM10.6285 11.2971C11.0308 11.4779 11.3645 11.7683 11.4587 11.8523C11.4689 11.8625 11.4714 11.8956 11.4689 11.9058C11.3568 12.2954 11.1811 12.7181 11.1327 12.8378C11.1276 12.8531 11.1022 12.8633 11.092 12.8633C10.7609 12.8506 10.2287 12.848 10.0733 12.848H10.002C9.98163 12.8429 9.96381 12.8226 9.96126 12.8175C9.8161 12.4482 9.71678 12.0535 9.68113 11.9032C9.67349 11.8727 9.69641 11.8319 9.7066 11.8243C10.086 11.5085 10.4222 11.3506 10.5495 11.2971C10.5648 11.2895 10.5928 11.2895 10.6157 11.2946C10.6208 11.2946 10.6259 11.2971 10.6285 11.2971ZM12.6887 11.6766C12.3169 11.124 11.7541 10.7471 11.1022 10.6172C10.9417 10.5841 10.7762 10.5688 10.6132 10.5688C9.42901 10.5688 8.40272 11.4143 8.17098 12.5755C7.90358 13.9253 8.78217 15.2393 10.1293 15.5067C10.2898 15.5398 10.4553 15.5551 10.6183 15.5551C11.8025 15.5551 12.8313 14.7096 13.0605 13.5483C13.1904 12.8964 13.058 12.2317 12.6887 11.6766Z" fill="white"/>
<path d="M17.0618 8.90605C17.8462 10.1106 18.3046 11.5495 18.3046 13.0953C18.3046 17.3405 14.8641 20.781 10.6188 20.781C6.37359 20.781 2.93308 17.3405 2.93308 13.0953C2.93308 11.5342 3.40166 10.0801 4.20131 8.86785C3.95683 8.31523 3.70726 7.78808 3.45769 7.28639C2.17164 8.87295 1.39746 10.8924 1.39746 13.0953C1.39746 18.1885 5.52556 22.3166 10.6188 22.3166C15.7121 22.3166 19.8402 18.1885 19.8402 13.0953C19.8402 10.8593 19.0456 8.81183 17.7214 7.21509C17.482 7.81355 17.263 8.37635 17.0618 8.90605Z" fill="url(#paint7_linear_476_129248)"/>
<path d="M3.29785 13.0953C3.29785 15.456 4.41582 17.5545 6.15008 18.8914C6.17555 18.7081 6.19847 18.5196 6.2163 18.3312C4.72397 17.0757 3.77662 15.1963 3.77662 13.0953C3.77662 11.9111 4.07712 10.7982 4.60682 9.82541C4.57881 9.7592 4.55334 9.69299 4.52533 9.62678C4.47694 9.50708 4.42601 9.38739 4.37508 9.2677C3.69258 10.3831 3.29785 11.6921 3.29785 13.0953Z" fill="url(#paint8_linear_476_129248)"/>
<path d="M16.6852 9.91454C16.6852 9.91709 16.6826 9.91963 16.6826 9.92218C17.1792 10.8695 17.4644 11.9493 17.4644 13.0953C17.4644 15.1886 16.5222 17.0629 15.04 18.3184C15.0681 18.4942 15.1037 18.675 15.1419 18.8532C16.8456 17.5137 17.9432 15.4331 17.9432 13.0953C17.9432 11.7176 17.5612 10.4315 16.9016 9.33136C16.8278 9.53 16.7539 9.72354 16.6852 9.91454Z" fill="url(#paint9_linear_476_129248)"/>
</g>
<defs>
<linearGradient id="paint0_linear_476_129248" x1="6.458" y1="13.9203" x2="14.8495" y2="13.9203" gradientUnits="userSpaceOnUse">
<stop stop-color="#AA9402"/>
<stop offset="0.5" stop-color="#DCBF03"/>
<stop offset="1" stop-color="#AA9402"/>
</linearGradient>
<linearGradient id="paint1_linear_476_129248" x1="5.80144" y1="10.7475" x2="16.0635" y2="0.485441" gradientUnits="userSpaceOnUse">
<stop stop-color="#7B7979"/>
<stop offset="0.56" stop-color="#E9E9E9"/>
<stop offset="1" stop-color="#7B7979"/>
</linearGradient>
<linearGradient id="paint2_linear_476_129248" x1="11.94" y1="19.2404" x2="14.8488" y2="16.3316" gradientUnits="userSpaceOnUse">
<stop stop-color="#7B7979"/>
<stop offset="1" stop-color="#C4C3C3"/>
</linearGradient>
<linearGradient id="paint3_linear_476_129248" x1="6.52581" y1="18.8504" x2="8.94035" y2="16.4359" gradientUnits="userSpaceOnUse">
<stop stop-color="#7B7979"/>
<stop offset="1" stop-color="#C4C3C3"/>
</linearGradient>
<linearGradient id="paint4_linear_476_129248" x1="10.5599" y1="16.1316" x2="22.611" y2="4.08043" gradientUnits="userSpaceOnUse">
<stop stop-color="#7B7979"/>
<stop offset="0.56" stop-color="#E9E9E9"/>
<stop offset="1" stop-color="#7B7979"/>
</linearGradient>
<linearGradient id="paint5_linear_476_129248" x1="1.21957" y1="13.9313" x2="7.90768" y2="7.2432" gradientUnits="userSpaceOnUse">
<stop stop-color="#7B7979"/>
<stop offset="0.56" stop-color="#E9E9E9"/>
<stop offset="1" stop-color="#7B7979"/>
</linearGradient>
<linearGradient id="paint6_linear_476_129248" x1="7.95504" y1="13.0632" x2="13.2972" y2="13.0632" gradientUnits="userSpaceOnUse">
<stop stop-color="#AA9402"/>
<stop offset="0.5" stop-color="#DCBF03"/>
<stop offset="1" stop-color="#AA9402"/>
</linearGradient>
<linearGradient id="paint7_linear_476_129248" x1="1.37971" y1="14.7574" x2="19.86" y2="14.7574" gradientUnits="userSpaceOnUse">
<stop stop-color="#254AA5"/>
<stop offset="0.25" stop-color="#254AA5"/>
<stop offset="0.5" stop-color="#217CC9"/>
<stop offset="0.73" stop-color="#254AA5"/>
<stop offset="1" stop-color="#254AA5"/>
</linearGradient>
<linearGradient id="paint8_linear_476_129248" x1="3.42988" y1="14.0743" x2="6.33981" y2="14.0743" gradientUnits="userSpaceOnUse">
<stop stop-color="#AA9402"/>
<stop offset="0.5" stop-color="#DCBF03"/>
<stop offset="1" stop-color="#DCBF03"/>
</linearGradient>
<linearGradient id="paint9_linear_476_129248" x1="14.9521" y1="14.0967" x2="17.847" y2="14.0967" gradientUnits="userSpaceOnUse">
<stop stop-color="#DCBF03"/>
<stop offset="0.5" stop-color="#DCBF03"/>
<stop offset="1" stop-color="#AA9402"/>
</linearGradient>
<clipPath id="clip0_476_129248">
<rect width="20" height="22.1608" fill="white" transform="translate(0.5 0.691895)"/>
</clipPath>
</defs>
</svg>
