<svg width="22" height="22" viewBox="0 0 22 22" fill="none" xmlns="http://www.w3.org/2000/svg">
<g clip-path="url(#clip0_476_129317)">
<path fill-rule="evenodd" clip-rule="evenodd" d="M7.90975 3.95638C6.7004 4.20341 5.41406 4.74492 5.41406 4.74492C6.05106 3.87726 7.3441 2.81435 7.3441 2.81435C6.98845 2.14597 6.67331 1.15628 6.67331 1.15628C6.67331 1.15628 8.16857 1.23835 9.33877 1.61813C9.33877 1.61813 11.327 0.528131 13.3874 0.494873C13.3874 0.494873 11.8857 1.36199 11.2476 2.1693C11.4169 2.25835 12.6179 2.61775 13.5534 3.16919C13.5534 3.16919 11.8624 3.21693 10.3105 3.42935C10.3105 3.42935 9.76415 4.20019 9.3023 5.95428C9.3023 5.95428 8.50625 5.07777 7.91002 3.95638H7.90975Z" fill="white"/>
<path fill-rule="evenodd" clip-rule="evenodd" d="M15.943 5.40872C14.919 4.2699 13.5527 3.16917 13.5527 3.16917C14.8096 3.18714 16.675 3.92874 16.675 3.92874C17.0395 3.23944 17.2948 2.29132 17.2948 2.29132C17.2948 2.29132 18.0085 3.49907 18.3325 4.83448C18.3325 4.83448 19.8141 5.72145 20.932 7.20626C20.932 7.20626 19.7655 6.96299 18.9067 6.96702C18.9041 7.15879 19.2216 8.73452 19.1527 9.81782C19.1527 9.81782 18.2016 8.27239 17.3095 6.98526C17.3095 6.98526 15.8754 7.01127 14.3684 7.42297C14.3684 7.42297 15.2127 6.44803 15.9433 5.40872H15.943ZM17.5839 12.8328C18.3392 11.5596 19.1527 9.81808 19.1527 9.81808C19.4021 10.9826 19.4246 12.4685 19.4246 12.4685C20.1738 12.3106 21.5 11.6744 21.5 11.6744C21.5 11.6744 20.9092 13.2479 19.585 14.4546C19.585 14.4546 19.7191 15.3976 19.7347 16.6416C19.7347 16.6416 18.7981 16.2243 18.0214 15.7576C17.8559 15.8539 16.9172 16.4925 15.3312 16.8208C15.3312 16.8208 16.0028 15.7718 16.5583 14.747C16.5583 14.747 15.4525 14.0185 14.5768 12.8247C14.5768 12.8247 16.2796 13.0395 17.5845 12.8322L17.5839 12.8328Z" fill="white"/>
<path fill-rule="evenodd" clip-rule="evenodd" d="M12.2425 10.2346C13.4009 11.6695 14.5764 12.8253 14.5764 12.8253C12.6558 12.5399 11.0964 12.0013 11.0964 12.0013C10.3165 13.252 9.46517 14.7059 9.46517 14.7059C9.46517 14.7059 8.9891 13.1286 8.90864 11.3383C8.90864 11.3383 7.94389 11.0006 6.16593 10.3006C6.16593 10.3006 7.39245 9.53915 8.87672 9.12396C8.79009 8.95284 9.01753 6.8246 9.3021 5.95453C9.3021 5.95453 10.1676 7.35753 10.8725 8.38907C10.8725 8.38907 12.2519 7.92104 14.3691 7.42298C14.3691 7.42298 13.2105 8.89303 12.2425 10.2346ZM1.69702 15.6624C1.58035 15.443 1.47172 15.2193 1.37114 14.9921C1.39153 14.2309 1.45939 13.2506 1.65411 12.4903C1.65411 12.4903 1.09596 12.103 0.519043 11.5998C0.512606 11.5124 0.505096 11.4241 0.5 11.3353C0.831239 11.2117 1.53475 10.9633 2.14922 10.8209C2.21949 10.642 2.60223 9.40934 3.34141 8.55884C3.34141 8.55884 3.3913 9.39673 3.59219 10.5125C3.59219 10.5125 4.75917 10.248 6.16539 10.2998C6.16539 10.2998 4.86243 11.326 4.04171 12.3688C4.33942 13.5709 4.93806 14.7244 4.93806 14.7244C4.04332 14.2181 3.0968 13.5473 3.0968 13.5473C2.76449 13.9426 2.09638 15.0087 1.69675 15.6621L1.69702 15.6624ZM9.14118 21.1204C8.99634 21.0944 8.85205 21.0646 8.70882 21.0314C8.22041 20.5076 7.47533 19.6525 6.90645 18.7538C6.90645 18.7538 4.80771 18.5845 3.32881 17.9368C3.32881 17.9368 4.55184 17.7069 5.89503 17.0144C5.8084 16.8433 5.29612 15.8992 4.93806 14.725C4.93806 14.725 6.22091 15.7613 7.17118 16.368C7.17118 16.368 8.37892 15.6731 9.46464 14.7057C9.46464 14.7057 9.18945 16.043 9.03684 17.5704C9.73821 17.9711 10.4455 18.3614 11.1584 18.7414C10.0633 18.9007 8.98534 18.8675 8.98534 18.8675C8.9427 19.7156 9.05669 20.6071 9.14091 21.1207L9.14118 21.1204ZM18.2718 18.3933C18.2718 18.3933 16.8243 18.7757 15.4116 18.8289C15.4116 18.8289 15.4009 17.8652 15.3309 16.821C15.3309 16.821 14.5807 17.8858 13.6015 18.9096C12.4452 18.893 11.1586 18.7417 11.1586 18.7417C11.5999 19.1907 12.0537 19.627 12.5195 20.0503C11.6487 20.7905 10.8435 21.2854 10.8435 21.2854C10.9578 21.287 11.0742 21.2878 11.1892 21.2862C13.9384 21.2414 16.4231 20.1471 18.2716 18.3936L18.2718 18.3933Z" fill="white"/>
<path fill-rule="evenodd" clip-rule="evenodd" d="M0.626953 9.00731C0.626953 9.00731 1.4002 8.04283 2.30299 7.25966C2.30299 7.25966 2.60473 7.817 3.34123 8.5594C3.34123 8.5594 3.3466 7.65205 3.452 6.22866C4.27675 5.4994 5.41342 4.7452 5.41342 4.7452C4.47066 4.68512 3.76742 4.73125 3.76742 4.73125C3.98601 3.6509 4.48005 2.4917 4.48005 2.4917C2.47572 4.08084 1.06521 6.38449 0.626953 9.00731Z" fill="white"/>
</g>
<defs>
<clipPath id="clip0_476_129317">
<rect width="21" height="20.7919" fill="white" transform="translate(0.5 0.495117)"/>
</clipPath>
</defs>
</svg>
