<svg width="21" height="31" viewBox="0 0 21 31" fill="none" xmlns="http://www.w3.org/2000/svg">
<g clip-path="url(#clip0_476_129219)">
<path d="M13.5747 25.1359C13.2872 25.1418 13.0642 25.3765 13.07 25.6641C13.0759 25.9516 13.3106 26.1746 13.5982 26.1688H13.6099C13.8916 26.1629 14.1146 25.934 14.1088 25.6582V25.6406C14.097 25.353 13.8623 25.13 13.5747 25.1359ZM8.21675 25.0948C7.97027 25.0948 7.759 25.2767 7.71206 25.5174H8.71558C8.66863 25.2767 8.46323 25.0948 8.21675 25.0948ZM6.31534 25.0948C5.99844 25.0948 5.74609 25.353 5.74609 25.6699C5.74609 25.9868 6.00431 26.2392 6.32121 26.2392C6.63811 26.2392 6.89046 25.981 6.89046 25.6699V25.6641C6.89046 25.3472 6.63224 25.0948 6.31534 25.0948Z" fill="#091C3E"/>
<path d="M0.5 0.980957V30.3237H20.5V0.980957H0.5ZM17.6009 11.8671C16.5563 14.0678 15.3826 15.9868 13.8627 17.853C11.7441 18.1758 9.6784 18.1288 7.40141 17.9117L8.88615 15.5291C10.0775 15.5995 11.2688 15.5936 12.4601 15.4997C13.311 14.3495 14.0622 13.1288 14.696 11.8495C14.1913 10.8518 13.6162 9.89528 12.9707 8.98565L14.4495 6.62063C15.6761 8.24035 16.7911 9.9657 17.6009 11.8671ZM15.5822 21.3859L15.4765 20.9223L16.2746 20.4821H16.5857V22.6594H16.0634V21.1218L15.5822 21.3859ZM8.69249 22.231C8.80986 22.2368 8.92723 22.2134 9.03286 22.1605V21.603L9.53756 21.5385V22.4246C9.42606 22.5185 9.1561 22.6946 8.66315 22.6946C7.93545 22.6946 7.43075 22.1957 7.43075 21.5737C7.43075 20.9516 7.92958 20.4587 8.67488 20.4587C8.9507 20.4469 9.22653 20.4997 9.47887 20.6112L9.3439 21.0866C9.1385 20.9868 8.91549 20.9399 8.69249 20.9516C8.28169 20.9516 8 21.1922 8 21.5795C8 21.9669 8.30516 22.231 8.69249 22.231ZM8.57512 11.4152C8.57512 10.353 9.43779 9.49035 10.5 9.49035C11.5622 9.49622 12.4249 10.353 12.4249 11.4152C12.4249 12.4774 11.5622 13.3401 10.5 13.3401C9.43779 13.3401 8.57512 12.4774 8.57512 11.4152ZM7.13732 4.9833C9.27934 4.72509 11.4507 4.70748 13.5986 4.92462L12.108 7.30725C10.9167 7.23683 9.72535 7.24269 8.53404 7.33659C7.67723 8.48096 6.92606 9.70161 6.29225 10.9868C6.80869 11.9786 7.3838 12.9352 8.02347 13.8507L6.5446 16.2157C5.26526 14.5256 4.22653 12.8765 3.39906 10.981C4.38498 8.8272 5.64085 6.81429 7.13732 4.9833ZM6.93192 20.488V22.6652H6.38615V20.488H6.93192ZM5.98709 22.2134V22.6711H4.40258V20.4939H4.95423V22.2192L5.98709 22.2134ZM5.13028 26.4915H4.79577V26.2744C4.63732 26.4387 4.42019 26.5267 4.19718 26.5267C3.71009 26.5267 3.34038 26.1746 3.34038 25.6347V24.2145H3.68662V25.6171C3.68662 25.981 3.92723 26.2157 4.23826 26.2157C4.5493 26.2157 4.79577 25.9751 4.79577 25.6112V24.2145H5.13615L5.13028 26.4915ZM6.34507 26.5326C6.12207 26.5326 5.9108 26.4446 5.75822 26.2861V26.4915H5.43545V24.2204H5.75822V25.0479C5.9108 24.8894 6.12207 24.8014 6.34507 24.8014H6.4331C6.90845 24.8249 7.27817 25.2298 7.25469 25.7051C7.22535 26.1922 6.82042 26.5561 6.34507 26.5326ZM8.24648 26.245C8.43427 26.2509 8.6162 26.157 8.72183 26.0044L8.95657 26.1746C8.79225 26.4035 8.5223 26.5326 8.24061 26.5267H8.2054C7.73592 26.5209 7.35446 26.1335 7.36033 25.6582C7.36033 25.1887 7.73592 24.8072 8.2054 24.8014C8.68075 24.8014 9.03286 25.1711 9.03286 25.6641V25.7638H7.7007C7.74178 26.0396 7.97653 26.2392 8.24648 26.245ZM10.0951 25.13H9.96009C9.74883 25.13 9.59624 25.2943 9.59624 25.5526V26.4915H9.26761V24.8366H9.57864V25.0361H9.59038C9.67253 24.9011 9.81925 24.819 9.9777 24.8249H10.0951V25.13ZM10.0305 21.7087V20.488H10.5763V21.7497C10.588 22.0021 10.7876 22.2016 11.0399 22.2134C11.3099 22.2251 11.5387 22.0197 11.5505 21.7497L11.5563 20.488H12.1021V21.7087C12.1021 22.3542 11.6854 22.6946 11.0692 22.6946C10.4531 22.6946 10.0305 22.3601 10.0305 21.7087ZM12.5012 24.6077H11.3392V25.1594H12.4718V25.5349H11.3392V26.0983H12.5012V26.4915H10.9049V24.2145H12.5012V24.6077ZM12.6948 20.488H14.2911V20.9457H13.2406V21.3389H14.0915V21.7673H13.2406L13.2465 22.2075H14.3263V22.6652H12.7007V20.488H12.6948ZM14.5258 26.4915H14.0974V26.3389C13.9448 26.4622 13.757 26.5326 13.5634 26.5326H13.5282C13.088 26.4915 12.7418 26.1335 12.7242 25.6934C12.7007 25.2063 13.0822 24.7955 13.5692 24.772C13.7629 24.772 13.9566 24.8425 14.1033 24.9657V24.8131L14.5258 24.8072V26.4915ZM15.9343 25.1946H15.4589V25.981C15.4589 26.069 15.5235 26.1101 15.6174 26.1101H15.9343V26.4915H15.4765C15.189 26.4915 15.0305 26.3155 15.0305 26.0866V25.1946H14.7077V24.8131H15.0305V24.3378H15.4531V24.8131H15.9284L15.9343 25.1946ZM16.9085 26.5385C16.3803 26.5385 16.1221 26.3037 16.0692 25.9575H16.4918C16.5446 26.1453 16.6854 26.1981 16.9319 26.1981C17.1197 26.1981 17.243 26.1335 17.243 26.0279C17.243 25.9634 17.196 25.9164 17.0376 25.8871L16.6326 25.7932C16.2629 25.7169 16.0927 25.5584 16.0927 25.3119C16.0927 24.9598 16.4038 24.7779 16.8439 24.7779C17.3545 24.7779 17.6068 25.0068 17.6303 25.3589H17.2077C17.1667 25.1711 17.02 25.1183 16.8204 25.1183C16.6385 25.1183 16.5329 25.177 16.5329 25.2826C16.5329 25.3589 16.6033 25.4 16.8087 25.4352L17.1725 25.5115C17.5129 25.5878 17.6772 25.758 17.6772 25.9868C17.6714 26.3037 17.3955 26.5385 16.9085 26.5385Z" fill="#091C3E"/>
<path d="M15.4534 24.3378H15.0309V24.8131H14.7081V25.1946H15.0309V26.0866C15.0309 26.3096 15.1893 26.4915 15.4769 26.4915H15.9346V26.1101H15.6177C15.5179 26.1101 15.4593 26.069 15.4593 25.981V25.1946H15.9346V24.8131H15.4593L15.4534 24.3378ZM10.9111 26.4915H12.5015V26.1042H11.3395V25.5408H12.4722V25.1652H11.3395V24.6077H12.5015V24.2204H10.9111V26.4915ZM14.0978 24.9716C13.951 24.8425 13.7574 24.7779 13.5637 24.7779C13.0766 24.8014 12.701 25.2122 12.7186 25.6993C12.7363 26.1394 13.0825 26.5033 13.5226 26.5385H13.5578C13.7515 26.5385 13.9452 26.4681 14.0919 26.3448V26.4974H14.5144V24.819L14.0919 24.8249L14.0978 24.9716ZM14.1036 25.6523V25.6582C14.1095 25.9399 13.8865 26.1688 13.6048 26.1688H13.5931C13.3055 26.1746 13.0708 25.9458 13.0649 25.6641C13.059 25.3765 13.2879 25.1418 13.5696 25.1359C13.8571 25.13 14.0919 25.3589 14.0978 25.6406L14.1036 25.6523ZM17.167 25.5056L16.8032 25.4293C16.5978 25.3882 16.5273 25.353 16.5273 25.2767C16.5273 25.1711 16.633 25.1124 16.8149 25.1124C17.0144 25.1124 17.167 25.1652 17.2022 25.353H17.6247C17.6013 25.0009 17.3489 24.772 16.8384 24.772C16.3982 24.772 16.0872 24.954 16.0872 25.3061C16.0872 25.5526 16.2574 25.711 16.6271 25.7873L17.032 25.8812C17.1905 25.9105 17.2374 25.9575 17.2374 26.022C17.2374 26.1277 17.1201 26.1922 16.9264 26.1922C16.6799 26.1922 16.5449 26.1394 16.4863 25.9516H16.0637C16.1165 26.3037 16.3747 26.5326 16.9029 26.5326C17.39 26.5326 17.6658 26.2979 17.6658 25.9751C17.6717 25.7521 17.5074 25.5819 17.167 25.5056Z" fill="#06C167"/>
<path d="M9.59083 25.042H9.57909V24.8425H9.26806V26.4974H9.5967V25.5584C9.5967 25.3002 9.74928 25.1359 9.96055 25.1359H10.0955V24.8307H9.97815C9.82557 24.8249 9.67299 24.907 9.59083 25.042ZM9.04506 25.6699C9.04506 25.177 8.69294 24.8073 8.21759 24.8073C7.74811 24.8131 7.36665 25.1946 7.37252 25.6641C7.36665 26.1336 7.74224 26.5267 8.21759 26.5326H8.2528C8.53449 26.5385 8.79858 26.4094 8.96876 26.1805L8.73402 26.0103C8.62252 26.1629 8.44646 26.2509 8.25867 26.2509C7.98285 26.2509 7.75398 26.0514 7.7129 25.7756H9.05092L9.04506 25.6699ZM7.7129 25.5174C7.75984 25.2709 7.97111 25.0948 8.21759 25.0948C8.46407 25.1007 8.67534 25.2767 8.71642 25.5174H7.7129ZM4.79036 25.623C4.79036 25.9868 4.54975 26.2274 4.23285 26.2274C3.91595 26.2274 3.68121 25.9927 3.68121 25.6289V24.2263H3.33496V25.6465C3.33496 26.1805 3.71055 26.5385 4.19177 26.5385C4.42064 26.5385 4.63191 26.4505 4.79036 26.2861V26.5033H5.12487V24.2321H4.78449L4.79036 25.623ZM6.42768 24.8073H6.33966C6.12252 24.8073 5.91125 24.8953 5.7528 25.0537V24.2263H5.43003V26.4915H5.7528V26.2861C5.90538 26.4446 6.12252 26.5326 6.33966 26.5326C6.81501 26.5561 7.21994 26.1864 7.24341 25.711C7.27275 25.2357 6.90304 24.8307 6.42768 24.8073ZM6.8913 25.6699C6.8913 25.9868 6.63895 26.2392 6.32205 26.2392C6.00515 26.2392 5.74693 25.9868 5.74693 25.6699C5.74693 25.353 5.99928 25.0948 6.31618 25.0948C6.63308 25.0948 6.8913 25.3472 6.8913 25.6699ZM12.1026 21.7087V20.488H11.5568L11.5509 21.7497C11.5392 22.0197 11.3103 22.2251 11.0404 22.2134C10.788 22.2016 10.5885 22.0021 10.5767 21.7497V20.488H10.031V21.7087C10.031 22.3542 10.4476 22.6946 11.0638 22.6946C11.68 22.6946 12.1026 22.3601 12.1026 21.7087ZM14.3209 22.2134H13.2411V21.7732H14.092V21.3389H13.2411V20.9458H14.2915V20.488H12.6953V22.6652H14.3209V22.2134ZM8.68707 20.9516C8.91008 20.9458 9.13895 20.9927 9.33848 21.0866L9.47346 20.6112C9.22111 20.4997 8.94529 20.4469 8.66947 20.4587C7.93003 20.4587 7.42534 20.9516 7.42534 21.5737C7.42534 22.1958 7.92416 22.6946 8.65773 22.6946C9.15069 22.6946 9.42064 22.5185 9.53214 22.4246V21.5385L9.02745 21.603V22.1605C8.92182 22.2075 8.80444 22.231 8.68707 22.231C8.29975 22.231 7.98872 21.961 7.98872 21.5737C7.98872 21.1864 8.27628 20.9516 8.68707 20.9516ZM16.592 22.6652V20.488H16.281L15.477 20.9282L15.5826 21.3859L16.0638 21.1335V22.6652H16.592ZM4.40304 20.488V22.6652H5.98754V22.2134H4.95468V20.488H4.40304ZM6.3866 20.488H6.93238V22.6652H6.3866V20.488Z" fill="white"/>
<path d="M14.7022 11.8554C14.0626 13.1347 13.3172 14.3554 12.4663 15.5056C11.275 15.5936 10.0837 15.6054 8.89236 15.5349L7.40762 17.9176C9.68462 18.1347 11.7503 18.1875 13.8689 17.8589C15.3888 15.9927 16.5626 14.0737 17.6072 11.873C16.7973 9.97743 15.6881 8.2462 14.4616 6.62649L12.9827 8.99151C13.6224 9.89527 14.1975 10.8577 14.7022 11.8554ZM8.02969 13.8448C7.39002 12.9293 6.8149 11.9727 6.29847 10.9809C6.93227 9.7016 7.68344 8.48095 8.54025 7.33071C9.73156 7.24268 10.9229 7.23095 12.1142 7.30137L13.6048 4.91874C11.4569 4.7016 9.29142 4.71921 7.14354 4.97742C5.64706 6.80841 4.39119 8.82132 3.40527 10.9751C4.23274 12.8647 5.27147 14.5197 6.55081 16.2098L8.02969 13.8448Z" fill="#CDFB0A"/>
<path d="M10.5001 13.3401C11.5623 13.3401 12.425 12.4774 12.425 11.4152C12.4191 10.353 11.5623 9.49036 10.5001 9.49036C9.43787 9.49036 8.5752 10.353 8.5752 11.4152C8.5752 12.4774 9.43787 13.3401 10.5001 13.3401Z" fill="white"/>
</g>
<defs>
<clipPath id="clip0_476_129219">
<rect width="20" height="29.3427" fill="white" transform="translate(0.5 0.980957)"/>
</clipPath>
</defs>
</svg>
