<svg width="23" height="24" viewBox="0 0 23 24" fill="none" xmlns="http://www.w3.org/2000/svg">
<g clip-path="url(#clip0_476_129335)">
<path d="M14.8839 21.8729H8.07209L7.30273 23.9044H15.5754L14.8839 21.8729Z" fill="white"/>
<path d="M16.8376 22.5213C20.2176 20.6541 22.4997 17.0667 22.4997 12.9606C22.4997 8.85449 20.4424 5.62149 17.339 3.69379L16.8117 5.55233C19.0679 7.19477 20.5288 9.86589 20.5288 12.8741C20.5288 16.1504 18.7913 19.029 16.1807 20.6109L16.8376 22.5213Z" fill="#00BE14"/>
<path d="M6.11886 22.504C2.76483 20.6282 0.5 17.058 0.5 12.9606C0.5 9.08788 2.52279 5.68199 5.58291 3.737L6.13615 5.57826C3.90589 7.22934 2.45363 9.88317 2.45363 12.8741C2.45363 16.159 4.1998 19.0376 6.81041 20.6282L6.11022 22.5126L6.11886 22.504Z" fill="#00BE14"/>
<path d="M13.7434 11.8282C14.3139 5.86354 16.6306 1.17828 16.6306 1.17828C16.6306 1.17828 15.8353 0.771991 14.5387 0.452148C14.5387 0.452148 13.6915 3.75431 13.6396 9.72759L13.7434 11.8282Z" fill="white"/>
<path d="M13.4583 14.8796C12.4901 6.93543 13.9424 0.322465 13.9424 0.322465C13.32 0.201443 12.6198 0.106355 11.8504 0.0717773C11.8504 0.0717773 11.7899 5.15469 12.7149 10.9897L13.4583 14.871V14.8796Z" fill="white"/>
<path d="M14.5386 20.7924C14.5386 20.7924 13.873 18.3115 13.4494 15.0266C13.4494 15.0266 13.1728 15.0266 12.7838 15.0266V14.9402C11.2192 8.79399 11.1586 0.0545044 11.1586 0.0545044C10.5017 0.0631488 9.80147 0.132304 9.08399 0.270614L12.1355 15.0352C11.9021 15.0352 11.6514 15.0352 11.418 15.0352L8.40108 0.434858C7.70953 0.607746 7.00069 0.858434 6.2832 1.19557C6.2832 1.19557 9.59401 6.86629 10.7351 15.0612C10.372 15.0612 10.1213 15.0612 10.104 15.0612C10.0176 14.0498 9.13585 10.5402 9.13585 10.5402C9.48163 13.4879 9.40383 16.9802 8.40108 20.7838H14.5386V20.7924Z" fill="white"/>
</g>
<defs>
<clipPath id="clip0_476_129335">
<rect width="22" height="23.8326" fill="white" transform="translate(0.5 0.0717773)"/>
</clipPath>
</defs>
</svg>
