<svg width="14" height="25" viewBox="0 0 14 25" fill="none" xmlns="http://www.w3.org/2000/svg">
<g clip-path="url(#clip0_476_136890)">
<path d="M7.00266 10.7199C9.33192 10.7199 11.2202 8.83162 11.2202 6.50235C11.2202 4.17309 9.33192 2.28485 7.00266 2.28485C4.6734 2.28485 2.78516 4.17309 2.78516 6.50235C2.78516 8.83162 4.6734 10.7199 7.00266 10.7199Z" fill="url(#paint0_radial_476_136890)"/>
<path d="M8.68294 24.8338C7.72139 23.4295 7.14065 21.8016 7.0026 20.1069C6.86456 21.8016 6.28382 23.4295 5.32227 24.8338H8.68294Z" fill="url(#paint1_linear_476_136890)"/>
<path d="M7.00195 20.1069C7.09716 21.6587 7.32088 23.2772 8.30148 24.8338H8.68229C7.71978 23.4314 7.14047 21.802 7.00195 20.1069Z" fill="url(#paint2_linear_476_136890)"/>
<path d="M7.0026 20.1069C6.9074 21.6587 6.68367 23.2772 5.70308 24.8338H5.32227C6.28382 23.4343 6.8598 21.8016 7.0026 20.1069Z" fill="url(#paint3_linear_476_136890)"/>
<path d="M4.37012 10.9769C5.19363 12.6239 6.77876 15.7323 6.96916 18.6217H7.00249C7.19289 15.7657 8.77803 12.5954 9.60153 10.9769C9.22072 11.1673 7.41186 12.2765 6.96916 15.0992C6.58835 12.2765 4.75093 11.2911 4.37012 10.9769Z" fill="url(#paint4_linear_476_136890)"/>
<path d="M7.00195 18.617C7.00195 15.1278 8.55377 12.5906 9.601 10.9722C8.77749 12.6239 7.19236 15.7323 7.00195 18.617Z" fill="url(#paint5_linear_476_136890)"/>
<path d="M7.00237 18.617C7.00237 15.1278 5.45056 12.5906 4.40332 10.9722C5.22683 12.6239 6.81196 15.7323 7.00237 18.617Z" fill="url(#paint6_linear_476_136890)"/>
<path d="M10.0156 24.8338C8.71128 23.2581 8.01629 21.2636 8.04962 19.2215C8.04962 16.4321 9.79183 12.881 10.6201 11.3244C11.4484 9.76785 12.2671 8.24936 12.2671 6.50238C12.2671 3.59868 9.90608 1.23764 7.00238 1.23764C4.09868 1.23764 1.73764 3.59392 1.73764 6.50238C1.73764 8.2446 2.62779 9.67265 3.38466 11.3244C4.14152 12.9762 5.95514 16.3988 5.95514 19.2215C5.98847 21.2684 5.29348 23.2581 3.9892 24.8338H2.37074C4.05108 23.0582 4.7175 21.3446 4.7175 19.2215C4.7175 16.2417 2.14702 11.61 2.11845 11.5482C1.35683 10.0915 0.5 8.40644 0.5 6.50714C0.5 2.91322 3.40846 0 6.99762 0C10.5868 0 13.5 2.90846 13.5 6.49762V6.50238C13.5 8.40644 12.6432 9.99158 11.8815 11.5434C11.8197 11.6386 9.2825 16.2988 9.2825 19.2168C9.2825 21.3731 9.94892 23.0201 11.6293 24.829H10.0156V24.8338Z" fill="url(#paint7_linear_476_136890)"/>
<path d="M11.2489 11.453C12.0105 9.96304 12.8673 8.34458 12.8673 6.50716C13.1053 3.25597 10.6681 0.428435 7.41695 0.190427C4.16576 -0.0475815 1.34299 2.38962 1.10022 5.64081C1.08118 5.92642 1.08118 6.21679 1.10022 6.50716C1.10022 8.34458 1.95705 9.99636 2.71867 11.453C3.19469 12.3431 5.41292 16.2084 5.41292 19.2215C5.41292 21.4398 4.6513 23.0249 3.16137 24.8338H3.98488C5.28916 23.2582 5.98414 21.2637 5.95082 19.2215C5.95082 16.4321 4.2086 12.881 3.38034 11.3244C2.55207 9.76787 1.73332 8.24938 1.73332 6.5024C1.73808 3.5987 4.09436 1.23766 7.00282 1.23766C9.91128 1.23766 12.2676 3.59394 12.2676 6.5024C12.2676 8.24462 11.3774 9.67267 10.6205 11.3244C9.85891 12.9715 8.05005 16.3988 8.05005 19.2215C8.01673 21.2684 8.71172 23.2582 10.016 24.8338H10.8395C9.34958 23.1534 8.58795 21.3446 8.58795 19.2215C8.58795 16.3369 10.8062 12.2432 11.2489 11.453Z" fill="url(#paint8_linear_476_136890)"/>
<path d="M8.58774 9.13476L8.14505 10.5295L8.08317 10.5914C7.38818 10.7723 6.65512 10.7723 5.96014 10.5914L5.89825 10.5295L5.42224 9.13476C5.4032 9.1062 5.4032 9.06811 5.42224 9.03955L6.02678 8.24461H7.99272L8.56394 9.03955C8.58298 9.06335 8.59726 9.10144 8.58774 9.13476ZM9.88727 5.80741L8.96856 6.12634L8.90668 6.18822L8.33546 7.90188C8.31642 7.93044 8.31642 7.96852 8.33546 7.99708L8.94 8.82059H10.5585C10.9535 8.21129 11.182 7.51154 11.2249 6.79276C11.2344 6.75944 11.2201 6.72136 11.1916 6.69756L10.0158 5.84073L9.88727 5.80741ZM7.2549 4.63165L8.71151 5.67888H8.80671L9.75874 5.35995L9.82063 5.29807L10.2633 3.93666C10.2728 3.90334 10.2586 3.86526 10.23 3.84146C9.77778 3.27976 9.18752 2.84183 8.51634 2.57526H8.42114L7.2549 3.42733C7.22634 3.45113 7.21682 3.48921 7.22158 3.52253V4.50788C7.21206 4.5412 7.22634 4.57928 7.2549 4.60308V4.63165ZM5.25563 5.7122L6.71224 4.66497C6.7408 4.64117 6.75032 4.60308 6.74556 4.56976V3.52253C6.75508 3.48921 6.7408 3.45113 6.71224 3.42733L5.5698 2.60382H5.4746C4.80818 2.86563 4.21792 3.28928 3.76094 3.84146C3.73238 3.86526 3.72286 3.90334 3.72762 3.93666L4.17031 5.33139L4.2322 5.39327L5.16043 5.7122H5.25563ZM5.66977 7.93044L5.09855 6.21678L5.03666 6.1549L4.08463 5.83597H3.98943L2.84699 6.65947C2.81843 6.68327 2.80891 6.72136 2.81367 6.75468C2.85651 7.47822 3.085 8.17797 3.48009 8.78251H5.09855L5.66977 7.98756C5.68881 7.959 5.68881 7.92092 5.66977 7.89236V7.93044Z" fill="url(#paint9_radial_476_136890)"/>
<path d="M7.00265 5.0791L6.62184 5.87405L6.55995 5.93593L5.70312 6.06446L6.33623 6.669C6.36479 6.6928 6.37431 6.73088 6.36955 6.7642L6.17914 7.62103L6.97409 7.20689H7.06929L7.83092 7.62103L7.67383 6.7642C7.66431 6.73088 7.67859 6.6928 7.70715 6.669L8.34025 6.06446L7.48343 5.93593L7.42154 5.87405L7.00265 5.0791Z" fill="#F4DF98"/>
<path d="M7.03059 7.20212L7.82554 7.61625L7.66845 6.75942C7.13056 6.70706 6.64502 6.40241 6.36893 5.93591L5.64062 6.03112L6.27373 6.63566C6.30229 6.65946 6.31181 6.69754 6.30705 6.73086L6.17852 7.62101L6.97347 7.20688L7.03059 7.20212Z" fill="#C9933F"/>
<path d="M7.00724 12.6668C7.3753 12.6668 7.67367 12.3684 7.67367 12.0003C7.67367 11.6323 7.3753 11.3339 7.00724 11.3339C6.63919 11.3339 6.34082 11.6323 6.34082 12.0003C6.34082 12.3684 6.63919 12.6668 7.00724 12.6668Z" fill="url(#paint10_radial_476_136890)"/>
</g>
<defs>
<radialGradient id="paint0_radial_476_136890" cx="0" cy="0" r="1" gradientUnits="userSpaceOnUse" gradientTransform="translate(7.4116 5.9202) scale(11.3369)">
<stop stop-color="#6B6A69"/>
<stop offset="0.19" stop-color="#6B6A69"/>
<stop offset="0.22" stop-color="#626160"/>
<stop offset="0.26" stop-color="#494949"/>
<stop offset="0.32" stop-color="#212123"/>
<stop offset="0.33" stop-color="#121214"/>
</radialGradient>
<linearGradient id="paint1_linear_476_136890" x1="7.00089" y1="24.8462" x2="7.00089" y2="20.1125" gradientUnits="userSpaceOnUse">
<stop stop-color="#B8BBBE"/>
<stop offset="0.23" stop-color="#898A8D"/>
<stop offset="0.48" stop-color="#5B5B5D"/>
<stop offset="0.6" stop-color="#49494B"/>
<stop offset="0.69" stop-color="#4C4C4E"/>
<stop offset="0.76" stop-color="#565658"/>
<stop offset="0.83" stop-color="#666769"/>
<stop offset="0.89" stop-color="#7D7E81"/>
<stop offset="0.95" stop-color="#9A9D9F"/>
<stop offset="1" stop-color="#B8BBBE"/>
</linearGradient>
<linearGradient id="paint2_linear_476_136890" x1="7.84185" y1="20.1125" x2="7.84185" y2="24.8755" gradientUnits="userSpaceOnUse">
<stop offset="0.3" stop-color="#49494B"/>
<stop offset="0.7" stop-color="#C1C2C4"/>
<stop offset="0.75" stop-color="#C1C2C4"/>
<stop offset="1" stop-color="#49494B"/>
</linearGradient>
<linearGradient id="paint3_linear_476_136890" x1="6.50762" y1="20.1125" x2="6.50762" y2="24.8755" gradientUnits="userSpaceOnUse">
<stop offset="0.3" stop-color="#49494B"/>
<stop offset="0.7" stop-color="#C1C2C4"/>
<stop offset="0.75" stop-color="#C1C2C4"/>
<stop offset="1" stop-color="#49494B"/>
</linearGradient>
<linearGradient id="paint4_linear_476_136890" x1="6.98385" y1="10.7792" x2="6.98385" y2="20.0831" gradientUnits="userSpaceOnUse">
<stop stop-color="#C1C2C4"/>
<stop offset="0.07" stop-color="#B8B9BB"/>
<stop offset="0.18" stop-color="#A0A1A3"/>
<stop offset="0.31" stop-color="#79797B"/>
<stop offset="0.45" stop-color="#49494B"/>
<stop offset="1" stop-color="#C1C2C4"/>
</linearGradient>
<linearGradient id="paint5_linear_476_136890" x1="8.57413" y1="18.6537" x2="8.57413" y2="10.9699" gradientUnits="userSpaceOnUse">
<stop stop-color="#595958"/>
<stop offset="0.45" stop-color="#C1C2C4"/>
<stop offset="0.6" stop-color="#C1C2C4"/>
<stop offset="0.8" stop-color="#49494B"/>
</linearGradient>
<linearGradient id="paint6_linear_476_136890" x1="5.69989" y1="18.6537" x2="5.69989" y2="10.9699" gradientUnits="userSpaceOnUse">
<stop offset="0.3" stop-color="#49494B"/>
<stop offset="0.45" stop-color="#C1C2C4"/>
<stop offset="0.6" stop-color="#C1C2C4"/>
<stop offset="1" stop-color="#49494B"/>
</linearGradient>
<linearGradient id="paint7_linear_476_136890" x1="6.99841" y1="24.8462" x2="6.99841" y2="-0.0206586" gradientUnits="userSpaceOnUse">
<stop stop-color="#3A3B40"/>
<stop offset="0.07" stop-color="#3E3F44"/>
<stop offset="0.14" stop-color="#4B4C50"/>
<stop offset="0.21" stop-color="#5F6065"/>
<stop offset="0.28" stop-color="#7C7D81"/>
<stop offset="0.35" stop-color="#A1A2A5"/>
<stop offset="0.4" stop-color="#C1C2C4"/>
<stop offset="0.46" stop-color="#919295"/>
<stop offset="0.51" stop-color="#6B6C70"/>
<stop offset="0.56" stop-color="#505156"/>
<stop offset="0.6" stop-color="#404146"/>
<stop offset="0.63" stop-color="#3A3B40"/>
<stop offset="0.9" stop-color="#C1C2C4"/>
<stop offset="1" stop-color="#C1C2C4"/>
</linearGradient>
<linearGradient id="paint8_linear_476_136890" x1="6.98305" y1="24.8462" x2="6.98305" y2="0.61677" gradientUnits="userSpaceOnUse">
<stop stop-color="#49494B"/>
<stop offset="0.5" stop-color="#C1C2C4"/>
<stop offset="0.51" stop-color="#C1C2C4"/>
<stop offset="0.55" stop-color="#C1C2C4"/>
<stop offset="0.75" stop-color="#49494B"/>
<stop offset="0.85" stop-color="#7F8082"/>
<stop offset="0.95" stop-color="#AFB0B2"/>
<stop offset="1" stop-color="#C1C2C4"/>
</linearGradient>
<radialGradient id="paint9_radial_476_136890" cx="0" cy="0" r="1" gradientUnits="userSpaceOnUse" gradientTransform="translate(7.1893 5.95182) scale(11.241)">
<stop stop-color="white"/>
<stop offset="0.19" stop-color="white"/>
<stop offset="0.21" stop-color="#F6F6F6"/>
<stop offset="0.24" stop-color="#DDDDDD"/>
<stop offset="0.27" stop-color="#B6B6B5"/>
<stop offset="0.31" stop-color="#7F7F7E"/>
<stop offset="0.33" stop-color="#595958"/>
<stop offset="0.36" stop-color="#666665"/>
<stop offset="0.41" stop-color="#878787"/>
<stop offset="0.47" stop-color="#BEBEBE"/>
<stop offset="0.53" stop-color="white"/>
</radialGradient>
<radialGradient id="paint10_radial_476_136890" cx="0" cy="0" r="1" gradientUnits="userSpaceOnUse" gradientTransform="translate(7.07755 11.7138) rotate(-45) scale(2.34995)">
<stop stop-color="#C1C2C4"/>
<stop offset="0.19" stop-color="#C1C2C4"/>
<stop offset="0.21" stop-color="#B8B9BB"/>
<stop offset="0.25" stop-color="#A0A0A2"/>
<stop offset="0.29" stop-color="#78787A"/>
<stop offset="0.33" stop-color="#49494B"/>
<stop offset="0.37" stop-color="#565658"/>
<stop offset="0.43" stop-color="#77787A"/>
<stop offset="0.51" stop-color="#ADAEB0"/>
<stop offset="0.53" stop-color="#C1C2C4"/>
</radialGradient>
<clipPath id="clip0_476_136890">
<rect width="13" height="24.8338" fill="white" transform="translate(0.5)"/>
</clipPath>
</defs>
</svg>
