<svg width="32" height="32" viewBox="0 0 32 32" fill="none" xmlns="http://www.w3.org/2000/svg">
<g clip-path="url(#clip0_34_221)">
<path d="M24.3 16.31C24.41 16.2 24.52 16.09 24.64 15.99L25.25 18C24.39 18.54 23.81 19.51 23.81 20.6C23.81 22.3 25.19 23.67 26.88 23.67C28.57 23.67 29.95 22.29 29.95 20.6C29.95 19.1 28.81 17.79 27.39 17.52L30.07 16.6C31.2 17.54 31.98 19.02 31.98 20.6C31.98 23.42 29.69 25.71 26.87 25.71C24.58 25.71 22.51 24.14 21.86 22.06C22.01 20.21 22.99 17.66 24.27 16.32L24.3 16.31Z" fill="#576574"/>
<path d="M25.38 24.8C23.82 23.76 23.15 21.78 23.71 19.99C24.02 19 24.47 18 25.01 17.18L24.64 15.98C24.52 16.08 24.4 16.19 24.3 16.3C23.02 17.64 22.03 20.19 21.89 22.04C22.54 24.12 24.61 25.69 26.9 25.69C27.14 25.69 27.37 25.67 27.6 25.64C26.8 25.53 26.04 25.23 25.38 24.79V24.8Z" fill="#3E4B5A"/>
<path d="M26.69 14.87C26.78 14.87 26.88 14.87 26.97 14.87C28.27 14.87 29.52 15.36 30.47 16.09C30.65 16.23 30.6 16.51 30.39 16.58L26.98 17.74L26.1 15.12L26.68 14.87H26.69Z" fill="#FECA57"/>
<path d="M28.09 14.98C27.72 14.9 27.35 14.86 26.96 14.86C26.87 14.86 26.77 14.86 26.68 14.86L26.1 15.11L26.98 17.73L28.81 17.11L28.09 14.97V14.98Z" fill="#F4B537"/>
<path d="M6.60001 11.38L8.65001 13.07C9.11001 13.45 9.72001 13.6 10.3 13.48L11.41 15.11L9.47001 15.23C8.87001 15.27 8.28001 15.08 7.81001 14.69L4.60001 12.04L6.59001 11.37L6.60001 11.38Z" fill="#576574"/>
<path d="M9.89 14.69L7.11 12.39C6.92 12.24 6.98 11.94 7.21 11.86L6.61 11.36L4.62 12.03L7.83 14.68C8.29 15.06 8.89 15.25 9.49 15.22L10.78 15.14C10.46 15.05 10.16 14.9 9.89999 14.68L9.89 14.69Z" fill="#3E4B5A"/>
<path d="M21.42 10.88C20.72 11.16 18.11 12.6 16.68 13.33C16.05 13.65 15.55 14.17 15.25 14.8L14.93 15.47L11.22 11.17C13.88 7.54 15.7 8.44 18.11 8.99C19.83 9.38 21.79 10.73 21.79 10.73C21.67 10.73 21.55 10.82 21.42 10.87V10.88Z" fill="#FECA57"/>
<path d="M14.8 10.39C15.57 9.5 16.28 8.99 16.96 8.72C15.07 8.27 13.43 8.14 11.21 11.17L14.92 15.47L15.24 14.8C15.47 14.31 15.82 13.89 16.26 13.58L14.81 11.9C14.43 11.47 14.43 10.82 14.81 10.39H14.8Z" fill="#F4B537"/>
<path d="M5.11 15.49C6.89 15.49 8.46 16.4 9.37 17.78L7.5 18.67C6.94 17.97 6.07 17.52 5.11 17.52C3.41 17.52 2.04 18.9 2.04 20.59C2.04 22.28 3.42 23.66 5.11 23.66C6.68 23.66 7.98 22.48 8.16 20.95L10.21 20.85C10.07 23.55 7.84 25.69 5.11 25.69C2.38 25.69 0 23.42 0 20.59C0 17.76 2.29 15.48 5.11 15.48V15.49Z" fill="#576574"/>
<path d="M1.77 20.59C1.77 18.07 3.6 15.98 6 15.56C5.71 15.51 5.42 15.48 5.11 15.48C2.29 15.48 0 17.77 0 20.59C0 23.41 2.29 25.7 5.11 25.7C5.41 25.7 5.71 25.67 6 25.62C3.6 25.2 1.78 23.11 1.78 20.59H1.77Z" fill="#3E4B5A"/>
<path d="M1.04001 8.15H2.09001C2.55001 8.15 2.99001 8.32 3.33001 8.64L4.61001 9.83L6.68001 11.53L4.72001 12.15C4.04001 12.32 3.21001 12.03 2.76001 11.49L0.670007 8.95C0.410007 8.63 0.630007 8.16 1.04001 8.16V8.15Z" fill="#FF6B6B"/>
<path d="M4.79999 11.49L2.69999 8.95C2.51999 8.73 2.56999 8.44 2.74999 8.28C2.53999 8.2 2.31999 8.16 2.08999 8.16H1.03999C0.629987 8.16 0.399987 8.64 0.669987 8.95L2.76999 11.49C3.21999 12.03 4.04999 12.32 4.72999 12.15L5.37999 11.94C5.15999 11.82 4.95999 11.67 4.80999 11.48L4.79999 11.49Z" fill="#EE5253"/>
<path d="M13.43 20.33C13.26 19.97 13.17 19.59 13.17 19.19C13.17 18.79 13.26 18.39 13.45 18.02L13.47 17.99L12.36 16.35L4.64999 19.97C4.02999 20.27 4.24999 21.22 4.95999 21.19L11.17 20.89L11.12 20.8C11.08 20.72 11.08 20.63 11.12 20.55C11.17 20.47 11.25 20.43 11.34 20.43H13.48L13.43 20.34V20.33Z" fill="#E4EAF8"/>
<path d="M7.92001 19.96L13.14 17.51L12.35 16.34L4.64001 19.96C4.02001 20.26 4.24001 21.21 4.95001 21.18L7.80001 21.04C7.47001 20.77 7.46001 20.18 7.93001 19.96H7.92001Z" fill="#C7D2E5"/>
<path d="M12.75 12.89L14.92 15.29L14.1 17.01C13.74 17.26 13.45 17.6 13.26 18L10.22 13.51L12.75 12.89Z" fill="#C7D2E5"/>
<path d="M12.85 14.61C12.56 14.19 12.79 13.61 13.28 13.48L12.74 12.88L10.21 13.5L13.25 17.99C13.45 17.6 13.74 17.26 14.09 17L14.24 16.68L12.84 14.61H12.85Z" fill="#AABCD6"/>
<path d="M23.46 11.64C23.39 11.67 23.32 11.7 23.25 11.73L22.72 10.13L21.31 9.21C20.91 8.95 20.8 8.41 21.07 8.02C21.34 7.62 21.88 7.52 22.28 7.78L23.94 8.87C24.1 8.98 24.23 9.14 24.29 9.32L24.78 10.78C24.47 11.11 24.05 11.41 23.46 11.65V11.64Z" fill="#576574"/>
<path d="M26.09 14.99L27.82 20.29C27.97 20.75 27.72 21.25 27.25 21.41C27.16 21.44 27.07 21.45 26.98 21.45C26.61 21.45 26.26 21.21 26.14 20.84L24.55 15.96C25 15.58 25.53 15.26 26.1 14.99H26.09Z" fill="#576574"/>
<path d="M24.04 10.13L22.63 9.21C22.23 8.95 22.12 8.41 22.39 8.02C22.42 7.98 22.45 7.94 22.48 7.91L22.28 7.78C21.88 7.52 21.33 7.62 21.07 8.02C20.8 8.42 20.91 8.95 21.31 9.21L22.72 10.13L23.25 11.73C23.32 11.7 23.39 11.67 23.46 11.64C23.82 11.49 24.13 11.32 24.38 11.13L24.05 10.12L24.04 10.13Z" fill="#3E4B5A"/>
<path d="M27.46 20.84L26.03 16.45C25.93 16.15 26.03 15.81 26.3 15.63L26.09 14.99C25.52 15.26 24.99 15.58 24.54 15.96L26.13 20.84C26.25 21.21 26.6 21.45 26.97 21.45C27.06 21.45 27.15 21.44 27.24 21.41C27.39 21.36 27.52 21.27 27.63 21.16C27.55 21.07 27.49 20.97 27.45 20.85L27.46 20.84Z" fill="#3E4B5A"/>
<path d="M16.54 16.7C16.28 16.62 16.01 16.57 15.72 16.57C15.14 16.57 14.54 16.69 14.1 17.01L15.24 14.62C15.54 13.98 16.05 13.47 16.67 13.15C18.11 12.42 20.71 11.1 21.41 10.82C22.4 10.43 23.47 11.71 23.47 11.71C21.7 12.45 19.8 13.44 18.45 14.14C17.42 14.68 16.77 15.58 16.54 16.7Z" fill="#E4EAF8"/>
<path d="M16.06 15.25C16.36 14.61 16.87 14.1 17.49 13.78C18.93 13.05 21.53 11.73 22.23 11.45C22.62 11.3 23.02 11.4 23.36 11.58C23.06 11.27 22.21 10.5 21.41 10.81C20.71 11.09 18.1 12.4 16.67 13.14C16.04 13.46 15.54 13.98 15.24 14.61L14.1 17C14.46 16.74 14.94 16.61 15.42 16.58L16.05 15.25H16.06Z" fill="#C7D2E5"/>
<path d="M16.61 17.65C16.52 17.61 16.46 17.52 16.46 17.42C16.46 17.16 16.49 16.9 16.54 16.64V16.58L16.5 16.56C16.23 16.47 15.95 16.43 15.66 16.43C14.14 16.43 12.91 17.66 12.91 19.18C12.91 19.6 13 20 13.18 20.38L13.2 20.42H14.17C14.25 20.42 14.32 20.46 14.37 20.52C14.73 20.98 15.27 21.24 15.85 21.24C15.89 21.24 15.93 21.24 15.98 21.24C16.89 21.18 17.64 20.45 17.72 19.53C17.79 18.73 17.34 17.97 16.6 17.64L16.61 17.65Z" fill="#576574"/>
<path d="M16.43 20.53C16.38 20.47 16.31 20.43 16.23 20.43H15.84C15.24 20.43 15.06 19.91 15.02 19.74C14.98 19.56 14.97 19.38 14.97 19.2C14.97 18.11 15.61 17.17 16.53 16.72C16.53 16.7 16.53 16.67 16.54 16.65V16.59L16.5 16.57C16.23 16.48 15.95 16.44 15.66 16.44C14.14 16.44 12.91 17.67 12.91 19.19C12.91 19.61 13 20.01 13.18 20.39L13.2 20.43H14.17C14.25 20.43 14.32 20.47 14.37 20.53C14.73 20.99 15.27 21.25 15.85 21.25C15.89 21.25 15.93 21.25 15.98 21.25C16.31 21.23 16.62 21.12 16.88 20.94C16.71 20.83 16.56 20.69 16.43 20.52V20.53Z" fill="#3E4B5A"/>
<path d="M17.42 18.46C17.6 18.77 17.69 19.14 17.66 19.53C17.58 20.41 16.86 21.12 15.98 21.18C15.35 21.22 14.78 20.94 14.43 20.48C14.37 20.4 14.28 20.35 14.18 20.35H11.21C10.95 20.35 10.8 20.64 10.95 20.85L13.03 23.83C13.09 23.92 13.19 23.97 13.29 23.97H21.46C21.62 23.97 21.76 23.85 21.78 23.69C21.85 23.08 22.06 21.58 22.51 20.03L17.43 18.45L17.42 18.46Z" fill="#FF6B6B"/>
<path d="M15.3 23.99C15.19 23.99 15.1 23.94 15.04 23.85L12.96 20.87C12.81 20.66 12.96 20.37 13.22 20.37H11.2C10.94 20.37 10.79 20.66 10.94 20.87L13.02 23.85C13.08 23.94 13.18 23.99 13.28 23.99H21.45H15.3Z" fill="#EE5253"/>
<path d="M16.86 20.88C17.94 21.62 19.56 20.96 19.68 19.54C19.69 19.41 19.68 19.29 19.68 19.17L17.43 18.47C17.61 18.78 17.7 19.15 17.67 19.54C17.62 20.1 17.31 20.59 16.87 20.88H16.86Z" fill="#EE5253"/>
<path d="M30.57 12.39C30.64 12.39 30.71 12.39 30.78 12.39L30.35 11.07C30.22 10.68 30.06 10.31 29.85 9.95L28.47 9.81C28.04 9.77 27.66 9.54 27.42 9.18L25.51 6.36L25.23 6.53C24.99 6.68 24.9 6.97 25.01 7.23C25.42 8.19 26.07 10.51 23.42 11.62C21.77 12.31 20.07 13.15 18.75 13.84C19.56 13.85 20.44 14.03 21.32 14.4C22.57 14.92 23.57 15.72 24.16 16.58C24.21 16.52 24.26 16.47 24.3 16.42C25.69 14.96 28.35 14.3 29.95 14.02C29.28 13.9 28.81 13.59 28.81 13.23C28.81 12.76 29.6 12.38 30.57 12.38V12.39Z" fill="#FECA57"/>
<path d="M20.47 14.01C20.56 13.96 20.66 13.91 20.76 13.86C20.76 13.86 20.85 13.81 20.89 13.79C22.19 13.12 23.84 12.31 25.43 11.64C26.87 11.04 27.33 10.08 27.4 9.18L25.51 6.38L25.23 6.55C24.99 6.7 24.9 6.99 25.01 7.25C25.42 8.21 26.07 10.53 23.42 11.64C21.77 12.33 20.07 13.17 18.75 13.86C19.26 13.86 19.8 13.94 20.34 14.09C20.38 14.06 20.43 14.04 20.48 14.01H20.47Z" fill="#F4B537"/>
<path d="M28.4 9.9C27.97 9.86 27.59 9.63 27.35 9.27L25.43 6.43L26 6.08C26.23 5.94 26.54 5.98 26.72 6.19L29.19 9.02C29.46 9.33 29.7 9.68 29.9 10.04L28.41 9.89L28.4 9.9Z" fill="#8AC2FF"/>
<path d="M29.08 9.3C28.65 9.26 28.27 9.03 28.03 8.67L26.22 6C26.14 6 26.06 6.04 25.99 6.08L25.42 6.43L27.34 9.27C27.58 9.62 27.97 9.85 28.39 9.9L29.88 10.05C29.74 9.8 29.59 9.57 29.42 9.34L29.07 9.31L29.08 9.3Z" fill="#54A0FF"/>
<path d="M19.14 19.69C18.55 19.44 18.02 19.13 17.57 18.78C17.4 18.3 17.05 17.91 16.59 17.71C16.47 17.66 16.4 17.54 16.4 17.42C16.4 15.99 17.19 14.68 18.46 14.01C18.59 13.94 18.73 13.87 18.88 13.79C19.66 13.79 20.53 13.96 21.39 14.32C22.66 14.85 23.65 15.68 24.19 16.56C23.4 17.46 22.85 18.83 22.48 20.14C21.51 20.31 20.32 20.17 19.15 19.68L19.14 19.69Z" fill="#EE5253"/>
<path d="M16.58 17.71C17.04 17.91 17.4 18.3 17.56 18.78C18.01 19.13 18.54 19.44 19.13 19.69C19.29 19.76 19.45 19.82 19.61 19.87C19.64 19.76 19.66 19.65 19.67 19.54C19.74 18.75 19.29 18.03 18.59 17.72C18.47 17.67 18.4 17.55 18.4 17.43C18.4 16 19.19 14.69 20.46 14.02C19.91 13.87 19.37 13.8 18.86 13.8C18.72 13.87 18.58 13.95 18.44 14.02C17.17 14.68 16.38 16 16.38 17.43C16.38 17.56 16.45 17.67 16.57 17.72L16.58 17.71Z" fill="#D83941"/>
<path d="M4.62999 9.81C5.08999 9.27 5.88999 9.18 6.47999 9.58C8.31999 10.84 11.21 11.18 11.21 11.18L12.83 12.98L10.22 13.51C9.63999 13.63 9.04999 13.48 8.58999 13.1L4.60999 9.83C4.60999 9.83 4.61999 9.82 4.62999 9.81Z" fill="#3E4B5A"/>
<path d="M11.79 13.1L8.81001 10.65C8.02001 10.4 7.17001 10.06 6.47001 9.58C5.88001 9.18 5.08001 9.27 4.62001 9.81C4.62001 9.81 4.61001 9.82 4.60001 9.83L8.58001 13.1C9.03001 13.47 9.63001 13.62 10.21 13.51L11.88 13.17C11.88 13.17 11.82 13.12 11.79 13.1Z" fill="#374451"/>
<path d="M28.76 13.24C28.76 12.76 29.53 12.38 30.47 12.38C30.57 12.38 30.67 12.38 30.77 12.39L31.03 13.18C31.14 13.53 30.92 13.89 30.55 13.94C30.36 13.97 30.13 14 29.88 14.05C29.22 13.93 28.75 13.61 28.75 13.24H28.76Z" fill="#576574"/>
<path d="M30.07 13.24C30.07 12.94 30.37 12.68 30.82 12.53L30.78 12.39C30.68 12.39 30.58 12.38 30.48 12.38C29.53 12.38 28.77 12.77 28.77 13.24C28.77 13.61 29.24 13.93 29.9 14.05C30.15 14.01 30.37 13.97 30.57 13.94C30.62 13.94 30.67 13.92 30.71 13.9C30.33 13.74 30.08 13.5 30.08 13.24H30.07Z" fill="#3E4B5A"/>
</g>
<defs>
<clipPath id="clip0_34_221">
<rect width="32" height="19.7" fill="white" transform="translate(0 6)"/>
</clipPath>
</defs>
</svg>
