<svg width="32" height="32" viewBox="0 0 32 32" fill="none" xmlns="http://www.w3.org/2000/svg">
<g clip-path="url(#clip0_33_22877)">
<mask id="mask0_33_22877" style="mask-type:luminance" maskUnits="userSpaceOnUse" x="0" y="0" width="32" height="32">
<path d="M32 0H0V32H32V0Z" fill="white"/>
</mask>
<g mask="url(#mask0_33_22877)">
<path d="M19.72 12.28L21.5 14.06L20.07 15.49L19.04 14.46L17.54 12.96L16.51 11.93L17.94 10.5L19.72 12.28Z" fill="#EEF2FA"/>
<path d="M17.47 16.03L18.5 17.06L17.07 18.49L16.04 17.46L14.54 15.96L13.51 14.93L14.94 13.5L15.97 14.53L17.47 16.03Z" fill="#EEF2FA"/>
<path d="M14.47 19.03L15.5 20.06L14.07 21.49L13.04 20.46L12.29 19.71L11.54 18.96L10.51 17.93L11.94 16.5L12.97 17.53L14.47 19.03Z" fill="#EEF2FA"/>
<path d="M15.96 14.54L17.53 12.97L19.03 14.47L17.46 16.04L15.96 14.54Z" fill="#CDD2E1"/>
<path d="M12.96 17.53L14.53 15.96L16.03 17.46L14.46 19.03L12.96 17.53Z" fill="#CDD2E1"/>
<path d="M14.5 30.5V30.52C13.29 30.87 12.04 31.12 10.78 31.28L5.75 26.25L8 24L14.5 30.5Z" fill="#CDD2E1"/>
<path d="M8.00001 24L5.75001 26.25L0.710007 21.22C0.870007 19.96 1.12001 18.72 1.47001 17.5H1.49001L7.99001 24H8.00001Z" fill="#EEF2FA"/>
<path d="M26.25 5.75L31.28 10.78C31.12 12.04 30.87 13.28 30.52 14.5H30.5L24 7.99L26.25 5.74V5.75Z" fill="#CDD2E1"/>
<path d="M26.25 5.75L24 8L17.5 1.5V1.48C18.71 1.13 19.96 0.88 21.22 0.72L26.25 5.76V5.75Z" fill="#EEF2FA"/>
<path d="M5.75 26.25L10.79 31.28C7.6 31.7 4.35 31.53 1.22 30.78L5.75 26.25Z" fill="#80413E"/>
<path d="M5.75001 26.25L1.22001 30.79C0.470006 27.66 0.300006 24.41 0.720006 21.22L5.75001 26.25Z" fill="#974D4A"/>
<path d="M30.78 1.21C31.53 4.34 31.7 7.59 31.28 10.78L26.25 5.74L30.78 1.21Z" fill="#80413E"/>
<path d="M30.78 1.21L26.25 5.74L21.22 0.71C24.41 0.29 27.66 0.46 30.79 1.21H30.78Z" fill="#974D4A"/>
<path d="M20.07 15.5L21.5 14.07L19.72 12.29L24 8.01L30.5 14.51H30.52C29.44 18.33 27.4 21.8 24.58 24.59C21.79 27.41 18.32 29.45 14.5 30.53V30.51L7.99001 24.01L12.27 19.73L13.02 20.48L14.05 21.51L15.48 20.08L14.45 19.05L16.02 17.48L17.05 18.51L18.48 17.08L17.45 16.05L19.02 14.48L20.05 15.51L20.07 15.5Z" fill="#80413E"/>
<path d="M11.53 18.97L12.28 19.72L7.99 24L1.49 17.5H1.47C2.56 13.69 4.61 10.22 7.41 7.41C10.21 4.61 13.68 2.56 17.49 1.47V1.49L23.99 7.99L19.71 12.28L17.93 10.5L16.5 11.93L17.53 12.96L15.96 14.53L14.93 13.5L13.5 14.93L14.53 15.96L12.96 17.53L11.93 16.5L10.5 17.93L11.53 18.96V18.97Z" fill="#974D4A"/>
<path d="M14.82 18.68L12.29 16.15C12.2 16.06 12.07 16 11.94 16C11.81 16 11.68 16.05 11.59 16.15L10.16 17.58C10.07 17.67 10.01 17.8 10.01 17.93C10.01 18.06 10.06 18.19 10.16 18.28L13.73 21.85C13.82 21.94 13.95 22 14.08 22C14.21 22 14.34 21.95 14.43 21.85L15.86 20.42C15.95 20.33 16.01 20.2 16.01 20.07C16.01 19.94 15.96 19.81 15.86 19.72L14.82 18.69V18.68ZM14.07 21.5L13.04 20.47L12.29 19.72L11.54 18.97L10.51 17.94L11.94 16.51L12.97 17.54L14.47 19.04L15.5 20.07L14.07 21.5Z" fill="#572D2A"/>
<path d="M17.82 15.68L15.28 13.14C15.19 13.05 15.06 12.99 14.93 12.99C14.8 12.99 14.67 13.04 14.58 13.14L13.15 14.57C13.06 14.66 13 14.79 13 14.92C13 15.05 13.05 15.18 13.15 15.27L16.72 18.84C16.81 18.93 16.94 18.99 17.07 18.99C17.2 18.99 17.33 18.94 17.42 18.84L18.85 17.41C18.94 17.32 19 17.19 19 17.06C19 16.93 18.95 16.8 18.85 16.71L17.82 15.68ZM17.07 18.5L16.04 17.47L14.54 15.97L13.51 14.94L14.94 13.51L15.97 14.54L17.47 16.04L18.5 17.07L17.07 18.5Z" fill="#572D2A"/>
<path d="M21.85 13.72L18.28 10.15C18.19 10.06 18.06 10 17.93 10C17.8 10 17.67 10.05 17.58 10.15L16.15 11.58C16.06 11.67 16 11.8 16 11.93C16 12.06 16.05 12.19 16.15 12.28L19.72 15.85C19.81 15.94 19.94 16 20.07 16C20.2 16 20.33 15.95 20.42 15.85L21.85 14.42C21.94 14.33 22 14.2 22 14.07C22 13.94 21.95 13.81 21.85 13.72ZM20.07 15.5L19.04 14.47L17.54 12.97L16.51 11.94L17.94 10.51L19.72 12.29L21.5 14.07L20.07 15.5Z" fill="#572D2A"/>
<path d="M12.06 28.06H12.04C10.82 28.41 9.58001 28.66 8.32001 28.83L10.78 31.3C12.04 31.14 13.28 30.88 14.5 30.54V30.51L12.05 28.07L12.06 28.06Z" fill="#AFB4C8"/>
<path d="M28.06 12.04V12.06L30.5 14.5H30.53C30.87 13.29 31.13 12.04 31.29 10.78L28.82 8.32C28.66 9.58 28.4 10.82 28.06 12.04Z" fill="#AFB4C8"/>
<path d="M3.03 28.97L1.22 30.78C4.35 31.53 7.6 31.7 10.79 31.28L8.32 28.81C6.57 29.03 4.79 29.08 3.03 28.96V28.97Z" fill="#61312F"/>
<path d="M0.800009 28.73C0.900009 29.42 1.04001 30.11 1.21001 30.78L3.02001 28.97C2.17001 28.91 1.42001 28.82 0.790009 28.73H0.800009Z" fill="#80413E"/>
<path d="M30.78 1.21L28.97 3.02C29.09 4.78 29.04 6.56 28.82 8.31L31.29 10.78C31.71 7.59 31.54 4.34 30.79 1.21H30.78Z" fill="#61312F"/>
<path d="M30.78 1.21C30.1 1.03 29.42 0.9 28.73 0.8C28.83 1.43 28.91 2.18 28.97 3.03L30.78 1.22V1.21Z" fill="#80413E"/>
<path d="M28.06 12.06C26.98 15.87 24.94 19.34 22.13 22.12C19.34 24.93 15.88 26.98 12.07 28.05L14.51 30.49V30.51C18.33 29.43 21.8 27.39 24.59 24.57C27.41 21.78 29.45 18.31 30.53 14.49H30.51L28.07 12.04L28.06 12.06Z" fill="#61312F"/>
<path d="M4.22 16.75C4.1 16.75 3.98 16.72 3.88 16.67C3.77 16.61 3.68 16.53 3.61 16.44C3.54 16.34 3.5 16.23 3.48 16.11C3.46 15.99 3.48 15.87 3.52 15.76C5.25 11 8.68 7.04 13.16 4.66C13.34 4.57 13.54 4.55 13.73 4.61C13.92 4.67 14.08 4.8 14.17 4.98C14.26 5.16 14.28 5.36 14.22 5.55C14.16 5.74 14.03 5.9 13.85 5.99C9.71 8.2 6.53 11.85 4.92 16.26C4.87 16.41 4.77 16.53 4.65 16.62C4.52 16.71 4.37 16.76 4.22 16.76V16.75Z" fill="#D16B67"/>
<path d="M15.5 5.16C15.32 5.16 15.15 5.1 15.02 4.99C14.89 4.88 14.79 4.72 14.76 4.55C14.73 4.38 14.76 4.2 14.84 4.05C14.93 3.9 15.06 3.78 15.23 3.72C15.58 3.59 15.92 3.46 16.27 3.35C16.46 3.29 16.66 3.3 16.84 3.39C17.02 3.48 17.15 3.64 17.21 3.83C17.27 4.02 17.26 4.22 17.17 4.4C17.08 4.58 16.92 4.71 16.73 4.77C16.41 4.88 16.09 4.99 15.77 5.11C15.68 5.14 15.59 5.16 15.5 5.16Z" fill="#D16B67"/>
<path d="M18.65 7.16C18.97 6.84 18.87 6.22 18.42 5.77C17.97 5.32 17.35 5.22 17.03 5.54C16.71 5.86 16.81 6.48 17.26 6.93C17.71 7.38 18.33 7.48 18.65 7.16Z" fill="#F6FAFD"/>
<path d="M16.25 7.77C16.41 7.61 16.36 7.3 16.14 7.07C15.92 6.85 15.6 6.79 15.44 6.96C15.28 7.12 15.33 7.43 15.55 7.66C15.77 7.88 16.09 7.94 16.25 7.77Z" fill="#F6FAFD"/>
</g>
</g>
<defs>
<clipPath id="clip0_33_22877">
<rect width="32" height="32" fill="white"/>
</clipPath>
</defs>
</svg>
