<svg width="20" height="25" viewBox="0 0 20 25" fill="none" xmlns="http://www.w3.org/2000/svg">
<g clip-path="url(#clip0_482_27261)">
<path d="M19.188 5.20999L19.1234 4.8573L18.7707 4.78315C18.7479 4.7765 16.4197 4.29167 14.3497 3.13379C11.3975 1.4811 10.4046 0.439672 10.3951 0.430165L10.0005 0L9.60602 0.426838C9.59651 0.436345 8.60024 1.48443 5.6542 3.13379C3.58418 4.28834 1.25606 4.7765 1.22992 4.78315L0.877227 4.8573L0.812584 5.20999C0.401906 7.41881 0.395252 9.64046 0.796423 11.8231L0.974193 12.693L1.02268 12.8936C1.58546 15.1832 2.58125 17.324 3.98487 19.2548C5.50495 21.3471 7.43523 23.103 9.72485 24.4709L9.99959 24.6326L10.2743 24.4709C12.5639 23.103 14.4947 21.3471 16.0176 19.2548C17.4179 17.324 18.4109 15.1865 18.9765 12.8936L19.2027 11.8231C19.6039 9.64046 19.5973 7.41833 19.1866 5.20999H19.188Z" fill="black"/>
<path d="M18.661 5.30697C18.661 5.30697 16.2516 4.80883 14.0884 3.59962C10.9774 1.85994 10.0006 0.78952 10.0006 0.78952C10.0006 0.78952 9.02386 1.85994 5.91288 3.59962C3.74922 4.80931 1.3403 5.30697 1.3403 5.30697C0.89397 7.69355 0.94578 10.0835 1.4501 12.3569H18.5512C19.0527 10.0835 19.104 7.69355 18.661 5.30697Z" fill="#FFB300"/>
<path d="M10.0007 24.0085C14.5282 21.3048 17.5099 17.075 18.5513 12.3598H1.4502C2.49162 17.075 5.47331 21.3048 10.0007 24.0085Z" fill="#8E001C"/>
<path d="M8.458 20.7358C8.36103 20.7358 8.27357 20.7325 8.20893 20.7325C8.16995 20.7325 8.14096 20.7292 8.11814 20.7292C8.09865 20.7292 8.06633 20.7292 8.02118 20.7325C7.94988 20.7358 7.84958 20.7358 7.76878 20.7358C7.74929 20.7358 7.7298 20.7325 7.7298 20.713C7.7298 20.7002 7.73931 20.6902 7.74929 20.6902C7.77496 20.6902 7.87525 20.6836 7.91423 20.6741C7.97887 20.6612 7.98553 20.6322 7.99171 20.5704C7.99836 20.4896 8.00454 20.3214 8.00121 20.1079L7.99788 19.7814V19.5128C7.99788 19.4577 7.99456 19.4415 7.96889 19.4415C7.9399 19.4415 7.84578 19.4867 7.78447 19.5157C7.76498 19.5252 7.74549 19.5352 7.73598 19.5385C7.73266 19.5385 7.72933 19.5418 7.72648 19.5418C7.71982 19.5452 7.71364 19.5485 7.70699 19.5485C7.70033 19.5485 7.6875 19.5323 7.6875 19.5195C7.6875 19.5067 7.70033 19.4967 7.70699 19.4905C7.71032 19.4905 7.72315 19.4777 7.74882 19.4615C7.84911 19.3935 8.12052 19.2158 8.17898 19.1735C8.19514 19.1606 8.21463 19.1478 8.23079 19.1478C8.25028 19.1478 8.25979 19.1706 8.25979 19.193C8.25979 19.1963 8.24695 19.3935 8.24695 19.7267V20.1084C8.24695 20.299 8.24695 20.4801 8.25361 20.5709C8.26026 20.6356 8.26977 20.6617 8.33108 20.6779C8.36341 20.6845 8.45087 20.6907 8.46703 20.6907C8.47653 20.6907 8.48984 20.7002 8.48984 20.7135C8.48984 20.733 8.48033 20.7363 8.45752 20.7363L8.458 20.7358Z" fill="#100F0D"/>
<path d="M9.0309 20.7777C9.02139 20.7777 9.00808 20.7649 9.00808 20.752C9.01141 20.7359 9.0309 20.7197 9.03375 20.7164C9.09507 20.6774 9.24717 20.5709 9.37646 20.3737C9.49956 20.1859 9.56088 19.9825 9.56088 19.7657C9.56088 19.5072 9.46391 19.2453 9.25382 19.2453C9.1117 19.2453 9.01141 19.3745 9.01141 19.5495C9.01141 19.8698 9.22483 19.9345 9.27997 19.9345C9.33795 19.9345 9.38359 19.925 9.41923 19.9088C9.42874 19.9055 9.43872 19.8993 9.4449 19.896C9.45156 19.8926 9.45774 19.8893 9.46106 19.8893C9.47057 19.8893 9.48055 19.896 9.48055 19.9088C9.48388 19.9155 9.47722 19.9283 9.47104 19.9345C9.41591 19.9958 9.31894 20.0281 9.20249 20.0281C8.89828 20.0281 8.78516 19.7919 8.78516 19.6303C8.78516 19.4943 8.83697 19.3717 8.92728 19.2842C9.02092 19.1968 9.15353 19.1483 9.30563 19.1483C9.45774 19.1483 9.59653 19.2034 9.69064 19.3099C9.7781 19.4102 9.82326 19.549 9.82326 19.7044V19.7077C9.82326 19.9601 9.72962 20.1959 9.54187 20.4065C9.35412 20.6199 9.13452 20.7363 9.07273 20.7653C9.05989 20.7748 9.04706 20.7782 9.0309 20.7782V20.7777Z" fill="#100F0D"/>
<path d="M10.8257 20.7292H10.03C10.0138 20.7292 10.001 20.713 10.001 20.6969C10.001 20.684 10.0138 20.6646 10.04 20.6417C10.0594 20.6256 10.0789 20.6061 10.0979 20.5899C10.3793 20.3442 10.732 20.0371 10.732 19.636C10.732 19.4938 10.6964 19.3869 10.6317 19.3223C10.5638 19.2543 10.4863 19.2481 10.454 19.2481C10.3603 19.2481 10.2985 19.2709 10.2439 19.3223C10.1954 19.3707 10.1564 19.4677 10.1564 19.5162C10.1564 19.5357 10.1531 19.5452 10.1469 19.5518C10.1436 19.5585 10.1374 19.5585 10.1274 19.5585C10.1174 19.5585 10.1079 19.5423 10.1046 19.5133C10.1046 19.5067 10.1046 19.4905 10.1013 19.4682C10.0979 19.4102 10.0946 19.3099 10.0946 19.2676C10.0946 19.2481 10.0979 19.2386 10.1174 19.2224C10.2177 19.1706 10.3375 19.145 10.4863 19.145C10.8066 19.145 11.0006 19.3099 11.0006 19.5846C11.0006 19.9825 10.5642 20.3318 10.3052 20.5419L10.3019 20.5453C10.2985 20.5486 10.2952 20.5486 10.2952 20.5519C10.2952 20.5519 10.2985 20.5552 10.3019 20.5552H10.4411C10.5253 20.5552 10.7225 20.5552 10.7905 20.5457C10.9164 20.5296 10.9911 20.4716 11.0201 20.3646C11.0267 20.3418 11.0296 20.329 11.0457 20.329C11.0652 20.329 11.0652 20.3547 11.0652 20.3708C11.0652 20.4031 11.0262 20.5937 11.0072 20.665C10.9911 20.723 10.9554 20.7297 10.8261 20.7297L10.8257 20.7292Z" fill="#100F0D"/>
<path d="M11.5241 20.7649C11.5012 20.7649 11.4917 20.7582 11.4917 20.7392C11.4917 20.7135 11.4951 20.6841 11.5046 20.6551C11.5659 20.4416 11.8278 19.8399 12.0997 19.3779H11.5792C11.5307 19.3779 11.4399 19.3845 11.3886 19.4169C11.3529 19.4397 11.3273 19.5076 11.3206 19.54C11.3206 19.5594 11.3111 19.569 11.2978 19.569C11.2816 19.569 11.2783 19.5561 11.2783 19.5333C11.2783 19.4848 11.2912 19.3717 11.2978 19.2876C11.3011 19.2424 11.3073 19.2068 11.3073 19.1968C11.3073 19.1773 11.3168 19.1678 11.333 19.1678C11.3363 19.1678 11.3396 19.1678 11.3425 19.1711C11.3653 19.1744 11.4299 19.1873 11.6077 19.1873H12.258C12.2936 19.1873 12.3098 19.1939 12.3098 19.2068C12.3098 19.2196 12.3031 19.2358 12.2969 19.2457C12.1287 19.4848 11.8088 20.3 11.7793 20.5686C11.776 20.5914 11.776 20.6042 11.7793 20.6204V20.646C11.7793 20.685 11.611 20.7658 11.5241 20.7658V20.7649Z" fill="#100F0D"/>
<path d="M8.458 20.6612C8.36103 20.6612 8.27357 20.6579 8.20893 20.6579C8.16995 20.6579 8.14096 20.6546 8.11814 20.6546C8.09865 20.6546 8.06633 20.6546 8.02118 20.6579C7.94988 20.6612 7.84958 20.6612 7.76878 20.6612C7.74929 20.6612 7.7298 20.6612 7.7298 20.6418C7.7298 20.6256 7.73931 20.6161 7.74929 20.6161C7.77496 20.6161 7.87525 20.6094 7.91423 20.5999C7.97887 20.5871 7.98553 20.5581 7.99171 20.493C7.99836 20.4088 8.00454 20.2344 8.00121 20.0338L7.99788 19.7073V19.4387C7.99788 19.3836 7.99456 19.3674 7.96889 19.3674C7.9399 19.3674 7.84578 19.4126 7.78447 19.4416C7.76498 19.4511 7.74549 19.4611 7.73598 19.4644C7.73266 19.4644 7.72933 19.4677 7.72648 19.4677C7.71982 19.471 7.71364 19.4744 7.70699 19.4744C7.70033 19.4744 7.6875 19.4649 7.6875 19.4487C7.6875 19.4359 7.69415 19.4259 7.70699 19.4164C7.71032 19.4164 7.72315 19.4035 7.74882 19.3874C7.84911 19.3194 8.12052 19.1416 8.17898 19.0993C8.19514 19.0865 8.21463 19.0737 8.23079 19.0737C8.25028 19.0737 8.25979 19.0965 8.25979 19.1188C8.25979 19.1222 8.24695 19.3194 8.24695 19.6526V20.0343C8.24695 20.2249 8.24695 20.406 8.25361 20.4935C8.26026 20.5614 8.26977 20.5904 8.33108 20.6033C8.36341 20.6099 8.45087 20.6161 8.46703 20.6161C8.47653 20.6161 8.48984 20.6227 8.48984 20.6418C8.48984 20.6608 8.47701 20.6612 8.45752 20.6612H8.458Z" fill="#BCB9B7"/>
<path d="M9.03042 20.7069C9.02092 20.7069 9.00761 20.6941 9.00761 20.6812C9.00761 20.6684 9.02044 20.6556 9.03042 20.6489L9.03375 20.6456C9.09507 20.6099 9.24717 20.5034 9.37646 20.3029C9.49956 20.1151 9.56088 19.9117 9.56088 19.6949C9.56088 19.4364 9.46391 19.1744 9.25382 19.1744C9.1117 19.1744 9.01141 19.3037 9.01141 19.4787C9.01141 19.799 9.22483 19.8637 9.27997 19.8637C9.34794 19.8637 9.38976 19.8508 9.41923 19.8409C9.42589 19.8375 9.42874 19.8342 9.43539 19.8313C9.44823 19.8218 9.45488 19.8152 9.46106 19.8152C9.4739 19.8152 9.48055 19.828 9.48055 19.838C9.48388 19.8447 9.47722 19.8575 9.47104 19.8637C9.41591 19.925 9.31894 19.9573 9.20249 19.9573C8.89828 19.9573 8.78516 19.7211 8.78516 19.5595C8.78516 19.4235 8.83697 19.3009 8.92728 19.2134C9.02091 19.126 9.15353 19.0775 9.30563 19.0775C9.45774 19.0775 9.59653 19.1326 9.69064 19.2391C9.7781 19.3394 9.82326 19.4782 9.82326 19.6369V19.6403C9.82326 19.8927 9.72962 20.1284 9.54187 20.339C9.35412 20.5524 9.13452 20.6689 9.07273 20.6979C9.05989 20.7012 9.04991 20.7074 9.0309 20.7074L9.03042 20.7069Z" fill="#BCB9B7"/>
<path d="M10.8257 20.6584H10.03C10.0138 20.6584 10.001 20.6422 10.001 20.6261C10.001 20.6132 10.0138 20.5938 10.04 20.5709C10.0628 20.5515 10.0851 20.5291 10.1113 20.5096C10.3893 20.2672 10.732 19.963 10.732 19.5652C10.732 19.423 10.6964 19.3161 10.6317 19.2515C10.5638 19.1835 10.4863 19.1773 10.454 19.1773C10.3603 19.1773 10.2985 19.2001 10.2439 19.2515C10.1954 19.2999 10.1564 19.3969 10.1564 19.4454C10.1564 19.4615 10.1531 19.4744 10.1498 19.481C10.1464 19.4877 10.1369 19.4877 10.1303 19.4877C10.1208 19.4877 10.1108 19.4749 10.1074 19.4459V19.423C10.1041 19.3712 10.0979 19.2486 10.0979 19.1968C10.0979 19.1806 10.1013 19.1711 10.1208 19.155C10.2211 19.1032 10.3408 19.0775 10.4896 19.0775C10.81 19.0775 11.0039 19.2424 11.0039 19.5172C11.0039 19.915 10.5676 20.2644 10.3052 20.4745L10.3019 20.4778C10.2985 20.4811 10.2952 20.4844 10.2952 20.4844C10.2952 20.4878 10.2985 20.4878 10.3019 20.4878H10.4411C10.483 20.4878 10.7192 20.4844 10.7905 20.4749C10.9164 20.4588 10.9911 20.4008 11.0201 20.2938C11.0234 20.271 11.0329 20.2582 11.0457 20.2582C11.0652 20.2582 11.0652 20.2838 11.0652 20.3C11.0652 20.3323 11.0262 20.5229 11.0072 20.5942C10.9911 20.6522 10.9554 20.6589 10.8261 20.6589L10.8257 20.6584Z" fill="#BCB9B7"/>
<path d="M11.5237 20.6907C11.498 20.6907 11.4913 20.6874 11.4913 20.6651C11.4913 20.6394 11.4947 20.6099 11.5042 20.5809C11.5365 20.474 11.6206 20.2639 11.7209 20.0443C11.844 19.7757 11.9762 19.5138 12.1026 19.3037H11.5821C11.5336 19.3037 11.4429 19.3104 11.3915 19.3427C11.3559 19.3655 11.3302 19.4335 11.3236 19.4658C11.3236 19.4853 11.314 19.4948 11.3007 19.4948C11.2846 19.4948 11.2812 19.482 11.2812 19.4625C11.2812 19.4107 11.2941 19.288 11.3041 19.2039C11.3074 19.1649 11.3107 19.1326 11.3107 19.1264C11.3107 19.1036 11.3202 19.0941 11.3364 19.0941C11.3397 19.0941 11.343 19.0941 11.3459 19.0974C11.3687 19.1008 11.4334 19.1136 11.6111 19.1136H12.2614C12.297 19.1136 12.3132 19.1203 12.3132 19.1331C12.3132 19.1459 12.3065 19.1621 12.3003 19.1721C12.1321 19.4178 11.8122 20.233 11.7827 20.4949C11.7794 20.5177 11.7794 20.5305 11.7827 20.5467V20.5724C11.7794 20.6113 11.6111 20.6921 11.5241 20.6921L11.5237 20.6907Z" fill="#BCB9B7"/>
<path d="M4.39912 15.8658C4.39912 15.9076 4.40577 15.9237 4.43144 15.9337C4.51224 15.9627 4.6287 15.9756 4.72233 15.9756C4.87444 15.9756 4.92292 15.9594 4.99422 15.9076C5.10734 15.8268 5.22047 15.649 5.22047 15.3353C5.22047 14.7953 4.8616 14.6366 4.63535 14.6366C4.53839 14.6366 4.47041 14.6399 4.43144 14.6527C4.40577 14.6594 4.39912 14.6755 4.39912 14.7045V15.8658ZM3.94946 15.5649C3.94946 14.9859 3.94946 14.8795 3.94281 14.7564C3.93615 14.6271 3.90383 14.5657 3.77787 14.5363C3.74888 14.5296 3.68423 14.5268 3.6291 14.5268C3.58727 14.5268 3.56445 14.5201 3.56445 14.4911C3.56445 14.4655 3.59012 14.4588 3.64858 14.4588C3.84917 14.4588 4.09158 14.4716 4.17239 14.4716C4.30168 14.4716 4.59257 14.4588 4.70903 14.4588C4.95144 14.4588 5.20716 14.4816 5.4106 14.6204C5.5204 14.6946 5.6725 14.889 5.6725 15.1442C5.6725 15.4289 5.55272 15.6875 5.16819 16.0012C5.50756 16.4281 5.77279 16.7674 5.99619 17.0037C6.20961 17.2266 6.3679 17.2527 6.42636 17.2656C6.46534 17.2722 6.50051 17.2751 6.52998 17.2751C6.5623 17.2751 6.57846 17.2879 6.57846 17.3041C6.57846 17.3364 6.5528 17.343 6.50431 17.343H6.14212C5.9287 17.343 5.83506 17.3269 5.73477 17.2717C5.56983 17.1843 5.42438 17.0032 5.21096 16.709C5.05886 16.4989 4.88109 16.2398 4.83261 16.1852C4.81312 16.1595 4.79078 16.1562 4.76464 16.1562L4.43144 16.1495C4.41195 16.1495 4.40244 16.1562 4.40244 16.1785V16.2336C4.40244 16.5892 4.40244 16.8901 4.4186 17.0488C4.43144 17.162 4.45425 17.2461 4.57071 17.2589C4.62584 17.2684 4.70998 17.2751 4.75846 17.2751C4.78745 17.2751 4.80361 17.2879 4.80361 17.3041C4.80361 17.3331 4.77462 17.343 4.72614 17.343C4.50321 17.343 4.22182 17.3335 4.16668 17.3335C4.09253 17.3335 3.84965 17.343 3.69754 17.343C3.64906 17.343 3.62339 17.3335 3.62339 17.3041C3.62339 17.2879 3.63623 17.2751 3.68471 17.2751C3.73985 17.2751 3.785 17.2684 3.82065 17.2589C3.89813 17.2461 3.91762 17.162 3.93045 17.0488C3.94994 16.8905 3.94994 16.5897 3.94994 16.237V15.5644L3.94946 15.5649Z" fill="#110F0D"/>
<path d="M9.00033 15.9755C9.00033 15.1185 8.50885 14.5881 7.88476 14.5881C7.44176 14.5881 6.94362 14.8338 6.94362 15.7845C6.94362 16.5801 7.38329 17.2076 8.11434 17.2076C8.38289 17.2076 9.00366 17.0816 9.00033 15.9755ZM6.41649 15.9042C6.41649 15.2512 6.84666 14.407 7.99456 14.407C8.9452 14.407 9.53697 14.9598 9.53697 15.8329C9.53697 16.7061 8.92571 17.3982 7.95558 17.3982C6.85616 17.3982 6.41602 16.5801 6.41602 15.9042H6.41649Z" fill="#110F0D"/>
<path d="M10.1326 14.5073C10.1421 14.4393 10.1649 14.407 10.1972 14.407C10.2262 14.407 10.249 14.4231 10.3008 14.5234L11.3422 16.6481L12.3803 14.4978C12.4093 14.4365 12.4288 14.407 12.4645 14.407C12.5001 14.407 12.5225 14.4426 12.5325 14.5234L12.8818 16.8615C12.9175 17.1006 12.9531 17.2142 13.0696 17.2465C13.1794 17.2822 13.2573 17.2855 13.3058 17.2855C13.3414 17.2855 13.3671 17.2889 13.3671 17.3112C13.3671 17.3435 13.322 17.353 13.2668 17.353C13.1732 17.353 12.6461 17.3464 12.494 17.3335C12.4032 17.3269 12.3808 17.314 12.3808 17.2946C12.3808 17.2751 12.397 17.2622 12.4227 17.2494C12.4455 17.2427 12.4583 17.1943 12.4421 17.0878L12.2126 15.4256H12.1964L11.3651 17.1301C11.2776 17.3079 11.2581 17.3435 11.2229 17.3435C11.1906 17.3435 11.1516 17.266 11.0903 17.1529C10.9995 16.9785 10.6991 16.3929 10.6507 16.2864C10.6183 16.2056 10.3888 15.7559 10.2561 15.4684H10.24L10.0427 16.9561C10.0361 17.0274 10.0332 17.0759 10.0332 17.1372C10.0332 17.2085 10.0817 17.2442 10.1463 17.2603C10.2176 17.2765 10.2694 17.2798 10.308 17.2798C10.3369 17.2798 10.3659 17.2865 10.3659 17.3055C10.3659 17.3411 10.3303 17.3473 10.2723 17.3473C10.114 17.3473 9.9391 17.3345 9.87113 17.3345C9.80316 17.3345 9.61588 17.3473 9.49278 17.3473C9.45713 17.3473 9.4248 17.3407 9.4248 17.3055C9.4248 17.286 9.44762 17.2798 9.48612 17.2798C9.51512 17.2798 9.54411 17.2798 9.59925 17.267C9.70619 17.2442 9.73852 17.0954 9.75753 16.9661L10.1326 14.5082V14.5073Z" fill="#110F0D"/>
<path d="M15.0968 16.1795C15.1163 16.1795 15.1196 16.1699 15.1163 16.1566L14.7736 15.2188C14.7702 15.2027 14.7669 15.1832 14.7541 15.1832C14.7412 15.1832 14.7346 15.2027 14.7313 15.2188L14.3819 16.1533C14.3786 16.1695 14.3786 16.179 14.3947 16.179C14.3914 16.179 15.0963 16.179 15.0963 16.179L15.0968 16.1795ZM14.3173 16.3701C14.2978 16.3701 14.2883 16.3796 14.2816 16.4024L14.0748 16.9262C14.0359 17.0198 14.0169 17.1106 14.0169 17.1591C14.0169 17.2271 14.0525 17.2755 14.169 17.2755H14.2269C14.2721 17.2755 14.2849 17.285 14.2849 17.3079C14.2849 17.3369 14.2621 17.3435 14.2203 17.3435C14.0972 17.3435 13.9356 17.334 13.8163 17.334C13.7744 17.334 13.5639 17.3435 13.3633 17.3435C13.3148 17.3435 13.292 17.3369 13.292 17.3079C13.292 17.285 13.3082 17.2755 13.3371 17.2755C13.3728 17.2755 13.4246 17.2722 13.4569 17.2689C13.6314 17.2461 13.7027 17.1168 13.7801 16.9262L14.7374 14.5558C14.7826 14.446 14.8087 14.407 14.8444 14.407C14.88 14.407 14.9057 14.4393 14.9414 14.5268C15.035 14.7369 15.6429 16.2636 15.8887 16.8454C16.0341 17.1881 16.1439 17.2399 16.2252 17.2594C16.2832 17.2722 16.3383 17.2755 16.3868 17.2755C16.4158 17.2755 16.4353 17.2789 16.4353 17.3079C16.4353 17.3369 16.3996 17.3435 16.2608 17.3435C16.1221 17.3435 15.8435 17.3435 15.5398 17.3369C15.4685 17.3335 15.4233 17.3335 15.4233 17.3079C15.4233 17.285 15.4362 17.2755 15.4751 17.2722C15.5041 17.2656 15.5303 17.2304 15.5108 17.1848L15.2066 16.3991C15.1971 16.3796 15.1871 16.3701 15.1676 16.3701H14.3173Z" fill="#110F0D"/>
<path d="M4.39912 15.7816C4.39912 15.8268 4.40577 15.8396 4.43144 15.8529C4.51224 15.8786 4.6287 15.8919 4.72233 15.8919C4.87444 15.8919 4.92292 15.8757 4.99422 15.8272C5.10734 15.7398 5.22047 15.5653 5.22047 15.2516C5.22047 14.7117 4.8616 14.5529 4.63535 14.5529C4.53839 14.5529 4.47041 14.5562 4.43144 14.5691C4.40577 14.5757 4.39912 14.5919 4.39912 14.6209V15.7821V15.7816ZM3.94946 15.4807C3.94946 14.9018 3.94946 14.7953 3.94281 14.6722C3.93615 14.5429 3.90383 14.4816 3.77787 14.4521C3.74888 14.4455 3.68423 14.4426 3.6291 14.4426C3.58727 14.4426 3.56445 14.436 3.56445 14.407C3.56445 14.3813 3.59012 14.3747 3.64858 14.3747C3.84917 14.3747 4.09158 14.3842 4.17239 14.3842C4.30168 14.3842 4.59257 14.3747 4.70903 14.3747C4.95144 14.3747 5.20716 14.3975 5.4106 14.5363C5.5204 14.6104 5.6725 14.8048 5.6725 15.0601C5.6725 15.3448 5.55272 15.6034 5.16819 15.9171C5.50756 16.3439 5.77279 16.6833 5.99619 16.9195C6.20961 17.1425 6.3679 17.1686 6.42636 17.1814C6.46534 17.1881 6.50051 17.1909 6.52998 17.1909C6.5623 17.1909 6.57846 17.2038 6.57846 17.2199C6.57846 17.2523 6.5528 17.2589 6.50431 17.2589H6.14212C5.9287 17.2589 5.83506 17.2394 5.73477 17.1876C5.56983 17.1002 5.42438 16.9191 5.21096 16.6248C5.05886 16.4181 4.88109 16.1557 4.83261 16.101C4.81312 16.0754 4.79078 16.072 4.76464 16.072L4.43144 16.0654C4.41195 16.0654 4.40244 16.072 4.40244 16.0944V16.1495C4.40244 16.5051 4.40244 16.8059 4.4186 16.9647C4.43144 17.0778 4.45425 17.1619 4.57071 17.1748C4.62584 17.1843 4.70998 17.1909 4.75846 17.1909C4.78745 17.1909 4.80361 17.2038 4.80361 17.2199C4.80361 17.2489 4.77462 17.2589 4.72614 17.2589C4.50321 17.2589 4.22182 17.2494 4.16668 17.2494C4.09253 17.2494 3.84965 17.2589 3.69754 17.2589C3.64906 17.2589 3.62339 17.2494 3.62339 17.2199C3.62339 17.2038 3.63623 17.1909 3.68471 17.1909C3.73985 17.1909 3.785 17.1843 3.82065 17.1748C3.89813 17.1619 3.91762 17.0778 3.93045 16.9647C3.94994 16.8064 3.94994 16.5055 3.94994 16.1528V15.4803L3.94946 15.4807Z" fill="#FBBA00"/>
<path d="M9.00033 15.8914C9.00033 15.0344 8.50885 14.5039 7.88476 14.5039C7.44176 14.5039 6.94362 14.7497 6.94362 15.7003C6.94362 16.496 7.38329 17.1234 8.11434 17.1234C8.38289 17.1234 9.00366 16.9941 9.00033 15.8914ZM6.41649 15.8201C6.41649 15.167 6.84666 14.3228 7.99456 14.3228C8.9452 14.3228 9.53697 14.8756 9.53697 15.7488C9.53697 16.622 8.92571 17.314 7.95558 17.314C6.85616 17.314 6.41602 16.496 6.41602 15.8201H6.41649Z" fill="#FBBA00"/>
<path d="M10.1326 14.417C10.1421 14.3523 10.1649 14.32 10.1972 14.32C10.2262 14.32 10.249 14.3395 10.3008 14.4365L11.3422 16.5611L12.3803 14.4108C12.4093 14.3495 12.4288 14.32 12.4645 14.32C12.5001 14.32 12.5225 14.359 12.5325 14.4365L12.8818 16.7746C12.9175 17.0137 12.9531 17.1273 13.0696 17.1624C13.1794 17.1947 13.2573 17.1981 13.3058 17.1981C13.3414 17.1981 13.3671 17.2014 13.3671 17.2237C13.3671 17.2561 13.322 17.2656 13.2668 17.2656C13.1699 17.2656 12.6461 17.2589 12.494 17.2494C12.4032 17.2399 12.3808 17.2299 12.3808 17.2076C12.3808 17.1881 12.397 17.1753 12.4227 17.1658C12.4455 17.1562 12.4583 17.1078 12.4421 17.0008L12.2126 15.3386H12.1964L11.3651 17.0431C11.2776 17.2209 11.2581 17.2565 11.2229 17.2565C11.1906 17.2565 11.1516 17.1791 11.0903 17.0659C10.9995 16.8915 10.6991 16.3059 10.6507 16.1994C10.6183 16.1186 10.3888 15.669 10.2561 15.3814H10.24L10.0427 16.872C10.0361 16.94 10.0332 16.9885 10.0332 17.0498C10.0332 17.1211 10.0817 17.1567 10.1463 17.1729C10.2176 17.189 10.2694 17.1924 10.308 17.1924C10.3369 17.1924 10.3659 17.199 10.3659 17.218C10.3659 17.2537 10.3303 17.2599 10.2723 17.2599C10.114 17.2599 9.9391 17.2504 9.87113 17.2504C9.80316 17.2504 9.61588 17.2599 9.49278 17.2599C9.45713 17.2599 9.4248 17.2532 9.4248 17.218C9.4248 17.1986 9.44762 17.1924 9.48612 17.1924C9.51512 17.1924 9.54411 17.1924 9.59925 17.1795C9.70619 17.1567 9.73852 17.0079 9.75753 16.8787L10.1326 14.4174V14.417Z" fill="#FBBA00"/>
<path d="M15.0968 16.0953C15.1163 16.0953 15.1196 16.0858 15.1163 16.0725L14.7736 15.1347C14.7702 15.1185 14.7669 15.099 14.7541 15.099C14.7412 15.099 14.7346 15.1185 14.7313 15.1347L14.3819 16.0692C14.3786 16.0853 14.3786 16.0948 14.3947 16.0948C14.3914 16.0948 15.0963 16.0948 15.0963 16.0948L15.0968 16.0953ZM14.3173 16.2859C14.2978 16.2859 14.2883 16.2954 14.2816 16.3149L14.0748 16.842C14.0359 16.9357 14.0169 17.0265 14.0169 17.075C14.0169 17.1429 14.0525 17.1914 14.169 17.1914H14.2269C14.2721 17.1914 14.2849 17.2009 14.2849 17.2237C14.2849 17.2527 14.2621 17.2594 14.2203 17.2594C14.0972 17.2594 13.9356 17.2499 13.8163 17.2499C13.7744 17.2499 13.5639 17.2594 13.3633 17.2594C13.3148 17.2594 13.292 17.2527 13.292 17.2237C13.292 17.2009 13.3082 17.1914 13.3371 17.1914C13.3728 17.1914 13.4246 17.1881 13.4569 17.1848C13.6314 17.1619 13.7027 17.0326 13.7801 16.842L14.7374 14.4716C14.7826 14.3618 14.8087 14.3195 14.8444 14.3195C14.88 14.3195 14.9057 14.3552 14.9414 14.4426C15.035 14.6527 15.6429 16.1794 15.8887 16.7612C16.0341 17.1039 16.1439 17.1558 16.2252 17.1752C16.2832 17.1881 16.3383 17.1914 16.3868 17.1914C16.4158 17.1914 16.4353 17.1947 16.4353 17.2237C16.4353 17.2527 16.3996 17.2594 16.2608 17.2594C16.1221 17.2594 15.8435 17.2594 15.5398 17.2527C15.4685 17.2494 15.4233 17.2494 15.4233 17.2237C15.4233 17.2009 15.4362 17.1914 15.4751 17.1881C15.5041 17.1814 15.5303 17.1463 15.5108 17.1006L15.2066 16.3149C15.1971 16.2954 15.1871 16.2859 15.1676 16.2859H14.3173Z" fill="#FBBA00"/>
<path d="M18.6864 12.4862H1.31386C1.24256 12.4862 1.18457 12.4282 1.18457 12.3569C1.18457 12.2856 1.24256 12.2276 1.31386 12.2276H18.6864C18.7577 12.2276 18.8156 12.2856 18.8156 12.3569C18.8156 12.4282 18.7577 12.4862 18.6864 12.4862Z" fill="#17191D"/>
<path d="M3.26454 7.71589C3.19039 7.76437 3.16092 7.63176 3.16092 7.63176C3.1381 7.57995 3.1381 7.52481 3.16757 7.5058C3.22556 7.53812 3.29068 7.53812 3.31302 7.57044C3.33583 7.60942 3.30351 7.69355 3.26454 7.71589ZM17.0569 10.8658C17.0084 10.8045 16.9566 10.7427 16.9015 10.6752C16.6557 10.3777 16.1091 9.64379 16.1091 9.64379C16.1091 7.26053 15.6823 6.81754 15.2426 6.44203C14.8576 6.11216 14.2402 5.9439 13.5771 5.84075C13.396 5.81176 13.1987 5.80177 12.9692 5.80177C12.7396 5.80177 12.5262 5.81128 12.3127 5.82459C12.135 5.8341 9.02732 5.96386 8.02773 5.7956C7.59423 5.7243 6.98962 5.80843 6.63408 5.85073C6.46915 5.87022 5.57032 6.01234 5.4667 5.84408C5.44388 5.81176 5.44721 5.74046 5.45719 5.66298C5.4667 5.53702 5.51851 5.38492 5.42154 5.24898C5.2856 5.06122 5.14015 4.86111 5.05935 4.86111C5.03368 4.86111 4.81361 5.04221 4.75847 5.09735C4.66768 5.18814 4.63869 5.33644 4.64201 5.51135C4.64534 5.6183 4.63869 5.59881 4.62918 5.60499C4.61635 5.61783 4.04406 5.61783 3.90147 5.63066C3.90147 5.60166 3.89481 5.45289 3.79785 5.31029C3.73653 5.21951 3.68139 4.9191 3.68139 4.9191C3.68139 4.9191 3.47463 5.27797 3.40666 5.37208C3.32918 5.47903 3.24837 5.58883 3.19989 5.71479C3.18373 5.76327 3.1804 5.82174 3.17422 5.8764C3.17422 5.91823 3.16757 6.00236 3.15141 6.01567C3.04161 6.09647 2.97982 6.20627 2.97031 6.34554C2.96698 6.38452 2.97982 6.43918 2.9898 6.50097C2.99931 6.5428 3.01261 6.60459 3.01261 6.63359C2.99978 6.64309 2.9898 6.64975 2.98029 6.6564C2.88 6.71772 2.74739 6.8085 2.75737 6.96061C2.7702 7.19351 2.82201 7.28382 2.89664 7.41026C2.91612 7.44591 2.93846 7.48156 2.96128 7.52671C2.9936 7.58803 3.00976 7.67882 3.0226 7.7658C3.04208 7.88558 2.92896 8.0182 3.00644 8.09235C3.10673 8.19264 3.36863 8.19929 3.48508 8.19929C3.51408 8.19929 3.63386 8.19597 3.66285 8.19597C3.70468 8.19597 3.74033 8.19929 3.7698 8.20262C3.98987 8.24778 4.20615 8.26394 4.42004 8.28343C4.71094 8.30291 4.98615 8.32525 5.26421 8.40938C5.77518 8.55816 6.2795 8.76825 6.80377 9.04964C6.83277 9.06248 6.85891 9.07864 6.88458 9.09147C7.07851 9.19176 7.12081 9.17893 7.21112 9.44416C7.30476 9.71271 7.13697 11.8051 7.098 12.0213C7.04001 12.3707 6.92641 12.5808 6.74531 12.6488C6.5029 12.7362 6.4026 12.9268 6.30896 13.1113C6.27664 13.1692 6.2833 13.2405 6.24432 13.3019C6.24432 13.3019 6.16684 13.3893 6.19251 13.4088C6.21818 13.4316 6.46439 13.3732 6.46439 13.3732C6.54853 13.3798 6.45774 13.4216 6.54187 13.4216C6.74864 13.4216 7.00103 13.4216 7.25675 13.2762C7.3637 13.2762 7.2924 13.4121 7.38937 13.3926C7.69643 13.3375 7.72257 13.1018 7.76107 12.8784C7.82239 12.5 7.81288 12.4354 7.85471 12.3997C7.89654 12.3641 8.03248 12.4225 8.06813 12.3835C8.09712 12.3512 8.06813 12.0765 8.08096 11.8274C8.10378 11.4719 8.20074 11.0579 8.30721 10.7152L8.31387 10.6957C8.33668 10.6215 8.37186 10.5307 8.40751 10.4338C8.5078 10.1719 8.62758 9.85484 8.61427 9.59959C8.72407 9.61908 8.74023 9.62526 8.80202 9.71271C8.81153 9.72555 8.82769 9.75169 8.84718 9.78069C8.96696 9.97794 9.02828 10.0331 9.10908 10.0331C9.11573 10.0331 9.12524 10.0331 9.1319 10.0298C9.26118 9.99743 9.33248 9.88763 9.40378 9.74171C9.47793 9.59959 9.55255 9.45366 9.67566 9.42467H9.69182C9.78879 9.42467 9.96371 9.51213 10.0635 9.66708C10.2803 10.0036 10.4675 9.76738 10.4837 9.73838C10.5094 9.69941 10.6843 9.41184 10.7294 9.34387C10.7813 9.26306 10.8136 9.25641 10.8264 9.25641H10.8297C10.9367 9.27257 11.402 9.82869 11.567 9.79304C11.7252 9.77356 11.9035 9.16229 12.0033 9.16229C12.0066 9.16229 12.0128 9.16229 12.0161 9.16562C12.0418 9.18511 12.0969 9.26924 12.1326 9.3239C12.2557 9.51165 12.2847 9.63429 12.3817 9.63429C12.414 9.63429 12.4658 9.60862 12.4981 9.52734C12.5076 9.50452 12.5466 9.41421 12.5499 9.40138C12.5566 9.41089 12.6407 9.68942 12.8408 9.44036C12.8375 9.43703 12.8375 9.4337 12.8342 9.43085V9.43418V9.42752V9.43085C12.8632 9.36621 13.2353 9.73505 13.4131 9.87718C13.5747 10.026 13.7107 10.1586 13.7202 10.1681C14.1052 10.5075 14.5805 10.9343 14.6708 11.3939C14.7259 11.6592 14.7126 11.9662 14.6385 12.2576C14.6223 12.3189 14.6062 12.3545 14.59 12.3645C14.5772 12.374 14.5349 12.3774 14.4802 12.3774C14.4574 12.3774 14.4317 12.3807 14.4027 12.384C14.2701 12.3907 14.1827 12.5295 14.1018 12.6526C14.0662 12.7106 14.0177 12.7595 13.9949 12.798C13.9692 12.8432 14.0077 12.9111 14.0339 12.9273C14.0567 12.9401 14.2925 12.9953 14.3638 12.9953C14.3832 12.9953 14.4056 12.9953 14.4189 12.9886C14.4707 13.0081 14.532 13.0176 14.6 13.0176C14.8068 13.0176 15.0658 12.9335 15.1366 12.7914C15.2626 12.549 15.3467 12.2837 15.4275 12.028C15.437 11.999 15.447 11.97 15.4532 11.9405C15.4727 11.8854 15.4983 11.8208 15.5245 11.7561C15.6119 11.5232 15.7636 11.2708 15.6961 11.0412C15.6604 10.9181 15.5378 10.8021 15.4598 10.6952C15.3919 10.6044 15.13 10.2617 15.0492 10.1453C15.2949 10.3815 15.9708 10.7304 16.1424 11.1382C16.2037 11.2836 16.1424 11.8854 16.1329 12.0437C16.1262 12.1212 16.1234 12.1991 16.1201 12.2766C16.1134 12.5223 16.0426 12.5675 15.7935 12.5936C15.5801 12.6131 15.4798 12.9302 15.428 13.1013C15.4247 13.1108 15.4213 13.1208 15.4213 13.1269L15.3957 13.2077L15.4798 13.2206C15.5121 13.2272 15.5444 13.2334 15.5834 13.2401C15.7389 13.2691 15.9974 13.366 16.1819 13.366C16.3953 13.366 16.5474 13.3142 16.6443 13.2077C16.7703 13.0751 16.8159 12.8294 16.8578 12.616C16.8739 12.5385 16.9647 12.2505 16.997 12.1468C17.2009 11.4937 17.4011 11.2413 17.0583 10.8663L17.0569 10.8658Z" fill="black"/>
<path d="M16.0515 12.761C16.0287 12.8061 15.9417 12.8161 15.9123 12.8256C15.8543 12.8513 15.7958 12.8869 15.7991 12.9325C15.7991 12.9487 15.7896 13.146 15.7991 13.1655C15.812 13.1883 15.8928 13.2139 15.9123 13.1883C15.9218 13.1688 15.9089 13.03 15.9251 12.933C15.9284 12.9202 15.9379 12.8617 15.9669 12.8489C15.9764 12.8456 16.0739 12.8037 16.0511 12.7614L16.0515 12.761Z" fill="#BCB9B7"/>
<path d="M9.10153 9.27826C9.17568 9.27161 9.2793 9.2526 9.31495 9.27826C9.34727 9.30393 9.39908 9.39472 9.39575 9.44985C9.39242 9.50499 9.21133 9.79921 9.19849 9.81205C9.18899 9.82821 9.1695 9.86719 9.13718 9.82488C9.10485 9.77973 9.04639 9.33007 9.04639 9.33007C9.04639 9.33007 9.03688 9.28492 9.10153 9.27826Z" fill="#BCB9B7"/>
<path d="M16.9798 11.0146C16.8796 10.8725 16.6305 10.6168 16.5302 10.4941C16.3976 10.3325 15.7896 9.61764 15.7896 9.61764C15.7896 9.61764 15.6152 8.54056 15.5406 8.29482C15.4954 8.13939 15.3628 7.00147 14.483 6.38688C14.5315 6.30608 15.1004 6.7524 15.3043 7.10176C15.6794 7.73251 15.8381 9.38188 15.8381 9.38188C15.8381 9.38188 16.0772 6.86268 14.7449 6.33222C13.7876 5.93105 13.3123 5.99569 13.3123 5.99569C13.3123 5.99569 12.6492 6.39354 13.047 7.14692C13.1245 7.29569 13.9944 8.62802 14.0528 8.73497C14.5476 9.66327 16.1195 10.7432 16.4071 11.0374C16.4232 11.0536 16.6918 11.2314 16.7113 11.4286C16.7146 11.4643 16.3424 11.2152 16.3491 11.2603C16.4009 11.7262 16.3458 12.6188 16.3363 12.722C16.3296 12.8384 16.3234 12.8579 16.2488 12.8836C16.1775 12.9064 16.1034 12.8384 16.0611 12.961C16.0126 13.097 16.0287 13.1973 16.1547 13.1973C16.2806 13.1973 16.4684 13.2619 16.5882 12.8061C16.7113 12.3403 16.9732 11.5189 17.0507 11.2152C17.0735 11.1439 17.015 11.0664 16.9794 11.0146H16.9798Z" fill="#BCBABA"/>
<path d="M3.66838 5.32645C3.66838 5.32645 3.772 5.6335 3.772 5.71764C3.76867 5.80842 3.743 5.8146 3.743 5.8146L3.43262 5.94722C3.43262 5.94722 3.50059 5.86974 3.53624 5.77277C3.57189 5.67248 3.67218 5.41723 3.66885 5.32645H3.66838Z" fill="#BCB9B7"/>
<path d="M7.37484 13.078C7.36819 13.0813 7.36201 13.0813 7.35868 13.078L7.3392 13.0523C7.33587 13.049 7.3392 13.0428 7.34585 13.0362L7.36201 13.0267C7.36867 13.02 7.37817 13.02 7.37817 13.0233L7.39766 13.0523C7.40099 13.0557 7.39766 13.0618 7.39101 13.0685L7.37484 13.078Z" fill="#BCB9B7"/>
<path d="M14.5475 12.5832C14.5475 12.5832 14.5085 12.5703 14.4862 12.5993C14.4572 12.6383 14.4443 12.7871 14.4443 12.7871C14.4443 12.7871 14.48 12.8322 14.548 12.8066C14.6126 12.7809 14.7485 12.6806 14.7062 12.6483C14.6611 12.616 14.548 12.5837 14.548 12.5837L14.5475 12.5832Z" fill="#BCB9B7"/>
<path d="M14.4278 12.5086C14.4278 12.5086 14.3698 12.5086 14.3403 12.5409C14.3113 12.5732 14.2595 12.6607 14.2628 12.6963C14.2662 12.732 14.318 12.7899 14.3437 12.7543C14.3726 12.7186 14.4958 12.5052 14.4278 12.5086Z" fill="#BCB9B7"/>
<path d="M3.03469 6.91071C2.96339 7.0205 3.16397 7.11462 3.21578 7.05615C3.25476 6.90738 3.10266 6.85224 3.03469 6.91071Z" fill="#BCB9B7"/>
<path d="M4.65473 7.1051C4.55444 6.98199 4.47696 6.78188 4.54493 6.7429C4.6129 6.70726 4.67754 6.75906 4.71652 6.78188C4.77784 6.8142 4.80731 6.79471 4.80398 6.71391C4.80065 6.64927 4.79447 6.5908 4.78782 6.53281C4.76833 6.36122 4.67802 6.17062 4.60672 6.09647C4.48694 5.97051 4.15374 5.82458 3.94365 5.96718C3.88233 6.00901 3.8367 6.07413 3.7982 6.15493C3.78204 6.18393 3.82387 6.2229 3.81103 6.25523C3.73356 6.44298 3.6171 6.65925 3.48116 6.79852C3.47451 6.80802 3.94698 6.847 4.6129 7.33515C4.67089 7.37698 4.55776 7.61654 4.51926 7.60371C4.49977 7.60038 4.58723 7.40312 4.52259 7.36748C4.21553 7.19588 4.03444 7.17354 3.80486 7.08941C3.74972 7.07325 3.59144 7.17355 3.54961 7.13457C3.49162 7.06042 3.3167 6.97629 3.30054 6.9663C3.30719 6.96963 3.32953 6.98579 3.33619 7.05994C3.359 7.24769 3.00632 7.05994 3.30387 7.36082C3.388 7.44495 3.4688 7.5096 3.53012 7.48393C3.62709 7.4806 3.58193 7.49344 3.59144 7.51625L3.64325 7.63936C3.65275 7.66217 3.66273 7.65885 3.66891 7.63603L3.69173 7.50674C3.69506 7.48393 3.72072 7.46492 3.74354 7.46492C3.74354 7.46492 4.19652 7.47442 4.28683 7.4844C4.37762 7.49391 4.3838 7.52623 4.3838 7.52623C4.38712 7.5519 4.42277 7.60371 4.34815 7.6655C4.29301 7.71066 4.15754 7.61702 4.0506 7.70448C3.94365 7.78861 3.73023 7.82759 3.73023 7.82759C3.70456 7.83424 3.67842 7.82093 3.66891 7.79526L3.61378 7.67548C3.60427 7.65267 3.59429 7.65267 3.59429 7.67881L3.58145 7.83709C3.57813 7.85991 3.56862 7.88225 3.56529 7.88225C3.55864 7.88225 3.54248 7.86609 3.53297 7.84327L3.52964 7.83377C3.52014 7.81095 3.49732 7.81095 3.48116 7.82711L3.45217 7.85943C3.43601 7.87892 3.41319 7.87559 3.40036 7.85278L3.39085 7.83662C3.37802 7.81713 3.35853 7.81713 3.34237 7.83662L3.32621 7.86561C3.31337 7.8851 3.29721 7.88177 3.29056 7.85896L3.2839 7.8428C3.27725 7.81998 3.26109 7.81998 3.25158 7.83947C3.24493 7.85563 3.23209 7.85896 3.22591 7.84898L3.19359 7.8813C3.18076 7.89413 3.15176 7.92027 3.14844 7.94594C3.14844 7.97161 3.18076 7.98777 3.33619 8.02009C3.49162 8.04909 4.21601 7.75486 4.44226 7.80334C4.70749 7.85848 4.80778 7.64174 4.82727 7.36035C4.82727 7.35369 4.82394 7.33753 4.82062 7.31519C4.77546 7.24104 4.70749 7.16642 4.65568 7.10177V7.1051H4.65473Z" fill="#BCB9B7"/>
<path d="M3.94629 6.25428C3.94629 6.25428 4.03708 6.096 4.14687 6.06368C4.23101 6.04086 4.31514 6.08934 4.44443 6.17348C4.57039 6.25761 4.63836 6.39355 4.76479 6.3579C4.80662 6.34507 4.66783 6.50002 4.54472 6.45819C4.51572 6.44536 4.3313 6.14115 4.15353 6.14448C4.1502 6.14448 4.03708 6.1673 3.94676 6.25428H3.94629Z" fill="#17191D"/>
<path d="M4.30567 6.43205C4.28 6.43205 4.25718 6.40305 4.25718 6.37073C4.25718 6.33841 4.28 6.30942 4.30567 6.30942C4.33466 6.30942 4.37031 6.33841 4.37031 6.37406C4.36698 6.40638 4.33466 6.43205 4.30567 6.43205ZM4.27334 6.1055C4.12457 6.06367 4.03711 6.16682 4.03711 6.16682C4.07609 6.06653 4.25386 6.12784 4.33133 6.16017C4.37649 6.17965 4.43495 6.27995 4.48011 6.36075C4.43163 6.31227 4.36365 6.26046 4.30567 6.2538C4.19254 6.2443 4.18256 6.39592 4.18256 6.39592L4.12457 6.46722C4.12457 6.46722 4.13407 6.48338 4.22153 6.48338C4.30899 6.48338 4.61272 6.48006 4.6517 6.44441C4.69353 6.40876 4.43828 6.15351 4.27334 6.10503V6.1055Z" fill="#17191D"/>
<path d="M6.61144 12.9359C6.61144 12.9359 6.49832 13.1688 6.49499 13.1945C6.49166 13.2173 6.49832 13.2334 6.51115 13.2334C6.52399 13.2334 6.56629 13.2429 6.59528 13.2239C6.62428 13.2044 6.73455 12.9749 6.74739 12.9425C6.75071 12.933 6.65993 12.8812 6.61144 12.9359Z" fill="#BCB9B7"/>
<path d="M15.5954 11.2313C15.6534 11.0246 15.4595 11.0018 15.3948 11.267C15.372 11.3606 15.1039 12.3279 15.0778 12.5798C15.0745 12.5927 15.0844 12.6055 15.0973 12.5893C15.1006 12.6768 15.5693 11.3217 15.5954 11.2309V11.2313Z" fill="#BCB9B7"/>
<path d="M14.0849 7.99111C14.0849 7.99776 14.0721 7.99776 14.0592 7.99776L13.9623 7.9816C13.9494 7.97828 13.9395 7.9721 13.9395 7.96544L13.9428 7.95261C13.9428 7.94595 13.9556 7.94595 13.9684 7.94595L14.0654 7.96211C14.0782 7.96544 14.0911 7.97162 14.0849 7.97828V7.99111Z" fill="#BCB9B7"/>
<path d="M14.0496 8.0296C14.0496 8.03293 14.0429 8.03626 14.0334 8.03626L13.9688 8.02675C13.9593 8.02342 13.9526 8.01724 13.9559 8.01392V8.00108C13.9559 7.99443 13.9655 7.99158 13.9754 7.99158L14.0368 8.00441C14.0463 8.00441 14.0529 8.01106 14.0529 8.01724L14.0496 8.03008V8.0296Z" fill="#BCB9B7"/>
<path d="M6.98355 5.97289C6.51774 6.06368 5.86132 6.10218 5.50578 6.05369C5.22439 6.01472 5.21155 5.84028 5.26336 5.68817C5.00146 5.94342 4.86219 5.8436 4.85601 5.81413C4.84651 5.7723 4.95298 5.81413 5.02095 5.74283C5.09225 5.67819 5.13075 5.43245 5.07894 5.316C5.02095 5.19954 5.08227 5.21903 5.08227 5.21903C5.08227 5.21903 5.22771 5.23519 5.29236 5.40678C5.33133 5.23519 5.09177 5.01892 5.0143 5.0674C4.93682 5.11589 4.77806 5.24517 4.80088 5.43625C4.82654 5.66916 4.81038 5.78561 4.73623 5.78229C4.22526 5.75947 3.65298 5.6915 3.33594 6.02137C3.33594 6.02137 3.72095 5.76613 4.0185 5.79512C4.31272 5.82079 4.91733 5.88258 4.95298 6.59081C4.95298 6.59081 4.94632 6.75242 4.95963 6.93684C4.96629 7.03713 4.8755 6.97249 4.8755 7.01764C4.87883 7.2149 5.01762 7.18258 5.00812 7.35417C4.95963 8.05289 4.63642 8.03673 4.63642 8.03673C4.63642 8.03673 5.02428 8.09187 5.21868 7.4383C5.21868 7.81333 5.17971 7.90745 5.02808 8.05289C5.32563 8.07238 5.55854 7.79099 5.56472 7.74869C5.60987 7.81999 5.694 8.04957 5.91408 8.1432C5.80713 7.96211 5.83327 7.74203 5.85609 7.5481C5.92406 7.98445 6.03386 8.14653 6.25726 8.24017C6.16647 8.14938 5.98252 7.95213 6.03719 7.59991C6.08234 7.90079 6.43503 8.16887 6.43503 8.16887C6.43503 8.16887 6.3219 7.98777 6.29291 7.66741C6.44501 7.99395 6.60662 8.0201 6.60662 8.0201C6.60662 8.0201 6.35422 7.75819 6.3124 7.41216C6.30574 7.40883 6.49017 7.6484 6.63562 7.6484C6.52249 7.50913 6.34472 7.3152 6.3219 7.07278C6.43836 7.21823 6.51916 7.3152 6.64845 7.32803C6.53865 7.20207 6.44786 6.99816 6.41554 6.75574C6.5415 6.91403 6.51916 6.96584 6.75492 7.03048C6.66413 6.93969 6.59949 6.69395 6.64512 6.57465C6.68695 6.65878 6.84571 6.74291 7.03298 6.76858C6.97167 6.7296 6.8747 6.49384 6.88753 6.40306C6.97167 6.44488 7.15609 6.50667 7.30154 6.48719C7.23357 6.44536 7.18509 6.24145 7.20457 6.19296C7.24355 6.21578 7.52161 6.21245 7.5796 6.19296C7.48882 6.13783 7.41134 6.05369 7.43415 6.06035C7.4988 6.08316 7.6086 6.02803 7.75119 6.00521C7.9033 5.97954 7.92896 5.97954 8.02593 5.97954C7.93229 5.93439 7.35002 5.88258 6.9845 5.97289H6.98355Z" fill="#BCBABA"/>
<path d="M11.6917 8.88994C11.6917 8.88994 11.3942 8.87045 11.3714 8.96124C11.3486 9.05203 11.5073 9.54018 11.5297 9.59817C11.5686 9.68896 11.6689 9.47506 11.6689 9.47506C11.7012 9.41992 11.8244 9.13236 11.8244 9.09338C11.821 9.0449 11.8244 8.88947 11.6917 8.88947V8.88994Z" fill="#BCB9B7"/>
<path d="M13.1309 9.4722C13.1114 9.4817 13.0919 9.48503 13.0791 9.48836C13.0919 9.49501 13.1081 9.49787 13.1209 9.49787C13.1176 9.49121 13.1243 9.4817 13.1304 9.4722H13.1309Z" fill="#BCB9B7"/>
<path d="M10.5212 8.93508C10.5212 8.93508 10.2203 8.91559 10.198 9.00638C10.1752 9.10001 10.3049 9.52685 10.324 9.58532C10.3529 9.67278 10.4176 9.54016 10.4176 9.54016C10.4499 9.48217 10.6861 9.17797 10.6895 9.13899C10.6895 9.09383 10.6572 8.93508 10.5212 8.93508Z" fill="#BCB9B7"/>
<path d="M12.6171 5.98287C12.5235 5.9862 11.7439 6.07651 11.2263 6.07651C10.809 6.07984 10.3726 6.05702 10.1364 6.067C10.1169 6.06368 10.0879 6.067 10.0623 6.07033C9.71289 6.05417 8.60064 6.03801 8.60064 6.03801C8.51651 6.02185 7.38477 6.31274 7.21983 7.57092C7.11954 8.34712 7.16802 8.59286 7.34294 8.96171C7.44989 9.18178 7.65998 9.5858 7.65 9.90284C7.64667 10.0321 7.41377 9.35004 7.41709 9.42752C7.45274 10.2232 7.31347 12.0147 7.23267 12.3964C7.13903 12.8494 7.04824 12.6193 6.94177 12.8104C6.92561 12.8394 6.6927 13.2634 6.69936 13.2662C6.70269 13.2695 6.81581 13.2534 6.93227 13.2434C7.07153 13.2367 7.18466 12.865 7.2783 12.865C7.29113 12.865 7.17468 13.1659 7.19084 13.1593C7.28781 13.1364 7.44609 13.0946 7.43658 13.1721C7.47223 13.1849 7.50122 13.1654 7.52071 13.1398C7.54971 13.1041 7.67899 12.5252 7.7598 12.2248C7.77596 12.1763 7.90525 12.202 7.9409 12.2181C8.01219 12.076 7.89907 11.6007 8.10251 10.9438C8.30309 10.2969 8.51318 9.7341 8.41954 9.56917C8.41004 9.54968 8.06686 10.0027 8.05735 9.9865C8.03453 9.93469 9.17626 8.0201 8.95618 7.03048C8.94953 6.99483 8.93337 6.953 8.93337 6.92353C8.93337 6.91688 9.06598 6.97201 9.23092 7.01717C9.44434 7.08181 9.63209 7.11746 9.69673 7.3632C9.77421 7.83852 9.99428 8.51443 10.4439 8.55673C10.24 8.36898 9.97812 7.41834 10.0104 7.03048C10.1364 7.66741 10.5247 8.58906 10.8446 8.54723C10.78 8.44361 10.5114 7.86181 10.5114 7.49962C10.6279 7.8005 10.9026 8.46642 11.1099 8.46975C11.6532 8.47926 11.7924 8.23352 12.1931 8.1432C13.0953 7.93929 13.3315 8.28533 13.4675 8.35662C13.3577 8.24968 12.9821 7.59326 12.7336 7.08229C12.5363 6.67827 12.8695 6.27377 13.4418 6.02137C13.5516 5.96956 12.7915 5.97622 12.6171 5.9824V5.98287Z" fill="#BCBABA"/>
<path d="M13.005 9.48171C13.005 9.48171 12.976 9.45604 12.9498 9.45271C12.9403 9.44939 12.937 9.44939 12.9304 9.44939C12.9209 9.44939 12.9142 9.45271 12.9142 9.45271L12.9014 9.45604L12.9047 9.44654C12.908 9.43703 12.9175 9.42087 12.9403 9.42087C12.9498 9.42087 12.9598 9.4242 12.966 9.42752C13.0017 9.44036 13.0145 9.47601 13.0145 9.47601L13.0211 9.49549L13.005 9.48266V9.48171Z" fill="#17191D"/>
<path d="M12.746 9.43323C12.7493 9.42372 12.7588 9.40756 12.7817 9.40756C12.7912 9.40756 12.8012 9.41089 12.8107 9.41422C12.814 9.41754 12.8268 9.42087 12.8268 9.42087L12.8335 9.42753L12.8078 9.44369H12.8045C12.8045 9.44369 12.795 9.44036 12.7916 9.44036C12.785 9.43703 12.7788 9.43703 12.7722 9.43703C12.7593 9.43703 12.756 9.44036 12.756 9.44036L12.7432 9.44369L12.7465 9.43418L12.746 9.43323Z" fill="#17191D"/>
<path d="M12.8071 9.4204C12.8104 9.4204 12.8233 9.42705 12.8233 9.42705L12.8071 9.43656C12.8071 9.43656 12.7976 9.43323 12.7909 9.43323C12.7653 9.42658 12.752 9.43323 12.752 9.43323C12.752 9.43323 12.7615 9.40424 12.8071 9.4204Z" fill="#17191D"/>
<path d="M13.2993 12.8841C12.9789 12.8841 12.9404 12.3664 12.9338 12.2761C12.8563 12.2695 12.7722 12.2148 12.717 12.1692C12.7137 12.1692 12.7075 12.1659 12.7009 12.1625C12.7009 12.2015 12.7042 12.24 12.7042 12.2757C12.7075 12.337 12.7203 12.4924 12.7237 12.5342L12.727 12.5376C12.7336 12.5955 12.7498 12.7315 12.6139 12.8061C12.5749 12.8289 12.5297 12.8418 12.4813 12.8418C12.4423 12.8418 12.4071 12.8323 12.381 12.8256H12.3648L12.342 12.8223C12.3063 12.8156 12.2612 12.8128 12.2255 12.8094H12.216C12.1481 12.8094 11.9608 12.8223 11.928 12.8256H11.9085C11.8015 12.8256 11.7146 12.7415 11.7146 12.7381C11.6594 12.6863 11.6566 12.6022 11.7017 12.5342L11.7146 12.5181L11.7341 12.5019C11.7436 12.4953 11.7759 12.4729 11.8248 12.4663C11.8638 12.4406 11.9251 12.4049 12.0188 12.3531C11.938 12.1915 11.5758 11.6354 11.8895 11.4605C12.0093 11.3992 12.187 11.3345 12.3586 11.2922C12.3586 11.2827 12.3619 11.2727 12.3653 11.2632C12.3686 11.2504 12.3719 11.2052 12.3653 11.1724C12.3168 11.1981 12.2683 11.2114 12.226 11.2114C12.2132 11.2114 12.2003 11.2114 12.187 11.2081C12.0772 11.1853 11.938 11.027 11.9218 11.0042C11.899 10.9719 11.8087 10.8069 11.7212 10.6486C11.4916 10.6358 11.4721 10.6291 11.456 10.6258C11.4303 10.6163 11.4042 10.6097 11.2554 10.4837C11.2069 10.4419 11.1813 10.3834 11.1874 10.3283C11.1941 10.2831 11.2231 10.2408 11.2649 10.2213C11.2682 10.218 11.2716 10.218 11.2777 10.2147C11.2972 10.189 11.3262 10.1629 11.3814 10.15L11.3975 10.1467H11.417C11.4527 10.1467 11.485 10.1595 11.514 10.1757C11.514 10.1595 11.5206 10.14 11.5268 10.1239C11.5558 10.0687 11.6143 10.0364 11.6789 10.0364C11.7179 10.0364 11.7564 10.0459 11.802 10.0687L11.8087 10.0721L11.8153 10.0754L11.8315 10.0849C11.8605 10.0916 11.9251 10.1106 11.9479 10.1206C11.9869 10.1367 12.0159 10.1562 12.0872 10.2822L12.2003 10.3986C12.2521 10.2755 12.3168 10.2208 12.3396 10.2014C12.3719 10.1724 12.4138 10.1595 12.4561 10.1462C12.4627 10.1429 12.4756 10.1396 12.4851 10.1396C12.5012 10.1234 12.5207 10.1106 12.543 10.0977C12.543 10.0911 12.5464 10.0849 12.5464 10.0782C12.5302 10.0554 12.5107 10.0231 12.4946 9.99745C12.4461 9.91997 12.4527 9.84867 12.4556 9.80351V9.79068C12.4622 9.6709 12.6172 9.56776 12.6172 9.56443C12.6334 9.55492 12.6528 9.54494 12.669 9.53876C12.7013 9.50311 12.7531 9.4418 12.7921 9.40947C12.8211 9.38048 12.8634 9.36099 12.9019 9.34816C12.9342 9.28019 13.0055 9.24454 13.112 9.24454C13.1443 9.24454 13.2541 9.25404 13.2898 9.25737C13.3706 9.2702 13.4224 9.32201 13.4481 9.38048C13.516 9.40329 13.5612 9.46461 13.5678 9.54874L13.5935 9.57441C13.6097 9.59057 13.6486 9.63573 13.6615 9.7037C13.7033 9.7845 13.6938 9.87814 13.6905 9.92044C13.6871 10.0497 13.6548 10.1272 13.6192 10.1728C13.6125 10.1857 13.6097 10.1985 13.6063 10.2085C13.7294 10.286 13.7679 10.4609 13.7779 10.5289C13.7908 10.5678 13.8392 10.7356 13.8654 10.8459C13.8977 11.0042 13.8426 11.1501 13.8397 11.1691L13.8331 11.1853L13.8236 11.1981C13.8141 11.2143 13.7622 11.2822 13.7394 11.3112C13.6976 11.3597 13.652 11.3825 13.6135 11.3887C13.6263 11.4438 13.6391 11.5018 13.6491 11.5536C13.7494 11.6768 13.8012 11.8512 13.8012 11.9092C13.8012 11.951 13.7884 11.9933 13.7784 12.0256C13.7879 12.0546 13.7912 12.0936 13.7879 12.1777C13.8297 12.2262 13.8687 12.2909 13.9077 12.3655C13.911 12.375 13.9143 12.3817 13.9143 12.385C14.105 12.799 13.6296 12.828 13.6006 12.8185C13.536 12.8765 13.3354 12.8831 13.2998 12.8831L13.2993 12.8841Z" fill="#17191D"/>
<path d="M13.2705 9.3914C13.2415 9.38475 13.1379 9.37857 13.1089 9.37857C12.9696 9.37857 13.0442 9.44987 13.0442 9.44987C13.0442 9.44987 12.9311 9.46603 12.8826 9.50786C12.8375 9.54969 12.7533 9.64998 12.7533 9.64998C12.7533 9.64998 12.7144 9.66281 12.692 9.67897C12.6692 9.69181 12.6046 9.74362 12.595 9.79543C12.5855 9.8344 12.5822 9.87956 12.6112 9.92804C12.6402 9.97652 12.6887 10.0412 12.6887 10.0412C12.6887 10.0412 12.7015 10.064 12.6887 10.0897C12.6759 10.1186 12.6564 10.1866 12.6564 10.1866C12.6564 10.1866 12.5884 10.2223 12.5689 10.2446C12.5494 10.2674 12.4525 10.2803 12.4296 10.2997C12.4068 10.3192 12.3455 10.3739 12.3037 10.5198C12.2552 10.5616 12.2295 10.6168 12.2295 10.6168L11.9771 10.3615C11.9771 10.3615 11.9448 10.2612 11.8963 10.2451C11.8802 10.2384 11.7704 10.1999 11.7442 10.1899C11.6506 10.1543 11.6344 10.1804 11.6506 10.2094C11.6701 10.2322 11.7281 10.2612 11.7442 10.2674C11.7571 10.2769 11.7637 10.3772 11.5275 10.3387C11.5146 10.3354 11.4533 10.2969 11.411 10.2807C11.3107 10.2484 11.3302 10.3454 11.3497 10.3649C11.3725 10.381 11.4728 10.488 11.4985 10.4941C11.5213 10.5008 11.8089 10.5136 11.8089 10.5136C11.8089 10.5136 12.0061 10.8853 12.0318 10.921C12.0608 10.96 12.1711 11.0631 12.2162 11.0731C12.2614 11.0826 12.394 11.0341 12.4586 10.9148L12.4843 11.403C12.4843 11.403 12.0313 11.5033 11.9477 11.5712C11.7794 11.7072 12.0803 12.2181 12.1806 12.3569C12.2129 12.3988 12.1901 12.4121 12.1901 12.4121C12.1901 12.4121 11.873 12.5837 11.8697 12.5998C11.8407 12.5903 11.8146 12.6093 11.8146 12.6093C11.8146 12.6093 11.7984 12.6288 11.8079 12.6416C11.8207 12.6512 11.8726 12.6901 11.9149 12.6868C11.9538 12.6835 12.1768 12.6706 12.2319 12.6706C12.2837 12.674 12.3484 12.6835 12.384 12.6868C12.4163 12.6901 12.4876 12.7191 12.5456 12.6868C12.6036 12.6545 12.5941 12.5993 12.5874 12.5447C12.5808 12.4929 12.568 12.2828 12.568 12.2828C12.568 12.2828 12.5613 12.037 12.5551 12.008C12.6164 12.0147 12.7167 12.037 12.7362 12.0275C12.7685 12.008 12.8009 12.0632 12.8009 12.0632C12.8009 12.0632 12.9045 12.144 12.953 12.1373C12.9981 12.1278 13.0081 12.1245 13.0304 12.0532C13.0466 12.0304 13.0628 12.037 13.0628 12.1017C13.0628 12.1663 13.0304 12.7581 13.3118 12.7486C13.4863 12.7419 13.6094 12.6578 13.6094 12.6578C13.6094 12.6578 13.6612 12.7258 13.7258 12.6996C13.9069 12.635 13.8066 12.4734 13.7938 12.4506C13.7776 12.4249 13.6968 12.2467 13.645 12.2438C13.6484 12.1663 13.6355 12.0532 13.6222 12.0237C13.6317 12.0076 13.6612 11.9396 13.6612 11.9106C13.6612 11.8783 13.6094 11.71 13.5157 11.6097C13.4929 11.4543 13.4155 11.2152 13.4155 11.2152C13.4155 11.2152 13.5191 11.2542 13.5514 11.257C13.5837 11.2604 13.6094 11.2475 13.6289 11.2214C13.6517 11.1957 13.7097 11.1178 13.7097 11.1178C13.7097 11.1178 13.7582 10.9947 13.7292 10.872C13.7035 10.7522 13.645 10.5517 13.645 10.5517C13.645 10.5517 13.616 10.3611 13.5219 10.3154C13.425 10.2736 13.4055 10.2765 13.4055 10.2765C13.4055 10.2765 13.3765 10.2346 13.3988 10.2246C13.4216 10.218 13.4568 10.189 13.4668 10.1795C13.4796 10.1667 13.4958 10.0987 13.4958 10.0987C13.4958 10.0987 13.5509 10.0697 13.5509 9.90808C13.5542 9.90808 13.5704 9.79828 13.5281 9.74314C13.5281 9.69466 13.4925 9.66566 13.4925 9.66566L13.4311 9.59769C13.4311 9.59769 13.4406 9.51689 13.4021 9.50691C13.3632 9.4974 13.3375 9.48742 13.3375 9.48742C13.3375 9.48742 13.3342 9.39996 13.2695 9.39045L13.2705 9.3914Z" fill="#BCBABA"/>
<path d="M12.7595 9.68894C12.7885 9.68561 12.8113 9.73742 12.8113 9.74692C12.8146 9.75643 12.808 9.75643 12.7918 9.75358C12.7756 9.75358 12.7628 9.72126 12.7305 9.72126C12.6982 9.72458 12.6982 9.74692 12.6887 9.74407C12.6792 9.74407 12.7305 9.68894 12.76 9.68894H12.7595Z" fill="#17191D"/>
<path d="M12.9985 9.60815C13.0308 9.61765 13.0437 9.64998 13.0437 9.64998C13.0437 9.64998 13.0113 9.62431 12.9823 9.62098C12.9567 9.61433 12.9434 9.62098 12.9434 9.62098C12.9434 9.62098 12.9529 9.58866 12.9985 9.60815Z" fill="#17191D"/>
<path d="M13.3183 9.86339C13.315 9.85388 13.3088 9.84723 13.3022 9.84723H13.2955L13.2922 9.85056C13.2794 9.86672 13.2632 9.87337 13.247 9.87337C13.2242 9.87337 13.2081 9.86054 13.2081 9.86054C13.2081 9.86054 13.2047 9.90569 13.2532 9.90569C13.2922 9.90569 13.3145 9.87337 13.3145 9.87337L13.3179 9.86387L13.3183 9.86339Z" fill="#17191D"/>
<path d="M13.0538 10.5911C13.0666 10.5749 13.1089 10.6139 13.1184 10.6039C13.1312 10.5944 13.0376 10.4875 13.0666 10.4647C13.1022 10.4418 13.1407 10.5226 13.1602 10.5098C13.1797 10.4937 13.1731 10.487 13.1669 10.4742C13.1636 10.4675 13.1251 10.3934 13.1251 10.3934C13.1217 10.39 13.0799 10.3221 13.1056 10.3092C13.1346 10.2997 13.1669 10.3482 13.1735 10.3544C13.1735 10.3577 13.2287 10.4547 13.251 10.4452C13.2738 10.4323 13.212 10.2869 13.212 10.2869C13.2087 10.2707 13.1797 10.2351 13.1925 10.2222C13.2087 10.2127 13.2215 10.2156 13.2605 10.2674C13.2638 10.2707 13.3641 10.4552 13.377 10.4485C13.377 10.4485 13.3803 10.4095 13.3641 10.3839C13.3836 10.4 13.4221 10.4095 13.4193 10.4357C13.4193 10.4485 13.4159 10.5264 13.4031 10.5455C13.358 10.5973 13.1507 10.6686 13.0828 10.6586C13.0794 10.6519 13.0376 10.6101 13.0538 10.5906V10.5911ZM13.4678 11.393L13.4388 11.2603L13.4259 11.2119L13.1835 10.7589L13.174 10.7427C13.1645 10.7361 13.1579 10.7266 13.1384 10.7071C13.1317 10.7004 13.135 10.6942 13.145 10.6942C13.2291 10.7071 13.3779 10.6652 13.4102 10.6524C13.4198 10.6652 13.656 10.9405 13.6721 10.9305C13.6916 10.9176 13.4359 10.5811 13.4359 10.5778C13.4359 10.5778 13.4587 10.4385 13.4521 10.4224C13.4426 10.39 13.3746 10.3415 13.3451 10.3415H13.3418C13.3385 10.332 13.3323 10.3254 13.329 10.3221L13.3256 10.3154C13.3062 10.2831 13.2933 10.2603 13.2838 10.2441C13.329 10.2603 13.3774 10.2731 13.3808 10.2764L13.4064 10.2798L13.4354 10.2408L13.2382 10.1728C13.222 10.1695 13.2025 10.131 13.1992 10.0987C13.1992 10.0758 13.3385 9.94038 13.3123 9.93372C13.2572 9.91423 13.1312 10.0502 13.1279 10.092C13.1246 10.1177 13.1407 10.1761 13.1636 10.199C13.154 10.2085 13.1507 10.2218 13.1507 10.2379C12.905 10.2541 12.8142 10.3415 12.8047 10.3867C12.8047 10.3867 13.0019 10.3092 13.0699 10.2992C13.0248 10.3411 13.0989 10.4252 13.0989 10.4252C13.0894 10.4219 13.0666 10.4057 13.0409 10.4219C12.9958 10.4609 13.0409 10.535 13.0504 10.5512C13.0309 10.5512 13.0181 10.5578 13.0115 10.564C12.9886 10.593 13.0343 10.6481 13.0666 10.6871C13.0827 10.7033 13.0115 10.6999 12.8047 10.545C12.8113 10.6938 13.0599 10.7841 13.1379 10.7841C13.1379 10.7874 13.4549 11.3725 13.4678 11.392V11.393Z" fill="#17191D"/>
<path d="M12.4742 11.3735L12.4385 11.3963L12.3867 11.4253C12.3962 11.4481 12.6001 11.9429 12.8069 12.0979L12.8136 12.0817C12.5388 11.7067 12.477 11.3735 12.4742 11.3735Z" fill="#17191D"/>
<path d="M13.2408 11.6259C13.1177 11.6454 13.0273 12.0561 13.0273 12.0561C13.0563 12.0171 13.0597 12.0817 13.0597 12.0817C13.0597 12.0817 13.16 11.7324 13.2441 11.6967C13.3349 11.6611 13.4642 11.6772 13.4642 11.6772C13.4642 11.6772 13.3639 11.6059 13.2412 11.6254L13.2408 11.6259Z" fill="#17191D"/>
<path d="M12.2834 10.979C12.2963 10.9695 12.2478 10.5778 12.2478 10.5778L12.2283 10.5973L12.1993 10.5778C12.1832 10.6134 12.2673 10.9851 12.2834 10.979Z" fill="#17191D"/>
<path d="M12.3741 10.6653L12.4031 10.9823L12.4582 10.9533L12.4421 10.7204C12.4421 10.7204 12.471 10.7332 12.481 10.7237C12.4905 10.7142 12.4359 10.6686 12.4325 10.6073C12.4325 10.5654 12.481 10.5103 12.4715 10.507C12.462 10.5003 12.4459 10.5165 12.4459 10.5165C12.4492 10.4775 12.4525 10.4357 12.4554 10.4095C12.4587 10.3706 12.5105 10.2931 12.5105 10.2931C12.3974 10.3321 12.3746 10.4614 12.3746 10.4614L12.3679 10.5616C12.3679 10.565 12.3584 10.594 12.3584 10.6168C12.3584 10.6396 12.3746 10.6653 12.3746 10.6653H12.3741Z" fill="#17191D"/>
<path d="M13.6486 12.2048C13.6486 12.2048 13.6453 12.5898 13.5645 12.6868H13.6096C13.6258 12.674 13.6581 12.5509 13.6709 12.5024C13.6838 12.4506 13.6804 12.2372 13.6804 12.2372L13.6481 12.2048H13.6486Z" fill="#17191D"/>
<path d="M12.2388 11.6744C12.2227 11.7552 12.5592 12.0656 12.5592 12.0656L12.65 12.0237C12.6533 12.0237 12.3363 11.7908 12.2393 11.6744H12.2388Z" fill="#17191D"/>
<path d="M13.1574 9.53352C13.1607 9.54018 13.1607 9.56584 13.1574 9.58533C13.1574 9.58866 13.1479 9.62716 13.1992 9.6533C13.2315 9.66946 13.251 9.69846 13.2672 9.71794C13.2672 9.72127 13.2705 9.72745 13.2739 9.73078C13.2834 9.74028 13.2867 9.75027 13.2805 9.77261C13.2772 9.78544 13.271 9.79209 13.2677 9.79827C13.261 9.8016 13.2548 9.80778 13.261 9.81776V9.82109C13.2643 9.83392 13.2705 9.86007 13.2967 9.86957C13.3033 9.8729 13.3162 9.89239 13.3 9.93422L13.2967 9.94705C13.2805 9.99221 13.2933 10.0992 13.3195 10.0925C13.3485 10.0858 13.3423 9.9922 13.3485 9.97937C13.3646 9.95988 13.3775 9.90189 13.3713 9.86957C13.368 9.86007 13.3646 9.85008 13.3585 9.84676C13.3328 9.8306 13.3261 9.81776 13.3261 9.81443C13.3261 9.81443 13.3295 9.80778 13.3328 9.80493C13.3394 9.79827 13.3456 9.78877 13.349 9.77926C13.3585 9.75977 13.3523 9.73078 13.3423 9.71129C13.3356 9.6918 13.2872 9.63381 13.2582 9.62383C13.2354 9.61432 13.2225 9.60102 13.2225 9.58818V9.56251C13.2258 9.54303 13.2292 9.52069 13.2192 9.5107C13.1384 9.39758 13.0186 9.41041 13.0186 9.41041L12.9668 9.4684C12.9668 9.4684 13.0576 9.41992 13.1574 9.53304V9.53352Z" fill="#17191D"/>
<path d="M12.5134 10.2645C12.5296 10.2741 12.6071 10.2874 12.7496 10.3743C12.7691 10.3387 12.6204 10.2579 12.5524 10.2351C12.5106 10.2351 12.5072 10.2417 12.5039 10.2446C12.5072 10.2512 12.5072 10.2574 12.5134 10.2641V10.2645Z" fill="#17191D"/>
<path d="M12.0869 12.4634C11.9609 12.2918 11.689 12.2856 11.5987 12.3698C11.5921 12.3664 11.5892 12.3631 11.5859 12.3603C11.5469 12.3313 11.4371 12.2633 11.3853 12.2343C11.3012 12.1468 11.2655 12.1245 11.2494 12.1145C11.1814 12.0755 11.0488 12.0271 10.939 12.0014C10.9162 11.7652 10.8971 11.7072 10.8838 11.6844C10.8872 11.6777 10.9128 11.4676 10.9067 11.335C10.978 11.3478 11.0716 11.364 11.1457 11.364C11.1876 11.364 11.2232 11.3573 11.2494 11.3478C11.3235 11.3283 11.4433 11.2865 11.4918 11.2057L11.5046 11.1895L11.5113 11.1701C11.5146 11.1539 11.5502 10.9985 11.4561 10.8497C11.3915 10.7494 11.2137 10.565 11.1167 10.468C11.1201 10.4129 11.1234 10.3582 11.1234 10.3582C11.1267 10.3131 11.1139 10.2674 11.0621 10.2128C11.0459 10.1966 10.9261 10.0607 10.8938 10.0412C10.8615 10.0217 10.8097 10.0055 10.7645 10.0055C10.7517 10.0055 10.7355 10.0089 10.7227 10.0122C10.6062 10.0378 10.6158 10.2161 10.6224 10.2323C10.6062 10.2227 10.5901 10.2161 10.5739 10.2094C10.535 10.1643 10.477 10.1381 10.4185 10.1286C10.3862 10.1058 10.3443 10.0835 10.2859 10.0835H10.273C10.1989 10.0868 10.1956 10.0963 10.1599 10.1253C10.1048 10.1381 10.053 10.1705 10.0145 10.2189C9.98215 10.2351 9.94318 10.2674 9.91085 10.3226C9.87853 10.3516 9.83956 10.3967 9.81056 10.478L9.80106 10.507C9.77539 10.575 9.74307 10.6524 9.76541 10.7366V10.7432C9.70076 10.7594 9.60998 10.7984 9.55864 10.8987C9.53583 10.9438 9.51349 11.0023 9.494 11.0541C9.465 11.0574 9.13846 11.0959 9.14464 11.2513C9.14797 11.2998 9.17031 11.3483 9.21594 11.3773C9.18361 11.4291 9.18361 11.4842 9.20928 11.5294C9.23495 11.5712 9.26442 11.6007 9.30292 11.6169C9.31575 11.6558 9.33191 11.6943 9.36091 11.73C9.39323 11.7718 9.42888 11.8013 9.45787 11.8236C9.39656 11.8431 9.33191 11.8721 9.27012 11.9173C9.17934 11.9786 9.04387 12.1112 9.16032 12.3213C9.17981 12.3536 9.2378 12.4183 9.52252 12.6996C9.51301 12.7091 9.28628 13.1232 9.65513 13.1426C9.73926 13.2819 10.0268 13.0813 10.0368 13.0747C10.0596 13.078 10.4442 13.0813 10.341 12.7838C10.37 12.7804 10.5026 12.7419 10.5093 12.7419C10.5511 12.7614 10.6486 12.7999 10.7032 12.8033C10.7289 12.8066 10.7712 12.8099 10.8002 12.8099C10.8392 12.8099 10.9361 12.8066 10.9813 12.7971C10.9941 12.7971 11.0069 12.7904 11.0231 12.7904C11.0621 12.8551 11.1267 12.9359 11.2075 12.981C11.3045 13.0362 11.5246 13.1365 11.5987 13.1688C11.6149 13.1816 11.7703 13.3109 11.8735 13.3109C12.2 13.3109 12.0997 13.0134 12.103 12.9972C12.1287 12.9197 12.1772 12.5865 12.0869 12.4634Z" fill="#17191D"/>
<path d="M10.9383 10.8887C10.9255 10.8725 10.7962 10.8402 10.7444 10.8335C10.7282 10.8174 10.6703 10.7979 10.6703 10.7979C10.6669 10.7979 10.7477 10.7399 10.7477 10.6976C10.6897 10.4129 10.5956 10.3934 10.5956 10.3934C10.5956 10.3934 10.5666 10.3287 10.4825 10.3192C10.4697 10.2579 10.3532 10.2479 10.3532 10.2479C10.3532 10.2479 10.3209 10.2089 10.2757 10.2089C10.2401 10.2123 10.2306 10.2284 10.2111 10.2479C10.2111 10.2479 10.1398 10.2384 10.0946 10.3192C10.0946 10.3192 10.0367 10.3321 10.0039 10.4129C10.0039 10.4129 9.96203 10.4224 9.92305 10.5198C9.89738 10.5878 9.86791 10.6558 9.88122 10.7042C9.89405 10.7527 9.93636 10.8045 9.93636 10.8045C9.93636 10.8045 9.89738 10.8368 9.85555 10.8497C9.81373 10.8625 9.71011 10.8725 9.6678 10.9566C9.62597 11.0408 9.57084 11.2024 9.57084 11.2024C9.57084 11.2024 9.54517 11.1862 9.5157 11.1829C9.4867 11.1796 9.3636 11.1862 9.3346 11.2057C9.31844 11.2152 9.26663 11.2219 9.26663 11.2447C9.26996 11.3027 9.36692 11.2837 9.36692 11.2837L9.34411 11.4129C9.34411 11.4129 9.30228 11.4519 9.31511 11.4681C9.32462 11.4876 9.34411 11.4937 9.35694 11.4909C9.3731 11.4876 9.39877 11.4586 9.39877 11.4586C9.39877 11.4586 9.39877 11.5817 9.45391 11.6525C9.50904 11.7233 9.57369 11.7495 9.57369 11.7495C9.57369 11.7495 9.61552 11.7656 9.65117 11.7495C9.69014 11.7333 9.75811 11.6782 9.76429 11.6587C9.77095 11.6359 9.78711 11.565 9.78711 11.565C9.78711 11.565 9.8161 11.4519 9.83226 11.4519C9.8451 11.4486 9.85793 11.4647 9.85793 11.4647V11.6943C9.85793 11.6943 9.76714 11.8659 9.76714 11.9111C9.71866 11.9144 9.5119 11.8916 9.33365 12.0209C9.1882 12.1212 9.24001 12.2115 9.26568 12.26C9.29135 12.3084 9.73767 12.7386 9.75098 12.7548C9.74433 12.7676 9.75764 12.7871 9.73815 12.7871H9.68967C9.68967 12.7871 9.6217 12.7614 9.60886 12.7871C9.5832 12.8517 9.65402 12.8451 9.65734 12.8584C9.65734 12.8679 9.59936 12.8489 9.58937 12.8841C9.57654 12.923 9.58937 12.9649 9.61837 12.9972C9.63786 13.0228 9.68301 13.01 9.69585 13.0167C9.70868 13.02 9.71533 13.0423 9.75098 13.0523C9.82846 13.0813 10.0001 12.9425 10.0229 12.9454C10.107 12.9872 10.2073 12.9097 10.2106 12.8612C10.2173 12.8161 10.2106 12.7899 10.1945 12.7543C10.1783 12.7186 10.1232 12.6607 10.1232 12.6607C10.1232 12.6607 10.1878 12.6412 10.204 12.635C10.204 12.635 10.2135 12.6283 10.2363 12.6383C10.2591 12.6478 10.3561 12.6673 10.3851 12.664C10.4141 12.664 10.5272 12.6122 10.5433 12.6222C10.5595 12.6288 10.6693 12.6773 10.7083 12.6801C10.7501 12.6835 10.9055 12.6835 10.9507 12.6735C10.9925 12.6668 11.08 12.6412 11.08 12.6412C11.08 12.6412 11.1513 12.8094 11.2611 12.8707C11.3709 12.9354 11.6684 13.0647 11.6684 13.0647C11.6684 13.0647 11.7882 13.1845 11.8657 13.1845C11.9432 13.1845 11.9627 13.1198 11.9627 13.1037C11.9627 13.0875 11.9593 13.0034 11.9755 12.9582C11.9916 12.913 12.0045 12.7804 12.0078 12.7158C12.0145 12.6545 12.0335 12.4796 11.8685 12.4539C11.8395 12.4506 11.7811 12.4411 11.7716 12.4411C11.7488 12.4411 11.7587 12.499 11.7521 12.4767C11.7426 12.451 11.7131 12.4444 11.7036 12.4477C11.6713 12.4639 11.6584 12.4895 11.6584 12.5028C11.6618 12.5285 11.6713 12.5998 11.6713 12.5998C11.6746 12.5998 11.5353 12.49 11.4997 12.4577C11.4607 12.4287 11.2991 12.3346 11.2991 12.3346C11.2991 12.3346 11.2116 12.2409 11.1826 12.231C11.1698 12.2115 10.9369 12.1079 10.8138 12.1079C10.8105 12.0142 10.8043 11.7908 10.7525 11.6843C10.7525 11.6554 10.7848 11.345 10.7653 11.2642C10.7587 11.2252 10.8105 11.1995 10.8395 11.1995C10.8685 11.1995 11.1337 11.2575 11.205 11.2285C11.205 11.2285 11.3471 11.1929 11.3794 11.1411C11.3794 11.1411 11.4051 11.0246 11.3376 10.921C11.2696 10.814 11.0334 10.5716 10.9721 10.5198C10.9816 10.4585 10.9849 10.3482 10.9849 10.3482C10.9849 10.3482 10.9849 10.3254 10.9721 10.3092C10.9526 10.2931 10.8461 10.17 10.83 10.1571C10.8205 10.1443 10.772 10.1281 10.7492 10.1343C10.7297 10.141 10.7363 10.1828 10.7492 10.1956C10.762 10.2085 10.791 10.2346 10.791 10.2346L10.8105 10.2831C10.8105 10.2831 10.7877 10.2926 10.7848 10.3026C10.7815 10.3121 10.7815 10.3672 10.7881 10.3801C10.7948 10.3929 10.8205 10.3962 10.8205 10.3962C10.8205 10.3962 10.7976 10.4514 10.7753 10.4514C10.7525 10.4224 10.7202 10.3349 10.6912 10.3639C10.6783 10.3801 10.6684 10.4029 10.6783 10.4252C10.685 10.448 10.7235 10.5612 10.743 10.5835C10.7625 10.603 10.7786 10.6125 10.7786 10.6125C10.782 10.6125 10.9307 10.8454 10.9369 10.8872L10.9383 10.8887Z" fill="#BCBABA"/>
<path d="M9.51172 12.0109C9.72514 11.9881 10.113 12.6512 10.1263 12.664C10.1425 12.6768 10.1653 12.6478 10.1653 12.6478C10.1491 12.6188 9.80975 11.9168 9.51219 12.0109H9.51172Z" fill="#17191D"/>
<path d="M9.48605 11.3122C9.52503 11.3055 9.58635 11.2314 9.57684 11.228C9.56733 11.2247 9.53501 11.2732 9.47655 11.2732C9.46039 11.2732 9.43757 11.2699 9.4119 11.2637H9.40858C9.40192 11.2765 9.35059 11.2832 9.35059 11.2832L9.35724 11.3155L9.40572 11.3027C9.41238 11.306 9.44755 11.3155 9.48653 11.3122H9.48605Z" fill="#17191D"/>
<path d="M9.80656 10.911C9.76141 10.9177 9.81322 11.5223 9.81322 11.5223L9.85837 11.4643C9.85172 11.4286 9.84887 11.2509 9.84887 11.2252C9.86503 11.238 10.0718 11.1929 10.1174 11.1154C10.1174 11.1154 9.97198 11.1411 9.93633 11.1349C9.87168 11.1254 9.85552 11.0959 9.84887 11.0769C9.85219 11.0702 9.82605 10.912 9.80704 10.912L9.80656 10.911Z" fill="#17191D"/>
<path d="M9.78109 11.8683L9.73926 11.8973C10.0335 12.0527 10.2113 12.6283 10.2146 12.6312V12.6378L10.3082 12.6702C10.3082 12.6702 10.0853 12.0038 9.78109 11.8683Z" fill="#17191D"/>
<path d="M10.4727 12.6383C10.4855 12.6578 10.5535 12.6222 10.5535 12.6222V12.6155C10.5535 12.6155 10.544 12.3374 10.7669 12.1273C10.7702 12.1273 10.5245 12.1758 10.4727 12.6383Z" fill="#17191D"/>
<path d="M11.6762 12.5898L11.6211 12.5508C11.6211 12.5508 11.6501 12.6768 11.6468 12.7319C11.6468 12.7386 11.6434 12.7414 11.6401 12.7448L11.6335 12.7514C11.614 12.7742 11.6268 12.8584 11.6268 12.8584C11.6268 12.8584 11.6525 12.8099 11.6786 12.7809L11.6853 12.7742C11.6948 12.7647 11.6981 12.7548 11.6919 12.7063C11.6919 12.6901 11.6791 12.5898 11.6758 12.5898H11.6762Z" fill="#17191D"/>
<path d="M10.7997 10.9048C10.7902 10.9081 10.7707 11.0536 10.7707 11.0731C10.7707 11.0764 10.764 11.17 10.6576 11.1539C10.5539 11.1377 10.5088 11.1149 10.5088 11.1149C10.5478 11.1924 10.7222 11.228 10.7674 11.2894C10.774 11.3022 10.7835 11.3702 10.7835 11.3768H10.8192V11.257L10.8548 11.2475C10.8387 10.9923 10.8097 10.9048 10.7997 10.9048Z" fill="#17191D"/>
<path d="M10.082 10.7979C10.0174 10.7979 9.92375 10.8074 9.92042 10.8074L9.81348 10.8302L9.8458 10.853C9.84913 10.853 9.98507 10.824 10.0787 10.824C10.0915 10.824 10.1044 10.8274 10.1144 10.8307C10.1952 10.8468 10.2888 10.8792 10.2921 10.8663C10.2921 10.8535 10.179 10.8112 10.1239 10.8017C10.1144 10.7984 10.0982 10.7984 10.082 10.7984V10.7979Z" fill="#17191D"/>
<path d="M10.7707 10.8369L10.7773 10.8302L10.7806 10.8269L10.784 10.8202L10.7806 10.8136L10.7388 10.7879H10.532C10.4802 10.7912 10.322 10.8525 10.3315 10.8654C10.341 10.8749 10.4574 10.8297 10.5354 10.8169C10.6195 10.8074 10.765 10.8364 10.7716 10.8364L10.7707 10.8369Z" fill="#17191D"/>
<path d="M10.6053 10.4457C10.6472 10.4038 10.5664 10.3549 10.5664 10.3487C10.5664 10.3487 10.6215 10.42 10.5759 10.4005C10.5369 10.3392 10.3881 10.2969 10.3853 10.2907C10.3758 10.2812 10.4047 10.255 10.4856 10.3164C10.4889 10.3069 10.4404 10.2584 10.3691 10.2646C10.3691 10.255 10.3624 10.2417 10.3563 10.2389H10.3468C10.3534 10.2455 10.3629 10.2646 10.3534 10.2646C10.3373 10.2679 10.3306 10.2417 10.3277 10.2389C10.3211 10.2261 10.2859 10.2422 10.3049 10.2584C10.3116 10.265 10.3211 10.2679 10.3277 10.2712C10.3373 10.2779 10.3344 10.284 10.3244 10.2779C10.3149 10.2745 10.3016 10.2712 10.2854 10.2712C10.2693 10.2712 10.2564 10.2779 10.2436 10.284C10.237 10.284 10.2308 10.2807 10.237 10.2745C10.2436 10.2712 10.2531 10.2679 10.2598 10.265C10.2854 10.2422 10.2403 10.2099 10.2308 10.2584C10.2241 10.2679 10.2213 10.2712 10.2146 10.2745C10.1951 10.2745 10.2179 10.2422 10.2146 10.2422C10.2146 10.2422 10.2146 10.2455 10.2113 10.2455C10.2046 10.2522 10.1985 10.2584 10.1951 10.2684C10.1885 10.2684 10.1077 10.2717 10.0948 10.3168C10.1562 10.2717 10.1885 10.275 10.1856 10.294C10.1823 10.3007 10.1115 10.3425 10.082 10.3715C10.0563 10.3877 10.024 10.4295 10.0174 10.4295C10.0045 10.4328 10.0045 10.41 10.0174 10.3777C9.98171 10.4167 9.98837 10.4457 9.99787 10.4618C9.97839 10.507 9.98171 10.5654 10.0074 10.6106C10.0302 10.6496 10.1628 10.7627 10.1756 10.756C10.1852 10.7494 10.0364 10.6168 10.0235 10.5588C10.0007 10.4262 10.1818 10.3064 10.2436 10.3002C10.2469 10.3002 10.2531 10.3164 10.2854 10.313C10.3273 10.313 10.3339 10.3002 10.3339 10.3002C10.3791 10.2935 10.6025 10.3777 10.5797 10.5426C10.5702 10.5944 10.5507 10.6557 10.5602 10.6624C10.5697 10.6691 10.5797 10.6396 10.5992 10.5944C10.6281 10.5493 10.6281 10.4908 10.6058 10.4457H10.6053Z" fill="#17191D"/>
<path d="M11.1876 11.1829C11.1586 11.1505 10.919 10.8625 10.919 10.8625C10.919 10.8592 10.9123 10.8497 10.9028 10.8497C10.8995 10.8497 10.8672 10.853 10.8672 10.8592C10.919 10.9433 11.0321 11.0759 11.1096 11.1406C11.1486 11.1729 11.1776 11.189 11.1871 11.1824L11.1876 11.1829Z" fill="#17191D"/>
<path d="M9.71923 12.7353C9.73206 12.7514 9.75155 12.7804 9.75155 12.7804C9.75155 12.7804 9.78054 12.7091 9.83235 12.6801C9.88083 12.6545 9.96829 12.6155 10.0068 12.6122C9.86135 12.5765 9.7254 12.6835 9.71875 12.7353H9.71923Z" fill="#17191D"/>
<path d="M9.64826 11.5679C9.67392 11.5712 9.68058 11.5451 9.68391 11.5161L9.68723 11.5094C9.68723 11.5094 9.7129 11.4866 9.72906 11.4353C9.74189 11.5032 9.77754 11.642 9.75188 11.6777L9.7129 11.7167L9.75473 11.6938C9.77089 11.6872 9.79656 11.6582 9.78705 11.6097C9.78372 11.584 9.74189 11.3673 9.74189 11.3673V11.3578C9.73857 11.3288 9.72906 11.3026 9.7129 11.2803C9.68723 11.2447 9.64493 11.2252 9.61593 11.2223C9.61593 11.2223 9.72906 11.2998 9.71623 11.3777C9.70339 11.4557 9.68723 11.4619 9.68723 11.4619L9.67107 11.4457V11.4875C9.66774 11.5104 9.66157 11.5199 9.6454 11.5199C9.60358 11.5199 9.57125 11.5779 9.52562 11.565C9.48047 11.5522 9.45765 11.5165 9.43198 11.4937C9.40632 11.4742 9.44482 11.4357 9.44482 11.4357C9.44482 11.4357 9.44149 11.4229 9.43198 11.4129C9.41915 11.4063 9.39966 11.4548 9.39966 11.4548C9.39966 11.4548 9.374 11.5227 9.40917 11.5455C9.47381 11.5874 9.45432 11.5874 9.52562 11.6102C9.59692 11.6297 9.59027 11.5684 9.64873 11.5684L9.64826 11.5679Z" fill="#17191D"/>
<path d="M12.7203 9.47219C12.6718 9.47219 12.6134 9.4432 12.5972 9.35907C12.5939 9.3429 12.5521 9.24594 12.5131 9.16181C12.3092 8.67983 12.3253 8.8576 12.3448 8.78012C12.3805 8.64086 12.5677 8.62469 12.707 8.62469C12.7393 8.62469 12.765 8.62802 12.775 8.62802C12.843 8.62802 12.9009 8.65369 12.9466 8.69932C13.0241 8.77347 13.0435 8.88707 13.0435 8.93841C13.0435 8.94173 12.9399 9.25212 12.8881 9.34576L12.8848 9.34908C12.8073 9.47219 12.7393 9.47219 12.7198 9.47219H12.7203Z" fill="#17191D"/>
<path d="M12.7693 8.73497C12.7693 8.73497 12.4684 8.71549 12.446 8.80627C12.4232 8.89706 12.6366 9.24594 12.7013 9.34291C12.7464 9.41088 12.7949 9.29775 12.7949 9.29775C12.8272 9.23976 12.9342 8.97739 12.9342 8.93889C12.9342 8.8904 12.9052 8.73212 12.7693 8.73497Z" fill="#BCB9B7"/>
<path d="M4.2666 5.75948C4.2666 5.75948 5.10079 5.81129 5.24671 6.75243C5.2952 6.58084 5.10459 6.00855 4.86503 5.87261C4.83936 5.85645 4.73574 5.80464 4.81322 5.63637C4.53183 5.59455 4.2666 5.75948 4.2666 5.75948Z" fill="#17191D"/>
<path d="M8.24805 6.14117C8.24805 6.14117 8.75902 5.94724 8.8788 6.76526C8.93393 6.46771 8.86596 6.11217 8.65872 6.0019C8.45196 5.89495 8.24805 6.14117 8.24805 6.14117Z" fill="#17191D"/>
<path d="M5.84863 7.01764C5.84863 7.01764 5.90044 7.18923 5.95225 7.2244C6.00739 7.25673 6.14951 7.04663 6.14951 7.04663C6.14951 7.04663 6.04922 7.29903 5.96509 7.36367C5.89379 7.31186 5.86479 7.24722 5.84863 7.01764Z" fill="#17191D"/>
<path d="M6.055 7.21158C6.055 7.21158 6.13581 7.37984 6.19094 7.41549C6.24608 7.44781 6.37204 7.2439 6.37204 7.2439C6.36871 7.2439 6.25892 7.5058 6.20045 7.55428C6.14864 7.50913 6.04835 7.44734 6.055 7.21158Z" fill="#17191D"/>
<path d="M5.57958 7.49962C5.57958 7.49962 5.67987 7.68405 5.73786 7.70971C5.84148 7.74869 5.84766 7.48013 5.84766 7.48013C5.84766 7.48013 5.88949 7.77768 5.77969 7.87465C5.68605 7.82284 5.63424 7.78719 5.5791 7.49962H5.57958Z" fill="#17191D"/>
<path d="M5.83594 7.39266C5.83594 7.39266 5.89107 7.55427 5.93956 7.59325C5.99137 7.63222 6.09784 7.34085 6.09784 7.34085C6.09784 7.34085 6.06219 7.62557 5.98139 7.76769C5.92958 7.7097 5.84212 7.61891 5.83594 7.39266Z" fill="#17191D"/>
<path d="M6.04247 7.52528C6.04247 7.53193 6.13943 7.67738 6.20075 7.70304C6.26207 7.72871 6.30104 7.48297 6.30104 7.48297C6.30104 7.48297 6.3172 7.76436 6.2459 7.84517C6.20075 7.81617 6.06148 7.74487 6.04199 7.5248L6.04247 7.52528Z" fill="#17191D"/>
<path d="M6.09716 6.83987C6.09716 6.83987 6.19412 7.05662 6.25544 7.08894C6.32008 7.12126 6.41372 6.89168 6.41372 6.89168C6.41372 6.89168 6.36524 7.14408 6.25211 7.22156C6.17463 7.15691 6.15182 7.11176 6.09668 6.83987H6.09716Z" fill="#17191D"/>
<path d="M5.93555 6.65213C5.93555 6.65213 5.99686 6.81374 6.04867 6.83988C6.10381 6.86888 6.19745 6.65213 6.19745 6.65213C6.19745 6.65213 6.14231 6.93019 6.05533 7.01433C5.99734 6.96917 5.9712 6.89122 5.93555 6.65213Z" fill="#17191D"/>
<path d="M6.26562 6.59698C6.26562 6.59698 6.31744 6.73625 6.36259 6.76525C6.40775 6.79424 6.48237 6.67161 6.48237 6.67161C6.47904 6.67161 6.45338 6.86554 6.36592 6.89168C6.33027 6.86269 6.29177 6.79805 6.26562 6.59746V6.59698Z" fill="#17191D"/>
<path d="M6.52129 6.4292C6.52129 6.4292 6.55028 6.56181 6.58926 6.59081C6.62823 6.61648 6.69906 6.49717 6.69906 6.49717C6.69906 6.49717 6.68955 6.64262 6.58593 6.70726C6.54695 6.66211 6.5018 6.60697 6.52129 6.4292Z" fill="#17191D"/>
<path d="M6.75676 6.23812C6.75676 6.23812 6.78243 6.37073 6.82141 6.3964C6.86038 6.42539 6.93121 6.30561 6.93121 6.30561C6.93121 6.30561 6.91837 6.48338 6.82141 6.50287C6.83424 6.51903 6.7406 6.39592 6.75676 6.23764V6.23812Z" fill="#17191D"/>
<path d="M5.63477 7.18259C5.63477 7.18259 5.72222 7.33802 5.76073 7.34087C5.80255 7.3442 5.88051 7.18259 5.88051 7.18259C5.88051 7.18259 5.84486 7.40266 5.76073 7.44449C5.72508 7.40266 5.65378 7.33136 5.63477 7.18259Z" fill="#17191D"/>
<path d="M6.15201 6.45154C6.15201 6.45154 6.18765 6.58083 6.22616 6.60697C6.26798 6.63264 6.32978 6.50668 6.32978 6.50668C6.32978 6.50668 6.31029 6.6911 6.23899 6.74291C6.19383 6.70393 6.14202 6.63596 6.15153 6.45201L6.15201 6.45154Z" fill="#17191D"/>
<path d="M9.89061 8.47926C9.74849 8.4341 9.57689 8.13988 9.52508 8.01344C9.46995 7.88748 9.37631 7.51863 9.4343 7.38269C9.46329 7.5153 9.5441 7.80287 9.60589 7.92931C9.69953 8.12324 9.81598 8.37564 9.89061 8.47926Z" fill="#BCB9B7"/>
<path d="M12.9343 12.26C12.9087 12.2081 12.7727 12.153 12.7143 12.1468C12.6591 12.1373 12.6496 12.1373 12.643 12.192C12.6396 12.2371 12.6363 12.2828 12.6463 12.3313C12.6591 12.4121 12.6658 12.3892 12.7399 12.3926C12.7951 12.3992 12.8469 12.4054 12.9016 12.4021C12.95 12.3988 12.9629 12.3988 12.9629 12.3503C12.9629 12.3146 12.9757 12.2695 12.9339 12.2595L12.9343 12.26Z" fill="#17191D"/>
</g>
<defs>
<clipPath id="clip0_482_27261">
<rect width="19" height="24.6326" fill="white" transform="translate(0.5)"/>
</clipPath>
</defs>
</svg>
