<svg width="24" height="24" viewBox="0 0 24 24" fill="none" xmlns="http://www.w3.org/2000/svg">
<g clip-path="url(#clip0_482_27175)">
<path d="M24 11.3848V12.6113C23.9917 12.6536 23.9799 12.6956 23.9757 12.7382C23.9368 13.1179 23.9173 13.5005 23.8575 13.877C23.6402 15.2461 23.2059 16.5432 22.534 17.759C21.2902 20.0077 19.5137 21.7027 17.2015 22.8183C15.0587 23.8514 12.7979 24.1927 10.4364 23.8946C9.05093 23.7238 7.70772 23.3038 6.47174 22.6548C4.11666 21.4177 2.34388 19.6015 1.18563 17.2064C0.122402 15.0083 -0.209512 12.687 0.124821 10.2707C0.262907 9.28601 0.526642 8.32297 0.909461 7.40531C2.609 3.28782 6.45342 0.453993 10.8892 0.0488313C11.0559 0.0338594 11.222 0.0163539 11.3886 0H12.615C12.6572 0.00829211 12.6993 0.0188876 12.7417 0.0245308C13.3001 0.0967412 13.8645 0.140275 14.4153 0.245538C15.7962 0.508928 17.0837 1.02592 18.2792 1.7653C20.2059 2.95625 21.6843 4.56112 22.7146 6.58002C23.3987 7.92299 23.8185 9.38471 23.9511 10.886C23.9663 11.0521 23.9834 11.2185 24 11.3849V11.3848ZM12.8958 18.788V5.18591C13.2472 5.26595 13.589 5.32457 13.9189 5.4205C14.2487 5.51644 14.5761 5.65061 14.9121 5.77061L15.6352 4.22126C13.207 3.14628 10.7962 3.14628 8.36832 4.22126C8.61709 4.75449 8.85813 5.26963 9.10022 5.78766C9.75 5.48845 10.4115 5.28933 11.1127 5.20744V18.788C10.4479 18.7111 9.82198 18.5163 9.21136 18.2483C9.20364 18.2835 9.198 18.3016 9.19638 18.3174C9.15135 18.848 9.11081 19.3788 9.05853 19.9085C9.04701 20.0259 9.07004 20.0766 9.18706 20.1157C10.0167 20.3922 10.8818 20.5482 11.7558 20.5786C12.3546 20.6017 12.9543 20.5544 13.5421 20.4375C13.9797 20.3501 14.4084 20.2178 14.8409 20.105C14.9209 20.0839 14.9587 20.0517 14.9475 19.9475C14.906 19.5505 14.8814 19.1515 14.8488 18.7537C14.8352 18.5889 14.8174 18.4247 14.7998 18.2429C14.1783 18.519 13.5568 18.7035 12.8958 18.7878V18.788ZM15.0429 11.5843L15.0672 11.5928C15.3042 14.2911 15.542 16.9898 15.7807 19.7035C15.8318 19.6832 15.8815 19.6597 15.9297 19.6332C16.3889 19.3398 16.8461 19.0432 17.3068 18.7517C17.4089 18.6872 17.427 18.6055 17.4166 18.4938C17.3582 17.8758 17.3068 17.2569 17.2506 16.6387C17.1759 15.8172 17.0975 14.996 17.0241 14.1745C16.9574 13.428 16.8962 12.6814 16.8313 11.9349C16.7869 11.4226 16.7413 10.9105 16.6945 10.3983C16.6449 9.85517 16.5879 9.31238 16.5463 8.76867C16.5343 8.614 16.5037 8.46048 16.5804 8.29994C16.9804 7.45979 17.3677 6.61295 17.764 5.77073C17.8031 5.68723 17.7848 5.64381 17.7197 5.59337C17.4422 5.38008 17.1697 5.1585 16.8892 4.94843C16.7308 4.82981 16.5603 4.72708 16.3924 4.6149C16.3735 4.64611 16.3631 4.66051 16.3557 4.67617C15.479 6.55111 14.6031 8.42639 13.7278 10.3019C13.6943 10.3737 13.6761 10.4515 13.6745 10.5306C13.6712 11.7969 13.6707 13.0632 13.6726 14.3295C13.6726 14.3706 13.6771 14.4116 13.6799 14.4527L13.7044 14.4556C14.1507 13.4982 14.5968 12.541 15.0429 11.584V11.5843ZM7.61858 4.61502C7.13269 4.91146 6.67455 5.25121 6.24969 5.63011C6.22539 5.65176 6.22574 5.72743 6.24278 5.76497C6.63689 6.61814 7.03514 7.46923 7.42982 8.32216C7.45919 8.38125 7.4737 8.44655 7.47197 8.51254C7.4365 8.98576 7.3955 9.45853 7.35335 9.93129C7.29473 10.5896 7.23208 11.2473 7.17334 11.9044C7.12485 12.4477 7.08109 12.9917 7.03261 13.535C6.97421 14.1888 6.91179 14.8415 6.85375 15.496C6.8124 15.9599 6.77693 16.4246 6.73616 16.8886C6.6871 17.4453 6.63297 18.0018 6.58817 18.5588C6.58817 18.6175 6.61339 18.6734 6.6575 18.7121C6.86872 18.8739 7.08144 19.0355 7.30544 19.179C7.59555 19.3656 7.89683 19.5336 8.22079 19.7258C8.4608 16.9875 8.69943 14.2866 8.93691 11.5871L8.96087 11.583C9.40645 12.5397 9.85215 13.4962 10.2977 14.4527L10.3263 14.447V14.3073C10.3263 13.0542 10.3263 11.801 10.3236 10.5479C10.3224 10.4514 10.301 10.3563 10.2608 10.2685C9.65947 8.97471 9.05576 7.68172 8.44963 6.38964C8.17553 5.80355 7.90097 5.21781 7.61881 4.61502H7.61858ZM5.57918 6.31559C4.14557 7.89213 3.1238 10.3477 3.49683 13.146C3.74052 14.9751 4.50996 16.5588 5.801 17.9321C5.82772 17.6605 5.8511 17.429 5.87194 17.197C5.9157 16.7021 5.96177 16.2076 5.99863 15.7122C6.01141 15.541 6.04769 15.3772 5.95406 15.1986C5.26593 13.8826 5.01843 12.4868 5.23045 11.0126C5.37349 9.99464 5.74837 9.02296 6.32628 8.17279C6.37453 8.10139 6.38306 8.04588 6.34551 7.96699C6.18739 7.63507 6.03594 7.30039 5.88162 6.96583C5.78349 6.75358 5.68479 6.54213 5.5793 6.31548L5.57918 6.31559ZM18.1967 17.9119C21.1701 14.9654 21.4831 9.68495 18.427 6.32227C18.403 6.36845 18.3793 6.40922 18.3595 6.45183C18.1294 6.95097 17.9031 7.45172 17.6663 7.9481C17.6217 8.04196 17.63 8.10404 17.6863 8.18811C18.5966 9.554 18.9646 11.061 18.8134 12.689C18.728 13.607 18.446 14.4733 18.0135 15.2891C17.9868 15.3434 17.9751 15.4037 17.9797 15.4641C18.0168 15.9056 18.0597 16.3469 18.0999 16.7882C18.1335 17.1537 18.1634 17.519 18.1967 17.912V17.9119Z" fill="black"/>
<path d="M11.9998 22.2626C17.6681 22.2626 22.2632 17.6675 22.2632 11.9991C22.2632 6.33078 17.6681 1.73569 11.9998 1.73569C6.33143 1.73569 1.73633 6.33078 1.73633 11.9991C1.73633 17.6675 6.33143 22.2626 11.9998 22.2626Z" fill="#00259A"/>
<path d="M12.8977 18.7877C13.5586 18.7034 14.1804 18.5187 14.803 18.2428C14.8206 18.4244 14.8385 18.5894 14.8521 18.7533C14.8845 19.1513 14.9091 19.5503 14.9508 19.9472C14.9615 20.0499 14.924 20.0837 14.8441 20.1046C14.4117 20.2177 13.9829 20.3496 13.5454 20.4373C12.9574 20.5541 12.3579 20.6013 11.759 20.578C10.8851 20.5476 10.02 20.3918 9.19028 20.1154C9.07293 20.0762 9.05035 20.0252 9.06176 19.9082C9.11508 19.3784 9.15458 18.8473 9.19961 18.317C9.20123 18.2998 9.20687 18.283 9.21424 18.2477C9.82509 18.5159 10.4511 18.7108 11.1158 18.7874V5.20745C10.4145 5.28899 9.75311 5.48823 9.10299 5.78767C8.86113 5.26965 8.62009 4.75392 8.37109 4.22104C10.7987 3.14629 13.209 3.14629 15.6372 4.22104C15.3898 4.75058 15.1506 5.26377 14.914 5.77017C14.5781 5.65016 14.2547 5.51714 13.9208 5.4204C13.5869 5.32366 13.2492 5.26469 12.8975 5.18546V18.7879L12.8977 18.7877Z" fill="white"/>
<path d="M15.0448 11.5837C14.5989 12.5409 14.1531 13.4981 13.7071 14.455L13.6826 14.4521C13.6801 14.411 13.6756 14.37 13.6753 14.3289C13.6753 13.0627 13.676 11.7966 13.6775 10.5303C13.6789 10.4512 13.6971 10.3732 13.7308 10.3016C14.6048 8.42537 15.4808 6.5502 16.3587 4.67584C16.366 4.66006 16.3766 4.64601 16.3952 4.6148C16.5635 4.72674 16.7338 4.8297 16.8919 4.9481C17.1727 5.15851 17.4452 5.37929 17.7228 5.59338C17.7878 5.64348 17.8063 5.68725 17.767 5.7704C17.3708 6.61297 16.984 7.45945 16.5832 8.29961C16.5067 8.45957 16.5373 8.6139 16.5493 8.76857C16.5917 9.31216 16.648 9.85484 16.6973 10.3982C16.7441 10.9101 16.7897 11.4223 16.8341 11.9348C16.8992 12.6813 16.9605 13.4279 17.0272 14.1744C17.1005 14.9962 17.1788 15.8171 17.2536 16.6386C17.3095 17.2572 17.3602 17.8757 17.4194 18.4941C17.4301 18.6055 17.4117 18.6873 17.3099 18.7519C16.8492 19.0431 16.3919 19.3399 15.9325 19.6334C15.8843 19.6598 15.8346 19.6833 15.7837 19.7038C15.5448 16.9895 15.3067 14.2913 15.0694 11.5925L15.0449 11.584L15.0448 11.5837ZM7.62068 4.6148C7.90272 5.21759 8.1774 5.80345 8.45127 6.3892C9.05567 7.6823 9.65938 8.97576 10.2627 10.2694C10.3029 10.3572 10.3244 10.4523 10.3254 10.5488C10.3294 11.802 10.328 13.0551 10.328 14.3083V14.4482L10.2995 14.4535C9.85402 13.497 9.40843 12.5406 8.96262 11.5841L8.93889 11.5878C8.7013 14.2881 8.46382 16.9882 8.22278 19.7267C7.89881 19.5343 7.59753 19.3654 7.30742 19.1795C7.08342 19.036 6.8707 18.8748 6.65948 18.7126C6.61549 18.674 6.59015 18.6182 6.58992 18.5596C6.63495 18.0023 6.68908 17.4461 6.73814 16.8894C6.77891 16.4252 6.81439 15.9608 6.85573 15.4966C6.91389 14.8428 6.9762 14.1901 7.03459 13.5358C7.08307 12.9925 7.12684 12.4485 7.17532 11.9049C7.23394 11.2469 7.29636 10.5891 7.35533 9.93188C7.39748 9.45912 7.43848 8.98612 7.47395 8.5129C7.47568 8.44702 7.46128 8.38172 7.4318 8.32275C7.03724 7.46959 6.63864 6.6185 6.24476 5.76533C6.22749 5.72802 6.22714 5.652 6.25144 5.63047C6.6763 5.25133 7.13455 4.91136 7.62056 4.61469L7.62068 4.6148Z" fill="white"/>
<path d="M5.58051 6.31524C5.68578 6.54189 5.78471 6.75334 5.8826 6.96525C6.03692 7.29901 6.18837 7.63426 6.34684 7.9664C6.38416 8.04506 6.37586 8.09977 6.32761 8.17221C5.7497 9.02227 5.37471 9.99359 5.23155 11.0114C5.01987 12.4862 5.26703 13.8819 5.95539 15.1975C6.04902 15.3763 6.01239 15.5401 5.99996 15.711C5.96287 16.2063 5.91703 16.701 5.87304 17.1959C5.85254 17.4278 5.82882 17.6595 5.80244 17.931C4.51198 16.5574 3.74197 14.9744 3.49827 13.1445C3.12524 10.347 4.14667 7.89201 5.58063 6.31512L5.58051 6.31524ZM18.198 17.9113C18.1644 17.5186 18.1348 17.153 18.1021 16.7881C18.0625 16.3465 18.0189 15.9055 17.982 15.4637C17.9773 15.4035 17.9891 15.3432 18.0159 15.2891C18.4486 14.4731 18.7308 13.607 18.8157 12.689C18.967 11.0607 18.599 9.55377 17.6887 8.18787C17.6325 8.10357 17.6242 8.04172 17.6687 7.94786C17.9041 7.45137 18.1305 6.95074 18.3606 6.45183C18.3801 6.40922 18.4038 6.36833 18.4281 6.32226C21.4842 9.68437 21.1714 14.9652 18.198 17.9114V17.9113Z" fill="white"/>
</g>
<defs>
<clipPath id="clip0_482_27175">
<rect width="24" height="23.9982" fill="white"/>
</clipPath>
</defs>
</svg>
