<svg width="20" height="22" viewBox="0 0 20 22" fill="none" xmlns="http://www.w3.org/2000/svg">
<g clip-path="url(#clip0_413_144774)">
<path d="M17.2013 6.2966C17.836 4.74247 18.5793 3.03149 19.407 1.21432C19.4794 1.05504 19.4649 0.866812 19.366 0.722018C19.2719 0.58205 19.115 0.5 18.9485 0.5H18.9219L17.0203 0.59653C16.8128 0.606182 16.6342 0.741324 16.5666 0.936796C16.5497 0.987474 16.5304 1.04057 16.5135 1.09124C16.3929 1.11296 16.2819 1.17812 16.2046 1.28189C14.5733 3.44174 11.2068 3.82544 9.83368 3.8906C9.56581 3.90267 9.30035 3.90991 9.04696 3.90991C7.6859 3.90991 5.20509 3.70478 3.87298 2.33647C3.77886 2.24236 3.6582 2.19168 3.53271 2.18685C3.49652 2.11446 3.46032 2.04447 3.42412 1.97449C3.42171 1.96966 3.41929 1.96242 3.41447 1.9576C3.40964 1.95036 3.39275 1.91657 3.35172 1.83935C3.26484 1.67042 3.09109 1.56665 2.90286 1.56665C2.88597 1.56665 2.86907 1.56665 2.85218 1.56906L0.955375 1.75971C0.776796 1.7766 0.619935 1.89003 0.545125 2.05413C0.470314 2.21823 0.48962 2.41128 0.595803 2.55608C0.607869 2.57056 1.72761 4.13916 2.91251 6.43415C1.5804 8.07515 0.84678 10.1409 0.84678 12.2573C0.84678 14.6078 1.73002 16.8473 3.33242 18.5631C4.92757 20.2717 7.085 21.3045 9.40895 21.4759H9.41378C9.50548 21.4831 9.60201 21.4879 9.71061 21.4928C9.73232 21.4928 9.75646 21.4952 9.78059 21.4952C9.89884 21.5 9.99778 21.5 10.0895 21.5C10.1812 21.5 10.2801 21.4976 10.3984 21.4952C10.4225 21.4952 10.4442 21.4928 10.4684 21.4928C10.577 21.4879 10.6735 21.4831 10.7652 21.4759H10.77C13.094 21.3069 15.2514 20.2717 16.8466 18.5631C18.4514 16.8473 19.3346 14.6054 19.3346 12.2549C19.3346 10.1071 18.5817 8.01241 17.211 6.35934C17.2013 6.34969 17.1941 6.34004 17.1844 6.3328V6.33038C17.1892 6.31832 17.1965 6.30866 17.2013 6.2966Z" fill="white"/>
<path d="M6.11682 12.3454C7.25346 13.7547 8.26702 15.3137 8.26702 17.1477C8.26702 18.2699 7.88814 19.6937 7.59131 20.6276C8.38285 20.8641 9.22025 20.992 10.089 20.992C10.9578 20.992 11.7903 20.8641 12.5795 20.63C12.2851 19.6961 11.9038 18.2723 11.9038 17.1477C11.9038 15.3137 12.9197 13.7547 14.054 12.3454L10.0866 5.10567L6.11682 12.3454ZM7.33551 12.2223C7.33551 10.7044 8.56626 9.47121 10.0842 9.47121C11.6021 9.47121 12.8329 10.702 12.8329 12.2223C12.8329 13.7426 11.6021 14.971 10.0842 14.971C8.56626 14.971 7.33551 13.7402 7.33551 12.2223Z" fill="url(#paint0_linear_413_144774)"/>
<path d="M9.85732 4.39617C6.00337 4.57958 4.24412 3.44535 3.5105 2.69001C4.83054 5.31803 5.81031 7.87606 6.42086 10.299C6.48843 10.562 6.54877 10.8226 6.60668 11.0833L9.92971 5.0212L10.0866 4.73402L10.2434 5.0212L13.6389 11.2136C14.1746 9.11164 15.082 6.0975 16.6096 1.58475C15.9556 2.44869 14.1239 4.19346 9.85732 4.39617Z" fill="url(#paint1_linear_413_144774)"/>
<path d="M12.0823 17.1477C12.0823 17.6811 12.1716 18.2868 12.2971 18.878C12.606 18.7742 12.9053 18.6512 13.1924 18.5088C13.0187 17.6352 12.8763 16.6916 12.8763 15.9363C12.8763 15.4633 12.9004 14.9082 13.0235 14.1022C12.4781 15.0217 12.0823 16.0376 12.0823 17.1477Z" fill="url(#paint2_linear_413_144774)"/>
<path d="M7.1859 16.2283C7.17625 17.1139 7.10627 17.8765 7.00732 18.5185C7.28726 18.656 7.57685 18.7767 7.87368 18.8756C7.99917 18.2844 8.08604 17.6811 8.08604 17.1477C8.08604 16.3755 7.94366 15.415 7.07972 14.0033C7.15936 14.7659 7.19314 15.5091 7.1859 16.2283Z" fill="url(#paint3_linear_413_144774)"/>
<path d="M17.0464 1.09969C15.3716 6.01063 14.3846 9.2685 13.8199 11.5466L14.2108 12.2609L14.2687 12.3671L14.1939 12.4612C13.9188 12.8015 13.6437 13.161 13.3855 13.5399C13.1997 14.5631 13.1345 15.3137 13.1345 15.9387C13.1345 16.6458 13.2673 17.5435 13.4338 18.3857C13.6727 18.2554 13.9019 18.1082 14.1239 17.9513C14.0057 17.4325 13.9164 16.9088 13.8923 16.431C13.8488 15.8518 13.873 15.3788 13.9164 15.0265C14.0322 14.0346 14.457 12.0437 15.8639 8.32009L15.917 8.17771C16.1149 7.66128 16.3248 7.1183 16.5468 6.5705L16.7351 6.10474V6.10716C17.3384 4.62784 18.0672 2.93857 18.9504 1.00557L17.0464 1.09969Z" fill="url(#paint4_linear_413_144774)"/>
<path d="M1.00555 2.25804C1.00555 2.25804 2.1446 3.84113 3.36329 6.20369L3.3657 6.20127L3.47188 6.41364C3.75423 6.9711 4.039 7.56717 4.3141 8.19219L4.3503 8.27666C5.62208 11.2039 6.65253 14.7779 6.12162 17.9948C6.32916 18.1396 6.54394 18.2723 6.76595 18.393C6.85766 17.7728 6.92282 17.044 6.93005 16.2041C6.93729 15.3402 6.8842 14.4449 6.76837 13.5206C6.54394 13.19 6.28331 12.8377 5.97683 12.4588L5.90202 12.3647L5.95993 12.2585L6.41603 11.4259C6.34122 11.0688 6.25676 10.7068 6.16506 10.3448C5.51107 7.76264 4.43718 5.02361 2.97234 2.20736C2.96028 2.18564 2.93132 2.13255 2.89995 2.06981L1.00555 2.25804Z" fill="url(#paint5_linear_413_144774)"/>
<path d="M7.59854 11.7276C7.32584 13.1007 8.21633 14.4377 9.59187 14.7104C10.965 14.983 12.3019 14.0926 12.5746 12.717C12.8473 11.3439 11.9544 10.007 10.5813 9.73425C10.4148 9.70047 10.2483 9.68599 10.0842 9.68599C8.89686 9.68599 7.83745 10.521 7.59854 11.7276Z" fill="url(#paint6_linear_413_144774)"/>
<path d="M11.9631 12.9557C11.9607 12.9291 11.9656 12.9026 11.9776 12.8809C12.0428 12.7723 12.1996 12.4682 12.2479 12.0193C12.2479 12.0145 12.2576 11.9976 12.2648 11.9952C12.2865 11.988 12.3058 11.9807 12.3227 11.9735C12.3468 12.2028 12.3372 12.4344 12.2938 12.6589C12.231 12.9774 12.0983 13.2815 11.9052 13.5421C11.9873 13.2959 11.9728 13.0546 11.9631 12.9557ZM11.0558 14.1671C11.0461 14.172 11.0316 14.1744 11.0147 14.1695C10.8724 14.114 10.6793 13.9427 10.5997 13.8703C10.5924 13.8655 10.5948 13.8534 10.5972 13.851C10.9158 13.4842 11.0871 13.1415 11.1306 13.045C11.1354 13.0353 11.1426 13.0305 11.1523 13.0305C11.244 13.0305 11.5674 13.0233 11.898 12.9484H11.9004L11.9028 12.9509C11.9414 13.2718 11.8594 13.518 11.8208 13.6097C11.8135 13.629 11.799 13.6507 11.7942 13.6555C11.7387 13.7207 11.5215 13.9523 11.0558 14.1671ZM11.0292 14.254C11.0413 14.2419 11.0558 14.2275 11.0751 14.2202C11.0871 14.2154 11.2633 14.1333 11.4564 14.0054C11.3188 14.1116 11.1692 14.2009 11.0123 14.2733C11.0196 14.2661 11.0244 14.2612 11.0292 14.254ZM9.47509 13.88C9.4775 13.8775 9.48716 13.8751 9.5137 13.88L9.52094 13.8824C9.60058 13.8993 9.72848 13.9186 9.89258 13.9282C10.1049 13.9403 10.3149 13.9282 10.5128 13.8968C10.52 13.8944 10.5273 13.8944 10.5321 13.8968C10.5369 13.8968 10.5393 13.8993 10.5417 13.9017L10.5442 13.9065C10.7396 14.0996 10.9134 14.1937 10.9785 14.225V14.2299C10.9423 14.2709 10.9013 14.3095 10.8555 14.3433C10.4693 14.4837 10.0519 14.5154 9.64884 14.435C9.48716 14.4012 9.32547 14.3505 9.17344 14.283C9.13724 14.254 9.10828 14.225 9.08173 14.1937C9.07932 14.1913 9.07932 14.1888 9.07691 14.1888C9.19757 14.1333 9.41235 13.9379 9.47509 13.88ZM8.17918 12.8881C8.21779 12.9026 8.26847 12.9171 8.33363 12.9291C8.53875 12.9702 8.80904 12.9895 8.89109 12.9943C8.8935 12.9943 8.89591 12.9967 8.89833 13.0015C8.9659 13.1632 9.1662 13.5469 9.42683 13.8389C9.42683 13.8389 9.42682 13.8413 9.422 13.8462C9.1855 14.0658 9.07208 14.1237 9.03347 14.1358C9.03105 14.1358 9.0214 14.1382 9.00933 14.1358C9.00692 14.1358 9.00451 14.1358 9.00209 14.1333C8.74388 14.0441 8.43981 13.7448 8.31915 13.6217C8.29984 13.5976 8.28295 13.5735 8.26606 13.5493C8.20814 13.3804 8.17677 13.226 8.16711 13.0932C8.16229 12.9871 8.17194 12.9195 8.17918 12.8881ZM7.99095 12.4996C8.04645 12.6709 8.10678 12.8061 8.12609 12.8423C8.12609 12.8447 8.1285 12.8567 8.12609 12.8616C8.09472 13.057 8.1285 13.2525 8.1647 13.3901C7.89683 12.9509 7.78824 12.4344 7.85581 11.9228C7.86787 11.9276 7.87994 11.9301 7.88718 11.9325C7.88235 12.0917 7.91855 12.28 7.99095 12.4996ZM8.35052 11.0372C8.35052 11.042 8.34569 11.0565 8.34328 11.0589C8.04404 11.4088 7.92579 11.7708 7.89442 11.8818C7.88235 11.877 7.8727 11.8721 7.86063 11.8697C7.86546 11.8408 7.87029 11.8142 7.87511 11.7853C7.95234 11.404 8.12368 11.0492 8.37707 10.7572C8.35535 10.8441 8.34569 10.9382 8.35052 11.0372ZM10.0494 10.0212L10.0253 10.4604C10.0253 10.4676 10.0229 10.4869 10.0084 10.4918C9.72365 10.6124 9.422 10.8007 9.15896 11.0251C9.1493 11.0323 9.14689 11.0347 9.13724 11.0347H9.13241C9.05519 11.0227 8.8573 10.9985 8.66666 10.9985C8.5653 10.9985 8.48084 11.0058 8.41568 11.0203C8.41327 10.9672 8.41568 10.7958 8.48084 10.6462C8.84282 10.277 9.32547 10.0453 9.83225 9.9874C9.88293 9.98981 9.93602 9.99705 9.98428 10.0067C10.0036 10.0115 10.0229 10.0139 10.0422 10.0212C10.047 10.0188 10.0494 10.0212 10.0494 10.0212ZM11.7339 11.0372C11.7339 11.0492 11.7291 11.0541 11.7266 11.0565C11.618 11.0372 11.4974 11.0275 11.3695 11.0275C11.2343 11.0275 11.1209 11.0372 11.0533 11.0444C11.0316 11.0468 11.0147 11.0468 11.0051 11.0492H10.9978C10.9882 11.0492 10.9785 11.0492 10.9713 11.0468C10.9448 11.042 10.9303 11.0299 10.9279 11.0275C10.7758 10.8875 10.6117 10.762 10.438 10.6583C10.298 10.5738 10.187 10.5231 10.1387 10.5014C10.1267 10.4966 10.1194 10.4918 10.1146 10.4918C10.0929 10.4797 10.0905 10.4604 10.0905 10.4604C10.0905 10.4411 10.1098 10.0888 10.117 10.0453C10.1218 10.0164 10.1411 10.0115 10.1436 10.0115C10.1822 10.0043 10.2497 9.99223 10.3342 9.98981C10.4042 9.99705 10.4669 10.0067 10.5297 10.0188C10.9761 10.1081 11.3791 10.3253 11.6977 10.651C11.717 10.7017 11.7315 10.762 11.7387 10.8272C11.7435 10.9237 11.7363 11.0106 11.7339 11.0372ZM12.2527 11.9494H12.2479C12.2455 11.9494 12.2455 11.9542 12.2431 11.9445C12.2117 11.8311 12.0862 11.4329 11.8087 11.112C11.799 11.1023 11.7846 11.0637 11.7894 11.0372C11.8039 10.9334 11.8015 10.832 11.7797 10.7379C12.0717 11.0734 12.2576 11.4812 12.3179 11.9204C12.2986 11.9325 12.2769 11.9421 12.2527 11.9494ZM8.71733 11.0613C8.85247 11.0613 8.99003 11.0734 9.12034 11.0951L9.12517 11.0975C9.12758 11.0975 9.13 11.0975 9.13241 11.0999C9.15172 11.1844 9.25548 11.626 9.41958 12.0362C9.422 12.0507 9.41959 12.0531 9.40511 12.0749C9.31582 12.2028 9.08897 12.5406 8.90557 12.9098C8.90074 12.9171 8.89109 12.9267 8.85006 12.9267H8.8211C8.69079 12.9171 8.50014 12.8978 8.34569 12.8664C8.28054 12.8543 8.22503 12.8398 8.18642 12.8254C8.18159 12.823 8.17194 12.8133 8.16711 12.8061C7.9644 12.362 7.94027 12.0531 7.93786 11.9687C7.93786 11.9542 7.94027 11.9132 7.9451 11.8963C7.97406 11.7949 8.0923 11.4426 8.37948 11.1023C8.38189 11.0999 8.4012 11.0854 8.4374 11.0806C8.46636 11.0758 8.56771 11.0613 8.71733 11.0613ZM11.9318 12.8495C11.9197 12.8688 11.8956 12.8833 11.8883 12.8833C11.5746 12.9533 11.2778 12.9629 11.1595 12.9653C11.1451 12.9629 11.1306 12.946 11.1257 12.9412C10.9327 12.5575 10.6986 12.1883 10.631 12.0845C10.6238 12.0749 10.6262 12.0507 10.6359 12.0266C10.6383 12.0218 10.8289 11.5705 10.9544 11.1385C10.9568 11.1289 10.9858 11.1144 11.0051 11.112C11.1451 11.0951 11.2754 11.0878 11.3936 11.0878C11.5577 11.0878 11.6615 11.1023 11.7073 11.112L11.7097 11.0975L11.7122 11.1144C11.7291 11.1168 11.7532 11.1361 11.7604 11.1458C12.0283 11.4546 12.1514 11.8359 12.1827 11.9469C12.19 11.9687 12.1876 12.0242 12.1852 12.0459C12.1393 12.4634 11.9921 12.7457 11.9318 12.8495ZM9.4582 12.1062C9.46785 12.0942 9.48233 12.0845 9.49922 12.0845H9.57403C9.72365 12.0845 10.2328 12.0845 10.5466 12.099H10.5586C10.5683 12.1014 10.5755 12.1062 10.5828 12.1135C10.7686 12.391 11.0147 12.8495 11.0775 12.975C11.0847 12.9895 11.0823 13.016 11.0799 13.0208C10.9134 13.3997 10.631 13.7279 10.549 13.8172C10.5393 13.8269 10.5248 13.8341 10.52 13.8341C10.3704 13.8582 10.2184 13.8703 10.0615 13.8703C9.81536 13.8703 9.6223 13.8389 9.52818 13.822L9.52094 13.8196C9.49922 13.8148 9.47268 13.7979 9.46785 13.7907C9.16378 13.46 8.97314 13.0184 8.949 12.9605C9.09621 12.6323 9.39787 12.1907 9.4582 12.1062ZM10.0977 10.5497C10.479 10.721 10.7951 10.9961 10.8844 11.0758C10.8941 11.0854 10.8965 11.1168 10.8941 11.1264C10.7879 11.4957 10.6214 11.8963 10.5755 12.0097C10.5707 12.0242 10.5466 12.0338 10.5369 12.0338C10.2232 12.0218 9.71883 12.0193 9.57162 12.0193H9.50405C9.48474 12.0145 9.46785 11.9952 9.46544 11.9904C9.32788 11.6405 9.23377 11.2664 9.19998 11.124C9.19274 11.0951 9.21446 11.0565 9.22411 11.0492C9.58369 10.75 9.90223 10.6004 10.0229 10.5497C10.0374 10.5424 10.0639 10.5424 10.0856 10.5473C10.0905 10.5473 10.0953 10.5497 10.0977 10.5497ZM12.05 10.9093C11.6977 10.3856 11.1644 10.0284 10.5466 9.90535C10.3945 9.87398 10.2377 9.8595 10.0832 9.8595C8.96107 9.8595 7.98853 10.6607 7.76893 11.7611C7.51554 13.0401 8.34811 14.2854 9.62471 14.5388C9.77674 14.5701 9.9336 14.5846 10.0881 14.5846C11.2102 14.5846 12.1852 13.7834 12.4023 12.683C12.5254 12.0652 12.3999 11.4353 12.05 10.9093Z" fill="white"/>
<path d="M16.1945 8.28389C16.9378 9.42535 17.3721 10.7888 17.3721 12.2537C17.3721 16.2765 14.1119 19.5368 10.089 19.5368C6.06611 19.5368 2.80583 16.2765 2.80583 12.2537C2.80583 10.7744 3.24987 9.3964 4.00762 8.24769C3.77595 7.72402 3.53945 7.22448 3.30296 6.74907C2.08427 8.25252 1.35065 10.1662 1.35065 12.2537C1.35065 17.0801 5.26251 20.992 10.089 20.992C14.9155 20.992 18.8273 17.0801 18.8273 12.2537C18.8273 10.1348 18.0744 8.1946 16.8195 6.6815C16.5927 7.24861 16.3851 7.78194 16.1945 8.28389Z" fill="url(#paint7_linear_413_144774)"/>
<path d="M3.15094 12.2537C3.15094 14.4908 4.21035 16.4793 5.85377 17.7462C5.8779 17.5725 5.89962 17.3939 5.91651 17.2153C4.50235 16.0256 3.60463 14.2446 3.60463 12.2537C3.60463 11.1315 3.88939 10.0769 4.39134 9.15509C4.3648 9.09234 4.34067 9.0296 4.31412 8.96685C4.26827 8.85343 4.22 8.74001 4.17174 8.62659C3.52499 9.68359 3.15094 10.924 3.15094 12.2537Z" fill="url(#paint8_linear_413_144774)"/>
<path d="M15.8373 9.23954C15.8373 9.24195 15.8349 9.24436 15.8349 9.24678C16.3055 10.1445 16.5758 11.1677 16.5758 12.2537C16.5758 14.2374 15.6829 16.0135 14.2784 17.2032C14.3049 17.3697 14.3387 17.5411 14.3749 17.71C15.9894 16.4406 17.0295 14.469 17.0295 12.2537C17.0295 10.9481 16.6675 9.72942 16.0425 8.6869C15.9725 8.87514 15.9025 9.05854 15.8373 9.23954Z" fill="url(#paint9_linear_413_144774)"/>
</g>
<defs>
<linearGradient id="paint0_linear_413_144774" x1="6.1455" y1="13.0355" x2="14.0974" y2="13.0355" gradientUnits="userSpaceOnUse">
<stop stop-color="#AA9402"/>
<stop offset="0.5" stop-color="#DCBF03"/>
<stop offset="1" stop-color="#AA9402"/>
</linearGradient>
<linearGradient id="paint1_linear_413_144774" x1="5.52388" y1="10.0289" x2="15.2484" y2="0.304356" gradientUnits="userSpaceOnUse">
<stop stop-color="#7B7979"/>
<stop offset="0.56" stop-color="#E9E9E9"/>
<stop offset="1" stop-color="#7B7979"/>
</linearGradient>
<linearGradient id="paint2_linear_413_144774" x1="11.3407" y1="18.0769" x2="14.0971" y2="15.3205" gradientUnits="userSpaceOnUse">
<stop stop-color="#7B7979"/>
<stop offset="1" stop-color="#C4C3C3"/>
</linearGradient>
<linearGradient id="paint3_linear_413_144774" x1="6.21002" y1="17.7074" x2="8.49809" y2="15.4193" gradientUnits="userSpaceOnUse">
<stop stop-color="#7B7979"/>
<stop offset="1" stop-color="#C4C3C3"/>
</linearGradient>
<linearGradient id="paint4_linear_413_144774" x1="10.0329" y1="15.1309" x2="21.4527" y2="3.71105" gradientUnits="userSpaceOnUse">
<stop stop-color="#7B7979"/>
<stop offset="0.56" stop-color="#E9E9E9"/>
<stop offset="1" stop-color="#7B7979"/>
</linearGradient>
<linearGradient id="paint5_linear_413_144774" x1="1.18216" y1="13.0459" x2="7.51994" y2="6.70811" gradientUnits="userSpaceOnUse">
<stop stop-color="#7B7979"/>
<stop offset="0.56" stop-color="#E9E9E9"/>
<stop offset="1" stop-color="#7B7979"/>
</linearGradient>
<linearGradient id="paint6_linear_413_144774" x1="7.56421" y1="12.2233" x2="12.6265" y2="12.2233" gradientUnits="userSpaceOnUse">
<stop stop-color="#AA9402"/>
<stop offset="0.5" stop-color="#DCBF03"/>
<stop offset="1" stop-color="#AA9402"/>
</linearGradient>
<linearGradient id="paint7_linear_413_144774" x1="1.33382" y1="13.8287" x2="18.8461" y2="13.8287" gradientUnits="userSpaceOnUse">
<stop stop-color="#254AA5"/>
<stop offset="0.25" stop-color="#254AA5"/>
<stop offset="0.5" stop-color="#217CC9"/>
<stop offset="0.73" stop-color="#254AA5"/>
<stop offset="1" stop-color="#254AA5"/>
</linearGradient>
<linearGradient id="paint8_linear_413_144774" x1="3.27605" y1="13.1814" x2="6.03355" y2="13.1814" gradientUnits="userSpaceOnUse">
<stop stop-color="#AA9402"/>
<stop offset="0.5" stop-color="#DCBF03"/>
<stop offset="1" stop-color="#DCBF03"/>
</linearGradient>
<linearGradient id="paint9_linear_413_144774" x1="14.195" y1="13.2026" x2="16.9383" y2="13.2026" gradientUnits="userSpaceOnUse">
<stop stop-color="#DCBF03"/>
<stop offset="0.5" stop-color="#DCBF03"/>
<stop offset="1" stop-color="#AA9402"/>
</linearGradient>
<clipPath id="clip0_413_144774">
<rect width="18.9524" height="21" fill="white" transform="translate(0.5 0.5)"/>
</clipPath>
</defs>
</svg>
