<svg width="24" height="24" viewBox="0 0 24 24" fill="none" xmlns="http://www.w3.org/2000/svg">
<g clip-path="url(#clip0_413_137210)">
<path d="M12 23.5C18.3513 23.5 23.5 18.3513 23.5 12C23.5 5.64873 18.3513 0.5 12 0.5C5.64873 0.5 0.5 5.64873 0.5 12C0.5 18.3513 5.64873 23.5 12 23.5Z" fill="#D20515"/>
<path d="M19.1393 12.7557C19.1393 12.7895 19.1055 12.8248 19.0364 12.8586L19.0026 12.8924V12.9262C19.0026 12.9488 18.9913 12.9718 18.9688 12.9953L18.8997 13.0292H18.8306V12.9953L18.7615 13.0292V13.063C18.7615 13.0855 18.7502 13.1085 18.7277 13.1321L18.6586 13.1659H18.5895V13.1321C18.3498 13.2688 18.0411 13.3717 17.7662 13.5099V13.5437C17.7662 13.5663 17.7549 13.5893 17.7323 13.6128L17.6632 13.6466H17.5941L17.5603 13.6128L17.4574 13.6466L17.4912 13.6805C17.4912 13.703 17.48 13.726 17.4574 13.7496L17.3883 13.7834H17.3192L17.2854 13.7496C17.1487 13.8187 17.0105 13.8187 16.9076 13.6128C16.8737 13.5099 16.8737 13.3041 16.8385 13.2012C16.8046 13.1321 16.7355 13.1321 16.7355 13.1321C15.4315 12.8924 15.0198 13.1659 14.1627 12.9601C13.8877 12.891 13.751 12.6513 13.4423 12.6513C12.7557 12.6175 12.5498 12.6513 11.7618 12.6175C11.728 12.7204 11.728 12.7542 11.728 12.7542H9.05221L9.46387 12.9601L9.6006 14.1259C9.6006 14.1259 9.49769 14.1597 9.46387 14.1597C9.49769 14.3994 9.49769 14.7081 9.53297 14.9831C9.53297 15.2227 9.56679 15.4976 9.56679 15.6697C9.56679 15.7388 9.56679 15.8417 9.49769 15.9784C9.46387 16.0813 9.36096 16.1504 9.29186 16.1842C9.25804 16.218 9.15513 16.2871 9.05221 16.3562C8.91548 16.4253 8.77728 16.493 8.70965 16.5283C8.70965 16.5621 8.74347 16.5974 8.74347 16.6312C7.13064 17.4207 5.10763 17.6603 4.45633 18.9291C4.38723 19.0658 4.11377 18.9982 4.11377 18.8262V18.5866H4.07995C4.04614 18.5866 4.04614 18.5527 4.04614 18.5175V18.4484C4.04614 18.4145 4.07995 18.3793 4.07995 18.3793H4.11377C4.11377 18.3102 4.14758 18.2425 4.14758 18.1734H4.11377C4.07995 18.1734 4.07995 18.1396 4.11377 18.1043L4.14758 18.0352C4.14758 18.0014 4.1814 17.9661 4.21668 18.0014H4.2505C4.35341 17.7265 4.59306 17.6236 4.69597 17.3501C4.66216 17.3501 4.66216 17.3163 4.69597 17.281L4.66216 17.2119C4.66216 17.1781 4.69597 17.1428 4.73126 17.1781H4.76507C4.76507 17.1443 4.79889 17.109 4.83417 17.0752H4.80036C4.76654 17.0752 4.76654 17.0414 4.80036 17.0061L4.83417 16.937C4.85672 16.9144 4.87975 16.9032 4.90327 16.9032L4.93709 16.8693C5.04 16.8002 5.17673 16.8002 5.27965 16.8693C5.38256 16.9384 5.79422 17.1443 6.17207 16.8002C6.78956 16.2166 7.54377 15.4624 8.09363 15.4285C7.9569 15.1198 7.68197 14.4332 7.64816 14.1597L7.47614 14.1259C7.37323 13.9201 7.13359 12.9601 7.06449 12.2044C7.06449 12.2044 6.99539 11.4149 7.06449 11.1414C7.03067 11.1414 6.92776 11.2105 6.92776 11.2105C6.82484 10.9709 7.1674 8.84346 7.47614 8.22597L7.99072 8.02014C7.92162 8.02014 7.57906 7.98633 6.61901 7.91723C6.07062 8.39799 5.48695 8.91256 5.14439 9.18602C5.07529 9.21983 5.00766 9.52858 5.00766 9.52858C5.00766 9.52858 4.87093 9.66531 4.69891 9.76822C4.49308 9.90495 4.04761 10.0079 3.94469 9.83732C3.91088 9.80351 3.91088 9.76822 3.94469 9.76822C4.01379 9.69912 4.28725 9.56239 4.39017 9.39038C4.25344 9.45948 4.08142 9.56239 3.94469 9.52711C3.87559 9.52711 3.84178 9.39038 3.94469 9.35509C4.15052 9.28599 4.28725 9.21836 4.42545 9.08016C4.52837 8.90815 4.6651 8.80523 4.87093 8.80523C4.87093 8.80523 5.76335 7.63936 6.27792 7.0895C6.41465 6.95277 6.68958 6.98658 6.68958 6.98658L6.7234 6.81457C6.7234 6.81457 8.50676 6.60874 9.36537 6.88367C9.33155 6.36909 9.5712 5.71779 10.3607 5.71779C10.7724 5.71779 11.356 6.09563 11.4589 6.50729C11.4928 6.64402 11.3898 6.74694 11.356 6.91895C11.2869 7.19388 11.3898 7.46734 11.356 7.53644C11.3222 7.60554 11.2531 7.60554 11.184 7.70846C11.1149 7.81137 11.012 8.0172 11.012 8.0172L10.9091 8.25684L10.3607 8.22303C10.1549 8.6685 9.74321 9.56092 9.60648 10.4533C10.052 10.4872 12.0426 10.7621 12.0426 10.7621L12.0764 10.9341C12.0764 10.9341 12.8998 11.037 13.5863 11.3458C13.7231 11.3796 14.1347 11.3119 14.3758 11.4487L14.445 11.3796C15.3374 11.6545 16.0916 12.1338 16.9487 12.3396C16.9487 12.3396 17.3604 12.4425 17.4971 12.4764C17.8059 12.5455 18.0117 12.5455 18.1837 12.5793C18.4586 12.6131 18.6292 12.6131 18.8012 12.6131C18.9041 12.5793 19.1099 12.544 19.1437 12.7498M20.4478 10.0402C19.8303 10.0402 19.3496 10.521 19.3496 11.1385C19.3496 11.7559 19.8303 12.2367 20.4478 12.2367C21.0653 12.2367 21.5461 11.7559 21.5461 11.1385C21.5461 10.521 21.0315 10.0402 20.4478 10.0402Z" fill="white"/>
</g>
<defs>
<clipPath id="clip0_413_137210">
<rect width="23" height="23" fill="white" transform="translate(0.5 0.5)"/>
</clipPath>
</defs>
</svg>
