<svg width="32" height="32" viewBox="0 0 32 32" fill="none" xmlns="http://www.w3.org/2000/svg">
<g clip-path="url(#clip0_32_22760)">
<mask id="mask0_32_22760" style="mask-type:luminance" maskUnits="userSpaceOnUse" x="0" y="0" width="32" height="32">
<path d="M32 0H0V32H32V0Z" fill="white"/>
</mask>
<g mask="url(#mask0_32_22760)">
<path d="M16 31.54C24.58 31.54 31.54 24.58 31.54 16C31.54 7.42 24.58 0.46 16 0.46C7.41999 0.46 0.459991 7.42 0.459991 16C0.459991 24.58 7.41999 31.54 16 31.54Z" fill="#E0E0E2"/>
<path d="M6.53999 16C6.53999 9.41 10.06 3.64 15.31 0.47C7.04999 0.83 0.459991 7.65 0.459991 16C0.459991 24.35 7.04999 31.17 15.31 31.53C10.05 28.36 6.53999 22.59 6.53999 16Z" fill="#D8D7DA"/>
<path d="M27.32 8.62C24.29 11.04 20.27 12.38 16 12.38C11.73 12.38 7.71 11.04 4.68 8.62C4.18 8.22 3.72 7.8 3.29 7.36C3.05 7.12 2.65 7.16 2.47 7.44C0.91 9.92 0 12.85 0 16C0 19.15 0.91 22.08 2.48 24.56C2.66 24.85 3.06 24.88 3.3 24.64C3.73 24.2 4.19 23.78 4.69 23.38C7.72 20.96 11.74 19.62 16.01 19.62C20.28 19.62 24.3 20.96 27.33 23.38C27.83 23.78 28.29 24.2 28.72 24.64C28.96 24.88 29.36 24.84 29.54 24.56C31.11 22.09 32.02 19.15 32.02 16C32.02 12.85 31.11 9.92 29.54 7.44C29.36 7.15 28.96 7.12 28.72 7.36C28.3 7.8 27.83 8.22 27.33 8.62H27.32Z" fill="#9CDD05"/>
<path d="M7.43 10.39C6.45 9.89 5.53 9.3 4.68 8.62C4.18 8.22 3.72 7.8 3.29 7.36C3.05 7.12 2.65 7.16 2.47 7.44C0.91 9.92 0 12.85 0 16C0 19.15 0.91 22.08 2.48 24.56C2.66 24.85 3.06 24.88 3.3 24.64C3.73 24.2 4.19 23.78 4.69 23.38C5.53 22.71 6.45 22.12 7.44 21.61C6.86 19.84 6.55 17.96 6.55 16C6.55 14.04 6.86 12.15 7.44 10.39H7.43Z" fill="#91CC04"/>
<path d="M4.40999 4.97C4.21999 5.17 4.21999 5.48 4.40999 5.68C6.96999 8.55 11.22 10.42 16 10.42C20.78 10.42 25.03 8.54 27.59 5.68C27.77 5.48 27.77 5.17 27.59 4.97C24.67 1.91 20.56 0 16 0C11.44 0 7.32999 1.91 4.40999 4.97Z" fill="#9CDD05"/>
<path d="M16.14 0C16.14 0 16.05 0 16 0C11.44 0 7.32999 1.91 4.40999 4.97C4.21999 5.17 4.21999 5.48 4.40999 5.68C5.41999 6.81 6.68999 7.78 8.13999 8.55C9.78999 4.89 12.62 1.88 16.14 0Z" fill="#91CC04"/>
<path d="M27.59 27.03C27.78 26.83 27.78 26.52 27.59 26.32C25.03 23.45 20.78 21.58 16 21.58C11.22 21.58 6.96999 23.46 4.40999 26.32C4.22999 26.52 4.22999 26.83 4.40999 27.03C7.31999 30.09 11.44 32 16 32C20.56 32 24.67 30.09 27.59 27.03Z" fill="#9CDD05"/>
<path d="M8.13999 23.46C6.67999 24.23 5.40999 25.2 4.40999 26.33C4.22999 26.53 4.22999 26.84 4.40999 27.04C7.31999 30.1 11.44 32.01 16 32.01C16.05 32.01 16.09 32.01 16.14 32.01C12.62 30.13 9.78999 27.12 8.13999 23.47V23.46Z" fill="#91CC04"/>
<path d="M22.2 28.1C22.07 27.86 22.15 27.57 22.39 27.43C22.74 27.23 23.09 27.02 23.42 26.79C23.64 26.64 23.95 26.69 24.1 26.92C24.25 27.14 24.2 27.45 23.97 27.6C23.61 27.84 23.24 28.08 22.87 28.29C22.79 28.33 22.43 28.5 22.2 28.1Z" fill="#91CC04"/>
<path d="M16 30.07C15.73 30.07 15.51 29.85 15.51 29.58C15.51 29.31 15.73 29.09 16 29.09C17.67 29.09 19.29 28.78 20.83 28.17C21.08 28.07 21.37 28.19 21.47 28.44C21.57 28.69 21.45 28.98 21.2 29.08C19.55 29.74 17.8 30.07 16.01 30.07H16Z" fill="#91CC04"/>
<path d="M24.47 15.81C24.9 15.81 25.26 15.46 25.26 15.02C25.26 14.58 24.91 14.23 24.47 14.23C24.03 14.23 23.68 14.58 23.68 15.02C23.68 15.46 24.03 15.81 24.47 15.81Z" fill="#91CC04"/>
<path d="M19.29 17.59C19.72 17.59 20.08 17.24 20.08 16.8C20.08 16.36 19.73 16.01 19.29 16.01C18.85 16.01 18.5 16.36 18.5 16.8C18.5 17.24 18.85 17.59 19.29 17.59Z" fill="#91CC04"/>
<path d="M20.08 6.78C20.51 6.78 20.87 6.43 20.87 5.99C20.87 5.55 20.52 5.2 20.08 5.2C19.64 5.2 19.29 5.55 19.29 5.99C19.29 6.43 19.64 6.78 20.08 6.78Z" fill="#91CC04"/>
<path d="M23.16 18.93C23.03 18.93 22.9 18.88 22.81 18.79C22.72 18.7 22.67 18.57 22.67 18.44C22.67 18.31 22.72 18.18 22.81 18.09C22.9 18 23.03 17.95 23.16 17.95C23.29 17.95 23.41 18 23.51 18.09C23.6 18.18 23.65 18.31 23.65 18.44C23.65 18.57 23.6 18.69 23.51 18.79C23.42 18.88 23.29 18.93 23.16 18.93Z" fill="#91CC04"/>
<path d="M15.65 16.14C15.52 16.14 15.39 16.09 15.3 16C15.21 15.91 15.16 15.78 15.16 15.65C15.16 15.52 15.21 15.39 15.3 15.3C15.39 15.21 15.52 15.16 15.65 15.16C15.78 15.16 15.9 15.21 16 15.3C16.09 15.39 16.14 15.52 16.14 15.65C16.14 15.78 16.09 15.9 16 16C15.91 16.09 15.78 16.14 15.65 16.14Z" fill="#91CC04"/>
<path d="M16.75 7.76C16.62 7.76 16.49 7.71 16.4 7.62C16.31 7.53 16.26 7.4 16.26 7.27C16.26 7.14 16.31 7.01 16.4 6.92C16.49 6.83 16.62 6.78 16.75 6.78C16.88 6.78 17 6.83 17.1 6.92C17.19 7.01 17.24 7.14 17.24 7.27C17.24 7.4 17.19 7.52 17.1 7.62C17.01 7.71 16.88 7.76 16.75 7.76Z" fill="#91CC04"/>
<path d="M17.24 3.65C17.11 3.65 16.98 3.6 16.89 3.51C16.8 3.42 16.75 3.29 16.75 3.16C16.75 3.03 16.8 2.9 16.89 2.81C16.98 2.72 17.11 2.67 17.24 2.67C17.37 2.67 17.49 2.72 17.59 2.81C17.68 2.9 17.73 3.03 17.73 3.16C17.73 3.29 17.68 3.41 17.59 3.51C17.5 3.6 17.37 3.65 17.24 3.65Z" fill="#91CC04"/>
</g>
</g>
<defs>
<clipPath id="clip0_32_22760">
<rect width="32" height="32" fill="white"/>
</clipPath>
</defs>
</svg>
